<svg xmlns="http://www.w3.org/2000/svg" viewBox="0 0 728 90"><g id="Layer_2" data-name="Layer 2"><g id="REC"><rect width="728" height="90" fill="none"/></g><g id="sub"><path d="M271.3,41V30.32h5.25a3.73,3.73,0,0,1,1.3.21,2.88,2.88,0,0,1,.95.58,2.58,2.58,0,0,1,.59.87,2.84,2.84,0,0,1,.2,1.05,2.63,2.63,0,0,1-.15.91,2.71,2.71,0,0,1-.41.73,2.33,2.33,0,0,1-1.3.81,2.13,2.13,0,0,1,.81.29,2.64,2.64,0,0,1,.66.59,2.72,2.72,0,0,1,.59,1.73,3.3,3.3,0,0,1-.19,1.15,2.71,2.71,0,0,1-.6.92,2.59,2.59,0,0,1-1,.61,3.73,3.73,0,0,1-1.34.22Zm4.88-6.29a1.5,1.5,0,0,0,1.1-.38,1.41,1.41,0,0,0,0-2,1.46,1.46,0,0,0-1.1-.39h-3V34.7Zm.08,4.62a1.69,1.69,0,0,0,1.19-.39,1.41,1.41,0,0,0,.43-1.09,1.48,1.48,0,0,0-.41-1,1.59,1.59,0,0,0-1.21-.44h-3.09v3Z" fill="#e52823"/><path d="M286.85,41V40a4.14,4.14,0,0,1-1.11.84,3.33,3.33,0,0,1-1.61.38,2.52,2.52,0,0,1-1.87-.63,2.47,2.47,0,0,1-.63-1.82V33.26h1.69v4.85a1.53,1.53,0,0,0,.42,1.24,1.74,1.74,0,0,0,1.14.34,2.17,2.17,0,0,0,1.16-.31,2.7,2.7,0,0,0,.81-.7V33.26h1.68V41Z" fill="#e52823"/><path d="M293.75,44.12a4.87,4.87,0,0,1-1.73-.28,4,4,0,0,1-1.39-.87l.78-1.21a2.45,2.45,0,0,0,1,.76,3.83,3.83,0,0,0,1.3.23,2.27,2.27,0,0,0,1.6-.55,2.13,2.13,0,0,0,.57-1.6v-.89a4,4,0,0,1-1.11.84,3.33,3.33,0,0,1-1.61.37,2.53,2.53,0,0,1-1.87-.63,2.48,2.48,0,0,1-.62-1.81V33.26h1.68v4.59a1.53,1.53,0,0,0,.42,1.24,1.75,1.75,0,0,0,1.15.35,2.22,2.22,0,0,0,1.16-.32,2.76,2.76,0,0,0,.8-.69V33.26h1.68V40.6a3.67,3.67,0,0,1-.29,1.53,3.1,3.1,0,0,1-.8,1.11,3.64,3.64,0,0,1-1.23.66A5,5,0,0,1,293.75,44.12Z" fill="#e52823"/><path d="M303.62,41V39.5c1-.78,1.92-1.46,2.65-2a23.11,23.11,0,0,0,1.79-1.57,6.27,6.27,0,0,0,1-1.28,2.34,2.34,0,0,0,.32-1.16,1.47,1.47,0,0,0-.16-.72,1.68,1.68,0,0,0-.44-.51,1.82,1.82,0,0,0-.63-.29,2.46,2.46,0,0,0-.72-.1,3.71,3.71,0,0,0-1.65.34,3.89,3.89,0,0,0-1.23.92l-1.09-1.21a4.44,4.44,0,0,1,1.77-1.29,5.84,5.84,0,0,1,2.19-.42,5.12,5.12,0,0,1,1.47.21,4,4,0,0,1,1.23.63,3.19,3.19,0,0,1,.84,1,3,3,0,0,1,.31,1.41,3.48,3.48,0,0,1-.32,1.45,6.75,6.75,0,0,1-.94,1.43,15.62,15.62,0,0,1-1.47,1.46c-.57.49-1.21,1-1.92,1.55h4.72V41Z" fill="#e52823"/><path d="M320.71,44.12a5.85,5.85,0,0,1-1.76-.24,4.08,4.08,0,0,1-1.49-.91l.78-1.21a2.67,2.67,0,0,0,1.09.76,4,4,0,0,0,1.38.23,3.3,3.3,0,0,0,.82-.11,2,2,0,0,0,.74-.36,1.91,1.91,0,0,0,.52-.66,2.25,2.25,0,0,0,.2-1v-.88a3.36,3.36,0,0,1-1.08.94,2.75,2.75,0,0,1-1.4.35,3.4,3.4,0,0,1-1.36-.26,2.92,2.92,0,0,1-1.09-.77,3.42,3.42,0,0,1-.71-1.24,5.59,5.59,0,0,1,0-3.37,3.55,3.55,0,0,1,.71-1.25,3,3,0,0,1,1.08-.78,3.56,3.56,0,0,1,1.37-.26,3,3,0,0,1,1.38.32,3.08,3.08,0,0,1,1.1.94V33.26h1.68v7.33a3.73,3.73,0,0,1-.35,1.73,2.87,2.87,0,0,1-.92,1.08,3.36,3.36,0,0,1-1.28.56A6.16,6.16,0,0,1,320.71,44.12Zm.3-4.62a2.34,2.34,0,0,0,1.14-.3,2.53,2.53,0,0,0,.84-.72v-2.9a2.55,2.55,0,0,0-2-1,2,2,0,0,0-1.6.68,3,3,0,0,0,0,3.59A2,2,0,0,0,321,39.5Z" fill="#e52823"/><path d="M330.43,41.18a4.52,4.52,0,0,1-1.62-.29,3.56,3.56,0,0,1-1.28-.82,3.79,3.79,0,0,1-.84-1.29,4.46,4.46,0,0,1-.3-1.66,4.38,4.38,0,0,1,.28-1.58,3.78,3.78,0,0,1,2.05-2.15,4.1,4.1,0,0,1,3.15,0,3.5,3.5,0,0,1,1.2.87,3.88,3.88,0,0,1,.76,1.33,5,5,0,0,1,.27,1.68v.42h-6a2.28,2.28,0,0,0,.23.81,2.36,2.36,0,0,0,.49.68,2.39,2.39,0,0,0,.75.47,2.7,2.7,0,0,0,1,.16,3.42,3.42,0,0,0,1.19-.22,2.81,2.81,0,0,0,1-.64l.77,1.1a3.81,3.81,0,0,1-1.41.85A5.19,5.19,0,0,1,330.43,41.18Zm2.05-4.7a2.26,2.26,0,0,0-.15-.7,2.05,2.05,0,0,0-.4-.66,2.16,2.16,0,0,0-.66-.48,2.44,2.44,0,0,0-1.91,0,1.82,1.82,0,0,0-.66.48,2.23,2.23,0,0,0-.41.65,2.08,2.08,0,0,0-.16.72Z" fill="#e52823"/><path d="M338.1,41.18a2,2,0,0,1-1.49-.51,2.06,2.06,0,0,1-.5-1.49V34.72h-1.28V33.26h1.28V31.15h1.68v2.11h1.57v1.46h-1.57v4a1.18,1.18,0,0,0,.19.67.63.63,0,0,0,.55.26,1,1,0,0,0,.44-.09.75.75,0,0,0,.3-.2l.4,1.28a2,2,0,0,1-.61.36A3,3,0,0,1,338.1,41.18Z" fill="#e52823"/><path d="M347,41V32.73l-1.75,1.83-1.08-1.14,3.07-3.1h1.63V41Z" fill="#e52823"/><path d="M355.62,41V34.72h-1.28V33.26h1.28v-.43a2.69,2.69,0,0,1,.69-2,2.37,2.37,0,0,1,1.74-.68,2.86,2.86,0,0,1,1.36.28L359,31.71a1.17,1.17,0,0,0-.67-.18,1,1,0,0,0-.79.32,1.43,1.43,0,0,0-.28,1v.43h1.57v1.46H357.3V41Z" fill="#e52823"/><path d="M360.15,41V33.26h1.68v1.12a3.73,3.73,0,0,1,1.1-.94,2.8,2.8,0,0,1,1.41-.37v1.66a2.59,2.59,0,0,0-.51,0,2.3,2.3,0,0,0-.57.08,3.18,3.18,0,0,0-.58.23,2.55,2.55,0,0,0-.5.33,1.79,1.79,0,0,0-.35.4V41Z" fill="#e52823"/><path d="M369.28,41.18a4.45,4.45,0,0,1-1.62-.29,3.48,3.48,0,0,1-1.28-.82,3.79,3.79,0,0,1-.84-1.29,4.27,4.27,0,0,1-.31-1.66,4.39,4.39,0,0,1,.29-1.58,3.72,3.72,0,0,1,.81-1.29,3.88,3.88,0,0,1,1.24-.86,3.75,3.75,0,0,1,1.58-.32,3.79,3.79,0,0,1,1.57.31,3.5,3.5,0,0,1,1.2.87,4.05,4.05,0,0,1,.76,1.33,5,5,0,0,1,.27,1.68v.42h-6a2.53,2.53,0,0,0,.24.81,2.19,2.19,0,0,0,.49.68,2.46,2.46,0,0,0,.74.47,2.76,2.76,0,0,0,1,.16,3.32,3.32,0,0,0,1.18-.22,2.77,2.77,0,0,0,1-.64l.77,1.1a3.89,3.89,0,0,1-1.41.85A5.23,5.23,0,0,1,369.28,41.18Zm2.05-4.7a2.24,2.24,0,0,0-.55-1.36,2.09,2.09,0,0,0-.67-.48,2.18,2.18,0,0,0-1-.2,2.27,2.27,0,0,0-.93.19,2,2,0,0,0-.67.48,2.2,2.2,0,0,0-.4.65,2.08,2.08,0,0,0-.16.72Z" fill="#e52823"/><path d="M378.19,41.18a4.49,4.49,0,0,1-1.62-.29,3.56,3.56,0,0,1-1.28-.82,3.79,3.79,0,0,1-.84-1.29,4.46,4.46,0,0,1-.31-1.66,4.39,4.39,0,0,1,.29-1.58,3.72,3.72,0,0,1,.81-1.29,3.88,3.88,0,0,1,1.24-.86,3.75,3.75,0,0,1,1.58-.32,3.79,3.79,0,0,1,1.57.31,3.5,3.5,0,0,1,1.2.87,3.88,3.88,0,0,1,.76,1.33,5,5,0,0,1,.27,1.68v.42h-6a2.53,2.53,0,0,0,.24.81,2.19,2.19,0,0,0,.49.68,2.39,2.39,0,0,0,.75.47,2.7,2.7,0,0,0,1,.16,3.42,3.42,0,0,0,1.19-.22,2.81,2.81,0,0,0,1-.64l.77,1.1a3.89,3.89,0,0,1-1.41.85A5.19,5.19,0,0,1,378.19,41.18Zm2.05-4.7a2.26,2.26,0,0,0-.15-.7,2.05,2.05,0,0,0-.4-.66,2.09,2.09,0,0,0-.67-.48,2.18,2.18,0,0,0-1-.2,2.27,2.27,0,0,0-.93.19,1.82,1.82,0,0,0-.66.48,2,2,0,0,0-.41.65,2.08,2.08,0,0,0-.16.72Z" fill="#e52823"/><path d="M391.15,41.18a4,4,0,0,1-1.66-.33,3.77,3.77,0,0,1-1.25-.88,3.84,3.84,0,0,1-.78-1.29,4.51,4.51,0,0,1,0-3.13,3.84,3.84,0,0,1,.78-1.29,3.6,3.6,0,0,1,1.25-.87,4,4,0,0,1,1.66-.32,4,4,0,0,1,1.67.32,3.56,3.56,0,0,1,1.24.87,3.71,3.71,0,0,1,.79,1.29,4.67,4.67,0,0,1,0,3.13,3.78,3.78,0,0,1-2,2.17A4,4,0,0,1,391.15,41.18Zm0-1.49a2.09,2.09,0,0,0,1-.21,1.91,1.91,0,0,0,.7-.56,2.28,2.28,0,0,0,.42-.82,3.19,3.19,0,0,0,.15-1,3.14,3.14,0,0,0-.15-1,2.36,2.36,0,0,0-.42-.82,2.14,2.14,0,0,0-.7-.56,2.22,2.22,0,0,0-1-.2,2.2,2.2,0,0,0-.94.2,2.29,2.29,0,0,0-.71.56,2.57,2.57,0,0,0-.43.82,3.46,3.46,0,0,0-.14,1,3.52,3.52,0,0,0,.14,1,2.47,2.47,0,0,0,.43.82,2,2,0,0,0,.71.56A2.06,2.06,0,0,0,391.15,39.69Z" fill="#e52823"/><path d="M402.06,41V36.16a1.56,1.56,0,0,0-.42-1.26,1.74,1.74,0,0,0-1.14-.34,2.09,2.09,0,0,0-1.16.32,2.93,2.93,0,0,0-.83.7V41h-1.68V33.26h1.68v1a4.08,4.08,0,0,1,.47-.45,3.66,3.66,0,0,1,.64-.4,3.42,3.42,0,0,1,.76-.28,3.46,3.46,0,0,1,.87-.1,2.22,2.22,0,0,1,2.49,2.48V41Z" fill="#e52823"/><path d="M273.91,60.38a5.34,5.34,0,0,1-1.86-.31,4,4,0,0,1-1.45-.91l.76-1.2a2.92,2.92,0,0,0,.5.4,3.53,3.53,0,0,0,.64.35,4.46,4.46,0,0,0,.73.24A3.18,3.18,0,0,0,274,59a2,2,0,0,0,1.15-.28.89.89,0,0,0,.39-.75.61.61,0,0,0-.35-.57,3.16,3.16,0,0,0-.86-.32l-1.13-.26a4.7,4.7,0,0,1-1.13-.38,2.53,2.53,0,0,1-.86-.69,1.85,1.85,0,0,1-.35-1.19,2,2,0,0,1,.21-.9,2.05,2.05,0,0,1,.58-.74,2.87,2.87,0,0,1,.95-.51,4.32,4.32,0,0,1,1.31-.18,4.57,4.57,0,0,1,1.73.3,4.33,4.33,0,0,1,1.26.77l-.71,1.18a2.89,2.89,0,0,0-1-.65,3.19,3.19,0,0,0-1.33-.27,1.77,1.77,0,0,0-1.05.27.82.82,0,0,0-.38.69.57.57,0,0,0,.34.51,3.68,3.68,0,0,0,.87.29l1.13.26a4.74,4.74,0,0,1,1.13.4,2.61,2.61,0,0,1,.86.72,2,2,0,0,1,.34,1.22,2.32,2.32,0,0,1-.2,1,2.1,2.1,0,0,1-.62.77,3.09,3.09,0,0,1-1,.51A4.81,4.81,0,0,1,273.91,60.38Z" fill="#e52823"/><path d="M282.39,60.38a4.54,4.54,0,0,1-1.63-.29,3.65,3.65,0,0,1-1.28-.82,4.11,4.11,0,0,1-.84-1.29,4.46,4.46,0,0,1-.3-1.66,4.39,4.39,0,0,1,.29-1.58,3.81,3.81,0,0,1,2-2.15,4,4,0,0,1,1.59-.32,3.83,3.83,0,0,1,1.57.31,3.5,3.5,0,0,1,1.2.87,4.05,4.05,0,0,1,.76,1.33,5.28,5.28,0,0,1,.26,1.68v.42H280.1a2.51,2.51,0,0,0,.23.81,2.22,2.22,0,0,0,.5.68,2.34,2.34,0,0,0,.74.47,2.72,2.72,0,0,0,1,.16,3.36,3.36,0,0,0,1.18-.22,2.65,2.65,0,0,0,1-.64l.77,1.1a3.77,3.77,0,0,1-1.4.85A5.23,5.23,0,0,1,282.39,60.38Zm2.05-4.7a2.61,2.61,0,0,0-.16-.7,2.05,2.05,0,0,0-.4-.66,1.94,1.94,0,0,0-.66-.48,2.22,2.22,0,0,0-1-.2,2.19,2.19,0,0,0-.92.19,2,2,0,0,0-.67.48,2.23,2.23,0,0,0-.41.65,2.34,2.34,0,0,0-.16.72Z" fill="#e52823"/><path d="M289.7,60.38a2,2,0,0,1-1.48-.51,2,2,0,0,1-.51-1.49V49.52h1.69V58a1.17,1.17,0,0,0,.18.67.64.64,0,0,0,.55.26,1.13,1.13,0,0,0,.45-.09.63.63,0,0,0,.3-.2l.4,1.28a1.86,1.86,0,0,1-.61.36A2.93,2.93,0,0,1,289.7,60.38Z" fill="#e52823"/><path d="M295.88,60.38a4.54,4.54,0,0,1-1.63-.29,3.56,3.56,0,0,1-1.28-.82,3.79,3.79,0,0,1-.84-1.29,4.46,4.46,0,0,1-.3-1.66,4.18,4.18,0,0,1,.29-1.58,4,4,0,0,1,.8-1.29,3.88,3.88,0,0,1,1.24-.86,3.93,3.93,0,0,1,1.59-.32,3.83,3.83,0,0,1,1.57.31,3.7,3.7,0,0,1,1.2.87,4.05,4.05,0,0,1,.76,1.33,5.28,5.28,0,0,1,.26,1.68v.42h-6a2.51,2.51,0,0,0,.23.81,2.33,2.33,0,0,0,1.24,1.15,2.72,2.72,0,0,0,1,.16,3.41,3.41,0,0,0,1.18-.22,2.73,2.73,0,0,0,1-.64l.77,1.1a3.73,3.73,0,0,1-1.41.85A5.18,5.18,0,0,1,295.88,60.38Zm2-4.7a2.26,2.26,0,0,0-.15-.7,2,2,0,0,0-1.06-1.14,2.22,2.22,0,0,0-1-.2,2.27,2.27,0,0,0-.93.19,2,2,0,0,0-.66.48,2.23,2.23,0,0,0-.41.65,2.34,2.34,0,0,0-.16.72Z" fill="#e52823"/><path d="M304.72,60.38a4.15,4.15,0,0,1-1.6-.3,3.84,3.84,0,0,1-1.26-.85,3.74,3.74,0,0,1-.82-1.29,4.32,4.32,0,0,1-.3-1.62,4.25,4.25,0,0,1,.3-1.62,3.8,3.8,0,0,1,.82-1.28,3.84,3.84,0,0,1,1.26-.85,4.15,4.15,0,0,1,1.6-.3,4.67,4.67,0,0,1,1,.11,4.27,4.27,0,0,1,.81.3,3.35,3.35,0,0,1,.63.44,4.62,4.62,0,0,1,.48.52l-1.1,1a2.08,2.08,0,0,0-1.78-.89,2.13,2.13,0,0,0-1.69.71,2.64,2.64,0,0,0-.64,1.85,2.89,2.89,0,0,0,.17,1,2.26,2.26,0,0,0,.48.81,2.17,2.17,0,0,0,.73.54,2.24,2.24,0,0,0,.95.19,2.07,2.07,0,0,0,1.78-.93l1.1,1a3.51,3.51,0,0,1-3,1.38Z" fill="#e52823"/><path d="M311.51,60.38a2,2,0,0,1-1.49-.51,2.06,2.06,0,0,1-.5-1.49V53.92h-1.28V52.46h1.28V50.35h1.68v2.11h1.57v1.46H311.2v4a1.11,1.11,0,0,0,.19.67.63.63,0,0,0,.55.26,1,1,0,0,0,.44-.09.65.65,0,0,0,.29-.2l.41,1.28a2,2,0,0,1-.61.36A3,3,0,0,1,311.51,60.38Z" fill="#e52823"/><path d="M321.92,60.38a4.23,4.23,0,0,1-1.61-.3,3.81,3.81,0,0,1-2.08-2.14,4.52,4.52,0,0,1-.29-1.62,4.45,4.45,0,0,1,.29-1.62,4,4,0,0,1,.83-1.28,3.9,3.9,0,0,1,1.25-.85,4.23,4.23,0,0,1,1.61-.3,4.67,4.67,0,0,1,1,.11,4.27,4.27,0,0,1,.81.3,3.35,3.35,0,0,1,.63.44,4.62,4.62,0,0,1,.48.52l-1.1,1a2.08,2.08,0,0,0-1.78-.89,2.13,2.13,0,0,0-1.69.71,2.64,2.64,0,0,0-.64,1.85,3.13,3.13,0,0,0,.16,1,2.6,2.6,0,0,0,.48.81,2.31,2.31,0,0,0,.74.54,2.24,2.24,0,0,0,.95.19,2.07,2.07,0,0,0,1.78-.93l1.1,1a3.51,3.51,0,0,1-3,1.38Z" fill="#e52823"/><path d="M331.81,60.19V59.13a3.25,3.25,0,0,1-1.08.91,2.87,2.87,0,0,1-1.4.34,3.45,3.45,0,0,1-1.37-.27,3.05,3.05,0,0,1-1.09-.8,3.86,3.86,0,0,1-.71-1.28,5.3,5.3,0,0,1-.25-1.71,5.2,5.2,0,0,1,.25-1.68,3.76,3.76,0,0,1,.71-1.28,3.14,3.14,0,0,1,1.08-.81,3.31,3.31,0,0,1,1.38-.28,3.11,3.11,0,0,1,1.38.32,3.16,3.16,0,0,1,1.1.94V52.46h1.68v7.73Zm-2-1.3a2,2,0,0,0,.58-.08,2.72,2.72,0,0,0,.56-.22,2.89,2.89,0,0,0,.48-.33,2,2,0,0,0,.36-.41V54.8a2.25,2.25,0,0,0-.36-.4,2.43,2.43,0,0,0-.48-.34,2.25,2.25,0,0,0-.56-.22,2,2,0,0,0-.58-.08,2.1,2.1,0,0,0-.92.19,2.06,2.06,0,0,0-.68.53,2.14,2.14,0,0,0-.44.8,3.43,3.43,0,0,0,0,2.07,2.19,2.19,0,0,0,.44.81,2,2,0,0,0,1.6.73Z" fill="#e52823"/><path d="M338,60.38a2,2,0,0,1-1.49-.51,2.06,2.06,0,0,1-.49-1.49V53.92h-1.28V52.46H336V50.35h1.68v2.11h1.57v1.46H337.7v4a1.17,1.17,0,0,0,.18.67.64.64,0,0,0,.55.26,1,1,0,0,0,.44-.09.63.63,0,0,0,.3-.2l.4,1.28a1.86,1.86,0,0,1-.61.36A2.87,2.87,0,0,1,338,60.38Z" fill="#e52823"/><path d="M347.23,60.38a2,2,0,0,1-1.48-.51,2.06,2.06,0,0,1-.5-1.49V53.92H344V52.46h1.28V50.35h1.68v2.11h1.57v1.46h-1.57v4a1.17,1.17,0,0,0,.18.67.66.66,0,0,0,.56.26,1.08,1.08,0,0,0,.44-.09.65.65,0,0,0,.29-.2l.4,1.28a1.86,1.86,0,0,1-.61.36A2.87,2.87,0,0,1,347.23,60.38Z" fill="#e52823"/><path d="M350,60.19V52.46h1.68v1.12a4.07,4.07,0,0,1,1.11-.94,2.74,2.74,0,0,1,1.4-.37v1.66a2.59,2.59,0,0,0-.51,0,2.37,2.37,0,0,0-.57.08,3.09,3.09,0,0,0-.57.23,2.63,2.63,0,0,0-.51.33,2.09,2.09,0,0,0-.35.4v5.27Z" fill="#e52823"/><path d="M359.14,60.38a4.54,4.54,0,0,1-1.63-.29,3.65,3.65,0,0,1-1.28-.82,4.11,4.11,0,0,1-.84-1.29,4.46,4.46,0,0,1-.3-1.66,4.39,4.39,0,0,1,.29-1.58,3.81,3.81,0,0,1,2-2.15,4,4,0,0,1,1.59-.32,3.83,3.83,0,0,1,1.57.31,3.5,3.5,0,0,1,1.2.87,4.05,4.05,0,0,1,.76,1.33,5.28,5.28,0,0,1,.26,1.68v.42h-5.95a2.51,2.51,0,0,0,.23.81,2.22,2.22,0,0,0,.5.68,2.34,2.34,0,0,0,.74.47,2.72,2.72,0,0,0,1,.16,3.36,3.36,0,0,0,1.18-.22,2.65,2.65,0,0,0,1-.64l.77,1.1a3.77,3.77,0,0,1-1.4.85A5.23,5.23,0,0,1,359.14,60.38Zm2.05-4.7A2.61,2.61,0,0,0,361,55a2.05,2.05,0,0,0-.4-.66,1.94,1.94,0,0,0-.66-.48,2.22,2.22,0,0,0-1-.2,2.19,2.19,0,0,0-.92.19,2,2,0,0,0-.67.48A2.23,2.23,0,0,0,357,55a2.34,2.34,0,0,0-.16.72Z" fill="#e52823"/><path d="M369.91,60.19V59.13a3.25,3.25,0,0,1-1.08.91,2.91,2.91,0,0,1-1.41.34,3.4,3.4,0,0,1-1.36-.27,3,3,0,0,1-1.09-.8,3.86,3.86,0,0,1-.71-1.28,5.3,5.3,0,0,1-.26-1.71,5.2,5.2,0,0,1,.26-1.68,3.76,3.76,0,0,1,.71-1.28,3,3,0,0,1,1.08-.81,3.23,3.23,0,0,1,1.37-.28,3.05,3.05,0,0,1,2.49,1.26V52.46h1.67v7.73Zm-2-1.3a1.93,1.93,0,0,0,.58-.08,2.8,2.8,0,0,0,.57-.22,3.28,3.28,0,0,0,.47-.33,1.79,1.79,0,0,0,.37-.41V54.8a2,2,0,0,0-.37-.4,2.69,2.69,0,0,0-.47-.34,2.32,2.32,0,0,0-.57-.22,1.93,1.93,0,0,0-.58-.08A2.06,2.06,0,0,0,367,54a2,2,0,0,0-.69.53,2.29,2.29,0,0,0-.44.8,3.65,3.65,0,0,0,0,2.07,2.34,2.34,0,0,0,.44.81,2,2,0,0,0,.69.54A2.06,2.06,0,0,0,367.92,58.89Z" fill="#e52823"/><path d="M376.1,60.38a2,2,0,0,1-1.49-.51,2.06,2.06,0,0,1-.5-1.49V53.92h-1.28V52.46h1.28V50.35h1.68v2.11h1.57v1.46h-1.57v4a1.11,1.11,0,0,0,.19.67.63.63,0,0,0,.55.26,1,1,0,0,0,.44-.09.65.65,0,0,0,.29-.2l.41,1.28a2,2,0,0,1-.61.36A3,3,0,0,1,376.1,60.38Z" fill="#e52823"/><path d="M381.52,60.38a5.24,5.24,0,0,1-1.85-.31,4,4,0,0,1-1.46-.91L379,58a2.84,2.84,0,0,0,.49.4,4.36,4.36,0,0,0,.64.35,4.79,4.79,0,0,0,.73.24,3.18,3.18,0,0,0,.74.09,2,2,0,0,0,1.16-.28.9.9,0,0,0,.38-.75.61.61,0,0,0-.34-.57,3.24,3.24,0,0,0-.87-.32c-.34-.09-.72-.17-1.13-.26a4.48,4.48,0,0,1-1.12-.38,2.47,2.47,0,0,1-.87-.69,1.85,1.85,0,0,1-.34-1.19,2,2,0,0,1,.2-.9,2.17,2.17,0,0,1,.58-.74,3,3,0,0,1,.95-.51,4.37,4.37,0,0,1,1.31-.18,4.57,4.57,0,0,1,1.73.3,4.33,4.33,0,0,1,1.26.77l-.7,1.18a3.05,3.05,0,0,0-1-.65,3.19,3.19,0,0,0-1.33-.27,1.77,1.77,0,0,0-1.05.27.82.82,0,0,0-.38.69.56.56,0,0,0,.35.51,3.75,3.75,0,0,0,.86.29l1.13.26a4.59,4.59,0,0,1,1.13.4,2.51,2.51,0,0,1,.86.72,2,2,0,0,1,.35,1.22,2.18,2.18,0,0,1-.21,1,2.1,2.1,0,0,1-.62.77,3.09,3.09,0,0,1-1,.51A4.81,4.81,0,0,1,381.52,60.38Z" fill="#e52823"/></g></g></svg>