<svg xmlns="http://www.w3.org/2000/svg" viewBox="0 0 300.4 600"><g id="Layer_2" data-name="Layer 2"><g id="content"><rect x="0.4" width="300" height="600"/><rect x="0.4" width="300" height="600" fill="none"/><path d="M143.7,251.34c0,1.84,0,3.53,0,5.37,1.08.06,2.31.28,3.39.37,0,4.47-.11,7.86-.11,12.34,3,.36,5.15.71,6,.86,0-4.48.17-8,.18-12.48,0,0,3.19.5,3.24.54,0-1.84,0-3.68,0-5.51a97.8,97.8,0,0,0-12.68-1.49Z" fill="#fff"/><path d="M44.13,244.86c19.07-5.82,28.69,8.77,28.69,8.77s-6-20.36-28.69-8.77Z" fill="#fff"/><path d="M81,245.61c0-.08,0-.6,0-.68a14.23,14.23,0,0,0-7.52,10.93s2.6-6,8.7-7.86A3.68,3.68,0,0,1,81,245.61Z" fill="#fff"/><path d="M56.67,254.12s-.05,2.88,0,4.33c-.73,0-3.89-.2-5.28-.25,0,.78-.05,1.58,0,2.36,1.66,0,3.39.23,5.06.21,0,1.4,0,2.6,0,4-1.66,0-3.33-.14-5-.17,0,.85,0,1.7,0,2.54,1.79,0,3.59.19,5.38.17,0-.07,0,4.25,0,4.25-3.55,0-7.75-.28-11.73-.61l.28-17.71c1.67.19,6.87.75,11.4.88Z" fill="#fff"/><path d="M58.18,254.16l-.07,4.62c1.67.09,3.18.09,3.18.09l0,12.84a40.36,40.36,0,0,0,6.4-.09l-.08-12.71s2.83-.13,3.27-.17c0-1.7,0-3-.06-4.72a113,113,0,0,1-12.62.14Z" fill="#fff"/><path d="M36.05,260l-.56-.06,0-3.64.54.05a1.86,1.86,0,0,1,1.85,1.95c0,1.5-.94,1.79-1.86,1.7Zm1.4-8.57L29.87,250l-.05,18.58c1.94.38,3.72.7,5.61.91l0-5.36c.67.07,1.38.16,2.05.22,3.29.31,6.61-.93,6.65-6.31,0-4.77-3.14-6.15-6.66-6.67Z" fill="#fff"/><path d="M100.76,268.68c.85-2.22,1.7-4.29,2.55-6.5.14,2.12.22,4,.35,6.15,2.12-.23,3.82-.36,6-.49-.55-5.64-1-11.69-1.58-17.34l-5.47.5c-1,2.67-2,5.9-3.06,8.57-1-2.47-2-5.36-3-7.82-1.85.26-5.13.83-5.47.84-.63,5.75-1.35,12.14-2,17.89,1.45-.25,5-.81,6.07-1l.49-6.58,2.46,6.14,2.64-.4Z" fill="#fff"/><path d="M134.43,258.94l-.56,0c0-1.2,0-2.4,0-3.6l.54,0a1.79,1.79,0,0,1,1.85,1.89,1.54,1.54,0,0,1-1.88,1.7Zm5.27,3.82c1.62-.72,2.79-2.29,2.84-5.41.06-4.7-3.26-6.7-6.62-7-2.55-.2-5.09-.33-7.64-.4-.08,6-.11,11.43-.19,17.4,1.9.05,4,.19,5.65.33,0-1.68,0-2.92.07-4.6,1.09,1.75,2,3.2,3.07,5,2.34.21,4.73.51,7.07.85-1.46-2.18-2.78-4.05-4.25-6.19Z" fill="#fff"/><path d="M117.48,261.61c.4-1.48.8-3,1.19-4.52.46,1.48.91,3,1.36,4.46-2.6.09-2.6.06-2.55.06Zm4.15-11.75c-2.26,0-4.1,0-6,.12-1.55,5.79-3.38,12-4.94,17.79,1.73,0,3.48-.15,5.21-.15l.5-1.93,2.64-.07s2.33-.07,2.33-.07c.07.23.28.83.58,1.85,1.73,0,3.46,0,5.19,0-1.87-6.13-3.76-12-5.47-17.58Z" fill="#fff"/><path d="M72.83,270.06a15.52,15.52,0,0,0,7,1.78c4,0,8.13-2.38,8.21-6.83.07-3.16-2-4.67-4.76-5.29l-1.5-.34c-.51-.13-1.34-.22-1.32-.92s.87-1,1.45-1a10.68,10.68,0,0,1,4.06.86l1.68-4.47a13.2,13.2,0,0,0-5.78-1.38c-4,0-8,2.42-8.1,6.84-.06,2.92,2.1,4.52,4.7,5l1.33.25c.61.12,1.48.2,1.47,1s-1.05.93-1.71.93A7.85,7.85,0,0,1,75,265c-.69,1.55-1.5,3.47-2.19,5Z" fill="#fff"/><path d="M87.19,239.8a4.47,4.47,0,1,0,4.41,4.52A4.47,4.47,0,0,0,87.19,239.8Zm1.62,1.65a5.31,5.31,0,0,0-4.79,2.8s0,.05,0,.07a3.31,3.31,0,0,1,.11-1.24,3,3,0,0,1,3.72-2.17,2.88,2.88,0,0,1,1,.56Z" fill="#fff"/><path d="M0,600c1.28-91.93,67.13-154.26,150-154.26S300.21,514.8,300.21,600" fill="#e52823"/><g id="Layer_5" data-name="Layer 5"><path d="M23.11,55.88V35.5h10a6.84,6.84,0,0,1,2.49.41A5.17,5.17,0,0,1,37.44,37a4.78,4.78,0,0,1,1.12,1.65,5.4,5.4,0,0,1,.38,2,5.12,5.12,0,0,1-.29,1.74,5.06,5.06,0,0,1-.78,1.39,4.63,4.63,0,0,1-1.13,1,4.37,4.37,0,0,1-1.35.55,4.13,4.13,0,0,1,1.55.56A5.11,5.11,0,0,1,38.19,47,5.4,5.4,0,0,1,39,48.56a5.32,5.32,0,0,1,.3,1.78,6.05,6.05,0,0,1-.38,2.2,4.88,4.88,0,0,1-1.13,1.76A5,5,0,0,1,36,55.46a7.21,7.21,0,0,1-2.55.42Zm9.32-12a2.85,2.85,0,0,0,2.11-.73,2.49,2.49,0,0,0,.73-1.87,2.55,2.55,0,0,0-.73-1.86,2.85,2.85,0,0,0-2.11-.74H26.69v5.2Zm.15,8.83A3.23,3.23,0,0,0,34.86,52a2.68,2.68,0,0,0,.81-2.08,2.82,2.82,0,0,0-.78-2,3,3,0,0,0-2.31-.83H26.69V52.7Z" fill="#fff"/><path d="M46.64,56.24a3.76,3.76,0,0,1-2.83-1,3.87,3.87,0,0,1-1-2.84V35.5h3.21V51.63a2.14,2.14,0,0,0,.35,1.27,1.2,1.2,0,0,0,1.05.5,2.24,2.24,0,0,0,.86-.17,1.57,1.57,0,0,0,.58-.38l.76,2.44A3.45,3.45,0,0,1,48.5,56,5.46,5.46,0,0,1,46.64,56.24Z" fill="#fff"/><path d="M62,55.88v-2a6.42,6.42,0,0,1-2.07,1.74,5.55,5.55,0,0,1-2.67.64,6.44,6.44,0,0,1-2.61-.52,5.5,5.5,0,0,1-2.08-1.53,7.12,7.12,0,0,1-1.36-2.44,10,10,0,0,1-.49-3.27,9.83,9.83,0,0,1,.49-3.21,7.22,7.22,0,0,1,1.36-2.44,5.84,5.84,0,0,1,2.06-1.54,6.31,6.31,0,0,1,2.63-.54,5.91,5.91,0,0,1,2.63.61A6.1,6.1,0,0,1,62,43.16v-2h3.2V55.88ZM58.19,53.4a4.35,4.35,0,0,0,1.11-.15,5.2,5.2,0,0,0,2-1.06,3.65,3.65,0,0,0,.69-.78V45.58a4.9,4.9,0,0,0-.69-.77,5.57,5.57,0,0,0-.92-.64,5,5,0,0,0-1.07-.42,4,4,0,0,0-1.11-.16,3.84,3.84,0,0,0-1.74.37,4,4,0,0,0-1.32,1,4.33,4.33,0,0,0-.84,1.54,6.84,6.84,0,0,0,0,3.94A4.51,4.51,0,0,0,55.13,52a3.88,3.88,0,0,0,3.06,1.39Z" fill="#fff"/><path d="M76.06,56.24A7.85,7.85,0,0,1,73,55.66,7.16,7.16,0,0,1,70.59,54,7.46,7.46,0,0,1,69,51.58a8.22,8.22,0,0,1-.57-3.1A8.08,8.08,0,0,1,69,45.4,7.52,7.52,0,0,1,70.59,43,7.16,7.16,0,0,1,73,41.33a7.85,7.85,0,0,1,3.07-.58A8.44,8.44,0,0,1,78,41a6.84,6.84,0,0,1,1.56.59,5.65,5.65,0,0,1,1.21.84,7,7,0,0,1,.91,1l-2.1,1.92a4,4,0,0,0-3.4-1.71A4.15,4.15,0,0,0,73,45a5.08,5.08,0,0,0-1.23,3.53,5.94,5.94,0,0,0,.32,2A4.67,4.67,0,0,0,73,52a4.26,4.26,0,0,0,3.22,1.39,4,4,0,0,0,3.4-1.77l2.1,2a7.23,7.23,0,0,1-2.14,1.84A6.81,6.81,0,0,1,76.06,56.24Z" fill="#fff"/><path d="M94.33,55.88l-4.49-6.12L87.76,51.9v4H84.55V35.5h3.21V48.24l6.51-7.12h4l-6.11,6.69,6.23,8.07Z" fill="#fff"/><path d="M108.63,55.88V35.5h14v3.17H112.21v5.2h10.17v3.18H112.21v8.83Z" fill="#fff"/><path d="M125.74,55.88V41.12H129v2.14a7.2,7.2,0,0,1,2.11-1.79,5.29,5.29,0,0,1,2.69-.72v3.18a4.81,4.81,0,0,0-1-.09,4.26,4.26,0,0,0-1.09.15,5.33,5.33,0,0,0-1.1.43,4.87,4.87,0,0,0-1,.64,3.33,3.33,0,0,0-.67.76V55.88Z" fill="#fff"/><path d="M138,39.31a2,2,0,0,1-2-2,2,2,0,0,1,2-2,2,2,0,0,1,2,2,2,2,0,0,1-2,2Zm-1.62,16.57V41.12h3.21V55.88Z" fill="#fff"/><path d="M154.09,55.88v-2A6.38,6.38,0,0,1,152,55.6a5.55,5.55,0,0,1-2.67.64,6.44,6.44,0,0,1-2.61-.52,5.5,5.5,0,0,1-2.08-1.53,7.29,7.29,0,0,1-1.36-2.44,10,10,0,0,1-.49-3.27,9.83,9.83,0,0,1,.49-3.21,7.39,7.39,0,0,1,1.36-2.44,5.84,5.84,0,0,1,2.06-1.54,6.31,6.31,0,0,1,2.63-.54,5.91,5.91,0,0,1,2.63.61,6,6,0,0,1,2.1,1.8V35.5h3.21V55.88Zm-3.78-2.48a4.35,4.35,0,0,0,1.11-.15,4.79,4.79,0,0,0,1.07-.43,5,5,0,0,0,.92-.63,3.35,3.35,0,0,0,.68-.78V45.58a4.37,4.37,0,0,0-.68-.77,5.57,5.57,0,0,0-.92-.64,4.77,4.77,0,0,0-1.07-.42,4,4,0,0,0-1.11-.16,3.87,3.87,0,0,0-1.74.37,4,4,0,0,0-1.32,1,4.33,4.33,0,0,0-.84,1.54,6.84,6.84,0,0,0,0,3.94,4.51,4.51,0,0,0,.84,1.56,3.88,3.88,0,0,0,3.06,1.39Z" fill="#fff"/><path d="M171.85,55.88v-2a6.49,6.49,0,0,1-2.06,1.74,5.61,5.61,0,0,1-2.68.64,6.44,6.44,0,0,1-2.61-.52,5.5,5.5,0,0,1-2.08-1.53,7.29,7.29,0,0,1-1.36-2.44,10.31,10.31,0,0,1-.49-3.27,10.11,10.11,0,0,1,.49-3.21,7.39,7.39,0,0,1,1.36-2.44,5.84,5.84,0,0,1,2.06-1.54,6.31,6.31,0,0,1,2.63-.54,5.91,5.91,0,0,1,2.63.61,6,6,0,0,1,2.11,1.8v-2h3.21V55.88Zm-3.79-2.48a4.24,4.24,0,0,0,1.11-.15,4.79,4.79,0,0,0,1.07-.43,4.67,4.67,0,0,0,.92-.63,3.39,3.39,0,0,0,.69-.78V45.58a4.44,4.44,0,0,0-.69-.77,5.18,5.18,0,0,0-.92-.64,4.77,4.77,0,0,0-1.07-.42,4.14,4.14,0,0,0-2.85.21A4,4,0,0,0,165,45a4.66,4.66,0,0,0-.84,1.54,6.84,6.84,0,0,0,0,3.94A4.87,4.87,0,0,0,165,52a3.85,3.85,0,0,0,1.32,1A3.9,3.9,0,0,0,168.06,53.4Z" fill="#fff"/><path d="M185,61.86a9.29,9.29,0,0,1-3.3-.53,7.93,7.93,0,0,1-2.66-1.67l1.5-2.32a4.39,4.39,0,0,0,2,1.45,7,7,0,0,0,2.48.45,4.19,4.19,0,0,0,3-1.06,4,4,0,0,0,1.1-3V53.43A7.92,7.92,0,0,1,187.05,55a6.47,6.47,0,0,1-3.07.71,4.85,4.85,0,0,1-3.58-1.2,4.76,4.76,0,0,1-1.19-3.47v-10h3.21v8.77a2.88,2.88,0,0,0,.81,2.36,3.36,3.36,0,0,0,2.18.66,4.28,4.28,0,0,0,2.22-.59A5.25,5.25,0,0,0,189.17,51V41.12h3.21v14a7.24,7.24,0,0,1-.55,2.92,5.69,5.69,0,0,1-1.54,2.11A6.87,6.87,0,0,1,188,61.44,9.79,9.79,0,0,1,185,61.86Z" fill="#fff"/><path d="M214.81,55.88v-2a6.42,6.42,0,0,1-2.07,1.74,5.55,5.55,0,0,1-2.67.64,6.44,6.44,0,0,1-2.61-.52,5.5,5.5,0,0,1-2.08-1.53A7.29,7.29,0,0,1,204,51.75a10.31,10.31,0,0,1-.49-3.27,10.11,10.11,0,0,1,.49-3.21,7.39,7.39,0,0,1,1.36-2.44,5.84,5.84,0,0,1,2.06-1.54,6.31,6.31,0,0,1,2.63-.54,5.91,5.91,0,0,1,2.63.61,6,6,0,0,1,2.11,1.8V35.5H218V55.88ZM211,53.4a4.3,4.3,0,0,0,1.11-.15,4.79,4.79,0,0,0,1.07-.43,5,5,0,0,0,.92-.63,3.65,3.65,0,0,0,.69-.78V45.58a4.9,4.9,0,0,0-.69-.77,5.57,5.57,0,0,0-.92-.64,4.77,4.77,0,0,0-1.07-.42,3.92,3.92,0,0,0-1.11-.16,3.87,3.87,0,0,0-1.74.37A4,4,0,0,0,208,45a4.66,4.66,0,0,0-.84,1.54,6.84,6.84,0,0,0,0,3.94A4.87,4.87,0,0,0,208,52,3.88,3.88,0,0,0,211,53.4Z" fill="#fff"/><path d="M229,56.24a8.45,8.45,0,0,1-3.1-.55,6.92,6.92,0,0,1-2.44-1.57,7.35,7.35,0,0,1-1.61-2.46,8.57,8.57,0,0,1-.58-3.18,8.42,8.42,0,0,1,.55-3A7.25,7.25,0,0,1,223.38,43a7.31,7.31,0,0,1,5.39-2.26,7.23,7.23,0,0,1,3,.6,6.59,6.59,0,0,1,2.3,1.66,7.56,7.56,0,0,1,1.45,2.54,10,10,0,0,1,.5,3.21v.79H224.65a4.66,4.66,0,0,0,.44,1.56,4.2,4.2,0,0,0,2.37,2.18,5,5,0,0,0,1.86.32,6.62,6.62,0,0,0,2.26-.42,5.37,5.37,0,0,0,2-1.23L235,54.07a7.26,7.26,0,0,1-2.69,1.62A9.69,9.69,0,0,1,229,56.24Zm3.92-9a4.43,4.43,0,0,0-.29-1.33,4,4,0,0,0-.77-1.25,3.91,3.91,0,0,0-1.27-.93,4.2,4.2,0,0,0-1.86-.37,4.27,4.27,0,0,0-1.77.35,3.65,3.65,0,0,0-1.27.92,4,4,0,0,0-.78,1.25,4.24,4.24,0,0,0-.31,1.36Z" fill="#fff"/><path d="M249.58,55.88v-2a6.49,6.49,0,0,1-2.06,1.74,5.61,5.61,0,0,1-2.68.64,6.44,6.44,0,0,1-2.61-.52,5.5,5.5,0,0,1-2.08-1.53,7.29,7.29,0,0,1-1.36-2.44,10.31,10.31,0,0,1-.49-3.27,10.11,10.11,0,0,1,.49-3.21,7.39,7.39,0,0,1,1.36-2.44,5.84,5.84,0,0,1,2.06-1.54,6.31,6.31,0,0,1,2.63-.54,5.91,5.91,0,0,1,2.63.61,6,6,0,0,1,2.11,1.8v-2h3.21V55.88Zm-3.79-2.48a4.24,4.24,0,0,0,1.11-.15,4.79,4.79,0,0,0,1.07-.43,5,5,0,0,0,.92-.63,3.65,3.65,0,0,0,.69-.78V45.58a4.9,4.9,0,0,0-.69-.77,5.57,5.57,0,0,0-.92-.64,4.77,4.77,0,0,0-1.07-.42,4.14,4.14,0,0,0-2.85.21,4,4,0,0,0-1.32,1,4.66,4.66,0,0,0-.84,1.54,6.84,6.84,0,0,0,0,3.94,4.87,4.87,0,0,0,.84,1.56,3.85,3.85,0,0,0,1.32,1A3.9,3.9,0,0,0,245.79,53.4Z" fill="#fff"/><path d="M260.73,56.24a3.77,3.77,0,0,1-2.83-1,3.87,3.87,0,0,1-1-2.84V35.5h3.21V51.63a2.21,2.21,0,0,0,.35,1.27,1.21,1.21,0,0,0,1.05.5,2.2,2.2,0,0,0,.86-.17,1.57,1.57,0,0,0,.58-.38l.76,2.44a3.45,3.45,0,0,1-1.16.68A5.46,5.46,0,0,1,260.73,56.24Z" fill="#fff"/><path d="M270.75,56.24a10.35,10.35,0,0,1-3.54-.59,7.84,7.84,0,0,1-2.78-1.73l1.46-2.29a6.32,6.32,0,0,0,.95.76,7.07,7.07,0,0,0,1.22.66,8.39,8.39,0,0,0,1.39.46,6.33,6.33,0,0,0,1.42.17,3.7,3.7,0,0,0,2.2-.54,1.68,1.68,0,0,0,.74-1.42,1.18,1.18,0,0,0-.66-1.1A6.81,6.81,0,0,0,271.5,50c-.66-.16-1.38-.33-2.15-.49a9.15,9.15,0,0,1-2.16-.73,4.87,4.87,0,0,1-1.65-1.32,3.52,3.52,0,0,1-.66-2.26,3.9,3.9,0,0,1,.39-1.72,4.11,4.11,0,0,1,1.11-1.43,5.71,5.71,0,0,1,1.82-1,8.18,8.18,0,0,1,2.49-.35,8.71,8.71,0,0,1,3.32.58,8.19,8.19,0,0,1,2.39,1.47l-1.34,2.26a5.37,5.37,0,0,0-1.82-1.25,6,6,0,0,0-2.55-.52,3.33,3.33,0,0,0-2,.52,1.55,1.55,0,0,0-.72,1.31,1.06,1.06,0,0,0,.66,1,7.19,7.19,0,0,0,1.65.56l2.15.49a9.37,9.37,0,0,1,2.16.77,4.67,4.67,0,0,1,1.65,1.37,3.84,3.84,0,0,1,.65,2.34,4.22,4.22,0,0,1-.4,1.83,3.94,3.94,0,0,1-1.17,1.47,5.72,5.72,0,0,1-1.93,1A9.13,9.13,0,0,1,270.75,56.24Z" fill="#fff"/><path d="M34.58,95a17.6,17.6,0,0,1-7.18-1.33,15.29,15.29,0,0,1-5-3.43l3-4.09A14.28,14.28,0,0,0,29.26,89a11.75,11.75,0,0,0,5.54,1.26,9.36,9.36,0,0,0,2.77-.36A5.38,5.38,0,0,0,39.41,89a3.71,3.71,0,0,0,1-1.33,3.64,3.64,0,0,0,.34-1.5,2.69,2.69,0,0,0-1.28-2.4,12.4,12.4,0,0,0-3.24-1.42c-1.3-.39-2.7-.76-4.19-1.12a20.64,20.64,0,0,1-4.2-1.48,9.14,9.14,0,0,1-3.24-2.58,7,7,0,0,1-1.27-4.38,7.79,7.79,0,0,1,.78-3.48,8.66,8.66,0,0,1,2.2-2.79,10.4,10.4,0,0,1,3.44-1.86A14.07,14.07,0,0,1,34.27,64a17,17,0,0,1,6.3,1.1,14.37,14.37,0,0,1,4.88,3.12l-3,3.9a11.16,11.16,0,0,0-4.06-2.62,13.26,13.26,0,0,0-4.65-.83,5.93,5.93,0,0,0-3.66,1,3.23,3.23,0,0,0-1.37,2.69A2.4,2.4,0,0,0,30,74.52a13.22,13.22,0,0,0,3.24,1.3c1.3.36,2.7.73,4.19,1.1a19.67,19.67,0,0,1,4.2,1.57,9.44,9.44,0,0,1,3.23,2.7,7.14,7.14,0,0,1,1.28,4.46,9.48,9.48,0,0,1-.67,3.57,7.9,7.9,0,0,1-2.09,3,10.28,10.28,0,0,1-3.61,2A16.53,16.53,0,0,1,34.58,95Z" fill="#fff"/><path d="M58.11,94.41V69.13H49V64.46H72.43v4.67H63.36V94.41Z" fill="#fff"/><path d="M95,94.41l-2.2-5.79H79l-2.2,5.79h-6L82.62,64.46h6.56l11.76,30ZM85.9,69.67,80.51,84H91.29Z" fill="#fff"/><path d="M121.28,94.41l-6.6-11.18h-5.25V94.41h-5.26V64.46h13.16a11.46,11.46,0,0,1,4,.68,8.86,8.86,0,0,1,3.12,1.92,8.64,8.64,0,0,1,2,3,10.14,10.14,0,0,1,.69,3.79,9.75,9.75,0,0,1-.6,3.53A8.84,8.84,0,0,1,125,80a7.8,7.8,0,0,1-2.29,1.75,9.47,9.47,0,0,1-2.65.87l7.37,11.77Zm-4.62-15.85a5.31,5.31,0,0,0,3.68-1.29,4.43,4.43,0,0,0,1.44-3.47,4.3,4.3,0,0,0-1.44-3.4,5.35,5.35,0,0,0-3.68-1.27h-7.23v9.43Z" fill="#fff"/><path d="M139.56,94.41V69.13h-9.07V64.46h23.39v4.67h-9.07V94.41Z" fill="#fff"/><path d="M190.79,94.41,175.16,73V94.41h-5.25V64.46h5.39l15.31,20.75V64.46h5.25v30Z" fill="#fff"/><path d="M216.24,95a15.88,15.88,0,0,1-6.17-1.17,14.36,14.36,0,0,1-8-8.13,17.69,17.69,0,0,1,0-12.39,14.38,14.38,0,0,1,8-8.12,16.88,16.88,0,0,1,12.35,0,14.14,14.14,0,0,1,4.82,3.23,14.9,14.9,0,0,1,3.17,4.89,17.4,17.4,0,0,1,0,12.39,14.84,14.84,0,0,1-3.17,4.9,14.29,14.29,0,0,1-4.82,3.23A15.9,15.9,0,0,1,216.24,95Zm0-4.67a9.9,9.9,0,0,0,4.09-.83,9.45,9.45,0,0,0,3.14-2.27,9.82,9.82,0,0,0,2-3.43,13.13,13.13,0,0,0,.7-4.29,13,13,0,0,0-.7-4.31,9.73,9.73,0,0,0-2-3.41,9.31,9.31,0,0,0-3.14-2.27,10.54,10.54,0,0,0-8.2,0A9.43,9.43,0,0,0,209,71.74a9.86,9.86,0,0,0-2,3.41,12.73,12.73,0,0,0-.7,4.31,12.87,12.87,0,0,0,.7,4.29,10,10,0,0,0,2,3.43,9.58,9.58,0,0,0,3.12,2.27A9.89,9.89,0,0,0,216.24,90.28Z" fill="#fff"/><path d="M258.58,94.41l-5.79-22.14L247,94.41h-5.61l-8.53-29.95h5.84l5.84,23,6.19-23h4.18l6.19,23,5.84-23h5.88l-8.57,30Z" fill="#fff"/></g></g><g id="REC"><rect x="0.4" width="300" height="600" fill="none"/></g></g></svg>