<svg xmlns="http://www.w3.org/2000/svg" viewBox="0 0 300 250"><title>cta</title><g id="Layer_2" data-name="Layer 2"><g id="rec"><rect width="300" height="250" fill="none"/></g><g id="CTA"><path id="bg" d="M116.37,155.51H22.77a11.16,11.16,0,0,1-11.34-11v-1.15a11.17,11.17,0,0,1,11.34-11h93.6a11.16,11.16,0,0,1,11.34,11v1.15a11.16,11.16,0,0,1-11.34,11" fill="#e32d27"/><path d="M41.42,148.22a5.6,5.6,0,0,1-2.24-.41,4.85,4.85,0,0,1-1.57-1.07l.92-1.28a4.37,4.37,0,0,0,1.23.91,3.71,3.71,0,0,0,1.73.39,2.76,2.76,0,0,0,.86-.11,1.52,1.52,0,0,0,.57-.29,1.1,1.1,0,0,0,.33-.42,1.06,1.06,0,0,0,.1-.46.83.83,0,0,0-.4-.75,3.52,3.52,0,0,0-1-.44c-.4-.12-.84-.24-1.31-.35a6.68,6.68,0,0,1-1.3-.47,2.67,2.67,0,0,1-1-.8,2.15,2.15,0,0,1-.4-1.37,2.44,2.44,0,0,1,.24-1.08,2.89,2.89,0,0,1,.69-.87,3.14,3.14,0,0,1,1.07-.58,4.42,4.42,0,0,1,1.4-.21,5.36,5.36,0,0,1,2,.34,4.57,4.57,0,0,1,1.52,1l-.93,1.21a3.56,3.56,0,0,0-1.26-.82,4.3,4.3,0,0,0-1.45-.25,1.8,1.8,0,0,0-1.14.32,1,1,0,0,0-.43.84.74.74,0,0,0,.4.67,4.22,4.22,0,0,0,1,.41l1.3.34a6,6,0,0,1,1.31.49,2.86,2.86,0,0,1,1,.84,2.21,2.21,0,0,1,.4,1.39,3,3,0,0,1-.21,1.12,2.54,2.54,0,0,1-.65.92A3,3,0,0,1,43,148,5.19,5.19,0,0,1,41.42,148.22Z" fill="#fff"/><path d="M51.06,148.05V143.8a1.33,1.33,0,0,0-.36-1.09,1.56,1.56,0,0,0-1-.29,2,2,0,0,0-1,.28,2.59,2.59,0,0,0-.71.62v4.73H46.5v-9.34H48v3.49a3.1,3.1,0,0,1,.41-.39,3.43,3.43,0,0,1,.55-.35,3.23,3.23,0,0,1,.66-.25,3.1,3.1,0,0,1,.76-.09,2.21,2.21,0,0,1,1.64.55,2.16,2.16,0,0,1,.54,1.59v4.79Z" fill="#fff"/><path d="M57.5,148.22a3.54,3.54,0,0,1-1.45-.29A3.31,3.31,0,0,1,54.27,146a4.06,4.06,0,0,1,0-2.75,3.29,3.29,0,0,1,.69-1.12,3.17,3.17,0,0,1,1.09-.77,3.92,3.92,0,0,1,2.91,0,3.17,3.17,0,0,1,1.09.77,3.29,3.29,0,0,1,.69,1.12,4.06,4.06,0,0,1,0,2.75A3.31,3.31,0,0,1,59,147.93,3.56,3.56,0,0,1,57.5,148.22Zm0-1.3a1.78,1.78,0,0,0,1.45-.67,2,2,0,0,0,.37-.73,2.88,2.88,0,0,0,0-1.71,1.93,1.93,0,0,0-.37-.71,1.64,1.64,0,0,0-.61-.49,1.74,1.74,0,0,0-.84-.19,1.71,1.71,0,0,0-.82.19,1.85,1.85,0,0,0-.62.49,2.11,2.11,0,0,0-.38.71,3.11,3.11,0,0,0,0,1.71,2.2,2.2,0,0,0,.38.73,2.14,2.14,0,0,0,.62.49A1.83,1.83,0,0,0,57.5,146.92Z" fill="#fff"/><path d="M66.11,148.22a2.55,2.55,0,0,1-1.19-.29,2.93,2.93,0,0,1-1-.82v3.52H62.47v-9.34h1.47v.92a2.86,2.86,0,0,1,.94-.79,2.6,2.6,0,0,1,1.23-.3,3,3,0,0,1,1.21.24,2.67,2.67,0,0,1,.94.69,3.3,3.3,0,0,1,.63,1.12,4.54,4.54,0,0,1,.22,1.49,4.64,4.64,0,0,1-.22,1.5,3.16,3.16,0,0,1-.63,1.11,2.72,2.72,0,0,1-.94.71A3,3,0,0,1,66.11,148.22Zm-.43-1.3a1.72,1.72,0,0,0,1.4-.63,2.45,2.45,0,0,0,.52-1.63,2.4,2.4,0,0,0-.52-1.61,1.72,1.72,0,0,0-1.4-.63,2.1,2.1,0,0,0-1,.26,2.13,2.13,0,0,0-.74.64V146a1.61,1.61,0,0,0,.32.37,2.4,2.4,0,0,0,.91.49A1.79,1.79,0,0,0,65.68,146.92Z" fill="#fff"/><path d="M80.74,148.05l-4.87-6.68v6.68H74.23v-9.34h1.68l4.78,6.47v-6.47h1.64v9.34Z" fill="#fff"/><path d="M87.34,148.22a3.59,3.59,0,0,1-1.46-.29A3.31,3.31,0,0,1,84.1,146a4.06,4.06,0,0,1,0-2.75,3.29,3.29,0,0,1,.69-1.12,3.17,3.17,0,0,1,1.09-.77,3.76,3.76,0,0,1,1.46-.28,3.71,3.71,0,0,1,1.45.28,3.21,3.21,0,0,1,1.1.77,3.43,3.43,0,0,1,.68,1.12,4.06,4.06,0,0,1,0,2.75,3.43,3.43,0,0,1-.68,1.12,3.35,3.35,0,0,1-1.1.77A3.54,3.54,0,0,1,87.34,148.22Zm0-1.3a1.92,1.92,0,0,0,.84-.18,2.09,2.09,0,0,0,.61-.49,2.39,2.39,0,0,0,.37-.73,3.11,3.11,0,0,0,0-1.71,2.28,2.28,0,0,0-.37-.71,1.81,1.81,0,0,0-.61-.49,1.79,1.79,0,0,0-.84-.19,1.82,1.82,0,0,0-1.44.68,1.94,1.94,0,0,0-.38.71,2.88,2.88,0,0,0,0,1.71,2,2,0,0,0,.38.73,2,2,0,0,0,.61.49A1.84,1.84,0,0,0,87.34,146.92Z" fill="#fff"/><path d="M98.21,148.05l-1.58-5-1.56,5H93.53l-2.11-6.76H93l1.43,4.91L96,141.29h1.3l1.6,4.91,1.43-4.91h1.54l-2.11,6.76Z" fill="#fff"/></g></g></svg>