<svg xmlns="http://www.w3.org/2000/svg" viewBox="0 0 300 250"><title>subhead</title><g id="Layer_2" data-name="Layer 2"><g id="Layer_1-2" data-name="Layer 1"><path d="M20.87,114.42a6.76,6.76,0,0,1-2.49-.47,6.14,6.14,0,0,1-2.06-1.33,6.46,6.46,0,0,1-1.4-2.08,6.91,6.91,0,0,1-.51-2.7,6.67,6.67,0,0,1,.52-2.7,6.19,6.19,0,0,1,3.54-3.39,7.13,7.13,0,0,1,2.59-.46,6.43,6.43,0,0,1,1.7.21,6,6,0,0,1,1.4.56,5.17,5.17,0,0,1,1.12.83,8.12,8.12,0,0,1,.87,1l-1.8,1A4,4,0,0,0,23,103.75a3.86,3.86,0,0,0-1.92-.49,4.37,4.37,0,0,0-1.75.35,3.88,3.88,0,0,0-1.37,1A4.49,4.49,0,0,0,17,106a5.27,5.27,0,0,0,0,3.67,4.77,4.77,0,0,0,.92,1.46,4,4,0,0,0,1.37,1,4.37,4.37,0,0,0,1.75.34,3.89,3.89,0,0,0,1.44-.25,3.3,3.3,0,0,0,1.09-.68,3.75,3.75,0,0,0,.75-1,4.65,4.65,0,0,0,.43-1.2H20.26v-2h6.92a9.19,9.19,0,0,1-.43,2.92,6.33,6.33,0,0,1-1.23,2.23,5.36,5.36,0,0,1-2,1.43A6.62,6.62,0,0,1,20.87,114.42Z" fill="#e52823"/><path d="M28.53,114.17V105h2v1.33a4.71,4.71,0,0,1,1.31-1.11,3.31,3.31,0,0,1,1.68-.45v2a2.67,2.67,0,0,0-1.29,0,3.52,3.52,0,0,0-.68.26,3.68,3.68,0,0,0-.6.4,2,2,0,0,0-.42.48v6.25Z" fill="#e52823"/><path d="M35.12,114.17V105h2v1.33a4.57,4.57,0,0,1,1.31-1.11,3.27,3.27,0,0,1,1.67-.45v2a2.8,2.8,0,0,0-.61-.06,2.72,2.72,0,0,0-.67.1,3.38,3.38,0,0,0-.69.26,3.68,3.68,0,0,0-.6.4,2.23,2.23,0,0,0-.41.48v6.25Z" fill="#e52823"/><path d="M46,114.4a5.47,5.47,0,0,1-1.93-.34,4.47,4.47,0,0,1-1.52-1,4.72,4.72,0,0,1-1-1.53,5.47,5.47,0,0,1,0-3.85,4.62,4.62,0,0,1,1-1.53,4.85,4.85,0,0,1,1.48-1,4.61,4.61,0,0,1,1.88-.38,4.51,4.51,0,0,1,1.86.38,4,4,0,0,1,1.42,1,4.49,4.49,0,0,1,.91,1.58,6.06,6.06,0,0,1,.31,2v.5H43.25a3,3,0,0,0,.28,1,2.56,2.56,0,0,0,.59.8,2.48,2.48,0,0,0,.88.55,3,3,0,0,0,1.16.2,4,4,0,0,0,1.41-.26,3.33,3.33,0,0,0,1.21-.76l.91,1.31a4.7,4.7,0,0,1-1.67,1A6.3,6.3,0,0,1,46,114.4Zm2.43-5.59a2.53,2.53,0,0,0-.18-.82,2.39,2.39,0,0,0-.47-.78,2.45,2.45,0,0,0-.79-.58,2.58,2.58,0,0,0-1.16-.23,2.51,2.51,0,0,0-1.1.22,2.2,2.2,0,0,0-.79.57,2.64,2.64,0,0,0-.49.78,2.83,2.83,0,0,0-.19.84Z" fill="#e52823"/><path d="M58.76,114.17v-1.25A4.18,4.18,0,0,1,57.47,114a3.54,3.54,0,0,1-1.66.4,4.14,4.14,0,0,1-1.62-.32,3.58,3.58,0,0,1-1.29-1,4.23,4.23,0,0,1-.85-1.52,6.33,6.33,0,0,1-.3-2,6.21,6.21,0,0,1,.3-2,4.23,4.23,0,0,1,.85-1.52,3.54,3.54,0,0,1,1.28-1,4,4,0,0,1,1.63-.34,3.69,3.69,0,0,1,1.64.38,3.79,3.79,0,0,1,1.31,1.13V105h2v9.18Zm-2.36-1.54a2.72,2.72,0,0,0,.69-.09,3.61,3.61,0,0,0,.67-.27,2.87,2.87,0,0,0,.57-.39,2.43,2.43,0,0,0,.43-.48v-3.63a2.74,2.74,0,0,0-.43-.48,3.41,3.41,0,0,0-.57-.4,3,3,0,0,0-.67-.26,2.35,2.35,0,0,0-.69-.1,2.48,2.48,0,0,0-1.08.23,2.4,2.4,0,0,0-.82.63,2.61,2.61,0,0,0-.52,1,4,4,0,0,0-.18,1.22A4,4,0,0,0,54,110.8a2.92,2.92,0,0,0,.52,1,2.4,2.4,0,0,0,.82.63A2.48,2.48,0,0,0,56.4,112.63Z" fill="#e52823"/><path d="M66.11,114.4a2.35,2.35,0,0,1-1.77-.61,2.46,2.46,0,0,1-.59-1.77v-5.3H62.23V105h1.52v-2.5h2V105h1.86v1.73H65.75v4.81a1.32,1.32,0,0,0,.22.79.73.73,0,0,0,.65.31,1.32,1.32,0,0,0,.53-.1,1.07,1.07,0,0,0,.35-.24l.47,1.52a2.44,2.44,0,0,1-.72.42A3.34,3.34,0,0,1,66.11,114.4Z" fill="#e52823"/><path d="M80.46,114.4a7.11,7.11,0,0,1-2.63-.48,6.13,6.13,0,0,1-3.51-3.41,6.76,6.76,0,0,1-.52-2.67,6.83,6.83,0,0,1,.52-2.67,6.36,6.36,0,0,1,1.4-2.07,6.49,6.49,0,0,1,2.11-1.34,7.31,7.31,0,0,1,2.63-.47,5.82,5.82,0,0,1,1.72.23,5.62,5.62,0,0,1,1.41.61,5.19,5.19,0,0,1,1.11.91,6.48,6.48,0,0,1,.83,1.08l-1.88,1a3.68,3.68,0,0,0-1.31-1.32,3.54,3.54,0,0,0-1.88-.53,4.34,4.34,0,0,0-1.75.35,3.92,3.92,0,0,0-1.38,1,4.26,4.26,0,0,0-.91,1.44,5.12,5.12,0,0,0,0,3.67,4.51,4.51,0,0,0,.91,1.45,4.08,4.08,0,0,0,1.38,1,4.34,4.34,0,0,0,1.75.34,3.53,3.53,0,0,0,1.88-.52,3.76,3.76,0,0,0,1.31-1.32l1.9,1a7.82,7.82,0,0,1-.85,1.09,5.19,5.19,0,0,1-1.11.91,6,6,0,0,1-1.41.63A5.81,5.81,0,0,1,80.46,114.4Z" fill="#e52823"/><path d="M93.47,114.17v-5.78a1.82,1.82,0,0,0-.49-1.47,2.13,2.13,0,0,0-1.35-.39,2.65,2.65,0,0,0-1.4.38,3.49,3.49,0,0,0-1,.84v6.42h-2V101.5h2v4.73a3.58,3.58,0,0,1,.56-.53,4.28,4.28,0,0,1,.74-.48,4,4,0,0,1,.9-.33,4.21,4.21,0,0,1,1-.13,3,3,0,0,1,2.22.75,2.89,2.89,0,0,1,.74,2.16v6.5Z" fill="#e52823"/><path d="M102.21,114.4a4.83,4.83,0,0,1-2-.39,4.45,4.45,0,0,1-2.41-2.58,5.57,5.57,0,0,1,0-3.72,4.76,4.76,0,0,1,.93-1.53,4.5,4.5,0,0,1,1.48-1,5.35,5.35,0,0,1,4,0,4.5,4.5,0,0,1,1.48,1,4.76,4.76,0,0,1,.93,1.53,5.57,5.57,0,0,1,0,3.72,4.45,4.45,0,0,1-2.41,2.58A4.86,4.86,0,0,1,102.21,114.4Zm0-1.77a2.46,2.46,0,0,0,2-.91,2.93,2.93,0,0,0,.5-1,4.08,4.08,0,0,0,0-2.33,3,3,0,0,0-.5-1,2.55,2.55,0,0,0-.83-.66,2.45,2.45,0,0,0-1.14-.25,2.4,2.4,0,0,0-1.12.25,2.59,2.59,0,0,0-.84.66,2.82,2.82,0,0,0-.51,1,4.08,4.08,0,0,0,0,2.33,2.78,2.78,0,0,0,.51,1,2.47,2.47,0,0,0,.84.66A2.4,2.4,0,0,0,102.21,112.63Z" fill="#e52823"/><path d="M110,103.87a1.24,1.24,0,0,1,0-2.47,1.21,1.21,0,0,1,.88.36,1.24,1.24,0,0,1,0,1.75A1.21,1.21,0,0,1,110,103.87Zm-1,10.3V105h2v9.18Z" fill="#e52823"/><path d="M117.71,114.4a5,5,0,0,1-1.91-.36,4.52,4.52,0,0,1-1.49-1,4.84,4.84,0,0,1-1-1.53,5.47,5.47,0,0,1,0-3.85,4.9,4.9,0,0,1,1-1.52,4.49,4.49,0,0,1,1.49-1,5,5,0,0,1,1.91-.37,5.08,5.08,0,0,1,1.23.14,4.44,4.44,0,0,1,1,.36,3.7,3.7,0,0,1,.75.52,5.51,5.51,0,0,1,.57.62l-1.31,1.2a2.46,2.46,0,0,0-2.11-1.07,2.57,2.57,0,0,0-2,.85,3.16,3.16,0,0,0-.75,2.19,3.73,3.73,0,0,0,.19,1.23,3.22,3.22,0,0,0,.57,1,2.63,2.63,0,0,0,.88.63,2.71,2.71,0,0,0,1.13.23,2.46,2.46,0,0,0,2.11-1.1l1.31,1.23a4.57,4.57,0,0,1-1.33,1.14A4.28,4.28,0,0,1,117.71,114.4Z" fill="#e52823"/><path d="M127.25,114.4a5.51,5.51,0,0,1-1.93-.34,4.47,4.47,0,0,1-1.52-1,4.69,4.69,0,0,1-1-1.53,5.29,5.29,0,0,1-.36-2,5.09,5.09,0,0,1,.34-1.87,4.32,4.32,0,0,1,1-1.53,4.69,4.69,0,0,1,1.47-1,4.64,4.64,0,0,1,1.88-.38,4.51,4.51,0,0,1,1.86.38,4.1,4.1,0,0,1,1.43,1,4.62,4.62,0,0,1,.9,1.58,6.06,6.06,0,0,1,.31,2v.5h-7.06a3,3,0,0,0,.27,1,2.72,2.72,0,0,0,.59.8,2.57,2.57,0,0,0,.88.55,3,3,0,0,0,1.16.2,4,4,0,0,0,1.41-.26,3.33,3.33,0,0,0,1.21-.76l.92,1.31a4.75,4.75,0,0,1-1.68,1A6.3,6.3,0,0,1,127.25,114.4Zm2.43-5.59a2.53,2.53,0,0,0-.18-.82,2.23,2.23,0,0,0-.47-.78,2.35,2.35,0,0,0-.79-.58,2.95,2.95,0,0,0-2.26,0,2.2,2.2,0,0,0-.79.57,2.42,2.42,0,0,0-.48.78,2.32,2.32,0,0,0-.19.84Z" fill="#e52823"/><path d="M133.89,104.55v2.91h-.42v-2.91h-.93v-.38h2.28v.38Zm4.26,2.91v-2.72L137,107.46h-.12l-1.13-2.72v2.72h-.42v-3.29H136l1,2.39,1-2.39h.64v3.29Z" fill="#e52823"/><path d="M151.45,114.17v-1.25a4,4,0,0,1-1.28,1.08,3.57,3.57,0,0,1-1.66.4,4.16,4.16,0,0,1-1.63-.32,3.58,3.58,0,0,1-1.29-1,4.56,4.56,0,0,1-.85-1.52,6.33,6.33,0,0,1-.3-2,6.21,6.21,0,0,1,.3-2,4.56,4.56,0,0,1,.85-1.52,3.63,3.63,0,0,1,1.28-1,4,4,0,0,1,1.64-.34,3.65,3.65,0,0,1,1.63.38,3.7,3.7,0,0,1,1.31,1.13V101.5h2v12.67Zm-2.35-1.54a2.84,2.84,0,0,0,.69-.09,3.51,3.51,0,0,0,.66-.27,2.87,2.87,0,0,0,.57-.39,2.15,2.15,0,0,0,.43-.48v-3.63a2.39,2.39,0,0,0-.43-.48,3.41,3.41,0,0,0-.57-.4,2.93,2.93,0,0,0-.66-.26,2.45,2.45,0,0,0-.69-.1,2.53,2.53,0,0,0-1.09.23,2.37,2.37,0,0,0-.81.63,2.62,2.62,0,0,0-.53,1,4,4,0,0,0-.18,1.22,4,4,0,0,0,.18,1.23,2.94,2.94,0,0,0,.53,1,2.37,2.37,0,0,0,.81.63A2.53,2.53,0,0,0,149.1,112.63Z" fill="#e52823"/><path d="M160.19,114.4a4.86,4.86,0,0,1-2-.39,4.45,4.45,0,0,1-2.41-2.58,5.57,5.57,0,0,1,0-3.72,4.76,4.76,0,0,1,.93-1.53,4.5,4.5,0,0,1,1.48-1,5.35,5.35,0,0,1,4,0,4.5,4.5,0,0,1,1.48,1,4.59,4.59,0,0,1,.93,1.53,5.57,5.57,0,0,1,0,3.72,4.4,4.4,0,0,1-.93,1.53,4.52,4.52,0,0,1-1.48,1.05A4.83,4.83,0,0,1,160.19,114.4Zm0-1.77a2.45,2.45,0,0,0,1.14-.25,2.34,2.34,0,0,0,.83-.66,2.93,2.93,0,0,0,.5-1,4.08,4.08,0,0,0,0-2.33,3,3,0,0,0-.5-1,2.46,2.46,0,0,0-2-.91,2.4,2.4,0,0,0-1.12.25,2.59,2.59,0,0,0-.84.66,3,3,0,0,0-.51,1,4.08,4.08,0,0,0,0,2.33,3,3,0,0,0,.51,1,2.47,2.47,0,0,0,.84.66A2.4,2.4,0,0,0,160.19,112.63Z" fill="#e52823"/><path d="M170.68,117.89a6.68,6.68,0,0,1-2.09-.29,5,5,0,0,1-1.77-1.07l.93-1.45a3.09,3.09,0,0,0,1.3.91,4.6,4.6,0,0,0,1.63.27,4.11,4.11,0,0,0,1-.12,2.53,2.53,0,0,0,.87-.43,2.25,2.25,0,0,0,.63-.79,2.73,2.73,0,0,0,.24-1.22v-1a4.18,4.18,0,0,1-1.29,1.12,3.33,3.33,0,0,1-1.66.42,4.33,4.33,0,0,1-1.62-.31,3.59,3.59,0,0,1-1.29-.92,4.09,4.09,0,0,1-.85-1.47,6.85,6.85,0,0,1,0-4,4.22,4.22,0,0,1,.85-1.48,3.44,3.44,0,0,1,1.28-.92,4.12,4.12,0,0,1,1.63-.32,3.69,3.69,0,0,1,1.64.38,3.79,3.79,0,0,1,1.31,1.13V105h2v8.71a4.48,4.48,0,0,1-.42,2,3.55,3.55,0,0,1-1.09,1.29,4.07,4.07,0,0,1-1.52.66A7.4,7.4,0,0,1,170.68,117.89Zm.36-5.49a2.8,2.8,0,0,0,1.36-.36,2.84,2.84,0,0,0,1-.85v-3.44a2.86,2.86,0,0,0-1-.86,2.8,2.8,0,0,0-1.36-.36,2.39,2.39,0,0,0-1.9.81,3.14,3.14,0,0,0-.7,2.14,3.08,3.08,0,0,0,.7,2.12A2.38,2.38,0,0,0,171,112.4Z" fill="#e52823"/><path d="M187.82,114.4a3.5,3.5,0,0,1-1.63-.39,4.08,4.08,0,0,1-1.32-1.11v4.77h-2V105h2v1.26a3.74,3.74,0,0,1,1.28-1.09,3.58,3.58,0,0,1,1.67-.4,4,4,0,0,1,1.63.33,3.49,3.49,0,0,1,1.28.94,4.19,4.19,0,0,1,.85,1.51,7,7,0,0,1,0,4.06,4.32,4.32,0,0,1-.85,1.52,3.76,3.76,0,0,1-1.28.95A4,4,0,0,1,187.82,114.4Zm-.59-1.77a2.33,2.33,0,0,0,1.9-.85,3.36,3.36,0,0,0,.7-2.21,3.29,3.29,0,0,0-.7-2.19,2.33,2.33,0,0,0-1.9-.85,2.9,2.9,0,0,0-1.36.35,2.78,2.78,0,0,0-1,.87v3.63a2.8,2.8,0,0,0,.43.49,2.91,2.91,0,0,0,.57.4,3.61,3.61,0,0,0,.67.27A2.72,2.72,0,0,0,187.23,112.63Z" fill="#e52823"/><path d="M200.34,114.17v-1.25a4.15,4.15,0,0,1-1.28,1.08,3.58,3.58,0,0,1-1.67.4,4.14,4.14,0,0,1-1.62-.32,3.58,3.58,0,0,1-1.29-1,4.39,4.39,0,0,1-.85-1.52,6.33,6.33,0,0,1-.3-2,6.21,6.21,0,0,1,.3-2,4.39,4.39,0,0,1,.85-1.52,3.63,3.63,0,0,1,1.28-1,4,4,0,0,1,1.63-.34,3.66,3.66,0,0,1,1.64.38,3.79,3.79,0,0,1,1.31,1.13V105h2v9.18ZM198,112.63a2.86,2.86,0,0,0,.7-.09,3.81,3.81,0,0,0,.66-.27,2.87,2.87,0,0,0,.57-.39,2.43,2.43,0,0,0,.43-.48v-3.63a2.74,2.74,0,0,0-.43-.48,3.41,3.41,0,0,0-.57-.4,3.12,3.12,0,0,0-.66-.26,2.47,2.47,0,0,0-.7-.1,2.52,2.52,0,0,0-1.08.23,2.4,2.4,0,0,0-.82.63,2.61,2.61,0,0,0-.52,1,4,4,0,0,0-.18,1.22,4,4,0,0,0,.18,1.23,2.92,2.92,0,0,0,.52,1,2.4,2.4,0,0,0,.82.63A2.52,2.52,0,0,0,198,112.63Z" fill="#e52823"/><path d="M211.38,114.17v-1.25A4.15,4.15,0,0,1,210.1,114a3.61,3.61,0,0,1-1.67.4,4.14,4.14,0,0,1-1.62-.32,3.58,3.58,0,0,1-1.29-1,4.39,4.39,0,0,1-.85-1.52,6.33,6.33,0,0,1-.3-2,6.21,6.21,0,0,1,.3-2,4.39,4.39,0,0,1,.85-1.52,3.54,3.54,0,0,1,1.28-1,4,4,0,0,1,1.63-.34,3.66,3.66,0,0,1,1.64.38,3.79,3.79,0,0,1,1.31,1.13V101.5h2v12.67ZM209,112.63a2.86,2.86,0,0,0,.7-.09,3.81,3.81,0,0,0,.66-.27,2.87,2.87,0,0,0,.57-.39,2.43,2.43,0,0,0,.43-.48v-3.63a2.74,2.74,0,0,0-.43-.48,3.41,3.41,0,0,0-.57-.4,3.12,3.12,0,0,0-.66-.26,2.47,2.47,0,0,0-.7-.1,2.52,2.52,0,0,0-1.08.23,2.4,2.4,0,0,0-.82.63,2.61,2.61,0,0,0-.52,1,4,4,0,0,0-.18,1.22,4,4,0,0,0,.18,1.23,2.92,2.92,0,0,0,.52,1,2.4,2.4,0,0,0,.82.63A2.52,2.52,0,0,0,209,112.63Z" fill="#e52823"/><path d="M219.11,114.4a6.47,6.47,0,0,1-2.2-.37,4.88,4.88,0,0,1-1.73-1.08l.91-1.42a3.69,3.69,0,0,0,.59.47,4.23,4.23,0,0,0,.76.41,5.44,5.44,0,0,0,.86.29,3.92,3.92,0,0,0,.89.1,2.31,2.31,0,0,0,1.36-.33,1,1,0,0,0,.46-.88.73.73,0,0,0-.41-.69,4.12,4.12,0,0,0-1-.38l-1.34-.3a5.72,5.72,0,0,1-1.34-.46,3,3,0,0,1-1-.81,2.25,2.25,0,0,1-.41-1.41,2.43,2.43,0,0,1,.24-1.07,2.68,2.68,0,0,1,.69-.89,3.68,3.68,0,0,1,1.13-.6,5.22,5.22,0,0,1,1.55-.22,5.37,5.37,0,0,1,2.06.37,5,5,0,0,1,1.5.91l-.84,1.4a3.46,3.46,0,0,0-1.13-.77,3.74,3.74,0,0,0-1.59-.33,2.05,2.05,0,0,0-1.24.33,1,1,0,0,0-.45.81.66.66,0,0,0,.41.61,4.11,4.11,0,0,0,1,.35l1.34.31a5.46,5.46,0,0,1,1.34.47,2.83,2.83,0,0,1,1,.86,2.36,2.36,0,0,1,.41,1.45,2.63,2.63,0,0,1-.25,1.14,2.46,2.46,0,0,1-.73.91,3.75,3.75,0,0,1-1.2.6A5.43,5.43,0,0,1,219.11,114.4Z" fill="#e52823"/><path d="M231.76,110.29a4.59,4.59,0,0,1-1.62-.4,4.07,4.07,0,0,1-1.17-.84l.79-1.09a3.3,3.3,0,0,0,.85.68,3.08,3.08,0,0,0,1.15.4v-2.33c-.31-.08-.61-.17-.92-.28a3,3,0,0,1-.8-.41,1.84,1.84,0,0,1-.81-1.63,2.07,2.07,0,0,1,.18-.86,2.11,2.11,0,0,1,.51-.71,2.83,2.83,0,0,1,.8-.52,3.37,3.37,0,0,1,1-.24V101h1v1.12a4.63,4.63,0,0,1,1.34.36,3.76,3.76,0,0,1,1.07.73l-.79,1a2.72,2.72,0,0,0-.76-.56,4.38,4.38,0,0,0-.86-.3v2.08c.32.08.63.17.94.28a3.1,3.1,0,0,1,.83.43,2.06,2.06,0,0,1,.6.68,2,2,0,0,1,.24,1,2.41,2.41,0,0,1-.16.88,2.11,2.11,0,0,1-.47.75,2.37,2.37,0,0,1-.81.55,3.59,3.59,0,0,1-1.17.28v1.08h-1Zm-1.09-6a.62.62,0,0,0,.31.55,2.84,2.84,0,0,0,.78.35v-1.88a1.42,1.42,0,0,0-.8.32A.88.88,0,0,0,230.67,104.29Zm3.22,3.67a.72.72,0,0,0-.33-.63,3.3,3.3,0,0,0-.84-.38V109a1.41,1.41,0,0,0,.9-.41A1,1,0,0,0,233.89,108Z" fill="#e52823"/><path d="M239.44,114.17v-9.8l-2.07,2.16-1.29-1.35,3.65-3.68h1.94v12.67Z" fill="#e52823"/><path d="M248.79,114.4a6.74,6.74,0,0,1-2.77-.52,5.52,5.52,0,0,1-1.92-1.44l1.27-1.54a4.23,4.23,0,0,0,3.4,1.52,2.69,2.69,0,0,0,1.91-.64,2.12,2.12,0,0,0,.7-1.6,2.06,2.06,0,0,0-.69-1.63,2.69,2.69,0,0,0-1.86-.61,4.18,4.18,0,0,0-1.48.25,4.09,4.09,0,0,0-1.3.83l-1.57-.46V101.5h8.3v2H246.7v3.63a4.47,4.47,0,0,1,1.22-.76,4.15,4.15,0,0,1,1.65-.32,4.5,4.5,0,0,1,1.54.27,3.94,3.94,0,0,1,1.3.8,3.86,3.86,0,0,1,.89,1.29,4.49,4.49,0,0,1,0,3.5,3.94,3.94,0,0,1-1,1.35,4.57,4.57,0,0,1-1.53.86A5.88,5.88,0,0,1,248.79,114.4Z" fill="#e52823"/><path d="M256.75,114.38a1.25,1.25,0,0,1-.94-.4,1.31,1.31,0,0,1-.39-1,1.33,1.33,0,0,1,2.66,0,1.31,1.31,0,0,1-.39,1A1.25,1.25,0,0,1,256.75,114.38Z" fill="#e52823"/><path d="M264.14,114.38A5.25,5.25,0,0,1,262,114a5.09,5.09,0,0,1-1.55-1l1.05-1.69a3.72,3.72,0,0,0,1.09.83,3.5,3.5,0,0,0,1.51.29,3,3,0,0,0,1.49-.36,3.1,3.1,0,0,0,1.05-1,4.44,4.44,0,0,0,.61-1.34,6.06,6.06,0,0,0,.2-1.53V108a1.41,1.41,0,0,0,0-.18,3.25,3.25,0,0,1-.56.64,5.14,5.14,0,0,1-.79.57,4.15,4.15,0,0,1-1,.41,3.93,3.93,0,0,1-1.09.15,5.15,5.15,0,0,1-1.63-.26,3.67,3.67,0,0,1-2.27-2.05,4.28,4.28,0,0,1-.34-1.78,4.19,4.19,0,0,1,.33-1.65,4.15,4.15,0,0,1,.94-1.36,4.56,4.56,0,0,1,1.47-.91,5.39,5.39,0,0,1,1.93-.33,5.08,5.08,0,0,1,2.39.52,4.47,4.47,0,0,1,1.62,1.43,6,6,0,0,1,.92,2.09,10.11,10.11,0,0,1,.3,2.49,8.87,8.87,0,0,1-.36,2.57,6.12,6.12,0,0,1-1.07,2.08,5.12,5.12,0,0,1-1.75,1.4A5.41,5.41,0,0,1,264.14,114.38Zm.53-6.65a3.15,3.15,0,0,0,1.55-.41,3.78,3.78,0,0,0,1.23-1.09,5.72,5.72,0,0,0-.23-1,3.09,3.09,0,0,0-.5-1,2.77,2.77,0,0,0-.85-.7,2.65,2.65,0,0,0-1.25-.28,2.93,2.93,0,0,0-1.11.2,2.65,2.65,0,0,0-.79.52,2.08,2.08,0,0,0-.65,1.49,2.25,2.25,0,0,0,.21,1,2,2,0,0,0,.57.71,2.53,2.53,0,0,0,.84.41A3.93,3.93,0,0,0,264.67,107.73Z" fill="#e52823"/><path d="M275.56,114.38a5.25,5.25,0,0,1-2.1-.39,5.09,5.09,0,0,1-1.55-1l1-1.69a3.72,3.72,0,0,0,1.09.83,3.5,3.5,0,0,0,1.51.29,3,3,0,0,0,1.49-.36,3.1,3.1,0,0,0,1.05-1,4.44,4.44,0,0,0,.61-1.34,6.06,6.06,0,0,0,.2-1.53V108a1.41,1.41,0,0,0,0-.18,3.25,3.25,0,0,1-.56.64,5.14,5.14,0,0,1-.79.57,4.15,4.15,0,0,1-1,.41,4,4,0,0,1-1.1.15,5.14,5.14,0,0,1-1.62-.26,3.77,3.77,0,0,1-1.35-.77,3.66,3.66,0,0,1-.92-1.28,4.28,4.28,0,0,1-.34-1.78,4.19,4.19,0,0,1,.33-1.65,4.15,4.15,0,0,1,.94-1.36,4.56,4.56,0,0,1,1.47-.91,5.39,5.39,0,0,1,1.93-.33,5.08,5.08,0,0,1,2.39.52,4.47,4.47,0,0,1,1.62,1.43,6,6,0,0,1,.92,2.09,10.11,10.11,0,0,1,.3,2.49,8.87,8.87,0,0,1-.36,2.57,6.3,6.3,0,0,1-1.07,2.08,5.12,5.12,0,0,1-1.75,1.4A5.41,5.41,0,0,1,275.56,114.38Zm.53-6.65a3.15,3.15,0,0,0,1.55-.41,3.78,3.78,0,0,0,1.23-1.09,5.72,5.72,0,0,0-.23-1,3.32,3.32,0,0,0-.5-1,2.77,2.77,0,0,0-.85-.7,2.65,2.65,0,0,0-1.25-.28,2.93,2.93,0,0,0-1.11.2,2.65,2.65,0,0,0-.79.52,2.08,2.08,0,0,0-.65,1.49,2.25,2.25,0,0,0,.21,1,2,2,0,0,0,.57.71,2.58,2.58,0,0,0,.83.41A4.07,4.07,0,0,0,276.09,107.73Z" fill="#e52823"/></g><g id="rec"><rect width="300" height="250" fill="none"/></g></g></svg>