<svg xmlns="http://www.w3.org/2000/svg" viewBox="0 0 300 250"><defs><style>.cls-1{fill:none;}.cls-2{fill:#e52823;}</style></defs><g id="Layer_2" data-name="Layer 2"><g id="rec"><rect class="cls-1" width="300" height="250"/></g><g id="sub"><path class="cls-2" d="M20.32,100.18a6.64,6.64,0,0,1-2.72-.5,5.82,5.82,0,0,1-1.9-1.3l1.12-1.55a5.47,5.47,0,0,0,1.49,1.11,4.42,4.42,0,0,0,2.1.47,3.51,3.51,0,0,0,1-.13,2,2,0,0,0,.7-.36,1.4,1.4,0,0,0,.52-1.07,1,1,0,0,0-.49-.91A4.47,4.47,0,0,0,21,95.41c-.49-.15-1-.29-1.59-.43a7.85,7.85,0,0,1-1.59-.56,3.35,3.35,0,0,1-1.22-1,2.56,2.56,0,0,1-.49-1.66,2.9,2.9,0,0,1,.3-1.31,3.28,3.28,0,0,1,.83-1.06,4,4,0,0,1,1.3-.7,5.37,5.37,0,0,1,1.7-.26,6.44,6.44,0,0,1,2.39.42,5.48,5.48,0,0,1,1.85,1.18l-1.13,1.48a4.08,4.08,0,0,0-1.53-1A5.11,5.11,0,0,0,20,90.22a2.27,2.27,0,0,0-1.39.39,1.23,1.23,0,0,0-.52,1,.91.91,0,0,0,.49.82,5.24,5.24,0,0,0,1.22.49q.73.21,1.59.42A7.34,7.34,0,0,1,23,94a3.68,3.68,0,0,1,1.22,1,2.69,2.69,0,0,1,.49,1.69A3.66,3.66,0,0,1,24.45,98a3.06,3.06,0,0,1-.79,1.12,3.82,3.82,0,0,1-1.37.76A6.08,6.08,0,0,1,20.32,100.18Z"/><path class="cls-2" d="M30.29,100.18a4.84,4.84,0,0,1-1.73-.3,3.9,3.9,0,0,1-2.25-2.25A4.58,4.58,0,0,1,26,95.86a4.71,4.71,0,0,1,.31-1.67,4,4,0,0,1,.86-1.37,4.29,4.29,0,0,1,1.32-.92,4.2,4.2,0,0,1,1.68-.34,4,4,0,0,1,1.67.34,3.64,3.64,0,0,1,1.27.92,4.27,4.27,0,0,1,.81,1.41A5.69,5.69,0,0,1,34.18,96v.44H27.85a2.9,2.9,0,0,0,.25.87,2.49,2.49,0,0,0,.53.72,2.35,2.35,0,0,0,.79.49,2.8,2.8,0,0,0,1,.18,3.59,3.59,0,0,0,1.25-.24,2.89,2.89,0,0,0,1.09-.68L33.62,99a4.35,4.35,0,0,1-1.5.9A5.57,5.57,0,0,1,30.29,100.18Zm2.17-5a2.35,2.35,0,0,0-.16-.74,2.46,2.46,0,0,0-.42-.69,2.37,2.37,0,0,0-.71-.52,2.71,2.71,0,0,0-2,0,2.09,2.09,0,0,0-.71.51,2.21,2.21,0,0,0-.43.7,2.32,2.32,0,0,0-.17.75Z"/><path class="cls-2" d="M38.05,100.18a2.12,2.12,0,0,1-1.57-.54A2.14,2.14,0,0,1,36,98.06V88.64h1.78v9a1.2,1.2,0,0,0,.2.7.65.65,0,0,0,.58.28,1.28,1.28,0,0,0,.48-.09.81.81,0,0,0,.32-.21l.43,1.36a2.1,2.1,0,0,1-.65.37A3.05,3.05,0,0,1,38.05,100.18Z"/><path class="cls-2" d="M44.62,100.18a4.84,4.84,0,0,1-1.73-.3,3.9,3.9,0,0,1-2.25-2.25,4.58,4.58,0,0,1-.33-1.77,4.71,4.71,0,0,1,.31-1.67,4,4,0,0,1,.86-1.37,4.29,4.29,0,0,1,1.32-.92,4.2,4.2,0,0,1,1.68-.34,4,4,0,0,1,1.67.34,3.64,3.64,0,0,1,1.27.92,4.27,4.27,0,0,1,.81,1.41A5.42,5.42,0,0,1,48.51,96v.44H42.19a2.62,2.62,0,0,0,.24.87,2.49,2.49,0,0,0,.53.72,2.35,2.35,0,0,0,.79.49,2.8,2.8,0,0,0,1,.18A3.59,3.59,0,0,0,46,98.48a2.89,2.89,0,0,0,1.09-.68L48,99a4.35,4.35,0,0,1-1.5.9A5.57,5.57,0,0,1,44.62,100.18Zm2.17-5a2.35,2.35,0,0,0-.16-.74,2.46,2.46,0,0,0-.42-.69,2.37,2.37,0,0,0-.71-.52,2.71,2.71,0,0,0-2,0,2.09,2.09,0,0,0-.71.51,2.21,2.21,0,0,0-.43.7,2.32,2.32,0,0,0-.17.75Z"/><path class="cls-2" d="M54,100.18a4.45,4.45,0,0,1-1.71-.32A4.16,4.16,0,0,1,51,99a4.22,4.22,0,0,1-.87-1.37,4.63,4.63,0,0,1-.32-1.73,4.53,4.53,0,0,1,.32-1.71A4.17,4.17,0,0,1,51,92.79a3.86,3.86,0,0,1,1.34-.9A4.27,4.27,0,0,1,54,91.56a4.55,4.55,0,0,1,1.09.12A3.43,3.43,0,0,1,56,92a3.3,3.3,0,0,1,.67.46,4.45,4.45,0,0,1,.51.56L56,94.1a2.18,2.18,0,0,0-1.89-1,2.31,2.31,0,0,0-1.8.76,2.85,2.85,0,0,0-.68,2A3.21,3.21,0,0,0,51.8,97a2.6,2.6,0,0,0,.51.87,2.46,2.46,0,0,0,.78.57,2.53,2.53,0,0,0,1,.2,2.22,2.22,0,0,0,1.89-1l1.17,1.1a3.88,3.88,0,0,1-1.19,1A3.76,3.76,0,0,1,54,100.18Z"/><path class="cls-2" d="M61.22,100.18a2.12,2.12,0,0,1-1.58-.54,2.18,2.18,0,0,1-.52-1.58V93.31H57.76V91.77h1.36V89.52H60.9v2.25h1.67v1.54H60.9v4.31a1.2,1.2,0,0,0,.2.7.65.65,0,0,0,.58.28,1.19,1.19,0,0,0,.47-.09.89.89,0,0,0,.32-.21l.42,1.36a2,2,0,0,1-.65.37A3,3,0,0,1,61.22,100.18Z"/><path class="cls-2" d="M72.09,100.18a5.91,5.91,0,0,1-2.6-.53,4.78,4.78,0,0,1-1.69-1.3L68.89,97a3.64,3.64,0,0,0,1.38,1,4.35,4.35,0,0,0,1.75.36,2.77,2.77,0,0,0,1.74-.47,1.5,1.5,0,0,0,.62-1.26,1.31,1.31,0,0,0-.64-1.23,3.68,3.68,0,0,0-1.87-.38h-.76l-.54,0V93.28h1.3a4.45,4.45,0,0,0,.93-.09,2.1,2.1,0,0,0,.74-.27,1.45,1.45,0,0,0,.49-.46,1.22,1.22,0,0,0,.18-.67,1.31,1.31,0,0,0-.18-.69,1.53,1.53,0,0,0-.49-.49,2.85,2.85,0,0,0-.73-.29,3.68,3.68,0,0,0-.89-.1A3.93,3.93,0,0,0,69,91.5l-1-1.25A5.14,5.14,0,0,1,69.65,89a5.58,5.58,0,0,1,2.45-.5,6.15,6.15,0,0,1,1.67.21,3.89,3.89,0,0,1,1.28.6,2.6,2.6,0,0,1,1.13,2.23,2.25,2.25,0,0,1-.22,1,2.46,2.46,0,0,1-.57.78,2.85,2.85,0,0,1-.79.52,2.94,2.94,0,0,1-.86.27,3.86,3.86,0,0,1,.86.24,3.08,3.08,0,0,1,.86.53,2.82,2.82,0,0,1,.66.83,2.51,2.51,0,0,1,.25,1.16,3,3,0,0,1-1.16,2.39,4.29,4.29,0,0,1-1.35.69A6.06,6.06,0,0,1,72.09,100.18Z"/><path class="cls-2" d="M86.42,100.18a4.18,4.18,0,0,1-1.77-.35,3.91,3.91,0,0,1-2.16-2.3,4.92,4.92,0,0,1,0-3.33,3.91,3.91,0,0,1,2.16-2.3,4.5,4.5,0,0,1,1.77-.34,4.58,4.58,0,0,1,1.77.34,3.94,3.94,0,0,1,1.32.93,4.06,4.06,0,0,1,.83,1.37,4.92,4.92,0,0,1,0,3.33,4.06,4.06,0,0,1-.83,1.37,3.94,3.94,0,0,1-1.32.93A4.24,4.24,0,0,1,86.42,100.18Zm0-1.58a2.18,2.18,0,0,0,1.76-.81,2.62,2.62,0,0,0,.45-.88,3.6,3.6,0,0,0,.15-1,3.52,3.52,0,0,0-.15-1,2.57,2.57,0,0,0-.45-.87,2.13,2.13,0,0,0-.74-.59,2.25,2.25,0,0,0-1-.23,2.21,2.21,0,0,0-1,.23,2.13,2.13,0,0,0-.74.59,2.42,2.42,0,0,0-.46.87,3.52,3.52,0,0,0-.16,1,3.6,3.6,0,0,0,.16,1,2.47,2.47,0,0,0,.46.88,2.25,2.25,0,0,0,.74.59A2.21,2.21,0,0,0,86.42,98.6Z"/><path class="cls-2" d="M92.1,100V98.62l4-5.31h-4V91.77h6.44v1.29l-4.12,5.35h4.19V100Z"/><path class="cls-2" d="M101.48,100.17a1.12,1.12,0,0,1-.84-.36,1.19,1.19,0,0,1-.35-.85,1.16,1.16,0,0,1,.35-.83,1.21,1.21,0,0,1,1.68,0,1.16,1.16,0,0,1,.35.83,1.19,1.19,0,0,1-.35.85A1.12,1.12,0,0,1,101.48,100.17Z"/><path class="cls-2" d="M112.85,100.18a4.53,4.53,0,0,1-1.71-.32,4,4,0,0,1-2.21-2.27,4.63,4.63,0,0,1-.31-1.73,4.52,4.52,0,0,1,.31-1.71,4,4,0,0,1,.88-1.36,3.82,3.82,0,0,1,1.33-.9,4.34,4.34,0,0,1,1.71-.33,4.63,4.63,0,0,1,1.1.12,3.5,3.5,0,0,1,.86.33,3.38,3.38,0,0,1,.68.46A4.45,4.45,0,0,1,116,93l-1.18,1.07a2.17,2.17,0,0,0-1.88-1,2.35,2.35,0,0,0-1.81.76,2.85,2.85,0,0,0-.68,2,3.21,3.21,0,0,0,.18,1.1,2.6,2.6,0,0,0,.51.87,2.39,2.39,0,0,0,.79.57,2.49,2.49,0,0,0,1,.2,2.19,2.19,0,0,0,1.88-1l1.18,1.1a4,4,0,0,1-1.19,1A3.77,3.77,0,0,1,112.85,100.18Z"/><path class="cls-2" d="M123.36,100V98.86a3.7,3.7,0,0,1-1.15,1,3.21,3.21,0,0,1-1.49.35,3.51,3.51,0,0,1-1.45-.29,3.12,3.12,0,0,1-1.16-.85,4,4,0,0,1-.75-1.36,5.39,5.39,0,0,1-.28-1.82,5.28,5.28,0,0,1,.28-1.78,4.06,4.06,0,0,1,.75-1.36,3.44,3.44,0,0,1,1.15-.86,3.5,3.5,0,0,1,1.46-.3,3.3,3.3,0,0,1,1.46.34,3.24,3.24,0,0,1,1.18,1V91.77h1.78V100Zm-2.11-1.38a2.7,2.7,0,0,0,.62-.08,2.81,2.81,0,0,0,.59-.24,3.15,3.15,0,0,0,.52-.35,1.92,1.92,0,0,0,.38-.43V94.25a2.5,2.5,0,0,0-.38-.43,3.15,3.15,0,0,0-.52-.35,2.81,2.81,0,0,0-.59-.24,2.27,2.27,0,0,0-.62-.09,2.16,2.16,0,0,0-1,.21,2.1,2.1,0,0,0-.73.56,2.54,2.54,0,0,0-.47.86,3.83,3.83,0,0,0,0,2.19,2.69,2.69,0,0,0,.47.87,2.26,2.26,0,0,0,.73.57A2.3,2.3,0,0,0,121.25,98.6Z"/><path class="cls-2" d="M129.94,100.18a2.1,2.1,0,0,1-1.58-.54,2.14,2.14,0,0,1-.53-1.58V93.31h-1.36V91.77h1.36V89.52h1.78v2.25h1.67v1.54h-1.67v4.31a1.2,1.2,0,0,0,.2.7.66.66,0,0,0,.59.28,1.14,1.14,0,0,0,.46-.09.89.89,0,0,0,.32-.21l.42,1.36a2,2,0,0,1-.64.37A3,3,0,0,1,129.94,100.18Z"/><path class="cls-2" d="M137.71,100V93.31h-1.36V91.77h1.36v-.46a2.85,2.85,0,0,1,.73-2.11,2.48,2.48,0,0,1,1.85-.73,2.9,2.9,0,0,1,1.44.31l-.39,1.34a1.23,1.23,0,0,0-.71-.19,1.05,1.05,0,0,0-.84.34,1.54,1.54,0,0,0-.3,1v.46h1.67v1.54h-1.67V100Z"/><path class="cls-2" d="M146.24,100.18a4.18,4.18,0,0,1-1.77-.35,4,4,0,0,1-2.16-2.3,4.92,4.92,0,0,1,0-3.33,4,4,0,0,1,2.16-2.3,4.78,4.78,0,0,1,3.54,0,3.94,3.94,0,0,1,1.32.93,4.08,4.08,0,0,1,.84,1.37,4.92,4.92,0,0,1,0,3.33,4.08,4.08,0,0,1-.84,1.37,3.94,3.94,0,0,1-1.32.93A4.18,4.18,0,0,1,146.24,100.18Zm0-1.58a2.18,2.18,0,0,0,1.76-.81,2.62,2.62,0,0,0,.45-.88,3.6,3.6,0,0,0,.15-1,3.52,3.52,0,0,0-.15-1A2.57,2.57,0,0,0,148,94a2.13,2.13,0,0,0-.74-.59,2.25,2.25,0,0,0-1-.23,2.17,2.17,0,0,0-1,.23,2.07,2.07,0,0,0-.75.59,2.42,2.42,0,0,0-.46.87,3.52,3.52,0,0,0-.15,1,3.6,3.6,0,0,0,.15,1,2.47,2.47,0,0,0,.46.88,2.19,2.19,0,0,0,.75.59A2.16,2.16,0,0,0,146.24,98.6Z"/><path class="cls-2" d="M156,100.18a4.18,4.18,0,0,1-1.77-.35,3.91,3.91,0,0,1-2.16-2.3,4.92,4.92,0,0,1,0-3.33,3.91,3.91,0,0,1,2.16-2.3,4.5,4.5,0,0,1,1.77-.34,4.58,4.58,0,0,1,1.77.34,3.94,3.94,0,0,1,1.32.93,4.06,4.06,0,0,1,.83,1.37,4.92,4.92,0,0,1,0,3.33,4.06,4.06,0,0,1-.83,1.37,3.94,3.94,0,0,1-1.32.93A4.24,4.24,0,0,1,156,100.18Zm0-1.58a2.18,2.18,0,0,0,1.76-.81,2.62,2.62,0,0,0,.45-.88,3.6,3.6,0,0,0,.15-1,3.52,3.52,0,0,0-.15-1,2.57,2.57,0,0,0-.45-.87,2.13,2.13,0,0,0-.74-.59,2.25,2.25,0,0,0-1-.23,2.21,2.21,0,0,0-1,.23,2.13,2.13,0,0,0-.74.59,2.42,2.42,0,0,0-.46.87,3.52,3.52,0,0,0-.16,1,3.6,3.6,0,0,0,.16,1,2.47,2.47,0,0,0,.46.88,2.25,2.25,0,0,0,.74.59A2.21,2.21,0,0,0,156,98.6Z"/><path class="cls-2" d="M167.81,100V98.86a3.7,3.7,0,0,1-1.15,1,3.17,3.17,0,0,1-1.48.35,3.56,3.56,0,0,1-1.46-.29,3.08,3.08,0,0,1-1.15-.85,3.82,3.82,0,0,1-.76-1.36,5.66,5.66,0,0,1-.27-1.82,5.54,5.54,0,0,1,.27-1.78,3.91,3.91,0,0,1,.76-1.36,3.31,3.31,0,0,1,1.14-.86,3.54,3.54,0,0,1,1.47-.3,3.18,3.18,0,0,1,2.63,1.35V88.64h1.79V100ZM165.7,98.6a2.64,2.64,0,0,0,.62-.08,3.13,3.13,0,0,0,.6-.24,2.7,2.7,0,0,0,.51-.35,1.92,1.92,0,0,0,.38-.43V94.25a2.5,2.5,0,0,0-.38-.43,2.7,2.7,0,0,0-.51-.35,3.13,3.13,0,0,0-.6-.24,2.21,2.21,0,0,0-.62-.09,2.23,2.23,0,0,0-1.7.77,2.37,2.37,0,0,0-.46.86,3.83,3.83,0,0,0,0,2.19,2.5,2.5,0,0,0,.46.87,2.3,2.3,0,0,0,.74.57A2.26,2.26,0,0,0,165.7,98.6Z"/><path class="cls-2" d="M180,100.18a4.45,4.45,0,0,1-1.71-.32A4.16,4.16,0,0,1,177,99a4.22,4.22,0,0,1-.87-1.37,4.63,4.63,0,0,1-.32-1.73,4.53,4.53,0,0,1,.32-1.71,4.17,4.17,0,0,1,.87-1.36,3.86,3.86,0,0,1,1.34-.9,4.27,4.27,0,0,1,1.71-.33,4.55,4.55,0,0,1,1.09.12A3.74,3.74,0,0,1,182,92a3.3,3.3,0,0,1,.67.46,4.45,4.45,0,0,1,.51.56L182,94.1a2.2,2.2,0,0,0-1.89-1,2.31,2.31,0,0,0-1.8.76,2.8,2.8,0,0,0-.68,2,3.21,3.21,0,0,0,.18,1.1,2.6,2.6,0,0,0,.51.87,2.46,2.46,0,0,0,.78.57,2.53,2.53,0,0,0,1,.2,2.22,2.22,0,0,0,1.89-1l1.17,1.1a4,4,0,0,1-1.19,1A3.76,3.76,0,0,1,180,100.18Z"/><path class="cls-2" d="M190.54,100V98.86a3.7,3.7,0,0,1-1.15,1,3.17,3.17,0,0,1-1.48.35,3.53,3.53,0,0,1-1.46-.29A3,3,0,0,1,185.3,99a3.82,3.82,0,0,1-.76-1.36,5.66,5.66,0,0,1-.27-1.82,5.54,5.54,0,0,1,.27-1.78,3.91,3.91,0,0,1,.76-1.36,3.31,3.31,0,0,1,1.14-.86,3.54,3.54,0,0,1,1.47-.3,3.33,3.33,0,0,1,1.46.34,3.29,3.29,0,0,1,1.17,1V91.77h1.79V100Zm-2.11-1.38a2.64,2.64,0,0,0,.62-.08,3.13,3.13,0,0,0,.6-.24,3.54,3.54,0,0,0,.51-.35,1.92,1.92,0,0,0,.38-.43V94.25a2.5,2.5,0,0,0-.38-.43,3.54,3.54,0,0,0-.51-.35,3.13,3.13,0,0,0-.6-.24,2.21,2.21,0,0,0-.62-.09,2.19,2.19,0,0,0-1.7.77,2.54,2.54,0,0,0-.47.86,3.83,3.83,0,0,0,0,2.19,2.69,2.69,0,0,0,.47.87,2.37,2.37,0,0,0,.73.57A2.34,2.34,0,0,0,188.43,98.6Z"/><path class="cls-2" d="M200.2,100V94.84a1.64,1.64,0,0,0-.45-1.33,1.91,1.91,0,0,0-1.22-.37,2.37,2.37,0,0,0-1.23.34,3.5,3.5,0,0,0-.88.75V100h-1.78V91.77h1.78v1.1a4.58,4.58,0,0,1,.5-.47,4.15,4.15,0,0,1,.68-.43,4.43,4.43,0,0,1,.8-.3,4,4,0,0,1,.93-.11,2.68,2.68,0,0,1,2,.68,2.72,2.72,0,0,1,.66,2V100Z"/><path class="cls-2" d="M207.12,100.18a5.71,5.71,0,0,1-2-.33,4.28,4.28,0,0,1-1.54-1l.81-1.27a4.91,4.91,0,0,0,.53.42,4,4,0,0,0,.68.37,5.32,5.32,0,0,0,.77.25,3.61,3.61,0,0,0,.79.09,2.07,2.07,0,0,0,1.23-.29.94.94,0,0,0,.41-.79.68.68,0,0,0-.37-.62,4.36,4.36,0,0,0-.92-.34l-1.2-.27a4.72,4.72,0,0,1-1.2-.41,2.6,2.6,0,0,1-.91-.73,1.9,1.9,0,0,1-.37-1.25,2.32,2.32,0,0,1,.21-1,2.47,2.47,0,0,1,.62-.79,3.17,3.17,0,0,1,1-.53,4.46,4.46,0,0,1,1.38-.2,4.81,4.81,0,0,1,1.85.33,4.38,4.38,0,0,1,1.33.81L209.51,94a3.16,3.16,0,0,0-1-.7,3.43,3.43,0,0,0-1.42-.29,1.88,1.88,0,0,0-1.11.29.88.88,0,0,0-.4.73.6.6,0,0,0,.36.55,4.11,4.11,0,0,0,.92.31l1.2.27a5.18,5.18,0,0,1,1.2.43,2.72,2.72,0,0,1,.92.76,2.16,2.16,0,0,1,.36,1.31,2.37,2.37,0,0,1-.22,1,2.2,2.2,0,0,1-.65.81,3.26,3.26,0,0,1-1.07.54A5.09,5.09,0,0,1,207.12,100.18Z"/><path class="cls-2" d="M220.07,100.17a4.74,4.74,0,0,1-1.88-.35,4.85,4.85,0,0,1-1.39-.91l.94-1.52a3.13,3.13,0,0,0,1,.74,3,3,0,0,0,1.35.27,2.6,2.6,0,0,0,1.33-.33,2.73,2.73,0,0,0,.94-.85,3.91,3.91,0,0,0,.54-1.19,5.31,5.31,0,0,0,.18-1.37V94.5a1,1,0,0,0,0-.17,2.38,2.38,0,0,1-.5.57,4.06,4.06,0,0,1-.7.51,3.65,3.65,0,0,1-1.84.51,4.63,4.63,0,0,1-1.45-.23,3.7,3.7,0,0,1-1.21-.69,3.22,3.22,0,0,1-.82-1.15,3.79,3.79,0,0,1-.31-1.59,3.73,3.73,0,0,1,.3-1.48,3.66,3.66,0,0,1,.84-1.21,3.84,3.84,0,0,1,1.32-.82,4.7,4.7,0,0,1,1.72-.3,4.6,4.6,0,0,1,2.14.47A4.13,4.13,0,0,1,224,90.19a5.66,5.66,0,0,1,.82,1.87,9.1,9.1,0,0,1,.27,2.24,7.8,7.8,0,0,1-.33,2.3,5.46,5.46,0,0,1-1,1.86,4.66,4.66,0,0,1-1.56,1.25A5,5,0,0,1,220.07,100.17Zm.47-6a2.86,2.86,0,0,0,1.39-.37,3.33,3.33,0,0,0,1.1-1,5.28,5.28,0,0,0-.21-.92,2.57,2.57,0,0,0-.45-.85,2.24,2.24,0,0,0-1.88-.88,2.48,2.48,0,0,0-1,.18,2.28,2.28,0,0,0-.72.46,1.85,1.85,0,0,0-.43.64,1.74,1.74,0,0,0-.14.69,2.11,2.11,0,0,0,.18.91,1.77,1.77,0,0,0,.51.63,2.19,2.19,0,0,0,.75.37A3.22,3.22,0,0,0,220.54,94.22Z"/><path class="cls-2" d="M230.29,100.17a4.74,4.74,0,0,1-1.88-.35,4.85,4.85,0,0,1-1.39-.91l.94-1.52a3.21,3.21,0,0,0,1,.74,3,3,0,0,0,1.36.27,2.67,2.67,0,0,0,2.26-1.18A3.71,3.71,0,0,0,233.1,96a5.31,5.31,0,0,0,.18-1.37V94.5a1,1,0,0,0,0-.17,2.38,2.38,0,0,1-.5.57,4.14,4.14,0,0,1-.71.51,3.42,3.42,0,0,1-.85.37,3.57,3.57,0,0,1-1,.14,4.7,4.7,0,0,1-1.46-.23,3.56,3.56,0,0,1-1.2-.69,3.37,3.37,0,0,1-.83-1.15,4,4,0,0,1-.3-1.59,3.9,3.9,0,0,1,.29-1.48,3.54,3.54,0,0,1,.85-1.21,3.89,3.89,0,0,1,1.31-.82,4.76,4.76,0,0,1,1.73-.3,4.53,4.53,0,0,1,2.13.47,4.08,4.08,0,0,1,1.46,1.27,5.87,5.87,0,0,1,.82,1.87,9.1,9.1,0,0,1,.26,2.24,7.8,7.8,0,0,1-.32,2.3,5.46,5.46,0,0,1-1,1.86,4.6,4.6,0,0,1-1.57,1.25A4.89,4.89,0,0,1,230.29,100.17Zm.47-6a2.86,2.86,0,0,0,1.39-.37,3.3,3.3,0,0,0,1.09-1A4.47,4.47,0,0,0,233,92a2.57,2.57,0,0,0-.45-.85,2.23,2.23,0,0,0-.76-.63,2.26,2.26,0,0,0-1.12-.25,2.57,2.57,0,0,0-1,.18,2.23,2.23,0,0,0-.71.46,1.72,1.72,0,0,0-.43.64,1.75,1.75,0,0,0-.15.69,2.11,2.11,0,0,0,.19.91,1.58,1.58,0,0,0,.51.63,2,2,0,0,0,.75.37A3.22,3.22,0,0,0,230.76,94.22Z"/><path class="cls-2" d="M240.16,100.13a4.22,4.22,0,0,1-1.44-.48,4.17,4.17,0,0,1-1.11-.93,4.31,4.31,0,0,1-.71-1.28,4.72,4.72,0,0,1-.26-1.58,4.63,4.63,0,0,1,.26-1.55,4.31,4.31,0,0,1,.71-1.28,3.83,3.83,0,0,1,1.11-.93,4.23,4.23,0,0,1,1.44-.49V90.37h1.33V91.6a3.59,3.59,0,0,1,1.54.52,4,4,0,0,1,1,.91l-1.17,1.07a2.24,2.24,0,0,0-1.36-.9v5.35a2.24,2.24,0,0,0,1.36-.93l1.17,1.1a4.33,4.33,0,0,1-1,.9,3.6,3.6,0,0,1-1.54.53v1.53h-1.33Zm-1.68-4.27a3.06,3.06,0,0,0,.45,1.68,2.17,2.17,0,0,0,1.23.94V93.26a2.28,2.28,0,0,0-1.23.95A3,3,0,0,0,238.48,95.86Z"/><path class="cls-2" d="M253.8,100.18a4.84,4.84,0,0,1-1.73-.3,3.9,3.9,0,0,1-2.25-2.25,4.57,4.57,0,0,1-.32-1.77,4.7,4.7,0,0,1,.3-1.67,4,4,0,0,1,.86-1.37A4.29,4.29,0,0,1,252,91.9a4.2,4.2,0,0,1,1.68-.34,4,4,0,0,1,1.67.34,3.64,3.64,0,0,1,1.27.92,4.27,4.27,0,0,1,.81,1.41,5.42,5.42,0,0,1,.28,1.79v.44h-6.32a2.62,2.62,0,0,0,.24.87,2.49,2.49,0,0,0,.53.72,2.35,2.35,0,0,0,.79.49,2.84,2.84,0,0,0,1,.18,3.59,3.59,0,0,0,1.25-.24,2.89,2.89,0,0,0,1.09-.68l.82,1.18a4.35,4.35,0,0,1-1.5.9A5.57,5.57,0,0,1,253.8,100.18Zm2.17-5a2.35,2.35,0,0,0-.16-.74,2.46,2.46,0,0,0-.42-.69,2.37,2.37,0,0,0-.71-.52,2.71,2.71,0,0,0-2,0,2.09,2.09,0,0,0-.71.51,2.21,2.21,0,0,0-.43.7,2.32,2.32,0,0,0-.17.75Z"/><path class="cls-2" d="M265.24,100V98.86a3.7,3.7,0,0,1-1.15,1,3.21,3.21,0,0,1-1.49.35,3.51,3.51,0,0,1-1.45-.29A3.12,3.12,0,0,1,260,99a4,4,0,0,1-.75-1.36,5.39,5.39,0,0,1-.28-1.82,5.28,5.28,0,0,1,.28-1.78,4.06,4.06,0,0,1,.75-1.36,3.44,3.44,0,0,1,1.15-.86,3.5,3.5,0,0,1,1.46-.3,3.3,3.3,0,0,1,1.46.34,3.24,3.24,0,0,1,1.18,1V91.77H267V100Zm-2.11-1.38a2.7,2.7,0,0,0,.62-.08,2.81,2.81,0,0,0,.59-.24,2.7,2.7,0,0,0,.51-.35,2,2,0,0,0,.39-.43V94.25a2.57,2.57,0,0,0-.39-.43,2.7,2.7,0,0,0-.51-.35,2.81,2.81,0,0,0-.59-.24,2.27,2.27,0,0,0-.62-.09,2.16,2.16,0,0,0-1,.21,2.1,2.1,0,0,0-.73.56,2.38,2.38,0,0,0-.47.86A3.83,3.83,0,0,0,261,97a2.52,2.52,0,0,0,.47.87,2.26,2.26,0,0,0,.73.57A2.3,2.3,0,0,0,263.13,98.6Z"/><path class="cls-2" d="M270.27,100.17a1.12,1.12,0,0,1-.84-.36,1.15,1.15,0,0,1-.35-.85,1.12,1.12,0,0,1,.35-.83,1.21,1.21,0,0,1,1.68,0,1.16,1.16,0,0,1,.35.83,1.19,1.19,0,0,1-.35.85A1.12,1.12,0,0,1,270.27,100.17Z"/></g></g></svg>