<svg xmlns="http://www.w3.org/2000/svg" viewBox="0 0 300 250"><g id="Layer_2" data-name="Layer 2"><g id="rec"><rect width="300" height="250" fill="none"/></g><g id="sub"><path d="M16.2,106V95.34h5.25a3.73,3.73,0,0,1,1.3.21,2.74,2.74,0,0,1,.95.59,2.45,2.45,0,0,1,.59.86,2.84,2.84,0,0,1,.2,1,2.42,2.42,0,0,1-.16.91,2.45,2.45,0,0,1-.4.73,2.3,2.3,0,0,1-.6.52,2.26,2.26,0,0,1-.7.29,2.13,2.13,0,0,1,.81.29,2.44,2.44,0,0,1,.65.59,2.49,2.49,0,0,1,.44.8,2.68,2.68,0,0,1,.16.93,3.05,3.05,0,0,1-.2,1.15,2.55,2.55,0,0,1-.59.92,2.47,2.47,0,0,1-1,.61,3.73,3.73,0,0,1-1.34.22Zm4.88-6.29a1.5,1.5,0,0,0,1.1-.38,1.41,1.41,0,0,0,0-2,1.46,1.46,0,0,0-1.1-.39h-3v2.72Zm.08,4.62a1.73,1.73,0,0,0,1.19-.38,1.42,1.42,0,0,0,.42-1.09,1.48,1.48,0,0,0-.4-1.05,1.6,1.6,0,0,0-1.21-.44H18.07v3Z" fill="#e52823"/><path d="M31.75,106v-1a4.38,4.38,0,0,1-1.11.85,3.36,3.36,0,0,1-1.61.37,2.52,2.52,0,0,1-1.87-.63,2.47,2.47,0,0,1-.63-1.82V98.28h1.68v4.85a1.5,1.5,0,0,0,.43,1.24,1.74,1.74,0,0,0,1.14.34,2.17,2.17,0,0,0,1.16-.31,2.82,2.82,0,0,0,.81-.69V98.28h1.68V106Z" fill="#e52823"/><path d="M38.65,109.14a5.07,5.07,0,0,1-1.73-.27,4.14,4.14,0,0,1-1.39-.88l.78-1.21a2.39,2.39,0,0,0,1,.76,3.83,3.83,0,0,0,1.3.23,2.27,2.27,0,0,0,1.6-.55,2.13,2.13,0,0,0,.57-1.6v-.89a4.14,4.14,0,0,1-1.11.84,3.33,3.33,0,0,1-1.61.37,2.53,2.53,0,0,1-1.87-.63,2.44,2.44,0,0,1-.62-1.81V98.28h1.68v4.59a1.53,1.53,0,0,0,.42,1.24,1.74,1.74,0,0,0,1.14.35,2.17,2.17,0,0,0,1.16-.32,2.55,2.55,0,0,0,.81-.69V98.28H42.5v7.34a3.67,3.67,0,0,1-.29,1.53,3,3,0,0,1-.8,1.11,3.64,3.64,0,0,1-1.23.66A5,5,0,0,1,38.65,109.14Z" fill="#e52823"/><path d="M48.52,106v-1.49c1-.78,1.91-1.46,2.65-2A23.11,23.11,0,0,0,53,100.9a6,6,0,0,0,1-1.28,2.34,2.34,0,0,0,.32-1.16,1.47,1.47,0,0,0-.16-.72,1.68,1.68,0,0,0-.44-.51,1.91,1.91,0,0,0-.63-.29,2.46,2.46,0,0,0-.72-.1,3.7,3.7,0,0,0-2.88,1.26l-1.09-1.21a4.37,4.37,0,0,1,1.77-1.29,5.84,5.84,0,0,1,2.19-.42,5.12,5.12,0,0,1,1.47.21A4,4,0,0,1,55,96a3.12,3.12,0,0,1,.84,1,3,3,0,0,1,.31,1.4,3.34,3.34,0,0,1-.33,1.45,6.68,6.68,0,0,1-.93,1.43,14.5,14.5,0,0,1-1.47,1.46c-.57.49-1.21,1-1.92,1.55h4.72V106Z" fill="#e52823"/><path d="M65.61,109.14a5.85,5.85,0,0,1-1.76-.24,4.08,4.08,0,0,1-1.49-.91l.78-1.21a2.58,2.58,0,0,0,1.09.76,3.91,3.91,0,0,0,1.38.23,3.83,3.83,0,0,0,.82-.1,1.91,1.91,0,0,0,1.26-1,2.25,2.25,0,0,0,.2-1v-.88a3.46,3.46,0,0,1-1.08.94,2.75,2.75,0,0,1-1.4.35,3.4,3.4,0,0,1-1.36-.26A2.92,2.92,0,0,1,63,105a3.42,3.42,0,0,1-.71-1.24,5.59,5.59,0,0,1,0-3.37A3.55,3.55,0,0,1,63,99.13,3,3,0,0,1,64,98.35a3.56,3.56,0,0,1,1.37-.26,3.11,3.11,0,0,1,1.38.32,3.08,3.08,0,0,1,1.1.94V98.28h1.68v7.33a3.73,3.73,0,0,1-.35,1.73,2.87,2.87,0,0,1-.92,1.08A3.36,3.36,0,0,1,67,109,6.22,6.22,0,0,1,65.61,109.14Zm.3-4.62a2.34,2.34,0,0,0,1.14-.3,2.53,2.53,0,0,0,.84-.72v-2.9a2.55,2.55,0,0,0-2-1,2,2,0,0,0-1.6.68,3,3,0,0,0,0,3.59A2,2,0,0,0,65.91,104.52Z" fill="#e52823"/><path d="M75.33,106.2a4.52,4.52,0,0,1-1.62-.29,3.56,3.56,0,0,1-1.28-.82,3.79,3.79,0,0,1-.84-1.29,4.67,4.67,0,0,1,0-3.24,4,4,0,0,1,.81-1.29,3.88,3.88,0,0,1,1.24-.86,3.93,3.93,0,0,1,1.59-.32,3.78,3.78,0,0,1,1.56.31,3.5,3.5,0,0,1,1.2.87,3.88,3.88,0,0,1,.76,1.33,5,5,0,0,1,.27,1.68v.42H73a2.53,2.53,0,0,0,.24.81,2.08,2.08,0,0,0,.49.68,2.39,2.39,0,0,0,.75.47,2.7,2.7,0,0,0,1,.17,3.44,3.44,0,0,0,1.19-.23,2.81,2.81,0,0,0,1-.64l.77,1.1a3.89,3.89,0,0,1-1.41.85A5.19,5.19,0,0,1,75.33,106.2Zm2-4.7a2.26,2.26,0,0,0-.15-.7,2.05,2.05,0,0,0-.4-.66,2.34,2.34,0,0,0-.66-.48,2.44,2.44,0,0,0-1.91,0,1.82,1.82,0,0,0-.66.48,2.15,2.15,0,0,0-.41.66,2,2,0,0,0-.16.71Z" fill="#e52823"/><path d="M83,106.2a2,2,0,0,1-1.49-.51,2.06,2.06,0,0,1-.5-1.49V99.74H79.73V98.28H81V96.17h1.68v2.11h1.57v1.46H82.69v4.05a1.09,1.09,0,0,0,.19.66.63.63,0,0,0,.55.26,1,1,0,0,0,.44-.09.75.75,0,0,0,.3-.2l.4,1.29a2.18,2.18,0,0,1-.61.35A3,3,0,0,1,83,106.2Z" fill="#e52823"/><path d="M91.88,106V97.75l-1.75,1.83L89,98.44l3.08-3.1h1.63V106Z" fill="#e52823"/><path d="M100.52,106V99.74H99.24V98.28h1.28v-.43a2.69,2.69,0,0,1,.68-2,2.37,2.37,0,0,1,1.75-.69,2.86,2.86,0,0,1,1.36.28l-.37,1.27a1.17,1.17,0,0,0-.67-.18,1,1,0,0,0-.79.32,1.45,1.45,0,0,0-.28,1v.43h1.56v1.46H102.2V106Z" fill="#e52823"/><path d="M105,106V98.28h1.68V99.4a4.07,4.07,0,0,1,1.11-.94,2.78,2.78,0,0,1,1.41-.37v1.66a2.68,2.68,0,0,0-.52,0,1.85,1.85,0,0,0-.56.08,2.77,2.77,0,0,0-1.08.55,1.93,1.93,0,0,0-.36.41V106Z" fill="#e52823"/><path d="M114.18,106.2a4.45,4.45,0,0,1-1.62-.29,3.48,3.48,0,0,1-1.28-.82,3.79,3.79,0,0,1-.84-1.29,4.23,4.23,0,0,1-.31-1.66,4.39,4.39,0,0,1,.29-1.58,3.82,3.82,0,0,1,.81-1.29,3.78,3.78,0,0,1,1.24-.86,3.91,3.91,0,0,1,1.58-.32,3.79,3.79,0,0,1,1.57.31,3.5,3.5,0,0,1,1.2.87,4.05,4.05,0,0,1,.76,1.33,5,5,0,0,1,.26,1.68v.42h-6a2.51,2.51,0,0,0,.23.81,2.26,2.26,0,0,0,.5.68,2.46,2.46,0,0,0,.74.47,2.76,2.76,0,0,0,1,.17,3.38,3.38,0,0,0,1.18-.23,2.77,2.77,0,0,0,1-.64l.77,1.1a3.89,3.89,0,0,1-1.41.85A5.23,5.23,0,0,1,114.18,106.2Zm2-4.7A2.06,2.06,0,0,0,115,99.66a2.18,2.18,0,0,0-1-.2,2.23,2.23,0,0,0-.93.19,2,2,0,0,0-.67.48,2.12,2.12,0,0,0-.4.66,2,2,0,0,0-.16.71Z" fill="#e52823"/><path d="M123.09,106.2a4.49,4.49,0,0,1-1.62-.29,3.56,3.56,0,0,1-1.28-.82,3.79,3.79,0,0,1-.84-1.29,4.52,4.52,0,0,1,0-3.24,3.82,3.82,0,0,1,.81-1.29A3.87,3.87,0,0,1,123,98.09a3.79,3.79,0,0,1,1.57.31,3.5,3.5,0,0,1,1.2.87,3.88,3.88,0,0,1,.76,1.33,5,5,0,0,1,.27,1.68v.42h-6a2.53,2.53,0,0,0,.24.81,2.08,2.08,0,0,0,.49.68,2.39,2.39,0,0,0,.75.47,2.66,2.66,0,0,0,1,.17,3.44,3.44,0,0,0,1.19-.23,2.81,2.81,0,0,0,1-.64l.77,1.1a3.89,3.89,0,0,1-1.41.85A5.19,5.19,0,0,1,123.09,106.2Zm2-4.7a2.06,2.06,0,0,0-1.22-1.84,2.18,2.18,0,0,0-1-.2,2.27,2.27,0,0,0-.93.19,1.82,1.82,0,0,0-.66.48,2.26,2.26,0,0,0-.57,1.37Z" fill="#e52823"/><path d="M136.05,106.2a4,4,0,0,1-1.66-.33,3.72,3.72,0,0,1-2-2.16,4.37,4.37,0,0,1-.28-1.57,4.29,4.29,0,0,1,.28-1.57,3.84,3.84,0,0,1,.78-1.29,3.6,3.6,0,0,1,1.25-.87,4.16,4.16,0,0,1,1.66-.32,4.21,4.21,0,0,1,1.67.32,3.56,3.56,0,0,1,1.24.87,3.71,3.71,0,0,1,.79,1.29,4.5,4.5,0,0,1,.27,1.57,4.59,4.59,0,0,1-.27,1.57A3.67,3.67,0,0,1,139,105a3.72,3.72,0,0,1-1.24.88A4,4,0,0,1,136.05,106.2Zm0-1.49a2.12,2.12,0,0,0,1-.21,1.91,1.91,0,0,0,.7-.56,2.36,2.36,0,0,0,.42-.82,3.28,3.28,0,0,0,0-2,2.55,2.55,0,0,0-.42-.82,2,2,0,0,0-.7-.55,2.12,2.12,0,0,0-1-.21,2.06,2.06,0,0,0-.94.21,2.12,2.12,0,0,0-.71.55,2.57,2.57,0,0,0-.43.82,3.5,3.5,0,0,0,0,2,2.37,2.37,0,0,0,.43.82,2,2,0,0,0,.71.56A2.06,2.06,0,0,0,136.05,104.71Z" fill="#e52823"/><path d="M147,106v-4.83a1.56,1.56,0,0,0-.42-1.26,1.74,1.74,0,0,0-1.14-.34,2.09,2.09,0,0,0-1.16.32,2.93,2.93,0,0,0-.83.7V106h-1.68V98.28h1.68v1a4.08,4.08,0,0,1,.47-.45,3.66,3.66,0,0,1,.64-.4,4,4,0,0,1,.76-.28,3.46,3.46,0,0,1,.87-.1,2.22,2.22,0,0,1,2.49,2.48V106Z" fill="#e52823"/><path d="M157.6,106.2a5.24,5.24,0,0,1-1.85-.31,4.06,4.06,0,0,1-1.46-.91l.77-1.19a3,3,0,0,0,.5.39,3.53,3.53,0,0,0,.64.35,4.34,4.34,0,0,0,.72.24,3.2,3.2,0,0,0,.75.09,2,2,0,0,0,1.15-.28.88.88,0,0,0,.38-.75.61.61,0,0,0-.34-.57,3.29,3.29,0,0,0-.86-.32l-1.13-.26a4.55,4.55,0,0,1-1.13-.38,2.35,2.35,0,0,1-.86-.69,1.85,1.85,0,0,1-.35-1.19,2.12,2.12,0,0,1,.2-.9,2.08,2.08,0,0,1,.59-.74,2.77,2.77,0,0,1,1-.51,4.3,4.3,0,0,1,1.3-.18,4.66,4.66,0,0,1,1.74.3,4.41,4.41,0,0,1,1.25.77l-.7,1.18a3,3,0,0,0-1-.65,3.24,3.24,0,0,0-1.34-.27,1.77,1.77,0,0,0-1,.27.81.81,0,0,0-.37.69.55.55,0,0,0,.34.51,3.68,3.68,0,0,0,.87.29l1.12.26a5,5,0,0,1,1.13.4,2.55,2.55,0,0,1,.87.72,2,2,0,0,1,.34,1.23,2.24,2.24,0,0,1-.21,1,2.12,2.12,0,0,1-.61.76,3.19,3.19,0,0,1-1,.51A4.83,4.83,0,0,1,157.6,106.2Z" fill="#e52823"/><path d="M166.08,106.2a4.52,4.52,0,0,1-1.62-.29,3.56,3.56,0,0,1-1.28-.82,3.79,3.79,0,0,1-.84-1.29,4.67,4.67,0,0,1,0-3.24,3.82,3.82,0,0,1,.81-1.29,3.88,3.88,0,0,1,1.24-.86,3.93,3.93,0,0,1,1.59-.32,3.78,3.78,0,0,1,1.56.31,3.5,3.5,0,0,1,1.2.87,3.88,3.88,0,0,1,.76,1.33,5,5,0,0,1,.27,1.68v.42h-6a2.53,2.53,0,0,0,.24.81,2.23,2.23,0,0,0,.49.68,2.39,2.39,0,0,0,.75.47,2.66,2.66,0,0,0,1,.17,3.44,3.44,0,0,0,1.19-.23,2.81,2.81,0,0,0,1-.64l.77,1.1a3.81,3.81,0,0,1-1.41.85A5.19,5.19,0,0,1,166.08,106.2Zm2-4.7a2.24,2.24,0,0,0-.55-1.36,2.34,2.34,0,0,0-.66-.48,2.44,2.44,0,0,0-1.91,0,1.82,1.82,0,0,0-.66.48,2.15,2.15,0,0,0-.41.66,2,2,0,0,0-.16.71Z" fill="#e52823"/><path d="M173.4,106.2a2,2,0,0,1-1.48-.51,2,2,0,0,1-.51-1.49V95.34h1.68v8.45a1.09,1.09,0,0,0,.19.66.63.63,0,0,0,.55.26,1.13,1.13,0,0,0,.45-.09.69.69,0,0,0,.3-.2l.4,1.29a2,2,0,0,1-.61.35A2.93,2.93,0,0,1,173.4,106.2Z" fill="#e52823"/><path d="M179.57,106.2a4.45,4.45,0,0,1-1.62-.29,3.48,3.48,0,0,1-1.28-.82,3.79,3.79,0,0,1-.84-1.29,4.23,4.23,0,0,1-.31-1.66,4.39,4.39,0,0,1,.29-1.58,3.82,3.82,0,0,1,.81-1.29,3.87,3.87,0,0,1,2.82-1.18,3.79,3.79,0,0,1,1.57.31,3.5,3.5,0,0,1,1.2.87,3.88,3.88,0,0,1,.76,1.33,5,5,0,0,1,.27,1.68v.42h-6a2.53,2.53,0,0,0,.24.81,2.08,2.08,0,0,0,.49.68,2.39,2.39,0,0,0,.75.47,2.66,2.66,0,0,0,1,.17,3.44,3.44,0,0,0,1.19-.23,2.81,2.81,0,0,0,1-.64l.77,1.1a3.89,3.89,0,0,1-1.41.85A5.19,5.19,0,0,1,179.57,106.2Zm2.05-4.7a2.06,2.06,0,0,0-1.22-1.84,2.18,2.18,0,0,0-1-.2,2.27,2.27,0,0,0-.93.19,2,2,0,0,0-.67.48,2.12,2.12,0,0,0-.4.66,2,2,0,0,0-.16.71Z" fill="#e52823"/><path d="M188.42,106.2a4.2,4.2,0,0,1-1.61-.3,3.9,3.9,0,0,1-1.25-.85,3.77,3.77,0,0,1-.83-1.29,4.32,4.32,0,0,1-.29-1.62,4.25,4.25,0,0,1,.29-1.62,3.82,3.82,0,0,1,.83-1.28,3.9,3.9,0,0,1,1.25-.85,4.2,4.2,0,0,1,1.61-.3,4.58,4.58,0,0,1,1,.11,4.13,4.13,0,0,1,.82.3,3.35,3.35,0,0,1,.63.44,4.62,4.62,0,0,1,.48.52l-1.1,1a2.08,2.08,0,0,0-1.78-.89,2.17,2.17,0,0,0-1.7.71,2.68,2.68,0,0,0-.64,1.85,3.13,3.13,0,0,0,.17,1,2.26,2.26,0,0,0,.48.81,2.21,2.21,0,0,0,.74.54,2.24,2.24,0,0,0,.95.19,2.08,2.08,0,0,0,1.78-.92l1.1,1a4,4,0,0,1-1.12,1A3.66,3.66,0,0,1,188.42,106.2Z" fill="#e52823"/><path d="M195.2,106.2a2,2,0,0,1-1.49-.51,2.06,2.06,0,0,1-.49-1.49V99.74h-1.28V98.28h1.28V96.17h1.68v2.11h1.57v1.46H194.9v4.05a1.16,1.16,0,0,0,.18.66.66.66,0,0,0,.56.26,1.12,1.12,0,0,0,.44-.09.65.65,0,0,0,.29-.2l.4,1.29a2,2,0,0,1-.61.35A2.87,2.87,0,0,1,195.2,106.2Z" fill="#e52823"/><path d="M205.62,106.2a4.2,4.2,0,0,1-1.61-.3,4.06,4.06,0,0,1-1.26-.85,3.9,3.9,0,0,1-.82-1.29,4.32,4.32,0,0,1-.3-1.62,4.25,4.25,0,0,1,.3-1.62,4,4,0,0,1,.82-1.28,4.06,4.06,0,0,1,1.26-.85,4.2,4.2,0,0,1,1.61-.3,4.58,4.58,0,0,1,1,.11,4.13,4.13,0,0,1,.82.3,3.35,3.35,0,0,1,.63.44,4.62,4.62,0,0,1,.48.52l-1.11,1a2.05,2.05,0,0,0-1.77-.89,2.17,2.17,0,0,0-1.7.71,2.68,2.68,0,0,0-.64,1.85,3.13,3.13,0,0,0,.17,1,2.26,2.26,0,0,0,.48.81,2.21,2.21,0,0,0,.74.54,2.24,2.24,0,0,0,.95.19,2.05,2.05,0,0,0,1.77-.92l1.11,1a4,4,0,0,1-1.12,1A3.66,3.66,0,0,1,205.62,106.2Z" fill="#e52823"/><path d="M215.51,106V105a3.4,3.4,0,0,1-1.08.92,3,3,0,0,1-1.4.33,3.45,3.45,0,0,1-1.37-.27,3.05,3.05,0,0,1-1.09-.8,3.86,3.86,0,0,1-.71-1.28,5.3,5.3,0,0,1-.26-1.71,5.2,5.2,0,0,1,.26-1.68,3.86,3.86,0,0,1,.71-1.28,3.17,3.17,0,0,1,1.08-.81,3.31,3.31,0,0,1,1.38-.28,3,3,0,0,1,1.37.32,3.11,3.11,0,0,1,1.11.94V98.28h1.68V106Zm-2-1.3a2,2,0,0,0,.59-.08,3,3,0,0,0,.56-.22,4.07,4.07,0,0,0,.48-.33,2,2,0,0,0,.36-.41v-3a2.25,2.25,0,0,0-.36-.4,3.21,3.21,0,0,0-.48-.34,3,3,0,0,0-.56-.22,2.25,2.25,0,0,0-1.5.11,2,2,0,0,0-.69.53,2.29,2.29,0,0,0-.44.8,3.65,3.65,0,0,0,0,2.07,2.34,2.34,0,0,0,.44.81,2,2,0,0,0,.69.54A2.06,2.06,0,0,0,213.52,104.71Z" fill="#e52823"/><path d="M221.7,106.2a2,2,0,0,1-1.49-.51,2.06,2.06,0,0,1-.5-1.49V99.74h-1.28V98.28h1.28V96.17h1.68v2.11H223v1.46h-1.57v4.05a1.17,1.17,0,0,0,.19.66.63.63,0,0,0,.55.26,1,1,0,0,0,.44-.09.75.75,0,0,0,.3-.2l.4,1.29a2.18,2.18,0,0,1-.61.35A3,3,0,0,1,221.7,106.2Z" fill="#e52823"/><path d="M230.93,106.2a2,2,0,0,1-1.49-.51,2.06,2.06,0,0,1-.49-1.49V99.74h-1.28V98.28H229V96.17h1.68v2.11h1.56v1.46h-1.56v4.05a1.16,1.16,0,0,0,.18.66.64.64,0,0,0,.55.26,1,1,0,0,0,.44-.09.69.69,0,0,0,.3-.2l.4,1.29a2,2,0,0,1-.61.35A3,3,0,0,1,230.93,106.2Z" fill="#e52823"/><path d="M233.7,106V98.28h1.68V99.4a4,4,0,0,1,1.1-.94,2.8,2.8,0,0,1,1.41-.37v1.66a2.64,2.64,0,0,0-.51,0,2,2,0,0,0-.57.08,2.56,2.56,0,0,0-.58.22,2.89,2.89,0,0,0-.5.33,1.63,1.63,0,0,0-.35.41V106Z" fill="#e52823"/><path d="M242.83,106.2a4.52,4.52,0,0,1-1.62-.29,3.56,3.56,0,0,1-1.28-.82,3.79,3.79,0,0,1-.84-1.29,4.67,4.67,0,0,1,0-3.24,3.82,3.82,0,0,1,.81-1.29,3.88,3.88,0,0,1,1.24-.86,3.93,3.93,0,0,1,1.59-.32,3.78,3.78,0,0,1,1.56.31,3.5,3.5,0,0,1,1.2.87,3.88,3.88,0,0,1,.76,1.33,5,5,0,0,1,.27,1.68v.42h-6a2.53,2.53,0,0,0,.24.81,2.23,2.23,0,0,0,.49.68,2.39,2.39,0,0,0,.75.47,2.66,2.66,0,0,0,1,.17,3.44,3.44,0,0,0,1.19-.23,2.81,2.81,0,0,0,1-.64l.77,1.1a3.81,3.81,0,0,1-1.41.85A5.19,5.19,0,0,1,242.83,106.2Zm2-4.7a2.24,2.24,0,0,0-.55-1.36,2.34,2.34,0,0,0-.66-.48,2.44,2.44,0,0,0-1.91,0,1.82,1.82,0,0,0-.66.48,2.15,2.15,0,0,0-.41.66,2,2,0,0,0-.16.71Z" fill="#e52823"/><path d="M253.6,106V105a3.4,3.4,0,0,1-1.08.92,3,3,0,0,1-1.4.33,3.45,3.45,0,0,1-1.37-.27,2.93,2.93,0,0,1-1.08-.8,3.71,3.71,0,0,1-.72-1.28,5.3,5.3,0,0,1-.25-1.71,5.2,5.2,0,0,1,.25-1.68,3.71,3.71,0,0,1,.72-1.28,3.08,3.08,0,0,1,1.08-.81,3.23,3.23,0,0,1,1.37-.28,3.11,3.11,0,0,1,1.38.32,3.16,3.16,0,0,1,1.1.94V98.28h1.68V106Zm-2-1.3a2,2,0,0,0,.58-.08,2.72,2.72,0,0,0,.56-.22,2.89,2.89,0,0,0,.48-.33,2,2,0,0,0,.36-.41v-3a2.25,2.25,0,0,0-.36-.4,2.43,2.43,0,0,0-.48-.34,2.72,2.72,0,0,0-.56-.22,2,2,0,0,0-.58-.08,2,2,0,0,0-.91.19,2,2,0,0,0-.69.53,2.29,2.29,0,0,0-.44.8,3.43,3.43,0,0,0,0,2.07,2.34,2.34,0,0,0,.44.81,2,2,0,0,0,1.6.73Z" fill="#e52823"/><path d="M259.79,106.2a2,2,0,0,1-1.49-.51,2.06,2.06,0,0,1-.49-1.49V99.74h-1.28V98.28h1.28V96.17h1.68v2.11h1.57v1.46h-1.57v4.05a1.16,1.16,0,0,0,.18.66.66.66,0,0,0,.56.26,1.12,1.12,0,0,0,.44-.09.65.65,0,0,0,.29-.2l.4,1.29a2,2,0,0,1-.61.35A2.87,2.87,0,0,1,259.79,106.2Z" fill="#e52823"/><path d="M265.22,106.2a5.3,5.3,0,0,1-1.86-.31,4.06,4.06,0,0,1-1.46-.91l.77-1.19a3.47,3.47,0,0,0,.5.39,3.53,3.53,0,0,0,.64.35,4.46,4.46,0,0,0,.73.24,3.18,3.18,0,0,0,.74.09,2,2,0,0,0,1.15-.28.89.89,0,0,0,.39-.75.61.61,0,0,0-.35-.57,3.16,3.16,0,0,0-.86-.32l-1.13-.26a4.7,4.7,0,0,1-1.13-.38,2.53,2.53,0,0,1-.86-.69,1.85,1.85,0,0,1-.35-1.19,2.12,2.12,0,0,1,.2-.9,2.2,2.2,0,0,1,.59-.74,2.77,2.77,0,0,1,.95-.51,4.3,4.3,0,0,1,1.3-.18,4.63,4.63,0,0,1,1.74.3,4.47,4.47,0,0,1,1.26.77l-.71,1.18a2.89,2.89,0,0,0-1-.65,3.24,3.24,0,0,0-1.34-.27,1.76,1.76,0,0,0-1,.27.82.82,0,0,0-.38.69.57.57,0,0,0,.34.51,3.68,3.68,0,0,0,.87.29l1.13.26a5,5,0,0,1,1.12.4,2.55,2.55,0,0,1,.87.72,2,2,0,0,1,.34,1.23,2.24,2.24,0,0,1-.21,1,2,2,0,0,1-.61.76,3.09,3.09,0,0,1-1,.51A4.81,4.81,0,0,1,265.22,106.2Z" fill="#e52823"/></g></g></svg>