<svg xmlns="http://www.w3.org/2000/svg" viewBox="0 0 728 90"><defs><style>.cls-1{fill:none;}.cls-2{fill:#e32c27;}.cls-3{fill:#fff;}</style></defs><g id="Layer_2" data-name="Layer 2"><g id="REC"><rect class="cls-1" width="728" height="90"/></g><g id="CTA"><rect class="cls-1" width="728" height="90"/><path id="bg" class="cls-2" d="M703.7,42.1h-104a12.39,12.39,0,0,1-12.6-12.18V28.65a12.39,12.39,0,0,1,12.6-12.18h104a12.39,12.39,0,0,1,12.6,12.18v1.27A12.39,12.39,0,0,1,703.7,42.1"/><path class="cls-3" d="M614.71,30.93a5,5,0,0,0,1.48,1,4.68,4.68,0,0,0,1.92.4,2.24,2.24,0,0,0,1.36-.36,1,1,0,0,0,.49-.85.88.88,0,0,0-.53-.83,6.79,6.79,0,0,0-1.63-.54,15.52,15.52,0,0,1-2-.58,3.34,3.34,0,0,1-1.37-.94,2.5,2.5,0,0,1-.58-1.75,2.9,2.9,0,0,1,.49-1.64,3.42,3.42,0,0,1,1.42-1.16,5.11,5.11,0,0,1,2.14-.42A5.92,5.92,0,0,1,622,24.78l-1.27,1.67a4.13,4.13,0,0,0-1.43-.88,4.86,4.86,0,0,0-1.62-.29,1.93,1.93,0,0,0-1.16.3.91.91,0,0,0-.41.79.77.77,0,0,0,.49.74,9.81,9.81,0,0,0,1.64.5,15.45,15.45,0,0,1,2,.59,3.54,3.54,0,0,1,1.39,1,2.54,2.54,0,0,1,.59,1.75,3.11,3.11,0,0,1-1.1,2.48,4.68,4.68,0,0,1-3.18,1,6.08,6.08,0,0,1-4.52-1.7Z"/><path class="cls-3" d="M629,29.44a1.4,1.4,0,0,0-.37-1.09,1.61,1.61,0,0,0-1.07-.32,2,2,0,0,0-1,.27,2.36,2.36,0,0,0-.75.64v5.2h-2V23.47h2v4a3.45,3.45,0,0,1,1.12-.85,3.65,3.65,0,0,1,1.6-.35,2.58,2.58,0,0,1,1.88.64,2.46,2.46,0,0,1,.63,1.79v5.49h-2Z"/><path class="cls-3" d="M634.46,33.81A3.76,3.76,0,0,1,633,32.33a4.51,4.51,0,0,1,0-4.09,3.68,3.68,0,0,1,1.43-1.47,4.54,4.54,0,0,1,4.33,0,3.68,3.68,0,0,1,1.43,1.47,4.51,4.51,0,0,1,0,4.09,3.76,3.76,0,0,1-1.43,1.48,4.61,4.61,0,0,1-4.33,0Zm3.61-1.92a2.7,2.7,0,0,0,0-3.21,1.79,1.79,0,0,0-1.45-.65,1.76,1.76,0,0,0-1.44.65,2.7,2.7,0,0,0,0,3.21,1.73,1.73,0,0,0,1.44.65A1.76,1.76,0,0,0,638.07,31.89Z"/><path class="cls-3" d="M642.22,37.09V26.42h2v1a3.12,3.12,0,0,1,1.06-.86,2.91,2.91,0,0,1,1.32-.31,3.18,3.18,0,0,1,3,1.88,5,5,0,0,1,.44,2.18,5.12,5.12,0,0,1-.44,2.19,3.18,3.18,0,0,1-3,1.88,3.09,3.09,0,0,1-1.31-.29,3.21,3.21,0,0,1-1.07-.89v3.92Zm5.19-8.43A1.77,1.77,0,0,0,646,28a2.15,2.15,0,0,0-1,.26,2,2,0,0,0-.75.62v2.75a2,2,0,0,0,.76.63,2.16,2.16,0,0,0,1,.25,1.8,1.8,0,0,0,1.42-.62,2.44,2.44,0,0,0,.54-1.64A2.38,2.38,0,0,0,647.41,28.66Z"/><path class="cls-3" d="M658,27v7.16h-2.27V23.47h2.34L663,30.38V23.47h2.27V34.14h-2.19Z"/><path class="cls-3" d="M668.76,33.81a3.74,3.74,0,0,1-1.42-1.48,4.43,4.43,0,0,1,0-4.09,3.65,3.65,0,0,1,1.42-1.47,4.13,4.13,0,0,1,2.16-.55,4.18,4.18,0,0,1,2.18.55,3.65,3.65,0,0,1,1.42,1.47,4.43,4.43,0,0,1,0,4.09,3.74,3.74,0,0,1-1.42,1.48,4.27,4.27,0,0,1-2.18.54A4.22,4.22,0,0,1,668.76,33.81Zm3.61-1.92a2.66,2.66,0,0,0,0-3.21,1.79,1.79,0,0,0-1.45-.65,1.76,1.76,0,0,0-1.44.65,2.7,2.7,0,0,0,0,3.21,1.73,1.73,0,0,0,1.44.65A1.76,1.76,0,0,0,672.37,31.89Z"/><path class="cls-3" d="M681.67,28.88,680,34.14h-2.17l-2.36-7.72h2.12l1.44,5.19,1.69-5.19h1.81l1.7,5.19,1.44-5.19h2.11l-2.35,7.72h-2.16Z"/></g></g></svg>