<svg xmlns="http://www.w3.org/2000/svg" xmlns:xlink="http://www.w3.org/1999/xlink" viewBox="0 0 729 91"><defs><clipPath id="clip-path"><rect x="638.24" y="17.34" width="25.27" height="99.76" transform="translate(579.46 717.65) rotate(-89.63)" fill="none"/></clipPath></defs><title>end</title><g id="Layer_2" data-name="Layer 2"><g id="REC"><rect x="0.5" y="0.5" width="728" height="90" fill="none"/></g><g id="CONTENT"><rect x="0.5" y="0.5" width="728" height="90" stroke="#231f20" stroke-miterlimit="10" stroke-width="1"/><g id="white_logo" data-name="white logo"><g clip-path="url(#clip-path)"><g clip-path="url(#clip-path)"><path d="M612.34,58.34c15-4.5,22.56,7.06,22.56,7.06s-4.66-16.09-22.56-7.06" fill="#fff"/><path d="M641.38,59.12c0-.07,0-.48,0-.55a11.23,11.23,0,0,0-6,8.58s2.07-4.74,6.89-6.14a2.9,2.9,0,0,1-.91-1.89" fill="#fff"/><path d="M622.17,65.7s0,2.27,0,3.42c-.58,0-3.07-.18-4.17-.23,0,.61,0,1.25,0,1.86,1.31,0,2.68.2,4,.19,0,1.1,0,2,0,3.15-1.31,0-2.62-.12-3.94-.15v2c1.41,0,2.83.17,4.24.16,0,0,0,3.35,0,3.35-2.8,0-6.11-.26-9.24-.54l.31-14c1.32.17,5.41.63,9,.76" fill="#fff"/><path d="M623.36,65.74l-.08,3.65c1.32.07,2.5.08,2.5.08l-.07,10.12a31.46,31.46,0,0,0,5,0v-10s2.24-.09,2.58-.11c0-1.34,0-2.39,0-3.73a89.23,89.23,0,0,1-9.95,0" fill="#fff"/><path d="M690.78,64c0,1.45,0,2.79,0,4.24.85,0,1.82.23,2.67.3,0,3.53-.13,6.2-.15,9.73,2.37.3,4.05.59,4.7.71,0-3.53.18-6.31.21-9.84,0,0,2.51.41,2.56.45l0-4.35a77.44,77.44,0,0,0-10-1.24" fill="#fff"/><path d="M605.89,70.21l-.44,0c0-1,0-1.91,0-2.87l.42,0a1.46,1.46,0,0,1,1.45,1.55c0,1.18-.75,1.41-1.47,1.32M607,63.47l-6-1.13L600.93,77c1.53.31,2.93.57,4.43.74V73.51c.53.06,1.09.14,1.62.19,2.59.26,5.21-.7,5.27-4.94.06-3.76-2.44-4.86-5.21-5.29" fill="#fff"/><path d="M656.85,77.4c.68-1.74,1.36-3.37,2-5.11.1,1.67.15,3.18.25,4.85,1.67-.17,3-.26,4.69-.35-.4-4.45-.75-9.23-1.15-13.68-1.44.11-2.87.24-4.31.36-.82,2.1-1.64,4.65-2.46,6.74-.77-1.95-1.53-4.23-2.3-6.18-1.45.2-4,.63-4.31.64l-1.65,14.1c1.14-.19,3.94-.62,4.79-.73.14-1.69.28-3.5.42-5.19q.95,2.43,1.91,4.86l2.08-.31" fill="#fff"/><path d="M683.44,69.9l-.44,0c0-1,0-1.89,0-2.84l.43,0a1.4,1.4,0,0,1,1.44,1.5,1.21,1.21,0,0,1-1.48,1.33m4.13,3c1.28-.57,2.21-1.8,2.26-4.25.08-3.71-2.53-5.31-5.18-5.53-2-.17-4-.29-6-.36-.1,4.71-.15,9-.24,13.72,1.49.06,3.14.18,4.45.3,0-1.33,0-2.31.08-3.63.85,1.38,1.54,2.53,2.39,3.94,1.84.18,3.73.43,5.57.71-1.14-1.73-2.17-3.21-3.32-4.9" fill="#fff"/><path d="M670.07,71.91c.31-1.16.64-2.39,1-3.56l1.05,3.53a18.16,18.16,0,0,1-2,0m3.33-9.24c-1.78,0-3.24,0-4.76.07-1.26,4.55-2.74,9.42-4,14,1.36,0,2.75-.1,4.11-.09.13-.48.27-1,.4-1.52l2.08,0s1.84,0,1.84,0c0,.18.21.66.45,1.46,1.36,0,2.73,0,4.09.06-1.44-4.84-2.9-9.5-4.22-13.89" fill="#fff"/><path d="M634.83,78.35a12.13,12.13,0,0,0,5.52,1.44c3.13,0,6.42-1.83,6.51-5.34.06-2.5-1.51-3.69-3.73-4.2L642,70c-.4-.1-1.05-.18-1-.73s.7-.77,1.16-.77a8.15,8.15,0,0,1,3.19.7l1.35-3.52a10.53,10.53,0,0,0-4.55-1.12c-3.15,0-6.33,1.87-6.42,5.36-.06,2.3,1.63,3.57,3.68,4l1,.2c.47.11,1.16.17,1.15.83s-.84.73-1.36.73a6.19,6.19,0,0,1-3.58-1.21c-.55,1.22-1.2,2.73-1.75,3.95" fill="#fff"/><path d="M646.3,54.56a3.53,3.53,0,1,0,3.46,3.59,3.53,3.53,0,0,0-3.46-3.59m1.27,1.31a4.22,4.22,0,0,0-3.8,2.18.13.13,0,0,1,0,.06,2.54,2.54,0,0,1,.1-1,2.38,2.38,0,0,1,2.93-1.69,2.15,2.15,0,0,1,.83.45l0,0" fill="#fff"/></g></g></g><path d="M413.08,90.81c9.81-34.76,39.92-56.95,76.15-56.95,35.68,0,66,23.85,76.08,56.7" fill="#e52823"/><path d="M11.36,13.94l9.83.07a6,6,0,0,1,2.92.67,4.52,4.52,0,0,1,1.82,1.75,4.59,4.59,0,0,1,.6,2.37,4.37,4.37,0,0,1-.94,2.85,3.88,3.88,0,0,1-2.3,1.41,4,4,0,0,1,2.54,1.56,4.8,4.8,0,0,1,1,3.06,4.88,4.88,0,0,1-1.45,3.6,5.41,5.41,0,0,1-4,1.4l-10.14-.06Zm8.91,7.56a2.14,2.14,0,0,0,1.6-.56,2.13,2.13,0,0,0,0-3,2.14,2.14,0,0,0-1.58-.6l-5,0,0,4.11Zm.09,7.79a2.49,2.49,0,0,0,1.77-.59,2.14,2.14,0,0,0,.66-1.61,2.12,2.12,0,0,0-.64-1.56,2.45,2.45,0,0,0-1.76-.64l-5.12,0,0,4.4Z" fill="#fff"/><path d="M30.69,32.17a3.67,3.67,0,0,1-1-2.77l.1-15.34,3.56,0-.1,14.39a1.69,1.69,0,0,0,.33,1.07,1.1,1.1,0,0,0,.9.43,2.48,2.48,0,0,0,.73-.11.92.92,0,0,0,.47-.28l.74,2.7a4.39,4.39,0,0,1-2.94.85A3.94,3.94,0,0,1,30.69,32.17Z" fill="#fff"/><path d="M47.37,31.11a5.53,5.53,0,0,1-1.87,1.55,5.09,5.09,0,0,1-2.31.53,5.87,5.87,0,0,1-3.08-.86A5.63,5.63,0,0,1,38,29.87a8.66,8.66,0,0,1-.75-3.82A8.72,8.72,0,0,1,38,22.28a5.92,5.92,0,0,1,2.15-2.47,5.71,5.71,0,0,1,3.1-.85,5.25,5.25,0,0,1,2.29.55,5.35,5.35,0,0,1,1.87,1.55V19.33l3.58,0-.09,13.52-3.58,0Zm.05-7.38a3.39,3.39,0,0,0-1.31-1.12,4,4,0,0,0-1.76-.45,3.14,3.14,0,0,0-2.47,1.07,4.18,4.18,0,0,0-1,2.84,4.17,4.17,0,0,0,.93,2.85A3.11,3.11,0,0,0,44.3,30a3.93,3.93,0,0,0,1.77-.42,3.39,3.39,0,0,0,1.32-1.1Z" fill="#fff"/><path d="M54.6,22.47A6.55,6.55,0,0,1,57.16,20a7.42,7.42,0,0,1,3.7-.89,7,7,0,0,1,3.24.71,5.62,5.62,0,0,1,2.09,1.76l-2.33,2.17A3.23,3.23,0,0,0,61,22.24a3.48,3.48,0,0,0-2.65,1.07,3.91,3.91,0,0,0-1,2.84,4,4,0,0,0,1,2.88,3.71,3.71,0,0,0,4.26.74,3.43,3.43,0,0,0,1.24-1.07l2.31,2.17A5.76,5.76,0,0,1,64,32.62a6.94,6.94,0,0,1-3.27.68,7.49,7.49,0,0,1-3.69-.93,6.71,6.71,0,0,1-2.53-2.54,7.3,7.3,0,0,1-.9-3.7A7.2,7.2,0,0,1,54.6,22.47Z" fill="#fff"/><path d="M73.66,27.81,72,29.54,72,33l-3.56,0,.12-18.68,3.56,0-.07,11.18,5.16-6,4.37,0-5.39,6.1,5.47,7.42-4.45,0Z" fill="#fff"/><path d="M90.79,14.46l13.22.08L104,18l-9.24-.06,0,4.06,9,.05,0,3.42-9-.06,0,7.79-4,0Z" fill="#fff"/><path d="M106.67,19.71l3.55,0v1.85A6,6,0,0,1,112.12,20a5.06,5.06,0,0,1,2.41-.62l0,3.48a4.17,4.17,0,0,0-1-.12,4.64,4.64,0,0,0-1.9.43,3.19,3.19,0,0,0-1.44,1.09l-.06,9-3.55,0Z" fill="#fff"/><path d="M117,17.16a2.1,2.1,0,0,1,0-3,2.12,2.12,0,0,1,3,0,2.05,2.05,0,0,1,.6,1.51,2.08,2.08,0,0,1-.62,1.5,2.11,2.11,0,0,1-3,0Zm-.29,2.61,3.56,0-.09,13.52-3.55,0Z" fill="#fff"/><path d="M133.05,31.67a5.5,5.5,0,0,1-1.87,1.54,5,5,0,0,1-2.32.53,5.59,5.59,0,0,1-5.2-3.32,8.77,8.77,0,0,1-.74-3.82,8.64,8.64,0,0,1,.79-3.76,5.84,5.84,0,0,1,2.14-2.47,5.56,5.56,0,0,1,3.1-.85,5.11,5.11,0,0,1,2.3.54,5.33,5.33,0,0,1,1.86,1.56l0-6.89,3.58,0-.12,18.68-3.58,0Zm0-7.42a3.36,3.36,0,0,0-1.31-1.11,3.81,3.81,0,0,0-1.76-.45,3.11,3.11,0,0,0-2.48,1.08,4.26,4.26,0,0,0-1,2.86,4.2,4.2,0,0,0,.94,2.84A3.07,3.07,0,0,0,130,30.58a3.77,3.77,0,0,0,1.77-.42,3.31,3.31,0,0,0,1.32-1.1Z" fill="#fff"/><path d="M149.46,31.77a5.56,5.56,0,0,1-1.88,1.55,5.22,5.22,0,0,1-2.31.53A5.84,5.84,0,0,1,142.2,33a5.65,5.65,0,0,1-2.13-2.46,8.66,8.66,0,0,1-.75-3.82,8.69,8.69,0,0,1,.8-3.77,5.89,5.89,0,0,1,2.14-2.47,5.71,5.71,0,0,1,3.1-.85,5.22,5.22,0,0,1,2.29.55,5.35,5.35,0,0,1,1.87,1.55V20l3.59,0L153,33.53l-3.59,0Zm0-7.38a3.24,3.24,0,0,0-1.31-1.12,4,4,0,0,0-1.76-.45A3.16,3.16,0,0,0,144,23.89a4.16,4.16,0,0,0-1,2.84,4.17,4.17,0,0,0,.94,2.85,3.13,3.13,0,0,0,2.45,1.11,4,4,0,0,0,1.77-.42,3.33,3.33,0,0,0,1.32-1.11Z" fill="#fff"/><path d="M158,34.46a4.28,4.28,0,0,0,1.78,1.27,6.28,6.28,0,0,0,2.27.44,3.81,3.81,0,0,0,2.69-.88,3.38,3.38,0,0,0,1-2.57v-1.4a6.64,6.64,0,0,1-2,1.44,6.2,6.2,0,0,1-2.76.57,4.38,4.38,0,0,1-3.27-1.14,4.27,4.27,0,0,1-1.07-3.14l0-9,3.56,0,0,7.62a2.45,2.45,0,0,0,.63,1.92,2.7,2.7,0,0,0,1.85.59,3.56,3.56,0,0,0,1.76-.44,4.1,4.1,0,0,0,1.33-1.08l.05-8.57,3.56,0-.08,12.46a6.16,6.16,0,0,1-2,4.82A7.65,7.65,0,0,1,162,39.08a8.3,8.3,0,0,1-5.64-2Z" fill="#fff"/><path d="M189.24,32a5.41,5.41,0,0,1-1.87,1.54,5,5,0,0,1-2.31.53,5.69,5.69,0,0,1-3.08-.86,5.61,5.61,0,0,1-2.12-2.45,8.68,8.68,0,0,1-.75-3.82,8.69,8.69,0,0,1,.8-3.77,5.83,5.83,0,0,1,2.14-2.47,5.62,5.62,0,0,1,3.1-.85,5.08,5.08,0,0,1,2.29.55A5.24,5.24,0,0,1,189.31,22l0-6.89,3.59,0-.12,18.68-3.59,0Zm0-7.41A3.17,3.17,0,0,0,188,23.5a3.75,3.75,0,0,0-1.76-.45,3.09,3.09,0,0,0-2.47,1.08,4.23,4.23,0,0,0-1,2.86,4.14,4.14,0,0,0,.93,2.84A3.12,3.12,0,0,0,186.17,31a3.91,3.91,0,0,0,1.77-.43,3.23,3.23,0,0,0,1.32-1.1Z" fill="#fff"/><path d="M196.44,23.47A6.75,6.75,0,0,1,199,20.92a6.88,6.88,0,0,1,3.62-.93,6.7,6.7,0,0,1,3.52,1,6.42,6.42,0,0,1,2.37,2.65,8.38,8.38,0,0,1,.83,3.88v.79l-10-.07a3.43,3.43,0,0,0,1.19,2.27,3.92,3.92,0,0,0,2.68.92,5.5,5.5,0,0,0,2-.35,4.59,4.59,0,0,0,1.65-1l1.55,2.31a6.78,6.78,0,0,1-2.47,1.37,10.06,10.06,0,0,1-3.11.47,7.64,7.64,0,0,1-3.69-.91,6.49,6.49,0,0,1-2.58-2.51,7.3,7.3,0,0,1-.91-3.76A7.21,7.21,0,0,1,196.44,23.47Zm3.75.24a3.65,3.65,0,0,0-1,2.08l6.66.05a3.4,3.4,0,0,0-.9-2.08,3.07,3.07,0,0,0-2.41-.94A3,3,0,0,0,200.19,23.71Z" fill="#fff"/><path d="M221.13,32.24a5.52,5.52,0,0,1-1.87,1.54,5.09,5.09,0,0,1-2.31.53,5.9,5.9,0,0,1-3.08-.86A5.63,5.63,0,0,1,211.75,31a8.66,8.66,0,0,1-.75-3.82,8.72,8.72,0,0,1,.8-3.77,5.89,5.89,0,0,1,2.14-2.47,5.71,5.71,0,0,1,3.1-.85,5.22,5.22,0,0,1,2.29.55,5.35,5.35,0,0,1,1.87,1.55V20.45l3.58,0L224.71,34l-3.59,0Zm.05-7.39a3.32,3.32,0,0,0-1.31-1.12,4,4,0,0,0-1.76-.45,3.14,3.14,0,0,0-2.47,1.07,4.18,4.18,0,0,0-1,2.85A4.14,4.14,0,0,0,215.6,30a3.08,3.08,0,0,0,2.46,1.11,3.77,3.77,0,0,0,1.77-.42,3.39,3.39,0,0,0,1.32-1.1Z" fill="#fff"/><path d="M229.2,33.45a3.67,3.67,0,0,1-.94-2.77l.1-15.34,3.55,0-.09,14.38a1.69,1.69,0,0,0,.33,1.07,1.09,1.09,0,0,0,.89.43,2.43,2.43,0,0,0,.73-.11,1,1,0,0,0,.48-.28l.74,2.7a4.4,4.4,0,0,1-3,.85A3.94,3.94,0,0,1,229.2,33.45Z" fill="#fff"/><path d="M237,29.85a7.19,7.19,0,0,0,2.12,1.3,6.48,6.48,0,0,0,2.54.57,3.15,3.15,0,0,0,1.7-.35,1.15,1.15,0,0,0,.58-1,1.08,1.08,0,0,0-.66-1,8.57,8.57,0,0,0-2-.63,22.4,22.4,0,0,1-2.69-.69,4.46,4.46,0,0,1-1.84-1.23,3.38,3.38,0,0,1-.77-2.35,3.8,3.8,0,0,1,.67-2.12,4.48,4.48,0,0,1,1.93-1.54,7.19,7.19,0,0,1,3-.56,8.51,8.51,0,0,1,5.45,1.89l-1.44,2.42a5,5,0,0,0-1.72-1.13,5.8,5.8,0,0,0-2.28-.46,3,3,0,0,0-1.55.33,1,1,0,0,0-.58.92.94.94,0,0,0,.62.88,9.54,9.54,0,0,0,1.94.59,17.47,17.47,0,0,1,2.72.72,4.76,4.76,0,0,1,1.89,1.3,3.55,3.55,0,0,1,.8,2.45,3.9,3.9,0,0,1-.7,2.23,4.51,4.51,0,0,1-2,1.55,8.37,8.37,0,0,1-3.15.54,10.25,10.25,0,0,1-3.37-.59,7.58,7.58,0,0,1-2.67-1.55Z" fill="#fff"/><path d="M13.31,64.19A12.31,12.31,0,0,0,17.17,67a11.89,11.89,0,0,0,5,1.08,6,6,0,0,0,3.59-.91,2.72,2.72,0,0,0,1.3-2.23,2.36,2.36,0,0,0-1.37-2.19,19.16,19.16,0,0,0-4.28-1.44,46.69,46.69,0,0,1-5.32-1.55,8.87,8.87,0,0,1-3.58-2.49A6.66,6.66,0,0,1,11,52.6a7.47,7.47,0,0,1,1.33-4.28,8.67,8.67,0,0,1,3.74-3,13.31,13.31,0,0,1,5.61-1.08,15.45,15.45,0,0,1,10.89,4l-3.34,4.34a11.32,11.32,0,0,0-3.75-2.31,12,12,0,0,0-4.25-.8,5,5,0,0,0-3.05.76,2.46,2.46,0,0,0-1.09,2.08,2,2,0,0,0,1.29,1.94,25.69,25.69,0,0,0,4.28,1.36A37.64,37.64,0,0,1,28,57.13a9.29,9.29,0,0,1,3.64,2.57,6.69,6.69,0,0,1,1.5,4.6,8.2,8.2,0,0,1-2.92,6.5q-2.89,2.48-8.35,2.43-7.44,0-11.86-4.53Z" fill="#fff"/><path d="M43.43,50.06,35.24,50l0-5.25,22.35.14,0,5.25-8.15,0-.14,22.76-6,0Z" fill="#fff"/><path d="M76.45,68.21l-12.52-.08L62.14,73l-6.55,0L66.6,45l7.48,0L84.69,73.09l-6.51,0ZM65.56,63l9.28.06L70.31,50.15Z" fill="#fff"/><path d="M97.69,63.14l-4.37,0-.06,10-6,0,.18-28,13.1.08a10.34,10.34,0,0,1,5,1.19,8,8,0,0,1,3.26,3.23,9.62,9.62,0,0,1,1.1,4.67,8.49,8.49,0,0,1-1.82,5.58,7.84,7.84,0,0,1-4.37,2.7L110,73.26l-6.84-.05Zm5-11.75a4.34,4.34,0,0,0-3-1.09l-6.25,0,0,7.73,6.25,0a4.36,4.36,0,0,0,3-1.06,3.53,3.53,0,0,0,1.22-2.78A3.57,3.57,0,0,0,102.66,51.39Z" fill="#fff"/><path d="M120.5,50.56l-8.19-.05,0-5.25,22.34.14,0,5.25-8.15,0-.15,22.76-6,0Z" fill="#fff"/><path d="M155.16,54.73,155,73.55l-6,0,.18-28,6.13,0,12.86,18.23.12-18.14,6,0-.18,28-5.76,0Z" fill="#fff"/><path d="M180.38,52.28a13.47,13.47,0,0,1,5.26-5.14,16,16,0,0,1,15,.1,13.53,13.53,0,0,1,5.2,5.2,15.69,15.69,0,0,1-.1,14.93,13.4,13.4,0,0,1-5.26,5.14,16,16,0,0,1-15-.09,13.56,13.56,0,0,1-5.2-5.21,15.69,15.69,0,0,1,.1-14.93Zm20.18,2.88a7.86,7.86,0,0,0-3-3.32,8.91,8.91,0,0,0-8.93-.06,8,8,0,0,0-3,3.28,11.11,11.11,0,0,0-.06,9.43,8,8,0,0,0,3,3.33,8.87,8.87,0,0,0,8.93.05,8,8,0,0,0,3-3.28,11.11,11.11,0,0,0,.06-9.43Z" fill="#fff"/><path d="M227.61,54.78l-5,19.2-6.35,0-7.84-28.06,6.68,0,4.78,20.27L225.36,46,230,46l5.16,20.27,5-20.21,6.72,0-8.16,28-6.34,0Z" fill="#fff"/></g></g></svg>