<svg xmlns="http://www.w3.org/2000/svg" viewBox="0 0 728 90"><title>subhead</title><g id="Layer_2" data-name="Layer 2"><g id="REC"><rect width="728" height="90" fill="none"/></g><g id="CONTENT"><path d="M277.48,29.87a6.13,6.13,0,0,1-2.75-.57A5,5,0,0,1,273,27.92l1.15-1.38a4,4,0,0,0,1.46,1.07,4.47,4.47,0,0,0,1.85.38,2.92,2.92,0,0,0,1.84-.5,1.6,1.6,0,0,0,.66-1.33,1.42,1.42,0,0,0-.68-1.31,4,4,0,0,0-2-.4h-.8c-.29,0-.47,0-.57,0V22.56h1.37a5.06,5.06,0,0,0,1-.09,2.48,2.48,0,0,0,.78-.29,1.45,1.45,0,0,0,.52-.49,1.26,1.26,0,0,0,.19-.71,1.31,1.31,0,0,0-.19-.72,1.44,1.44,0,0,0-.52-.52,2.83,2.83,0,0,0-.77-.32,4.35,4.35,0,0,0-4.06,1.23l-1.08-1.32A5.35,5.35,0,0,1,274.9,18a5.77,5.77,0,0,1,2.6-.54,6.41,6.41,0,0,1,1.76.23,4.18,4.18,0,0,1,1.36.64,2.9,2.9,0,0,1,.88,1,2.86,2.86,0,0,1,.32,1.35,2.39,2.39,0,0,1-.24,1.09,2.6,2.6,0,0,1-.6.82,3.16,3.16,0,0,1-.83.55,3.48,3.48,0,0,1-.92.29,4,4,0,0,1,.92.25,3.29,3.29,0,0,1,.9.56,2.87,2.87,0,0,1,.7.88,2.65,2.65,0,0,1,.27,1.23,3.18,3.18,0,0,1-.32,1.42,3.3,3.3,0,0,1-.91,1.11,4.27,4.27,0,0,1-1.43.72A6.1,6.1,0,0,1,277.48,29.87Z" fill="#e52823"/><path d="M288.41,29.87a4.24,4.24,0,0,1-2.19-.55,4.6,4.6,0,0,1-1.48-1.43,6.49,6.49,0,0,1-.86-2,9,9,0,0,1-.28-2.24,8.87,8.87,0,0,1,.28-2.24,6.38,6.38,0,0,1,.86-2A4.4,4.4,0,0,1,286.22,18a4.23,4.23,0,0,1,2.19-.54,4.18,4.18,0,0,1,2.17.54,4.5,4.5,0,0,1,1.48,1.43,6.38,6.38,0,0,1,.86,2,9.35,9.35,0,0,1,.28,2.24,9.48,9.48,0,0,1-.28,2.24,6.49,6.49,0,0,1-.86,2,4.7,4.7,0,0,1-1.48,1.43A4.19,4.19,0,0,1,288.41,29.87Zm0-1.88a2.08,2.08,0,0,0,1.23-.36,2.62,2.62,0,0,0,.82-.95,5.2,5.2,0,0,0,.45-1.38,10.09,10.09,0,0,0,0-3.29,4.66,4.66,0,0,0-.45-1.38,2.69,2.69,0,0,0-.82-.94,2.37,2.37,0,0,0-2.48,0,2.59,2.59,0,0,0-.82.94,4.67,4.67,0,0,0-.46,1.38,9.1,9.1,0,0,0,0,3.29,4.57,4.57,0,0,0,.46,1.38,2.62,2.62,0,0,0,.82.95A2.07,2.07,0,0,0,288.41,28Z" fill="#e52823"/><path d="M297.44,23.42a3.14,3.14,0,0,1-1.21-.22,2.82,2.82,0,0,1-1-.63,2.87,2.87,0,0,1-.61-.95,3.2,3.2,0,0,1-.21-1.17,3.29,3.29,0,0,1,.21-1.18,2.87,2.87,0,0,1,.61-.95,2.82,2.82,0,0,1,1-.63,3.14,3.14,0,0,1,1.21-.23,3.28,3.28,0,0,1,1.23.23,2.68,2.68,0,0,1,.94.63,3,3,0,0,1,.61.95,3.29,3.29,0,0,1,.21,1.18,3.2,3.2,0,0,1-.21,1.17,3,3,0,0,1-.61.95,2.68,2.68,0,0,1-.94.63A3.28,3.28,0,0,1,297.44,23.42Zm0-1.2a1.55,1.55,0,0,0,1.16-.49,1.84,1.84,0,0,0,.45-1.29,1.88,1.88,0,0,0-.45-1.31,1.52,1.52,0,0,0-1.16-.5,1.47,1.47,0,0,0-1.13.5,1.88,1.88,0,0,0-.45,1.31,1.84,1.84,0,0,0,.45,1.29A1.5,1.5,0,0,0,297.44,22.22Zm-1.17,7.43,7.67-12h1.23l-7.69,12Zm7.64.22a3.19,3.19,0,0,1-1.22-.23,2.68,2.68,0,0,1-.94-.63,2.75,2.75,0,0,1-.62-.94,3.19,3.19,0,0,1-.21-1.16,3.29,3.29,0,0,1,.21-1.18,2.79,2.79,0,0,1,.62-.95,2.68,2.68,0,0,1,.94-.63,3.47,3.47,0,0,1,2.43,0,2.68,2.68,0,0,1,.94.63,2.79,2.79,0,0,1,.62.95,3.29,3.29,0,0,1,.21,1.18,3.19,3.19,0,0,1-.21,1.16,2.75,2.75,0,0,1-.62.94,2.68,2.68,0,0,1-.94.63A3.18,3.18,0,0,1,303.91,29.87Zm0-1.21a1.49,1.49,0,0,0,1.15-.49,1.79,1.79,0,0,0,.45-1.27,1.88,1.88,0,0,0-.45-1.31,1.61,1.61,0,0,0-2.31,0,1.88,1.88,0,0,0-.45,1.31,1.79,1.79,0,0,0,.45,1.27A1.5,1.5,0,0,0,303.91,28.66Z" fill="#e52823"/><path d="M317.21,29.87a4.71,4.71,0,0,1-1.88-.37,4.32,4.32,0,0,1-1.4-1,4.37,4.37,0,0,1-.88-1.45,5.18,5.18,0,0,1,0-3.53,4.37,4.37,0,0,1,.88-1.45,4.15,4.15,0,0,1,1.4-1,4.7,4.7,0,0,1,1.88-.36,4.65,4.65,0,0,1,1.87.36,4.15,4.15,0,0,1,1.4,1,4.4,4.4,0,0,1,.89,1.45,5.34,5.34,0,0,1,0,3.53,4.4,4.4,0,0,1-.89,1.45,4.32,4.32,0,0,1-1.4,1A4.66,4.66,0,0,1,317.21,29.87Zm0-1.68a2.52,2.52,0,0,0,1.08-.23,2.41,2.41,0,0,0,.78-.63,2.83,2.83,0,0,0,.48-.93,4,4,0,0,0,.16-1.11,3.88,3.88,0,0,0-.16-1.09,2.78,2.78,0,0,0-.48-.92,2.17,2.17,0,0,0-.78-.63,2.38,2.38,0,0,0-1.08-.24,2.27,2.27,0,0,0-1.06.24,2.24,2.24,0,0,0-.8.63,2.78,2.78,0,0,0-.48.92,3.55,3.55,0,0,0-.16,1.09,3.68,3.68,0,0,0,.16,1.11,2.83,2.83,0,0,0,.48.93,2.49,2.49,0,0,0,.8.63A2.39,2.39,0,0,0,317.21,28.19Z" fill="#e52823"/><path d="M324.06,29.65V22.59h-1.44V21h1.44v-.49a3,3,0,0,1,.78-2.23,2.64,2.64,0,0,1,2-.78,3.13,3.13,0,0,1,1.53.33l-.41,1.42a1.41,1.41,0,0,0-.76-.2,1.12,1.12,0,0,0-.89.36,1.64,1.64,0,0,0-.31,1.1V21h1.76v1.63H326v7.06Z" fill="#e52823"/><path d="M329.63,29.65V22.59h-1.44V21h1.44v-.49a3,3,0,0,1,.77-2.23,2.65,2.65,0,0,1,2-.78,3.1,3.1,0,0,1,1.53.33l-.41,1.42a1.41,1.41,0,0,0-.76-.2,1.12,1.12,0,0,0-.89.36,1.64,1.64,0,0,0-.31,1.1V21h1.76v1.63h-1.76v7.06Z" fill="#e52823"/><path d="M345.49,29.65V28.46a3.88,3.88,0,0,1-1.22,1,3.31,3.31,0,0,1-1.57.38,3.88,3.88,0,0,1-1.54-.31,3.22,3.22,0,0,1-1.23-.9,4.37,4.37,0,0,1-.8-1.44,6,6,0,0,1-.29-1.93,6,6,0,0,1,.29-1.89,4.37,4.37,0,0,1,.8-1.44,3.49,3.49,0,0,1,1.22-.9,3.74,3.74,0,0,1,1.55-.32,3.39,3.39,0,0,1,1.54.36,3.5,3.5,0,0,1,1.25,1.06V21h1.89v8.69Zm-2.24-1.46a2.5,2.5,0,0,0,.66-.09,2.85,2.85,0,0,0,.63-.25,3,3,0,0,0,.54-.37,2.22,2.22,0,0,0,.41-.46V23.58a3.34,3.34,0,0,0-.41-.45,2.58,2.58,0,0,0-.54-.37,2.89,2.89,0,0,0-.63-.26,2.5,2.5,0,0,0-.66-.09,2.34,2.34,0,0,0-1.8.81,2.75,2.75,0,0,0-.49.91,3.62,3.62,0,0,0-.17,1.16,3.68,3.68,0,0,0,.17,1.17,2.65,2.65,0,0,0,.49.91,2.43,2.43,0,0,0,.78.61A2.38,2.38,0,0,0,343.25,28.19Z" fill="#e52823"/><path d="M352.06,29.87a2,2,0,0,1-2.24-2.25v-10h1.89v9.51a1.28,1.28,0,0,0,.21.75.73.73,0,0,0,.62.29,1.18,1.18,0,0,0,.5-.1,1,1,0,0,0,.35-.22l.45,1.44a2,2,0,0,1-.69.39A3,3,0,0,1,352.06,29.87Z" fill="#e52823"/><path d="M357.2,29.87A2,2,0,0,1,355,27.62v-10h1.89v9.51a1.28,1.28,0,0,0,.21.75.72.72,0,0,0,.62.29,1.18,1.18,0,0,0,.5-.1,1,1,0,0,0,.35-.22l.44,1.44a1.9,1.9,0,0,1-.68.39A3.1,3.1,0,0,1,357.2,29.87Z" fill="#e52823"/><path d="M279.39,49.48A6.23,6.23,0,0,1,277,49a5.81,5.81,0,0,1-3.27-3.23,6.93,6.93,0,0,1,0-5.12,5.87,5.87,0,0,1,1.35-1.95,6,6,0,0,1,2-1.25,6.64,6.64,0,0,1,2.46-.44,6.24,6.24,0,0,1,1.61.19,5.61,5.61,0,0,1,1.32.54,4.65,4.65,0,0,1,1.06.79,6.21,6.21,0,0,1,.83,1l-1.71,1a3.77,3.77,0,0,0-1.29-1.14,3.59,3.59,0,0,0-1.82-.46,4.31,4.31,0,0,0-1.66.32,3.86,3.86,0,0,0-1.3.91,4.11,4.11,0,0,0-.87,1.37,5,5,0,0,0,0,3.48,4.26,4.26,0,0,0,.87,1.38,3.86,3.86,0,0,0,1.3.91,4.31,4.31,0,0,0,1.66.32,3.88,3.88,0,0,0,1.36-.23,3,3,0,0,0,1-.65,3.2,3.2,0,0,0,.71-.95,4.2,4.2,0,0,0,.41-1.14h-4.27V42.77h6.56a8.86,8.86,0,0,1-.41,2.77,5.92,5.92,0,0,1-1.17,2.11A5.11,5.11,0,0,1,281.92,49,6.31,6.31,0,0,1,279.39,49.48Z" fill="#e52823"/><path d="M286.64,49.25V40.56h1.89v1.26a4.56,4.56,0,0,1,1.24-1.06,3.18,3.18,0,0,1,1.59-.42v1.87a3.3,3.3,0,0,0-.58-.05,2.53,2.53,0,0,0-.64.09,3.14,3.14,0,0,0-.64.25,2.83,2.83,0,0,0-.57.38,1.85,1.85,0,0,0-.4.45v5.92Z" fill="#e52823"/><path d="M292.89,49.25V40.56h1.89v1.26A4.41,4.41,0,0,1,296,40.76a3.14,3.14,0,0,1,1.58-.42v1.87a3.18,3.18,0,0,0-.57-.05,2.41,2.41,0,0,0-.64.09,3.23,3.23,0,0,0-.65.25,2.83,2.83,0,0,0-.57.38,1.8,1.8,0,0,0-.39.45v5.92Z" fill="#e52823"/><path d="M303.17,49.47a5,5,0,0,1-1.83-.33,4,4,0,0,1-1.44-.92,4.5,4.5,0,0,1-.95-1.45,5.16,5.16,0,0,1-.34-1.88,4.8,4.8,0,0,1,.33-1.77,4.25,4.25,0,0,1,.91-1.45,4.19,4.19,0,0,1,1.39-1,4.32,4.32,0,0,1,1.78-.36,4.4,4.4,0,0,1,1.77.35,4.11,4.11,0,0,1,1.35,1,4.41,4.41,0,0,1,.85,1.5,5.68,5.68,0,0,1,.3,1.89v.46h-6.7a2.86,2.86,0,0,0,.26.92,2.52,2.52,0,0,0,1.4,1.29,2.92,2.92,0,0,0,1.1.19,4,4,0,0,0,1.33-.25,3.21,3.21,0,0,0,1.15-.72l.86,1.24a4.28,4.28,0,0,1-1.58,1A5.69,5.69,0,0,1,303.17,49.47Zm2.3-5.3a2.55,2.55,0,0,0-.17-.78,2.37,2.37,0,0,0-.45-.74,2.51,2.51,0,0,0-.75-.55,2.57,2.57,0,0,0-1.1-.21,2.44,2.44,0,0,0-1,.21,2.07,2.07,0,0,0-.75.54,2.65,2.65,0,0,0-.46.73,3,3,0,0,0-.18.8Z" fill="#e52823"/><path d="M315.28,49.25V48.06a3.65,3.65,0,0,1-1.22,1,3.28,3.28,0,0,1-1.57.38,3.92,3.92,0,0,1-1.54-.31,3.26,3.26,0,0,1-1.22-.9,4.37,4.37,0,0,1-.8-1.44,5.76,5.76,0,0,1-.29-1.93,5.68,5.68,0,0,1,.29-1.89,4.37,4.37,0,0,1,.8-1.44,3.46,3.46,0,0,1,1.21-.9,3.77,3.77,0,0,1,1.55-.32,3.43,3.43,0,0,1,1.55.36,3.47,3.47,0,0,1,1.24,1.06v-1.2h1.89v8.69Zm-2.23-1.46a2.7,2.7,0,0,0,1.28-.34,3.53,3.53,0,0,0,.55-.37,2.17,2.17,0,0,0,.4-.46V43.18a3.23,3.23,0,0,0-.4-.45,2.94,2.94,0,0,0-.55-.37,2.57,2.57,0,0,0-1.28-.35,2.4,2.4,0,0,0-1,.22,2.23,2.23,0,0,0-.77.59,2.77,2.77,0,0,0-.5.91,3.92,3.92,0,0,0-.17,1.16,4,4,0,0,0,.17,1.17,2.67,2.67,0,0,0,.5.91,2.29,2.29,0,0,0,.77.61A2.4,2.4,0,0,0,313.05,47.79Z" fill="#e52823"/><path d="M322.25,49.47a2.25,2.25,0,0,1-1.68-.58,2.31,2.31,0,0,1-.56-1.67v-5h-1.44V40.56H320V38.18h1.89v2.38h1.77v1.63H321.9v4.56a1.28,1.28,0,0,0,.21.75.73.73,0,0,0,.62.29,1.18,1.18,0,0,0,.5-.1.86.86,0,0,0,.33-.22l.45,1.44a2.1,2.1,0,0,1-.68.39A3.06,3.06,0,0,1,322.25,49.47Z" fill="#e52823"/><path d="M335.84,49.47a6.8,6.8,0,0,1-2.49-.45A5.83,5.83,0,0,1,330,45.79a6.52,6.52,0,0,1-.48-2.53,6.45,6.45,0,0,1,.48-2.53,6,6,0,0,1,1.33-2,5.94,5.94,0,0,1,2-1.27,6.8,6.8,0,0,1,2.49-.45,5.91,5.91,0,0,1,1.63.21,5.31,5.31,0,0,1,2.39,1.44,6.21,6.21,0,0,1,.78,1l-1.78.93a3.53,3.53,0,0,0-1.24-1.25,3.36,3.36,0,0,0-1.78-.49,4.27,4.27,0,0,0-1.66.32,4,4,0,0,0-1.3.9,4.22,4.22,0,0,0-.87,1.37,4.7,4.7,0,0,0-.31,1.75A4.58,4.58,0,0,0,332,45a4.26,4.26,0,0,0,.87,1.38,3.86,3.86,0,0,0,1.3.91,4.1,4.1,0,0,0,1.66.32,3.36,3.36,0,0,0,1.78-.49,3.53,3.53,0,0,0,1.24-1.25l1.8.9a7.71,7.71,0,0,1-.8,1,5.52,5.52,0,0,1-1.05.87,5.84,5.84,0,0,1-1.34.59A5.53,5.53,0,0,1,335.84,49.47Z" fill="#e52823"/><path d="M348.17,49.25V43.78a1.72,1.72,0,0,0-.47-1.4,2.05,2.05,0,0,0-1.28-.37,2.47,2.47,0,0,0-1.32.36,3.15,3.15,0,0,0-.91.8v6.08H342.3v-12h1.89v4.49a3.71,3.71,0,0,1,.53-.51,3.81,3.81,0,0,1,.7-.45,4.27,4.27,0,0,1,.85-.31,3.81,3.81,0,0,1,1-.12,2.83,2.83,0,0,1,2.1.7,2.77,2.77,0,0,1,.71,2.05v6.16Z" fill="#e52823"/><path d="M356.45,49.47a4.67,4.67,0,0,1-1.88-.37,4.32,4.32,0,0,1-1.4-1,4.37,4.37,0,0,1-.88-1.45,5.18,5.18,0,0,1,0-3.53,4.37,4.37,0,0,1,.88-1.45,4.15,4.15,0,0,1,1.4-1,5.06,5.06,0,0,1,3.75,0,4.15,4.15,0,0,1,1.4,1,4.37,4.37,0,0,1,.88,1.45,5.18,5.18,0,0,1,0,3.53,4.37,4.37,0,0,1-.88,1.45,4.32,4.32,0,0,1-1.4,1A4.66,4.66,0,0,1,356.45,49.47Zm0-1.68a2.52,2.52,0,0,0,1.08-.23,2.41,2.41,0,0,0,.78-.63,2.73,2.73,0,0,0,.48-.93,4,4,0,0,0,.16-1.11,3.88,3.88,0,0,0-.16-1.09,2.78,2.78,0,0,0-.48-.92,2.17,2.17,0,0,0-.78-.63,2.38,2.38,0,0,0-1.08-.24,2.34,2.34,0,0,0-1.07.24,2.3,2.3,0,0,0-.79.63,2.6,2.6,0,0,0-.48.92,3.55,3.55,0,0,0-.17,1.09,3.68,3.68,0,0,0,.17,1.11,2.46,2.46,0,0,0,1.27,1.56A2.47,2.47,0,0,0,356.45,47.79Z" fill="#e52823"/><path d="M363.79,39.49a1.13,1.13,0,0,1-.83-.34,1.12,1.12,0,0,1-.34-.83,1.09,1.09,0,0,1,.34-.82,1.16,1.16,0,0,1,1.66,0,1.09,1.09,0,0,1,.34.82,1.12,1.12,0,0,1-.34.83A1.13,1.13,0,0,1,363.79,39.49Zm-1,9.76V40.56h1.89v8.69Z" fill="#e52823"/><path d="M371.13,49.47a4.64,4.64,0,0,1-1.81-.35,4.13,4.13,0,0,1-1.41-.95,4.63,4.63,0,0,1-.93-1.45,5,5,0,0,1-.33-1.83,4.82,4.82,0,0,1,.33-1.81,4.47,4.47,0,0,1,.93-1.44,4.3,4.3,0,0,1,1.41-1,4.63,4.63,0,0,1,1.81-.34,4.52,4.52,0,0,1,1.16.13,3.7,3.7,0,0,1,1.63.83,3.7,3.7,0,0,1,.54.59L373.22,43a2.32,2.32,0,0,0-2-1,2.4,2.4,0,0,0-1.9.81,2.92,2.92,0,0,0-.72,2.07,3.68,3.68,0,0,0,.18,1.17,2.75,2.75,0,0,0,.54.91,2.63,2.63,0,0,0,.83.61,2.65,2.65,0,0,0,1.07.21,2.31,2.31,0,0,0,2-1l1.24,1.17A4.22,4.22,0,0,1,373.2,49,4,4,0,0,1,371.13,49.47Z" fill="#e52823"/><path d="M380.17,49.47a5,5,0,0,1-1.83-.33,4,4,0,0,1-1.44-.92,4.48,4.48,0,0,1-.94-1.45,5,5,0,0,1-.34-1.88,4.79,4.79,0,0,1,.32-1.77,4.41,4.41,0,0,1,.91-1.45,4.29,4.29,0,0,1,1.39-1,4.36,4.36,0,0,1,1.78-.36,4.4,4.4,0,0,1,1.77.35,3.92,3.92,0,0,1,1.35,1,4.25,4.25,0,0,1,.85,1.5,5.68,5.68,0,0,1,.3,1.89v.46H377.6a2.63,2.63,0,0,0,.26.92,2.47,2.47,0,0,0,.55.77,2.76,2.76,0,0,0,.84.52,3,3,0,0,0,1.1.19,4,4,0,0,0,1.33-.25,3.13,3.13,0,0,0,1.15-.72l.87,1.24a4.32,4.32,0,0,1-1.59,1A5.69,5.69,0,0,1,380.17,49.47Zm2.3-5.3a2.55,2.55,0,0,0-.17-.78,2.37,2.37,0,0,0-.45-.74,2.32,2.32,0,0,0-1.84-.76,2.46,2.46,0,0,0-1.05.21,2,2,0,0,0-.74.54,2.43,2.43,0,0,0-.46.73,2.37,2.37,0,0,0-.18.8Z" fill="#e52823"/><path d="M386.86,37.71V41.2h-.5V37.71h-1.11v-.47H388v.47ZM392,41.2V37.93l-1.35,3.27h-.15l-1.35-3.27V41.2h-.5v-4h.77l1.16,2.88,1.15-2.88h.77v4Z" fill="#e52823"/><path d="M272.75,72.38a3.64,3.64,0,0,1-1.18-.15,4.23,4.23,0,0,1-.87-.48l.55-1.41a2.48,2.48,0,0,0,.53.36,1.5,1.5,0,0,0,.68.13,1.29,1.29,0,0,0,.93-.35,1.56,1.56,0,0,0,.35-1.13V60.16h1.89v9.19a3.27,3.27,0,0,1-.71,2.22A2.75,2.75,0,0,1,272.75,72.38Zm1.94-13.29a1.16,1.16,0,0,1-1.17-1.17,1.18,1.18,0,0,1,1.17-1.17,1.13,1.13,0,0,1,.83.35,1.17,1.17,0,0,1-.83,2Z" fill="#e52823"/><path d="M282.11,69.07a5,5,0,0,1-1.83-.33,4,4,0,0,1-1.44-.92,4.32,4.32,0,0,1-.94-1.45,4.94,4.94,0,0,1-.35-1.87,4.81,4.81,0,0,1,.33-1.78,4.25,4.25,0,0,1,.91-1.45,4.45,4.45,0,0,1,1.39-1,4.32,4.32,0,0,1,1.78-.36,4.4,4.4,0,0,1,1.77.35,4,4,0,0,1,1.35,1,4.41,4.41,0,0,1,.85,1.5,5.68,5.68,0,0,1,.3,1.89v.46h-6.7a3.14,3.14,0,0,0,.26.92,2.67,2.67,0,0,0,.56.77,2.76,2.76,0,0,0,.84.52,2.92,2.92,0,0,0,1.1.19,4,4,0,0,0,1.33-.25,3.13,3.13,0,0,0,1.15-.72l.87,1.24a4.41,4.41,0,0,1-1.59.95A5.69,5.69,0,0,1,282.11,69.07Zm2.3-5.3a2.55,2.55,0,0,0-.17-.78,2.37,2.37,0,0,0-.45-.74,2.33,2.33,0,0,0-.75-.54,2.41,2.41,0,0,0-1.09-.22,2.46,2.46,0,0,0-1.05.21,2.07,2.07,0,0,0-.75.54,2.4,2.4,0,0,0-.45.73,2.37,2.37,0,0,0-.18.8Z" fill="#e52823"/><path d="M288.1,68.85V60.16H290v1.26a4.56,4.56,0,0,1,1.24-1.06,3.18,3.18,0,0,1,1.59-.42v1.87a3.3,3.3,0,0,0-.58-.05,2.47,2.47,0,0,0-.64.09,3.23,3.23,0,0,0-.65.25,2.51,2.51,0,0,0-.56.38,1.85,1.85,0,0,0-.4.45v5.92Z" fill="#e52823"/><path d="M300.11,68.85l-2.65-3.6-1.22,1.26v2.34h-1.89v-12h1.89v7.51l3.83-4.19h2.34l-3.6,3.94,3.67,4.75Z" fill="#e52823"/><path d="M307.25,72.38a5.52,5.52,0,0,1-1.94-.32,4.59,4.59,0,0,1-1.57-1l.88-1.37a2.67,2.67,0,0,0,1.17.86,4.28,4.28,0,0,0,1.46.26,2.51,2.51,0,0,0,1.8-.62,2.37,2.37,0,0,0,.65-1.79v-1a4.71,4.71,0,0,1-1.25,1,3.78,3.78,0,0,1-1.81.42A2.48,2.48,0,0,1,303.83,66V60.16h1.89v5.16a1.71,1.71,0,0,0,.48,1.4,2,2,0,0,0,1.29.38,2.42,2.42,0,0,0,1.3-.35,3.09,3.09,0,0,0,.91-.78V60.16h1.89v8.26a4.4,4.4,0,0,1-.32,1.72,3.36,3.36,0,0,1-.91,1.24,4,4,0,0,1-1.38.75A5.92,5.92,0,0,1,307.25,72.38Z" fill="#e52823"/><path d="M321.31,69.07a2.2,2.2,0,0,1-1.67-.58,2.27,2.27,0,0,1-.56-1.67v-5h-1.44V60.16h1.44V57.78H321v2.38h1.76v1.63H321v4.56a1.35,1.35,0,0,0,.2.75.74.74,0,0,0,.63.29,1.13,1.13,0,0,0,.49-.1.86.86,0,0,0,.33-.22l.45,1.44a1.91,1.91,0,0,1-.68.4A3.33,3.33,0,0,1,321.31,69.07Z" fill="#e52823"/><path d="M324.42,68.85V60.16h1.89v1.26a4.46,4.46,0,0,1,1.25-1.06,3.14,3.14,0,0,1,1.58-.42v1.87a3.3,3.3,0,0,0-.58-.05,2.53,2.53,0,0,0-.64.09,3.14,3.14,0,0,0-.64.25,2.83,2.83,0,0,0-.57.38,1.85,1.85,0,0,0-.4.45v5.92Z" fill="#e52823"/><path d="M334.7,69.07a5,5,0,0,1-1.83-.33,4.18,4.18,0,0,1-1.44-.92,4.48,4.48,0,0,1-.94-1.45,4.94,4.94,0,0,1-.34-1.87,5,5,0,0,1,.32-1.78,4.41,4.41,0,0,1,.91-1.45,4.5,4.5,0,0,1,1.4-1,4.59,4.59,0,0,1,3.54,0,3.92,3.92,0,0,1,1.35,1,4.43,4.43,0,0,1,.86,1.5,6,6,0,0,1,.29,1.89v.46h-6.69a2.63,2.63,0,0,0,.26.92,2.5,2.5,0,0,0,.56.77,2.6,2.6,0,0,0,.83.52,3,3,0,0,0,1.1.19,4,4,0,0,0,1.33-.25,3.26,3.26,0,0,0,1.16-.72l.86,1.24a4.28,4.28,0,0,1-1.58.95A5.75,5.75,0,0,1,334.7,69.07Zm2.31-5.3a2.58,2.58,0,0,0-.18-.78,2.37,2.37,0,0,0-.45-.74,2.18,2.18,0,0,0-.74-.54,2.45,2.45,0,0,0-1.1-.22,2.38,2.38,0,0,0-1,.21,2.07,2.07,0,0,0-.75.54,2.43,2.43,0,0,0-.46.73,2.37,2.37,0,0,0-.18.8Z" fill="#e52823"/><path d="M346.82,68.85V67.66a3.88,3.88,0,0,1-1.22,1,3.31,3.31,0,0,1-1.57.38,3.88,3.88,0,0,1-1.54-.31,3.22,3.22,0,0,1-1.23-.9,4.27,4.27,0,0,1-.8-1.44,6.43,6.43,0,0,1,0-3.82,4.22,4.22,0,0,1,.8-1.43,3.4,3.4,0,0,1,1.22-.91,3.74,3.74,0,0,1,1.55-.32,3.39,3.39,0,0,1,1.54.36,3.5,3.5,0,0,1,1.25,1.06v-1.2h1.89v8.69Zm-2.24-1.46a2.5,2.5,0,0,0,.66-.09,2.85,2.85,0,0,0,.63-.25,3,3,0,0,0,.54-.37,2.22,2.22,0,0,0,.41-.46V62.79a2.88,2.88,0,0,0-.41-.46,2.58,2.58,0,0,0-.54-.37,2.44,2.44,0,0,0-.63-.25,2.15,2.15,0,0,0-.66-.09,2.29,2.29,0,0,0-1.8.8,2.75,2.75,0,0,0-.49.91,3.68,3.68,0,0,0-.17,1.17,3.62,3.62,0,0,0,.17,1.16,2.65,2.65,0,0,0,.49.91,2.43,2.43,0,0,0,.78.61A2.38,2.38,0,0,0,344.58,67.39Z" fill="#e52823"/><path d="M353.78,69.07a2.2,2.2,0,0,1-1.67-.58,2.27,2.27,0,0,1-.56-1.67v-5h-1.44V60.16h1.44V57.78h1.89v2.38h1.76v1.63h-1.76v4.56a1.28,1.28,0,0,0,.21.75.7.7,0,0,0,.62.29,1.13,1.13,0,0,0,.49-.1,1,1,0,0,0,.34-.22l.45,1.44a2.06,2.06,0,0,1-.69.4A3.33,3.33,0,0,1,353.78,69.07Z" fill="#e52823"/><path d="M359.88,69.07a6.15,6.15,0,0,1-2.09-.35,4.7,4.7,0,0,1-1.63-1l.86-1.35a3.79,3.79,0,0,0,.56.45,4.84,4.84,0,0,0,.72.39,5.62,5.62,0,0,0,.82.27,4,4,0,0,0,.84.09,2.19,2.19,0,0,0,1.29-.31,1,1,0,0,0,.43-.84.72.72,0,0,0-.38-.65,4.4,4.4,0,0,0-1-.36c-.39-.09-.81-.19-1.27-.28a5.22,5.22,0,0,1-1.26-.44,2.87,2.87,0,0,1-1-.77,2.12,2.12,0,0,1-.38-1.33,2.37,2.37,0,0,1,.22-1,2.51,2.51,0,0,1,.66-.84,3.19,3.19,0,0,1,1.07-.56,4.7,4.7,0,0,1,1.47-.21,5.11,5.11,0,0,1,1.95.34,4.68,4.68,0,0,1,1.41.87l-.79,1.33a3.26,3.26,0,0,0-1.07-.74,3.66,3.66,0,0,0-1.5-.31,2,2,0,0,0-1.18.31.93.93,0,0,0-.42.77.61.61,0,0,0,.38.58,4.38,4.38,0,0,0,1,.33l1.27.29a5.16,5.16,0,0,1,1.27.45,2.74,2.74,0,0,1,1,.81,2.22,2.22,0,0,1,.39,1.38,2.65,2.65,0,0,1-.23,1.08,2.4,2.4,0,0,1-.7.86,3.42,3.42,0,0,1-1.13.57A5.26,5.26,0,0,1,359.88,69.07Z" fill="#e52823"/></g></g></svg>