<svg xmlns="http://www.w3.org/2000/svg" viewBox="0 0 300 250"><defs><style>.cls-1{fill:none;}.cls-2{fill:#e32d27;}.cls-3{fill:#fff;}</style></defs><g id="Layer_2" data-name="Layer 2"><g id="rec"><rect class="cls-1" width="300" height="250"/></g><g id="CTA"><path id="bg" class="cls-2" d="M116.59,171.51H23a11.16,11.16,0,0,1-11.35-11v-1.15A11.17,11.17,0,0,1,23,148.4h93.59a11.17,11.17,0,0,1,11.35,11v1.15a11.16,11.16,0,0,1-11.35,11"/><path class="cls-3" d="M41.64,164.22a5.63,5.63,0,0,1-2.24-.41,4.85,4.85,0,0,1-1.57-1.07l.93-1.28a4.18,4.18,0,0,0,1.22.91,3.71,3.71,0,0,0,1.73.39,2.72,2.72,0,0,0,.86-.11,1.66,1.66,0,0,0,.58-.29,1.18,1.18,0,0,0,.32-.42,1.06,1.06,0,0,0,.1-.46.83.83,0,0,0-.4-.75,3.58,3.58,0,0,0-1-.44c-.41-.12-.85-.24-1.31-.35a6.54,6.54,0,0,1-1.31-.47,2.74,2.74,0,0,1-1-.8,2.15,2.15,0,0,1-.4-1.37,2.44,2.44,0,0,1,.24-1.08,2.89,2.89,0,0,1,.69-.87,3.14,3.14,0,0,1,1.07-.58,4.42,4.42,0,0,1,1.4-.21,5.32,5.32,0,0,1,2,.34,4.57,4.57,0,0,1,1.52,1l-.93,1.21a3.56,3.56,0,0,0-1.26-.82,4.25,4.25,0,0,0-1.45-.25,1.8,1.8,0,0,0-1.14.32,1,1,0,0,0-.43.84.74.74,0,0,0,.4.67,4.4,4.4,0,0,0,1,.41l1.31.34a6.12,6.12,0,0,1,1.3.49,2.86,2.86,0,0,1,1,.84,2.21,2.21,0,0,1,.4,1.39,3,3,0,0,1-.21,1.12,2.42,2.42,0,0,1-.65.92,3,3,0,0,1-1.13.63A5.14,5.14,0,0,1,41.64,164.22Z"/><path class="cls-3" d="M51.29,164.05V159.8a1.33,1.33,0,0,0-.37-1.09,1.56,1.56,0,0,0-1-.29,2,2,0,0,0-1,.28,2.75,2.75,0,0,0-.71.62v4.73H46.72v-9.34h1.47v3.49a2.68,2.68,0,0,1,.42-.39,3,3,0,0,1,.54-.35,3.23,3.23,0,0,1,.66-.25,3.1,3.1,0,0,1,.76-.09,2.2,2.2,0,0,1,1.64.55,2.16,2.16,0,0,1,.55,1.59v4.79Z"/><path class="cls-3" d="M57.73,164.22a3.56,3.56,0,0,1-1.46-.29A3.31,3.31,0,0,1,54.49,162a4.06,4.06,0,0,1,0-2.75,3.29,3.29,0,0,1,.69-1.12,3.17,3.17,0,0,1,1.09-.77,3.92,3.92,0,0,1,2.91,0,3.08,3.08,0,0,1,1.09.77,3.29,3.29,0,0,1,.69,1.12A4.06,4.06,0,0,1,61,162a3.29,3.29,0,0,1-.69,1.12,3.21,3.21,0,0,1-1.09.77A3.54,3.54,0,0,1,57.73,164.22Zm0-1.3a1.92,1.92,0,0,0,.84-.18,2.09,2.09,0,0,0,.61-.49,2.39,2.39,0,0,0,.37-.73,3.11,3.11,0,0,0,0-1.71,2.28,2.28,0,0,0-.37-.71,1.81,1.81,0,0,0-.61-.49,1.79,1.79,0,0,0-.84-.19,1.72,1.72,0,0,0-.83.19,1.85,1.85,0,0,0-.62.49,2.09,2.09,0,0,0-.37.71,2.88,2.88,0,0,0,0,1.71,2.19,2.19,0,0,0,.37.73,2.14,2.14,0,0,0,.62.49A1.84,1.84,0,0,0,57.73,162.92Z"/><path class="cls-3" d="M66.34,164.22a2.59,2.59,0,0,1-1.2-.29,2.9,2.9,0,0,1-1-.82v3.52H62.7v-9.34h1.47v.92a2.73,2.73,0,0,1,.93-.79,2.61,2.61,0,0,1,1.24-.3,3,3,0,0,1,1.2.24,2.8,2.8,0,0,1,.95.69,3.46,3.46,0,0,1,.62,1.12,4.54,4.54,0,0,1,.22,1.49,4.64,4.64,0,0,1-.22,1.5,3.31,3.31,0,0,1-.62,1.11,2.86,2.86,0,0,1-.95.71A3,3,0,0,1,66.34,164.22Zm-.44-1.3a1.71,1.71,0,0,0,1.4-.63,2.45,2.45,0,0,0,.52-1.63,2.4,2.4,0,0,0-.52-1.61,1.71,1.71,0,0,0-1.4-.63,2.13,2.13,0,0,0-1,.26,2,2,0,0,0-.73.64V162a1.36,1.36,0,0,0,.31.37,2.42,2.42,0,0,0,.42.29,2.1,2.1,0,0,0,.49.2A1.79,1.79,0,0,0,65.9,162.92Z"/><path class="cls-3" d="M81,164.05l-4.88-6.68v6.68H74.46v-9.34h1.68l4.77,6.47v-6.47h1.64v9.34Z"/><path class="cls-3" d="M87.56,164.22a3.59,3.59,0,0,1-1.46-.29A3.31,3.31,0,0,1,84.32,162a4.23,4.23,0,0,1,0-2.75,3.29,3.29,0,0,1,.69-1.12,3.17,3.17,0,0,1,1.09-.77,3.95,3.95,0,0,1,2.92,0,3.25,3.25,0,0,1,1.77,1.89,4.06,4.06,0,0,1,0,2.75,3.27,3.27,0,0,1-.68,1.12,3.42,3.42,0,0,1-1.09.77A3.59,3.59,0,0,1,87.56,164.22Zm0-1.3a1.86,1.86,0,0,0,.84-.18,2.09,2.09,0,0,0,.61-.49,2.39,2.39,0,0,0,.37-.73,3.11,3.11,0,0,0,0-1.71,2.28,2.28,0,0,0-.37-.71,1.81,1.81,0,0,0-.61-.49,1.86,1.86,0,0,0-2.28.49,1.94,1.94,0,0,0-.38.71,2.88,2.88,0,0,0,0,1.71,2,2,0,0,0,.38.73,2,2,0,0,0,.61.49A1.87,1.87,0,0,0,87.56,162.92Z"/><path class="cls-3" d="M98.44,164.05l-1.59-5-1.56,5H93.75l-2.1-6.76h1.52l1.43,4.91,1.61-4.91h1.3l1.6,4.91,1.43-4.91h1.54l-2.1,6.76Z"/></g></g></svg>