<svg xmlns="http://www.w3.org/2000/svg" xmlns:xlink="http://www.w3.org/1999/xlink" viewBox="0 0 300 250"><defs><clipPath id="clip-path"><rect x="22.15" y="208.44" width="92.83" height="23.51" fill="none"/></clipPath></defs><title>end</title><g id="Layer_2" data-name="Layer 2"><g id="Layer_1-2" data-name="Layer 1"><g id="Layer_1-3" data-name="Layer 1"><rect width="300" height="250"/></g><g id="white_logo" data-name="white logo"><g clip-path="url(#clip-path)"><g clip-path="url(#clip-path)"><path d="M32.65,212.16c14-4.27,21,6.43,21,6.43s-4.43-14.94-21-6.43" fill="#fff"/><path d="M59.68,212.71c0-.06,0-.45,0-.5a10.43,10.43,0,0,0-5.51,8,11.1,11.1,0,0,1,6.37-5.77,2.66,2.66,0,0,1-.86-1.75" fill="#fff"/><path d="M41.85,219s0,2.11,0,3.17c-.54,0-2.86-.14-3.88-.18,0,.57,0,1.16,0,1.73,1.22,0,2.49.17,3.71.15,0,1,0,1.91,0,2.93-1.22,0-2.44-.09-3.66-.12v1.87c1.32,0,2.63.14,3.95.12,0,0,0,3.12,0,3.12-2.6,0-5.68-.21-8.6-.45l.2-13c1.23.15,5,.55,8.37.66" fill="#fff"/><path d="M43,219l-.05,3.4c1.23.06,2.33.06,2.33.06v9.42a29.46,29.46,0,0,0,4.69-.06l0-9.33s2.07-.1,2.39-.13c0-1.24,0-2.22,0-3.46A81.64,81.64,0,0,1,43,219" fill="#fff"/><path d="M105.68,216.91c0,1.35,0,2.59,0,3.94.8.05,1.7.21,2.49.28,0,3.28-.08,5.76-.08,9.05,2.21.26,3.78.52,4.39.63,0-3.28.12-5.87.13-9.16,0,0,2.34.37,2.38.4V218a73.64,73.64,0,0,0-9.3-1.09" fill="#fff"/><path d="M26.72,223.25l-.41,0c0-.89,0-1.78,0-2.68l.4.05A1.35,1.35,0,0,1,28.08,222c0,1.1-.68,1.31-1.36,1.24m1-6.28-5.56-1,0,13.63c1.43.28,2.73.52,4.12.67l0-3.93,1.51.16c2.41.22,4.84-.69,4.87-4.63,0-3.5-2.3-4.51-4.88-4.89" fill="#fff"/><path d="M74.19,229.63c.62-1.62,1.24-3.14,1.87-4.76.1,1.55.16,3,.26,4.51,1.55-.17,2.8-.26,4.36-.36-.4-4.14-.75-8.58-1.15-12.72-1.34.11-2.68.24-4,.37-.75,2-1.5,4.33-2.25,6.28-.73-1.81-1.45-3.93-2.17-5.74-1.36.19-3.76.61-4,.62L65.63,231c1.07-.18,3.67-.6,4.46-.7.12-1.58.24-3.26.36-4.84l1.8,4.51c.34,0,1.54-.23,1.94-.3" fill="#fff"/><path d="M98.88,222.49l-.41,0c0-.87,0-1.75,0-2.63l.39,0a1.31,1.31,0,0,1,1.36,1.38,1.13,1.13,0,0,1-1.38,1.25m3.87,2.81c1.19-.54,2-1.69,2.08-4,0-3.45-2.39-4.92-4.86-5.11-1.86-.15-3.73-.25-5.59-.3-.06,4.38-.09,8.39-.15,12.77,1.4,0,2.93.14,4.15.24,0-1.23,0-2.14.05-3.38.8,1.29,1.45,2.35,2.25,3.66,1.71.15,3.47.37,5.19.63-1.08-1.61-2-3-3.12-4.54" fill="#fff"/><path d="M86.45,224.45c.29-1.09.59-2.24.88-3.32l1,3.27c-1.9.07-1.91,0-1.87,0m3-8.62c-1.66,0-3,0-4.43.09-1.14,4.24-2.49,8.79-3.63,13.05,1.27,0,2.56-.11,3.82-.11.12-.45.25-1,.37-1.42l1.94-.05s1.71,0,1.71,0c0,.17.2.61.42,1.35,1.27,0,2.54,0,3.81,0-1.37-4.5-2.76-8.82-4-12.9" fill="#fff"/><path d="M53.7,230.65a11.43,11.43,0,0,0,5.15,1.3c2.91,0,6-1.74,6-5,0-2.33-1.43-3.43-3.49-3.89l-1.1-.25c-.37-.09-1-.16-1-.67s.64-.73,1.07-.73a7.72,7.72,0,0,1,3,.63l1.24-3.28a9.72,9.72,0,0,0-4.25-1c-2.92,0-5.87,1.77-5.93,5,0,2.14,1.54,3.31,3.44,3.67l1,.18c.44.09,1.09.14,1.07.76s-.77.69-1.25.69A5.7,5.7,0,0,1,55.31,227c-.51,1.14-1.11,2.55-1.61,3.69" fill="#fff"/><path d="M64.24,208.44a3.28,3.28,0,1,0,3.23,3.32,3.3,3.3,0,0,0-3.23-3.32m1.18,1.21a4,4,0,0,0-3.52,2.06v0a2.37,2.37,0,0,1,.07-.91,2.23,2.23,0,0,1,2.73-1.59,2,2,0,0,1,.77.41l0,0" fill="#fff"/></g></g></g><path d="M299.67,219.56c-14.19-27.25-44.59-46.09-79.71-46.09-47.12,0-84.88,30.6-87.88,76.23H299.67Z" fill="#e52823"/><path d="M14.44,18.47H25.67a7,7,0,0,1,3.35.75,5.22,5.22,0,0,1,2.09,2,5.34,5.34,0,0,1,.71,2.7,5,5,0,0,1-1.06,3.26,4.44,4.44,0,0,1-2.62,1.64,4.43,4.43,0,0,1,2.91,1.76,5.45,5.45,0,0,1,1.18,3.48,5.58,5.58,0,0,1-1.63,4.13A6.18,6.18,0,0,1,26,39.81H14.44Zm10.24,8.58a2.46,2.46,0,0,0,1.82-.66,2.29,2.29,0,0,0,.68-1.71A2.25,2.25,0,0,0,26.49,23a2.51,2.51,0,0,0-1.81-.67H19v4.71Zm.16,8.89a2.86,2.86,0,0,0,2-.69,2.6,2.6,0,0,0,0-3.61,2.79,2.79,0,0,0-2-.72H19v5Z" fill="#fff"/><path d="M36.66,39.16A4.24,4.24,0,0,1,35.56,36V18.47h4.06V34.92A1.85,1.85,0,0,0,40,36.13a1.23,1.23,0,0,0,1,.48,2.73,2.73,0,0,0,.83-.12,1.33,1.33,0,0,0,.55-.32l.86,3.07a5,5,0,0,1-3.36,1A4.51,4.51,0,0,1,36.66,39.16Z" fill="#fff"/><path d="M55.72,37.83a6.35,6.35,0,0,1-2.13,1.78,5.83,5.83,0,0,1-2.64.62,6.62,6.62,0,0,1-3.52-1A6.51,6.51,0,0,1,45,36.48a10.06,10.06,0,0,1-.88-4.36A10,10,0,0,1,45,27.81,6.68,6.68,0,0,1,47.42,25,6.42,6.42,0,0,1,51,24a6,6,0,0,1,2.63.61,6.11,6.11,0,0,1,2.14,1.76v-2h4.09V39.81H55.72Zm0-8.44a3.8,3.8,0,0,0-1.5-1.27,4.53,4.53,0,0,0-2-.5,3.61,3.61,0,0,0-2.82,1.24,4.77,4.77,0,0,0-1.09,3.26,4.77,4.77,0,0,0,1.09,3.24,3.56,3.56,0,0,0,2.82,1.25,4.52,4.52,0,0,0,2-.49,3.8,3.8,0,0,0,1.5-1.27Z" fill="#fff"/><path d="M63.91,27.9A7.59,7.59,0,0,1,66.82,25,8.45,8.45,0,0,1,71.05,24a8.13,8.13,0,0,1,3.71.79,6.54,6.54,0,0,1,2.4,2L74.5,29.25a3.69,3.69,0,0,0-3.26-1.66,4,4,0,0,0-3,1.24,4.58,4.58,0,0,0-1.16,3.26,4.62,4.62,0,0,0,1.16,3.27,3.94,3.94,0,0,0,3,1.25A3.86,3.86,0,0,0,74.5,35l2.66,2.46a6.54,6.54,0,0,1-2.39,2,7.93,7.93,0,0,1-3.72.8,8.55,8.55,0,0,1-4.23-1,7.69,7.69,0,0,1-2.91-2.89,8.85,8.85,0,0,1,0-8.4Z" fill="#fff"/><path d="M85.73,33.86l-1.85,2v4H79.81V18.47h4.07V31.24l5.85-6.88h5l-6.12,7,6.31,8.44H89.83Z" fill="#fff"/><path d="M105.22,18.47h15.11v3.9H109.77V27H120.1v3.91H109.77v8.89h-4.55Z" fill="#fff"/><path d="M123.4,24.36h4.06v2.11a6.91,6.91,0,0,1,2.18-1.78,5.73,5.73,0,0,1,2.75-.72v4a5.5,5.5,0,0,0-1.12-.13,5.45,5.45,0,0,0-2.18.52,3.68,3.68,0,0,0-1.63,1.25V39.81H123.4Z" fill="#fff"/><path d="M135.22,21.37a2.43,2.43,0,1,1,4.15-1.72,2.37,2.37,0,0,1-.71,1.72,2.41,2.41,0,0,1-3.44,0Zm-.3,3H139V39.81h-4.06Z" fill="#fff"/><path d="M153.64,37.83a6.35,6.35,0,0,1-2.13,1.78,5.83,5.83,0,0,1-2.64.62,6.6,6.6,0,0,1-3.52-1,6.44,6.44,0,0,1-2.45-2.79,9.92,9.92,0,0,1-.88-4.36,9.84,9.84,0,0,1,.88-4.31A6.73,6.73,0,0,1,145.33,25a6.47,6.47,0,0,1,3.54-1,6,6,0,0,1,2.62.61,6.06,6.06,0,0,1,2.15,1.76V18.47h4.09V39.81h-4.09Zm0-8.47a3.75,3.75,0,0,0-1.51-1.27,4.46,4.46,0,0,0-2-.5,3.59,3.59,0,0,0-2.82,1.25,4.86,4.86,0,0,0-1.09,3.28,4.77,4.77,0,0,0,1.09,3.24,3.56,3.56,0,0,0,2.82,1.25,4.44,4.44,0,0,0,2-.49,3.83,3.83,0,0,0,1.51-1.27Z" fill="#fff"/><path d="M172.39,37.83a6.35,6.35,0,0,1-2.13,1.78,5.83,5.83,0,0,1-2.64.62,6.62,6.62,0,0,1-3.52-1,6.51,6.51,0,0,1-2.45-2.79,10.06,10.06,0,0,1-.88-4.36,10,10,0,0,1,.88-4.31A6.68,6.68,0,0,1,164.09,25a6.42,6.42,0,0,1,3.53-1,6,6,0,0,1,2.63.61,6.11,6.11,0,0,1,2.14,1.76v-2h4.1V39.81h-4.1Zm0-8.44a3.8,3.8,0,0,0-1.5-1.27,4.53,4.53,0,0,0-2-.5,3.61,3.61,0,0,0-2.82,1.24A4.77,4.77,0,0,0,165,32.12a4.77,4.77,0,0,0,1.08,3.24,3.56,3.56,0,0,0,2.82,1.25,4.52,4.52,0,0,0,2-.49,3.8,3.8,0,0,0,1.5-1.27Z" fill="#fff"/><path d="M182.15,40.84a4.9,4.9,0,0,0,2,1.44,7.13,7.13,0,0,0,2.59.48,4.27,4.27,0,0,0,3.07-1A3.82,3.82,0,0,0,191,38.79v-1.6a7.23,7.23,0,0,1-2.29,1.66,7.14,7.14,0,0,1-3.15.68,5,5,0,0,1-3.74-1.28,4.9,4.9,0,0,1-1.25-3.59V24.36h4.06v8.7a2.79,2.79,0,0,0,.74,2.19,3,3,0,0,0,2.11.66,4.15,4.15,0,0,0,2-.51,4.89,4.89,0,0,0,1.5-1.25V24.36H195V38.6a7,7,0,0,1-2.22,5.52,8.73,8.73,0,0,1-6,2,9.41,9.41,0,0,1-6.46-2.31Z" fill="#fff"/><path d="M217.86,37.83a6.35,6.35,0,0,1-2.13,1.78,5.83,5.83,0,0,1-2.64.62,6.62,6.62,0,0,1-3.52-1,6.42,6.42,0,0,1-2.44-2.79,9.92,9.92,0,0,1-.88-4.36,9.84,9.84,0,0,1,.88-4.31A6.6,6.6,0,0,1,209.56,25a6.42,6.42,0,0,1,3.53-1,6,6,0,0,1,2.63.61,6.11,6.11,0,0,1,2.14,1.76V18.47H222V39.81h-4.1Zm0-8.47a3.72,3.72,0,0,0-1.5-1.27,4.5,4.5,0,0,0-2-.5,3.55,3.55,0,0,0-2.81,1.25,4.81,4.81,0,0,0-1.09,3.28,4.72,4.72,0,0,0,1.09,3.24,3.52,3.52,0,0,0,2.81,1.25,4.48,4.48,0,0,0,2-.49,3.8,3.8,0,0,0,1.5-1.27Z" fill="#fff"/><path d="M226,28a7.64,7.64,0,0,1,2.85-2.93A7.87,7.87,0,0,1,233,24a7.55,7.55,0,0,1,4,1.08,7.31,7.31,0,0,1,2.74,3,9.76,9.76,0,0,1,1,4.44v.89H229.25A4,4,0,0,0,230.63,36a4.54,4.54,0,0,0,3.07,1,6.49,6.49,0,0,0,2.26-.42,5.24,5.24,0,0,0,1.87-1.12l1.79,2.63a7.66,7.66,0,0,1-2.81,1.58,11.43,11.43,0,0,1-3.56.56,8.86,8.86,0,0,1-4.22-1,7.32,7.32,0,0,1-3-2.85A8.9,8.9,0,0,1,226,28Zm4.29.25a4.16,4.16,0,0,0-1.12,2.38h7.62a4,4,0,0,0-1-2.37A3.54,3.54,0,0,0,233,27.21,3.46,3.46,0,0,0,230.31,28.25Z" fill="#fff"/><path d="M254.31,37.83a6.35,6.35,0,0,1-2.13,1.78,5.83,5.83,0,0,1-2.64.62,6.62,6.62,0,0,1-3.52-1,6.51,6.51,0,0,1-2.45-2.79,10.06,10.06,0,0,1-.88-4.36,10,10,0,0,1,.88-4.31A6.68,6.68,0,0,1,246,25a6.42,6.42,0,0,1,3.53-1,6,6,0,0,1,2.63.61,6.11,6.11,0,0,1,2.14,1.76v-2h4.09V39.81h-4.09Zm0-8.44a3.8,3.8,0,0,0-1.5-1.27,4.53,4.53,0,0,0-2-.5A3.61,3.61,0,0,0,248,28.86a4.77,4.77,0,0,0-1.08,3.26A4.77,4.77,0,0,0,248,35.36a3.56,3.56,0,0,0,2.82,1.25,4.52,4.52,0,0,0,2-.49,3.8,3.8,0,0,0,1.5-1.27Z" fill="#fff"/><path d="M263.54,39.16a4.24,4.24,0,0,1-1.1-3.16V18.47h4.06V34.92a1.85,1.85,0,0,0,.39,1.21,1.23,1.23,0,0,0,1,.48,2.78,2.78,0,0,0,.83-.12,1.22,1.22,0,0,0,.54-.32l.87,3.07a5,5,0,0,1-3.36,1A4.51,4.51,0,0,1,263.54,39.16Z" fill="#fff"/><path d="M272.39,35a8,8,0,0,0,2.43,1.47,7.52,7.52,0,0,0,2.91.64,3.63,3.63,0,0,0,1.94-.42,1.29,1.29,0,0,0,.65-1.16,1.22,1.22,0,0,0-.76-1.13,10.17,10.17,0,0,0-2.34-.71,21.64,21.64,0,0,1-3.07-.77A5,5,0,0,1,272,31.51a3.78,3.78,0,0,1-.9-2.67,4.25,4.25,0,0,1,.75-2.43,5.09,5.09,0,0,1,2.19-1.78,8.12,8.12,0,0,1,3.4-.66,9.72,9.72,0,0,1,6.24,2.12l-1.64,2.78a5.7,5.7,0,0,0-2-1.28,6.75,6.75,0,0,0-2.61-.51,3.59,3.59,0,0,0-1.78.38,1.19,1.19,0,0,0-.65,1.06,1.08,1.08,0,0,0,.72,1,11.19,11.19,0,0,0,2.22.65,21,21,0,0,1,3.1.81,5.34,5.34,0,0,1,2.18,1.47,4,4,0,0,1,.93,2.79,4.36,4.36,0,0,1-.79,2.56,5.12,5.12,0,0,1-2.3,1.78,9.16,9.16,0,0,1-3.6.64,11.52,11.52,0,0,1-3.85-.64,8.61,8.61,0,0,1-3.06-1.76Z" fill="#fff"/><path d="M17,74.17a14.31,14.31,0,0,0,4.44,3.12,13.63,13.63,0,0,0,5.74,1.2,6.87,6.87,0,0,0,4.1-1.07,3.09,3.09,0,0,0,1.47-2.56,2.67,2.67,0,0,0-1.59-2.48,20.7,20.7,0,0,0-4.89-1.62A54.32,54.32,0,0,1,20.2,69a10.15,10.15,0,0,1-4.1-2.82,7.58,7.58,0,0,1-1.76-5.27A8.65,8.65,0,0,1,15.83,56a10.06,10.06,0,0,1,4.25-3.48,15.15,15.15,0,0,1,6.41-1.28q7.64,0,12.48,4.46l-3.79,5a12.57,12.57,0,0,0-4.3-2.62A14.14,14.14,0,0,0,26,57.22a5.77,5.77,0,0,0-3.48.9,2.8,2.8,0,0,0-1.23,2.39,2.31,2.31,0,0,0,1.49,2.2,29,29,0,0,0,4.9,1.52A43.73,43.73,0,0,1,33.76,66a10.55,10.55,0,0,1,4.18,2.91,7.63,7.63,0,0,1,1.75,5.24A9.38,9.38,0,0,1,36.4,81.6q-3.28,2.84-9.53,2.84-8.49,0-13.58-5.09Z" fill="#fff"/><path d="M51.35,57.8H42v-6H67.53v6H58.22v26H51.35Z" fill="#fff"/><path d="M89.22,78.29H74.92l-2,5.52H65.42l12.38-32h8.54l12.34,32H91.24Zm-12.48-5.9H87.35L82.07,57.7Z" fill="#fff"/><path d="M113.46,72.34h-5V83.81h-6.81v-32h15a11.83,11.83,0,0,1,5.71,1.32,9.09,9.09,0,0,1,3.75,3.67,10.89,10.89,0,0,1,1.29,5.33,9.63,9.63,0,0,1-2,6.38,9,9,0,0,1-5,3.12l7.2,12.19h-7.83Zm5.6-13.46a5,5,0,0,0-3.44-1.23h-7.15v8.84h7.15a5,5,0,0,0,3.44-1.23,4.42,4.42,0,0,0,0-6.38Z" fill="#fff"/><path d="M139.43,57.8h-9.36v-6h25.54v6H146.3v26h-6.87Z" fill="#fff"/><path d="M179.08,62.31v21.5h-6.82v-32h7L194.1,72.53V51.8h6.82v32h-6.58Z" fill="#fff"/><path d="M207.88,59.32a15.55,15.55,0,0,1,6-5.91,18.33,18.33,0,0,1,17.19,0,15.64,15.64,0,0,1,6,5.91,18,18,0,0,1,0,17.07,15.64,15.64,0,0,1-6,5.91,18.33,18.33,0,0,1-17.19,0,15.55,15.55,0,0,1-6-5.91,17.94,17.94,0,0,1,0-17.07ZM231,62.47a9.06,9.06,0,0,0-3.44-3.78,10.18,10.18,0,0,0-10.2,0,9.1,9.1,0,0,0-3.4,3.78,12.68,12.68,0,0,0,0,10.77,9.1,9.1,0,0,0,3.4,3.78,10.18,10.18,0,0,0,10.2,0A9.06,9.06,0,0,0,231,73.24a12.68,12.68,0,0,0,0-10.77Z" fill="#fff"/><path d="M261.88,61.83l-5.57,22h-7.25l-9.17-32h7.64l5.61,23.13,6.1-23.13h5.33l6,23.13,5.57-23.13h7.68l-9.12,32h-7.25Z" fill="#fff"/></g></g></svg>