<svg xmlns="http://www.w3.org/2000/svg" viewBox="0 0 728 90"><g id="Layer_2" data-name="Layer 2"><g id="REC"><rect width="728" height="90" fill="none"/></g><g id="sbhd"><path d="M289.19,30.45V20.66l-3.87,9.79h-.95l-3.9-9.79v9.79h-2.22V17.78h3.14l3.45,8.7,3.44-8.7h3.14V30.45Z" fill="#e52823"/><path d="M298.31,30.68a5.46,5.46,0,0,1-1.92-.34,4.38,4.38,0,0,1-1.52-1,4.56,4.56,0,0,1-1-1.53,5.29,5.29,0,0,1-.36-2,5.09,5.09,0,0,1,.34-1.87,4.62,4.62,0,0,1,1-1.53,4.69,4.69,0,0,1,1.47-1,4.85,4.85,0,0,1,3.74,0,4.16,4.16,0,0,1,1.43,1,4.62,4.62,0,0,1,.9,1.58,6.06,6.06,0,0,1,.32,2v.5H295.6a3.26,3.26,0,0,0,.27,1,2.91,2.91,0,0,0,.59.8,2.52,2.52,0,0,0,.89.55,3,3,0,0,0,1.15.2,4.22,4.22,0,0,0,1.41-.26,3.37,3.37,0,0,0,1.22-.76l.91,1.31a4.79,4.79,0,0,1-1.67,1A6.36,6.36,0,0,1,298.31,30.68Zm2.44-5.59a3.36,3.36,0,0,0-.18-.83,2.49,2.49,0,0,0-.48-.77,2.35,2.35,0,0,0-.79-.58,2.53,2.53,0,0,0-1.16-.23,2.57,2.57,0,0,0-1.1.22,2.2,2.2,0,0,0-.79.57,2.42,2.42,0,0,0-.48.78,2.32,2.32,0,0,0-.19.84Z" fill="#e52823"/><path d="M304.64,30.45V21.27h2V22.6A4.57,4.57,0,0,1,308,21.49a3.27,3.27,0,0,1,1.67-.45v2A2.8,2.8,0,0,0,309,23a2.72,2.72,0,0,0-.67.1,3.38,3.38,0,0,0-.69.26,3.68,3.68,0,0,0-.6.4,2.23,2.23,0,0,0-.41.48v6.25Z" fill="#e52823"/><path d="M311.23,30.45V21.27h2V22.6a4.57,4.57,0,0,1,1.31-1.11,3.3,3.3,0,0,1,1.67-.45v2a2.8,2.8,0,0,0-.61-.06,2.72,2.72,0,0,0-.67.1,3.52,3.52,0,0,0-.68.26,3,3,0,0,0-.6.4,2,2,0,0,0-.42.48v6.25Z" fill="#e52823"/><path d="M318.83,20.15a1.23,1.23,0,1,1,.88-.36A1.19,1.19,0,0,1,318.83,20.15Zm-1,10.3V21.27h2v9.18Z" fill="#e52823"/><path d="M326.59,30.68a4.89,4.89,0,0,1-1.91-.36,4.32,4.32,0,0,1-1.49-1,4.51,4.51,0,0,1-1-1.53,5.06,5.06,0,0,1-.35-1.93,5,5,0,0,1,.35-1.92,4.57,4.57,0,0,1,1-1.52,4.3,4.3,0,0,1,1.49-1,4.72,4.72,0,0,1,1.91-.37,5.05,5.05,0,0,1,1.22.14,4.25,4.25,0,0,1,1,.36,3.22,3.22,0,0,1,.75.52,4.11,4.11,0,0,1,.57.62l-1.31,1.2a2.46,2.46,0,0,0-2.11-1.07,2.55,2.55,0,0,0-2,.85,3.12,3.12,0,0,0-.76,2.19,3.53,3.53,0,0,0,.2,1.23,2.86,2.86,0,0,0,.57,1,2.5,2.5,0,0,0,.87.63,2.75,2.75,0,0,0,1.13.23,2.46,2.46,0,0,0,2.11-1.1L330.1,29a4.57,4.57,0,0,1-1.33,1.14A4.24,4.24,0,0,1,326.59,30.68Z" fill="#e52823"/><path d="M338,30.45l-2.79-3.8L333.86,28v2.47h-2V17.78h2V25.7l4.05-4.43h2.47l-3.8,4.16,3.88,5Z" fill="#e52823"/><path d="M345.67,19a2.3,2.3,0,0,1-.68,1.66,2.17,2.17,0,0,1-.75.51,2.42,2.42,0,0,1-1.83,0,2.38,2.38,0,0,1-1.25-3.09,2.29,2.29,0,0,1,.5-.75,2.49,2.49,0,0,1,.75-.49,2.3,2.3,0,0,1,1.83,0,2.27,2.27,0,0,1,.75.49,2.29,2.29,0,0,1,.5.75A2.39,2.39,0,0,1,345.67,19Zm-.33,0a2.09,2.09,0,0,0-.15-.79,1.92,1.92,0,0,0-.44-.64,2,2,0,0,0-.64-.43,2.09,2.09,0,0,0-.79-.15,2,2,0,0,0-1.42.58,1.92,1.92,0,0,0-.44.64,2.13,2.13,0,0,0,0,1.57,2,2,0,0,0,.44.63,2.21,2.21,0,0,0,.64.44,2,2,0,0,0,.78.16,2.1,2.1,0,0,0,.79-.16,2.21,2.21,0,0,0,.64-.44,2,2,0,0,0,.44-.63A2.08,2.08,0,0,0,345.34,19ZM344,20.32l-.7-1.06h-.48v1.06h-.36V17.63h1.1a1,1,0,0,1,.61.22.83.83,0,0,1,.17,1,.82.82,0,0,1-.2.25,1.1,1.1,0,0,1-.23.13.54.54,0,0,1-.18,0l.72,1.07Zm0-1.87a.46.46,0,0,0-.15-.36.53.53,0,0,0-.34-.14h-.73v1h.73a.53.53,0,0,0,.34-.14A.42.42,0,0,0,344,18.45Z" fill="#e52823"/><path d="M356,34.17a6.68,6.68,0,0,1-2.09-.29,5,5,0,0,1-1.77-1.07l.93-1.45a3.12,3.12,0,0,0,1.29.91,4.66,4.66,0,0,0,1.64.27,4.11,4.11,0,0,0,1-.12,2.53,2.53,0,0,0,.87-.43,2.25,2.25,0,0,0,.63-.79,2.76,2.76,0,0,0,.23-1.23v-1a4,4,0,0,1-1.28,1.12,3.33,3.33,0,0,1-1.66.42,4.14,4.14,0,0,1-1.62-.32,3.41,3.41,0,0,1-1.3-.91,4.22,4.22,0,0,1-.84-1.47,6.64,6.64,0,0,1,0-4,4.27,4.27,0,0,1,.84-1.48,3.47,3.47,0,0,1,1.29-.92,4.09,4.09,0,0,1,1.63-.32,3.56,3.56,0,0,1,2.94,1.51V21.27h2V30a4.5,4.5,0,0,1-.42,2.06,3.55,3.55,0,0,1-1.09,1.29,4.24,4.24,0,0,1-1.52.66A7.46,7.46,0,0,1,356,34.17Zm.36-5.49a3,3,0,0,0,2.35-1.21V24a3,3,0,0,0-2.35-1.22,2.39,2.39,0,0,0-1.9.81,3.14,3.14,0,0,0-.7,2.14,3.08,3.08,0,0,0,.7,2.12A2.38,2.38,0,0,0,356.36,28.68Z" fill="#e52823"/><path d="M363.29,30.45V21.27h2V22.6a4.57,4.57,0,0,1,1.31-1.11,3.3,3.3,0,0,1,1.67-.45v2a2.8,2.8,0,0,0-.61-.06,2.72,2.72,0,0,0-.67.1,3.29,3.29,0,0,0-.68.26,3,3,0,0,0-.6.4,2,2,0,0,0-.42.48v6.25Z" fill="#e52823"/><path d="M376.35,30.45V29.2a4.18,4.18,0,0,1-1.29,1.08,3.54,3.54,0,0,1-1.66.4,4,4,0,0,1-1.62-.33,3.56,3.56,0,0,1-1.3-1,4.37,4.37,0,0,1-.84-1.52,6.33,6.33,0,0,1-.3-2,6.21,6.21,0,0,1,.3-2,4.37,4.37,0,0,1,.84-1.52,3.67,3.67,0,0,1,1.29-1A4,4,0,0,1,373.4,21a3.69,3.69,0,0,1,1.64.38,3.79,3.79,0,0,1,1.31,1.13V21.27h2v9.18ZM374,28.91a2.72,2.72,0,0,0,.69-.09,3.61,3.61,0,0,0,.67-.27,2.87,2.87,0,0,0,.57-.39,2.74,2.74,0,0,0,.43-.48V24.05a2.74,2.74,0,0,0-.43-.48,3.41,3.41,0,0,0-.57-.4,3,3,0,0,0-.67-.26,2.35,2.35,0,0,0-.69-.1,2.45,2.45,0,0,0-1.08.23,2.4,2.4,0,0,0-.82.63,2.61,2.61,0,0,0-.52,1,4,4,0,0,0-.18,1.22,4.06,4.06,0,0,0,.18,1.23,2.92,2.92,0,0,0,.52,1,2.4,2.4,0,0,0,.82.63A2.45,2.45,0,0,0,374,28.91Z" fill="#e52823"/><path d="M381.93,20.15a1.24,1.24,0,0,1,0-2.47,1.21,1.21,0,0,1,.88.36,1.24,1.24,0,0,1,0,1.75A1.21,1.21,0,0,1,381.93,20.15Zm-1,10.3V21.27h2v9.18Z" fill="#e52823"/><path d="M391.72,30.45V24.71a1.82,1.82,0,0,0-.51-1.49,2.07,2.07,0,0,0-1.35-.41,2.6,2.6,0,0,0-1.38.38,3.58,3.58,0,0,0-1,.84v6.42h-2V21.27h2v1.24a3.58,3.58,0,0,1,.56-.53,4,4,0,0,1,.75-.48,4.43,4.43,0,0,1,1.94-.46,2.64,2.64,0,0,1,3,2.95v6.46Z" fill="#e52823"/><path d="M278.69,51.25V43.8h-1.52V42.07h1.52v-.51a3.22,3.22,0,0,1,.81-2.36,2.84,2.84,0,0,1,2.08-.81,3.34,3.34,0,0,1,1.61.34l-.44,1.5A1.41,1.41,0,0,0,282,40a1.18,1.18,0,0,0-.94.38,1.68,1.68,0,0,0-.34,1.16v.51h1.86V43.8h-1.86v7.45Z" fill="#e52823"/><path d="M284.06,51.25V42.07h2V43.4a4.57,4.57,0,0,1,1.31-1.11,3.3,3.3,0,0,1,1.67-.45v2a2.8,2.8,0,0,0-.61-.06,2.32,2.32,0,0,0-.67.1,3.52,3.52,0,0,0-.68.26,3,3,0,0,0-.6.4,1.86,1.86,0,0,0-.42.48v6.25Z" fill="#e52823"/><path d="M294.91,51.48a5.51,5.51,0,0,1-1.93-.34,4.57,4.57,0,0,1-1.52-1,4.69,4.69,0,0,1-1-1.53,5.29,5.29,0,0,1-.36-2,5.09,5.09,0,0,1,.34-1.87,4.62,4.62,0,0,1,1-1.53,4.69,4.69,0,0,1,1.47-1,4.85,4.85,0,0,1,3.74,0,4.16,4.16,0,0,1,1.43,1,4.62,4.62,0,0,1,.9,1.58,6.06,6.06,0,0,1,.31,2v.5H292.2a3,3,0,0,0,.27,1,2.72,2.72,0,0,0,.59.8,2.57,2.57,0,0,0,.88.55,3.07,3.07,0,0,0,1.16.2,4.22,4.22,0,0,0,1.41-.26,3.37,3.37,0,0,0,1.22-.76l.91,1.31a4.79,4.79,0,0,1-1.67,1A6.36,6.36,0,0,1,294.91,51.48Zm2.44-5.59a2.91,2.91,0,0,0-.19-.83,2.28,2.28,0,0,0-.47-.77,2.35,2.35,0,0,0-.79-.58,2.95,2.95,0,0,0-2.26,0,2.2,2.2,0,0,0-.79.57,2.42,2.42,0,0,0-.48.78,2.32,2.32,0,0,0-.19.84Z" fill="#e52823"/><path d="M305.5,51.48a5.47,5.47,0,0,1-1.93-.34,4.38,4.38,0,0,1-1.52-1,4.56,4.56,0,0,1-1-1.53,5.29,5.29,0,0,1-.36-2,5.09,5.09,0,0,1,.34-1.87,4.62,4.62,0,0,1,1-1.53,4.69,4.69,0,0,1,1.47-1,4.64,4.64,0,0,1,1.88-.38,4.69,4.69,0,0,1,1.87.37,4.21,4.21,0,0,1,1.42,1,4.62,4.62,0,0,1,.9,1.58,6.06,6.06,0,0,1,.32,2v.5h-7.07a3.26,3.26,0,0,0,.27,1,2.91,2.91,0,0,0,.59.8,2.62,2.62,0,0,0,.89.55,3,3,0,0,0,1.16.2,4.21,4.21,0,0,0,1.4-.26,3.37,3.37,0,0,0,1.22-.76l.91,1.31a4.79,4.79,0,0,1-1.67,1A6.34,6.34,0,0,1,305.5,51.48Zm2.43-5.59a2.88,2.88,0,0,0-.18-.83,2.49,2.49,0,0,0-.48-.77,2.35,2.35,0,0,0-.79-.58,2.51,2.51,0,0,0-1.15-.23,2.59,2.59,0,0,0-1.11.22,2.29,2.29,0,0,0-.79.57,2.61,2.61,0,0,0-.48.78,2.55,2.55,0,0,0-.19.84Z" fill="#e52823"/><path d="M323.19,51.25V50a4.18,4.18,0,0,1-1.29,1.08,3.54,3.54,0,0,1-1.66.4,4,4,0,0,1-1.62-.33,3.47,3.47,0,0,1-1.3-.95,4.37,4.37,0,0,1-.84-1.52,6.32,6.32,0,0,1-.31-2,6.2,6.2,0,0,1,.31-2,4.37,4.37,0,0,1,.84-1.52,3.58,3.58,0,0,1,1.29-1,3.93,3.93,0,0,1,1.63-.34,3.62,3.62,0,0,1,1.63.38,3.73,3.73,0,0,1,1.32,1.13V38.58h2V51.25Zm-2.36-1.54a2.72,2.72,0,0,0,.69-.09,3.61,3.61,0,0,0,.67-.27,2.87,2.87,0,0,0,.57-.39,2.74,2.74,0,0,0,.43-.48V44.85a2.74,2.74,0,0,0-.43-.48,3.41,3.41,0,0,0-.57-.4,3,3,0,0,0-.67-.26,2.35,2.35,0,0,0-.69-.1,2.45,2.45,0,0,0-1.08.23,2.4,2.4,0,0,0-.82.63,2.61,2.61,0,0,0-.52,1,4,4,0,0,0-.18,1.22,4.06,4.06,0,0,0,.18,1.23,2.92,2.92,0,0,0,.52,1,2.4,2.4,0,0,0,.82.63A2.45,2.45,0,0,0,320.83,49.71Z" fill="#e52823"/><path d="M331.93,51.48a4.79,4.79,0,0,1-2-.39A4.42,4.42,0,0,1,328.47,50a4.25,4.25,0,0,1-.93-1.53,5.41,5.41,0,0,1,0-3.72A4.4,4.4,0,0,1,330,42.22a5.32,5.32,0,0,1,3.95,0,4.4,4.4,0,0,1,2.41,2.57,5.41,5.41,0,0,1,0,3.72,4.25,4.25,0,0,1-.93,1.53,4.42,4.42,0,0,1-1.48,1.05A4.78,4.78,0,0,1,331.93,51.48Zm0-1.77a2.38,2.38,0,0,0,1.13-.25,2.34,2.34,0,0,0,.83-.66,3.15,3.15,0,0,0,.51-1,4.08,4.08,0,0,0,0-2.33,3.09,3.09,0,0,0-.51-1,2.34,2.34,0,0,0-.83-.66,2.38,2.38,0,0,0-1.13-.25,2.46,2.46,0,0,0-2,.91,2.73,2.73,0,0,0-.51,1,3.86,3.86,0,0,0,0,2.33,2.78,2.78,0,0,0,.51,1,2.46,2.46,0,0,0,2,.91Z" fill="#e52823"/><path d="M342.41,55a6.73,6.73,0,0,1-2.09-.29,5,5,0,0,1-1.76-1.07l.93-1.45a3.12,3.12,0,0,0,1.29.91,4.6,4.6,0,0,0,1.63.27,4,4,0,0,0,1-.12,2.58,2.58,0,0,0,.88-.43,2.35,2.35,0,0,0,.62-.79,2.75,2.75,0,0,0,.24-1.23v-1a4,4,0,0,1-1.28,1.12,3.36,3.36,0,0,1-1.66.42,4.34,4.34,0,0,1-1.63-.31,3.59,3.59,0,0,1-1.29-.92,4.41,4.41,0,0,1-.85-1.47,6.85,6.85,0,0,1,0-4,4.45,4.45,0,0,1,.85-1.48,3.52,3.52,0,0,1,1.28-.92,4.14,4.14,0,0,1,1.64-.32,3.65,3.65,0,0,1,1.63.38,3.7,3.7,0,0,1,1.31,1.13V42.07h2v8.7a4.5,4.5,0,0,1-.41,2.06,3.57,3.57,0,0,1-1.1,1.29,4.16,4.16,0,0,1-1.52.66A7.4,7.4,0,0,1,342.41,55Zm.36-5.49a2.77,2.77,0,0,0,1.36-.36,2.84,2.84,0,0,0,1-.85V44.83a2.86,2.86,0,0,0-1-.86,2.77,2.77,0,0,0-1.36-.36,2.4,2.4,0,0,0-1.9.81,3.19,3.19,0,0,0-.7,2.14,3.13,3.13,0,0,0,.7,2.12A2.39,2.39,0,0,0,342.77,49.48Z" fill="#e52823"/><path d="M355.1,51.25V43.8h-1.52V42.07h1.52v-.51a3.22,3.22,0,0,1,.82-2.36,2.84,2.84,0,0,1,2.07-.81,3.36,3.36,0,0,1,1.62.34l-.44,1.5a1.42,1.42,0,0,0-.8-.21,1.2,1.2,0,0,0-.94.38,1.73,1.73,0,0,0-.33,1.16v.51H359V43.8H357.1v7.45Z" fill="#e52823"/><path d="M364.64,51.48a4.78,4.78,0,0,1-2-.39A4.46,4.46,0,0,1,361.18,50a4.55,4.55,0,0,1-.93-1.53,5.57,5.57,0,0,1,0-3.72,4.76,4.76,0,0,1,.93-1.53,4.44,4.44,0,0,1,1.49-1,5.32,5.32,0,0,1,3.95,0,4.5,4.5,0,0,1,1.48,1,4.43,4.43,0,0,1,.93,1.53,5.57,5.57,0,0,1,0,3.72A4.25,4.25,0,0,1,368.1,50a4.52,4.52,0,0,1-1.48,1.05A4.79,4.79,0,0,1,364.64,51.48Zm0-1.77a2.45,2.45,0,0,0,1.14-.25,2.34,2.34,0,0,0,.83-.66,2.93,2.93,0,0,0,.5-1,4.08,4.08,0,0,0,0-2.33,2.88,2.88,0,0,0-.5-1,2.34,2.34,0,0,0-.83-.66,2.45,2.45,0,0,0-1.14-.25,2.4,2.4,0,0,0-1.12.25,2.34,2.34,0,0,0-.83.66,2.92,2.92,0,0,0-.52,1,4.08,4.08,0,0,0,0,2.33,3,3,0,0,0,.52,1,2.34,2.34,0,0,0,.83.66A2.4,2.4,0,0,0,364.64,49.71Z" fill="#e52823"/><path d="M375.55,51.48a4.79,4.79,0,0,1-2-.39A4.52,4.52,0,0,1,372.09,50a4.25,4.25,0,0,1-.93-1.53,5.57,5.57,0,0,1,0-3.72,4.43,4.43,0,0,1,.93-1.53,4.5,4.5,0,0,1,1.48-1,5.32,5.32,0,0,1,3.95,0,4.44,4.44,0,0,1,1.49,1,4.76,4.76,0,0,1,.93,1.53,5.57,5.57,0,0,1,0,3.72A4.55,4.55,0,0,1,379,50a4.46,4.46,0,0,1-1.49,1.05A4.78,4.78,0,0,1,375.55,51.48Zm0-1.77a2.45,2.45,0,0,0,1.14-.25,2.3,2.3,0,0,0,.82-.66,3,3,0,0,0,.51-1,4.08,4.08,0,0,0,0-2.33,2.9,2.9,0,0,0-.51-1,2.3,2.3,0,0,0-.82-.66,2.45,2.45,0,0,0-1.14-.25,2.4,2.4,0,0,0-1.12.25,2.47,2.47,0,0,0-.84.66,2.73,2.73,0,0,0-.51,1,4.08,4.08,0,0,0,0,2.33,2.78,2.78,0,0,0,.51,1,2.47,2.47,0,0,0,.84.66A2.4,2.4,0,0,0,375.55,49.71Z" fill="#e52823"/><path d="M388.75,51.25V50a4,4,0,0,1-1.28,1.08,3.54,3.54,0,0,1-1.66.4,4,4,0,0,1-1.63-.33,3.44,3.44,0,0,1-1.29-.95,4.37,4.37,0,0,1-.84-1.52,6.06,6.06,0,0,1-.31-2,5.94,5.94,0,0,1,.31-2,4.37,4.37,0,0,1,.84-1.52,3.63,3.63,0,0,1,1.28-1,4,4,0,0,1,1.64-.34,3.56,3.56,0,0,1,2.94,1.51V38.58h2V51.25Zm-2.35-1.54a2.78,2.78,0,0,0,.69-.09,3.91,3.91,0,0,0,.67-.27,3.6,3.6,0,0,0,.57-.39,2.33,2.33,0,0,0,.42-.48V44.85a2.33,2.33,0,0,0-.42-.48,4.49,4.49,0,0,0-.57-.4,3.21,3.21,0,0,0-.67-.26,2.4,2.4,0,0,0-.69-.1,2.53,2.53,0,0,0-1.09.23,2.47,2.47,0,0,0-.81.63,2.62,2.62,0,0,0-.53,1,4,4,0,0,0-.18,1.22,4.06,4.06,0,0,0,.18,1.23,2.94,2.94,0,0,0,.53,1,2.47,2.47,0,0,0,.81.63A2.53,2.53,0,0,0,386.4,49.71Z" fill="#e52823"/><path d="M395.8,50.53a3.69,3.69,0,0,1-.48,1.84A4.33,4.33,0,0,1,394,53.78l-.92-.74a2.8,2.8,0,0,0,.46-.35,4.37,4.37,0,0,0,.42-.44,3.84,3.84,0,0,0,.32-.5,1.48,1.48,0,0,0,.17-.5l-.13,0-.19,0a1.06,1.06,0,0,1-.8-.35,1.17,1.17,0,0,1-.32-.87,1.25,1.25,0,0,1,.37-.91,1.19,1.19,0,0,1,.92-.38,1.41,1.41,0,0,1,1,.45A1.74,1.74,0,0,1,395.8,50.53Z" fill="#e52823"/><path d="M282.15,72.28a6.51,6.51,0,0,1-2.91-.6,5.26,5.26,0,0,1-1.88-1.45l1.21-1.47a4.2,4.2,0,0,0,1.54,1.13,4.72,4.72,0,0,0,2,.41,3.18,3.18,0,0,0,1.95-.53,1.68,1.68,0,0,0,.69-1.41A1.47,1.47,0,0,0,284,67a4.1,4.1,0,0,0-2.09-.43h-.85a3.71,3.71,0,0,0-.59,0v-2h1.44a5.52,5.52,0,0,0,1-.09,3,3,0,0,0,.83-.3,1.72,1.72,0,0,0,.55-.52,1.4,1.4,0,0,0,.2-.75,1.52,1.52,0,0,0-.2-.77,1.58,1.58,0,0,0-.55-.54,2.52,2.52,0,0,0-.82-.33,4,4,0,0,0-1-.12,4.42,4.42,0,0,0-3.29,1.41l-1.14-1.39a5.62,5.62,0,0,1,1.89-1.43,6.14,6.14,0,0,1,2.75-.56,7.18,7.18,0,0,1,1.86.23,4.62,4.62,0,0,1,1.43.68,3,3,0,0,1,.93,1.06,3,3,0,0,1,.34,1.42,2.66,2.66,0,0,1-.25,1.15,3.06,3.06,0,0,1-.64.86,3.31,3.31,0,0,1-.88.59,3.73,3.73,0,0,1-1,.3,4,4,0,0,1,1,.27,3.71,3.71,0,0,1,1,.59,3.21,3.21,0,0,1,.73.93,2.8,2.8,0,0,1,.28,1.3,3.27,3.27,0,0,1-1.29,2.66,4.58,4.58,0,0,1-1.51.77A6.44,6.44,0,0,1,282.15,72.28Z" fill="#e52823"/><path d="M293.68,72.28a4.45,4.45,0,0,1-2.31-.58,4.92,4.92,0,0,1-1.57-1.51,7.09,7.09,0,0,1-.9-2.1,9.79,9.79,0,0,1,0-4.73,7.09,7.09,0,0,1,.9-2.1,4.79,4.79,0,0,1,1.57-1.5,4.93,4.93,0,0,1,4.6,0,4.79,4.79,0,0,1,1.57,1.5,7.09,7.09,0,0,1,.9,2.1,9.79,9.79,0,0,1,0,4.73,7.09,7.09,0,0,1-.9,2.1A4.92,4.92,0,0,1,296,71.7,4.43,4.43,0,0,1,293.68,72.28Zm0-2a2.22,2.22,0,0,0,1.3-.38,2.7,2.7,0,0,0,.86-1,5.11,5.11,0,0,0,.48-1.46,9.72,9.72,0,0,0,.15-1.74,10.85,10.85,0,0,0-.14-1.74,4.76,4.76,0,0,0-.48-1.45,2.81,2.81,0,0,0-.86-1,2.5,2.5,0,0,0-2.62,0,2.74,2.74,0,0,0-.87,1A5,5,0,0,0,291,64a10.17,10.17,0,0,0,0,3.48,5.11,5.11,0,0,0,.48,1.46,2.82,2.82,0,0,0,.87,1A2.21,2.21,0,0,0,293.68,70.3Z" fill="#e52823"/><path d="M308.08,72.28a2.35,2.35,0,0,1-1.76-.61,2.42,2.42,0,0,1-.6-1.77V59.38h2v10a1.32,1.32,0,0,0,.22.79.73.73,0,0,0,.65.31,1.32,1.32,0,0,0,.53-.1,1,1,0,0,0,.37-.24l.47,1.52a2.44,2.44,0,0,1-.72.42A3.43,3.43,0,0,1,308.08,72.28Z" fill="#e52823"/><path d="M311.16,72.05V59.38h2v4.77a3.6,3.6,0,0,1,3-1.51,4,4,0,0,1,1.64.34,3.58,3.58,0,0,1,1.29,1,4.39,4.39,0,0,1,.85,1.52,6.21,6.21,0,0,1,.3,2,6.33,6.33,0,0,1-.3,2A4.25,4.25,0,0,1,319,71a3.47,3.47,0,0,1-1.3,1,4,4,0,0,1-1.62.33,3.53,3.53,0,0,1-1.65-.4,4.11,4.11,0,0,1-1.3-1.08v1.25Zm2-2.76a2.69,2.69,0,0,0,1,.87,3,3,0,0,0,1.38.35,2.29,2.29,0,0,0,1.89-.85,3.41,3.41,0,0,0,.69-2.21,4,4,0,0,0-.18-1.22,2.61,2.61,0,0,0-.52-1,2.42,2.42,0,0,0-1.88-.86,2.84,2.84,0,0,0-1.38.36,2.71,2.71,0,0,0-1,.88Z" fill="#e52823"/><path d="M325.35,72.28a6.47,6.47,0,0,1-2.2-.37,4.88,4.88,0,0,1-1.73-1.08l.91-1.42a3.69,3.69,0,0,0,.59.47,4.23,4.23,0,0,0,.76.41,5.44,5.44,0,0,0,.86.29,3.92,3.92,0,0,0,.89.1,2.35,2.35,0,0,0,1.37-.33,1,1,0,0,0,.45-.88.73.73,0,0,0-.41-.69,4.12,4.12,0,0,0-1-.38l-1.34-.3a5.72,5.72,0,0,1-1.34-.46,2.86,2.86,0,0,1-1-.82,2.2,2.2,0,0,1-.41-1.4,2.51,2.51,0,0,1,.24-1.08,2.64,2.64,0,0,1,.69-.88,3.57,3.57,0,0,1,1.13-.6,5.22,5.22,0,0,1,1.55-.22,5.28,5.28,0,0,1,2.07.37,5.12,5.12,0,0,1,1.49.91l-.84,1.4a3.52,3.52,0,0,0-1.13-.78,3.89,3.89,0,0,0-1.59-.32,2.13,2.13,0,0,0-1.24.32,1,1,0,0,0-.45.82A.66.66,0,0,0,324,66a4.26,4.26,0,0,0,1,.35l1.34.3a5.93,5.93,0,0,1,1.34.48,2.83,2.83,0,0,1,1,.86,2.36,2.36,0,0,1,.41,1.45,2.63,2.63,0,0,1-.25,1.14,2.46,2.46,0,0,1-.73.91,3.75,3.75,0,0,1-1.2.6A5.76,5.76,0,0,1,325.35,72.28Z" fill="#e52823"/><path d="M332.21,72.26a1.25,1.25,0,0,1-.94-.4,1.31,1.31,0,0,1-.39-1,1.25,1.25,0,0,1,.39-.92,1.33,1.33,0,0,1,1.88,0,1.25,1.25,0,0,1,.39.92,1.31,1.31,0,0,1-.39,1A1.25,1.25,0,0,1,332.21,72.26Z" fill="#e52823"/><path d="M344.56,72.24A7.18,7.18,0,0,1,342,71.6a6.37,6.37,0,0,1-1.86-1.32l1.26-1.73a5.7,5.7,0,0,0,1.34,1.08,4.91,4.91,0,0,0,1.83.63V66.57c-.49-.13-1-.27-1.45-.44a4.88,4.88,0,0,1-1.29-.65,3.36,3.36,0,0,1-.92-1,3.15,3.15,0,0,1-.35-1.55,3.29,3.29,0,0,1,.29-1.36,3.47,3.47,0,0,1,.8-1.14,4.37,4.37,0,0,1,1.27-.8,5.26,5.26,0,0,1,1.65-.39V57.46h1.52v1.76a7.12,7.12,0,0,1,2.12.57A6.25,6.25,0,0,1,349.9,61l-1.26,1.66a4.42,4.42,0,0,0-1.2-.88,6.09,6.09,0,0,0-1.36-.47v3.28c.49.13,1,.28,1.48.45a4.84,4.84,0,0,1,1.32.68,3.4,3.4,0,0,1,.95,1.08,3.12,3.12,0,0,1,.37,1.59,4,4,0,0,1-.24,1.39,3.78,3.78,0,0,1-.75,1.2,4.06,4.06,0,0,1-1.29.87,5.71,5.71,0,0,1-1.84.44V74h-1.52Zm-1.73-9.5a1,1,0,0,0,.49.87,4.64,4.64,0,0,0,1.24.56v-3a2.34,2.34,0,0,0-1.26.51A1.36,1.36,0,0,0,342.83,62.74Zm5.09,5.81a1.11,1.11,0,0,0-.52-1,4.76,4.76,0,0,0-1.32-.6v3.3a2.28,2.28,0,0,0,1.42-.65A1.64,1.64,0,0,0,347.92,68.55Z" fill="#e52823"/><path d="M357,72.28a5.06,5.06,0,0,1-2.4-.53A4.41,4.41,0,0,1,353,70.33a6.1,6.1,0,0,1-.92-2.09,10.24,10.24,0,0,1-.3-2.52,8.73,8.73,0,0,1,.36-2.55,6.16,6.16,0,0,1,1.07-2.07,5,5,0,0,1,1.75-1.4,5.41,5.41,0,0,1,2.41-.51,5.22,5.22,0,0,1,2.08.38,4.75,4.75,0,0,1,1.55,1l-1,1.67a3.78,3.78,0,0,0-1.09-.8,3.36,3.36,0,0,0-1.51-.3,3,3,0,0,0-1.43.34,3.21,3.21,0,0,0-1,.92,4,4,0,0,0-.65,1.33,5.93,5.93,0,0,0-.22,1.59v.36a4.75,4.75,0,0,1,.58-.63,5.14,5.14,0,0,1,.79-.57,4.64,4.64,0,0,1,1-.42,3.56,3.56,0,0,1,1.07-.16,5.11,5.11,0,0,1,1.63.26,4.16,4.16,0,0,1,1.36.78,3.63,3.63,0,0,1,.93,1.29,4.27,4.27,0,0,1,.34,1.77,4.16,4.16,0,0,1-.33,1.65,4,4,0,0,1-.94,1.36,4.59,4.59,0,0,1-1.47.92A5.39,5.39,0,0,1,357,72.28Zm-.14-2a2.75,2.75,0,0,0,1.11-.2,2.47,2.47,0,0,0,.79-.52,2.21,2.21,0,0,0,.49-.71,2,2,0,0,0,.16-.77,2.32,2.32,0,0,0-.21-1,2,2,0,0,0-.57-.7,2.39,2.39,0,0,0-.83-.41,3.44,3.44,0,0,0-1-.13,3.18,3.18,0,0,0-1.56.4A3.34,3.34,0,0,0,354,67.32a4.92,4.92,0,0,0,.21,1,3,3,0,0,0,.51,1,2.84,2.84,0,0,0,.86.71A2.6,2.6,0,0,0,356.83,70.3Z" fill="#e52823"/><path d="M368.94,72.05V69.18h-6V67.39l5.2-8h3.06V67.2h1.69v2h-1.69v2.87Zm0-10.68-3.86,5.83h3.86Z" fill="#e52823"/><path d="M375.72,72.26a1.25,1.25,0,0,1-.94-.4,1.31,1.31,0,0,1-.39-1,1.25,1.25,0,0,1,.39-.92,1.33,1.33,0,0,1,1.88,0,1.25,1.25,0,0,1,.39.92,1.31,1.31,0,0,1-.39,1A1.25,1.25,0,0,1,375.72,72.26Z" fill="#e52823"/><path d="M383.11,72.26a5.25,5.25,0,0,1-2.1-.39,5.09,5.09,0,0,1-1.55-1l1.05-1.69a3.72,3.72,0,0,0,1.09.83,3.5,3.5,0,0,0,1.51.29,3,3,0,0,0,1.49-.36,3.19,3.19,0,0,0,1-1,4.19,4.19,0,0,0,.6-1.34,5.64,5.64,0,0,0,.2-1.53v-.18a1.15,1.15,0,0,0,0-.18,3,3,0,0,1-.57.64,4.61,4.61,0,0,1-.78.57,4.87,4.87,0,0,1-1,.41,4,4,0,0,1-1.1.15,5.09,5.09,0,0,1-1.62-.26,3.93,3.93,0,0,1-1.35-.77,3.66,3.66,0,0,1-.92-1.28,4.32,4.32,0,0,1-.34-1.78,4.19,4.19,0,0,1,.33-1.65,4,4,0,0,1,.94-1.36,4.56,4.56,0,0,1,1.47-.91,5.39,5.39,0,0,1,1.93-.33,5.08,5.08,0,0,1,2.39.52,4.47,4.47,0,0,1,1.62,1.43,6,6,0,0,1,.92,2.09,10.11,10.11,0,0,1,.3,2.49,8.54,8.54,0,0,1-.37,2.57,6.1,6.1,0,0,1-1.06,2.08,5.12,5.12,0,0,1-1.75,1.4A5.41,5.41,0,0,1,383.11,72.26Zm.53-6.65a3.15,3.15,0,0,0,1.55-.41,3.78,3.78,0,0,0,1.23-1.09,5.72,5.72,0,0,0-.23-1,3.12,3.12,0,0,0-.51-1,2.62,2.62,0,0,0-.84-.7,2.67,2.67,0,0,0-1.26-.28,2.92,2.92,0,0,0-1.1.2,2.65,2.65,0,0,0-.79.52,2,2,0,0,0-.49.71,2,2,0,0,0-.16.78,2.25,2.25,0,0,0,.21,1,2,2,0,0,0,.57.71,2.58,2.58,0,0,0,.83.41A4.07,4.07,0,0,0,383.64,65.61Z" fill="#e52823"/><path d="M394.53,72.26a5.25,5.25,0,0,1-2.1-.39,5.09,5.09,0,0,1-1.55-1l1.05-1.69A3.72,3.72,0,0,0,393,70a3.5,3.5,0,0,0,1.51.29,3,3,0,0,0,1.49-.36,3.3,3.3,0,0,0,1.05-1,4.19,4.19,0,0,0,.6-1.34,5.64,5.64,0,0,0,.2-1.53v-.18a.58.58,0,0,0,0-.18,3,3,0,0,1-.56.64,4.32,4.32,0,0,1-.79.57,4.78,4.78,0,0,1-.95.41,4,4,0,0,1-1.1.15,5.09,5.09,0,0,1-1.62-.26,3.93,3.93,0,0,1-1.35-.77,3.66,3.66,0,0,1-.92-1.28,4.32,4.32,0,0,1-.34-1.78,4.19,4.19,0,0,1,.33-1.65,4,4,0,0,1,.94-1.36A4.46,4.46,0,0,1,393,59.5a5.39,5.39,0,0,1,1.93-.33,5,5,0,0,1,2.38.52,4.42,4.42,0,0,1,1.63,1.43,6.21,6.21,0,0,1,.92,2.09,10.11,10.11,0,0,1,.3,2.49,8.87,8.87,0,0,1-.37,2.57,6.1,6.1,0,0,1-1.06,2.08,5.12,5.12,0,0,1-1.75,1.4A5.41,5.41,0,0,1,394.53,72.26Zm.53-6.65a3.15,3.15,0,0,0,1.55-.41,3.65,3.65,0,0,0,1.22-1.09,5,5,0,0,0-.22-1,3.12,3.12,0,0,0-.51-1,2.62,2.62,0,0,0-.84-.7,2.67,2.67,0,0,0-1.26-.28,2.92,2.92,0,0,0-1.1.2,2.83,2.83,0,0,0-.8.52,2.12,2.12,0,0,0-.48.71,2,2,0,0,0-.16.78,2.25,2.25,0,0,0,.21,1,2,2,0,0,0,.57.71,2.58,2.58,0,0,0,.83.41A4.07,4.07,0,0,0,395.06,65.61Z" fill="#e52823"/></g></g></svg>