<svg xmlns="http://www.w3.org/2000/svg" xmlns:xlink="http://www.w3.org/1999/xlink" viewBox="0 0 729 91"><defs><clipPath id="clip-path"><rect x="601.1" y="52.74" width="99.76" height="25.27" fill="none"/></clipPath></defs><title>end-frame</title><g id="Layer_2" data-name="Layer 2"><g id="CONTENT"><rect x="0.5" y="0.5" width="728" height="90" stroke="#231f20" stroke-miterlimit="10" stroke-width="1"/><g id="white_logo" data-name="white logo"><g clip-path="url(#clip-path)"><g clip-path="url(#clip-path)"><path d="M612.39,56.74c15-4.59,22.61,6.91,22.61,6.91s-4.77-16.06-22.61-6.91" fill="#fff"/><path d="M641.43,57.33c0-.06,0-.48,0-.54a11.22,11.22,0,0,0-5.92,8.62s2-4.76,6.85-6.2a2.84,2.84,0,0,1-.93-1.88" fill="#fff"/><path d="M622.27,64s0,2.27,0,3.41c-.58,0-3.07-.15-4.17-.19,0,.61,0,1.24,0,1.85,1.31,0,2.68.19,4,.17,0,1.1,0,2,0,3.15-1.31,0-2.62-.1-3.93-.13v2c1.41,0,2.83.15,4.24.13,0,0,0,3.35,0,3.35-2.8,0-6.11-.22-9.25-.48l.22-14c1.32.16,5.42.59,9,.7" fill="#fff"/><path d="M623.46,64.07l-.05,3.65c1.31.06,2.5.07,2.5.07l0,10.12a32.86,32.86,0,0,0,5.05-.07l-.06-10s2.23-.1,2.57-.13c0-1.34,0-2.39,0-3.72a89.2,89.2,0,0,1-9.95.11" fill="#fff"/><path d="M690.86,61.85v4.23c.85,0,1.82.22,2.67.29,0,3.53-.08,6.2-.09,9.73,2.38.29,4.06.56,4.72.68,0-3.53.13-6.31.14-9.84,0,0,2.51.39,2.56.43V63a75.49,75.49,0,0,0-10-1.17" fill="#fff"/><path d="M606,68.66l-.44,0,0-2.87.42,0a1.46,1.46,0,0,1,1.46,1.54A1.19,1.19,0,0,1,606,68.66m1.11-6.76-6-1.08,0,14.65c1.54.3,2.94.56,4.43.72l0-4.23,1.62.18c2.59.24,5.2-.74,5.24-5,0-3.76-2.47-4.85-5.25-5.26" fill="#fff"/><path d="M657,75.51c.67-1.74,1.34-3.37,2-5.12.11,1.67.17,3.18.28,4.85,1.67-.18,3-.28,4.69-.38-.43-4.45-.81-9.23-1.24-13.67-1.44.12-2.87.25-4.31.39-.8,2.1-1.61,4.65-2.42,6.75-.77-1.94-1.55-4.22-2.33-6.17-1.45.21-4,.66-4.31.67l-1.56,14.11c1.14-.2,3.94-.64,4.78-.76.13-1.69.26-3.5.39-5.19.65,1.61,1.29,3.23,1.94,4.85l2.08-.33" fill="#fff"/><path d="M683.56,67.84l-.44,0c0-.94,0-1.89,0-2.83l.42,0A1.41,1.41,0,0,1,685,66.5a1.21,1.21,0,0,1-1.48,1.34m4.16,3c1.27-.57,2.2-1.81,2.23-4.26,0-3.71-2.57-5.29-5.22-5.49-2-.16-4-.26-6-.32-.07,4.71-.09,9-.16,13.72,1.5,0,3.15.16,4.46.26,0-1.32,0-2.3.05-3.63l2.42,3.93c1.84.17,3.73.4,5.58.67-1.16-1.72-2.2-3.19-3.35-4.88" fill="#fff"/><path d="M670.2,69.94c.31-1.17.63-2.4.94-3.56.36,1.17.71,2.34,1.07,3.51a18.86,18.86,0,0,1-2,0m3.27-9.26c-1.78,0-3.23,0-4.76.1-1.22,4.56-2.67,9.44-3.89,14,1.36,0,2.74-.11,4.1-.12.13-.48.27-1,.4-1.52l2.08,0s1.84-.06,1.84-.06c0,.18.22.66.45,1.46,1.37,0,2.73,0,4.09,0-1.47-4.83-3-9.48-4.31-13.86" fill="#fff"/><path d="M635,76.61a12.36,12.36,0,0,0,5.54,1.4c3.13,0,6.4-1.87,6.47-5.38,0-2.5-1.53-3.69-3.75-4.18l-1.18-.27c-.41-.09-1.06-.17-1.05-.72s.69-.78,1.15-.78a8.53,8.53,0,0,1,3.2.67c.44-1.17.88-2.34,1.33-3.52a10.57,10.57,0,0,0-4.56-1.09c-3.15,0-6.32,1.91-6.39,5.4,0,2.3,1.66,3.56,3.71,3.94l1,.19c.48.1,1.16.16,1.15.82s-.83.74-1.34.74a6.25,6.25,0,0,1-3.6-1.18c-.54,1.22-1.18,2.74-1.73,4" fill="#fff"/><path d="M646.33,52.74a3.53,3.53,0,1,0,3.47,3.57,3.53,3.53,0,0,0-3.47-3.57M647.6,54a4.24,4.24,0,0,0-3.78,2.21s0,0,0,.06a2.53,2.53,0,0,1,.09-1,2.4,2.4,0,0,1,2.93-1.71,2.29,2.29,0,0,1,.83.44l-.06,0" fill="#fff"/></g></g></g><path d="M415.19,90.5c9.82-34.77,39.92-56.95,76.15-56.95,35.69,0,66,23.85,76.09,56.7" fill="#e52823"/><path d="M11.14,16.22H21a6,6,0,0,1,2.92.66,4.6,4.6,0,0,1,1.84,1.73A4.7,4.7,0,0,1,26.34,21a4.46,4.46,0,0,1-.92,2.86,3.86,3.86,0,0,1-2.3,1.42,3.93,3.93,0,0,1,2.55,1.54,4.82,4.82,0,0,1,1,3.06,4.91,4.91,0,0,1-1.43,3.61,5.43,5.43,0,0,1-4,1.43H11.14Zm9,7.5a2.18,2.18,0,0,0,1.59-.57,2,2,0,0,0,.59-1.5,1.94,1.94,0,0,0-.6-1.45,2.13,2.13,0,0,0-1.58-.59h-5v4.11Zm.14,7.79a2.47,2.47,0,0,0,1.76-.6,2.26,2.26,0,0,0,0-3.17,2.4,2.4,0,0,0-1.76-.63H15.12v4.4Z" fill="#fff"/><path d="M30.58,34.32a3.69,3.69,0,0,1-1-2.76V16.22h3.55V30.61a1.69,1.69,0,0,0,.34,1.07,1.08,1.08,0,0,0,.9.42,2.09,2.09,0,0,0,.72-.12.91.91,0,0,0,.48-.28l.76,2.69a4.34,4.34,0,0,1-2.94.87A3.94,3.94,0,0,1,30.58,34.32Z" fill="#fff"/><path d="M47.26,33.16a5.55,5.55,0,0,1-1.86,1.56,5.09,5.09,0,0,1-2.31.54A5.77,5.77,0,0,1,40,34.42,5.7,5.7,0,0,1,37.86,32a8.79,8.79,0,0,1-.77-3.82,8.72,8.72,0,0,1,.77-3.77A5.91,5.91,0,0,1,40,21.91a5.64,5.64,0,0,1,3.1-.87,5.09,5.09,0,0,1,2.29.53,5.24,5.24,0,0,1,1.88,1.54V21.37h3.58V34.9H47.26Zm0-7.39a3.41,3.41,0,0,0-1.32-1.11,3.87,3.87,0,0,0-1.76-.43,3.15,3.15,0,0,0-2.47,1.08,4.17,4.17,0,0,0-1,2.85,4.2,4.2,0,0,0,1,2.84,3.13,3.13,0,0,0,2.47,1.1,3.89,3.89,0,0,0,1.76-.44,3.33,3.33,0,0,0,1.32-1.11Z" fill="#fff"/><path d="M54.43,24.47A6.61,6.61,0,0,1,57,22a7.43,7.43,0,0,1,3.7-.91,7.19,7.19,0,0,1,3.25.68A5.8,5.8,0,0,1,66,23.47l-2.33,2.19a3.22,3.22,0,0,0-2.85-1.46,3.49,3.49,0,0,0-2.65,1.08,4,4,0,0,0-1,2.86,4,4,0,0,0,1,2.86,3.71,3.71,0,0,0,4.27.72,3.35,3.35,0,0,0,1.23-1.08L66,32.8a5.88,5.88,0,0,1-2.09,1.76,6.86,6.86,0,0,1-3.26.7,7.43,7.43,0,0,1-3.7-.91,6.57,6.57,0,0,1-2.54-2.53,7.73,7.73,0,0,1,0-7.35Z" fill="#fff"/><path d="M73.52,29.69,71.9,31.43V34.9H68.34V16.22H71.9V27.39l5.12-6h4.37L76,27.51l5.52,7.39H77.11Z" fill="#fff"/><path d="M90.57,16.22h13.22v3.42H94.55V23.7h9v3.41h-9V34.9h-4Z" fill="#fff"/><path d="M106.48,21.37H110v1.85a5.92,5.92,0,0,1,1.91-1.55,5,5,0,0,1,2.41-.63v3.47a4.27,4.27,0,0,0-1-.11,4.69,4.69,0,0,0-1.91.45A3.21,3.21,0,0,0,110,25.94v9h-3.55Z" fill="#fff"/><path d="M116.82,18.76a2.13,2.13,0,0,1,3-3,2.15,2.15,0,0,1,0,3,2,2,0,0,1-1.51.63A2,2,0,0,1,116.82,18.76Zm-.26,2.61h3.55V34.9h-3.55Z" fill="#fff"/><path d="M132.94,33.16a5.75,5.75,0,0,1-1.86,1.56,5.11,5.11,0,0,1-2.32.54,5.82,5.82,0,0,1-3.08-.84A5.75,5.75,0,0,1,123.54,32a8.79,8.79,0,0,1-.77-3.82,8.72,8.72,0,0,1,.77-3.77,5.84,5.84,0,0,1,2.13-2.48,5.63,5.63,0,0,1,3.09-.87,5.1,5.1,0,0,1,2.3.53,5.33,5.33,0,0,1,1.88,1.54V16.22h3.58V34.9h-3.58Zm0-7.41a3.33,3.33,0,0,0-1.32-1.11,3.92,3.92,0,0,0-1.76-.44,3.13,3.13,0,0,0-2.47,1.1,4.22,4.22,0,0,0-1,2.86,4.2,4.2,0,0,0,1,2.84,3.13,3.13,0,0,0,2.47,1.1,3.92,3.92,0,0,0,1.76-.44,3.33,3.33,0,0,0,1.32-1.11Z" fill="#fff"/><path d="M149.35,33.16a5.68,5.68,0,0,1-1.87,1.56,5.09,5.09,0,0,1-2.31.54,5.79,5.79,0,0,1-3.08-.84A5.68,5.68,0,0,1,140,32a8.79,8.79,0,0,1-.77-3.82,8.72,8.72,0,0,1,.77-3.77,5.78,5.78,0,0,1,2.13-2.48,5.6,5.6,0,0,1,3.09-.87,5.1,5.1,0,0,1,2.3.53,5.33,5.33,0,0,1,1.88,1.54V21.37h3.58V34.9h-3.58Zm0-7.39A3.41,3.41,0,0,0,148,24.66a3.91,3.91,0,0,0-1.77-.43,3.14,3.14,0,0,0-2.46,1.08,4.17,4.17,0,0,0-1,2.85,4.2,4.2,0,0,0,1,2.84,3.13,3.13,0,0,0,2.46,1.1,3.93,3.93,0,0,0,1.77-.44,3.33,3.33,0,0,0,1.32-1.11Z" fill="#fff"/><path d="M157.89,35.79a4.23,4.23,0,0,0,1.79,1.26,6.26,6.26,0,0,0,2.27.42,3.79,3.79,0,0,0,2.68-.89,3.36,3.36,0,0,0,1-2.58V32.6a6.56,6.56,0,0,1-2,1.46,6.27,6.27,0,0,1-2.75.58,4.38,4.38,0,0,1-3.28-1.12,4.27,4.27,0,0,1-1.09-3.13v-9H160V29a2.47,2.47,0,0,0,.65,1.92,2.7,2.7,0,0,0,1.85.57,3.57,3.57,0,0,0,1.76-.45,4.33,4.33,0,0,0,1.32-1.09V21.37h3.55V33.83a6.14,6.14,0,0,1-1.94,4.83A7.64,7.64,0,0,1,162,40.39a8.3,8.3,0,0,1-5.66-2Z" fill="#fff"/><path d="M189.13,33.16a5.55,5.55,0,0,1-1.86,1.56,5.09,5.09,0,0,1-2.31.54,5.79,5.79,0,0,1-3.08-.84A5.68,5.68,0,0,1,179.74,32a8.79,8.79,0,0,1-.77-3.82,8.72,8.72,0,0,1,.77-3.77,5.78,5.78,0,0,1,2.13-2.48A5.58,5.58,0,0,1,185,21a5.14,5.14,0,0,1,2.3.53,5.21,5.21,0,0,1,1.87,1.54V16.22h3.59V34.9h-3.59Zm0-7.41a3.29,3.29,0,0,0-1.31-1.11,3.93,3.93,0,0,0-1.77-.44,3.11,3.11,0,0,0-2.46,1.1,4.17,4.17,0,0,0-1,2.86,4.15,4.15,0,0,0,1,2.84,3.11,3.11,0,0,0,2.46,1.1,3.93,3.93,0,0,0,1.77-.44,3.29,3.29,0,0,0,1.31-1.11Z" fill="#fff"/><path d="M196.27,24.56A7.09,7.09,0,0,1,205.91,22a6.44,6.44,0,0,1,2.39,2.64,8.47,8.47,0,0,1,.85,3.87v.79H199.1a3.43,3.43,0,0,0,1.21,2.26,3.93,3.93,0,0,0,2.68.9,5.8,5.8,0,0,0,2-.36,4.65,4.65,0,0,0,1.64-1l1.56,2.3a6.81,6.81,0,0,1-2.46,1.38,9.78,9.78,0,0,1-3.11.49,7.68,7.68,0,0,1-3.69-.88,6.36,6.36,0,0,1-2.59-2.5,7.78,7.78,0,0,1,0-7.32Zm3.76.21a3.66,3.66,0,0,0-1,2.09h6.66a3.44,3.44,0,0,0-.91-2.07,3.55,3.55,0,0,0-4.77,0Z" fill="#fff"/><path d="M221,33.16a5.68,5.68,0,0,1-1.87,1.56,5.09,5.09,0,0,1-2.31.54,5.79,5.79,0,0,1-3.08-.84A5.68,5.68,0,0,1,211.63,32a8.79,8.79,0,0,1-.77-3.82,8.72,8.72,0,0,1,.77-3.77,5.78,5.78,0,0,1,2.13-2.48,5.6,5.6,0,0,1,3.09-.87,5.1,5.1,0,0,1,2.3.53A5.33,5.33,0,0,1,221,23.11V21.37h3.58V34.9H221Zm0-7.39a3.41,3.41,0,0,0-1.32-1.11,3.9,3.9,0,0,0-1.76-.43,3.15,3.15,0,0,0-2.47,1.08,4.17,4.17,0,0,0-.95,2.85,4.2,4.2,0,0,0,.95,2.84A3.13,3.13,0,0,0,218,32.1a3.92,3.92,0,0,0,1.76-.44A3.33,3.33,0,0,0,221,30.55Z" fill="#fff"/><path d="M229.1,34.32a3.69,3.69,0,0,1-1-2.76V16.22h3.55V30.61a1.63,1.63,0,0,0,.34,1.07,1.08,1.08,0,0,0,.89.42,2.11,2.11,0,0,0,.73-.12.91.91,0,0,0,.48-.28l.76,2.69a4.35,4.35,0,0,1-2.95.87A3.91,3.91,0,0,1,229.1,34.32Z" fill="#fff"/><path d="M236.84,30.67A7.6,7.6,0,0,0,239,32a6.73,6.73,0,0,0,2.55.56,3.18,3.18,0,0,0,1.69-.37,1.15,1.15,0,0,0,.58-1,1.09,1.09,0,0,0-.67-1,9.09,9.09,0,0,0-2.05-.62,19.82,19.82,0,0,1-2.69-.67,4.41,4.41,0,0,1-1.84-1.22,3.3,3.3,0,0,1-.79-2.34,3.77,3.77,0,0,1,.66-2.13,4.48,4.48,0,0,1,1.92-1.55,7.15,7.15,0,0,1,3-.57,8.47,8.47,0,0,1,5.46,1.85l-1.43,2.43a5,5,0,0,0-1.72-1.12,5.88,5.88,0,0,0-2.29-.45,3,3,0,0,0-1.55.34,1,1,0,0,0-.57.92.94.94,0,0,0,.63.88,9.44,9.44,0,0,0,1.94.58,19.26,19.26,0,0,1,2.72.7,4.6,4.6,0,0,1,1.9,1.29,3.53,3.53,0,0,1,.81,2.45,3.84,3.84,0,0,1-.68,2.23,4.56,4.56,0,0,1-2,1.56,8.1,8.1,0,0,1-3.15.56A10.27,10.27,0,0,1,238,34.7a7.61,7.61,0,0,1-2.68-1.54Z" fill="#fff"/><path d="M13.41,66.45a12.28,12.28,0,0,0,3.88,2.73,11.76,11.76,0,0,0,5,1,5.94,5.94,0,0,0,3.59-.93,2.68,2.68,0,0,0,1.28-2.24,2.34,2.34,0,0,0-1.38-2.17,18.93,18.93,0,0,0-4.29-1.42A45.86,45.86,0,0,1,16.18,62a9,9,0,0,1-3.59-2.47,6.63,6.63,0,0,1-1.54-4.61,7.51,7.51,0,0,1,1.31-4.29,8.69,8.69,0,0,1,3.71-3.05,13.16,13.16,0,0,1,5.61-1.12A15.47,15.47,0,0,1,32.6,50.33l-3.32,4.36a11,11,0,0,0-3.76-2.28,12.23,12.23,0,0,0-4.26-.78,5.08,5.08,0,0,0-3,.78,2.46,2.46,0,0,0-1.08,2.09,2,2,0,0,0,1.31,1.93,24.15,24.15,0,0,0,4.28,1.33A37.79,37.79,0,0,1,28,59.3a9.23,9.23,0,0,1,3.66,2.55,6.64,6.64,0,0,1,1.53,4.58A8.21,8.21,0,0,1,30.35,73c-1.91,1.66-4.69,2.48-8.33,2.48q-7.44,0-11.89-4.45Z" fill="#fff"/><path d="M43.44,52.13H35.25V46.88H57.59v5.25H49.44V74.9h-6Z" fill="#fff"/><path d="M76.57,70.07H64.06L62.29,74.9H55.74l10.84-28h7.47l10.8,28H78.34ZM65.65,64.9h9.29L70.32,52.05Z" fill="#fff"/><path d="M97.78,64.86H93.42v10h-6v-28h13.11a10.33,10.33,0,0,1,5,1.16,8,8,0,0,1,3.28,3.21A9.46,9.46,0,0,1,110,55.91a8.44,8.44,0,0,1-1.78,5.59,7.81,7.81,0,0,1-4.35,2.73l6.3,10.67h-6.84Zm4.9-11.78a4.32,4.32,0,0,0-3-1.07H93.42v7.72h6.25a4.32,4.32,0,0,0,3-1.07,3.87,3.87,0,0,0,0-5.58Z" fill="#fff"/><path d="M120.51,52.13h-8.19V46.88h22.34v5.25h-8.15V74.9h-6Z" fill="#fff"/><path d="M155.2,56.08V74.9h-6v-28h6.14l13,18.15V46.88h6v28h-5.76Z" fill="#fff"/><path d="M180.4,53.47a13.49,13.49,0,0,1,5.23-5.18,16,16,0,0,1,15,0,13.49,13.49,0,0,1,5.23,5.18,15.69,15.69,0,0,1,0,14.93,13.53,13.53,0,0,1-5.23,5.17,16,16,0,0,1-15,0,13.53,13.53,0,0,1-5.23-5.17,15.69,15.69,0,0,1,0-14.93Zm20.2,2.75a8,8,0,0,0-3-3.31,8.41,8.41,0,0,0-4.48-1.2,8.26,8.26,0,0,0-4.45,1.2,8,8,0,0,0-3,3.31,11.11,11.11,0,0,0,0,9.43,8,8,0,0,0,3,3.3,8.26,8.26,0,0,0,4.45,1.2A8.41,8.41,0,0,0,197.6,69a8,8,0,0,0,3-3.3,11.11,11.11,0,0,0,0-9.43Z" fill="#fff"/><path d="M227.65,55.66,222.77,74.9h-6.34l-8-28h6.68L220,67.13l5.34-20.25H230l5.29,20.25,4.87-20.25h6.72l-8,28h-6.34Z" fill="#fff"/></g></g></svg>