<svg xmlns="http://www.w3.org/2000/svg" viewBox="0 0 160 600"><title>end-frame</title><g id="Layer_2" data-name="Layer 2"><g id="content"><rect id="bg" width="160" height="600"/><g id="circle"><path d="M1.59,600c-.07-4.93-.06-7,0-10.76.67-48.09,35.11-80.7,78.44-80.7s78.6,36.13,78.6,80.7c0,3.65-.08,6.83,0,10.76" fill="#e52823"/></g><g id="logo"><path d="M28.53,314c15-4.6,22.66,6.93,22.66,6.93S46.41,304.8,28.53,314" fill="#fff"/><path d="M57.63,314.55c0-.06,0-.48,0-.54a11.26,11.26,0,0,0-5.94,8.64s2.05-4.77,6.87-6.21a2.89,2.89,0,0,1-.93-1.89" fill="#fff"/><path d="M38.43,321.28s0,2.27,0,3.42c-.58,0-3.08-.16-4.18-.2,0,.61,0,1.25,0,1.86,1.32,0,2.69.18,4,.17,0,1.1,0,2.05,0,3.16-1.31,0-2.63-.11-3.94-.14,0,.68,0,1.34,0,2,1.42,0,2.84.15,4.25.13,0-.05,0,3.36,0,3.36-2.81,0-6.12-.22-9.27-.48l.22-14c1.32.15,5.43.59,9,.7" fill="#fff"/><path d="M39.62,321.31l0,3.65c1.32.07,2.51.07,2.51.07l0,10.14a31.62,31.62,0,0,0,5-.07l-.06-10s2.24-.1,2.59-.13c0-1.35,0-2.4,0-3.74a87.17,87.17,0,0,1-10,.12" fill="#fff"/><path d="M107.16,319.08c0,1.45,0,2.79,0,4.24.86.05,1.83.22,2.69.29,0,3.54-.09,6.22-.1,9.75,2.38.29,4.07.56,4.73.68,0-3.53.13-6.32.14-9.86,0,0,2.52.39,2.56.43,0-1.45,0-2.91,0-4.36a77.7,77.7,0,0,0-10-1.17" fill="#fff"/><path d="M23.25,319.14l-6-1.09,0,14.68c1.54.3,2.94.56,4.44.72l0-4.24,1.62.18c2.6.24,5.21-.74,5.25-5,0-3.76-2.48-4.85-5.26-5.26m-1.11,6.76-.44,0,0-2.87.42,0a1.46,1.46,0,0,1,1.46,1.54c0,1.19-.74,1.42-1.47,1.34" fill="#fff"/><path d="M73.25,332.77c.67-1.75,1.34-3.38,2-5.13.1,1.68.17,3.19.27,4.86,1.68-.18,3-.28,4.71-.38-.44-4.46-.82-9.25-1.25-13.7l-4.32.39c-.8,2.11-1.61,4.66-2.42,6.77-.78-1.95-1.56-4.24-2.34-6.18-1.45.21-4,.66-4.31.66-.5,4.55-1.07,9.6-1.57,14.14,1.15-.2,3.95-.64,4.79-.76.13-1.69.26-3.5.39-5.2l2,4.86,2.08-.33" fill="#fff"/><path d="M104,328.1c1.28-.57,2.2-1.81,2.23-4.27.05-3.71-2.57-5.3-5.22-5.5-2-.16-4-.26-6-.32-.07,4.71-.09,9-.15,13.75,1.5,0,3.15.15,4.46.26,0-1.32,0-2.31,0-3.64.86,1.39,1.56,2.53,2.42,3.94,1.85.16,3.74.4,5.59.67-1.15-1.73-2.2-3.2-3.35-4.89m-4.17-3a3.25,3.25,0,0,0-.44,0c0-.95,0-1.9,0-2.84l.42,0a1.4,1.4,0,0,1,1.46,1.49,1.22,1.22,0,0,1-1.48,1.35" fill="#fff"/><path d="M89.74,317.91c-1.79,0-3.25,0-4.77.1-1.23,4.57-2.68,9.46-3.91,14.05,1.37,0,2.75-.12,4.12-.12.12-.48.27-1,.39-1.52l2.09-.06s1.84-.05,1.84-.05c0,.17.22.65.46,1.45,1.36,0,2.73,0,4.09,0-1.47-4.84-3-9.5-4.31-13.89m-3.28,9.28.94-3.57c.36,1.17.71,2.35,1.07,3.52a18.86,18.86,0,0,1-2,.05" fill="#fff"/><path d="M115.54,332.73a.76.76,0,1,1-.75.75.76.76,0,0,1,.75-.75Zm0,.12a.64.64,0,1,0,.6.64.62.62,0,0,0-.6-.64Zm-.14,1.07h-.14v-.84l.24,0a.4.4,0,0,1,.26.07.19.19,0,0,1,.08.17.2.2,0,0,1-.17.2h0c.08,0,.13.08.14.2a.52.52,0,0,0,.06.21h-.14a.68.68,0,0,1-.06-.21.16.16,0,0,0-.18-.15h-.09Zm0-.46h.09c.11,0,.21,0,.21-.15s-.06-.14-.21-.14h-.09Z" fill="#fff"/><path d="M51.19,333.87a12.24,12.24,0,0,0,5.55,1.4c3.13,0,6.41-1.87,6.48-5.39.05-2.5-1.54-3.69-3.76-4.18l-1.18-.27c-.41-.1-1.06-.18-1.05-.73s.69-.78,1.15-.78a8.32,8.32,0,0,1,3.2.68c.45-1.18.89-2.36,1.34-3.53A10.37,10.37,0,0,0,58.35,320c-3.16,0-6.33,1.91-6.4,5.4,0,2.31,1.66,3.57,3.71,3.95l1.05.2c.48.1,1.17.16,1.16.82s-.83.74-1.35.74a6.18,6.18,0,0,1-3.6-1.19c-.54,1.23-1.19,2.75-1.73,4" fill="#fff"/><path d="M62.54,310A3.53,3.53,0,1,0,66,313.53,3.53,3.53,0,0,0,62.54,310m1.27,1.3A4.22,4.22,0,0,0,60,313.48a.07.07,0,0,0,0,0,2.53,2.53,0,0,1,.08-1A2.42,2.42,0,0,1,63,310.83a2.47,2.47,0,0,1,.83.45l-.06,0" fill="#fff"/></g><g id="headline"><path d="M15.27,21.34H28.61a8.17,8.17,0,0,1,4,.9,6,6,0,0,1,2.49,2.35,6.36,6.36,0,0,1,.84,3.21,6,6,0,0,1-1.26,3.88,5.26,5.26,0,0,1-3.11,1.94A5.29,5.29,0,0,1,35,35.71a6.54,6.54,0,0,1,1.4,4.14,6.62,6.62,0,0,1-1.94,4.9A7.34,7.34,0,0,1,29,46.69H15.27ZM27.43,31.53a3,3,0,0,0,2.17-.78,2.73,2.73,0,0,0,.8-2,2.63,2.63,0,0,0-.82-2,3,3,0,0,0-2.15-.8H20.67v5.59Zm.19,10.56a3.34,3.34,0,0,0,2.4-.82A3.08,3.08,0,0,0,30,37a3.28,3.28,0,0,0-2.4-.86H20.67v6Z" fill="#fff"/><path d="M41.67,45.91a5,5,0,0,1-1.32-3.75V21.34h4.83V40.87a2.21,2.21,0,0,0,.46,1.45,1.47,1.47,0,0,0,1.21.57,3.12,3.12,0,0,0,1-.15,1.47,1.47,0,0,0,.65-.38l1,3.65a5.87,5.87,0,0,1-4,1.17A5.29,5.29,0,0,1,41.67,45.91Z" fill="#fff"/><path d="M64.29,44.33a7.45,7.45,0,0,1-2.52,2.11,6.78,6.78,0,0,1-3.14.74A7.86,7.86,0,0,1,54.45,46a7.59,7.59,0,0,1-2.9-3.31,11.79,11.79,0,0,1-1-5.18,11.73,11.73,0,0,1,1-5.12,7.9,7.9,0,0,1,2.88-3.37,7.6,7.6,0,0,1,4.2-1.18,7.06,7.06,0,0,1,3.12.72,7.17,7.17,0,0,1,2.54,2.09V28.34h4.87V46.69H64.29Zm0-10a4.54,4.54,0,0,0-1.78-1.51,5.38,5.38,0,0,0-2.4-.59,4.25,4.25,0,0,0-3.34,1.47,5.65,5.65,0,0,0-1.29,3.87,5.65,5.65,0,0,0,1.29,3.85,4.23,4.23,0,0,0,3.34,1.49,5.38,5.38,0,0,0,2.4-.59,4.54,4.54,0,0,0,1.78-1.51Z" fill="#fff"/><path d="M74,32.54a9,9,0,0,1,3.46-3.42,10,10,0,0,1,5-1.24,9.57,9.57,0,0,1,4.4.93,7.58,7.58,0,0,1,2.85,2.38l-3.15,3a4.38,4.38,0,0,0-3.88-2,4.72,4.72,0,0,0-3.59,1.47,5.42,5.42,0,0,0-1.38,3.87,5.49,5.49,0,0,0,1.38,3.89,5.06,5.06,0,0,0,5.8,1,4.78,4.78,0,0,0,1.67-1.47l3.15,2.93a7.8,7.8,0,0,1-2.83,2.39,9.32,9.32,0,0,1-4.42,1,10.12,10.12,0,0,1-5-1.23A9,9,0,0,1,74,42.52a10.58,10.58,0,0,1,0-10Z" fill="#fff"/><path d="M99.94,39.62,97.73,42v4.71H92.91V21.34h4.82V36.51l7-8.17h5.93l-7.26,8.32,7.48,10h-6Z" fill="#fff"/><path d="M15.27,59.34H33.21V64H20.67v5.51H32.94v4.63H20.67V84.69h-5.4Z" fill="#fff"/><path d="M36.86,66.34h4.82v2.5a8.15,8.15,0,0,1,2.59-2.11,6.82,6.82,0,0,1,3.27-.85v4.71a6.23,6.23,0,0,0-1.33-.15,6.33,6.33,0,0,0-2.59.61,4.32,4.32,0,0,0-1.94,1.48V84.69H36.86Z" fill="#fff"/><path d="M50.9,62.78a2.88,2.88,0,1,1,4.08,0,2.75,2.75,0,0,1-2,.86A2.78,2.78,0,0,1,50.9,62.78Zm-.36,3.56h4.82V84.69H50.54Z" fill="#fff"/><path d="M72.77,82.33a7.39,7.39,0,0,1-2.53,2.11,6.74,6.74,0,0,1-3.13.74A7.83,7.83,0,0,1,62.93,84,7.61,7.61,0,0,1,60,80.73a13.15,13.15,0,0,1,0-10.3,8,8,0,0,1,2.89-3.37,7.58,7.58,0,0,1,4.2-1.18,7.05,7.05,0,0,1,3.11.72,7.2,7.2,0,0,1,2.55,2.09V59.34h4.86V84.69H72.77Zm0-10.06A4.57,4.57,0,0,0,71,70.76a5.31,5.31,0,0,0-2.39-.59,4.24,4.24,0,0,0-3.35,1.49A5.73,5.73,0,0,0,64,75.55a5.65,5.65,0,0,0,1.29,3.85,4.24,4.24,0,0,0,3.35,1.49A5.31,5.31,0,0,0,71,80.3a4.57,4.57,0,0,0,1.79-1.51Z" fill="#fff"/><path d="M95,82.33a7.49,7.49,0,0,1-2.53,2.11,6.78,6.78,0,0,1-3.14.74A7.88,7.88,0,0,1,85.19,84a7.59,7.59,0,0,1-2.9-3.31,13.15,13.15,0,0,1,0-10.3,8,8,0,0,1,2.88-3.37,7.6,7.6,0,0,1,4.2-1.18,7.06,7.06,0,0,1,3.12.72A7.2,7.2,0,0,1,95,68.69V66.34H99.9V84.69H95Zm0-10a4.57,4.57,0,0,0-1.79-1.51,5.34,5.34,0,0,0-2.39-.59,4.25,4.25,0,0,0-3.35,1.47,6.42,6.42,0,0,0,0,7.72,4.24,4.24,0,0,0,3.35,1.49,5.34,5.34,0,0,0,2.39-.59A4.57,4.57,0,0,0,95,78.79Z" fill="#fff"/><path d="M106.63,85.9a5.78,5.78,0,0,0,2.43,1.71,8.51,8.51,0,0,0,3.08.58A5.1,5.1,0,0,0,115.78,87a4.55,4.55,0,0,0,1.3-3.5v-1.9a8.65,8.65,0,0,1-2.72,2,8.52,8.52,0,0,1-3.74.8,6,6,0,0,1-4.45-1.52,5.84,5.84,0,0,1-1.48-4.26V66.34h4.82V76.67a3.29,3.29,0,0,0,.88,2.6,3.65,3.65,0,0,0,2.51.78,4.83,4.83,0,0,0,2.39-.61A5.7,5.7,0,0,0,117.08,78V66.34h4.82v16.9a8.3,8.3,0,0,1-2.64,6.56,10.36,10.36,0,0,1-7.12,2.34,11.21,11.21,0,0,1-7.68-2.74Z" fill="#fff"/><path d="M27.78,120.33a7.49,7.49,0,0,1-2.53,2.11,6.78,6.78,0,0,1-3.14.74A7.88,7.88,0,0,1,17.93,122a7.59,7.59,0,0,1-2.9-3.31,13.15,13.15,0,0,1,0-10.3,7.92,7.92,0,0,1,2.89-3.37,7.54,7.54,0,0,1,4.19-1.18,7.06,7.06,0,0,1,3.12.72,7.2,7.2,0,0,1,2.55,2.09V97.34h4.86v25.35H27.78Zm0-10.06A4.57,4.57,0,0,0,26,108.76a5.31,5.31,0,0,0-2.39-.59,4.24,4.24,0,0,0-3.35,1.49A5.73,5.73,0,0,0,19,113.55a5.65,5.65,0,0,0,1.29,3.85,4.24,4.24,0,0,0,3.35,1.49A5.31,5.31,0,0,0,26,118.3a4.57,4.57,0,0,0,1.79-1.51Z" fill="#fff"/><path d="M37.47,108.66a9.2,9.2,0,0,1,3.38-3.49,9.39,9.39,0,0,1,4.9-1.29,9,9,0,0,1,4.79,1.27,8.72,8.72,0,0,1,3.25,3.57A11.61,11.61,0,0,1,55,114v1.06H41.3a4.75,4.75,0,0,0,1.64,3.07,5.34,5.34,0,0,0,3.65,1.23,7.78,7.78,0,0,0,2.68-.5,6.32,6.32,0,0,0,2.22-1.33l2.13,3.12a9.21,9.21,0,0,1-3.35,1.88,13.46,13.46,0,0,1-4.22.66,10.45,10.45,0,0,1-5-1.2,8.81,8.81,0,0,1-3.52-3.38,10.54,10.54,0,0,1-.05-9.94Zm5.09.29a4.94,4.94,0,0,0-1.33,2.83h9A4.65,4.65,0,0,0,49,109a4.22,4.22,0,0,0-3.29-1.25A4.13,4.13,0,0,0,42.56,109Z" fill="#fff"/><path d="M71.06,120.33a7.39,7.39,0,0,1-2.53,2.11,6.74,6.74,0,0,1-3.13.74A7.83,7.83,0,0,1,61.22,122a7.61,7.61,0,0,1-2.91-3.31,13.15,13.15,0,0,1,0-10.3,8,8,0,0,1,2.89-3.37,7.6,7.6,0,0,1,4.2-1.18,7,7,0,0,1,3.11.72,7.2,7.2,0,0,1,2.55,2.09v-2.35h4.86v18.35H71.06Zm0-10a4.57,4.57,0,0,0-1.79-1.51,5.31,5.31,0,0,0-2.39-.59,4.27,4.27,0,0,0-3.35,1.47,6.42,6.42,0,0,0,0,7.72,4.25,4.25,0,0,0,3.35,1.49,5.31,5.31,0,0,0,2.39-.59,4.57,4.57,0,0,0,1.79-1.51Z" fill="#fff"/><path d="M82,121.91a5,5,0,0,1-1.31-3.75V97.34h4.83v19.53a2.26,2.26,0,0,0,.45,1.45,1.49,1.49,0,0,0,1.22.57,3.21,3.21,0,0,0,1-.15,1.37,1.37,0,0,0,.64-.38l1,3.65a5.9,5.9,0,0,1-4,1.17A5.33,5.33,0,0,1,82,121.91Z" fill="#fff"/><path d="M92.53,117a9.71,9.71,0,0,0,2.89,1.75,8.92,8.92,0,0,0,3.45.76,4.31,4.31,0,0,0,2.3-.5,1.55,1.55,0,0,0,.78-1.38,1.43,1.43,0,0,0-.91-1.34,11.8,11.8,0,0,0-2.77-.85,27.22,27.22,0,0,1-3.65-.91,6,6,0,0,1-2.51-1.65,4.51,4.51,0,0,1-1.06-3.18,5,5,0,0,1,.89-2.88,6,6,0,0,1,2.6-2.11,9.63,9.63,0,0,1,4-.78,11.55,11.55,0,0,1,7.41,2.51l-1.94,3.3a7,7,0,0,0-2.33-1.52,8.12,8.12,0,0,0-3.1-.61,4.21,4.21,0,0,0-2.11.46,1.39,1.39,0,0,0-.78,1.25,1.27,1.27,0,0,0,.86,1.2,12.67,12.67,0,0,0,2.64.78,25.48,25.48,0,0,1,3.68,1,6.37,6.37,0,0,1,2.59,1.76,4.77,4.77,0,0,1,1.1,3.31,5.27,5.27,0,0,1-.93,3,6.13,6.13,0,0,1-2.74,2.11,10.9,10.9,0,0,1-4.27.76,13.71,13.71,0,0,1-4.58-.76,10,10,0,0,1-3.63-2.09Z" fill="#fff"/><path d="M16.49,153.05A11.14,11.14,0,0,0,20,155.52a10.79,10.79,0,0,0,4.54.95,5.48,5.48,0,0,0,3.25-.84,2.46,2.46,0,0,0,1.15-2,2.13,2.13,0,0,0-1.25-2,17.37,17.37,0,0,0-3.88-1.28A39.61,39.61,0,0,1,19,149a8.08,8.08,0,0,1-3.25-2.23,6,6,0,0,1-1.39-4.17,6.75,6.75,0,0,1,1.18-3.88,8.06,8.06,0,0,1,3.36-2.77,12.06,12.06,0,0,1,5.08-1,14,14,0,0,1,9.88,3.53l-3,3.95a10,10,0,0,0-3.4-2.07,11.08,11.08,0,0,0-3.85-.7,4.65,4.65,0,0,0-2.76.7,2.27,2.27,0,0,0-1,1.9A1.84,1.84,0,0,0,21.05,144a22.81,22.81,0,0,0,3.88,1.21,33.72,33.72,0,0,1,4.8,1.39,8.44,8.44,0,0,1,3.31,2.3A6.05,6.05,0,0,1,34.43,153a7.43,7.43,0,0,1-2.61,5.91c-1.73,1.49-4.25,2.24-7.54,2.24q-6.72,0-10.75-4Z" fill="#fff"/><path d="M43.66,140.09H36.25v-4.75H56.47v4.75H49.09v20.6H43.66Z" fill="#fff"/><path d="M73.64,156.32H62.32l-1.6,4.37H54.79l9.81-25.35h6.76l9.77,25.35H75.24Zm-9.88-4.67h8.4L68,140Z" fill="#fff"/><path d="M92.83,151.61h-4v9.08h-5.4V135.34H95.34a9.34,9.34,0,0,1,4.52,1,7.24,7.24,0,0,1,3,2.91,8.6,8.6,0,0,1,1,4.21,7.69,7.69,0,0,1-1.61,5.06A7.14,7.14,0,0,1,98.3,151l5.7,9.65H97.81ZM97.26,141a3.91,3.91,0,0,0-2.72-1H88.88v7h5.66a3.91,3.91,0,0,0,2.72-1,3.49,3.49,0,0,0,0-5.05Z" fill="#fff"/><path d="M113.39,140.09H106v-4.75H126.2v4.75h-7.38v20.6h-5.43Z" fill="#fff"/><path d="M20.67,181.66v17h-5.4V173.34h5.55l11.74,16.42V173.34H38v25.35H32.75Z" fill="#fff"/><path d="M43.47,179.3a12.29,12.29,0,0,1,4.73-4.68,14.55,14.55,0,0,1,13.61,0,12.29,12.29,0,0,1,4.73,4.68,14.2,14.2,0,0,1,0,13.51,12.29,12.29,0,0,1-4.73,4.68,14.55,14.55,0,0,1-13.61,0,12.29,12.29,0,0,1-4.73-4.68,14.2,14.2,0,0,1,0-13.51Zm18.28,2.49a7.22,7.22,0,0,0-2.72-3A7.54,7.54,0,0,0,55,177.71a7.38,7.38,0,0,0-4,1.09,7.18,7.18,0,0,0-2.7,3,10,10,0,0,0,0,8.53,7.18,7.18,0,0,0,2.7,3,7.47,7.47,0,0,0,4,1.09A7.62,7.62,0,0,0,59,193.31a7.22,7.22,0,0,0,2.72-3,10,10,0,0,0,0-8.53Z" fill="#fff"/><path d="M86.22,181.28l-4.41,17.41H76.07l-7.25-25.35h6l4.44,18.32,4.83-18.32h4.22l4.79,18.32,4.4-18.32h6.08L96.4,198.69H90.67Z" fill="#fff"/></g></g></g></svg>