<svg xmlns="http://www.w3.org/2000/svg" viewBox="0 0 160 600"><title>subhead</title><g id="Layer_2" data-name="Layer 2"><g id="rec"><rect width="160" height="600" fill="none"/></g><g id="SUBHD"><path d="M19.4,226.05a6.3,6.3,0,0,1-2.63-.49A5.15,5.15,0,0,1,15,224.2l1.21-1.46a4,4,0,0,0,3.22,1.44,2.54,2.54,0,0,0,1.81-.61,2.11,2.11,0,0,0,0-3.06,2.58,2.58,0,0,0-1.77-.58,3.78,3.78,0,0,0-1.4.25,3.61,3.61,0,0,0-1.22.78l-1.5-.43v-6.7h7.87v1.87H17.42v3.44a4.36,4.36,0,0,1,1.15-.72,4.22,4.22,0,0,1,3,0,3.65,3.65,0,0,1,1.24.75,3.69,3.69,0,0,1,.84,1.22A4,4,0,0,1,24,222a4.13,4.13,0,0,1-.34,1.68A3.89,3.89,0,0,1,22.7,225a4.35,4.35,0,0,1-1.45.82A5.74,5.74,0,0,1,19.4,226.05Z" fill="#e52823"/><path d="M30.29,226.05a4.14,4.14,0,0,1-2.19-.55,4.5,4.5,0,0,1-1.48-1.43,6.38,6.38,0,0,1-.86-2,8.87,8.87,0,0,1-.28-2.24,9,9,0,0,1,.28-2.24,6.49,6.49,0,0,1,.86-2,4.57,4.57,0,0,1,1.48-1.42,4.23,4.23,0,0,1,2.19-.54,4.18,4.18,0,0,1,2.17.54,4.57,4.57,0,0,1,1.48,1.42,6.49,6.49,0,0,1,.86,2,9.48,9.48,0,0,1,.28,2.24,9.35,9.35,0,0,1-.28,2.24,6.38,6.38,0,0,1-.86,2,4.5,4.5,0,0,1-1.48,1.43A4.09,4.09,0,0,1,30.29,226.05Zm0-1.87a2.08,2.08,0,0,0,1.23-.36,2.61,2.61,0,0,0,.82-.95,5.32,5.32,0,0,0,.45-1.38,8.74,8.74,0,0,0,.14-1.65,9.65,9.65,0,0,0-.13-1.64,4.57,4.57,0,0,0-.45-1.38,2.51,2.51,0,0,0-.82-.94,2.09,2.09,0,0,0-1.24-.36,2.07,2.07,0,0,0-1.24.36,2.51,2.51,0,0,0-.82.94,4.57,4.57,0,0,0-.46,1.38,9.1,9.1,0,0,0,0,3.29,4.67,4.67,0,0,0,.46,1.38,2.71,2.71,0,0,0,.82.95A2.07,2.07,0,0,0,30.29,224.18Z" fill="#e52823"/><path d="M39.32,219.61a3,3,0,0,1-1.21-.23,2.82,2.82,0,0,1-1-.63,3,3,0,0,1-.61-.94,3.2,3.2,0,0,1-.21-1.17,3.29,3.29,0,0,1,.21-1.18,3,3,0,0,1,.61-1,2.82,2.82,0,0,1,1-.63,3.18,3.18,0,0,1,1.21-.23,3.25,3.25,0,0,1,1.23.23,2.68,2.68,0,0,1,.94.63,3,3,0,0,1,.61,1,3.29,3.29,0,0,1,.21,1.18,3.2,3.2,0,0,1-.21,1.17,3,3,0,0,1-.61.94,2.68,2.68,0,0,1-.94.63A3.06,3.06,0,0,1,39.32,219.61Zm0-1.21a1.52,1.52,0,0,0,1.16-.48,1.84,1.84,0,0,0,.45-1.29,1.88,1.88,0,0,0-.45-1.31,1.51,1.51,0,0,0-1.16-.5,1.47,1.47,0,0,0-1.13.5,1.88,1.88,0,0,0-.45,1.31,1.84,1.84,0,0,0,.45,1.29A1.49,1.49,0,0,0,39.32,218.4Zm-1.17,7.44,7.67-12h1.23l-7.69,12Zm7.64.21a3.19,3.19,0,0,1-1.22-.22,2.78,2.78,0,0,1-.94-.63,2.85,2.85,0,0,1-.62-.94,3.36,3.36,0,0,1,0-2.34,2.84,2.84,0,0,1,1.56-1.58,3.32,3.32,0,0,1,2.43,0,2.82,2.82,0,0,1,1,.63,2.93,2.93,0,0,1,.61.95,3.36,3.36,0,0,1,0,2.34,3,3,0,0,1-.61.94,2.82,2.82,0,0,1-1,.63A3.18,3.18,0,0,1,45.79,226.05Zm0-1.2a1.49,1.49,0,0,0,1.15-.49,1.8,1.8,0,0,0,.45-1.28,1.85,1.85,0,0,0-.45-1.3,1.58,1.58,0,0,0-2.31,0,1.85,1.85,0,0,0-.45,1.3,1.8,1.8,0,0,0,.45,1.28A1.5,1.5,0,0,0,45.79,224.85Z" fill="#e52823"/><path d="M59.09,226.05a4.62,4.62,0,0,1-1.87-.36,4.24,4.24,0,0,1-2.29-2.44,5.19,5.19,0,0,1-.31-1.77,5.13,5.13,0,0,1,.31-1.76,4.28,4.28,0,0,1,.88-1.45,4.06,4.06,0,0,1,1.41-1,5,5,0,0,1,3.74,0,4,4,0,0,1,1.4,1,4.3,4.3,0,0,1,.89,1.45,5.12,5.12,0,0,1,.3,1.76,5.18,5.18,0,0,1-.3,1.77,4.26,4.26,0,0,1-.89,1.44,4.2,4.2,0,0,1-1.4,1A4.65,4.65,0,0,1,59.09,226.05Zm0-1.67a2.45,2.45,0,0,0,1.08-.23,2.41,2.41,0,0,0,.78-.63,2.93,2.93,0,0,0,.48-.93,3.73,3.73,0,0,0,.16-1.11,3.66,3.66,0,0,0-.16-1.1,2.83,2.83,0,0,0-.48-.91,2.17,2.17,0,0,0-.78-.63,2.32,2.32,0,0,0-1.08-.24,2.27,2.27,0,0,0-1.06.24,2.24,2.24,0,0,0-.8.63,2.83,2.83,0,0,0-.48.91,3.66,3.66,0,0,0-.16,1.1,3.73,3.73,0,0,0,.16,1.11,2.93,2.93,0,0,0,.48.93,2.49,2.49,0,0,0,.8.63A2.39,2.39,0,0,0,59.09,224.38Z" fill="#e52823"/><path d="M66,225.84v-7.06H64.51v-1.64H66v-.48a3,3,0,0,1,.77-2.23,2.65,2.65,0,0,1,2-.78,3.1,3.1,0,0,1,1.53.33l-.41,1.42a1.41,1.41,0,0,0-.76-.2,1.12,1.12,0,0,0-.89.36,1.64,1.64,0,0,0-.31,1.1v.48H69.6v1.64H67.84v7.06Z" fill="#e52823"/><path d="M71.51,225.84v-7.06H70.07v-1.64h1.44v-.48a3,3,0,0,1,.77-2.23,2.65,2.65,0,0,1,2-.78,3.1,3.1,0,0,1,1.53.33l-.41,1.42a1.39,1.39,0,0,0-.76-.2,1.12,1.12,0,0,0-.89.36,1.64,1.64,0,0,0-.31,1.1v.48h1.76v1.64H73.4v7.06Z" fill="#e52823"/><path d="M87.37,225.84v-1.19a4,4,0,0,1-1.22,1,3.31,3.31,0,0,1-1.57.37,3.88,3.88,0,0,1-1.54-.3,3.44,3.44,0,0,1-1.23-.9,4.37,4.37,0,0,1-.8-1.44,6.07,6.07,0,0,1-.29-1.93,6,6,0,0,1,.29-1.89,4.37,4.37,0,0,1,.8-1.44,3.52,3.52,0,0,1,1.22-.91,3.73,3.73,0,0,1,1.55-.31,3.39,3.39,0,0,1,1.54.36,3.5,3.5,0,0,1,1.25,1.06v-1.21h1.89v8.7Zm-2.24-1.46a2.5,2.5,0,0,0,.66-.09,2.85,2.85,0,0,0,.63-.25,3,3,0,0,0,.54-.37,2.22,2.22,0,0,0,.41-.46v-3.44a3.34,3.34,0,0,0-.41-.45,3.06,3.06,0,0,0-.54-.38,3.45,3.45,0,0,0-.63-.25,2.5,2.5,0,0,0-.66-.09,2.25,2.25,0,0,0-1,.22,2.37,2.37,0,0,0-.78.59,2.65,2.65,0,0,0-.49.91,4,4,0,0,0,0,2.32,2.7,2.7,0,0,0,.49.92,2.31,2.31,0,0,0,1.8.82Z" fill="#e52823"/><path d="M93.94,226.05a2.25,2.25,0,0,1-1.67-.57,2.29,2.29,0,0,1-.57-1.68v-10h1.89v9.51a1.24,1.24,0,0,0,.21.74.71.71,0,0,0,.62.3,1.25,1.25,0,0,0,.51-.1,1.05,1.05,0,0,0,.34-.22l.45,1.44a2.23,2.23,0,0,1-.69.39A3.06,3.06,0,0,1,93.94,226.05Z" fill="#e52823"/><path d="M99.08,226.05a2.24,2.24,0,0,1-1.66-.57,2.29,2.29,0,0,1-.57-1.68v-10h1.89v9.51a1.24,1.24,0,0,0,.21.74.7.7,0,0,0,.62.3,1.18,1.18,0,0,0,.5-.1,1.11,1.11,0,0,0,.35-.22l.45,1.44a2.23,2.23,0,0,1-.69.39A3.12,3.12,0,0,1,99.08,226.05Z" fill="#e52823"/><path d="M23.57,245.84l-6.26-8.59v8.59H15.2v-12h2.16l6.14,8.32v-8.32h2.11v12Z" fill="#e52823"/><path d="M32.14,246.05a4.87,4.87,0,0,1-1.82-.32,4,4,0,0,1-1.44-.93,4.15,4.15,0,0,1-.95-1.45,4.87,4.87,0,0,1-.34-1.87,5,5,0,0,1,.32-1.77,4.41,4.41,0,0,1,.91-1.45A4.36,4.36,0,0,1,32,236.93a4.19,4.19,0,0,1,1.76.35,3.79,3.79,0,0,1,1.35,1,4.48,4.48,0,0,1,.86,1.49,5.76,5.76,0,0,1,.29,1.89v.47H29.57a2.63,2.63,0,0,0,.26.92,2.64,2.64,0,0,0,1.39,1.29,3.17,3.17,0,0,0,1.1.19,3.78,3.78,0,0,0,1.33-.26,3,3,0,0,0,1.16-.72l.86,1.25a4.42,4.42,0,0,1-1.58.95A5.74,5.74,0,0,1,32.14,246.05Zm2.31-5.29a2.88,2.88,0,0,0-.17-.78,2.67,2.67,0,0,0-.45-.74,2.51,2.51,0,0,0-.75-.55,2.6,2.6,0,0,0-1.1-.21,2.41,2.41,0,0,0-1,.2,2.33,2.33,0,0,0-.75.54,2.61,2.61,0,0,0-.46.74,2.37,2.37,0,0,0-.18.8Z" fill="#e52823"/><path d="M38.14,245.84v-8.7H40v1.26a4.22,4.22,0,0,1,1.24-1.05,3.14,3.14,0,0,1,1.58-.42v1.87a2.52,2.52,0,0,0-.57-.05,2.41,2.41,0,0,0-.64.09,3.23,3.23,0,0,0-.65.25,2.83,2.83,0,0,0-.57.38,1.62,1.62,0,0,0-.39.45v5.92Z" fill="#e52823"/><path d="M44.85,245.84v-7.06H43.41v-1.64h1.44v-.48a3,3,0,0,1,.77-2.23,2.66,2.66,0,0,1,2-.78,3.15,3.15,0,0,1,1.53.33l-.42,1.42a1.35,1.35,0,0,0-.75-.2,1.13,1.13,0,0,0-.9.36,1.64,1.64,0,0,0-.31,1.1v.48H48.5v1.64H46.74v7.06Z" fill="#e52823"/><path d="M51.82,234.3v3.49h-.51V234.3H50.2v-.47h2.73v.47Zm5.11,3.49v-3.27l-1.35,3.27h-.15l-1.35-3.27v3.27h-.5v-4h.77l1.16,2.88,1.15-2.88h.77v4Z" fill="#e52823"/><path d="M64,245.84v-12h5.91a4.1,4.1,0,0,1,1.46.24,3.4,3.4,0,0,1,1.08.66,2.9,2.9,0,0,1,.65,1,3.15,3.15,0,0,1,.23,1.19,3,3,0,0,1-.17,1,3,3,0,0,1-.46.82,2.64,2.64,0,0,1-.67.58,2.37,2.37,0,0,1-.79.33,2.32,2.32,0,0,1,.91.33,2.73,2.73,0,0,1,.74.66,3,3,0,0,1,.49.9,3.08,3.08,0,0,1,.18,1,3.62,3.62,0,0,1-.22,1.3,2.91,2.91,0,0,1-.67,1,3,3,0,0,1-1.1.68,4.14,4.14,0,0,1-1.5.25Zm5.49-7.08a1.73,1.73,0,0,0,1.25-.42,1.54,1.54,0,0,0,.43-1.11,1.51,1.51,0,0,0-.43-1.09,1.7,1.7,0,0,0-1.25-.44H66.09v3.06Zm.09,5.21a1.9,1.9,0,0,0,1.34-.44,1.59,1.59,0,0,0,.48-1.23,1.65,1.65,0,0,0-.46-1.17,1.76,1.76,0,0,0-1.36-.49H66.09V244Z" fill="#e52823"/><path d="M77.84,246.05a2.24,2.24,0,0,1-1.66-.57,2.29,2.29,0,0,1-.57-1.68v-10H77.5v9.51a1.24,1.24,0,0,0,.21.74.7.7,0,0,0,.62.3,1.18,1.18,0,0,0,.5-.1,1.11,1.11,0,0,0,.35-.22l.44,1.44a2.06,2.06,0,0,1-.68.39A3.12,3.12,0,0,1,77.84,246.05Z" fill="#e52823"/><path d="M86.88,245.84v-1.19a3.9,3.9,0,0,1-1.22,1,3.28,3.28,0,0,1-1.57.37,3.92,3.92,0,0,1-1.54-.3,3.49,3.49,0,0,1-1.22-.9,4.2,4.2,0,0,1-.8-1.44,5.8,5.8,0,0,1-.29-1.93,5.68,5.68,0,0,1,.29-1.89,4.2,4.2,0,0,1,.8-1.44,3.48,3.48,0,0,1,1.21-.91,3.73,3.73,0,0,1,1.55-.31,3.43,3.43,0,0,1,1.55.36,3.47,3.47,0,0,1,1.24,1.06v-1.21h1.89v8.7Zm-2.23-1.46a2.48,2.48,0,0,0,.65-.09,2.51,2.51,0,0,0,.63-.25,3,3,0,0,0,.54-.37,2,2,0,0,0,.41-.46v-3.44a2.79,2.79,0,0,0-.41-.45,3.06,3.06,0,0,0-.54-.38,3,3,0,0,0-.63-.25,2.48,2.48,0,0,0-.65-.09,2.26,2.26,0,0,0-1,.22,2.23,2.23,0,0,0-.77.59,2.67,2.67,0,0,0-.5.91,4,4,0,0,0,0,2.32,2.72,2.72,0,0,0,.5.92,2.15,2.15,0,0,0,.77.6A2.26,2.26,0,0,0,84.65,244.38Z" fill="#e52823"/><path d="M94.21,246.05a5.84,5.84,0,0,1-2.09-.35,4.49,4.49,0,0,1-1.64-1l.86-1.35a4.57,4.57,0,0,0,.56.45,4.89,4.89,0,0,0,.72.38,3.94,3.94,0,0,0,.82.27,3.44,3.44,0,0,0,.84.1,2.17,2.17,0,0,0,1.29-.31,1,1,0,0,0,.43-.84.7.7,0,0,0-.38-.65,4.3,4.3,0,0,0-1-.36l-1.27-.29a5.13,5.13,0,0,1-1.27-.43,2.74,2.74,0,0,1-1-.77,2.08,2.08,0,0,1-.39-1.33,2.37,2.37,0,0,1,.22-1,2.41,2.41,0,0,1,.66-.84,3.3,3.3,0,0,1,1.07-.57,5.12,5.12,0,0,1,4.84,1l-.8,1.34a3.12,3.12,0,0,0-1.07-.74,3.5,3.5,0,0,0-1.5-.31,2,2,0,0,0-1.18.31.91.91,0,0,0-.42.77.63.63,0,0,0,.38.58,4.48,4.48,0,0,0,1,.33l1.27.29a5.24,5.24,0,0,1,1.26.45,2.86,2.86,0,0,1,1,.81,2.28,2.28,0,0,1,.38,1.38,2.39,2.39,0,0,1-.92,1.94,3.58,3.58,0,0,1-1.14.57A5.6,5.6,0,0,1,94.21,246.05Z" fill="#e52823"/><path d="M102.34,246.05a2.24,2.24,0,0,1-1.67-.57,2.29,2.29,0,0,1-.56-1.68v-5H98.67v-1.64h1.44v-2.37H102v2.37h1.76v1.64H102v4.56a1.24,1.24,0,0,0,.21.74.69.69,0,0,0,.62.3,1.13,1.13,0,0,0,.49-.1,1,1,0,0,0,.33-.22l.45,1.44a2.06,2.06,0,0,1-.68.39A3.08,3.08,0,0,1,102.34,246.05Z" fill="#e52823"/><path d="M109.49,246.05a5,5,0,0,1-1.83-.32,4,4,0,0,1-1.44-.93,4.3,4.3,0,0,1-1-1.45,5.06,5.06,0,0,1-.34-1.87,4.8,4.8,0,0,1,.33-1.77,4.25,4.25,0,0,1,.91-1.45,4.19,4.19,0,0,1,1.39-1,4.32,4.32,0,0,1,1.78-.36,4.24,4.24,0,0,1,1.77.35,4,4,0,0,1,1.35,1,4.46,4.46,0,0,1,.85,1.49,5.76,5.76,0,0,1,.3,1.89v.47h-6.7a3.14,3.14,0,0,0,.26.92,2.63,2.63,0,0,0,.56.76,2.41,2.41,0,0,0,.84.53,3.13,3.13,0,0,0,1.1.19,3.83,3.83,0,0,0,1.33-.26,3,3,0,0,0,1.15-.72l.86,1.25a4.42,4.42,0,0,1-1.58.95A5.68,5.68,0,0,1,109.49,246.05Zm2.3-5.29a2.55,2.55,0,0,0-.17-.78,2.26,2.26,0,0,0-.45-.74,2.51,2.51,0,0,0-.75-.55,2.57,2.57,0,0,0-1.1-.21,2.44,2.44,0,0,0-1,.2,2.33,2.33,0,0,0-.75.54,2.61,2.61,0,0,0-.46.74,3,3,0,0,0-.18.8Z" fill="#e52823"/><path d="M115.48,245.84v-8.7h1.89v1.26a4.36,4.36,0,0,1,1.24-1.05,3.15,3.15,0,0,1,1.59-.42v1.87a2.56,2.56,0,0,0-.58-.05,2.47,2.47,0,0,0-.64.09,3.23,3.23,0,0,0-.65.25,2.51,2.51,0,0,0-.56.38,1.85,1.85,0,0,0-.4.45v5.92Z" fill="#e52823"/><path d="M124.71,246.05a5.82,5.82,0,0,1-2.08-.35,4.49,4.49,0,0,1-1.64-1l.86-1.35a4.57,4.57,0,0,0,.56.45,4.89,4.89,0,0,0,.72.38,3.94,3.94,0,0,0,.82.27,3.44,3.44,0,0,0,.84.1,2.19,2.19,0,0,0,1.29-.31,1,1,0,0,0,.43-.84.71.71,0,0,0-.38-.65,4.4,4.4,0,0,0-1-.36l-1.26-.29a5.13,5.13,0,0,1-1.27-.43,2.87,2.87,0,0,1-1-.77,2.14,2.14,0,0,1-.38-1.33,2.37,2.37,0,0,1,.22-1,2.41,2.41,0,0,1,.66-.84,3.2,3.2,0,0,1,1.07-.57,5.65,5.65,0,0,1,3.42.14,4.87,4.87,0,0,1,1.41.86l-.79,1.34a3.12,3.12,0,0,0-1.07-.74,3.5,3.5,0,0,0-1.5-.31,1.93,1.93,0,0,0-1.18.31.91.91,0,0,0-.42.77.62.62,0,0,0,.38.58,4.38,4.38,0,0,0,1,.33l1.27.29a5.16,5.16,0,0,1,1.27.45,2.74,2.74,0,0,1,1,.81,2.22,2.22,0,0,1,.39,1.38,2.65,2.65,0,0,1-.23,1.08,2.4,2.4,0,0,1-.7.86,3.42,3.42,0,0,1-1.13.57A5.63,5.63,0,0,1,124.71,246.05Z" fill="#e52823"/></g></g></svg>