<svg xmlns="http://www.w3.org/2000/svg" viewBox="0 0 300 250"><title>SUB</title><g id="Layer_2" data-name="Layer 2"><g id="rec"><rect width="300" height="250" fill="none"/></g><g id="sub"><path d="M19.78,106.13a5.65,5.65,0,0,1-2.34-.44,4.53,4.53,0,0,1-1.61-1.21l1.07-1.3a3.55,3.55,0,0,0,2.86,1.28,2.29,2.29,0,0,0,1.61-.54,1.9,1.9,0,0,0,0-2.72,2.3,2.3,0,0,0-1.57-.51,3.64,3.64,0,0,0-1.25.21,3.54,3.54,0,0,0-1.09.7l-1.32-.38v-6h7v1.67H18v3a4,4,0,0,1,1-.64,3.48,3.48,0,0,1,1.39-.27,3.83,3.83,0,0,1,1.3.23,3.2,3.2,0,0,1,1.85,1.76,3.68,3.68,0,0,1,.28,1.45,3.44,3.44,0,0,1-.31,1.5,3.25,3.25,0,0,1-.84,1.13,3.57,3.57,0,0,1-1.28.73A5.14,5.14,0,0,1,19.78,106.13Z" fill="#e52823"/><path d="M29.46,106.13a3.67,3.67,0,0,1-1.95-.49,4.21,4.21,0,0,1-1.32-1.27,5.89,5.89,0,0,1-.76-1.77,8.37,8.37,0,0,1,0-4,5.89,5.89,0,0,1,.76-1.77,4.21,4.21,0,0,1,1.32-1.27,4.16,4.16,0,0,1,3.88,0,4.21,4.21,0,0,1,1.32,1.27,5.89,5.89,0,0,1,.76,1.77,8.37,8.37,0,0,1,0,4,5.89,5.89,0,0,1-.76,1.77,4.21,4.21,0,0,1-1.32,1.27A3.64,3.64,0,0,1,29.46,106.13Zm0-1.67a1.8,1.8,0,0,0,1.09-.32,2.21,2.21,0,0,0,.73-.84,4.34,4.34,0,0,0,.4-1.23,7.63,7.63,0,0,0,.13-1.46,8.75,8.75,0,0,0-.12-1.47,4,4,0,0,0-.4-1.22,2.39,2.39,0,0,0-.73-.84,1.85,1.85,0,0,0-1.1-.31,1.89,1.89,0,0,0-1.11.31,2.37,2.37,0,0,0-.72.84,4,4,0,0,0-.41,1.22,7.81,7.81,0,0,0-.13,1.47,7.63,7.63,0,0,0,.13,1.46,4,4,0,0,0,.41,1.23,2.37,2.37,0,0,0,.72.84A1.82,1.82,0,0,0,29.46,104.46Z" fill="#e52823"/><path d="M37.49,100.4a2.92,2.92,0,0,1-1.08-.2,2.34,2.34,0,0,1-.84-.56A2.47,2.47,0,0,1,35,98.8a2.75,2.75,0,0,1-.2-1,2.84,2.84,0,0,1,.2-1.05,2.52,2.52,0,0,1,.54-.85,2.47,2.47,0,0,1,.84-.56,2.92,2.92,0,0,1,1.08-.2,3,3,0,0,1,1.09.2A2.38,2.38,0,0,1,40,96.71a2.84,2.84,0,0,1,.2,1.05,2.75,2.75,0,0,1-.2,1,2.45,2.45,0,0,1-.53.84,2.34,2.34,0,0,1-.84.56A3,3,0,0,1,37.49,100.4Zm0-1.07a1.31,1.31,0,0,0,1-.44,1.59,1.59,0,0,0,.4-1.14,1.64,1.64,0,0,0-.4-1.16,1.37,1.37,0,0,0-2,0,1.68,1.68,0,0,0-.4,1.16,1.63,1.63,0,0,0,.4,1.14A1.32,1.32,0,0,0,37.49,99.33Zm-1,6.61,6.82-10.68h1.08l-6.83,10.68Zm6.78.19a2.92,2.92,0,0,1-1.08-.2,2.53,2.53,0,0,1-.84-.56,2.63,2.63,0,0,1-.54-.84,2.7,2.7,0,0,1-.19-1,2.8,2.8,0,0,1,.19-1,2.63,2.63,0,0,1,.54-.84,2.53,2.53,0,0,1,.84-.56,2.92,2.92,0,0,1,1.08-.2,2.85,2.85,0,0,1,1.08.2,2.34,2.34,0,0,1,.84.56,2.5,2.5,0,0,1,.55.84,2.8,2.8,0,0,1,.19,1,2.7,2.7,0,0,1-.19,1,2.5,2.5,0,0,1-.55.84,2.34,2.34,0,0,1-.84.56A2.85,2.85,0,0,1,43.23,106.13Zm0-1.07a1.34,1.34,0,0,0,1-.44,1.61,1.61,0,0,0,.4-1.13,1.68,1.68,0,0,0-.4-1.16,1.41,1.41,0,0,0-2,0,1.64,1.64,0,0,0-.4,1.16,1.56,1.56,0,0,0,.4,1.13A1.34,1.34,0,0,0,43.23,105.06Z" fill="#e52823"/><path d="M55.06,106.13a4,4,0,0,1-1.67-.33,3.78,3.78,0,0,1-2-2.17,4.67,4.67,0,0,1,0-3.13,3.71,3.71,0,0,1,.79-1.29,3.56,3.56,0,0,1,1.24-.87A4,4,0,0,1,55.06,98a4,4,0,0,1,1.66.32,3.6,3.6,0,0,1,1.25.87,3.84,3.84,0,0,1,.78,1.29,4.51,4.51,0,0,1,0,3.13,3.84,3.84,0,0,1-.78,1.29,3.77,3.77,0,0,1-1.25.88A4,4,0,0,1,55.06,106.13Zm0-1.49a2.12,2.12,0,0,0,1-.21,1.9,1.9,0,0,0,.69-.56,2.47,2.47,0,0,0,.43-.82,3.59,3.59,0,0,0,.14-1,3.45,3.45,0,0,0-.14-1,2.57,2.57,0,0,0-.43-.82,2,2,0,0,0-.69-.56,2.28,2.28,0,0,0-1.91,0,2.25,2.25,0,0,0-.7.56,2.38,2.38,0,0,0-.43.82,3.12,3.12,0,0,0-.15,1,3.25,3.25,0,0,0,.15,1,2.3,2.3,0,0,0,.43.82,2.06,2.06,0,0,0,1.65.77Z" fill="#e52823"/><path d="M61.15,105.94V99.66H59.87V98.21h1.28v-.43a2.69,2.69,0,0,1,.69-2,2.37,2.37,0,0,1,1.75-.69,2.88,2.88,0,0,1,1.36.29l-.37,1.27a1.2,1.2,0,0,0-.67-.18,1,1,0,0,0-.8.32,1.49,1.49,0,0,0-.28,1v.43H64.4v1.45H62.83v6.28Z" fill="#e52823"/><path d="M66.1,105.94V99.66H64.82V98.21H66.1v-.43a2.69,2.69,0,0,1,.69-2,2.34,2.34,0,0,1,1.74-.69,2.86,2.86,0,0,1,1.36.29l-.37,1.27a1.17,1.17,0,0,0-.67-.18,1,1,0,0,0-.79.32,1.43,1.43,0,0,0-.28,1v.43h1.57v1.45H67.78v6.28Z" fill="#e52823"/><path d="M80.19,105.94v-1.06a3.26,3.26,0,0,1-1.08.91,2.84,2.84,0,0,1-1.4.34,3.4,3.4,0,0,1-1.36-.27,3,3,0,0,1-1.09-.8,3.78,3.78,0,0,1-.71-1.28,5.36,5.36,0,0,1-.26-1.72,5.28,5.28,0,0,1,.26-1.68,3.78,3.78,0,0,1,.71-1.28,2.93,2.93,0,0,1,1.08-.8A3.23,3.23,0,0,1,77.71,98a3,3,0,0,1,2.48,1.26V98.21h1.68v7.73Zm-2-1.3a2.32,2.32,0,0,0,.58-.08,2.51,2.51,0,0,0,.56-.22,2.89,2.89,0,0,0,.48-.33,1.54,1.54,0,0,0,.36-.41v-3.06a2.17,2.17,0,0,0-.36-.4,2.39,2.39,0,0,0-.48-.33,2.53,2.53,0,0,0-.56-.23,2.32,2.32,0,0,0-.58-.08,2,2,0,0,0-.91.2,2,2,0,0,0-.69.52,2.44,2.44,0,0,0-.44.81,3.65,3.65,0,0,0,0,2.07,2.44,2.44,0,0,0,.44.81,2,2,0,0,0,1.6.73Z" fill="#e52823"/><path d="M86,106.13a2,2,0,0,1-1.48-.51,2.06,2.06,0,0,1-.5-1.49V95.26h1.68v8.45a1.17,1.17,0,0,0,.18.67.66.66,0,0,0,.56.26,1.08,1.08,0,0,0,.44-.09.83.83,0,0,0,.31-.2l.4,1.28A1.69,1.69,0,0,1,87,106,2.73,2.73,0,0,1,86,106.13Z" fill="#e52823"/><path d="M90.61,106.13a2,2,0,0,1-1.48-.51,2,2,0,0,1-.5-1.49V95.26h1.68v8.45a1.17,1.17,0,0,0,.18.67.64.64,0,0,0,.55.26,1.13,1.13,0,0,0,.45-.09.71.71,0,0,0,.3-.2l.4,1.28a1.73,1.73,0,0,1-.6.35A2.77,2.77,0,0,1,90.61,106.13Z" fill="#e52823"/><path d="M102.77,105.94v-1.06a3.37,3.37,0,0,1-1.08.91,2.87,2.87,0,0,1-1.4.34,3.45,3.45,0,0,1-1.37-.27,3.18,3.18,0,0,1-1.09-.8,4,4,0,0,1-.71-1.28,5.37,5.37,0,0,1-.25-1.72,5.29,5.29,0,0,1,.25-1.68,4,4,0,0,1,.71-1.28,3.11,3.11,0,0,1,1.08-.8,3.31,3.31,0,0,1,1.38-.28,3,3,0,0,1,1.38.32,3.06,3.06,0,0,1,1.1.94v-4h1.68v10.68Zm-2-1.3a2.38,2.38,0,0,0,.58-.08,2.72,2.72,0,0,0,.56-.22,2.89,2.89,0,0,0,.48-.33,2,2,0,0,0,.36-.41v-3.06a3.25,3.25,0,0,0-.36-.4,2.39,2.39,0,0,0-.48-.33,2.75,2.75,0,0,0-.56-.23,2.38,2.38,0,0,0-.58-.08,2.08,2.08,0,0,0-.92.2,2,2,0,0,0-.68.52,2.27,2.27,0,0,0-.44.81,3.43,3.43,0,0,0,0,2.07,2.27,2.27,0,0,0,.44.81,2,2,0,0,0,1.6.73Z" fill="#e52823"/><path d="M110.13,106.13a4,4,0,0,1-1.66-.33,3.67,3.67,0,0,1-1.25-.88,3.87,3.87,0,0,1-.79-1.29,4.67,4.67,0,0,1,0-3.13,3.87,3.87,0,0,1,.79-1.29,3.51,3.51,0,0,1,1.25-.87,4.47,4.47,0,0,1,3.32,0,3.6,3.6,0,0,1,1.25.87,4,4,0,0,1,.79,1.29,4.67,4.67,0,0,1,0,3.13,4,4,0,0,1-.79,1.29,3.77,3.77,0,0,1-1.25.88A4,4,0,0,1,110.13,106.13Zm0-1.49a2.12,2.12,0,0,0,1-.21,2,2,0,0,0,.7-.56,2.65,2.65,0,0,0,.42-.82,3.25,3.25,0,0,0,.14-1,3.12,3.12,0,0,0-.14-1,2.76,2.76,0,0,0-.42-.82,2.14,2.14,0,0,0-.7-.56,2.12,2.12,0,0,0-1-.21,2,2,0,0,0-.94.21,2.18,2.18,0,0,0-.71.56,2.57,2.57,0,0,0-.43.82,3.12,3.12,0,0,0-.14,1,3.25,3.25,0,0,0,.14,1,2.47,2.47,0,0,0,.43.82,2.06,2.06,0,0,0,.71.56A2,2,0,0,0,110.13,104.64Z" fill="#e52823"/><path d="M119,109.07a5.58,5.58,0,0,1-1.76-.25,4,4,0,0,1-1.49-.9l.79-1.22a2.64,2.64,0,0,0,1.08.77,4,4,0,0,0,1.38.23,3.38,3.38,0,0,0,.83-.11,2,2,0,0,0,.73-.36,1.82,1.82,0,0,0,.53-.66,2.39,2.39,0,0,0,.2-1v-.88a3.46,3.46,0,0,1-1.08.94,2.88,2.88,0,0,1-1.4.35,3.63,3.63,0,0,1-1.37-.26,3.09,3.09,0,0,1-1.09-.77,3.66,3.66,0,0,1-.71-1.24,5.84,5.84,0,0,1,0-3.38,3.66,3.66,0,0,1,.71-1.24,3,3,0,0,1,1.08-.78,3.46,3.46,0,0,1,1.38-.26,3,3,0,0,1,1.38.32,3.06,3.06,0,0,1,1.1.94V98.21h1.68v7.33a3.79,3.79,0,0,1-.35,1.72,2.91,2.91,0,0,1-.92,1.09,3.43,3.43,0,0,1-1.28.56A6.31,6.31,0,0,1,119,109.07Zm.31-4.62a2.28,2.28,0,0,0,1.14-.31,2.32,2.32,0,0,0,.84-.72v-2.89a2.32,2.32,0,0,0-.84-.72,2.38,2.38,0,0,0-1.14-.31,2,2,0,0,0-1.6.68,2.64,2.64,0,0,0-.6,1.8,2.61,2.61,0,0,0,.6,1.8A2,2,0,0,0,119.27,104.45Z" fill="#e52823"/><path d="M129.23,105.94V95.26h1.68v4A3.05,3.05,0,0,1,133.39,98a3.35,3.35,0,0,1,1.39.28,3.05,3.05,0,0,1,1.09.8,4,4,0,0,1,.71,1.28,5.29,5.29,0,0,1,.25,1.68,5.37,5.37,0,0,1-.25,1.72,3.8,3.8,0,0,1-.72,1.28,3.21,3.21,0,0,1-1.1.8,3.45,3.45,0,0,1-1.37.27,2.89,2.89,0,0,1-1.39-.34,3.3,3.3,0,0,1-1.09-.91v1.06Zm1.68-2.32a2.31,2.31,0,0,0,.84.72,2.42,2.42,0,0,0,1.16.3,1.93,1.93,0,0,0,1.59-.72,2.86,2.86,0,0,0,.59-1.86,3.42,3.42,0,0,0-.15-1,2.44,2.44,0,0,0-.44-.81,2,2,0,0,0-.69-.52,2,2,0,0,0-.9-.2,2.57,2.57,0,0,0-2,1Z" fill="#e52823"/><path d="M142.11,106.13a4.49,4.49,0,0,1-1.62-.29,3.7,3.7,0,0,1-1.28-.82,3.79,3.79,0,0,1-.84-1.29,4.47,4.47,0,0,1-.31-1.67,4.33,4.33,0,0,1,.29-1.57,3.72,3.72,0,0,1,.81-1.29,3.88,3.88,0,0,1,1.24-.86A3.75,3.75,0,0,1,142,98a3.79,3.79,0,0,1,1.57.31,3.5,3.5,0,0,1,1.2.87,3.79,3.79,0,0,1,.76,1.33,5,5,0,0,1,.27,1.68v.41h-6a2.58,2.58,0,0,0,.24.82,2.36,2.36,0,0,0,.49.68,2.2,2.2,0,0,0,.75.46,2.47,2.47,0,0,0,1,.17,3.42,3.42,0,0,0,1.19-.22,2.81,2.81,0,0,0,1-.64l.77,1.1a3.81,3.81,0,0,1-1.41.85A5.19,5.19,0,0,1,142.11,106.13Zm2-4.71a2.1,2.1,0,0,0-1.22-1.84,2.33,2.33,0,0,0-1-.19,2.12,2.12,0,0,0-.93.19,1.82,1.82,0,0,0-.66.48,1.93,1.93,0,0,0-.41.65,2.08,2.08,0,0,0-.16.71Z" fill="#e52823"/><path d="M152.88,105.94v-1.06a3.37,3.37,0,0,1-1.08.91,2.87,2.87,0,0,1-1.4.34,3.45,3.45,0,0,1-1.37-.27,3.18,3.18,0,0,1-1.09-.8,4,4,0,0,1-.71-1.28,5.37,5.37,0,0,1-.25-1.72,5.29,5.29,0,0,1,.25-1.68,4,4,0,0,1,.71-1.28,3.11,3.11,0,0,1,1.08-.8A3.31,3.31,0,0,1,150.4,98a3,3,0,0,1,1.38.32,3.06,3.06,0,0,1,1.1.94v-4h1.68v10.68Zm-2-1.3a2.38,2.38,0,0,0,.58-.08,2.51,2.51,0,0,0,.56-.22,2.89,2.89,0,0,0,.48-.33,1.54,1.54,0,0,0,.36-.41v-3.06a2.17,2.17,0,0,0-.36-.4,2.39,2.39,0,0,0-.48-.33,2.53,2.53,0,0,0-.56-.23,2.38,2.38,0,0,0-.58-.08,2.11,2.11,0,0,0-.92.2,2,2,0,0,0-.68.52,2.27,2.27,0,0,0-.44.81,3.43,3.43,0,0,0,0,2.07,2.27,2.27,0,0,0,.44.81,2,2,0,0,0,1.6.73Z" fill="#e52823"/><path d="M159.39,106.13a5.48,5.48,0,0,1-1.85-.31,4.06,4.06,0,0,1-1.46-.91l.77-1.2a3,3,0,0,0,.5.4,3.53,3.53,0,0,0,.64.35,4.34,4.34,0,0,0,.72.24,3.82,3.82,0,0,0,.75.08,1.93,1.93,0,0,0,1.15-.28.85.85,0,0,0,.38-.74.62.62,0,0,0-.34-.58,4.21,4.21,0,0,0-.86-.32l-1.13-.25a4.57,4.57,0,0,1-1.13-.39,2.43,2.43,0,0,1-.86-.68,1.87,1.87,0,0,1-.35-1.19,2.12,2.12,0,0,1,.2-.9,2.2,2.2,0,0,1,.59-.75,2.76,2.76,0,0,1,.95-.5,4.3,4.3,0,0,1,1.3-.18,4.66,4.66,0,0,1,1.74.3,4.2,4.2,0,0,1,1.25.77l-.7,1.18a2.89,2.89,0,0,0-1-.65,3.24,3.24,0,0,0-1.34-.28,1.77,1.77,0,0,0-1.05.28.81.81,0,0,0-.37.68.56.56,0,0,0,.34.52,4.2,4.2,0,0,0,.87.29l1.12.26a4.59,4.59,0,0,1,1.13.4,2.34,2.34,0,0,1,.87.72,2,2,0,0,1,.34,1.22,2.24,2.24,0,0,1-.21,1,2.07,2.07,0,0,1-.61.77,3.18,3.18,0,0,1-1,.5A4.49,4.49,0,0,1,159.39,106.13Z" fill="#e52823"/></g></g></svg>