<svg xmlns="http://www.w3.org/2000/svg" xmlns:xlink="http://www.w3.org/1999/xlink" viewBox="0 0 160.06 600"><defs><clipPath id="clip-path" transform="translate(-7.05)"><rect y="291.15" width="148.37" height="114.65" fill="none"/></clipPath></defs><g id="Layer_2" data-name="Layer 2"><g id="content"><rect x="0.06" width="160" height="600"/><g id="Layer_1-2" data-name="Layer 1"><path d="M9.73,600c-.07-4.93-.05-7,0-10.76.67-48.09,35.12-80.7,78.44-80.7s78.6,36.13,78.6,80.7c0,3.65-.08,6.83,0,10.76" transform="translate(-7.05)" fill="#e52823"/></g><g clip-path="url(#clip-path)"><g clip-path="url(#clip-path)"><path d="M35.64,336c15-4.6,22.65,6.93,22.65,6.93S53.52,326.8,35.64,336" transform="translate(-7.05)" fill="#fff"/><path d="M64.74,336.55a4.86,4.86,0,0,1,0-.54,11.23,11.23,0,0,0-5.94,8.64s2.05-4.77,6.86-6.21a2.93,2.93,0,0,1-.92-1.89" transform="translate(-7.05)" fill="#fff"/><path d="M45.54,343.28s0,2.27,0,3.42c-.58,0-3.08-.16-4.18-.2,0,.61,0,1.25,0,1.86,1.32,0,2.68.18,4,.17,0,1.1,0,2.05,0,3.16-1.31,0-2.63-.11-4-.14,0,.68,0,1.34,0,2,1.42,0,2.84.15,4.25.13,0-.05,0,3.36,0,3.36-2.8,0-6.12-.22-9.26-.48l.22-14c1.32.15,5.43.59,9,.7" transform="translate(-7.05)" fill="#fff"/><path d="M46.73,343.31l0,3.65c1.32.07,2.5.07,2.5.07v10.14a31.64,31.64,0,0,0,5-.07l-.06-10s2.24-.1,2.58-.13c0-1.35,0-2.4,0-3.74a87.23,87.23,0,0,1-10,.12" transform="translate(-7.05)" fill="#fff"/><path d="M114.27,341.08c0,1.45,0,2.79,0,4.24.86.05,1.83.22,2.68.29,0,3.54-.09,6.22-.09,9.75,2.38.29,4.07.56,4.72.68,0-3.53.14-6.32.14-9.86,0,0,2.52.39,2.57.43v-4.36a77.55,77.55,0,0,0-10-1.17" transform="translate(-7.05)" fill="#fff"/><path d="M30.36,341.14l-6-1.09,0,14.68c1.54.3,2.94.56,4.44.72l0-4.24,1.61.18c2.6.24,5.22-.74,5.26-5,0-3.76-2.48-4.85-5.26-5.26m-1.11,6.76-.44,0c0-1,0-1.91,0-2.87l.43,0a1.47,1.47,0,0,1,1.46,1.54c0,1.19-.74,1.42-1.47,1.34" transform="translate(-7.05)" fill="#fff"/><path d="M80.36,354.77c.67-1.75,1.34-3.38,2-5.13.11,1.68.17,3.19.28,4.86,1.67-.18,3-.28,4.7-.38-.43-4.46-.81-9.25-1.24-13.7l-4.32.39c-.81,2.11-1.62,4.66-2.42,6.77-.78-1.95-1.56-4.24-2.34-6.18-1.46.21-4,.66-4.32.66-.5,4.55-1.06,9.6-1.56,14.14,1.14-.2,3.95-.64,4.79-.76.13-1.69.26-3.5.39-5.2q1,2.43,1.94,4.86l2.09-.33" transform="translate(-7.05)" fill="#fff"/><path d="M111.11,350.1c1.28-.57,2.21-1.81,2.24-4.27.05-3.71-2.57-5.3-5.23-5.5-2-.16-4-.26-6-.32-.06,4.71-.08,9-.15,13.75,1.5,0,3.15.15,4.47.26,0-1.32,0-2.31,0-3.64.86,1.39,1.56,2.53,2.42,3.94,1.85.16,3.74.4,5.59.67-1.16-1.73-2.2-3.2-3.36-4.89m-4.16-3-.44,0,0-2.84.43,0a1.41,1.41,0,0,1,1.46,1.49,1.22,1.22,0,0,1-1.48,1.35" transform="translate(-7.05)" fill="#fff"/><path d="M96.84,339.91c-1.78,0-3.24,0-4.77.1-1.23,4.57-2.67,9.46-3.9,14.05,1.36,0,2.75-.12,4.11-.12.13-.48.27-1,.4-1.52l2.09-.06s1.83-.05,1.83-.05c.06.17.22.65.46,1.45,1.37,0,2.74,0,4.1,0-1.48-4.84-3-9.5-4.32-13.89m-3.27,9.28c.31-1.17.62-2.4.93-3.57l1.08,3.52a18.63,18.63,0,0,1-2,.05" transform="translate(-7.05)" fill="#fff"/><path d="M122.65,354.73a.76.76,0,1,1-.75.75.75.75,0,0,1,.74-.75Zm0,.12a.64.64,0,1,0,.61.64.62.62,0,0,0-.61-.64Zm-.14,1.07h-.13v-.84l.24,0a.43.43,0,0,1,.26.07.18.18,0,0,1,.07.17.2.2,0,0,1-.16.2h0c.07,0,.12.08.14.2a1,1,0,0,0,0,.21h-.14a.52.52,0,0,1,0-.21.16.16,0,0,0-.18-.15h-.1Zm0-.46h.1c.11,0,.2,0,.2-.15s0-.14-.2-.14h-.1Z" transform="translate(-7.05)" fill="#fff"/><path d="M58.3,355.87a12.2,12.2,0,0,0,5.54,1.4c3.14,0,6.42-1.87,6.49-5.39,0-2.5-1.54-3.69-3.76-4.18l-1.19-.27c-.4-.1-1-.18-1-.73s.69-.78,1.15-.78a8.36,8.36,0,0,1,3.2.68c.44-1.18.89-2.36,1.33-3.53A10.3,10.3,0,0,0,65.45,342c-3.15,0-6.32,1.91-6.39,5.4-.05,2.31,1.66,3.57,3.71,3.95l1,.2c.48.1,1.17.16,1.16.82s-.83.74-1.35.74A6.18,6.18,0,0,1,60,351.9c-.55,1.23-1.19,2.75-1.73,4" transform="translate(-7.05)" fill="#fff"/><path d="M69.64,332a3.53,3.53,0,1,0,3.49,3.57A3.52,3.52,0,0,0,69.64,332m1.28,1.3a4.23,4.23,0,0,0-3.79,2.22s0,0,0,0a2.53,2.53,0,0,1,.09-1,2.41,2.41,0,0,1,2.93-1.72,2.29,2.29,0,0,1,.83.45l0,0" transform="translate(-7.05)" fill="#fff"/></g></g><path d="M21.27,21.34H34.6a8.17,8.17,0,0,1,4,.9,6,6,0,0,1,2.49,2.35,6.36,6.36,0,0,1,.84,3.21,6,6,0,0,1-1.25,3.88,5.31,5.31,0,0,1-3.12,1.94A5.29,5.29,0,0,1,41,35.71a6.48,6.48,0,0,1,1.4,4.14,6.65,6.65,0,0,1-1.93,4.9A7.38,7.38,0,0,1,35,46.69H21.27ZM33.43,31.53a3,3,0,0,0,2.16-.78,2.73,2.73,0,0,0,.8-2,2.63,2.63,0,0,0-.82-2,2.94,2.94,0,0,0-2.14-.8H26.66v5.59Zm.19,10.56A3.34,3.34,0,0,0,36,41.27,3.08,3.08,0,0,0,36,37a3.27,3.27,0,0,0-2.39-.86h-7v6Z" transform="translate(-7.05)" fill="#fff"/><path d="M47.66,45.91a5,5,0,0,1-1.31-3.75V21.34h4.82V40.87a2.21,2.21,0,0,0,.46,1.45,1.47,1.47,0,0,0,1.21.57,3.12,3.12,0,0,0,1-.15,1.41,1.41,0,0,0,.65-.38l1,3.65a5.87,5.87,0,0,1-4,1.17A5.31,5.31,0,0,1,47.66,45.91Z" transform="translate(-7.05)" fill="#fff"/><path d="M70.29,44.33a7.49,7.49,0,0,1-2.53,2.11,6.78,6.78,0,0,1-3.14.74A7.86,7.86,0,0,1,60.44,46a7.59,7.59,0,0,1-2.9-3.31,11.79,11.79,0,0,1-1-5.18,11.73,11.73,0,0,1,1-5.12,8,8,0,0,1,2.88-3.37,7.6,7.6,0,0,1,4.2-1.18,7.06,7.06,0,0,1,3.12.72,7.2,7.2,0,0,1,2.55,2.09V28.34h4.86V46.69H70.29Zm0-10A4.65,4.65,0,0,0,68.5,32.8a5.34,5.34,0,0,0-2.39-.59,4.25,4.25,0,0,0-3.35,1.47,5.65,5.65,0,0,0-1.29,3.87,5.65,5.65,0,0,0,1.29,3.85,4.24,4.24,0,0,0,3.35,1.49,5.34,5.34,0,0,0,2.39-.59,4.65,4.65,0,0,0,1.79-1.51Z" transform="translate(-7.05)" fill="#fff"/><path d="M80,32.54a9,9,0,0,1,3.46-3.42,10,10,0,0,1,5-1.24,9.64,9.64,0,0,1,4.41.93,7.74,7.74,0,0,1,2.85,2.38l-3.16,3a4.37,4.37,0,0,0-3.87-2,4.7,4.7,0,0,0-3.59,1.47,5.39,5.39,0,0,0-1.39,3.87,5.45,5.45,0,0,0,1.39,3.89,4.81,4.81,0,0,0,7.46-.49l3.16,2.93a8,8,0,0,1-2.83,2.39,9.36,9.36,0,0,1-4.43,1,10.12,10.12,0,0,1-5-1.23A9,9,0,0,1,80,42.52a10.58,10.58,0,0,1,0-10Z" transform="translate(-7.05)" fill="#fff"/><path d="M105.93,39.62,103.73,42v4.71H98.9V21.34h4.83V36.51l7-8.17h5.93l-7.26,8.32,7.49,10h-6Z" transform="translate(-7.05)" fill="#fff"/><path d="M21.27,59.34H39.2V64H26.66v5.51H38.94v4.63H26.66V84.69H21.27Z" transform="translate(-7.05)" fill="#fff"/><path d="M42.85,66.34h4.83v2.5a8.11,8.11,0,0,1,2.58-2.11,6.82,6.82,0,0,1,3.27-.85v4.71a6.23,6.23,0,0,0-1.33-.15,6.36,6.36,0,0,0-2.59.61,4.29,4.29,0,0,0-1.93,1.48V84.69H42.85Z" transform="translate(-7.05)" fill="#fff"/><path d="M56.89,62.78a2.89,2.89,0,0,1,2-4.92,2.89,2.89,0,1,1-2,4.92Zm-.36,3.56h4.83V84.69H56.53Z" transform="translate(-7.05)" fill="#fff"/><path d="M78.76,82.33a7.39,7.39,0,0,1-2.53,2.11,6.74,6.74,0,0,1-3.13.74A7.83,7.83,0,0,1,68.92,84,7.67,7.67,0,0,1,66,80.73a13.27,13.27,0,0,1,0-10.3,8,8,0,0,1,2.89-3.37,7.6,7.6,0,0,1,4.2-1.18,7,7,0,0,1,3.11.72,7.2,7.2,0,0,1,2.55,2.09V59.34h4.86V84.69H78.76Zm0-10.06A4.57,4.57,0,0,0,77,70.76a5.31,5.31,0,0,0-2.39-.59,4.22,4.22,0,0,0-3.34,1.49,5.68,5.68,0,0,0-1.3,3.89,5.61,5.61,0,0,0,1.3,3.85,4.22,4.22,0,0,0,3.34,1.49A5.31,5.31,0,0,0,77,80.3a4.57,4.57,0,0,0,1.79-1.51Z" transform="translate(-7.05)" fill="#fff"/><path d="M101,82.33a7.39,7.39,0,0,1-2.53,2.11,6.77,6.77,0,0,1-3.13.74A7.83,7.83,0,0,1,91.19,84a7.55,7.55,0,0,1-2.91-3.31,13.15,13.15,0,0,1,0-10.3,7.92,7.92,0,0,1,2.89-3.37,7.55,7.55,0,0,1,4.2-1.18,7.05,7.05,0,0,1,3.11.72A7.2,7.2,0,0,1,101,68.69V66.34h4.86V84.69H101Zm0-10a4.57,4.57,0,0,0-1.79-1.51,5.31,5.31,0,0,0-2.39-.59,4.25,4.25,0,0,0-3.35,1.47,6.42,6.42,0,0,0,0,7.72,4.24,4.24,0,0,0,3.35,1.49,5.31,5.31,0,0,0,2.39-.59A4.57,4.57,0,0,0,101,78.79Z" transform="translate(-7.05)" fill="#fff"/><path d="M112.62,85.9a5.78,5.78,0,0,0,2.43,1.71,8.51,8.51,0,0,0,3.08.58A5.14,5.14,0,0,0,121.78,87a4.58,4.58,0,0,0,1.29-3.5v-1.9a8.65,8.65,0,0,1-2.72,2,8.52,8.52,0,0,1-3.74.8,6,6,0,0,1-4.45-1.52,5.84,5.84,0,0,1-1.48-4.26V66.34h4.83V76.67a3.32,3.32,0,0,0,.87,2.6,3.65,3.65,0,0,0,2.51.78,4.8,4.8,0,0,0,2.39-.61A5.59,5.59,0,0,0,123.07,78V66.34h4.82v16.9a8.3,8.3,0,0,1-2.64,6.56,10.34,10.34,0,0,1-7.12,2.34,11.21,11.21,0,0,1-7.68-2.74Z" transform="translate(-7.05)" fill="#fff"/><path d="M33.77,120.33a7.39,7.39,0,0,1-2.53,2.11,6.74,6.74,0,0,1-3.13.74A7.83,7.83,0,0,1,23.93,122,7.61,7.61,0,0,1,21,118.73a13.15,13.15,0,0,1,0-10.3,8,8,0,0,1,2.89-3.37,7.58,7.58,0,0,1,4.2-1.18,7,7,0,0,1,3.11.72,7.2,7.2,0,0,1,2.55,2.09V97.34h4.86v25.35H33.77Zm0-10.06A4.57,4.57,0,0,0,32,108.76a5.31,5.31,0,0,0-2.39-.59,4.25,4.25,0,0,0-3.35,1.49A5.73,5.73,0,0,0,25,113.55a5.65,5.65,0,0,0,1.29,3.85,4.25,4.25,0,0,0,3.35,1.49A5.31,5.31,0,0,0,32,118.3a4.57,4.57,0,0,0,1.79-1.51Z" transform="translate(-7.05)" fill="#fff"/><path d="M43.46,108.66a9.28,9.28,0,0,1,3.38-3.49,9.39,9.39,0,0,1,4.9-1.29,9,9,0,0,1,4.79,1.27,8.65,8.65,0,0,1,3.25,3.57A11.61,11.61,0,0,1,60.94,114v1.06H47.3a4.69,4.69,0,0,0,1.63,3.07,5.34,5.34,0,0,0,3.65,1.23,7.78,7.78,0,0,0,2.68-.5,6.23,6.23,0,0,0,2.22-1.33l2.13,3.12a9.21,9.21,0,0,1-3.35,1.88,13.44,13.44,0,0,1-4.21.66,10.46,10.46,0,0,1-5-1.2,8.81,8.81,0,0,1-3.52-3.38,10,10,0,0,1-1.27-5.09A9.84,9.84,0,0,1,43.46,108.66Zm5.09.29a5,5,0,0,0-1.33,2.83h9A4.59,4.59,0,0,0,55,109a4.2,4.2,0,0,0-3.29-1.25A4.13,4.13,0,0,0,48.55,109Z" transform="translate(-7.05)" fill="#fff"/><path d="M77.05,120.33a7.39,7.39,0,0,1-2.53,2.11,6.74,6.74,0,0,1-3.13.74A7.83,7.83,0,0,1,67.21,122a7.67,7.67,0,0,1-2.91-3.31,13.27,13.27,0,0,1,0-10.3,8,8,0,0,1,2.89-3.37,7.6,7.6,0,0,1,4.2-1.18,7,7,0,0,1,3.11.72,7.2,7.2,0,0,1,2.55,2.09v-2.35h4.86v18.35H77.05Zm0-10a4.57,4.57,0,0,0-1.79-1.51,5.31,5.31,0,0,0-2.39-.59,4.23,4.23,0,0,0-3.34,1.47,6.38,6.38,0,0,0,0,7.72,4.22,4.22,0,0,0,3.34,1.49,5.31,5.31,0,0,0,2.39-.59,4.57,4.57,0,0,0,1.79-1.51Z" transform="translate(-7.05)" fill="#fff"/><path d="M88,121.91a5,5,0,0,1-1.31-3.75V97.34h4.83v19.53a2.26,2.26,0,0,0,.45,1.45,1.49,1.49,0,0,0,1.22.57,3.21,3.21,0,0,0,1-.15,1.37,1.37,0,0,0,.64-.38l1,3.65a5.9,5.9,0,0,1-4,1.17A5.33,5.33,0,0,1,88,121.91Z" transform="translate(-7.05)" fill="#fff"/><path d="M98.52,117a9.71,9.71,0,0,0,2.89,1.75,8.92,8.92,0,0,0,3.46.76,4.34,4.34,0,0,0,2.3-.5,1.56,1.56,0,0,0,.77-1.38,1.43,1.43,0,0,0-.91-1.34,11.8,11.8,0,0,0-2.77-.85,27.22,27.22,0,0,1-3.65-.91,6,6,0,0,1-2.51-1.65A4.51,4.51,0,0,1,97,109.65a5.1,5.1,0,0,1,.89-2.88,6.06,6.06,0,0,1,2.6-2.11,9.66,9.66,0,0,1,4-.78,11.55,11.55,0,0,1,7.41,2.51l-1.94,3.3a7,7,0,0,0-2.33-1.52,8.12,8.12,0,0,0-3.1-.61,4.21,4.21,0,0,0-2.11.46,1.39,1.39,0,0,0-.78,1.25,1.27,1.27,0,0,0,.86,1.2,12.67,12.67,0,0,0,2.64.78,25.14,25.14,0,0,1,3.68,1,6.37,6.37,0,0,1,2.59,1.76,4.77,4.77,0,0,1,1.1,3.31,5.27,5.27,0,0,1-.93,3,6.07,6.07,0,0,1-2.74,2.11,10.9,10.9,0,0,1-4.27.76,13.71,13.71,0,0,1-4.58-.76,10,10,0,0,1-3.63-2.09Z" transform="translate(-7.05)" fill="#fff"/><path d="M22.48,153.05A11.26,11.26,0,0,0,26,155.52a10.79,10.79,0,0,0,4.54.95,5.48,5.48,0,0,0,3.25-.84,2.47,2.47,0,0,0,1.16-2,2.14,2.14,0,0,0-1.26-2,17.25,17.25,0,0,0-3.87-1.28A39.31,39.31,0,0,1,25,149a8.14,8.14,0,0,1-3.25-2.23,6,6,0,0,1-1.39-4.17,6.82,6.82,0,0,1,1.18-3.88,8,8,0,0,1,3.37-2.77,12,12,0,0,1,5.07-1,14,14,0,0,1,9.88,3.53l-3,3.95a10.23,10.23,0,0,0-3.4-2.07,11.13,11.13,0,0,0-3.86-.7,4.65,4.65,0,0,0-2.76.7,2.27,2.27,0,0,0-1,1.9A1.84,1.84,0,0,0,27,144a22.81,22.81,0,0,0,3.88,1.21,33.33,33.33,0,0,1,4.8,1.39,8.36,8.36,0,0,1,3.31,2.3A6,6,0,0,1,40.42,153a7.45,7.45,0,0,1-2.6,5.91c-1.74,1.49-4.25,2.24-7.55,2.24q-6.72,0-10.75-4Z" transform="translate(-7.05)" fill="#fff"/><path d="M49.65,140.09H42.24v-4.75H62.46v4.75H55.09v20.6H49.65Z" transform="translate(-7.05)" fill="#fff"/><path d="M79.63,156.32H68.31l-1.6,4.37H60.79l9.8-25.35h6.76l9.77,25.35H81.23Zm-9.88-4.67h8.4L74,140Z" transform="translate(-7.05)" fill="#fff"/><path d="M98.82,151.61H94.87v9.08H89.48V135.34h11.85a9.34,9.34,0,0,1,4.52,1,7.18,7.18,0,0,1,3,2.91,8.6,8.6,0,0,1,1,4.21,7.69,7.69,0,0,1-1.61,5.06A7.15,7.15,0,0,1,104.3,151l5.7,9.65h-6.2ZM103.25,141a3.91,3.91,0,0,0-2.72-1H94.87v7h5.66a3.91,3.91,0,0,0,2.72-1,3.49,3.49,0,0,0,0-5.05Z" transform="translate(-7.05)" fill="#fff"/><path d="M119.38,140.09H112v-4.75h20.22v4.75h-7.37v20.6h-5.44Z" transform="translate(-7.05)" fill="#fff"/><path d="M26.66,181.66v17H21.27V173.34h5.54l11.75,16.42V173.34H44v25.35h-5.2Z" transform="translate(-7.05)" fill="#fff"/><path d="M49.46,179.3a12.29,12.29,0,0,1,4.73-4.68,14.55,14.55,0,0,1,13.61,0,12.29,12.29,0,0,1,4.73,4.68,14.2,14.2,0,0,1,0,13.51,12.29,12.29,0,0,1-4.73,4.68,14.55,14.55,0,0,1-13.61,0,12.29,12.29,0,0,1-4.73-4.68,14.2,14.2,0,0,1,0-13.51Zm18.28,2.49a7.16,7.16,0,0,0-2.72-3,7.5,7.5,0,0,0-4-1.09,7.42,7.42,0,0,0-4,1.09,7.18,7.18,0,0,0-2.7,3,10,10,0,0,0,0,8.53,7.18,7.18,0,0,0,2.7,3,7.51,7.51,0,0,0,4,1.09,7.59,7.59,0,0,0,4-1.09,7.16,7.16,0,0,0,2.72-3,10,10,0,0,0,0-8.53Z" transform="translate(-7.05)" fill="#fff"/><path d="M92.21,181.28,87.8,198.69H82.07l-7.26-25.35h6l4.45,18.32,4.82-18.32h4.22l4.79,18.32,4.41-18.32h6.08l-7.22,25.35H96.66Z" transform="translate(-7.05)" fill="#fff"/></g><g id="rec"><rect width="160" height="600" fill="none"/></g></g></svg>