<svg xmlns="http://www.w3.org/2000/svg" viewBox="0 0 160 600"><g id="Layer_2" data-name="Layer 2"><g id="rec"><rect width="160" height="600" fill="none"/></g><g id="sbhd"><path d="M16.64,230.08a6,6,0,0,1-2.48-.47,5,5,0,0,1-1.72-1.28L13.58,227a3.79,3.79,0,0,0,3,1.36,2.38,2.38,0,0,0,1.71-.58,1.84,1.84,0,0,0,.62-1.42,1.87,1.87,0,0,0-.61-1.47,2.42,2.42,0,0,0-1.66-.54,3.83,3.83,0,0,0-1.33.23,3.5,3.5,0,0,0-1.16.74l-1.41-.41v-6.32h7.43v1.77H14.77v3.24a4.07,4.07,0,0,1,1.09-.68,3.69,3.69,0,0,1,1.48-.29,4.1,4.1,0,0,1,1.38.25,3.36,3.36,0,0,1,1.16.71,3.65,3.65,0,0,1,.8,1.15,3.83,3.83,0,0,1,.3,1.55,3.71,3.71,0,0,1-.33,1.59,3.55,3.55,0,0,1-.89,1.21,4.07,4.07,0,0,1-1.37.77A5.4,5.4,0,0,1,16.64,230.08Z" fill="#e52823"/><path d="M26.93,230.08a3.88,3.88,0,0,1-2.07-.52,4.2,4.2,0,0,1-1.4-1.35,6.26,6.26,0,0,1-.81-1.88,8.73,8.73,0,0,1,0-4.23,6.37,6.37,0,0,1,.81-1.88,4.27,4.27,0,0,1,1.4-1.34,4,4,0,0,1,2.07-.51,3.91,3.91,0,0,1,2,.51,4.3,4.3,0,0,1,1.41,1.34,6.1,6.1,0,0,1,.8,1.88,8.42,8.42,0,0,1,0,4.23,6,6,0,0,1-.8,1.88A4.23,4.23,0,0,1,29,229.56,3.82,3.82,0,0,1,26.93,230.08Zm0-1.77a1.94,1.94,0,0,0,1.16-.34,2.34,2.34,0,0,0,.77-.9,4.42,4.42,0,0,0,.43-1.3,8.61,8.61,0,0,0,.13-1.55,9.68,9.68,0,0,0-.12-1.56,4.42,4.42,0,0,0-.43-1.3,2.48,2.48,0,0,0-.77-.89,2.26,2.26,0,0,0-2.35,0,2.58,2.58,0,0,0-.77.89,4.42,4.42,0,0,0-.43,1.3,8.71,8.71,0,0,0,0,3.11,4.42,4.42,0,0,0,.43,1.3,2.53,2.53,0,0,0,.77.9A2,2,0,0,0,26.93,228.31Z" fill="#e52823"/><path d="M35.46,224a3.06,3.06,0,0,1-1.15-.21,2.71,2.71,0,0,1-.89-.59,2.84,2.84,0,0,1-.58-.9,3,3,0,0,1-.2-1.1,3.08,3.08,0,0,1,.2-1.11,2.78,2.78,0,0,1,.58-.91,2.71,2.71,0,0,1,.89-.59,3.06,3.06,0,0,1,1.15-.21,3.15,3.15,0,0,1,1.16.21,2.61,2.61,0,0,1,.89.59,2.92,2.92,0,0,1,.57.91,3.08,3.08,0,0,1,.2,1.11,3,3,0,0,1-.2,1.1,3,3,0,0,1-.57.9,2.61,2.61,0,0,1-.89.59A3.15,3.15,0,0,1,35.46,224Zm0-1.13a1.43,1.43,0,0,0,1.09-.47,1.71,1.71,0,0,0,.42-1.21,1.81,1.81,0,0,0-.42-1.24,1.43,1.43,0,0,0-1.09-.47,1.39,1.39,0,0,0-1.07.47,1.77,1.77,0,0,0-.43,1.24,1.68,1.68,0,0,0,.43,1.21A1.39,1.39,0,0,0,35.46,222.86Zm-1.11,7,7.25-11.34h1.15l-7.26,11.35Zm7.21.2a3.06,3.06,0,0,1-1.15-.21,2.71,2.71,0,0,1-.89-.59,2.91,2.91,0,0,1-.58-.89,3.08,3.08,0,0,1-.2-1.11,3.17,3.17,0,0,1,.2-1.11,2.69,2.69,0,0,1,.58-.89,2.59,2.59,0,0,1,.89-.6,3.25,3.25,0,0,1,2.3,0,2.5,2.5,0,0,1,.89.6,2.69,2.69,0,0,1,.58.89,3,3,0,0,1,.2,1.11,2.76,2.76,0,0,1-.78,2,2.61,2.61,0,0,1-.89.59A3.06,3.06,0,0,1,41.56,230.08Zm0-1.14a1.41,1.41,0,0,0,1.09-.46,1.71,1.71,0,0,0,.43-1.2,1.8,1.8,0,0,0-.43-1.24,1.41,1.41,0,0,0-1.09-.46,1.42,1.42,0,0,0-1.09.46,1.79,1.79,0,0,0-.42,1.24,1.7,1.7,0,0,0,.42,1.2A1.42,1.42,0,0,0,41.56,228.94Z" fill="#e52823"/><path d="M54.12,230.08a4.32,4.32,0,0,1-1.76-.35A4,4,0,0,1,51,228.8a4.06,4.06,0,0,1-.83-1.37,4.84,4.84,0,0,1-.29-1.67,4.79,4.79,0,0,1,.29-1.66,4.06,4.06,0,0,1,.83-1.37,4,4,0,0,1,1.33-.93,4.75,4.75,0,0,1,3.53,0,4,4,0,0,1,1.33.93,4.06,4.06,0,0,1,.83,1.37,4.79,4.79,0,0,1,.29,1.66,4.84,4.84,0,0,1-.29,1.67,4.06,4.06,0,0,1-.83,1.37,4,4,0,0,1-1.33.93A4.33,4.33,0,0,1,54.12,230.08Zm0-1.58a2.19,2.19,0,0,0,1-.22,2.09,2.09,0,0,0,.74-.6,2.57,2.57,0,0,0,.45-.87,3.34,3.34,0,0,0,.16-1.05,3.17,3.17,0,0,0-.16-1,2.57,2.57,0,0,0-.45-.87,2.09,2.09,0,0,0-.74-.6,2.43,2.43,0,0,0-2,0,2.43,2.43,0,0,0-.75.6,2.78,2.78,0,0,0-.46.87,3.47,3.47,0,0,0-.15,1,3.65,3.65,0,0,0,.15,1.05,2.78,2.78,0,0,0,.46.87,2.43,2.43,0,0,0,.75.6A2.19,2.19,0,0,0,54.12,228.5Z" fill="#e52823"/><path d="M60.6,229.88v-6.67H59.24v-1.54H60.6v-.46a2.89,2.89,0,0,1,.73-2.11,2.52,2.52,0,0,1,1.86-.73,3,3,0,0,1,1.44.3L64.24,220a1.23,1.23,0,0,0-.71-.19,1.06,1.06,0,0,0-.85.34,1.59,1.59,0,0,0-.29,1v.46h1.66v1.54H62.39v6.67Z" fill="#e52823"/><path d="M65.85,229.88v-6.67H64.49v-1.54h1.36v-.46a2.85,2.85,0,0,1,.74-2.11,2.48,2.48,0,0,1,1.85-.73,3,3,0,0,1,1.44.3L69.49,220a1.23,1.23,0,0,0-.71-.19,1.05,1.05,0,0,0-.84.34,1.54,1.54,0,0,0-.3,1v.46h1.67v1.54H67.64v6.67Z" fill="#e52823"/><path d="M77.81,229.88v-9.57H74.37v-1.77h8.86v1.77H79.79v9.57Z" fill="#e52823"/><path d="M86.8,230.08a4.33,4.33,0,0,1-1.77-.35,3.91,3.91,0,0,1-2.16-2.3,4.84,4.84,0,0,1-.29-1.67,4.79,4.79,0,0,1,.29-1.66A3.91,3.91,0,0,1,85,221.8a4.33,4.33,0,0,1,1.77-.34,4.4,4.4,0,0,1,1.77.34,3.94,3.94,0,0,1,1.32.93,4.25,4.25,0,0,1,.84,1.37,4.78,4.78,0,0,1,.28,1.66,4.84,4.84,0,0,1-.28,1.67,4.25,4.25,0,0,1-.84,1.37,3.94,3.94,0,0,1-1.32.93A4.4,4.4,0,0,1,86.8,230.08Zm0-1.58a2.25,2.25,0,0,0,1-.22,2.28,2.28,0,0,0,.74-.6,2.57,2.57,0,0,0,.45-.87,3.65,3.65,0,0,0,.15-1.05,3.47,3.47,0,0,0-.15-1,2.57,2.57,0,0,0-.45-.87,2.28,2.28,0,0,0-.74-.6,2.39,2.39,0,0,0-1-.22,2.34,2.34,0,0,0-1,.22,2.28,2.28,0,0,0-.74.6,2.42,2.42,0,0,0-.46.87,3.47,3.47,0,0,0-.15,1,3.65,3.65,0,0,0,.15,1.05,2.42,2.42,0,0,0,.46.87,2.28,2.28,0,0,0,.74.6A2.21,2.21,0,0,0,86.8,228.5Z" fill="#e52823"/><path d="M97.25,230.08a3.14,3.14,0,0,1-1.45-.35,3.57,3.57,0,0,1-1.18-1V233H92.83V221.67h1.79v1.12a3.25,3.25,0,0,1,1.14-1,3.13,3.13,0,0,1,1.49-.36,3.66,3.66,0,0,1,1.46.29,3.09,3.09,0,0,1,1.15.84,3.86,3.86,0,0,1,.76,1.35,6.27,6.27,0,0,1,0,3.64,3.86,3.86,0,0,1-.76,1.35,3.23,3.23,0,0,1-1.15.85A3.5,3.5,0,0,1,97.25,230.08Zm-.52-1.58a2.1,2.1,0,0,0,1.7-.77,3.42,3.42,0,0,0,0-3.93,2.09,2.09,0,0,0-1.7-.76,2.56,2.56,0,0,0-1.22.32,2.34,2.34,0,0,0-.89.77v3.25a2.22,2.22,0,0,0,.38.44,2.74,2.74,0,0,0,.51.36,2.57,2.57,0,0,0,.6.23A2.21,2.21,0,0,0,96.73,228.5Z" fill="#e52823"/><path d="M107.11,229.88V218.54h7.77v1.77H109.1v2.89h5.66V225H109.1v4.92Z" fill="#e52823"/><path d="M117.53,220.66a1.09,1.09,0,0,1-1.1-1.1,1.11,1.11,0,1,1,2.21,0,1.09,1.09,0,0,1-1.11,1.1Zm-.9,9.22v-8.21h1.79v8.21Z" fill="#e52823"/><path d="M126.29,229.88v-5.14a1.64,1.64,0,0,0-.45-1.33,1.85,1.85,0,0,0-1.22-.37,2.37,2.37,0,0,0-1.23.34,3.5,3.5,0,0,0-.88.75v5.75h-1.78v-8.21h1.78v1.1a4,4,0,0,1,.51-.48,3.65,3.65,0,0,1,.67-.42,5.08,5.08,0,0,1,.8-.3,4,4,0,0,1,.93-.11,2.66,2.66,0,0,1,2,.68,2.7,2.7,0,0,1,.66,2v5.78Z" fill="#e52823"/><path d="M133.78,219.61a2.17,2.17,0,0,1-.16.81,2.08,2.08,0,0,1-.45.67,1.8,1.8,0,0,1-.67.45,2.08,2.08,0,0,1-.82.17,2,2,0,0,1-.82-.17,1.89,1.89,0,0,1-.67-.45,2.08,2.08,0,0,1-.45-.67,2,2,0,0,1-.16-.81,2.12,2.12,0,0,1,.16-.83,2,2,0,0,1,.45-.66,2.19,2.19,0,0,1,.67-.45,2,2,0,0,1,.82-.16,2.07,2.07,0,0,1,1.49.61,2,2,0,0,1,.45.66A2.31,2.31,0,0,1,133.78,219.61Zm-.3,0a1.7,1.7,0,0,0-.14-.71,1.74,1.74,0,0,0-.39-.58,1.73,1.73,0,0,0-.57-.38,1.87,1.87,0,0,0-.71-.14,1.82,1.82,0,0,0-.7.14,2,2,0,0,0-.57.38,1.91,1.91,0,0,0-.39.58,1.87,1.87,0,0,0-.14.71,1.81,1.81,0,0,0,.14.69,1.75,1.75,0,0,0,.39.57,2.22,2.22,0,0,0,.57.39,1.82,1.82,0,0,0,.7.14,1.87,1.87,0,0,0,.71-.14,1.92,1.92,0,0,0,.57-.39,1.61,1.61,0,0,0,.39-.57A1.64,1.64,0,0,0,133.48,219.61Zm-1.23,1.21-.62-1h-.43v1h-.33v-2.41h1a.76.76,0,0,1,.54.2.65.65,0,0,1,.24.53.71.71,0,0,1-.08.34.67.67,0,0,1-.18.22.57.57,0,0,1-.21.12l-.16,0,.65,1Zm0-1.68a.39.39,0,0,0-.14-.32.45.45,0,0,0-.29-.13h-.66v.88h.66a.44.44,0,0,0,.29-.12A.37.37,0,0,0,132.29,219.14Z" fill="#e52823"/><path d="M12.68,250.68V239.34h7.77v1.77H14.67V244h5.66v1.76H14.67v3.15h5.78v1.77Z" fill="#e52823"/><path d="M28,250.68v-5.14a1.64,1.64,0,0,0-.45-1.33,1.85,1.85,0,0,0-1.22-.37,2.37,2.37,0,0,0-1.23.34,3.5,3.5,0,0,0-.88.75v5.75H22.44v-8.21h1.78v1.1a4.62,4.62,0,0,1,.5-.48,4.12,4.12,0,0,1,.68-.42,4,4,0,0,1,.8-.3,4,4,0,0,1,.93-.11,2.36,2.36,0,0,1,2.65,2.64v5.78Z" fill="#e52823"/><path d="M35.83,250.88a4.44,4.44,0,0,1-1.7-.32,4.05,4.05,0,0,1-1.34-.9,4.16,4.16,0,0,1-.87-1.37,4.63,4.63,0,0,1-.32-1.73,4.53,4.53,0,0,1,.32-1.71,4,4,0,0,1,2.21-2.27,4.44,4.44,0,0,1,1.7-.32,4.57,4.57,0,0,1,1.1.12,4.24,4.24,0,0,1,.87.32,3.79,3.79,0,0,1,.67.47,5.2,5.2,0,0,1,.51.55l-1.17,1.07a2.22,2.22,0,0,0-1.89-.95,2.28,2.28,0,0,0-1.8.76,2.79,2.79,0,0,0-.68,2,3.25,3.25,0,0,0,.18,1.1,2.38,2.38,0,0,0,.51.87,2.46,2.46,0,0,0,.78.57,2.49,2.49,0,0,0,1,.2,2.21,2.21,0,0,0,1.89-1L39,249.42a4.32,4.32,0,0,1-1.19,1A3.87,3.87,0,0,1,35.83,250.88Z" fill="#e52823"/><path d="M46.12,250.68v-5.17a1.62,1.62,0,0,0-.44-1.32,1.93,1.93,0,0,0-1.21-.35,2.39,2.39,0,0,0-1.25.34,3.22,3.22,0,0,0-.86.75v5.75H40.58V239.34h1.78v4.23a3.85,3.85,0,0,1,.5-.48,4,4,0,0,1,.67-.42,3.72,3.72,0,0,1,1.72-.41,2.7,2.7,0,0,1,2,.66,2.65,2.65,0,0,1,.66,1.94v5.82Z" fill="#e52823"/><path d="M56,250.68v-1.13a3.45,3.45,0,0,1-1.15,1,3.13,3.13,0,0,1-1.49.36,3.64,3.64,0,0,1-1.45-.29,3,3,0,0,1-1.16-.85,4.25,4.25,0,0,1-.76-1.36,5.66,5.66,0,0,1-.27-1.82,5.54,5.54,0,0,1,.27-1.78,4.15,4.15,0,0,1,.76-1.36,3.22,3.22,0,0,1,1.15-.86,3.5,3.5,0,0,1,1.46-.3,3.17,3.17,0,0,1,1.46.34,3.31,3.31,0,0,1,1.18,1v-1.13h1.78v8.21Zm-2.11-1.38a2.27,2.27,0,0,0,.62-.09,2.34,2.34,0,0,0,.59-.23,3.26,3.26,0,0,0,.51-.35,2,2,0,0,0,.39-.44V245a2.57,2.57,0,0,0-.39-.43,2.7,2.7,0,0,0-.51-.35,2,2,0,0,0-.59-.24,2.27,2.27,0,0,0-.62-.09,2.13,2.13,0,0,0-1,.21,2.1,2.1,0,0,0-.73.56,2.38,2.38,0,0,0-.47.86,3.46,3.46,0,0,0-.16,1.09,3.52,3.52,0,0,0,.16,1.1,2.61,2.61,0,0,0,.47.87,2.1,2.1,0,0,0,1.7.77Z" fill="#e52823"/><path d="M65.65,250.68v-5.14a1.64,1.64,0,0,0-.45-1.33,1.82,1.82,0,0,0-1.21-.37,2.38,2.38,0,0,0-1.24.34,3.28,3.28,0,0,0-.87.75v5.75H60.09v-8.21h1.79v1.1a3.3,3.3,0,0,1,.5-.48,4,4,0,0,1,.67-.42,4.1,4.1,0,0,1,.81-.3,3.93,3.93,0,0,1,.92-.11,2.37,2.37,0,0,1,2.66,2.64v5.78Z" fill="#e52823"/><path d="M72.23,250.88a2.12,2.12,0,0,1-1.58-.54,2.2,2.2,0,0,1-.53-1.58V244H68.76v-1.54h1.36v-2.25h1.79v2.25h1.66V244H71.91v4.3a1.21,1.21,0,0,0,.19.71.67.67,0,0,0,.59.28,1.23,1.23,0,0,0,.47-.09,1,1,0,0,0,.31-.22l.43,1.36a1.92,1.92,0,0,1-.65.38A3,3,0,0,1,72.23,250.88Z" fill="#e52823"/><path d="M85.34,250.68v-1.13a3.45,3.45,0,0,1-1.15,1,3.1,3.1,0,0,1-1.49.36,3.68,3.68,0,0,1-1.45-.29,3.12,3.12,0,0,1-1.16-.85,4.06,4.06,0,0,1-.75-1.36,5.39,5.39,0,0,1-.28-1.82,5.28,5.28,0,0,1,.28-1.78,4,4,0,0,1,.75-1.36,3.31,3.31,0,0,1,1.15-.86,3.5,3.5,0,0,1,1.46-.3,3.17,3.17,0,0,1,1.46.34,3.31,3.31,0,0,1,1.18,1v-4.26h1.78v11.34Zm-2.11-1.38a2.27,2.27,0,0,0,.62-.09,2.34,2.34,0,0,0,.59-.23,3.26,3.26,0,0,0,.51-.35,2,2,0,0,0,.39-.44V245a2.57,2.57,0,0,0-.39-.43,2.7,2.7,0,0,0-.51-.35,2,2,0,0,0-.59-.24,2.27,2.27,0,0,0-.62-.09,2.16,2.16,0,0,0-1,.21,2.1,2.1,0,0,0-.73.56,2.38,2.38,0,0,0-.47.86,3.46,3.46,0,0,0-.16,1.09,3.52,3.52,0,0,0,.16,1.1,2.61,2.61,0,0,0,.47.87,2.26,2.26,0,0,0,.73.57A2.3,2.3,0,0,0,83.23,249.3Z" fill="#e52823"/><path d="M93.24,250.88a4.58,4.58,0,0,1-1.72-.31,3.78,3.78,0,0,1-1.36-.87,4.18,4.18,0,0,1-.9-1.37,4.77,4.77,0,0,1-.32-1.77,4.43,4.43,0,0,1,.31-1.67,4.07,4.07,0,0,1,2.17-2.29,4.36,4.36,0,0,1,3.35,0,3.61,3.61,0,0,1,1.28.93,4.08,4.08,0,0,1,.8,1.41,5.38,5.38,0,0,1,.28,1.79v.44H90.81a2.58,2.58,0,0,0,.25.86,2.37,2.37,0,0,0,.52.73,2.45,2.45,0,0,0,.79.49,2.87,2.87,0,0,0,1,.18,3.6,3.6,0,0,0,1.26-.24,3.1,3.1,0,0,0,1.09-.68l.81,1.17a4,4,0,0,1-1.49.9A5.35,5.35,0,0,1,93.24,250.88Zm2.18-5a2.59,2.59,0,0,0-.16-.74,2.28,2.28,0,0,0-.43-.69,2.17,2.17,0,0,0-.7-.52,2.62,2.62,0,0,0-2,0,2,2,0,0,0-.7.51,2.43,2.43,0,0,0-.44.7,2.26,2.26,0,0,0-.17.75Z" fill="#e52823"/><path d="M101.72,250.88a5.7,5.7,0,0,1-2-.33,4.4,4.4,0,0,1-1.55-1l.82-1.28a3.41,3.41,0,0,0,.53.43,4,4,0,0,0,.68.36,4.36,4.36,0,0,0,.77.26,3.61,3.61,0,0,0,.79.09,2.09,2.09,0,0,0,1.23-.3.92.92,0,0,0,.4-.79.66.66,0,0,0-.36-.61,3.87,3.87,0,0,0-.92-.34l-1.2-.27a5.14,5.14,0,0,1-1.2-.41,2.52,2.52,0,0,1-.91-.73,1.91,1.91,0,0,1-.37-1.26,2.24,2.24,0,0,1,.21-1,2.34,2.34,0,0,1,.62-.79,3.22,3.22,0,0,1,1-.53,4.57,4.57,0,0,1,1.39-.2,4.92,4.92,0,0,1,1.84.32,4.53,4.53,0,0,1,1.34.82l-.75,1.26a3.12,3.12,0,0,0-1-.7,3.43,3.43,0,0,0-1.42-.29,1.86,1.86,0,0,0-1.11.29.86.86,0,0,0-.4.73.6.6,0,0,0,.36.55,4.11,4.11,0,0,0,.92.31l1.2.27a5.18,5.18,0,0,1,1.2.43,2.61,2.61,0,0,1,.92.76,2.15,2.15,0,0,1,.36,1.3,2.31,2.31,0,0,1-.22,1,2.34,2.34,0,0,1-.65.82,3.25,3.25,0,0,1-1.07.53A5.1,5.1,0,0,1,101.72,250.88Z" fill="#e52823"/><path d="M112.37,250.68l-2.5-3.4-1.16,1.19v2.21h-1.78V239.34h1.78v7.09l3.62-4h2.21l-3.4,3.72,3.47,4.49Z" fill="#e52823"/><path d="M118.37,250.88a2.1,2.1,0,0,1-1.58-.54,2.2,2.2,0,0,1-.53-1.58V244H114.9v-1.54h1.36v-2.25H118v2.25h1.67V244H118v4.3a1.22,1.22,0,0,0,.2.71.67.67,0,0,0,.59.28,1.14,1.14,0,0,0,.46-.09.94.94,0,0,0,.32-.22l.42,1.36a1.87,1.87,0,0,1-.64.38A3,3,0,0,1,118.37,250.88Z" fill="#e52823"/><path d="M125,250.88a4.33,4.33,0,0,1-1.77-.35,3.94,3.94,0,0,1-1.32-.93,4.08,4.08,0,0,1-.84-1.37,4.84,4.84,0,0,1-.28-1.67,4.78,4.78,0,0,1,.28-1.66,4.08,4.08,0,0,1,.84-1.37,3.94,3.94,0,0,1,1.32-.93,4.78,4.78,0,0,1,3.54,0,4,4,0,0,1,2.16,2.3,4.79,4.79,0,0,1,.29,1.66,4.84,4.84,0,0,1-.29,1.67,4,4,0,0,1-2.16,2.3A4.33,4.33,0,0,1,125,250.88Zm0-1.58a2.15,2.15,0,0,0,1.76-.82,2.57,2.57,0,0,0,.45-.87,3.65,3.65,0,0,0,.15-1.05,3.47,3.47,0,0,0-.15-1,2.57,2.57,0,0,0-.45-.87,2.18,2.18,0,0,0-.74-.6,2.32,2.32,0,0,0-1-.22,2.3,2.3,0,0,0-1,.22,2.21,2.21,0,0,0-.75.6,2.59,2.59,0,0,0-.46.87,3.47,3.47,0,0,0-.15,1,3.65,3.65,0,0,0,.15,1.05,2.59,2.59,0,0,0,.46.87,2.21,2.21,0,0,0,.75.6A2.16,2.16,0,0,0,125,249.3Z" fill="#e52823"/><path d="M135.49,250.88a3.15,3.15,0,0,1-1.46-.35,3.57,3.57,0,0,1-1.18-1v4.26h-1.78V242.47h1.78v1.12a3.43,3.43,0,0,1,1.14-1,3.14,3.14,0,0,1,1.5-.36,3.66,3.66,0,0,1,1.46.29,3.25,3.25,0,0,1,1.15.84,4,4,0,0,1,.75,1.35,6.27,6.27,0,0,1,0,3.64,4,4,0,0,1-.75,1.35,3.41,3.41,0,0,1-1.15.85A3.5,3.5,0,0,1,135.49,250.88ZM135,249.3a2.1,2.1,0,0,0,1.7-.77,3.38,3.38,0,0,0,0-3.93,2.09,2.09,0,0,0-1.7-.76,2.56,2.56,0,0,0-1.22.32,2.34,2.34,0,0,0-.89.77v3.25a2.22,2.22,0,0,0,.38.44,3.61,3.61,0,0,0,.51.36,2.57,2.57,0,0,0,.6.23A2.27,2.27,0,0,0,135,249.3Z" fill="#e52823"/><path d="M18.41,271.48v-1.13a3.45,3.45,0,0,1-1.15,1,3.1,3.1,0,0,1-1.49.36,3.68,3.68,0,0,1-1.45-.29,3.12,3.12,0,0,1-1.16-.85,4.06,4.06,0,0,1-.75-1.36,5.66,5.66,0,0,1-.27-1.82,5.54,5.54,0,0,1,.27-1.78,4,4,0,0,1,.75-1.36,3.31,3.31,0,0,1,1.15-.86,3.5,3.5,0,0,1,1.46-.3,3.21,3.21,0,0,1,1.47.34,3.37,3.37,0,0,1,1.17,1v-1.13h1.78v8.21ZM16.3,270.1a2.21,2.21,0,0,0,.62-.09,2.57,2.57,0,0,0,.6-.23,4.59,4.59,0,0,0,.51-.35,2,2,0,0,0,.38-.44v-3.24a2.5,2.5,0,0,0-.38-.43,3.54,3.54,0,0,0-.51-.35,2.7,2.7,0,0,0-1.22-.33,2.19,2.19,0,0,0-1,.21,2.1,2.1,0,0,0-.73.56,2.54,2.54,0,0,0-.47.86,3.83,3.83,0,0,0,0,2.19,2.8,2.8,0,0,0,.47.87,2.26,2.26,0,0,0,.73.57A2.34,2.34,0,0,0,16.3,270.1Z" fill="#e52823"/><path d="M25.62,271.68a3.47,3.47,0,0,1-1.46-.3,3.11,3.11,0,0,1-1.15-.85,3.77,3.77,0,0,1-.76-1.35,6.27,6.27,0,0,1,0-3.64,3.86,3.86,0,0,1,.76-1.35,3.09,3.09,0,0,1,1.15-.84,3.62,3.62,0,0,1,1.46-.29,3.13,3.13,0,0,1,1.49.36,3.25,3.25,0,0,1,1.14,1v-1.12H30V274.6H28.25v-4.26a3.57,3.57,0,0,1-1.18,1A3.14,3.14,0,0,1,25.62,271.68Zm.52-1.58a2.21,2.21,0,0,0,.62-.09,2.57,2.57,0,0,0,.6-.23,2.74,2.74,0,0,0,.51-.36,2.22,2.22,0,0,0,.38-.44v-3.25a2.34,2.34,0,0,0-.89-.77,2.56,2.56,0,0,0-1.22-.32,2.12,2.12,0,0,0-1.7.76,3.38,3.38,0,0,0,0,3.93A2.1,2.1,0,0,0,26.14,270.1Z" fill="#e52823"/><path d="M37.89,271.48v-1.09a4.15,4.15,0,0,1-1.18.89,3.48,3.48,0,0,1-1.71.4,2.68,2.68,0,0,1-2-.67,2.64,2.64,0,0,1-.66-1.93v-5.81h1.78v5.15a1.6,1.6,0,0,0,.45,1.31,1.85,1.85,0,0,0,1.22.37,2.36,2.36,0,0,0,1.23-.33,2.9,2.9,0,0,0,.86-.74v-5.76h1.79v8.21Z" fill="#e52823"/><path d="M47.77,271.48v-1.13a3.45,3.45,0,0,1-1.15,1,3.1,3.1,0,0,1-1.49.36,3.68,3.68,0,0,1-1.45-.29,3.12,3.12,0,0,1-1.16-.85,4.06,4.06,0,0,1-.75-1.36,5.39,5.39,0,0,1-.28-1.82,5.28,5.28,0,0,1,.28-1.78,4,4,0,0,1,.75-1.36,3.31,3.31,0,0,1,1.15-.86,3.5,3.5,0,0,1,1.46-.3,3.17,3.17,0,0,1,1.46.34,3.31,3.31,0,0,1,1.18,1v-1.13h1.78v8.21Zm-2.11-1.38a2.27,2.27,0,0,0,.62-.09,2.34,2.34,0,0,0,.59-.23,3.93,3.93,0,0,0,.52-.35,2,2,0,0,0,.38-.44v-3.24a2.5,2.5,0,0,0-.38-.43,3.15,3.15,0,0,0-.52-.35,2,2,0,0,0-.59-.24,2.27,2.27,0,0,0-.62-.09,2.16,2.16,0,0,0-1,.21,2.1,2.1,0,0,0-.73.56,2.54,2.54,0,0,0-.47.86,3.83,3.83,0,0,0,0,2.19,2.8,2.8,0,0,0,.47.87,2.26,2.26,0,0,0,.73.57A2.3,2.3,0,0,0,45.66,270.1Z" fill="#e52823"/><path d="M51.86,271.48v-8.21h1.79v1.19a4.2,4.2,0,0,1,1.17-1,3,3,0,0,1,1.5-.4v1.77a3,3,0,0,0-.55-.05,2.61,2.61,0,0,0-.6.08,3.51,3.51,0,0,0-.61.24,2.54,2.54,0,0,0-.54.36,1.77,1.77,0,0,0-.37.42v5.6Z" fill="#e52823"/><path d="M58.66,262.26a1.09,1.09,0,0,1-1.1-1.1,1.11,1.11,0,1,1,2.21,0,1.09,1.09,0,0,1-1.11,1.1Zm-.9,9.22v-8.21h1.79v8.21Z" fill="#e52823"/><path d="M67.4,271.48v-1.09a4.15,4.15,0,0,1-1.18.89,3.48,3.48,0,0,1-1.71.4,2.69,2.69,0,0,1-2-.67,2.64,2.64,0,0,1-.66-1.93v-5.81h1.79v5.15a1.6,1.6,0,0,0,.45,1.31,1.82,1.82,0,0,0,1.21.37,2.34,2.34,0,0,0,1.23-.33,2.9,2.9,0,0,0,.86-.74v-5.76h1.79v8.21Z" fill="#e52823"/><path d="M81.58,271.48v-5.36a1.76,1.76,0,0,0-.31-1.07,1.25,1.25,0,0,0-1-.41,2,2,0,0,0-1.11.34,2.72,2.72,0,0,0-.79.75v5.75H76.53v-5.36a1.7,1.7,0,0,0-.31-1.07,1.2,1.2,0,0,0-1-.41,2,2,0,0,0-1.11.35,3.39,3.39,0,0,0-.8.74v5.75H71.5v-8.21h1.78v1.1a3.66,3.66,0,0,1,.4-.42,3.26,3.26,0,0,1,.61-.42,4.57,4.57,0,0,1,.78-.33,2.93,2.93,0,0,1,.9-.14,2.41,2.41,0,0,1,1.48.42,2.07,2.07,0,0,1,.76,1.08,3.63,3.63,0,0,1,.45-.55,3.53,3.53,0,0,1,.65-.48,3.38,3.38,0,0,1,.8-.34,3,3,0,0,1,.89-.13,2.39,2.39,0,0,1,1.74.61,2.52,2.52,0,0,1,.63,1.87v5.94Z" fill="#e52823"/><path d="M87.89,270.83a3.29,3.29,0,0,1-.44,1.65,3.83,3.83,0,0,1-1.14,1.26l-.82-.67a2.14,2.14,0,0,0,.41-.3,4.61,4.61,0,0,0,.37-.4,2.39,2.39,0,0,0,.29-.44,1.49,1.49,0,0,0,.15-.45l-.11,0-.17,0a.92.92,0,0,1-.72-.31,1.09,1.09,0,0,1-.29-.78,1.14,1.14,0,0,1,1.16-1.16,1.27,1.27,0,0,1,.92.4A1.59,1.59,0,0,1,87.89,270.83Z" fill="#e52823"/><path d="M97.76,271.68a6,6,0,0,1-2.6-.53,4.85,4.85,0,0,1-1.68-1.31l1.09-1.3a3.75,3.75,0,0,0,1.38,1,4.32,4.32,0,0,0,1.75.36,2.86,2.86,0,0,0,1.74-.47,1.53,1.53,0,0,0,.62-1.26,1.32,1.32,0,0,0-.65-1.23,3.64,3.64,0,0,0-1.87-.39h-.75l-.54,0v-1.82h1.29a4.55,4.55,0,0,0,.94-.09,2.58,2.58,0,0,0,.74-.27,1.45,1.45,0,0,0,.49-.46,1.22,1.22,0,0,0,.18-.67,1.31,1.31,0,0,0-.18-.69,1.53,1.53,0,0,0-.49-.49,2.37,2.37,0,0,0-.73-.29,3.71,3.71,0,0,0-.9-.1A4,4,0,0,0,94.65,263l-1-1.24a5.21,5.21,0,0,1,1.69-1.28,5.51,5.51,0,0,1,2.46-.5,6.21,6.21,0,0,1,1.67.21,4,4,0,0,1,1.28.6,2.67,2.67,0,0,1,1.13,2.23,2.25,2.25,0,0,1-.22,1,2.62,2.62,0,0,1-.57.77,3,3,0,0,1-.79.53,2.91,2.91,0,0,1-.87.27,3.93,3.93,0,0,1,.87.24,3.22,3.22,0,0,1,.86.53,2.82,2.82,0,0,1,.65.83,2.51,2.51,0,0,1,.26,1.16,3,3,0,0,1-.3,1.34,3,3,0,0,1-.86,1,3.91,3.91,0,0,1-1.35.69A5.8,5.8,0,0,1,97.76,271.68Z" fill="#e52823"/><path d="M104.92,271.66a1.15,1.15,0,0,1-.84-.35,1.19,1.19,0,0,1-.35-.85,1.19,1.19,0,0,1,2.38,0,1.19,1.19,0,0,1-.35.85A1.15,1.15,0,0,1,104.92,271.66Z" fill="#e52823"/><path d="M112.18,271.68a5.93,5.93,0,0,1-2.48-.47,5,5,0,0,1-1.72-1.28l1.14-1.38a3.78,3.78,0,0,0,3,1.36,2.38,2.38,0,0,0,1.71-.58,2,2,0,0,0,0-2.89,2.43,2.43,0,0,0-1.67-.54,3.81,3.81,0,0,0-1.32.23,3.4,3.4,0,0,0-1.16.74l-1.41-.41v-6.32h7.43v1.77h-5.44v3.24a3.91,3.91,0,0,1,1.09-.68,3.69,3.69,0,0,1,1.48-.29,4,4,0,0,1,1.37.25,3.4,3.4,0,0,1,1.17.71,3.65,3.65,0,0,1,.8,1.15,3.83,3.83,0,0,1,.29,1.55,3.7,3.7,0,0,1-.32,1.59,3.55,3.55,0,0,1-.89,1.21,4.07,4.07,0,0,1-1.37.77A5.44,5.44,0,0,1,112.18,271.68Z" fill="#e52823"/><path d="M126.1,274.81a6,6,0,0,1-1.87-.27,4.23,4.23,0,0,1-1.58-1l.83-1.29a2.85,2.85,0,0,0,1.16.82,4.18,4.18,0,0,0,1.46.24,3.72,3.72,0,0,0,.88-.11,2.2,2.2,0,0,0,.78-.39,2,2,0,0,0,.56-.7,2.54,2.54,0,0,0,.21-1.1v-.93a3.63,3.63,0,0,1-1.14,1,3,3,0,0,1-1.49.37,3.64,3.64,0,0,1-1.45-.28,3.16,3.16,0,0,1-1.16-.81,3.88,3.88,0,0,1-.76-1.32,6.1,6.1,0,0,1,0-3.59,3.88,3.88,0,0,1,.76-1.32,3.06,3.06,0,0,1,1.15-.83,3.84,3.84,0,0,1,1.46-.28,3.17,3.17,0,0,1,1.46.34,3.37,3.37,0,0,1,1.17,1v-1.13h1.79v7.78a4,4,0,0,1-.38,1.84,3,3,0,0,1-1,1.15,3.87,3.87,0,0,1-1.36.6A7.13,7.13,0,0,1,126.1,274.81Zm.33-4.91a2.45,2.45,0,0,0,1.21-.33,2.5,2.5,0,0,0,.89-.76v-3.08a2.5,2.5,0,0,0-.89-.76,2.45,2.45,0,0,0-1.21-.33,2.13,2.13,0,0,0-1.71.73,3.24,3.24,0,0,0,0,3.81A2.16,2.16,0,0,0,126.43,269.9Z" fill="#e52823"/><path d="M138.41,271.48v-1.13a3.45,3.45,0,0,1-1.15,1,3.09,3.09,0,0,1-1.48.36,3.69,3.69,0,0,1-1.46-.29,3,3,0,0,1-1.15-.85,3.91,3.91,0,0,1-.76-1.36,5.66,5.66,0,0,1-.27-1.82,5.54,5.54,0,0,1,.27-1.78,3.82,3.82,0,0,1,.76-1.36,3.19,3.19,0,0,1,1.14-.86,3.51,3.51,0,0,1,1.47-.3,3.2,3.2,0,0,1,1.46.34,3.37,3.37,0,0,1,1.17,1v-1.13h1.79v8.21Zm-2.11-1.38a2.21,2.21,0,0,0,.62-.09,2.57,2.57,0,0,0,.6-.23,4.59,4.59,0,0,0,.51-.35,2,2,0,0,0,.38-.44v-3.24a2.5,2.5,0,0,0-.38-.43,3.54,3.54,0,0,0-.51-.35,2.7,2.7,0,0,0-1.22-.33,2.19,2.19,0,0,0-1.7.77,2.54,2.54,0,0,0-.47.86,3.83,3.83,0,0,0,0,2.19,2.8,2.8,0,0,0,.47.87,2.37,2.37,0,0,0,.73.57A2.34,2.34,0,0,0,136.3,270.1Z" fill="#e52823"/><path d="M144.62,271.68a2.13,2.13,0,0,1-1.58-.54,2.2,2.2,0,0,1-.53-1.58v-9.42h1.78v9a1.22,1.22,0,0,0,.2.71.65.65,0,0,0,.58.28,1.28,1.28,0,0,0,.48-.09.94.94,0,0,0,.32-.22l.43,1.36a1.92,1.92,0,0,1-.65.38A3,3,0,0,1,144.62,271.68Z" fill="#e52823"/><path d="M148.3,271.66a1.15,1.15,0,0,1-.84-.35,1.19,1.19,0,0,1-.35-.85,1.2,1.2,0,0,1,1.19-1.18,1.19,1.19,0,0,1,.85.35,1.13,1.13,0,0,1,.34.83,1.18,1.18,0,0,1-1.19,1.2Z" fill="#e52823"/></g></g></svg>