<svg xmlns="http://www.w3.org/2000/svg" xmlns:xlink="http://www.w3.org/1999/xlink" viewBox="0 0 728 90"><defs><clipPath id="clip-path"><rect x="600.6" y="52.24" width="99.76" height="25.27" fill="none"/></clipPath><clipPath id="clip-path-2"><rect x="600.6" y="52.24" width="99.76" height="25.27" fill="none"/></clipPath></defs><title>end-frame</title><g id="Layer_2" data-name="Layer 2"><g id="CONTENT"><rect width="728" height="90"/><g id="white_logo" data-name="white logo"><g clip-path="url(#clip-path)"><g clip-path="url(#clip-path-2)"><path d="M611.89,56.24c15-4.59,22.61,6.91,22.61,6.91s-4.77-16.06-22.61-6.91" fill="#fff"/><path d="M640.93,56.83c0-.07,0-.48,0-.54A11.23,11.23,0,0,0,635,64.91s2-4.76,6.86-6.2a2.86,2.86,0,0,1-.93-1.88" fill="#fff"/><path d="M621.77,63.54s0,2.27,0,3.41c-.58,0-3.07-.15-4.17-.19,0,.61,0,1.24,0,1.85,1.31,0,2.68.18,4,.17,0,1.1,0,2,0,3.15-1.31,0-2.62-.1-3.94-.13l0,2c1.41,0,2.83.14,4.24.12,0,0,0,3.36,0,3.36-2.79,0-6.1-.22-9.24-.48l.22-14c1.32.16,5.42.59,9,.7" fill="#fff"/><path d="M623,63.57l-.06,3.64c1.32.07,2.51.07,2.51.07l0,10.13a32.71,32.71,0,0,0,5-.07l-.06-10s2.24-.1,2.58-.13c0-1.34,0-2.39-.05-3.73a86.65,86.65,0,0,1-9.94.12" fill="#fff"/><path d="M690.36,61.35v4.23c.85,0,1.82.22,2.67.29,0,3.53-.08,6.2-.09,9.73,2.38.28,4.06.56,4.72.68,0-3.53.13-6.31.14-9.84,0,0,2.51.39,2.56.43V62.52a75.49,75.49,0,0,0-10-1.17" fill="#fff"/><path d="M605.51,68.16l-.44,0,0-2.87.42,0A1.46,1.46,0,0,1,607,66.82a1.19,1.19,0,0,1-1.47,1.34m1.11-6.76-6-1.08,0,14.65c1.53.3,2.94.55,4.43.72l0-4.23c.53.06,1.09.13,1.61.17,2.6.25,5.21-.73,5.25-5,0-3.76-2.48-4.85-5.25-5.26" fill="#fff"/><path d="M656.52,75c.67-1.74,1.34-3.37,2-5.12.11,1.67.17,3.18.28,4.85,1.67-.18,3-.28,4.69-.38-.43-4.45-.81-9.23-1.24-13.67-1.44.12-2.87.25-4.31.39-.81,2.1-1.61,4.65-2.42,6.75-.78-1.94-1.55-4.22-2.33-6.17-1.45.21-4,.66-4.31.67-.5,4.53-1.06,9.57-1.56,14.11,1.14-.2,3.94-.64,4.78-.76.13-1.69.26-3.5.39-5.19.65,1.61,1.29,3.23,1.94,4.84.36,0,1.65-.25,2.08-.32" fill="#fff"/><path d="M683.06,67.34l-.44,0,0-2.83.43,0A1.41,1.41,0,0,1,684.54,66a1.22,1.22,0,0,1-1.48,1.34m4.16,3c1.27-.57,2.19-1.81,2.23-4.26,0-3.71-2.57-5.29-5.22-5.49q-3-.24-6-.32c-.06,4.7-.08,9-.15,13.72,1.5,0,3.15.15,4.46.26,0-1.32,0-2.3.05-3.63.86,1.38,1.56,2.53,2.42,3.93,1.84.16,3.73.4,5.57.67-1.15-1.72-2.19-3.2-3.34-4.88" fill="#fff"/><path d="M669.7,69.44c.31-1.17.63-2.4.94-3.56.36,1.17.71,2.34,1.07,3.51a18.86,18.86,0,0,1-2,0M673,60.18c-1.78,0-3.24,0-4.76.09-1.22,4.57-2.67,9.45-3.89,14,1.36,0,2.74-.12,4.1-.12.13-.48.27-1,.4-1.52l2.08,0s1.83-.06,1.83-.06c.06.18.22.66.46,1.45,1.37,0,2.73,0,4.09,0-1.47-4.83-3-9.48-4.31-13.86" fill="#fff"/><path d="M634.5,76.11a12.36,12.36,0,0,0,5.54,1.4c3.13,0,6.4-1.88,6.47-5.38,0-2.5-1.53-3.69-3.75-4.18l-1.18-.27c-.41-.1-1.06-.17-1.05-.72s.69-.78,1.15-.78a8.48,8.48,0,0,1,3.19.67c.45-1.17.89-2.34,1.34-3.52a10.61,10.61,0,0,0-4.57-1.09c-3.14,0-6.31,1.91-6.38,5.4,0,2.3,1.66,3.56,3.71,3.94l1,.19c.47.1,1.16.16,1.15.82s-.83.74-1.35.74a6.15,6.15,0,0,1-3.59-1.19c-.54,1.23-1.18,2.74-1.73,4" fill="#fff"/><path d="M645.83,52.24a3.53,3.53,0,1,0,3.47,3.57,3.51,3.51,0,0,0-3.47-3.57m1.27,1.3a4.24,4.24,0,0,0-3.78,2.21s0,0,0,.06a2.53,2.53,0,0,1,.09-1,2.39,2.39,0,0,1,2.92-1.71,2.14,2.14,0,0,1,.83.44l0,0" fill="#fff"/></g></g></g><path d="M412.61,90c9.81-34.77,39.92-56.95,76.15-56.95,35.68,0,66,23.85,76.09,56.7" fill="#e52823"/><path d="M10.64,15.72h9.83a6.05,6.05,0,0,1,2.92.66,4.47,4.47,0,0,1,2.45,4.1,4.46,4.46,0,0,1-.92,2.86,3.86,3.86,0,0,1-2.3,1.42,3.93,3.93,0,0,1,2.55,1.54,4.82,4.82,0,0,1,1,3.06A4.91,4.91,0,0,1,24.78,33a5.43,5.43,0,0,1-4,1.43H10.64Zm9,7.5a2.18,2.18,0,0,0,1.59-.57,2,2,0,0,0,.59-1.5,1.94,1.94,0,0,0-.6-1.45,2.13,2.13,0,0,0-1.58-.59h-5v4.11ZM19.74,31a2.49,2.49,0,0,0,1.76-.6,2.26,2.26,0,0,0,0-3.17,2.42,2.42,0,0,0-1.76-.63H14.61V31Z" fill="#fff"/><path d="M30.08,33.82a3.7,3.7,0,0,1-1-2.76V15.72h3.55V30.11A1.66,1.66,0,0,0,33,31.17a1.06,1.06,0,0,0,.9.43,2.09,2.09,0,0,0,.72-.12.91.91,0,0,0,.48-.28l.76,2.69a4.34,4.34,0,0,1-2.94.87A3.92,3.92,0,0,1,30.08,33.82Z" fill="#fff"/><path d="M46.76,32.66a5.59,5.59,0,0,1-1.86,1.55,5,5,0,0,1-2.31.55,5.77,5.77,0,0,1-3.08-.84,5.7,5.7,0,0,1-2.15-2.44,8.79,8.79,0,0,1-.77-3.82,8.69,8.69,0,0,1,.77-3.77,5.91,5.91,0,0,1,2.13-2.48,5.64,5.64,0,0,1,3.1-.87,5.09,5.09,0,0,1,2.29.53,5.33,5.33,0,0,1,1.88,1.54V20.87h3.58V34.4H46.76Zm0-7.39a3.33,3.33,0,0,0-1.32-1.11,3.9,3.9,0,0,0-1.76-.43,3.15,3.15,0,0,0-2.47,1.08,4.17,4.17,0,0,0-1,2.85,4.2,4.2,0,0,0,1,2.84,3.13,3.13,0,0,0,2.47,1.1,3.92,3.92,0,0,0,1.76-.44,3.33,3.33,0,0,0,1.32-1.11Z" fill="#fff"/><path d="M53.92,24a6.71,6.71,0,0,1,2.55-2.52,7.43,7.43,0,0,1,3.7-.91,7.06,7.06,0,0,1,3.25.68A5.8,5.8,0,0,1,65.52,23l-2.33,2.19a3.22,3.22,0,0,0-2.85-1.46,3.47,3.47,0,0,0-2.65,1.08,4,4,0,0,0-1,2.85,4,4,0,0,0,1,2.87,3.71,3.71,0,0,0,4.27.72,3.35,3.35,0,0,0,1.23-1.08l2.33,2.16a6,6,0,0,1-2.09,1.76,6.89,6.89,0,0,1-3.26.7,7.43,7.43,0,0,1-3.7-.91,6.66,6.66,0,0,1-2.55-2.53,7.8,7.8,0,0,1,0-7.35Z" fill="#fff"/><path d="M73,29.19,71.4,30.92V34.4H67.84V15.72H71.4V26.89l5.12-6h4.37L75.54,27l5.52,7.4H76.6Z" fill="#fff"/><path d="M90.07,15.72h13.22v3.42H94.05V23.2h9v3.41h-9V34.4h-4Z" fill="#fff"/><path d="M106,20.87h3.55v1.85a5.92,5.92,0,0,1,1.91-1.55,5,5,0,0,1,2.4-.63V24a4.15,4.15,0,0,0-1-.11,4.83,4.83,0,0,0-1.9.44,3.22,3.22,0,0,0-1.43,1.1v9H106Z" fill="#fff"/><path d="M116.32,18.25a2.13,2.13,0,0,1,3-3,2.14,2.14,0,0,1,0,3,2,2,0,0,1-1.51.63A2,2,0,0,1,116.32,18.25Zm-.26,2.62h3.55V34.4h-3.55Z" fill="#fff"/><path d="M132.44,32.66a5.53,5.53,0,0,1-1.87,1.55,5,5,0,0,1-2.31.55,5.79,5.79,0,0,1-3.08-.84A5.68,5.68,0,0,1,123,31.48a8.79,8.79,0,0,1-.77-3.82,8.69,8.69,0,0,1,.77-3.77,5.78,5.78,0,0,1,2.13-2.48,5.6,5.6,0,0,1,3.09-.87,5.1,5.1,0,0,1,2.3.53,5.33,5.33,0,0,1,1.88,1.54V15.72H136V34.4h-3.58Zm0-7.41a3.33,3.33,0,0,0-1.32-1.11,3.79,3.79,0,0,0-1.76-.44,3.1,3.1,0,0,0-2.47,1.1,4.22,4.22,0,0,0-1,2.86,4.2,4.2,0,0,0,1,2.84,3.13,3.13,0,0,0,2.47,1.1,3.92,3.92,0,0,0,1.76-.44,3.33,3.33,0,0,0,1.32-1.11Z" fill="#fff"/><path d="M148.84,32.66A5.4,5.4,0,0,1,147,34.21a5,5,0,0,1-2.31.55,5.79,5.79,0,0,1-3.08-.84,5.68,5.68,0,0,1-2.14-2.44,8.79,8.79,0,0,1-.77-3.82,8.69,8.69,0,0,1,.77-3.77,5.78,5.78,0,0,1,2.13-2.48,5.58,5.58,0,0,1,3.09-.87,5.14,5.14,0,0,1,2.3.53,5.21,5.21,0,0,1,1.87,1.54V20.87h3.59V34.4h-3.59Zm0-7.39a3.29,3.29,0,0,0-1.31-1.11,3.91,3.91,0,0,0-1.77-.43,3.13,3.13,0,0,0-2.46,1.08,4.17,4.17,0,0,0-1,2.85,4.2,4.2,0,0,0,1,2.84,3.11,3.11,0,0,0,2.46,1.1,3.93,3.93,0,0,0,1.77-.44,3.29,3.29,0,0,0,1.31-1.11Z" fill="#fff"/><path d="M157.38,35.29a4.32,4.32,0,0,0,1.8,1.26,6.21,6.21,0,0,0,2.26.42,3.79,3.79,0,0,0,2.69-.89,3.36,3.36,0,0,0,1-2.58V32.1a6.51,6.51,0,0,1-2,1.46,6.28,6.28,0,0,1-2.76.58A4.37,4.37,0,0,1,157.05,33,4.27,4.27,0,0,1,156,29.89v-9h3.55v7.62a2.49,2.49,0,0,0,.65,1.92A2.67,2.67,0,0,0,162,31a3.58,3.58,0,0,0,1.77-.45,4.17,4.17,0,0,0,1.31-1.09V20.87h3.56V33.33a6.11,6.11,0,0,1-1.95,4.83,7.6,7.6,0,0,1-5.25,1.72,8.26,8.26,0,0,1-5.65-2Z" fill="#fff"/><path d="M188.63,32.66a5.4,5.4,0,0,1-1.86,1.55,5,5,0,0,1-2.31.55,5.77,5.77,0,0,1-3.08-.84,5.62,5.62,0,0,1-2.14-2.44,8.65,8.65,0,0,1-.77-3.82,8.55,8.55,0,0,1,.77-3.77,5.78,5.78,0,0,1,2.13-2.48,5.58,5.58,0,0,1,3.09-.87,5.14,5.14,0,0,1,2.3.53,5.3,5.3,0,0,1,1.87,1.54V15.72h3.59V34.4h-3.59Zm0-7.41a3.36,3.36,0,0,0-1.31-1.11,3.8,3.8,0,0,0-1.77-.44,3.07,3.07,0,0,0-2.46,1.1,4.17,4.17,0,0,0-1,2.86,4.15,4.15,0,0,0,1,2.84,3.1,3.1,0,0,0,2.46,1.1,3.93,3.93,0,0,0,1.77-.44,3.36,3.36,0,0,0,1.31-1.11Z" fill="#fff"/><path d="M195.77,24.06a6.81,6.81,0,0,1,6.11-3.52,6.66,6.66,0,0,1,3.52.93,6.4,6.4,0,0,1,2.4,2.64,8.47,8.47,0,0,1,.85,3.87v.79H198.6A3.49,3.49,0,0,0,199.8,31a4,4,0,0,0,2.69.9,5.8,5.8,0,0,0,2-.36,4.6,4.6,0,0,0,1.63-1l1.57,2.29a6.68,6.68,0,0,1-2.46,1.39,9.78,9.78,0,0,1-3.11.49,7.86,7.86,0,0,1-3.7-.88,6.56,6.56,0,0,1-2.59-2.5,7.37,7.37,0,0,1-.93-3.75A7.17,7.17,0,0,1,195.77,24.06Zm3.75.21a3.73,3.73,0,0,0-1,2.09h6.67a3.42,3.42,0,0,0-.91-2.07,3.56,3.56,0,0,0-4.78,0Z" fill="#fff"/><path d="M220.52,32.66a5.4,5.4,0,0,1-1.86,1.55,5,5,0,0,1-2.31.55,5.79,5.79,0,0,1-3.08-.84,5.68,5.68,0,0,1-2.14-2.44,8.79,8.79,0,0,1-.77-3.82,8.69,8.69,0,0,1,.77-3.77,5.78,5.78,0,0,1,2.13-2.48,5.58,5.58,0,0,1,3.09-.87,5.14,5.14,0,0,1,2.3.53,5.21,5.21,0,0,1,1.87,1.54V20.87h3.59V34.4h-3.59Zm0-7.39a3.22,3.22,0,0,0-1.31-1.11,3.91,3.91,0,0,0-1.77-.43A3.13,3.13,0,0,0,215,24.81a4.17,4.17,0,0,0-.95,2.85A4.2,4.2,0,0,0,215,30.5a3.11,3.11,0,0,0,2.46,1.1,3.93,3.93,0,0,0,1.77-.44,3.22,3.22,0,0,0,1.31-1.11Z" fill="#fff"/><path d="M228.6,33.82a3.7,3.7,0,0,1-1-2.76V15.72h3.55V30.11a1.61,1.61,0,0,0,.34,1.06,1.06,1.06,0,0,0,.89.43,2.15,2.15,0,0,0,.73-.12,1,1,0,0,0,.48-.28l.75,2.69a4.3,4.3,0,0,1-2.94.87A3.91,3.91,0,0,1,228.6,33.82Z" fill="#fff"/><path d="M236.34,30.17a7.6,7.6,0,0,0,2.13,1.29A6.73,6.73,0,0,0,241,32a3.18,3.18,0,0,0,1.69-.37,1.15,1.15,0,0,0,.58-1,1.09,1.09,0,0,0-.67-1,9.09,9.09,0,0,0-2.05-.62,21.44,21.44,0,0,1-2.69-.67A4.35,4.35,0,0,1,236,27.13a3.3,3.3,0,0,1-.79-2.34,3.77,3.77,0,0,1,.66-2.13,4.48,4.48,0,0,1,1.92-1.55,7.15,7.15,0,0,1,3-.57,8.52,8.52,0,0,1,5.46,1.84l-1.43,2.44a5.08,5.08,0,0,0-1.72-1.12,5.88,5.88,0,0,0-2.29-.45,3,3,0,0,0-1.55.34,1,1,0,0,0-.57.92.94.94,0,0,0,.63.88,9.44,9.44,0,0,0,1.94.58,18,18,0,0,1,2.72.7,4.6,4.6,0,0,1,1.9,1.29,3.53,3.53,0,0,1,.81,2.45,3.91,3.91,0,0,1-.68,2.23,4.56,4.56,0,0,1-2,1.56,8.17,8.17,0,0,1-3.15.56,10.27,10.27,0,0,1-3.37-.56,7.52,7.52,0,0,1-2.68-1.54Z" fill="#fff"/><path d="M12.91,66a12.33,12.33,0,0,0,3.88,2.73,11.91,11.91,0,0,0,5,1,6,6,0,0,0,3.59-.93,2.71,2.71,0,0,0,1.28-2.24,2.34,2.34,0,0,0-1.38-2.17A18.44,18.44,0,0,0,21,63a45.86,45.86,0,0,1-5.33-1.51A9,9,0,0,1,12.09,59a6.59,6.59,0,0,1-1.54-4.61,7.51,7.51,0,0,1,1.31-4.29A8.69,8.69,0,0,1,15.57,47a13.16,13.16,0,0,1,5.61-1.12A15.47,15.47,0,0,1,32.1,49.83l-3.32,4.36A11.22,11.22,0,0,0,25,51.9a12.45,12.45,0,0,0-4.26-.77,5.13,5.13,0,0,0-3.05.78A2.47,2.47,0,0,0,16.64,54,2,2,0,0,0,18,55.93a24.15,24.15,0,0,0,4.28,1.33,37.79,37.79,0,0,1,5.31,1.54,9.28,9.28,0,0,1,3.66,2.54,6.66,6.66,0,0,1,1.53,4.59,8.21,8.21,0,0,1-2.88,6.53c-1.92,1.65-4.69,2.48-8.33,2.48q-7.44,0-11.89-4.45Z" fill="#fff"/><path d="M42.94,51.63H34.75V46.38H57.09v5.25H48.94V74.4h-6Z" fill="#fff"/><path d="M76.07,69.57H63.56L61.79,74.4H55.24l10.84-28h7.47l10.8,28H77.84ZM65.15,64.4h9.29L69.81,51.55Z" fill="#fff"/><path d="M97.28,64.36H92.91v10H87v-28h13.1a10.37,10.37,0,0,1,5,1.16,8,8,0,0,1,3.28,3.21,9.56,9.56,0,0,1,1.13,4.66A8.44,8.44,0,0,1,107.68,61a7.81,7.81,0,0,1-4.35,2.73l6.3,10.67h-6.85Zm4.9-11.78a4.32,4.32,0,0,0-3-1.07H92.91v7.72h6.26a4.32,4.32,0,0,0,3-1.07,3.87,3.87,0,0,0,0-5.58Z" fill="#fff"/><path d="M120,51.63h-8.19V46.38h22.35v5.25H126V74.4h-6Z" fill="#fff"/><path d="M154.7,55.58V74.4h-6v-28h6.13l13,18.15V46.38h6v28h-5.76Z" fill="#fff"/><path d="M179.9,53a13.58,13.58,0,0,1,5.22-5.17,16.06,16.06,0,0,1,15,0A13.53,13.53,0,0,1,205.39,53a15.71,15.71,0,0,1,0,14.94,13.53,13.53,0,0,1-5.23,5.17,16.06,16.06,0,0,1-15,0,13.58,13.58,0,0,1-5.22-5.17,15.71,15.71,0,0,1,0-14.94Zm20.2,2.76a7.9,7.9,0,0,0-3-3.31,8.35,8.35,0,0,0-4.47-1.2,8.26,8.26,0,0,0-4.45,1.2,8,8,0,0,0-3,3.31,11.11,11.11,0,0,0,0,9.43,8,8,0,0,0,3,3.3,8.26,8.26,0,0,0,4.45,1.2,8.35,8.35,0,0,0,4.47-1.2,7.94,7.94,0,0,0,3-3.3,11.11,11.11,0,0,0,0-9.43Z" fill="#fff"/><path d="M227.15,55.16,222.27,74.4h-6.34l-8-28h6.68l4.91,20.25,5.34-20.25h4.66l5.29,20.25,4.87-20.25h6.72l-8,28h-6.34Z" fill="#fff"/></g></g></svg>