<svg xmlns="http://www.w3.org/2000/svg" xmlns:xlink="http://www.w3.org/1999/xlink" viewBox="0 0 300 250"><defs><clipPath id="clip-path"><rect x="22.48" y="208.44" width="92.83" height="23.51" fill="none"/></clipPath></defs><title>end-frame</title><g id="Layer_2" data-name="Layer 2"><g id="Layer_1-2" data-name="Layer 1"><g id="Layer_1-3" data-name="Layer 1"><rect width="300" height="250"/></g><g id="white_logo" data-name="white logo"><g clip-path="url(#clip-path)"><g clip-path="url(#clip-path)"><path d="M33,212.16c14-4.27,21,6.43,21,6.43s-4.44-14.94-21-6.43" fill="#fff"/><path d="M60,212.71a4.17,4.17,0,0,1,0-.5,10.42,10.42,0,0,0-5.52,8,11.09,11.09,0,0,1,6.38-5.77,2.61,2.61,0,0,1-.86-1.75" fill="#fff"/><path d="M42.17,219s0,2.11,0,3.17c-.53,0-2.85-.14-3.87-.18,0,.57,0,1.16,0,1.73,1.22,0,2.49.17,3.71.15,0,1,0,1.91,0,2.93-1.22,0-2.45-.09-3.67-.12l0,1.87c1.31,0,2.63.14,3.94.12,0,0,0,3.12,0,3.12-2.61,0-5.69-.21-8.61-.45l.21-13c1.23.15,5,.55,8.36.66" fill="#fff"/><path d="M43.28,219l-.05,3.4c1.23.06,2.33.06,2.33.06v9.42a29.47,29.47,0,0,0,4.69-.06l-.06-9.33s2.08-.1,2.4-.13c0-1.24,0-2.22,0-3.46a81.69,81.69,0,0,1-9.26.1" fill="#fff"/><path d="M106,216.91c0,1.35,0,2.59,0,3.94.79.05,1.7.21,2.49.28,0,3.28-.08,5.76-.08,9.05,2.21.26,3.77.52,4.38.63,0-3.28.13-5.87.13-9.16,0,0,2.34.37,2.39.4V218a73.64,73.64,0,0,0-9.3-1.09" fill="#fff"/><path d="M27.05,223.25l-.41,0c0-.89,0-1.78,0-2.68l.39.05A1.35,1.35,0,0,1,28.41,222c0,1.1-.69,1.31-1.36,1.24m1-6.28-5.57-1,0,13.63c1.42.28,2.73.52,4.12.67l0-3.93,1.5.16c2.41.22,4.85-.69,4.88-4.63,0-3.5-2.3-4.51-4.88-4.89" fill="#fff"/><path d="M74.51,229.63c.63-1.62,1.25-3.14,1.87-4.76.1,1.55.16,3,.26,4.51,1.56-.17,2.8-.26,4.37-.36-.41-4.14-.75-8.58-1.16-12.72-1.33.11-2.67.24-4,.37-.75,2-1.5,4.33-2.25,6.28-.72-1.81-1.44-3.93-2.17-5.74-1.35.19-3.76.61-4,.62-.46,4.22-1,8.91-1.45,13.13,1.06-.18,3.67-.6,4.45-.7.12-1.58.24-3.26.36-4.84l1.81,4.51c.33,0,1.53-.23,1.93-.3" fill="#fff"/><path d="M99.21,222.49l-.41,0,0-2.63.4,0a1.31,1.31,0,0,1,1.36,1.38,1.13,1.13,0,0,1-1.38,1.25m3.87,2.81c1.19-.54,2-1.69,2.07-4,0-3.45-2.39-4.92-4.85-5.11-1.87-.15-3.73-.25-5.6-.3-.06,4.38-.08,8.39-.14,12.77,1.39,0,2.93.14,4.14.24,0-1.23,0-2.14.06-3.38.79,1.29,1.45,2.35,2.24,3.66,1.72.15,3.48.37,5.19.63-1.07-1.61-2-3-3.11-4.54" fill="#fff"/><path d="M86.78,224.45c.29-1.09.58-2.24.87-3.32.33,1.09.67,2.18,1,3.27-1.91.07-1.91,0-1.87,0m3-8.62c-1.65,0-3,0-4.43.09-1.14,4.24-2.48,8.79-3.62,13.05,1.27,0,2.55-.11,3.82-.11.12-.45.25-1,.37-1.42l1.93-.05s1.71,0,1.71,0c.05.17.21.61.43,1.35,1.27,0,2.54,0,3.8,0-1.37-4.5-2.75-8.82-4-12.9" fill="#fff"/><path d="M54,230.65a11.49,11.49,0,0,0,5.15,1.3c2.92,0,6-1.74,6-5,0-2.33-1.43-3.43-3.49-3.89l-1.1-.25c-.38-.09-1-.16-1-.67s.64-.73,1.06-.73a7.77,7.77,0,0,1,3,.63l1.23-3.28a9.71,9.71,0,0,0-4.24-1c-2.93,0-5.87,1.77-5.94,5,0,2.14,1.54,3.31,3.45,3.67l1,.18c.45.09,1.09.14,1.08.76s-.77.69-1.25.69A5.72,5.72,0,0,1,55.63,227c-.5,1.14-1.1,2.55-1.61,3.69" fill="#fff"/><path d="M64.56,208.44a3.28,3.28,0,1,0,3.24,3.32,3.28,3.28,0,0,0-3.24-3.32m1.19,1.21a3.94,3.94,0,0,0-3.52,2.06s0,0,0,0a2.38,2.38,0,0,1,.08-.91A2.23,2.23,0,0,1,65,209.26a2,2,0,0,1,.78.41l0,0" fill="#fff"/></g></g></g><path d="M300,219.56c-14.19-27.25-44.59-46.09-79.71-46.09-47.12,0-84.89,30.6-87.89,76.23H300Z" fill="#e52823"/><path d="M14.77,18.47H26a7,7,0,0,1,3.34.75,5.18,5.18,0,0,1,2.1,2,5.33,5.33,0,0,1,.7,2.7,5,5,0,0,1-1.05,3.26,4.47,4.47,0,0,1-2.63,1.64,4.43,4.43,0,0,1,2.91,1.76,5.46,5.46,0,0,1,1.19,3.48,5.62,5.62,0,0,1-1.63,4.13,6.19,6.19,0,0,1-4.58,1.63H14.77ZM25,27.05a2.5,2.5,0,0,0,1.82-.66,2.28,2.28,0,0,0,.67-1.71A2.25,2.25,0,0,0,26.81,23a2.5,2.5,0,0,0-1.8-.67h-5.7v4.71Zm.16,8.89a2.82,2.82,0,0,0,2-.69,2.57,2.57,0,0,0,0-3.61,2.75,2.75,0,0,0-2-.72H19.31v5Z" fill="#fff"/><path d="M37,39.16A4.2,4.2,0,0,1,35.89,36V18.47H40V34.92a1.9,1.9,0,0,0,.38,1.21,1.26,1.26,0,0,0,1,.48,2.78,2.78,0,0,0,.83-.12,1.22,1.22,0,0,0,.54-.32l.87,3.07a5,5,0,0,1-3.36,1A4.51,4.51,0,0,1,37,39.16Z" fill="#fff"/><path d="M56,37.83a6.22,6.22,0,0,1-2.12,1.78,5.83,5.83,0,0,1-2.64.62,6.6,6.6,0,0,1-3.52-1,6.44,6.44,0,0,1-2.45-2.79,9.92,9.92,0,0,1-.88-4.36,9.84,9.84,0,0,1,.88-4.31A6.73,6.73,0,0,1,47.74,25a6.45,6.45,0,0,1,3.54-1A6,6,0,0,1,56,26.34v-2h4.1V39.81H56Zm0-8.44a3.8,3.8,0,0,0-1.5-1.27,4.47,4.47,0,0,0-2-.5,3.58,3.58,0,0,0-2.81,1.24,4.72,4.72,0,0,0-1.09,3.26,4.72,4.72,0,0,0,1.09,3.24,3.52,3.52,0,0,0,2.81,1.25,4.45,4.45,0,0,0,2-.49A3.8,3.8,0,0,0,56,34.85Z" fill="#fff"/><path d="M64.24,27.9A7.46,7.46,0,0,1,67.15,25,8.42,8.42,0,0,1,71.37,24a8.1,8.1,0,0,1,3.71.79,6.38,6.38,0,0,1,2.4,2l-2.65,2.49a3.72,3.72,0,0,0-3.27-1.66,4,4,0,0,0-3,1.24,4.54,4.54,0,0,0-1.17,3.26,4.58,4.58,0,0,0,1.17,3.27,4.26,4.26,0,0,0,4.88.82A4,4,0,0,0,74.83,35l2.65,2.46a6.51,6.51,0,0,1-2.38,2,8,8,0,0,1-3.73.8,8.52,8.52,0,0,1-4.22-1,7.55,7.55,0,0,1-2.91-2.89,8.85,8.85,0,0,1,0-8.4Z" fill="#fff"/><path d="M86.06,33.86l-1.86,2v4H80.14V18.47H84.2V31.24l5.86-6.88h5l-6.11,7,6.3,8.44H90.16Z" fill="#fff"/><path d="M105.55,18.47h15.1v3.9H110.09V27h10.34v3.91H110.09v8.89h-4.54Z" fill="#fff"/><path d="M123.72,24.36h4.07v2.11A6.87,6.87,0,0,1,130,24.69a5.8,5.8,0,0,1,2.76-.72v4a5.59,5.59,0,0,0-1.12-.13,5.41,5.41,0,0,0-2.18.52,3.62,3.62,0,0,0-1.63,1.25V39.81h-4.07Z" fill="#fff"/><path d="M135.55,21.37a2.41,2.41,0,1,1,1.71.72A2.34,2.34,0,0,1,135.55,21.37Zm-.31,3h4.07V39.81h-4.07Z" fill="#fff"/><path d="M154,37.83a6.22,6.22,0,0,1-2.12,1.78,5.89,5.89,0,0,1-2.64.62,6.57,6.57,0,0,1-3.52-1,6.38,6.38,0,0,1-2.45-2.79,9.92,9.92,0,0,1-.88-4.36,9.84,9.84,0,0,1,.88-4.31A6.6,6.6,0,0,1,145.66,25a6.42,6.42,0,0,1,3.54-1A6,6,0,0,1,154,26.34V18.47h4.1V39.81H154Zm0-8.47a3.72,3.72,0,0,0-1.5-1.27,4.47,4.47,0,0,0-2-.5,3.55,3.55,0,0,0-2.81,1.25,4.81,4.81,0,0,0-1.09,3.28,4.72,4.72,0,0,0,1.09,3.24,3.52,3.52,0,0,0,2.81,1.25,4.45,4.45,0,0,0,2-.49,3.8,3.8,0,0,0,1.5-1.27Z" fill="#fff"/><path d="M172.72,37.83a6.35,6.35,0,0,1-2.13,1.78,5.83,5.83,0,0,1-2.64.62,6.6,6.6,0,0,1-3.52-1A6.44,6.44,0,0,1,162,36.48a9.92,9.92,0,0,1-.88-4.36,9.84,9.84,0,0,1,.88-4.31A6.73,6.73,0,0,1,164.41,25,6.45,6.45,0,0,1,168,24a6,6,0,0,1,2.62.61,6.14,6.14,0,0,1,2.15,1.76v-2h4.09V39.81h-4.09Zm0-8.44a3.9,3.9,0,0,0-1.51-1.27,4.46,4.46,0,0,0-2-.5,3.58,3.58,0,0,0-2.82,1.24,4.72,4.72,0,0,0-1.09,3.26,4.72,4.72,0,0,0,1.09,3.24,3.53,3.53,0,0,0,2.82,1.25,4.44,4.44,0,0,0,2-.49,3.9,3.9,0,0,0,1.51-1.27Z" fill="#fff"/><path d="M182.48,40.84a4.86,4.86,0,0,0,2,1.44,7.22,7.22,0,0,0,2.6.48,4.29,4.29,0,0,0,3.07-1,3.86,3.86,0,0,0,1.09-2.94v-1.6A7.23,7.23,0,0,1,189,38.85a7.16,7.16,0,0,1-3.16.68,5,5,0,0,1-3.74-1.28,5,5,0,0,1-1.25-3.59V24.36h4.07v8.7a2.79,2.79,0,0,0,.73,2.19,3.08,3.08,0,0,0,2.12.66,4.11,4.11,0,0,0,2-.51,4.93,4.93,0,0,0,1.51-1.25V24.36h4.06V38.6a7,7,0,0,1-2.22,5.52,8.76,8.76,0,0,1-6,2,9.45,9.45,0,0,1-6.47-2.31Z" fill="#fff"/><path d="M218.19,37.83a6.35,6.35,0,0,1-2.13,1.78,5.83,5.83,0,0,1-2.64.62,6.6,6.6,0,0,1-3.52-1,6.44,6.44,0,0,1-2.45-2.79,9.92,9.92,0,0,1-.88-4.36,9.84,9.84,0,0,1,.88-4.31A6.73,6.73,0,0,1,209.88,25a6.47,6.47,0,0,1,3.54-1,6,6,0,0,1,2.62.61,6.06,6.06,0,0,1,2.15,1.76V18.47h4.09V39.81h-4.09Zm0-8.47a3.75,3.75,0,0,0-1.51-1.27,4.46,4.46,0,0,0-2-.5,3.57,3.57,0,0,0-2.82,1.25,4.86,4.86,0,0,0-1.09,3.28,4.77,4.77,0,0,0,1.09,3.24,3.54,3.54,0,0,0,2.82,1.25,4.44,4.44,0,0,0,2-.49,3.83,3.83,0,0,0,1.51-1.27Z" fill="#fff"/><path d="M226.35,28a7.64,7.64,0,0,1,2.85-2.93,7.84,7.84,0,0,1,4.12-1.1,7.58,7.58,0,0,1,4,1.08,7.22,7.22,0,0,1,2.73,3,9.77,9.77,0,0,1,1,4.44v.89H229.58A4,4,0,0,0,231,36,4.52,4.52,0,0,0,234,37a6.44,6.44,0,0,0,2.25-.42,5.28,5.28,0,0,0,1.88-1.12L240,38.09a7.71,7.71,0,0,1-2.82,1.58,11.32,11.32,0,0,1-3.55.56,8.8,8.8,0,0,1-4.22-1,7.32,7.32,0,0,1-3-2.85,8.32,8.32,0,0,1-1.08-4.28A8.2,8.2,0,0,1,226.35,28Zm4.28.25a4.22,4.22,0,0,0-1.12,2.38h7.62a3.92,3.92,0,0,0-1-2.37,3.53,3.53,0,0,0-2.77-1.05A3.47,3.47,0,0,0,230.63,28.25Z" fill="#fff"/><path d="M254.63,37.83a6.22,6.22,0,0,1-2.12,1.78,5.83,5.83,0,0,1-2.64.62,6.6,6.6,0,0,1-3.52-1,6.44,6.44,0,0,1-2.45-2.79,9.92,9.92,0,0,1-.88-4.36,9.84,9.84,0,0,1,.88-4.31A6.73,6.73,0,0,1,246.33,25a6.45,6.45,0,0,1,3.54-1,6,6,0,0,1,4.76,2.37v-2h4.1V39.81h-4.1Zm0-8.44a3.8,3.8,0,0,0-1.5-1.27,4.46,4.46,0,0,0-2-.5,3.58,3.58,0,0,0-2.82,1.24,4.72,4.72,0,0,0-1.09,3.26,4.72,4.72,0,0,0,1.09,3.24,3.53,3.53,0,0,0,2.82,1.25,4.44,4.44,0,0,0,2-.49,3.8,3.8,0,0,0,1.5-1.27Z" fill="#fff"/><path d="M263.87,39.16A4.21,4.21,0,0,1,262.76,36V18.47h4.07V34.92a1.9,1.9,0,0,0,.38,1.21,1.25,1.25,0,0,0,1,.48,2.84,2.84,0,0,0,.84-.12,1.35,1.35,0,0,0,.54-.32l.86,3.07a4.91,4.91,0,0,1-3.35,1A4.5,4.5,0,0,1,263.87,39.16Z" fill="#fff"/><path d="M272.71,35a7.93,7.93,0,0,0,2.44,1.47,7.48,7.48,0,0,0,2.91.64,3.59,3.59,0,0,0,1.93-.42,1.3,1.3,0,0,0,.66-1.16,1.23,1.23,0,0,0-.77-1.13,10.06,10.06,0,0,0-2.33-.71,22.18,22.18,0,0,1-3.08-.77,5.09,5.09,0,0,1-2.11-1.39,3.78,3.78,0,0,1-.89-2.67,4.25,4.25,0,0,1,.75-2.43,5.09,5.09,0,0,1,2.19-1.78A8.07,8.07,0,0,1,277.8,24,9.72,9.72,0,0,1,284,26.09l-1.63,2.78a5.75,5.75,0,0,0-2-1.28,6.75,6.75,0,0,0-2.61-.51,3.58,3.58,0,0,0-1.77.38,1.18,1.18,0,0,0-.66,1.06,1.08,1.08,0,0,0,.72,1,11.12,11.12,0,0,0,2.23.65,21.37,21.37,0,0,1,3.1.81,5.41,5.41,0,0,1,2.18,1.47,4,4,0,0,1,.92,2.79,4.42,4.42,0,0,1-.78,2.56,5.12,5.12,0,0,1-2.3,1.78,9.22,9.22,0,0,1-3.6.64,11.58,11.58,0,0,1-3.86-.64A8.61,8.61,0,0,1,271,37.83Z" fill="#fff"/><path d="M17.36,74.17a14.08,14.08,0,0,0,4.44,3.12,13.55,13.55,0,0,0,5.73,1.2,6.9,6.9,0,0,0,4.11-1.07,3.1,3.1,0,0,0,1.46-2.56,2.68,2.68,0,0,0-1.58-2.48,20.81,20.81,0,0,0-4.9-1.62A54.07,54.07,0,0,1,20.53,69a10.25,10.25,0,0,1-4.11-2.82,7.57,7.57,0,0,1-1.75-5.27A8.65,8.65,0,0,1,16.16,56a10,10,0,0,1,4.25-3.48,15.1,15.1,0,0,1,6.4-1.28q7.64,0,12.48,4.46l-3.79,5a12.62,12.62,0,0,0-4.29-2.62,14.15,14.15,0,0,0-4.88-.89,5.81,5.81,0,0,0-3.48.9,2.81,2.81,0,0,0-1.22,2.39,2.3,2.3,0,0,0,1.49,2.2A28.79,28.79,0,0,0,28,64.23,43.91,43.91,0,0,1,34.09,66a10.59,10.59,0,0,1,4.17,2.91A7.58,7.58,0,0,1,40,74.14a9.38,9.38,0,0,1-3.28,7.46q-3.3,2.84-9.53,2.84-8.5,0-13.59-5.09Z" fill="#fff"/><path d="M51.68,57.8H42.32v-6H67.85v6H58.54v26H51.68Z" fill="#fff"/><path d="M89.55,78.29H75.25l-2,5.52H65.74l12.39-32h8.54L99,83.81H91.57Zm-12.48-5.9H87.68L82.4,57.7Z" fill="#fff"/><path d="M113.79,72.34h-5V83.81H102v-32h15a11.86,11.86,0,0,1,5.71,1.32,9.06,9.06,0,0,1,3.74,3.67,10.79,10.79,0,0,1,1.3,5.33,9.63,9.63,0,0,1-2,6.38,9,9,0,0,1-5,3.12l7.2,12.19h-7.82Zm5.59-13.46A4.94,4.94,0,0,0,116,57.65H108.8v8.84H116a4.94,4.94,0,0,0,3.43-1.23,4.4,4.4,0,0,0,0-6.38Z" fill="#fff"/><path d="M139.76,57.8H130.4v-6h25.53v6h-9.31v26h-6.86Z" fill="#fff"/><path d="M179.41,62.31v21.5h-6.82v-32h7l14.83,20.73V51.8h6.82v32h-6.58Z" fill="#fff"/><path d="M208.2,59.32a15.58,15.58,0,0,1,6-5.91,18.31,18.31,0,0,1,17.18,0,15.51,15.51,0,0,1,6,5.91,17.94,17.94,0,0,1,0,17.07,15.51,15.51,0,0,1-6,5.91,18.31,18.31,0,0,1-17.18,0,15.58,15.58,0,0,1-6-5.91,17.94,17.94,0,0,1,0-17.07Zm23.09,3.15a9,9,0,0,0-3.43-3.78,9.6,9.6,0,0,0-5.11-1.37,9.48,9.48,0,0,0-5.09,1.37,9.12,9.12,0,0,0-3.41,3.78,12.68,12.68,0,0,0,0,10.77A9.12,9.12,0,0,0,217.66,77a9.48,9.48,0,0,0,5.09,1.37A9.6,9.6,0,0,0,227.86,77a9,9,0,0,0,3.43-3.78,12.68,12.68,0,0,0,0-10.77Z" fill="#fff"/><path d="M262.2,61.83l-5.56,22h-7.25l-9.17-32h7.63l5.62,23.13,6.09-23.13h5.33l6.05,23.13,5.57-23.13h7.68l-9.12,32h-7.25Z" fill="#fff"/></g></g></svg>