<svg xmlns="http://www.w3.org/2000/svg" viewBox="0 0 300 250"><title>subhead</title><g id="Layer_2" data-name="Layer 2"><g id="rec"><rect width="300" height="250" fill="none"/></g><g id="subhead"><path d="M15.49,112.78V99.09h6.73a4.53,4.53,0,0,1,1.67.28,3.4,3.4,0,0,1,1.22.75,3.08,3.08,0,0,1,.75,1.1,3.64,3.64,0,0,1,.26,1.35,3.34,3.34,0,0,1-.2,1.17,3,3,0,0,1-.52.93,3,3,0,0,1-.76.67,2.91,2.91,0,0,1-.9.37,2.57,2.57,0,0,1,1,.38,3.21,3.21,0,0,1,.85.75,3.77,3.77,0,0,1,.56,1,3.42,3.42,0,0,1,.2,1.19,4.18,4.18,0,0,1-.25,1.48,3.29,3.29,0,0,1-2,2,4.81,4.81,0,0,1-1.72.28Zm6.26-8.07a1.94,1.94,0,0,0,1.41-.48,1.83,1.83,0,0,0,0-2.51,1.91,1.91,0,0,0-1.41-.49H17.89v3.48Zm.1,5.94a2.18,2.18,0,0,0,1.53-.5,1.82,1.82,0,0,0,.54-1.4,1.88,1.88,0,0,0-.52-1.34,2,2,0,0,0-1.55-.56h-4v3.8Z" fill="#e52823"/><path d="M35.43,112.78v-1.31A5.28,5.28,0,0,1,34,112.54,4.3,4.3,0,0,1,32,113a3.23,3.23,0,0,1-2.41-.82,3.17,3.17,0,0,1-.8-2.32v-7H30.9v6.22a2,2,0,0,0,.54,1.59,2.3,2.3,0,0,0,1.47.44,2.92,2.92,0,0,0,1.49-.4,3.55,3.55,0,0,0,1-.9v-6.95h2.16v9.91Z" fill="#e52823"/><path d="M44.28,116.8a6.34,6.34,0,0,1-2.22-.36,5.28,5.28,0,0,1-1.78-1.12l1-1.56a3,3,0,0,0,1.34,1,4.65,4.65,0,0,0,1.66.3,2.85,2.85,0,0,0,2-.71,2.7,2.7,0,0,0,.74-2v-1.15a5.34,5.34,0,0,1-1.43,1.07,4.16,4.16,0,0,1-2.06.49,2.83,2.83,0,0,1-3.2-3.14v-6.69h2.15v5.89a2,2,0,0,0,.55,1.59,2.28,2.28,0,0,0,1.47.44,2.79,2.79,0,0,0,1.48-.4,3.73,3.73,0,0,0,1-.89v-6.63h2.15v9.42a4.83,4.83,0,0,1-.37,2,3.77,3.77,0,0,1-1,1.41,4.5,4.5,0,0,1-1.57.85A6.21,6.21,0,0,1,44.28,116.8Z" fill="#e52823"/><path d="M59.85,112.78V102.19l-2.23,2.34-1.4-1.46,3.94-4h2.09v13.69Z" fill="#e52823"/><path d="M67.77,112a4,4,0,0,1-.52,2,4.58,4.58,0,0,1-1.38,1.52l-1-.8a2.74,2.74,0,0,0,.49-.37,4.16,4.16,0,0,0,.46-.48,3.06,3.06,0,0,0,.34-.54,1.67,1.67,0,0,0,.19-.54l-.14,0-.21,0a1.12,1.12,0,0,1-.86-.37,1.32,1.32,0,0,1-.35-.94,1.38,1.38,0,0,1,1.39-1.4,1.49,1.49,0,0,1,1.11.48A1.9,1.9,0,0,1,67.77,112Z" fill="#e52823"/><path d="M79.47,116.8a7.13,7.13,0,0,1-2.26-.32,5.22,5.22,0,0,1-1.9-1.16l1-1.56a3.41,3.41,0,0,0,1.4,1,5.07,5.07,0,0,0,1.76.29,4.23,4.23,0,0,0,1.06-.14,2.5,2.5,0,0,0,.94-.46,2.39,2.39,0,0,0,.68-.85,3,3,0,0,0,.26-1.32v-1.13A4.59,4.59,0,0,1,81,112.35a3.64,3.64,0,0,1-1.8.45,4.44,4.44,0,0,1-1.75-.34,3.7,3.7,0,0,1-1.39-1,4.59,4.59,0,0,1-.92-1.59,6.62,6.62,0,0,1-.33-2.18,6.47,6.47,0,0,1,.33-2.15,4.64,4.64,0,0,1,.92-1.6,3.8,3.8,0,0,1,1.38-1,4.38,4.38,0,0,1,1.76-.34A3.94,3.94,0,0,1,81,103a4.09,4.09,0,0,1,1.42,1.21v-1.37h2.15v9.4a4.83,4.83,0,0,1-.45,2.21,3.79,3.79,0,0,1-1.18,1.4,4.66,4.66,0,0,1-1.64.72A8.74,8.74,0,0,1,79.47,116.8Zm.39-5.93a3,3,0,0,0,1.47-.39,3.21,3.21,0,0,0,1.08-.92v-3.72a3.21,3.21,0,0,0-1.08-.92,3,3,0,0,0-1.47-.39,2.59,2.59,0,0,0-2,.87,3.88,3.88,0,0,0,0,4.61A2.61,2.61,0,0,0,79.86,110.87Z" fill="#e52823"/><path d="M92,113a5.83,5.83,0,0,1-2.08-.37,4.73,4.73,0,0,1-1.65-1.06A4.9,4.9,0,0,1,87.15,110a5.7,5.7,0,0,1-.39-2.14,5.49,5.49,0,0,1,.37-2,4.9,4.9,0,0,1,1-1.65A5.11,5.11,0,0,1,89.75,103a5,5,0,0,1,2-.41,4.84,4.84,0,0,1,2,.4,4.34,4.34,0,0,1,1.54,1.12,5,5,0,0,1,1,1.7,6.79,6.79,0,0,1,.34,2.16v.53H89a3.17,3.17,0,0,0,.3,1,2.88,2.88,0,0,0,.64.87,3,3,0,0,0,1,.6,3.52,3.52,0,0,0,1.25.21,4.17,4.17,0,0,0,1.52-.29,3.56,3.56,0,0,0,1.32-.82l1,1.42a5.1,5.1,0,0,1-1.81,1.09A6.7,6.7,0,0,1,92,113Zm2.63-6a3.06,3.06,0,0,0-.2-.89,2.78,2.78,0,0,0-.51-.84,2.9,2.9,0,0,0-.85-.63,3.31,3.31,0,0,0-2.45,0,2.56,2.56,0,0,0-.85.62,2.81,2.81,0,0,0-.52.84A3.07,3.07,0,0,0,89,107Z" fill="#e52823"/><path d="M101.78,113a2.53,2.53,0,0,1-1.91-.66,2.63,2.63,0,0,1-.64-1.91v-5.73H97.59v-1.86h1.64v-2.71h2.16v2.71h2v1.86h-2v5.2a1.52,1.52,0,0,0,.23.85.83.83,0,0,0,.71.34,1.35,1.35,0,0,0,.57-.12,1.14,1.14,0,0,0,.38-.25l.51,1.64a2.23,2.23,0,0,1-.78.45A3.61,3.61,0,0,1,101.78,113Z" fill="#e52823"/><path d="M115.12,113a5,5,0,0,1-2.14-.43,4.85,4.85,0,0,1-1.6-1.12,4.91,4.91,0,0,1-1-1.66,5.95,5.95,0,0,1,0-4,4.78,4.78,0,0,1,1-1.65A4.85,4.85,0,0,1,113,103a5.76,5.76,0,0,1,4.27,0,4.85,4.85,0,0,1,1.6,1.12,5,5,0,0,1,1,1.65,6.11,6.11,0,0,1,0,4,5.1,5.1,0,0,1-1,1.66,4.85,4.85,0,0,1-1.6,1.12A5,5,0,0,1,115.12,113Zm0-1.91a2.61,2.61,0,0,0,2.12-1,3.08,3.08,0,0,0,.54-1,4.16,4.16,0,0,0,.19-1.27,4,4,0,0,0-.19-1.25,3.27,3.27,0,0,0-.54-1,2.57,2.57,0,0,0-.89-.71,2.71,2.71,0,0,0-1.23-.27,2.67,2.67,0,0,0-1.22.27,2.7,2.7,0,0,0-.9.71,3.1,3.1,0,0,0-.55,1,4,4,0,0,0-.19,1.25,4.16,4.16,0,0,0,.19,1.27,2.93,2.93,0,0,0,.55,1,2.86,2.86,0,0,0,.9.72A2.67,2.67,0,0,0,115.12,111.12Z" fill="#e52823"/><path d="M129.11,112.78v-6.2a2,2,0,0,0-.54-1.61,2.32,2.32,0,0,0-1.47-.44,2.83,2.83,0,0,0-1.49.41,4,4,0,0,0-1.06.9v6.94H122.4v-9.91h2.15v1.33a4.86,4.86,0,0,1,.61-.57,4.68,4.68,0,0,1,.81-.52,5,5,0,0,1,1-.36,4.89,4.89,0,0,1,1.11-.13,2.86,2.86,0,0,1,3.21,3.18v7Z" fill="#e52823"/><path d="M138.65,113a5.87,5.87,0,0,1-2.08-.37,4.69,4.69,0,0,1-1.64-1.06,4.92,4.92,0,0,1-1.08-1.65,5.7,5.7,0,0,1-.39-2.14,5.49,5.49,0,0,1,.37-2,4.92,4.92,0,0,1,4.66-3.17,4.84,4.84,0,0,1,2,.4,4.53,4.53,0,0,1,1.54,1.12,5,5,0,0,1,1,1.7,6.52,6.52,0,0,1,.34,2.16v.53h-7.63a3.17,3.17,0,0,0,.3,1,2.7,2.7,0,0,0,.63.87,3.12,3.12,0,0,0,1,.6,3.45,3.45,0,0,0,1.25.21,4.21,4.21,0,0,0,1.52-.29,3.52,3.52,0,0,0,1.31-.82l1,1.42a5,5,0,0,1-1.8,1.09A6.8,6.8,0,0,1,138.65,113Zm2.63-6a2.77,2.77,0,0,0-.2-.89,2.43,2.43,0,0,0-.51-.84,2.77,2.77,0,0,0-.85-.63,3.28,3.28,0,0,0-2.44,0,2.46,2.46,0,0,0-.85.62,2.84,2.84,0,0,0-.53.84,2.77,2.77,0,0,0-.2.91Z" fill="#e52823"/><path d="M155.62,113a7.09,7.09,0,0,1-3-.57,6,6,0,0,1-2.08-1.55l1.38-1.66a4.59,4.59,0,0,0,3.67,1.64,2.87,2.87,0,0,0,2.06-.7,2.25,2.25,0,0,0,.75-1.72,2.2,2.2,0,0,0-.74-1.76,2.9,2.9,0,0,0-2-.66,4.41,4.41,0,0,0-1.6.28,4.06,4.06,0,0,0-1.39.89l-1.71-.49V99.09h9v2.14h-6.56v3.92a4.61,4.61,0,0,1,1.31-.83,4.45,4.45,0,0,1,1.78-.34,5,5,0,0,1,1.67.29,4.13,4.13,0,0,1,1.4.87,4.09,4.09,0,0,1,1,1.38,4.92,4.92,0,0,1,0,3.79,4.15,4.15,0,0,1-1.07,1.45,4.77,4.77,0,0,1-1.65.94A6.54,6.54,0,0,1,155.62,113Z" fill="#e52823"/><path d="M168,113a4.74,4.74,0,0,1-2.5-.63,5.26,5.26,0,0,1-1.69-1.63,7.35,7.35,0,0,1-1-2.27,10.36,10.36,0,0,1,0-5.11,7.35,7.35,0,0,1,1-2.27,5.13,5.13,0,0,1,1.69-1.62,4.83,4.83,0,0,1,2.5-.61,4.74,4.74,0,0,1,2.47.61,5.13,5.13,0,0,1,1.69,1.62,7.37,7.37,0,0,1,1,2.27,10.36,10.36,0,0,1,0,5.11,7.37,7.37,0,0,1-1,2.27,5.26,5.26,0,0,1-1.69,1.63A4.65,4.65,0,0,1,168,113Zm0-2.14a2.41,2.41,0,0,0,1.4-.41,3,3,0,0,0,.94-1.09,5.68,5.68,0,0,0,.51-1.57,10.25,10.25,0,0,0,.16-1.87,11.28,11.28,0,0,0-.15-1.88,5.08,5.08,0,0,0-.51-1.57,3,3,0,0,0-.94-1.08A2.37,2.37,0,0,0,168,101a2.4,2.4,0,0,0-1.42.4,3.07,3.07,0,0,0-.93,1.08,5.37,5.37,0,0,0-.53,1.57,11.07,11.07,0,0,0,0,3.75,5.37,5.37,0,0,0,.53,1.57,3.1,3.1,0,0,0,.93,1.09A2.41,2.41,0,0,0,168,110.89Z" fill="#e52823"/><path d="M178.34,105.68a3.66,3.66,0,0,1-1.39-.26,3.16,3.16,0,0,1-1.07-.72,3.11,3.11,0,0,1-.7-1.07,3.47,3.47,0,0,1-.25-1.34,3.51,3.51,0,0,1,.25-1.34,3.19,3.19,0,0,1,.7-1.09,3.16,3.16,0,0,1,1.07-.72,4,4,0,0,1,2.78,0,2.93,2.93,0,0,1,1.08.72,3.32,3.32,0,0,1,.69,1.09,3.71,3.71,0,0,1,.25,1.34,3.67,3.67,0,0,1-.25,1.34,3.23,3.23,0,0,1-.69,1.07,2.93,2.93,0,0,1-1.08.72A3.7,3.7,0,0,1,178.34,105.68Zm0-1.38a1.7,1.7,0,0,0,1.31-.55,2.09,2.09,0,0,0,.52-1.47,2.14,2.14,0,0,0-.52-1.49,1.68,1.68,0,0,0-1.31-.57,1.66,1.66,0,0,0-1.29.57,2.1,2.1,0,0,0-.52,1.49,2,2,0,0,0,.52,1.47A1.67,1.67,0,0,0,178.34,104.3ZM177,112.78l8.75-13.69h1.39l-8.76,13.69Zm8.71.25a3.66,3.66,0,0,1-1.39-.26,3.1,3.1,0,0,1-1.08-.72,3.26,3.26,0,0,1-.7-1.07,3.61,3.61,0,0,1-.24-1.33,3.71,3.71,0,0,1,.24-1.34,3.2,3.2,0,0,1,.7-1.08,3.1,3.1,0,0,1,1.08-.72,3.82,3.82,0,0,1,2.77,0,3.1,3.1,0,0,1,1.08.72,3.2,3.2,0,0,1,.7,1.08,3.71,3.71,0,0,1,.24,1.34,3.61,3.61,0,0,1-.24,1.33,3.26,3.26,0,0,1-.7,1.07,3.1,3.1,0,0,1-1.08.72A3.65,3.65,0,0,1,185.71,113Zm0-1.38a1.7,1.7,0,0,0,1.31-.55,2.08,2.08,0,0,0,.51-1.46,2.14,2.14,0,0,0-.51-1.49,1.82,1.82,0,0,0-2.63,0,2.14,2.14,0,0,0-.51,1.49,2.08,2.08,0,0,0,.51,1.46A1.71,1.71,0,0,0,185.71,111.65Z" fill="#e52823"/><path d="M200.87,113a5,5,0,0,1-2.13-.43,4.9,4.9,0,0,1-1.61-1.12,5.08,5.08,0,0,1-1-1.66,5.95,5.95,0,0,1,0-4,4.69,4.69,0,0,1,2.61-2.77,5.74,5.74,0,0,1,4.26,0,4.77,4.77,0,0,1,2.61,2.77,5.95,5.95,0,0,1,0,4,4.94,4.94,0,0,1-1,1.66,4.75,4.75,0,0,1-1.6,1.12A5,5,0,0,1,200.87,113Zm0-1.91a2.68,2.68,0,0,0,1.23-.27,2.62,2.62,0,0,0,.89-.72,3.09,3.09,0,0,0,.55-1,4.48,4.48,0,0,0,.18-1.27,4.34,4.34,0,0,0-.18-1.25,3.29,3.29,0,0,0-.55-1,2.48,2.48,0,0,0-.89-.71,2.68,2.68,0,0,0-1.23-.27,2.63,2.63,0,0,0-1.21.27,2.52,2.52,0,0,0-.9.71,3.32,3.32,0,0,0-.56,1,4.34,4.34,0,0,0-.18,1.25,4.48,4.48,0,0,0,.18,1.27,3.11,3.11,0,0,0,.56,1,2.66,2.66,0,0,0,.9.72A2.63,2.63,0,0,0,200.87,111.12Z" fill="#e52823"/><path d="M208.69,112.78v-8h-1.64v-1.86h1.64v-.56a3.44,3.44,0,0,1,.88-2.54,3,3,0,0,1,2.24-.88,3.56,3.56,0,0,1,1.74.37l-.47,1.62a1.55,1.55,0,0,0-.86-.23,1.3,1.3,0,0,0-1,.41,1.86,1.86,0,0,0-.36,1.25v.56h2v1.86h-2v8Z" fill="#e52823"/><path d="M215,112.78v-8h-1.64v-1.86H215v-.56a3.44,3.44,0,0,1,.88-2.54,3,3,0,0,1,2.24-.88,3.56,3.56,0,0,1,1.74.37l-.47,1.62a1.55,1.55,0,0,0-.86-.23,1.3,1.3,0,0,0-1,.41,1.86,1.86,0,0,0-.36,1.25v.56h2v1.86h-2v8Z" fill="#e52823"/><path d="M233.11,112.78v-1.36a4.2,4.2,0,0,1-1.39,1.17,3.74,3.74,0,0,1-1.79.44,4.46,4.46,0,0,1-1.76-.35,3.91,3.91,0,0,1-1.39-1,4.93,4.93,0,0,1-.92-1.64,6.79,6.79,0,0,1-.32-2.2,6.61,6.61,0,0,1,.32-2.15,4.93,4.93,0,0,1,.92-1.64,4,4,0,0,1,1.38-1,4.28,4.28,0,0,1,1.77-.36,3.92,3.92,0,0,1,1.76.41,4.09,4.09,0,0,1,1.42,1.21v-1.37h2.15v9.91Zm-2.55-1.66a2.78,2.78,0,0,0,.75-.11,3,3,0,0,0,.72-.28,4.8,4.8,0,0,0,.62-.42,2.58,2.58,0,0,0,.46-.53v-3.92a3.59,3.59,0,0,0-.46-.51,3.42,3.42,0,0,0-.62-.43,3.5,3.5,0,0,0-.72-.29,2.76,2.76,0,0,0-.75-.1,2.61,2.61,0,0,0-1.17.25,2.75,2.75,0,0,0-.88.67,3,3,0,0,0-.56,1,4.25,4.25,0,0,0-.2,1.32,4.36,4.36,0,0,0,.2,1.33,3,3,0,0,0,.56,1,2.55,2.55,0,0,0,.88.69A2.61,2.61,0,0,0,230.56,111.12Z" fill="#e52823"/><path d="M240.6,113a2.54,2.54,0,0,1-1.9-.66,2.63,2.63,0,0,1-.65-1.91V99.09h2.16v10.84a1.52,1.52,0,0,0,.23.85.83.83,0,0,0,.71.34,1.4,1.4,0,0,0,.58-.12,1.09,1.09,0,0,0,.39-.25l.51,1.64a2.23,2.23,0,0,1-.78.45A3.69,3.69,0,0,1,240.6,113Z" fill="#e52823"/><path d="M246.47,113a2.54,2.54,0,0,1-1.9-.66,2.63,2.63,0,0,1-.65-1.91V99.09h2.16v10.84a1.52,1.52,0,0,0,.23.85.83.83,0,0,0,.71.34,1.4,1.4,0,0,0,.58-.12,1.19,1.19,0,0,0,.39-.25l.51,1.64a2.23,2.23,0,0,1-.78.45A3.69,3.69,0,0,1,246.47,113Z" fill="#e52823"/><path d="M19.94,134.9a5.29,5.29,0,0,1-2.06-.39,4.85,4.85,0,0,1-1.61-1.08,5,5,0,0,1-1.06-1.66,5.86,5.86,0,0,1,0-4.15A4.93,4.93,0,0,1,16.27,126a4.73,4.73,0,0,1,1.61-1.09,5.29,5.29,0,0,1,2.06-.39,5.81,5.81,0,0,1,1.32.14,5,5,0,0,1,1,.39,4.16,4.16,0,0,1,.81.57,5.46,5.46,0,0,1,.62.66l-1.42,1.3A2.63,2.63,0,0,0,20,126.41a2.77,2.77,0,0,0-2.17.91,3.4,3.4,0,0,0-.82,2.37,4,4,0,0,0,.21,1.32,3,3,0,0,0,.62,1.05,2.9,2.9,0,0,0,.94.69A3,3,0,0,0,20,133a2.64,2.64,0,0,0,2.28-1.2l1.42,1.34a5.19,5.19,0,0,1-1.44,1.23A4.56,4.56,0,0,1,19.94,134.9Z" fill="#e52823"/><path d="M32.62,134.66V133.3a4.19,4.19,0,0,1-1.38,1.17,3.74,3.74,0,0,1-1.8.43,4.24,4.24,0,0,1-1.75-.35,3.81,3.81,0,0,1-1.4-1,4.91,4.91,0,0,1-.91-1.64,6.83,6.83,0,0,1-.33-2.2,6.6,6.6,0,0,1,.33-2.15,5,5,0,0,1,.91-1.65,3.91,3.91,0,0,1,1.39-1,4.23,4.23,0,0,1,1.76-.36,3.85,3.85,0,0,1,3.18,1.62v-1.37h2.16v9.91ZM30.08,133a2.9,2.9,0,0,0,.75-.11,3.7,3.7,0,0,0,.72-.28,3.91,3.91,0,0,0,.61-.43,2,2,0,0,0,.46-.52v-3.92a2.41,2.41,0,0,0-.46-.51,2.92,2.92,0,0,0-.61-.43,3.19,3.19,0,0,0-.72-.29,2.87,2.87,0,0,0-.75-.1,2.72,2.72,0,0,0-1.17.24,2.67,2.67,0,0,0-.88.68,2.91,2.91,0,0,0-.57,1,4.68,4.68,0,0,0,0,2.64,3,3,0,0,0,.57,1.05,2.57,2.57,0,0,0,.88.69A2.72,2.72,0,0,0,30.08,133Z" fill="#e52823"/><path d="M40.56,134.9a2.56,2.56,0,0,1-1.9-.65,2.63,2.63,0,0,1-.64-1.91v-5.73H36.38v-1.86H38V122h2.15v2.71h2v1.86h-2v5.19a1.46,1.46,0,0,0,.24.86.82.82,0,0,0,.71.34,1.31,1.31,0,0,0,.56-.12,1,1,0,0,0,.38-.25l.52,1.64a2.43,2.43,0,0,1-.78.45A3.65,3.65,0,0,1,40.56,134.9Z" fill="#e52823"/><path d="M52,134.9a2.28,2.28,0,0,1-2.54-2.56V121h2.15V131.8a1.46,1.46,0,0,0,.24.86.82.82,0,0,0,.71.34,1.39,1.39,0,0,0,.57-.12,1,1,0,0,0,.39-.25l.51,1.64a2.27,2.27,0,0,1-.77.45A3.74,3.74,0,0,1,52,134.9Z" fill="#e52823"/><path d="M56.36,123.54A1.33,1.33,0,0,1,55,122.2a1.28,1.28,0,0,1,.39-.94,1.34,1.34,0,0,1,1.89,0,1.28,1.28,0,0,1,.39.94,1.33,1.33,0,0,1-1.34,1.34Zm-1.08,11.12v-9.91h2.15v9.91Z" fill="#e52823"/><path d="M63.22,134.9a2.57,2.57,0,0,1-1.91-.65,2.67,2.67,0,0,1-.64-1.91v-5.73H59v-1.86h1.64V122h2.16v2.71h2v1.86h-2v5.19a1.53,1.53,0,0,0,.23.86.83.83,0,0,0,.71.34,1.32,1.32,0,0,0,.57-.12,1.14,1.14,0,0,0,.38-.25l.51,1.64a2.23,2.23,0,0,1-.78.45A3.63,3.63,0,0,1,63.22,134.9Z" fill="#e52823"/><path d="M69.76,134.9a2.56,2.56,0,0,1-1.9-.65,2.63,2.63,0,0,1-.64-1.91v-5.73H65.58v-1.86h1.64V122h2.15v2.71h2v1.86h-2v5.19a1.46,1.46,0,0,0,.24.86.82.82,0,0,0,.71.34,1.31,1.31,0,0,0,.56-.12,1,1,0,0,0,.38-.25l.52,1.64a2.43,2.43,0,0,1-.78.45A3.65,3.65,0,0,1,69.76,134.9Z" fill="#e52823"/><path d="M77.91,134.9a5.62,5.62,0,0,1-2.08-.37,4.45,4.45,0,0,1-1.64-1.05,4.92,4.92,0,0,1-1.08-1.65,5.7,5.7,0,0,1-.39-2.14,5.49,5.49,0,0,1,.37-2,4.81,4.81,0,0,1,1-1.65,5,5,0,0,1,1.59-1.11,5.06,5.06,0,0,1,2-.41,4.84,4.84,0,0,1,2,.4A4.53,4.53,0,0,1,81.3,126a4.9,4.9,0,0,1,1,1.7,6.52,6.52,0,0,1,.34,2.16v.53H75a3.41,3.41,0,0,0,.29,1.05,2.9,2.9,0,0,0,1.59,1.46,3.33,3.33,0,0,0,1.26.22,4.34,4.34,0,0,0,1.51-.29A3.56,3.56,0,0,0,81,132l1,1.42a4.81,4.81,0,0,1-1.8,1.08A6.55,6.55,0,0,1,77.91,134.9Zm2.63-6a3,3,0,0,0-.2-.89,2.43,2.43,0,0,0-.51-.84,2.58,2.58,0,0,0-.85-.63,2.93,2.93,0,0,0-1.25-.25,2.78,2.78,0,0,0-1.19.24,2.5,2.5,0,0,0-.86.62,2.81,2.81,0,0,0-.52.84,2.71,2.71,0,0,0-.2.91Z" fill="#e52823"/><path d="M84.74,134.66v-9.91H86.9v1.43a4.83,4.83,0,0,1,1.41-1.2,3.63,3.63,0,0,1,1.81-.48v2.13a3.23,3.23,0,0,0-.66-.06,3.12,3.12,0,0,0-.72.1A3.92,3.92,0,0,0,88,127a3.33,3.33,0,0,0-.65.43,2.36,2.36,0,0,0-.45.52v6.75Z" fill="#e52823"/><path d="M91.25,134.88a1.36,1.36,0,0,1-1-.43,1.4,1.4,0,0,1-.42-1,1.36,1.36,0,0,1,.42-1,1.39,1.39,0,0,1,1-.42,1.45,1.45,0,0,1,1.44,1.42,1.41,1.41,0,0,1-.43,1A1.34,1.34,0,0,1,91.25,134.88Z" fill="#e52823"/></g></g></svg>