<svg xmlns="http://www.w3.org/2000/svg" viewBox="0 0 300 600"><g id="Layer_2" data-name="Layer 2"><g id="REC"><rect width="300" height="600" fill="none"/></g><g id="sbhd"><path d="M26.79,138.25a8.71,8.71,0,0,1-3.65-.69,7.21,7.21,0,0,1-2.52-1.89l1.67-2a5.62,5.62,0,0,0,4.48,2,3.58,3.58,0,0,0,2.51-.85,2.76,2.76,0,0,0,.91-2.1,2.73,2.73,0,0,0-.9-2.15,3.51,3.51,0,0,0-2.45-.8,5.4,5.4,0,0,0-1.95.34,5.08,5.08,0,0,0-1.7,1.08l-2.07-.6v-9.3H32v2.6H24v4.78a5.54,5.54,0,0,1,1.6-1,5.3,5.3,0,0,1,2.18-.43,5.56,5.56,0,0,1,2,.37,5,5,0,0,1,1.71,1,4.86,4.86,0,0,1,1.18,1.68,5.69,5.69,0,0,1,.44,2.28,5.56,5.56,0,0,1-.48,2.34,5.11,5.11,0,0,1-1.31,1.77,6,6,0,0,1-2,1.14A8.16,8.16,0,0,1,26.79,138.25Z" fill="#e52823"/><path d="M41.92,138.25a5.83,5.83,0,0,1-3-.76,6.42,6.42,0,0,1-2.06-2,9,9,0,0,1-1.19-2.76,12.64,12.64,0,0,1,0-6.23,8.91,8.91,0,0,1,1.19-2.76,6.19,6.19,0,0,1,2.06-2,6.48,6.48,0,0,1,6,0,6.19,6.19,0,0,1,2.06,2,8.91,8.91,0,0,1,1.19,2.76,12.64,12.64,0,0,1,0,6.23A9,9,0,0,1,47,135.5a6.42,6.42,0,0,1-2.06,2A5.8,5.8,0,0,1,41.92,138.25Zm0-2.6a3,3,0,0,0,1.71-.5,3.79,3.79,0,0,0,1.14-1.33,6.8,6.8,0,0,0,.62-1.91,12.05,12.05,0,0,0,.2-2.29,12.83,12.83,0,0,0-.19-2.28,6.28,6.28,0,0,0-.62-1.92,3.64,3.64,0,0,0-1.14-1.31,3,3,0,0,0-1.72-.49,3,3,0,0,0-1.73.49,3.84,3.84,0,0,0-1.14,1.31,6.57,6.57,0,0,0-.63,1.92,13.15,13.15,0,0,0,0,4.57,6.5,6.5,0,0,0,.63,1.91,4,4,0,0,0,1.14,1.33A2.92,2.92,0,0,0,41.92,135.65Z" fill="#e52823"/><path d="M54.47,129.3a4.58,4.58,0,0,1-1.69-.31,3.74,3.74,0,0,1-1.31-.88,3.85,3.85,0,0,1-.85-1.31,4.58,4.58,0,0,1,0-3.26,3.93,3.93,0,0,1,.85-1.33,3.71,3.71,0,0,1,1.31-.87,4.39,4.39,0,0,1,1.69-.32,4.51,4.51,0,0,1,1.7.32,3.71,3.71,0,0,1,1.31.87,4.07,4.07,0,0,1,.84,1.33,4.58,4.58,0,0,1,0,3.26,4,4,0,0,1-.84,1.31,3.74,3.74,0,0,1-1.31.88A4.71,4.71,0,0,1,54.47,129.3Zm0-1.68a2.06,2.06,0,0,0,1.6-.68,2.54,2.54,0,0,0,.62-1.78,2.64,2.64,0,0,0-.62-1.82,2.07,2.07,0,0,0-1.6-.69,2,2,0,0,0-1.58.69,2.64,2.64,0,0,0-.62,1.82,2.54,2.54,0,0,0,.62,1.78A2,2,0,0,0,54.47,127.62ZM52.84,138l10.65-16.68h1.7L54.52,138Zm10.6.3a4.62,4.62,0,0,1-1.69-.31,3.93,3.93,0,0,1-1.31-.88,4.07,4.07,0,0,1-.85-1.3,4.32,4.32,0,0,1-.3-1.62,4.43,4.43,0,0,1,.3-1.64,4.16,4.16,0,0,1,.85-1.32,4.06,4.06,0,0,1,1.31-.87,4.76,4.76,0,0,1,3.38,0,3.85,3.85,0,0,1,1.31.87,4,4,0,0,1,.85,1.32,4.43,4.43,0,0,1,.3,1.64,4.32,4.32,0,0,1-.3,1.62,3.91,3.91,0,0,1-.85,1.3,3.74,3.74,0,0,1-1.31.88A4.58,4.58,0,0,1,63.44,138.25Zm0-1.68a2.07,2.07,0,0,0,1.6-.67,2.5,2.5,0,0,0,.63-1.78,2.57,2.57,0,0,0-.63-1.81,2.2,2.2,0,0,0-3.2,0,2.62,2.62,0,0,0-.62,1.81,2.54,2.54,0,0,0,.62,1.78A2.08,2.08,0,0,0,63.44,136.57Z" fill="#e52823"/><path d="M81.92,138.25a6.32,6.32,0,0,1-2.6-.51,5.89,5.89,0,0,1-1.95-1.38,5.83,5.83,0,0,1-1.23-2,7.13,7.13,0,0,1-.42-2.45,7,7,0,0,1,.42-2.45,5.83,5.83,0,0,1,3.18-3.38,6.48,6.48,0,0,1,2.6-.5,6.55,6.55,0,0,1,2.6.5,5.92,5.92,0,0,1,2,1.37,5.86,5.86,0,0,1,1.22,2,6.83,6.83,0,0,1,.43,2.45,6.9,6.9,0,0,1-.43,2.45,6,6,0,0,1-1.22,2,6.1,6.1,0,0,1-2,1.38A6.38,6.38,0,0,1,81.92,138.25Zm0-2.33a3.44,3.44,0,0,0,1.5-.32,3.2,3.2,0,0,0,1.08-.88,3.64,3.64,0,0,0,.67-1.28,5.31,5.31,0,0,0,.22-1.54,5.15,5.15,0,0,0-.22-1.53,3.68,3.68,0,0,0-.67-1.27,3.2,3.2,0,0,0-1.08-.88,3.44,3.44,0,0,0-1.5-.32,3.19,3.19,0,0,0-2.58,1.2,3.68,3.68,0,0,0-.67,1.27,5.15,5.15,0,0,0-.23,1.53,5.32,5.32,0,0,0,.23,1.54,3.64,3.64,0,0,0,.67,1.28,3.19,3.19,0,0,0,2.58,1.2Z" fill="#e52823"/><path d="M91.44,138v-9.8h-2v-2.28h2v-.67a4.17,4.17,0,0,1,1.08-3.1A3.66,3.66,0,0,1,95.24,121a4.43,4.43,0,0,1,2.13.45l-.58,2a1.83,1.83,0,0,0-1.05-.28,1.59,1.59,0,0,0-1.24.5,2.29,2.29,0,0,0-.43,1.53v.67h2.45v2.28H94.07V138Z" fill="#e52823"/><path d="M99.17,138v-9.8h-2v-2.28h2v-.67a4.17,4.17,0,0,1,1.07-3.1A3.7,3.7,0,0,1,103,121a4.41,4.41,0,0,1,2.12.45l-.57,2a1.87,1.87,0,0,0-1-.28,1.56,1.56,0,0,0-1.24.5,2.29,2.29,0,0,0-.44,1.53v.67h2.45v2.28h-2.45V138Z" fill="#e52823"/><path d="M121.19,138V136.3a5.24,5.24,0,0,1-1.69,1.42,4.56,4.56,0,0,1-2.18.53,5.25,5.25,0,0,1-2.14-.43,4.56,4.56,0,0,1-1.7-1.25,5.7,5.7,0,0,1-1.11-2,9,9,0,0,1,0-5.3,5.79,5.79,0,0,1,1.11-2,4.75,4.75,0,0,1,1.69-1.26,5.2,5.2,0,0,1,2.15-.44,4.82,4.82,0,0,1,2.15.5,4.93,4.93,0,0,1,1.72,1.48v-1.68h2.63V138Zm-3.1-2a3.61,3.61,0,0,0,.91-.12,4.49,4.49,0,0,0,.88-.35,4.94,4.94,0,0,0,.75-.51,3.34,3.34,0,0,0,.56-.64v-4.78a4,4,0,0,0-.56-.62,4.41,4.41,0,0,0-.75-.53A4.49,4.49,0,0,0,119,128a3.61,3.61,0,0,0-.91-.12,3.21,3.21,0,0,0-2.5,1.12,3.61,3.61,0,0,0-.69,1.27,5.75,5.75,0,0,0,0,3.22,3.84,3.84,0,0,0,.69,1.28,3.26,3.26,0,0,0,1.08.83A3.22,3.22,0,0,0,118.09,135.92Z" fill="#e52823"/><path d="M130.31,138.25a3.13,3.13,0,0,1-2.31-.8,3.22,3.22,0,0,1-.78-2.33V121.27h2.62v13.2a1.77,1.77,0,0,0,.29,1,1,1,0,0,0,.86.41,1.82,1.82,0,0,0,.7-.13,1.43,1.43,0,0,0,.48-.32l.62,2a2.77,2.77,0,0,1-.95.55A4.4,4.4,0,0,1,130.31,138.25Z" fill="#e52823"/><path d="M137.46,138.25a3.13,3.13,0,0,1-2.31-.8,3.22,3.22,0,0,1-.78-2.33V121.27H137v13.2a1.77,1.77,0,0,0,.29,1,1,1,0,0,0,.86.41,1.82,1.82,0,0,0,.7-.13,1.28,1.28,0,0,0,.47-.32l.63,2a2.77,2.77,0,0,1-.95.55A4.4,4.4,0,0,1,137.46,138.25Z" fill="#e52823"/><path d="M148,138V125.87h2.63v1.75a6.1,6.1,0,0,1,1.72-1.46,4.4,4.4,0,0,1,2.2-.59v2.6a3.84,3.84,0,0,0-.8-.07,3.45,3.45,0,0,0-.88.12,4.93,4.93,0,0,0-.9.35,3.76,3.76,0,0,0-.79.53,2.82,2.82,0,0,0-.55.62V138Z" fill="#e52823"/><path d="M162.11,138.25a6.38,6.38,0,0,1-2.6-.51,6.1,6.1,0,0,1-1.95-1.38,6,6,0,0,1-1.22-2,7.13,7.13,0,0,1-.43-2.45,7,7,0,0,1,.43-2.45,5.86,5.86,0,0,1,1.22-2,5.92,5.92,0,0,1,1.95-1.37,6.55,6.55,0,0,1,2.6-.5,6.48,6.48,0,0,1,2.6.5,5.83,5.83,0,0,1,3.18,3.38,7,7,0,0,1,.42,2.45,7.13,7.13,0,0,1-.42,2.45,5.83,5.83,0,0,1-1.23,2,5.89,5.89,0,0,1-1.95,1.38A6.32,6.32,0,0,1,162.11,138.25Zm0-2.33a3.38,3.38,0,0,0,1.5-.32,3.14,3.14,0,0,0,1.09-.88,3.79,3.79,0,0,0,.66-1.28,5.32,5.32,0,0,0,.23-1.54,5.15,5.15,0,0,0-.23-1.53,3.83,3.83,0,0,0-.66-1.27,3.14,3.14,0,0,0-1.09-.88,3.38,3.38,0,0,0-1.5-.32,3.31,3.31,0,0,0-1.47.32,3.37,3.37,0,0,0-1.1.88,3.7,3.7,0,0,0-.68,1.27,5.15,5.15,0,0,0-.22,1.53,5.31,5.31,0,0,0,.22,1.54,3.65,3.65,0,0,0,.68,1.28,3.37,3.37,0,0,0,1.1.88A3.31,3.31,0,0,0,162.11,135.92Z" fill="#e52823"/><path d="M177.49,138.25a4.59,4.59,0,0,1-2.14-.51,5.38,5.38,0,0,1-1.74-1.47v6.28H171V125.87h2.62v1.65a4.91,4.91,0,0,1,1.68-1.42,4.67,4.67,0,0,1,2.2-.53,5.23,5.23,0,0,1,2.15.43,4.66,4.66,0,0,1,1.69,1.24,5.93,5.93,0,0,1,1.11,2,8.25,8.25,0,0,1,.4,2.68,8.15,8.15,0,0,1-.4,2.67,5.88,5.88,0,0,1-1.11,2,4.93,4.93,0,0,1-1.69,1.25A5.23,5.23,0,0,1,177.49,138.25Zm-.78-2.33a3.05,3.05,0,0,0,2.5-1.12,4.41,4.41,0,0,0,.93-2.9,4.34,4.34,0,0,0-.93-2.89,3.08,3.08,0,0,0-2.5-1.11,3.69,3.69,0,0,0-1.78.46,3.55,3.55,0,0,0-1.32,1.14v4.77a2.89,2.89,0,0,0,.57.65,3.74,3.74,0,0,0,.75.53,4.17,4.17,0,0,0,.87.35A3.61,3.61,0,0,0,176.71,135.92Z" fill="#e52823"/><path d="M191.06,138.25a6.94,6.94,0,0,1-2.53-.45,5.56,5.56,0,0,1-2-1.29,6.06,6.06,0,0,1-1.32-2,7,7,0,0,1-.47-2.6,6.72,6.72,0,0,1,.45-2.46,6.06,6.06,0,0,1,1.26-2,6.25,6.25,0,0,1,1.94-1.35,6.36,6.36,0,0,1,4.92,0,5.48,5.48,0,0,1,1.88,1.36,6.18,6.18,0,0,1,1.19,2.08,8.13,8.13,0,0,1,.41,2.62v.65h-9.3a4,4,0,0,0,.36,1.28,3.61,3.61,0,0,0,1.94,1.79,4.29,4.29,0,0,0,1.52.26,5.4,5.4,0,0,0,1.85-.35,4.4,4.4,0,0,0,1.6-1l1.2,1.72a6,6,0,0,1-2.2,1.33A8.05,8.05,0,0,1,191.06,138.25Zm3.2-7.35a3.44,3.44,0,0,0-.23-1.09,3.28,3.28,0,0,0-.63-1,3.17,3.17,0,0,0-1-.77,3.88,3.88,0,0,0-3,0,3.09,3.09,0,0,0-1,.75,3.56,3.56,0,0,0-.64,1,3.43,3.43,0,0,0-.25,1.11Z" fill="#e52823"/><path d="M209.49,138.25a3.13,3.13,0,0,1-2.33-.8,3.26,3.26,0,0,1-.77-2.33v-7h-2v-2.28h2v-3.3H209v3.3h2.45v2.28H209v6.32a1.77,1.77,0,0,0,.29,1,1,1,0,0,0,.86.41,1.73,1.73,0,0,0,.69-.13,1.32,1.32,0,0,0,.46-.32l.63,2a2.77,2.77,0,0,1-.95.55A4.3,4.3,0,0,1,209.49,138.25Z" fill="#e52823"/><path d="M219.29,138.25a6.32,6.32,0,0,1-2.6-.51,5.89,5.89,0,0,1-1.95-1.38,6,6,0,0,1-1.23-2,7.13,7.13,0,0,1-.42-2.45,7,7,0,0,1,.42-2.45,5.89,5.89,0,0,1,1.23-2,5.72,5.72,0,0,1,1.95-1.37,6.48,6.48,0,0,1,2.6-.5,6.55,6.55,0,0,1,2.6.5,5.92,5.92,0,0,1,2,1.37,5.86,5.86,0,0,1,1.22,2,6.83,6.83,0,0,1,.43,2.45,6.9,6.9,0,0,1-.43,2.45,6,6,0,0,1-1.22,2,6.1,6.1,0,0,1-2,1.38A6.38,6.38,0,0,1,219.29,138.25Zm0-2.33a3.44,3.44,0,0,0,1.5-.32,3.33,3.33,0,0,0,1.09-.88,3.79,3.79,0,0,0,.66-1.28,5.31,5.31,0,0,0,.22-1.54,5.15,5.15,0,0,0-.22-1.53,3.83,3.83,0,0,0-.66-1.27,3.33,3.33,0,0,0-1.09-.88,3.44,3.44,0,0,0-1.5-.32,3.19,3.19,0,0,0-2.58,1.2,3.68,3.68,0,0,0-.67,1.27,5.15,5.15,0,0,0-.23,1.53,5.32,5.32,0,0,0,.23,1.54,3.64,3.64,0,0,0,.67,1.28,3.19,3.19,0,0,0,2.58,1.2Z" fill="#e52823"/><path d="M232.91,142.85a7.8,7.8,0,0,1-2.7-.44,6.59,6.59,0,0,1-2.17-1.36l1.22-1.9a3.78,3.78,0,0,0,1.63,1.19,5.77,5.77,0,0,0,2,.36,3.48,3.48,0,0,0,2.5-.86,3.3,3.3,0,0,0,.9-2.49V136a6.38,6.38,0,0,1-1.73,1.31,5.27,5.27,0,0,1-2.52.59,3.92,3.92,0,0,1-2.92-1,3.87,3.87,0,0,1-1-2.84v-8.15h2.63v7.18a2.4,2.4,0,0,0,.66,1.94,2.81,2.81,0,0,0,1.79.53,3.5,3.5,0,0,0,1.81-.48,4.43,4.43,0,0,0,1.26-1.09v-8.08h2.63v11.48a6,6,0,0,1-.45,2.39,4.66,4.66,0,0,1-1.26,1.72,5.65,5.65,0,0,1-1.92,1A8,8,0,0,1,232.91,142.85Z" fill="#e52823"/><path d="M246.49,138.25a8.21,8.21,0,0,1-2.9-.49,6.4,6.4,0,0,1-2.28-1.41l1.2-1.88a5.1,5.1,0,0,0,.78.63,6.3,6.3,0,0,0,1,.54,7.11,7.11,0,0,0,1.13.37,5.26,5.26,0,0,0,1.17.14,3.06,3.06,0,0,0,1.8-.44,1.37,1.37,0,0,0,.6-1.16,1,1,0,0,0-.54-.9,5.38,5.38,0,0,0-1.35-.5c-.54-.14-1.13-.27-1.76-.4a7.93,7.93,0,0,1-1.76-.6,3.93,3.93,0,0,1-1.36-1.08,2.93,2.93,0,0,1-.53-1.85,3.23,3.23,0,0,1,.31-1.41,3.37,3.37,0,0,1,.91-1.16,4.31,4.31,0,0,1,1.49-.79,6.65,6.65,0,0,1,2-.29,7.05,7.05,0,0,1,2.71.48,6.36,6.36,0,0,1,2,1.2L250,129.1a4.57,4.57,0,0,0-1.48-1,5.1,5.1,0,0,0-2.09-.42,2.78,2.78,0,0,0-1.64.42,1.3,1.3,0,0,0-.59,1.08.87.87,0,0,0,.54.8,5.89,5.89,0,0,0,1.35.46l1.76.4a7.07,7.07,0,0,1,1.76.63,3.69,3.69,0,0,1,1.35,1.12,3.09,3.09,0,0,1,.54,1.91,3.57,3.57,0,0,1-.32,1.5,3.2,3.2,0,0,1-1,1.2,4.54,4.54,0,0,1-1.57.79A7.43,7.43,0,0,1,246.49,138.25Z" fill="#e52823"/></g></g></svg>