<svg xmlns="http://www.w3.org/2000/svg" viewBox="0 0 300 250"><g id="Layer_2" data-name="Layer 2"><g id="rec"><rect width="300" height="250" fill="none"/></g><g id="sub"><path d="M19.15,102.36a6.59,6.59,0,0,1-2.77-.52,5.49,5.49,0,0,1-1.92-1.43l1.27-1.54a4.25,4.25,0,0,0,3.4,1.52A2.7,2.7,0,0,0,21,99.74a2.25,2.25,0,0,0,0-3.23,2.74,2.74,0,0,0-1.86-.61,4.18,4.18,0,0,0-1.48.26,3.92,3.92,0,0,0-1.3.83l-1.57-.46V89.46h8.3v2H17.06v3.63a4.24,4.24,0,0,1,1.22-.76A4,4,0,0,1,19.93,94a4.5,4.5,0,0,1,1.54.27,3.77,3.77,0,0,1,2.19,2.08A4.3,4.3,0,0,1,24,98.07a4.26,4.26,0,0,1-.36,1.78,4.14,4.14,0,0,1-1,1.35,4.57,4.57,0,0,1-1.53.86A6.15,6.15,0,0,1,19.15,102.36Z" fill="#e52823"/><path d="M30.64,102.36a4.34,4.34,0,0,1-2.3-.58,4.63,4.63,0,0,1-1.57-1.51,6.61,6.61,0,0,1-.9-2.1,9.37,9.37,0,0,1-.3-2.36,9.51,9.51,0,0,1,.3-2.37,6.61,6.61,0,0,1,.9-2.1,4.7,4.7,0,0,1,1.57-1.5,4.91,4.91,0,0,1,4.59,0,4.7,4.7,0,0,1,1.57,1.5,6.61,6.61,0,0,1,.9,2.1,9.51,9.51,0,0,1,.3,2.37,9.37,9.37,0,0,1-.3,2.36,6.61,6.61,0,0,1-.9,2.1,4.63,4.63,0,0,1-1.57,1.51A4.31,4.31,0,0,1,30.64,102.36Zm0-2A2.27,2.27,0,0,0,32,100a2.83,2.83,0,0,0,.86-1,5.37,5.37,0,0,0,.48-1.45,10.17,10.17,0,0,0,0-3.48,4.75,4.75,0,0,0-.47-1.45,2.81,2.81,0,0,0-.86-1,2.25,2.25,0,0,0-1.32-.37,2.22,2.22,0,0,0-1.31.37,2.81,2.81,0,0,0-.86,1A5.37,5.37,0,0,0,28,94.07a10.17,10.17,0,0,0,0,3.48A5.37,5.37,0,0,0,28.47,99a2.93,2.93,0,0,0,.86,1A2.23,2.23,0,0,0,30.64,100.39Z" fill="#e52823"/><path d="M40.18,95.56a3.32,3.32,0,0,1-1.28-.24,2.86,2.86,0,0,1-1-.66,3,3,0,0,1-.64-1A3.13,3.13,0,0,1,37,92.43a3.23,3.23,0,0,1,.23-1.25,2.93,2.93,0,0,1,1.64-1.67,3.32,3.32,0,0,1,1.28-.24,3.37,3.37,0,0,1,1.29.24,2.71,2.71,0,0,1,1,.67,3.06,3.06,0,0,1,.64,1,3.43,3.43,0,0,1,.23,1.25,3.32,3.32,0,0,1-.23,1.23,3.17,3.17,0,0,1-.64,1,2.69,2.69,0,0,1-1,.66A3.37,3.37,0,0,1,40.18,95.56Zm0-1.27a1.57,1.57,0,0,0,1.22-.52,1.93,1.93,0,0,0,.47-1.35A2,2,0,0,0,41.4,91,1.67,1.67,0,0,0,39,91a2,2,0,0,0-.47,1.39A1.93,1.93,0,0,0,39,93.77,1.55,1.55,0,0,0,40.18,94.29ZM39,102.14,47,89.46h1.29l-8.11,12.68Zm8,.22a3.31,3.31,0,0,1-1.28-.23,3,3,0,0,1-1.64-1.66,3.32,3.32,0,0,1-.23-1.23A3.37,3.37,0,0,1,44.08,98a3,3,0,0,1,.64-1,3,3,0,0,1,1-.66A3.32,3.32,0,0,1,47,96.09a3.37,3.37,0,0,1,1.29.24,3.07,3.07,0,0,1,1,.66,3,3,0,0,1,.65,1,3.37,3.37,0,0,1,.23,1.24,3.32,3.32,0,0,1-.23,1.23,2.89,2.89,0,0,1-.65,1,2.94,2.94,0,0,1-1,.67A3.37,3.37,0,0,1,47,102.36Zm0-1.27a1.59,1.59,0,0,0,1.22-.51,1.88,1.88,0,0,0,.47-1.35,2,2,0,0,0-.47-1.38A1.57,1.57,0,0,0,47,97.33a1.55,1.55,0,0,0-1.21.52,2,2,0,0,0-.48,1.38,1.89,1.89,0,0,0,.48,1.35A1.57,1.57,0,0,0,47,101.09Z" fill="#e52823"/><path d="M61,102.36a4.78,4.78,0,0,1-2-.39,4.17,4.17,0,0,1-1.48-1,4.61,4.61,0,0,1-.94-1.53,5.57,5.57,0,0,1,0-3.72,4.42,4.42,0,0,1,.94-1.53,4.17,4.17,0,0,1,1.48-1,5.32,5.32,0,0,1,4,0,4.4,4.4,0,0,1,2.41,2.57,5.41,5.41,0,0,1,0,3.72,4.43,4.43,0,0,1-.93,1.53A4.26,4.26,0,0,1,63,102,4.79,4.79,0,0,1,61,102.36Zm0-1.76a2.46,2.46,0,0,0,2-.91,2.93,2.93,0,0,0,.5-1,3.86,3.86,0,0,0,.18-1.17,3.71,3.71,0,0,0-.18-1.16,2.88,2.88,0,0,0-.5-1,2.34,2.34,0,0,0-.83-.66A2.45,2.45,0,0,0,61,94.5a2.43,2.43,0,0,0-1.12.25,2.34,2.34,0,0,0-.83.66,2.92,2.92,0,0,0-.52,1,4,4,0,0,0-.17,1.16,4.19,4.19,0,0,0,.17,1.17,3,3,0,0,0,.52,1,2.45,2.45,0,0,0,.83.66A2.43,2.43,0,0,0,61,100.6Z" fill="#e52823"/><path d="M68.28,102.14V94.69H66.76V93h1.52v-.51a3.17,3.17,0,0,1,.82-2.36,2.81,2.81,0,0,1,2.07-.82,3.35,3.35,0,0,1,1.62.35l-.44,1.5a1.44,1.44,0,0,0-.8-.21,1.17,1.17,0,0,0-.94.38,1.73,1.73,0,0,0-.33,1.16V93h1.86v1.73H70.28v7.45Z" fill="#e52823"/><path d="M74.15,102.14V94.69H72.63V93h1.52v-.51A3.21,3.21,0,0,1,75,90.09,2.83,2.83,0,0,1,77,89.27a3.35,3.35,0,0,1,1.62.35l-.44,1.5a1.44,1.44,0,0,0-.8-.21,1.17,1.17,0,0,0-.94.38,1.73,1.73,0,0,0-.33,1.16V93H78v1.73H76.15v7.45Z" fill="#e52823"/><path d="M90.89,102.14v-1.26A3.94,3.94,0,0,1,89.61,102a3.56,3.56,0,0,1-1.66.39,4,4,0,0,1-1.63-.32,3.44,3.44,0,0,1-1.29-1,4.66,4.66,0,0,1-.85-1.52,6.92,6.92,0,0,1,0-4A4.76,4.76,0,0,1,85,94a3.89,3.89,0,0,1,1.28-1A4,4,0,0,1,88,92.73a3.59,3.59,0,0,1,2.94,1.5V93h2v9.18Zm-2.35-1.54a2.45,2.45,0,0,0,.69-.1,2.93,2.93,0,0,0,.66-.26,4.07,4.07,0,0,0,.57-.39,2,2,0,0,0,.43-.49V95.73a2.32,2.32,0,0,0-.43-.47,2.91,2.91,0,0,0-.57-.4,3.51,3.51,0,0,0-.66-.27,2.84,2.84,0,0,0-.69-.09,2.39,2.39,0,0,0-1.09.23,2.47,2.47,0,0,0-.81.62,2.8,2.8,0,0,0-.53,1,4.06,4.06,0,0,0-.18,1.23,4,4,0,0,0,.18,1.22,2.75,2.75,0,0,0,.53,1,2.28,2.28,0,0,0,.81.64A2.53,2.53,0,0,0,88.54,100.6Z" fill="#e52823"/><path d="M97.83,102.36a2.38,2.38,0,0,1-1.76-.6,2.43,2.43,0,0,1-.6-1.77V89.46h2v10a1.38,1.38,0,0,0,.21.78.76.76,0,0,0,.66.32,1.32,1.32,0,0,0,.53-.11,1,1,0,0,0,.36-.23l.48,1.52a2.23,2.23,0,0,1-.72.41A3.23,3.23,0,0,1,97.83,102.36Z" fill="#e52823"/><path d="M103.26,102.36a2.39,2.39,0,0,1-1.76-.6,2.43,2.43,0,0,1-.6-1.77V89.46h2v10a1.31,1.31,0,0,0,.22.78.73.73,0,0,0,.65.32,1.41,1.41,0,0,0,.54-.11,1.18,1.18,0,0,0,.36-.23l.47,1.52a2.23,2.23,0,0,1-.72.41A3.19,3.19,0,0,1,103.26,102.36Z" fill="#e52823"/><path d="M111.24,102.14V93h2v1.33a4.57,4.57,0,0,1,1.31-1.11,3.27,3.27,0,0,1,1.67-.45v2a2.8,2.8,0,0,0-.61-.06,2.32,2.32,0,0,0-.67.1,3.38,3.38,0,0,0-.69.26,3.13,3.13,0,0,0-.6.4,2,2,0,0,0-.41.48v6.25Z" fill="#e52823"/><path d="M122,102.36a4.78,4.78,0,0,1-2-.39,4.26,4.26,0,0,1-1.48-1,4.43,4.43,0,0,1-.93-1.53,5.41,5.41,0,0,1,0-3.72A4.4,4.4,0,0,1,120,93.11a5.32,5.32,0,0,1,4,0,4.4,4.4,0,0,1,2.41,2.57,5.41,5.41,0,0,1,0,3.72,4.43,4.43,0,0,1-.93,1.53,4.26,4.26,0,0,1-1.48,1A4.79,4.79,0,0,1,122,102.36Zm0-1.76a2.43,2.43,0,0,0,1.14-.25,2.45,2.45,0,0,0,.83-.66,2.93,2.93,0,0,0,.5-1,3.86,3.86,0,0,0,.18-1.17,3.71,3.71,0,0,0-.18-1.16,2.88,2.88,0,0,0-.5-1,2.34,2.34,0,0,0-.83-.66,2.54,2.54,0,0,0-3.09.66,2.92,2.92,0,0,0-.52,1,4,4,0,0,0-.17,1.16,4.19,4.19,0,0,0,.17,1.17,3,3,0,0,0,.52,1,2.55,2.55,0,0,0,.83.66A2.43,2.43,0,0,0,122,100.6Z" fill="#e52823"/><path d="M133.68,102.36a3.5,3.5,0,0,1-1.63-.39,4,4,0,0,1-1.32-1.11v4.77h-2V93h2v1.25A3.93,3.93,0,0,1,132,93.13a3.46,3.46,0,0,1,1.67-.4,4.12,4.12,0,0,1,1.63.32,3.73,3.73,0,0,1,1.29.94,4.46,4.46,0,0,1,.84,1.52,6.8,6.8,0,0,1,0,4.06,4.32,4.32,0,0,1-.84,1.51,3.76,3.76,0,0,1-1.29,1A4,4,0,0,1,133.68,102.36Zm-.59-1.76a2.33,2.33,0,0,0,1.9-.86,3.81,3.81,0,0,0,0-4.4,2.35,2.35,0,0,0-1.9-.84,2.9,2.9,0,0,0-1.36.35,2.67,2.67,0,0,0-1,.86v3.63a2.53,2.53,0,0,0,.43.5,3.41,3.41,0,0,0,.57.4,3,3,0,0,0,.67.26A2.35,2.35,0,0,0,133.09,100.6Z" fill="#e52823"/><path d="M144,102.36a5.26,5.26,0,0,1-1.93-.34,4.24,4.24,0,0,1-1.52-1,4.37,4.37,0,0,1-1-1.53,5.2,5.2,0,0,1-.36-2,5.09,5.09,0,0,1,.34-1.87,4.62,4.62,0,0,1,1-1.53,4.53,4.53,0,0,1,1.47-1,4.64,4.64,0,0,1,1.88-.38,4.52,4.52,0,0,1,1.87.37,4.08,4.08,0,0,1,1.42,1,4.67,4.67,0,0,1,.9,1.57,6.12,6.12,0,0,1,.32,2v.49h-7.07a3.1,3.1,0,0,0,.27,1,2.82,2.82,0,0,0,.59.81,2.78,2.78,0,0,0,.89.55,3.24,3.24,0,0,0,1.16.2,4,4,0,0,0,1.4-.27,3.24,3.24,0,0,0,1.22-.76l.91,1.32a4.77,4.77,0,0,1-1.67,1A6.08,6.08,0,0,1,144,102.36Zm2.43-5.58a3.26,3.26,0,0,0-.18-.83,2.45,2.45,0,0,0-2.43-1.58,2.73,2.73,0,0,0-1.1.21,2.59,2.59,0,0,0-.79.57,2.88,2.88,0,0,0-.48.78,2.67,2.67,0,0,0-.19.85Z" fill="#e52823"/><path d="M158,102.36a2.37,2.37,0,0,1-1.77-.6,2.47,2.47,0,0,1-.59-1.77v-5.3h-1.52V93h1.52V90.45h2V93h1.86v1.73h-1.86V99.5a1.31,1.31,0,0,0,.22.78.73.73,0,0,0,.65.32,1.24,1.24,0,0,0,.52-.11,1.18,1.18,0,0,0,.36-.23l.47,1.52a2.23,2.23,0,0,1-.72.41A3.15,3.15,0,0,1,158,102.36Z" fill="#e52823"/><path d="M165.45,102.36a4.79,4.79,0,0,1-2-.39,4.26,4.26,0,0,1-1.48-1,4.43,4.43,0,0,1-.93-1.53,5.41,5.41,0,0,1,0-3.72,4.4,4.4,0,0,1,2.41-2.57,5.32,5.32,0,0,1,3.95,0,4.4,4.4,0,0,1,2.41,2.57,5.41,5.41,0,0,1,0,3.72,4.43,4.43,0,0,1-.93,1.53,4.26,4.26,0,0,1-1.48,1A4.78,4.78,0,0,1,165.45,102.36Zm0-1.76a2.45,2.45,0,0,0,1.14-.25,2.42,2.42,0,0,0,.82-.66,3.15,3.15,0,0,0,.51-1,4.19,4.19,0,0,0,.17-1.17,4,4,0,0,0-.17-1.16,3.09,3.09,0,0,0-.51-1,2.3,2.3,0,0,0-.82-.66,2.45,2.45,0,0,0-1.14-.25,2.37,2.37,0,0,0-1.12.25,2.47,2.47,0,0,0-.84.66,2.73,2.73,0,0,0-.51,1,3.71,3.71,0,0,0-.18,1.16,3.86,3.86,0,0,0,.18,1.17,2.78,2.78,0,0,0,.51,1,2.59,2.59,0,0,0,.84.66A2.37,2.37,0,0,0,165.45,100.6Z" fill="#e52823"/><path d="M175.8,105.86a5.88,5.88,0,0,1-2.05-.33,4.84,4.84,0,0,1-1.65-1l.93-1.44a2.74,2.74,0,0,0,1.23.9,4.51,4.51,0,0,0,1.54.28,2.61,2.61,0,0,0,1.9-.66,2.49,2.49,0,0,0,.69-1.89v-1.06a4.75,4.75,0,0,1-1.33,1,3.9,3.9,0,0,1-1.9.45,3,3,0,0,1-2.23-.75,3,3,0,0,1-.74-2.16V93h2v5.45a1.79,1.79,0,0,0,.5,1.47,2.06,2.06,0,0,0,1.36.41,2.64,2.64,0,0,0,1.38-.37,3.29,3.29,0,0,0,1-.82V93h2v8.72a4.46,4.46,0,0,1-.34,1.81,3.58,3.58,0,0,1-1,1.32,4.18,4.18,0,0,1-1.46.78A5.84,5.84,0,0,1,175.8,105.86Z" fill="#e52823"/><path d="M186.12,102.36a6.29,6.29,0,0,1-2.21-.37,4.81,4.81,0,0,1-1.73-1.07l.92-1.42a3.69,3.69,0,0,0,.59.47,4.53,4.53,0,0,0,.76.41,4.81,4.81,0,0,0,.86.28,3.85,3.85,0,0,0,.88.11,2.33,2.33,0,0,0,1.37-.33,1,1,0,0,0,.46-.89.74.74,0,0,0-.41-.68,4.06,4.06,0,0,0-1-.38l-1.34-.31a5.87,5.87,0,0,1-1.34-.45,2.94,2.94,0,0,1-1-.82,2.2,2.2,0,0,1-.41-1.4,2.47,2.47,0,0,1,.24-1.08,2.64,2.64,0,0,1,.69-.88,3.38,3.38,0,0,1,1.13-.6,4.92,4.92,0,0,1,1.55-.22,5.42,5.42,0,0,1,2.06.36,5.07,5.07,0,0,1,1.49.91l-.83,1.41a3.64,3.64,0,0,0-1.13-.78,3.93,3.93,0,0,0-1.59-.32,2.16,2.16,0,0,0-1.25.32,1,1,0,0,0-.44.82.66.66,0,0,0,.41.61,4.64,4.64,0,0,0,1,.35l1.34.3a5.76,5.76,0,0,1,1.34.48,2.94,2.94,0,0,1,1,.85,2.39,2.39,0,0,1,.41,1.46,2.79,2.79,0,0,1-.25,1.14,2.54,2.54,0,0,1-.73.91,3.75,3.75,0,0,1-1.2.6A5.78,5.78,0,0,1,186.12,102.36Z" fill="#e52823"/></g></g></svg>