<svg xmlns="http://www.w3.org/2000/svg" viewBox="0 0 728 90"><g id="Layer_2" data-name="Layer 2"><g id="sub"><path d="M275.85,44.27V30.93h6.56a4.6,4.6,0,0,1,1.63.27,3.46,3.46,0,0,1,1.19.73A3,3,0,0,1,286,33a3.59,3.59,0,0,1,.25,1.31,3.41,3.41,0,0,1-.19,1.14,3.21,3.21,0,0,1-.51.91,2.93,2.93,0,0,1-1.62,1,2.68,2.68,0,0,1,1,.37,3.34,3.34,0,0,1,.82.73,3.72,3.72,0,0,1,.55,1,3.54,3.54,0,0,1,.2,1.16,4.24,4.24,0,0,1-.25,1.45,3.39,3.39,0,0,1-.74,1.15,3.51,3.51,0,0,1-1.22.76,4.84,4.84,0,0,1-1.67.27Zm6.1-7.86a1.87,1.87,0,0,0,1.38-.48,1.63,1.63,0,0,0,.48-1.22,1.67,1.67,0,0,0-.48-1.22A1.87,1.87,0,0,0,282,33h-3.76v3.4Zm.1,5.78a2.11,2.11,0,0,0,1.49-.49,1.76,1.76,0,0,0,.53-1.36,1.84,1.84,0,0,0-.51-1.3,2,2,0,0,0-1.51-.55h-3.86v3.7Z" fill="#e52823"/><path d="M295.29,44.27V43a5,5,0,0,1-1.39,1,4.2,4.2,0,0,1-2,.47,3.14,3.14,0,0,1-2.34-.79,3.1,3.1,0,0,1-.78-2.27V34.61h2.1v6.06a1.88,1.88,0,0,0,.53,1.55,2.18,2.18,0,0,0,1.43.43,2.79,2.79,0,0,0,1.45-.39,3.52,3.52,0,0,0,1-.87V34.61h2.1v9.66Z" fill="#e52823"/><path d="M303.91,48.19a6.19,6.19,0,0,1-2.16-.35A5.19,5.19,0,0,1,300,46.75l1-1.52a2.86,2.86,0,0,0,1.3,1,4.69,4.69,0,0,0,1.62.29,2.78,2.78,0,0,0,2-.69,2.62,2.62,0,0,0,.72-2V42.67a5,5,0,0,1-1.39,1,4.2,4.2,0,0,1-2,.47,3.14,3.14,0,0,1-2.34-.79,3.1,3.1,0,0,1-.78-2.27V34.61h2.1v5.74a1.88,1.88,0,0,0,.53,1.55,2.18,2.18,0,0,0,1.43.43,2.79,2.79,0,0,0,1.45-.39,3.52,3.52,0,0,0,1-.87V34.61h2.1v9.18a4.75,4.75,0,0,1-.36,1.91,3.8,3.8,0,0,1-1,1.38,4.53,4.53,0,0,1-1.53.83A6.23,6.23,0,0,1,303.91,48.19Z" fill="#e52823"/><path d="M319.09,44.27V34l-2.18,2.28-1.36-1.42,3.84-3.88h2V44.27Z" fill="#e52823"/><path d="M326.81,43.51a3.88,3.88,0,0,1-.51,1.94A4.46,4.46,0,0,1,325,46.93l-1-.78a2.5,2.5,0,0,0,.48-.36c.15-.15.3-.3.44-.47a4.21,4.21,0,0,0,.34-.52,2,2,0,0,0,.18-.53l-.14,0-.2,0a1.09,1.09,0,0,1-.84-.36,1.28,1.28,0,0,1-.34-.92,1.34,1.34,0,0,1,.39-1,1.28,1.28,0,0,1,1-.4,1.49,1.49,0,0,1,1.08.47A1.87,1.87,0,0,1,326.81,43.51Z" fill="#e52823"/><path d="M340.54,44.53a7,7,0,0,1-2.62-.49,6.63,6.63,0,0,1-2.17-1.4,6.86,6.86,0,0,1-1.47-2.19,7.7,7.7,0,0,1,0-5.69,6.58,6.58,0,0,1,1.5-2.17A6.89,6.89,0,0,1,338,31.2a7.47,7.47,0,0,1,2.73-.49,6.65,6.65,0,0,1,1.79.22,6.45,6.45,0,0,1,1.47.59,5.5,5.5,0,0,1,1.18.88,7.57,7.57,0,0,1,.92,1.07l-1.9,1.1a4.34,4.34,0,0,0-1.44-1.27,4,4,0,0,0-2-.51,4.65,4.65,0,0,0-1.84.36,4.33,4.33,0,0,0-1.45,1,5,5,0,0,0-1,1.52,5.33,5.33,0,0,0-.34,1.95,5.2,5.2,0,0,0,.34,1.92,5.14,5.14,0,0,0,1,1.54,4.35,4.35,0,0,0,1.45,1,4.65,4.65,0,0,0,1.84.36,4.19,4.19,0,0,0,1.51-.26,3.62,3.62,0,0,0,1.15-.72,3.72,3.72,0,0,0,.79-1,5.37,5.37,0,0,0,.46-1.27H339.9V37.07h7.28a9.87,9.87,0,0,1-.45,3.08,6.57,6.57,0,0,1-1.3,2.34A5.76,5.76,0,0,1,343.35,44,7.08,7.08,0,0,1,340.54,44.53Z" fill="#e52823"/><path d="M353.08,44.51a5.59,5.59,0,0,1-2-.36,4.54,4.54,0,0,1-1.6-1,5,5,0,0,1-1.05-1.61,5.58,5.58,0,0,1-.38-2.08,5.42,5.42,0,0,1,.36-2,4.84,4.84,0,0,1,1-1.61,5,5,0,0,1,1.55-1.08,5.11,5.11,0,0,1,3.94,0,4.21,4.21,0,0,1,1.5,1.09,4.77,4.77,0,0,1,.95,1.66,6.42,6.42,0,0,1,.33,2.1v.52h-7.44a3.23,3.23,0,0,0,.29,1,3,3,0,0,0,.62.85,2.76,2.76,0,0,0,.93.58,3.36,3.36,0,0,0,1.22.21,4.16,4.16,0,0,0,1.48-.28,3.4,3.4,0,0,0,1.28-.8l1,1.38a4.82,4.82,0,0,1-1.76,1.06A6.44,6.44,0,0,1,353.08,44.51Zm2.56-5.88a2.8,2.8,0,0,0-.69-1.69,2.49,2.49,0,0,0-.83-.61,2.79,2.79,0,0,0-1.22-.24,2.82,2.82,0,0,0-1.16.23,2.43,2.43,0,0,0-.83.6,2.81,2.81,0,0,0-.51.82,2.92,2.92,0,0,0-.2.89Z" fill="#e52823"/><path d="M362.66,44.51a2.49,2.49,0,0,1-1.86-.64,2.59,2.59,0,0,1-.62-1.86V36.43h-1.6V34.61h1.6V32h2.1v2.64h2v1.82h-2v5.06a1.45,1.45,0,0,0,.23.83.8.8,0,0,0,.69.33,1.38,1.38,0,0,0,.55-.11,1,1,0,0,0,.37-.25l.5,1.6a2.27,2.27,0,0,1-.76.44A3.45,3.45,0,0,1,362.66,44.51Z" fill="#e52823"/><path d="M374.2,44.51a2.49,2.49,0,0,1-1.86-.64,2.59,2.59,0,0,1-.62-1.86V36.43h-1.6V34.61h1.6V32h2.1v2.64h2v1.82h-2v5.06a1.45,1.45,0,0,0,.23.83.8.8,0,0,0,.69.33,1.38,1.38,0,0,0,.55-.11,1,1,0,0,0,.37-.25l.5,1.6a2.27,2.27,0,0,1-.76.44A3.45,3.45,0,0,1,374.2,44.51Z" fill="#e52823"/><path d="M384.2,44.27V38.19a1.88,1.88,0,0,0-.52-1.55,2.24,2.24,0,0,0-1.42-.41,2.75,2.75,0,0,0-1.47.4,3.7,3.7,0,0,0-1,.88v6.76h-2.1V30.93h2.1v5a4.58,4.58,0,0,1,.59-.56,5.19,5.19,0,0,1,.78-.5,4.56,4.56,0,0,1,.94-.35,4.28,4.28,0,0,1,1.09-.13,3.18,3.18,0,0,1,2.34.78,3.09,3.09,0,0,1,.78,2.28v6.84Z" fill="#e52823"/><path d="M393.5,44.51a5.59,5.59,0,0,1-2-.36,4.54,4.54,0,0,1-1.6-1,5,5,0,0,1-1.05-1.61,5.58,5.58,0,0,1-.38-2.08,5.42,5.42,0,0,1,.36-2,4.84,4.84,0,0,1,1-1.61,5,5,0,0,1,1.55-1.08,5.11,5.11,0,0,1,3.94,0,4.21,4.21,0,0,1,1.5,1.09,4.77,4.77,0,0,1,.95,1.66,6.42,6.42,0,0,1,.33,2.1v.52h-7.44a3.23,3.23,0,0,0,.29,1,3,3,0,0,0,.62.85,2.76,2.76,0,0,0,.93.58,3.36,3.36,0,0,0,1.22.21,4.16,4.16,0,0,0,1.48-.28,3.4,3.4,0,0,0,1.28-.8l1,1.38a4.82,4.82,0,0,1-1.76,1.06A6.44,6.44,0,0,1,393.5,44.51Zm2.56-5.88a2.8,2.8,0,0,0-.69-1.69,2.49,2.49,0,0,0-.83-.61,2.79,2.79,0,0,0-1.22-.24,2.82,2.82,0,0,0-1.16.23,2.43,2.43,0,0,0-.83.6,2.81,2.81,0,0,0-.51.82,2.92,2.92,0,0,0-.2.89Z" fill="#e52823"/><path d="M275.43,64.27V62.41c1.29-1,2.39-1.83,3.31-2.56a28,28,0,0,0,2.24-2,7.41,7.41,0,0,0,1.27-1.6,3.08,3.08,0,0,0,.4-1.45,1.81,1.81,0,0,0-.21-.9,2.09,2.09,0,0,0-.55-.63,2.34,2.34,0,0,0-.78-.37,3.48,3.48,0,0,0-.9-.12,4.64,4.64,0,0,0-2.07.43,4.74,4.74,0,0,0-1.53,1.15l-1.36-1.52a5.46,5.46,0,0,1,2.21-1.61,7.25,7.25,0,0,1,2.73-.53A6.25,6.25,0,0,1,282,51a4.68,4.68,0,0,1,1.54.79,3.68,3.68,0,0,1,1.44,3,4.31,4.31,0,0,1-.41,1.82,8.76,8.76,0,0,1-1.17,1.78,18.52,18.52,0,0,1-1.83,1.82c-.72.62-1.52,1.27-2.41,1.95h5.9v2.08Z" fill="#e52823"/><path d="M294.23,64.27v-6a2,2,0,0,0-.53-1.57,2.2,2.2,0,0,0-1.43-.43,2.66,2.66,0,0,0-1.45.4,3.81,3.81,0,0,0-1,.88v6.76h-2.1V54.61h2.1v1.3a4,4,0,0,1,.59-.56,4.1,4.1,0,0,1,.79-.5,4.66,4.66,0,0,1,.95-.35,4.23,4.23,0,0,1,1.09-.13,2.78,2.78,0,0,1,3.12,3.1v6.8Z" fill="#e52823"/><path d="M305.85,64.27V63a4.33,4.33,0,0,1-1.35,1.14,3.68,3.68,0,0,1-1.75.42,4.18,4.18,0,0,1-1.71-.34,3.73,3.73,0,0,1-1.36-1,4.68,4.68,0,0,1-.89-1.6,6.46,6.46,0,0,1-.32-2.14,6.34,6.34,0,0,1,.32-2.1,4.68,4.68,0,0,1,.89-1.6,3.81,3.81,0,0,1,1.35-1,4.2,4.2,0,0,1,1.72-.35,3.78,3.78,0,0,1,1.72.4A4,4,0,0,1,305.85,56v-5H308V64.27Zm-2.48-1.62a2.67,2.67,0,0,0,.73-.1,3.53,3.53,0,0,0,.7-.28,3.73,3.73,0,0,0,.6-.41,2.17,2.17,0,0,0,.45-.51V57.53a3,3,0,0,0-.45-.5,3.22,3.22,0,0,0-.6-.42,3.53,3.53,0,0,0-.7-.28,2.67,2.67,0,0,0-.73-.1,2.58,2.58,0,0,0-1.14.24,2.54,2.54,0,0,0-.86.66,2.82,2.82,0,0,0-.55,1,4.47,4.47,0,0,0,0,2.58,3,3,0,0,0,.55,1,2.45,2.45,0,0,0,.86.67A2.58,2.58,0,0,0,303.37,62.65Z" fill="#e52823"/><path d="M320.55,64.51a6.92,6.92,0,0,1-2.92-.55,5.77,5.77,0,0,1-2-1.51L317,60.83a4.45,4.45,0,0,0,3.58,1.6,2.86,2.86,0,0,0,2-.68,2.22,2.22,0,0,0,.73-1.68,2.19,2.19,0,0,0-.72-1.72,2.84,2.84,0,0,0-2-.64A4.41,4.41,0,0,0,319,58a4,4,0,0,0-1.36.87L316,58.37V50.93h8.74V53h-6.4v3.82a4.52,4.52,0,0,1,1.28-.8,4.25,4.25,0,0,1,1.74-.34A4.69,4.69,0,0,1,323,56a4,4,0,0,1,1.37.84,4.24,4.24,0,0,1,.94,1.35,4.54,4.54,0,0,1,.35,1.82,4.49,4.49,0,0,1-.38,1.87,4.38,4.38,0,0,1-1,1.42,4.79,4.79,0,0,1-1.61.91A6.49,6.49,0,0,1,320.55,64.51Z" fill="#e52823"/><path d="M332.65,64.51a4.57,4.57,0,0,1-2.43-.61,5,5,0,0,1-1.65-1.59,7,7,0,0,1-.95-2.21,10.16,10.16,0,0,1,0-5,7,7,0,0,1,.95-2.21,4.89,4.89,0,0,1,1.65-1.58,5.18,5.18,0,0,1,4.84,0,5.08,5.08,0,0,1,1.65,1.58,7.46,7.46,0,0,1,1,2.21,10.16,10.16,0,0,1,0,5,7.46,7.46,0,0,1-1,2.21,5.22,5.22,0,0,1-1.65,1.59A4.57,4.57,0,0,1,332.65,64.51Zm0-2.08A2.31,2.31,0,0,0,334,62a2.94,2.94,0,0,0,.91-1.06,5.85,5.85,0,0,0,.5-1.53,10.88,10.88,0,0,0,0-3.66,5.19,5.19,0,0,0-.5-1.53,3,3,0,0,0-.91-1,2.38,2.38,0,0,0-1.38-.39,2.34,2.34,0,0,0-1.38.39,2.83,2.83,0,0,0-.91,1,4.92,4.92,0,0,0-.51,1.53,10.55,10.55,0,0,0,0,3.66,4.92,4.92,0,0,0,.51,1.53,2.94,2.94,0,0,0,.91,1.06A2.28,2.28,0,0,0,332.65,62.43Z" fill="#e52823"/><path d="M342.69,57.35a3.51,3.51,0,0,1-1.36-.25,3.13,3.13,0,0,1-1-.7,3.25,3.25,0,0,1-.69-1,3.66,3.66,0,0,1-.23-1.3,3.76,3.76,0,0,1,.23-1.31,3.19,3.19,0,0,1,.69-1.06,3.13,3.13,0,0,1,1-.7,3.51,3.51,0,0,1,1.36-.25,3.58,3.58,0,0,1,1.36.25,3.07,3.07,0,0,1,1.05.7,3.48,3.48,0,0,1,.67,1.06,3.55,3.55,0,0,1,.24,1.31,3.46,3.46,0,0,1-.24,1.3,3.56,3.56,0,0,1-.67,1,3.07,3.07,0,0,1-1.05.7A3.58,3.58,0,0,1,342.69,57.35Zm0-1.34a1.68,1.68,0,0,0,1.28-.54,2.06,2.06,0,0,0,.5-1.43,2.12,2.12,0,0,0-.5-1.46,1.65,1.65,0,0,0-1.28-.55,1.61,1.61,0,0,0-1.26.55,2.07,2.07,0,0,0-.5,1.46,2,2,0,0,0,.5,1.43A1.63,1.63,0,0,0,342.69,56Zm-1.3,8.26,8.52-13.34h1.36l-8.54,13.34Zm8.48.24a3.42,3.42,0,0,1-1.35-.25,3.1,3.1,0,0,1-1.73-1.75,3.22,3.22,0,0,1-.24-1.29,3.35,3.35,0,0,1,.24-1.31,3.07,3.07,0,0,1,.68-1,2.93,2.93,0,0,1,1-.7,3.42,3.42,0,0,1,1.35-.25,3.49,3.49,0,0,1,1.35.25,3.12,3.12,0,0,1,1,.7,3.22,3.22,0,0,1,.68,1,3.76,3.76,0,0,1,.24,1.31,3.61,3.61,0,0,1-.24,1.29,3.22,3.22,0,0,1-.68,1.05,3.27,3.27,0,0,1-1,.7A3.49,3.49,0,0,1,349.87,64.51Zm0-1.34a1.68,1.68,0,0,0,1.28-.54,2,2,0,0,0,.5-1.42,2.09,2.09,0,0,0-.5-1.45,1.65,1.65,0,0,0-1.28-.55,1.67,1.67,0,0,0-1.29.55,2.09,2.09,0,0,0-.5,1.45,2,2,0,0,0,.5,1.42A1.7,1.7,0,0,0,349.87,63.17Z" fill="#e52823"/><path d="M364.65,64.51a5.16,5.16,0,0,1-2.09-.41A4.74,4.74,0,0,1,361,63a5,5,0,0,1-1-1.61,5.82,5.82,0,0,1,0-3.92,5,5,0,0,1,1-1.61,4.71,4.71,0,0,1,1.56-1.09,5.16,5.16,0,0,1,2.09-.4,5.06,5.06,0,0,1,2.07.4,4.51,4.51,0,0,1,1.56,1.09,4.65,4.65,0,0,1,1,1.61,5.82,5.82,0,0,1,0,3.92,4.65,4.65,0,0,1-1,1.61,4.54,4.54,0,0,1-1.56,1.1A5.06,5.06,0,0,1,364.65,64.51Zm0-1.86a2.64,2.64,0,0,0,1.19-.26,2.49,2.49,0,0,0,.87-.7,3,3,0,0,0,.53-1,4.16,4.16,0,0,0,.18-1.23,4.09,4.09,0,0,0-.18-1.22,2.91,2.91,0,0,0-.53-1,2.49,2.49,0,0,0-.87-.7,2.64,2.64,0,0,0-1.19-.26,2.67,2.67,0,0,0-1.19.26,2.73,2.73,0,0,0-.88.7,2.93,2.93,0,0,0-.54,1,4.09,4.09,0,0,0-.18,1.22,4.16,4.16,0,0,0,.18,1.23,3,3,0,0,0,.54,1,2.73,2.73,0,0,0,.88.7A2.67,2.67,0,0,0,364.65,62.65Z" fill="#e52823"/><path d="M372.26,64.27V56.43h-1.6V54.61h1.6v-.54a3.37,3.37,0,0,1,.86-2.48,3,3,0,0,1,2.18-.86,3.51,3.51,0,0,1,1.7.36l-.46,1.58a1.46,1.46,0,0,0-.84-.22,1.25,1.25,0,0,0-1,.4,1.83,1.83,0,0,0-.35,1.22v.54h2v1.82h-2v7.84Z" fill="#e52823"/><path d="M378.44,64.27V56.43h-1.6V54.61h1.6v-.54a3.37,3.37,0,0,1,.86-2.48,3,3,0,0,1,2.18-.86,3.51,3.51,0,0,1,1.7.36l-.46,1.58a1.46,1.46,0,0,0-.84-.22,1.25,1.25,0,0,0-1,.4,1.83,1.83,0,0,0-.35,1.22v.54h2v1.82h-2v7.84Z" fill="#e52823"/></g><g id="REC"><rect width="728" height="90" fill="none"/></g></g></svg>