<svg xmlns="http://www.w3.org/2000/svg" viewBox="0 0 728 90"><g id="Layer_2" data-name="Layer 2"><g id="REC"><rect width="728" height="90" fill="none"/></g><g id="sbhd"><path d="M274.94,30.6l-.83-2.2H268.9l-.83,2.2h-2.26l4.45-11.34h2.49L277.2,30.6Zm-3.44-9.37-2,5.4h4.08Z" fill="#e52823"/><path d="M280.48,30.8a2.12,2.12,0,0,1-1.57-.54,2.17,2.17,0,0,1-.54-1.59V19.26h1.79v9a1.21,1.21,0,0,0,.19.71.69.69,0,0,0,.59.28,1.12,1.12,0,0,0,.48-.1.89.89,0,0,0,.32-.21l.42,1.36a2,2,0,0,1-.64.38A3.05,3.05,0,0,1,280.48,30.8Z" fill="#e52823"/><path d="M285.34,30.8a2.12,2.12,0,0,1-1.57-.54,2.17,2.17,0,0,1-.54-1.59V19.26H285v9a1.15,1.15,0,0,0,.2.71.67.67,0,0,0,.58.28,1.12,1.12,0,0,0,.48-.1.89.89,0,0,0,.32-.21l.43,1.36a2.1,2.1,0,0,1-.65.38A3.05,3.05,0,0,1,285.34,30.8Z" fill="#e52823"/><path d="M298.26,30.6V29.47a3.57,3.57,0,0,1-1.15,1,3.06,3.06,0,0,1-1.48.36,3.73,3.73,0,0,1-1.46-.29,3.2,3.2,0,0,1-1.15-.85,3.91,3.91,0,0,1-.76-1.36,5.66,5.66,0,0,1-.27-1.82,5.5,5.5,0,0,1,.27-1.78,3.82,3.82,0,0,1,.76-1.36,3.14,3.14,0,0,1,1.15-.86,3.47,3.47,0,0,1,1.46-.3,3.17,3.17,0,0,1,1.46.34,3.37,3.37,0,0,1,1.17,1V19.26h1.79V30.6Zm-2.11-1.38a2.21,2.21,0,0,0,.62-.09,2.57,2.57,0,0,0,.6-.23,3.26,3.26,0,0,0,.51-.35,2,2,0,0,0,.38-.44V24.87a2.5,2.5,0,0,0-.38-.43,3.3,3.3,0,0,0-.51-.36,2.57,2.57,0,0,0-.6-.23,2.21,2.21,0,0,0-.62-.09,2.23,2.23,0,0,0-1.7.77,2.32,2.32,0,0,0-.46.85,3.86,3.86,0,0,0,0,2.2,2.45,2.45,0,0,0,.46.86,2,2,0,0,0,.74.57A2.12,2.12,0,0,0,296.15,29.22Z" fill="#e52823"/><path d="M306.08,30.8a4.37,4.37,0,0,1-1.77-.35,3.94,3.94,0,0,1-1.32-.93,4.16,4.16,0,0,1-.83-1.37,4.62,4.62,0,0,1-.29-1.67,4.57,4.57,0,0,1,.29-1.66,3.93,3.93,0,0,1,2.15-2.3,4.78,4.78,0,0,1,3.54,0,4.08,4.08,0,0,1,1.33.93,4,4,0,0,1,.83,1.37,4.79,4.79,0,0,1,.29,1.66,4.84,4.84,0,0,1-.29,1.67,4.16,4.16,0,0,1-.83,1.37,4.08,4.08,0,0,1-1.33.93A4.33,4.33,0,0,1,306.08,30.8Zm0-1.58a2.32,2.32,0,0,0,1-.22,2.18,2.18,0,0,0,.74-.6,2.57,2.57,0,0,0,.45-.87,3.71,3.71,0,0,0,.16-1.05,3.59,3.59,0,0,0-.16-1,2.62,2.62,0,0,0-.45-.86,2.33,2.33,0,0,0-2.76-.6,2.31,2.31,0,0,0-.75.6,2.64,2.64,0,0,0-.46.86,3.58,3.58,0,0,0-.15,1,3.7,3.7,0,0,0,.15,1.05,2.59,2.59,0,0,0,.46.87,2.18,2.18,0,0,0,1.75.82Z" fill="#e52823"/><path d="M317.66,30.6V29.51a4.5,4.5,0,0,1-1.18.89,3.51,3.51,0,0,1-1.71.4,2.34,2.34,0,0,1-2.65-2.6V22.38h1.78v5.16a1.6,1.6,0,0,0,.45,1.31,1.85,1.85,0,0,0,1.22.37,2.36,2.36,0,0,0,1.23-.33,2.9,2.9,0,0,0,.86-.74V22.38h1.78V30.6Z" fill="#e52823"/><path d="M321.76,30.6V19.26h1.78v4.26a3.31,3.31,0,0,1,1.18-1,3.23,3.23,0,0,1,1.46-.34,3.58,3.58,0,0,1,1.47.3,3.22,3.22,0,0,1,1.15.86,4,4,0,0,1,.76,1.36,5.5,5.5,0,0,1,.27,1.78,5.66,5.66,0,0,1-.27,1.82,3.92,3.92,0,0,1-.77,1.36,3.23,3.23,0,0,1-1.16.85,3.68,3.68,0,0,1-1.45.29,3.09,3.09,0,0,1-1.48-.36,3.5,3.5,0,0,1-1.16-1V30.6Zm1.78-2.47a2.34,2.34,0,0,0,.89.77,2.57,2.57,0,0,0,1.24.32,2.08,2.08,0,0,0,1.69-.77,3,3,0,0,0,.62-2,3.84,3.84,0,0,0-.16-1.1,2.49,2.49,0,0,0-.47-.85,2.2,2.2,0,0,0-.73-.56,2.14,2.14,0,0,0-.95-.21,2.57,2.57,0,0,0-1.24.32,2.47,2.47,0,0,0-.89.79Z" fill="#e52823"/><path d="M333.74,30.8a2.11,2.11,0,0,1-1.57-.54,2.17,2.17,0,0,1-.54-1.59V19.26h1.79v9a1.21,1.21,0,0,0,.19.71.69.69,0,0,0,.59.28,1.12,1.12,0,0,0,.48-.1.89.89,0,0,0,.32-.21l.42,1.36a2,2,0,0,1-.64.38A3.05,3.05,0,0,1,333.74,30.8Z" fill="#e52823"/><path d="M340.3,30.8a4.58,4.58,0,0,1-1.72-.31,3.78,3.78,0,0,1-1.36-.87,4.18,4.18,0,0,1-.9-1.37,4.77,4.77,0,0,1-.32-1.77,4.43,4.43,0,0,1,.31-1.67,4.07,4.07,0,0,1,2.17-2.29,4.36,4.36,0,0,1,3.35,0,3.61,3.61,0,0,1,1.28.93,4.17,4.17,0,0,1,.81,1.41,5.63,5.63,0,0,1,.28,1.78v.45h-6.33a2.84,2.84,0,0,0,.25.86,2.25,2.25,0,0,0,.53.73,2.35,2.35,0,0,0,.79.49,2.78,2.78,0,0,0,1,.18,3.6,3.6,0,0,0,1.26-.24,3.1,3.1,0,0,0,1.09-.68l.81,1.17a4,4,0,0,1-1.49.9A5.35,5.35,0,0,1,340.3,30.8Zm2.18-5a2.59,2.59,0,0,0-.16-.74,2.32,2.32,0,0,0-.43-.7,2.18,2.18,0,0,0-.7-.51,2.35,2.35,0,0,0-1-.21,2.4,2.4,0,0,0-1,.2,2.15,2.15,0,0,0-.7.51A2.53,2.53,0,0,0,338,25a2.68,2.68,0,0,0-.17.76Z" fill="#e52823"/><path d="M357.52,30.6l-1.92-6-1.9,6h-1.87l-2.55-8.22h1.85l1.73,6,2-6h1.58l1.94,6,1.73-6h1.87l-2.55,8.22Z" fill="#e52823"/><path d="M364.08,21.38a1.09,1.09,0,1,1,.79-.32A1.1,1.1,0,0,1,364.08,21.38Zm-.9,9.22V22.38H365V30.6Z" fill="#e52823"/><path d="M373.06,30.6V29.47a3.57,3.57,0,0,1-1.15,1,3.06,3.06,0,0,1-1.48.36,3.69,3.69,0,0,1-1.46-.29,3.11,3.11,0,0,1-1.15-.85,3.91,3.91,0,0,1-.76-1.36,5.66,5.66,0,0,1-.27-1.82,5.5,5.5,0,0,1,.27-1.78,3.82,3.82,0,0,1,.76-1.36,3.19,3.19,0,0,1,1.14-.86,3.54,3.54,0,0,1,1.47-.3,3.2,3.2,0,0,1,1.46.34,3.37,3.37,0,0,1,1.17,1V19.26h1.79V30.6ZM371,29.22a2.21,2.21,0,0,0,.62-.09,2.57,2.57,0,0,0,.6-.23,3.26,3.26,0,0,0,.51-.35,2,2,0,0,0,.38-.44V24.87a2.5,2.5,0,0,0-.38-.43,3.3,3.3,0,0,0-.51-.36,2.57,2.57,0,0,0-.6-.23,2.21,2.21,0,0,0-.62-.09,2.19,2.19,0,0,0-1.7.77,2.32,2.32,0,0,0-.46.85,3.64,3.64,0,0,0,0,2.2,2.45,2.45,0,0,0,.46.86A2.1,2.1,0,0,0,370,29,2.19,2.19,0,0,0,371,29.22Z" fill="#e52823"/><path d="M381,30.8a4.63,4.63,0,0,1-1.73-.31,3.78,3.78,0,0,1-1.36-.87,4,4,0,0,1-.89-1.37,4.57,4.57,0,0,1-.32-1.77,4.62,4.62,0,0,1,.3-1.67,3.94,3.94,0,0,1,.86-1.37,4.12,4.12,0,0,1,1.32-.92,4,4,0,0,1,1.68-.34,4.11,4.11,0,0,1,1.67.33,3.67,3.67,0,0,1,1.27.93,4.17,4.17,0,0,1,.81,1.41,5.36,5.36,0,0,1,.28,1.78v.45h-6.32a2.57,2.57,0,0,0,.24.86,2.4,2.4,0,0,0,.53.73,2.35,2.35,0,0,0,.79.49,2.8,2.8,0,0,0,1,.18,3.59,3.59,0,0,0,1.25-.24,3,3,0,0,0,1.09-.68l.82,1.17a4.07,4.07,0,0,1-1.5.9A5.33,5.33,0,0,1,381,30.8Zm2.17-5a2.29,2.29,0,0,0-.16-.74,2.51,2.51,0,0,0-.42-.7,2.35,2.35,0,0,0-.71-.51,2.59,2.59,0,0,0-2,0,2.09,2.09,0,0,0-.71.51,2.28,2.28,0,0,0-.43.69,2.37,2.37,0,0,0-.17.76Z" fill="#e52823"/><path d="M394.75,30.8a4.53,4.53,0,0,1-1.71-.32,4.11,4.11,0,0,1-1.33-.9,4.35,4.35,0,0,1-.88-1.37,4.67,4.67,0,0,1-.31-1.73,4.61,4.61,0,0,1,.31-1.72,4.31,4.31,0,0,1,.88-1.36,4.11,4.11,0,0,1,1.33-.9,4.53,4.53,0,0,1,1.71-.32,4.57,4.57,0,0,1,1.1.12,4.24,4.24,0,0,1,.87.32,3.64,3.64,0,0,1,.67.47,5.2,5.2,0,0,1,.51.55l-1.18,1.07a2.19,2.19,0,0,0-1.88-.95,2.28,2.28,0,0,0-1.8.76,2.79,2.79,0,0,0-.68,2,3.52,3.52,0,0,0,.17,1.1,2.55,2.55,0,0,0,.51.86,2.31,2.31,0,0,0,.79.57,2.34,2.34,0,0,0,1,.21,2.18,2.18,0,0,0,1.88-1l1.18,1.11a4.32,4.32,0,0,1-1.19,1A3.87,3.87,0,0,1,394.75,30.8Z" fill="#e52823"/><path d="M405.26,30.6V29.47a3.57,3.57,0,0,1-1.15,1,3.1,3.1,0,0,1-1.49.36,3.68,3.68,0,0,1-1.45-.29,3.23,3.23,0,0,1-1.16-.85,4.06,4.06,0,0,1-.75-1.36,5.66,5.66,0,0,1-.27-1.82,5.5,5.5,0,0,1,.27-1.78,4,4,0,0,1,.75-1.36,3.31,3.31,0,0,1,1.15-.86,3.5,3.5,0,0,1,1.46-.3,3.24,3.24,0,0,1,1.47.34,3.37,3.37,0,0,1,1.17,1V22.38H407V30.6Zm-2.11-1.38a2.27,2.27,0,0,0,.62-.09,2.57,2.57,0,0,0,.6-.23,4.59,4.59,0,0,0,.51-.35,2,2,0,0,0,.38-.44V24.87a2.5,2.5,0,0,0-.38-.43,4.67,4.67,0,0,0-.51-.36,2.57,2.57,0,0,0-.6-.23,2.27,2.27,0,0,0-.62-.09,2.16,2.16,0,0,0-1,.21,2.1,2.1,0,0,0-.73.56,2.49,2.49,0,0,0-.47.85,3.86,3.86,0,0,0,0,2.2,2.64,2.64,0,0,0,.47.86,2,2,0,0,0,.73.57A2.16,2.16,0,0,0,403.15,29.22Z" fill="#e52823"/><path d="M411.84,30.8a2.1,2.1,0,0,1-1.58-.54,2.17,2.17,0,0,1-.53-1.59V23.93h-1.36V22.38h1.36V20.14h1.78v2.24h1.67v1.55h-1.67v4.3a1.22,1.22,0,0,0,.2.71.69.69,0,0,0,.59.28,1,1,0,0,0,.46-.1.81.81,0,0,0,.32-.21l.42,1.36a2,2,0,0,1-.64.38A3,3,0,0,1,411.84,30.8Z" fill="#e52823"/><path d="M269.75,51.6a5.7,5.7,0,0,1-2-.33,4.4,4.4,0,0,1-1.55-1l.82-1.28a3.41,3.41,0,0,0,.53.43,4.81,4.81,0,0,0,.68.36,4.36,4.36,0,0,0,.77.26,3.61,3.61,0,0,0,.79.09,2.09,2.09,0,0,0,1.23-.3.92.92,0,0,0,.4-.79.66.66,0,0,0-.36-.61,3.62,3.62,0,0,0-.92-.34l-1.2-.27a5.14,5.14,0,0,1-1.2-.41,2.52,2.52,0,0,1-.91-.73,2,2,0,0,1-.37-1.26,2.24,2.24,0,0,1,.21-1,2.34,2.34,0,0,1,.62-.79,2.93,2.93,0,0,1,1-.53,4.57,4.57,0,0,1,1.39-.2,4.92,4.92,0,0,1,1.84.32,4.53,4.53,0,0,1,1.34.82l-.75,1.26a3,3,0,0,0-1-.7,3.47,3.47,0,0,0-1.42-.29,1.86,1.86,0,0,0-1.11.29.86.86,0,0,0-.4.73.6.6,0,0,0,.36.55,4.69,4.69,0,0,0,.92.31l1.2.27a5.18,5.18,0,0,1,1.2.43,2.61,2.61,0,0,1,.92.76,2.13,2.13,0,0,1,.36,1.3,2.31,2.31,0,0,1-.22,1,2.34,2.34,0,0,1-.65.82,3.4,3.4,0,0,1-1.08.53A5,5,0,0,1,269.75,51.6Z" fill="#e52823"/><path d="M278.7,51.6a4.45,4.45,0,0,1-1.71-.32,4.16,4.16,0,0,1-1.34-.9,4.33,4.33,0,0,1-.87-1.37,4.67,4.67,0,0,1-.32-1.73,4.62,4.62,0,0,1,.32-1.72,4.28,4.28,0,0,1,.87-1.36,4.16,4.16,0,0,1,1.34-.9A4.45,4.45,0,0,1,278.7,43a4.55,4.55,0,0,1,1.09.12,4,4,0,0,1,.87.32,3.33,3.33,0,0,1,.67.47,5.2,5.2,0,0,1,.51.55l-1.17,1.07a2.21,2.21,0,0,0-1.89-.95,2.28,2.28,0,0,0-1.8.76,2.83,2.83,0,0,0-.68,2,3.25,3.25,0,0,0,.18,1.1,2.7,2.7,0,0,0,.51.87,2.29,2.29,0,0,0,.78.56,2.37,2.37,0,0,0,1,.21,2.21,2.21,0,0,0,1.89-1l1.17,1.11a4.17,4.17,0,0,1-1.19,1A3.86,3.86,0,0,1,278.7,51.6Z" fill="#e52823"/><path d="M283.42,51.4V43.18h1.79v1.19a4.05,4.05,0,0,1,1.17-1,2.91,2.91,0,0,1,1.5-.4v1.77a2.29,2.29,0,0,0-.55,0,2.61,2.61,0,0,0-.6.08,3.22,3.22,0,0,0-.61.24,2.54,2.54,0,0,0-.54.36,1.6,1.6,0,0,0-.37.42v5.6Z" fill="#e52823"/><path d="M295.1,51.4V50.27a3.57,3.57,0,0,1-1.15,1,3.06,3.06,0,0,1-1.48.36,3.69,3.69,0,0,1-1.46-.29,3.11,3.11,0,0,1-1.15-.85,3.91,3.91,0,0,1-.76-1.36,5.66,5.66,0,0,1-.27-1.82,5.5,5.5,0,0,1,.27-1.78,3.82,3.82,0,0,1,.76-1.36,3.19,3.19,0,0,1,1.14-.86,3.54,3.54,0,0,1,1.47-.3,3.2,3.2,0,0,1,1.46.34,3.37,3.37,0,0,1,1.17,1V43.18h1.79V51.4ZM293,50a2.21,2.21,0,0,0,.62-.09,2.57,2.57,0,0,0,.6-.23,3.82,3.82,0,0,0,.51-.35,2,2,0,0,0,.38-.44V45.67a2.5,2.5,0,0,0-.38-.43,3.11,3.11,0,0,0-.51-.36,2.57,2.57,0,0,0-.6-.23,2.21,2.21,0,0,0-.62-.09,2.19,2.19,0,0,0-1.7.77,2.32,2.32,0,0,0-.46.85,3.64,3.64,0,0,0,0,2.2,2.59,2.59,0,0,0,.46.87A2.19,2.19,0,0,0,293,50Z" fill="#e52823"/><path d="M301.68,51.6a2.12,2.12,0,0,1-1.58-.54,2.21,2.21,0,0,1-.53-1.59V44.73h-1.36V43.18h1.36V40.94h1.79v2.24H303v1.55h-1.66V49a1.21,1.21,0,0,0,.19.71.69.69,0,0,0,.59.28,1.07,1.07,0,0,0,.47-.1.84.84,0,0,0,.31-.21l.43,1.36a2.1,2.1,0,0,1-.65.38A3,3,0,0,1,301.68,51.6Z" fill="#e52823"/><path d="M308.36,51.6a4.53,4.53,0,0,1-1.71-.32,4.11,4.11,0,0,1-1.33-.9,4.18,4.18,0,0,1-.88-1.37,4.67,4.67,0,0,1-.31-1.73,4.61,4.61,0,0,1,.31-1.72,4,4,0,0,1,2.21-2.26,4.53,4.53,0,0,1,1.71-.32,4.63,4.63,0,0,1,1.1.12,4,4,0,0,1,.86.32,3.41,3.41,0,0,1,.68.47,5.2,5.2,0,0,1,.51.55l-1.18,1.07a2.19,2.19,0,0,0-1.88-.95,2.31,2.31,0,0,0-1.81.76,2.83,2.83,0,0,0-.68,2,3.25,3.25,0,0,0,.18,1.1,2.7,2.7,0,0,0,.51.87,2.29,2.29,0,0,0,.78.56,2.38,2.38,0,0,0,1,.21,2.18,2.18,0,0,0,1.88-1l1.18,1.11a4.47,4.47,0,0,1-1.19,1A3.87,3.87,0,0,1,308.36,51.6Z" fill="#e52823"/><path d="M318.65,51.4V46.23a1.59,1.59,0,0,0-.45-1.32,1.88,1.88,0,0,0-1.2-.35,2.28,2.28,0,0,0-1.25.34,3.07,3.07,0,0,0-.86.75V51.4H313.1V40.06h1.79v4.23a3.3,3.3,0,0,1,.5-.48,3.7,3.7,0,0,1,.66-.42,3.48,3.48,0,0,1,.8-.3,4,4,0,0,1,.93-.11,2.71,2.71,0,0,1,2,.66,2.64,2.64,0,0,1,.66,1.94V51.4Z" fill="#e52823"/><path d="M330.87,51.6a4.45,4.45,0,0,1-1.71-.32,4.16,4.16,0,0,1-1.34-.9A4.33,4.33,0,0,1,327,49a4.67,4.67,0,0,1-.32-1.73,4.62,4.62,0,0,1,.32-1.72,4.28,4.28,0,0,1,.87-1.36,4.16,4.16,0,0,1,1.34-.9,4.83,4.83,0,0,1,2.8-.2,3.85,3.85,0,0,1,.87.32,3.07,3.07,0,0,1,.67.47,3.7,3.7,0,0,1,.51.55l-1.17,1.07a2.19,2.19,0,0,0-1.89-.95,2.28,2.28,0,0,0-1.8.76,2.83,2.83,0,0,0-.68,2,3.25,3.25,0,0,0,.18,1.1,2.7,2.7,0,0,0,.51.87,2.29,2.29,0,0,0,.78.56,2.37,2.37,0,0,0,1,.21,2.18,2.18,0,0,0,1.89-1L334,50.14a4.17,4.17,0,0,1-1.19,1A3.86,3.86,0,0,1,330.87,51.6Z" fill="#e52823"/><path d="M339.32,51.6a4.33,4.33,0,0,1-1.77-.35,4,4,0,0,1-1.33-.93,4.16,4.16,0,0,1-.83-1.37,4.84,4.84,0,0,1-.29-1.67,4.79,4.79,0,0,1,.29-1.66,3.91,3.91,0,0,1,2.16-2.3,4.75,4.75,0,0,1,3.53,0,3.88,3.88,0,0,1,1.33.93,4,4,0,0,1,.83,1.37,4.57,4.57,0,0,1,.29,1.66,4.62,4.62,0,0,1-.29,1.67,4.16,4.16,0,0,1-.83,1.37,3.88,3.88,0,0,1-1.33.93A4.32,4.32,0,0,1,339.32,51.6Zm0-1.58a2.39,2.39,0,0,0,1-.22,2.28,2.28,0,0,0,.74-.6,3,3,0,0,0,.45-.87,3.7,3.7,0,0,0,.15-1,3.58,3.58,0,0,0-.15-1,3.06,3.06,0,0,0-.45-.86,2.28,2.28,0,0,0-.74-.6,2.25,2.25,0,0,0-1-.22,2.21,2.21,0,0,0-1,.22,2.28,2.28,0,0,0-.74.6,2.46,2.46,0,0,0-.46.86,3.28,3.28,0,0,0-.16,1,3.39,3.39,0,0,0,.16,1,2.42,2.42,0,0,0,.46.87,2.28,2.28,0,0,0,.74.6A2.34,2.34,0,0,0,339.32,50Z" fill="#e52823"/><path d="M345.35,51.4V43.18h1.79v1.19a4.05,4.05,0,0,1,1.17-1,2.91,2.91,0,0,1,1.5-.4v1.77a2.29,2.29,0,0,0-.55,0,2.61,2.61,0,0,0-.6.08,3.22,3.22,0,0,0-.61.24,2.54,2.54,0,0,0-.54.36,1.6,1.6,0,0,0-.37.42v5.6Z" fill="#e52823"/><path d="M351.25,51.4V43.18H353v1.19a4.05,4.05,0,0,1,1.17-1,2.9,2.9,0,0,1,1.49-.4v1.77a2.21,2.21,0,0,0-.54,0,2.61,2.61,0,0,0-.6.08,3.61,3.61,0,0,0-.62.24,2.75,2.75,0,0,0-.53.36,1.6,1.6,0,0,0-.37.42v5.6Z" fill="#e52823"/><path d="M362.69,51.4V50.31a4.34,4.34,0,0,1-1.18.89,3.48,3.48,0,0,1-1.71.4,2.68,2.68,0,0,1-2-.67,2.64,2.64,0,0,1-.66-1.93V43.18h1.78v5.15a1.61,1.61,0,0,0,.45,1.32,1.87,1.87,0,0,0,1.22.37,2.36,2.36,0,0,0,1.23-.33,2.9,2.9,0,0,0,.86-.74V43.18h1.79V51.4Z" fill="#e52823"/><path d="M370.14,54.73a5.9,5.9,0,0,1-1.87-.27,4.15,4.15,0,0,1-1.58-1l.83-1.29a2.82,2.82,0,0,0,1.15.82,4.24,4.24,0,0,0,1.47.24,3.26,3.26,0,0,0,.87-.12,2,2,0,0,0,.78-.38,2,2,0,0,0,.57-.7,2.54,2.54,0,0,0,.21-1.1V50a3.66,3.66,0,0,1-1.15,1,3,3,0,0,1-1.49.37,3.67,3.67,0,0,1-1.45-.28,3.38,3.38,0,0,1-1.16-.81,3.86,3.86,0,0,1-.75-1.32,5.89,5.89,0,0,1,0-3.59,4,4,0,0,1,.75-1.33,3.33,3.33,0,0,1,1.15-.82,3.65,3.65,0,0,1,1.46-.28,3.24,3.24,0,0,1,1.47.34,3.37,3.37,0,0,1,1.17,1V43.18h1.78V51a4,4,0,0,1-.37,1.84A3.16,3.16,0,0,1,373,54a3.72,3.72,0,0,1-1.36.6A7,7,0,0,1,370.14,54.73Zm.32-4.92a2.47,2.47,0,0,0,1.22-.32,2.59,2.59,0,0,0,.89-.76V45.65a2.62,2.62,0,0,0-.89-.77,2.58,2.58,0,0,0-1.22-.32,2.15,2.15,0,0,0-1.7.72,2.83,2.83,0,0,0-.63,1.92,2.78,2.78,0,0,0,.63,1.9A2.14,2.14,0,0,0,370.46,49.81Z" fill="#e52823"/><path d="M382.44,51.4V50.27a3.53,3.53,0,0,1-1.14,1,3.13,3.13,0,0,1-1.49.36,3.64,3.64,0,0,1-1.45-.29,3.15,3.15,0,0,1-1.16-.85,4.07,4.07,0,0,1-.76-1.36,5.66,5.66,0,0,1-.27-1.82,5.5,5.5,0,0,1,.27-1.78,4,4,0,0,1,.76-1.36,3.22,3.22,0,0,1,1.15-.86,3.5,3.5,0,0,1,1.46-.3,3.21,3.21,0,0,1,2.63,1.34V43.18h1.79V51.4ZM380.34,50a2.27,2.27,0,0,0,.62-.09,2.34,2.34,0,0,0,.59-.23,3.26,3.26,0,0,0,.51-.35,1.74,1.74,0,0,0,.38-.44V45.67a2.13,2.13,0,0,0-.38-.43,2.74,2.74,0,0,0-.51-.36,2.34,2.34,0,0,0-.59-.23,2.27,2.27,0,0,0-.62-.09,2.13,2.13,0,0,0-1,.21,2,2,0,0,0-.73.56,2.34,2.34,0,0,0-.47.85,3.86,3.86,0,0,0,0,2.2,2.61,2.61,0,0,0,.47.87,2,2,0,0,0,.73.56A2.13,2.13,0,0,0,380.34,50Z" fill="#e52823"/><path d="M389,51.6a2.12,2.12,0,0,1-1.58-.54,2.21,2.21,0,0,1-.52-1.59V44.73h-1.36V43.18h1.36V40.94h1.78v2.24h1.67v1.55H388.7V49a1.22,1.22,0,0,0,.2.71.67.67,0,0,0,.58.28,1,1,0,0,0,.47-.1.76.76,0,0,0,.31-.21l.43,1.36a2,2,0,0,1-.65.38A3,3,0,0,1,389,51.6Z" fill="#e52823"/><path d="M395.77,51.6a4.58,4.58,0,0,1-1.72-.31,3.78,3.78,0,0,1-1.36-.87,4.18,4.18,0,0,1-.9-1.37,4.77,4.77,0,0,1-.32-1.77,4.43,4.43,0,0,1,.31-1.67A4.07,4.07,0,0,1,394,43.32a4.36,4.36,0,0,1,3.35,0,3.61,3.61,0,0,1,1.28.93,4.07,4.07,0,0,1,.81,1.41,5.63,5.63,0,0,1,.28,1.78v.45h-6.33a2.84,2.84,0,0,0,.25.86,2.25,2.25,0,0,0,.53.73,2.35,2.35,0,0,0,.79.49,2.78,2.78,0,0,0,1,.18,3.6,3.6,0,0,0,1.26-.24,3.1,3.1,0,0,0,1.09-.68l.81,1.17a4,4,0,0,1-1.49.9A5.35,5.35,0,0,1,395.77,51.6Zm2.18-5a2.59,2.59,0,0,0-.16-.74,2.32,2.32,0,0,0-.43-.7,2.18,2.18,0,0,0-.7-.51,2.35,2.35,0,0,0-1-.21,2.4,2.4,0,0,0-1,.2,2.15,2.15,0,0,0-.7.51,2.53,2.53,0,0,0-.44.69,2.68,2.68,0,0,0-.17.76Z" fill="#e52823"/><path d="M404.26,51.6a5.71,5.71,0,0,1-2-.33,4.28,4.28,0,0,1-1.54-1l.81-1.28a4,4,0,0,0,.53.43,4.81,4.81,0,0,0,.68.36,4.36,4.36,0,0,0,.77.26,3.61,3.61,0,0,0,.79.09,2.06,2.06,0,0,0,1.23-.3.93.93,0,0,0,.41-.79.67.67,0,0,0-.37-.61,3.48,3.48,0,0,0-.92-.34l-1.2-.27a5.14,5.14,0,0,1-1.2-.41,2.6,2.6,0,0,1-.91-.73,2,2,0,0,1-.37-1.26,2.24,2.24,0,0,1,.21-1,2.47,2.47,0,0,1,.62-.79,3,3,0,0,1,1-.53,4.46,4.46,0,0,1,1.38-.2,5,5,0,0,1,1.85.32,4.61,4.61,0,0,1,1.33.82l-.75,1.26a2.88,2.88,0,0,0-1-.7,3.43,3.43,0,0,0-1.42-.29,1.88,1.88,0,0,0-1.11.29.86.86,0,0,0-.4.73.6.6,0,0,0,.36.55,4.69,4.69,0,0,0,.92.31l1.2.27a5.18,5.18,0,0,1,1.2.43,2.61,2.61,0,0,1,.92.76,2.13,2.13,0,0,1,.36,1.3,2.31,2.31,0,0,1-.22,1,2.23,2.23,0,0,1-.65.82,3.45,3.45,0,0,1-1.07.53A5.07,5.07,0,0,1,404.26,51.6Z" fill="#e52823"/><path d="M411.67,50.75a3.29,3.29,0,0,1-.44,1.65,3.83,3.83,0,0,1-1.14,1.26l-.82-.67a2.67,2.67,0,0,0,.41-.3,4.61,4.61,0,0,0,.37-.4,2.39,2.39,0,0,0,.29-.44,1.49,1.49,0,0,0,.15-.45l-.11,0-.17,0a1,1,0,0,1-.72-.31,1.09,1.09,0,0,1-.29-.78,1.14,1.14,0,0,1,1.16-1.16,1.27,1.27,0,0,1,.92.4A1.59,1.59,0,0,1,411.67,50.75Z" fill="#e52823"/><path d="M266.63,72.2V70.61c1.1-.82,2-1.55,2.81-2.17a20.84,20.84,0,0,0,1.9-1.68,5.7,5.7,0,0,0,1.08-1.36,2.49,2.49,0,0,0,.34-1.23,1.53,1.53,0,0,0-.18-.76,1.51,1.51,0,0,0-.46-.54,2,2,0,0,0-.67-.31,2.79,2.79,0,0,0-.76-.11,4,4,0,0,0-1.76.37,4,4,0,0,0-1.3,1l-1.16-1.29a4.65,4.65,0,0,1,1.88-1.37,6.14,6.14,0,0,1,2.32-.45,5.1,5.1,0,0,1,1.57.23,3.82,3.82,0,0,1,1.3.67,3.14,3.14,0,0,1,.9,1.08,3.25,3.25,0,0,1,.33,1.5,3.64,3.64,0,0,1-.35,1.54,6.73,6.73,0,0,1-1,1.51,13.45,13.45,0,0,1-1.56,1.55c-.61.53-1.29,1.08-2.05,1.66h5V72.2Z" fill="#e52823"/><path d="M281.87,72.2V65.53h-1.36V64h1.36v-.45a2.85,2.85,0,0,1,.74-2.11,2.48,2.48,0,0,1,1.85-.73,3,3,0,0,1,1.44.3l-.39,1.35a1.23,1.23,0,0,0-.71-.19,1,1,0,0,0-.84.34,1.54,1.54,0,0,0-.3,1V64h1.67v1.55h-1.67V72.2Z" fill="#e52823"/><path d="M290.41,72.4a4.33,4.33,0,0,1-1.77-.35,4.08,4.08,0,0,1-1.33-.93,4.16,4.16,0,0,1-.83-1.37,4.84,4.84,0,0,1-.29-1.67,4.79,4.79,0,0,1,.29-1.66,4,4,0,0,1,.83-1.37,4.08,4.08,0,0,1,1.33-.93,4.78,4.78,0,0,1,3.54,0,3.94,3.94,0,0,1,1.32.93,4.15,4.15,0,0,1,.84,1.37,4.78,4.78,0,0,1,.28,1.66,4.84,4.84,0,0,1-.28,1.67,4.36,4.36,0,0,1-.84,1.37,3.94,3.94,0,0,1-1.32.93A4.37,4.37,0,0,1,290.41,72.4Zm0-1.58a2.25,2.25,0,0,0,1-.22,2.28,2.28,0,0,0,.74-.6,2.57,2.57,0,0,0,.45-.87,3.7,3.7,0,0,0,.15-1,3.58,3.58,0,0,0-.15-1,2.62,2.62,0,0,0-.45-.86,2.28,2.28,0,0,0-.74-.6,2.39,2.39,0,0,0-1-.22,2.26,2.26,0,0,0-1,.22,2.21,2.21,0,0,0-.75.6,2.46,2.46,0,0,0-.46.86,3.58,3.58,0,0,0-.15,1,3.7,3.7,0,0,0,.15,1,2.42,2.42,0,0,0,.46.87,2.21,2.21,0,0,0,.75.6A2.14,2.14,0,0,0,290.41,70.82Z" fill="#e52823"/><path d="M296.44,72.2V64h1.79v1.19a4.33,4.33,0,0,1,1.17-1,2.93,2.93,0,0,1,1.5-.4v1.77a2.29,2.29,0,0,0-.55,0,2.61,2.61,0,0,0-.6.08,3.51,3.51,0,0,0-.61.24,2.54,2.54,0,0,0-.54.36,1.77,1.77,0,0,0-.37.42v5.6Z" fill="#e52823"/><path d="M310.15,72.37a6.32,6.32,0,0,1-2.31-.58,5.61,5.61,0,0,1-1.66-1.18l1.13-1.54a5.1,5.1,0,0,0,1.19,1,4.43,4.43,0,0,0,1.65.57V67.29c-.45-.11-.88-.24-1.31-.39a4.4,4.4,0,0,1-1.14-.59,2.89,2.89,0,0,1-.83-.91,2.8,2.8,0,0,1-.31-1.39,3,3,0,0,1,.25-1.22,3,3,0,0,1,.73-1,3.61,3.61,0,0,1,1.13-.73,5.1,5.1,0,0,1,1.48-.35V59.14h1.35v1.58a6.25,6.25,0,0,1,1.9.51,5.33,5.33,0,0,1,1.52,1l-1.12,1.48a4.28,4.28,0,0,0-1.08-.79,5.34,5.34,0,0,0-1.22-.42v2.94c.45.11.89.25,1.33.4a4.39,4.39,0,0,1,1.18.61,3.13,3.13,0,0,1,.85,1,2.85,2.85,0,0,1,.33,1.43,3.49,3.49,0,0,1-.22,1.24,2.93,2.93,0,0,1-.67,1.07,3.34,3.34,0,0,1-1.15.78,5.12,5.12,0,0,1-1.65.4V73.9h-1.35Zm-1.55-8.5a.89.89,0,0,0,.43.78,4.36,4.36,0,0,0,1.12.49V62.47a2,2,0,0,0-1.14.46A1.23,1.23,0,0,0,308.6,63.87Zm4.55,5.2a1,1,0,0,0-.46-.9,5.1,5.1,0,0,0-1.19-.53v3a2,2,0,0,0,1.27-.59A1.4,1.4,0,0,0,313.15,69.07Z" fill="#e52823"/><path d="M321,72.4a6,6,0,0,1-2.48-.47,4.87,4.87,0,0,1-1.71-1.28L318,69.27A3.81,3.81,0,0,0,321,70.63a2.41,2.41,0,0,0,1.71-.58,1.87,1.87,0,0,0,.62-1.42,1.9,1.9,0,0,0-.61-1.47,2.45,2.45,0,0,0-1.67-.54,3.83,3.83,0,0,0-1.33.23,3.37,3.37,0,0,0-1.15.74l-1.41-.41V60.86h7.42v1.76h-5.44v3.25a4,4,0,0,1,1.09-.68,3.76,3.76,0,0,1,1.48-.29,4,4,0,0,1,1.38.25,3.36,3.36,0,0,1,2,1.86,3.79,3.79,0,0,1,.3,1.55,3.86,3.86,0,0,1-.32,1.59,3.58,3.58,0,0,1-.9,1.2,3.88,3.88,0,0,1-1.36.78A5.5,5.5,0,0,1,321,72.4Z" fill="#e52823"/></g></g></svg>