<svg xmlns="http://www.w3.org/2000/svg" viewBox="0 0 300 600"><title>cta</title><g id="Layer_2" data-name="Layer 2"><g id="REC"><rect width="300" height="600" fill="none"/></g><g id="CTA"><path id="bg" d="M159.69,250.48H31.53a15.29,15.29,0,0,1-15.53-15V233.9a15.28,15.28,0,0,1,15.53-15H159.69a15.28,15.28,0,0,1,15.53,15v1.56a15.28,15.28,0,0,1-15.53,15" fill="#e32c27"/><path d="M50,236.7A5.65,5.65,0,0,0,51.85,238a5.73,5.73,0,0,0,2.36.49,2.82,2.82,0,0,0,1.68-.44,1.27,1.27,0,0,0,.6-1,1.09,1.09,0,0,0-.65-1,9.07,9.07,0,0,0-2-.67,19.65,19.65,0,0,1-2.5-.71,4.12,4.12,0,0,1-1.69-1.15,3.14,3.14,0,0,1-.72-2.17,3.48,3.48,0,0,1,.61-2,4.12,4.12,0,0,1,1.75-1.44,6.17,6.17,0,0,1,2.63-.52A7.29,7.29,0,0,1,59,229.13l-1.56,2.05a5.15,5.15,0,0,0-1.77-1.07,5.84,5.84,0,0,0-2-.37,2.46,2.46,0,0,0-1.43.37,1.17,1.17,0,0,0-.5,1,1,1,0,0,0,.61.91,11.48,11.48,0,0,0,2,.62,20.27,20.27,0,0,1,2.5.72,4.44,4.44,0,0,1,1.71,1.2,3.12,3.12,0,0,1,.72,2.15A3.86,3.86,0,0,1,58,239.76a5.8,5.8,0,0,1-3.91,1.16,7.5,7.5,0,0,1-5.58-2.09Z" fill="#fff"/><path d="M67.61,234.87a1.7,1.7,0,0,0-.45-1.34,2,2,0,0,0-1.32-.39,2.41,2.41,0,0,0-1.24.32,3,3,0,0,0-.93.8v6.41h-2.5V227.52h2.5v4.87a4.24,4.24,0,0,1,1.39-1,4.37,4.37,0,0,1,2-.43,3.11,3.11,0,0,1,2.32.79,3,3,0,0,1,.78,2.2v6.77H67.61Z" fill="#fff"/><path d="M74.36,240.25a4.64,4.64,0,0,1-1.76-1.81,5.4,5.4,0,0,1-.61-2.53,5.32,5.32,0,0,1,.61-2.51,4.6,4.6,0,0,1,1.76-1.82,5.66,5.66,0,0,1,5.34,0,4.6,4.6,0,0,1,1.76,1.82,5.32,5.32,0,0,1,.61,2.51,5.4,5.4,0,0,1-.61,2.53,4.64,4.64,0,0,1-1.76,1.81,5.66,5.66,0,0,1-5.34,0Zm4.44-2.36a3.25,3.25,0,0,0,0-3.95,2.16,2.16,0,0,0-1.78-.8,2.13,2.13,0,0,0-1.77.8,3.29,3.29,0,0,0,0,3.95,2.14,2.14,0,0,0,1.77.81A2.17,2.17,0,0,0,78.8,237.89Z" fill="#fff"/><path d="M83.92,244.3V231.14h2.51v1.21a3.75,3.75,0,0,1,1.31-1.07,3.6,3.6,0,0,1,1.62-.37,4.09,4.09,0,0,1,2.18.59,4,4,0,0,1,1.5,1.72,7,7,0,0,1,0,5.38,3.93,3.93,0,0,1-1.5,1.73,4,4,0,0,1-2.18.59,3.68,3.68,0,0,1-1.61-.36,3.78,3.78,0,0,1-1.32-1.09v4.83Zm6.4-10.39a2.16,2.16,0,0,0-1.74-.77,2.67,2.67,0,0,0-1.23.31,2.46,2.46,0,0,0-.92.77v3.39a2.5,2.5,0,0,0,.93.77,2.71,2.71,0,0,0,1.22.32,2.17,2.17,0,0,0,1.74-.78,3.38,3.38,0,0,0,0-4Z" fill="#fff"/><path d="M103.36,231.83v8.84h-2.8V227.52h2.88l6.1,8.51v-8.51h2.8v13.15h-2.71Z" fill="#fff"/><path d="M116.63,240.25a4.61,4.61,0,0,1-1.75-1.81,5.29,5.29,0,0,1-.61-2.53,5.21,5.21,0,0,1,.61-2.51,4.57,4.57,0,0,1,1.75-1.82,5.68,5.68,0,0,1,5.35,0,4.51,4.51,0,0,1,1.75,1.82,5.21,5.21,0,0,1,.61,2.51,5.29,5.29,0,0,1-.61,2.53,4.54,4.54,0,0,1-1.75,1.81,5.68,5.68,0,0,1-5.35,0Zm4.45-2.36a3.29,3.29,0,0,0,0-3.95,2.38,2.38,0,0,0-3.56,0,3.33,3.33,0,0,0,0,3.95,2.36,2.36,0,0,0,3.56,0Z" fill="#fff"/><path d="M132.55,234.18l-2,6.49h-2.69l-2.9-9.53h2.61l1.77,6.41,2.09-6.41h2.23l2.09,6.41,1.78-6.41h2.6l-2.9,9.53h-2.66Z" fill="#fff"/></g></g></svg>