<svg xmlns="http://www.w3.org/2000/svg" viewBox="0 0 300 600"><title>subhead</title><g id="Layer_2" data-name="Layer 2"><g id="REC"><rect width="300" height="600" fill="none"/></g><g id="subhead"><path d="M21.26,177.5V163.81H28a4.61,4.61,0,0,1,1.67.28,3.49,3.49,0,0,1,1.22.75,3.08,3.08,0,0,1,.75,1.1,3.63,3.63,0,0,1,.25,1.35,3.34,3.34,0,0,1-.19,1.17,3,3,0,0,1-.52.93,3.21,3.21,0,0,1-.76.67,2.86,2.86,0,0,1-.91.37,2.62,2.62,0,0,1,1,.38,3.33,3.33,0,0,1,.84.75,3.55,3.55,0,0,1,.57,1,3.67,3.67,0,0,1,.2,1.19,4.18,4.18,0,0,1-.25,1.48,3.47,3.47,0,0,1-.76,1.18,3.36,3.36,0,0,1-1.26.78,4.79,4.79,0,0,1-1.71.28Zm6.26-8.07a2,2,0,0,0,1.42-.48,1.85,1.85,0,0,0,0-2.51,1.91,1.91,0,0,0-1.42-.49H23.67v3.48Zm.11,5.94a2.22,2.22,0,0,0,1.53-.5,1.82,1.82,0,0,0,.54-1.4,1.92,1.92,0,0,0-.52-1.34,2,2,0,0,0-1.55-.56h-4v3.8Z" fill="#e52823"/><path d="M41.21,177.5v-1.31a5.18,5.18,0,0,1-1.43,1.07,4.27,4.27,0,0,1-2.06.49,3.26,3.26,0,0,1-2.4-.81,3.2,3.2,0,0,1-.8-2.33v-7h2.16v6.22a2,2,0,0,0,.54,1.59,2.28,2.28,0,0,0,1.47.44,2.88,2.88,0,0,0,1.48-.4,3.6,3.6,0,0,0,1-.9v-6.95h2.16v9.91Z" fill="#e52823"/><path d="M50.06,181.52a6.3,6.3,0,0,1-2.22-.36A5.42,5.42,0,0,1,46.05,180l1-1.56a2.94,2.94,0,0,0,1.33,1,4.74,4.74,0,0,0,1.67.3,2.85,2.85,0,0,0,2-.71,2.7,2.7,0,0,0,.74-2v-1.15a5.57,5.57,0,0,1-1.43,1.08,4.29,4.29,0,0,1-2.06.48,3.22,3.22,0,0,1-2.4-.81,3.16,3.16,0,0,1-.8-2.33v-6.69h2.15v5.89a2,2,0,0,0,.54,1.59,2.32,2.32,0,0,0,1.47.44,2.8,2.8,0,0,0,1.49-.4,3.88,3.88,0,0,0,1-.89v-6.63H55V177a4.83,4.83,0,0,1-.37,2,3.77,3.77,0,0,1-1,1.41,4.5,4.5,0,0,1-1.57.85A6.26,6.26,0,0,1,50.06,181.52Z" fill="#e52823"/><path d="M65.63,177.5V166.91l-2.24,2.34L62,167.79l3.94-4H68V177.5Z" fill="#e52823"/><path d="M73.55,176.72a4,4,0,0,1-.52,2,4.5,4.5,0,0,1-1.39,1.52l-1-.8a3.15,3.15,0,0,0,.49-.37,4.06,4.06,0,0,0,.45-.48A2.62,2.62,0,0,0,72,178a1.67,1.67,0,0,0,.19-.54l-.15,0-.2,0a1.11,1.11,0,0,1-.86-.37,1.27,1.27,0,0,1-.35-.94,1.36,1.36,0,0,1,.4-1,1.32,1.32,0,0,1,1-.41,1.51,1.51,0,0,1,1.11.48A2,2,0,0,1,73.55,176.72Z" fill="#e52823"/><path d="M85.25,181.52A7.13,7.13,0,0,1,83,181.2,5.25,5.25,0,0,1,81.08,180l1-1.56a3.38,3.38,0,0,0,1.39,1,5.13,5.13,0,0,0,1.77.29,4.29,4.29,0,0,0,1.06-.14,2.58,2.58,0,0,0,.94-.46,2.39,2.39,0,0,0,.68-.85,3,3,0,0,0,.25-1.32v-1.13a4.44,4.44,0,0,1-1.38,1.21,3.64,3.64,0,0,1-1.8.45,4.4,4.4,0,0,1-1.75-.34,3.82,3.82,0,0,1-1.4-1,4.57,4.57,0,0,1-.91-1.59,6.62,6.62,0,0,1-.33-2.18,6.47,6.47,0,0,1,.33-2.15,4.62,4.62,0,0,1,.91-1.6,3.84,3.84,0,0,1,1.39-1,4.38,4.38,0,0,1,1.76-.34,4,4,0,0,1,1.77.41A4.06,4.06,0,0,1,88.18,169v-1.37h2.16V177a4.83,4.83,0,0,1-.45,2.21,3.79,3.79,0,0,1-1.18,1.4,4.71,4.71,0,0,1-1.65.72A8.58,8.58,0,0,1,85.25,181.52Zm.39-5.93a3.28,3.28,0,0,0,2.54-1.31v-3.72a3.28,3.28,0,0,0-2.54-1.31,2.57,2.57,0,0,0-2,.87,3.88,3.88,0,0,0,0,4.61A2.6,2.6,0,0,0,85.64,175.59Z" fill="#e52823"/><path d="M97.72,177.75a5.87,5.87,0,0,1-2.08-.37A4.78,4.78,0,0,1,94,176.32a4.92,4.92,0,0,1-1.08-1.65,5.88,5.88,0,0,1,0-4.16,4.91,4.91,0,0,1,2.63-2.76,5.24,5.24,0,0,1,4,0,4.44,4.44,0,0,1,1.54,1.12,5.19,5.19,0,0,1,1,1.7,6.79,6.79,0,0,1,.33,2.16v.53H94.79a3.17,3.17,0,0,0,.3,1.05,2.85,2.85,0,0,0,.63.87,3.12,3.12,0,0,0,1,.6,3.49,3.49,0,0,0,1.25.21,4.21,4.21,0,0,0,1.52-.29,3.44,3.44,0,0,0,1.31-.82l1,1.42a5.1,5.1,0,0,1-1.81,1.09A6.8,6.8,0,0,1,97.72,177.75Zm2.63-6a3,3,0,0,0-.19-.89,2.62,2.62,0,0,0-.52-.84,2.77,2.77,0,0,0-.85-.63,3.28,3.28,0,0,0-2.44,0,2.6,2.6,0,0,0-.85.62,2.84,2.84,0,0,0-.53.84,2.77,2.77,0,0,0-.2.91Z" fill="#e52823"/><path d="M107.55,177.75a2.52,2.52,0,0,1-1.9-.66,2.61,2.61,0,0,1-.64-1.91v-5.72h-1.64v-1.87H105v-2.71h2.15v2.71h2v1.87h-2v5.19a1.44,1.44,0,0,0,.24.85.82.82,0,0,0,.71.34,1.31,1.31,0,0,0,.56-.12,1,1,0,0,0,.38-.25l.52,1.64a2.43,2.43,0,0,1-.78.45A3.63,3.63,0,0,1,107.55,177.75Z" fill="#e52823"/><path d="M120.89,177.75a5.19,5.19,0,0,1-2.13-.42,5,5,0,0,1-1.6-1.13,5.1,5.1,0,0,1-1-1.66,5.74,5.74,0,0,1-.35-2,5.82,5.82,0,0,1,.35-2,5,5,0,0,1,1-1.65,4.85,4.85,0,0,1,1.6-1.12,5.76,5.76,0,0,1,4.27,0,4.85,4.85,0,0,1,1.6,1.12,4.78,4.78,0,0,1,1,1.65,5.59,5.59,0,0,1,.35,2,5.52,5.52,0,0,1-.35,2,4.91,4.91,0,0,1-1,1.66,5,5,0,0,1-1.6,1.13A5.21,5.21,0,0,1,120.89,177.75Zm0-1.91a2.65,2.65,0,0,0,2.13-1,3.08,3.08,0,0,0,.54-1,4.48,4.48,0,0,0,.18-1.27,4.34,4.34,0,0,0-.18-1.25,3.27,3.27,0,0,0-.54-1.05,2.52,2.52,0,0,0-.9-.71,2.89,2.89,0,0,0-2.44,0,2.7,2.7,0,0,0-.9.71,3.32,3.32,0,0,0-.56,1.05,4.34,4.34,0,0,0-.18,1.25,4.48,4.48,0,0,0,.18,1.27,3.11,3.11,0,0,0,.56,1,2.86,2.86,0,0,0,.9.72A2.66,2.66,0,0,0,120.89,175.84Z" fill="#e52823"/><path d="M134.89,177.5v-6.2a2,2,0,0,0-.55-1.61,2.27,2.27,0,0,0-1.46-.44,2.8,2.8,0,0,0-1.49.41,3.84,3.84,0,0,0-1.06.9v6.94h-2.15v-9.91h2.15v1.33a4.86,4.86,0,0,1,.61-.57,4.68,4.68,0,0,1,.81-.52,4.29,4.29,0,0,1,1-.35,4.46,4.46,0,0,1,1.12-.14,2.85,2.85,0,0,1,3.2,3.18v7Z" fill="#e52823"/><path d="M144.43,177.75a5.83,5.83,0,0,1-2.08-.37,4.6,4.6,0,0,1-1.64-1.06,4.92,4.92,0,0,1-1.08-1.65,5.7,5.7,0,0,1-.39-2.14,5.49,5.49,0,0,1,.37-2,5,5,0,0,1,1-1.65,5.28,5.28,0,0,1,1.59-1.11,5.27,5.27,0,0,1,4.05,0,4.53,4.53,0,0,1,1.54,1.12,5.17,5.17,0,0,1,1,1.7,6.52,6.52,0,0,1,.34,2.16v.53H141.5a3.41,3.41,0,0,0,.29,1.05,2.88,2.88,0,0,0,.64.87,3.08,3.08,0,0,0,.95.6,3.54,3.54,0,0,0,1.26.21,4.16,4.16,0,0,0,1.51-.29,3.56,3.56,0,0,0,1.32-.82l1,1.42a5.06,5.06,0,0,1-1.8,1.09A6.8,6.8,0,0,1,144.43,177.75Zm2.63-6a3.06,3.06,0,0,0-.2-.89,2.6,2.6,0,0,0-.51-.84,2.9,2.9,0,0,0-.85-.63,2.93,2.93,0,0,0-1.25-.24,3,3,0,0,0-1.2.23,2.71,2.71,0,0,0-.85.62,2.81,2.81,0,0,0-.52.84,3.07,3.07,0,0,0-.21.91Z" fill="#e52823"/><path d="M161.4,177.75a7.14,7.14,0,0,1-3-.57,5.82,5.82,0,0,1-2.07-1.55l1.38-1.66a4.59,4.59,0,0,0,3.67,1.64,2.89,2.89,0,0,0,2.06-.7,2.25,2.25,0,0,0,.75-1.72,2.2,2.2,0,0,0-.74-1.76,2.9,2.9,0,0,0-2-.66,4.41,4.41,0,0,0-1.6.28,4.06,4.06,0,0,0-1.39.89l-1.71-.49v-7.64h9V166h-6.57v3.92a4.82,4.82,0,0,1,1.32-.83,4.42,4.42,0,0,1,1.78-.34,4.87,4.87,0,0,1,1.66.29,4.1,4.1,0,0,1,2.37,2.25,5,5,0,0,1,0,3.79,4.41,4.41,0,0,1-1.07,1.45,4.73,4.73,0,0,1-1.66.94A6.44,6.44,0,0,1,161.4,177.75Z" fill="#e52823"/><path d="M173.82,177.75a4.71,4.71,0,0,1-2.5-.63,5.26,5.26,0,0,1-1.69-1.63,7.61,7.61,0,0,1-1-2.27,10.68,10.68,0,0,1,0-5.11,7.61,7.61,0,0,1,1-2.27,5.13,5.13,0,0,1,1.69-1.62,5.37,5.37,0,0,1,5,0,5.13,5.13,0,0,1,1.69,1.62,7.61,7.61,0,0,1,1,2.27,10.68,10.68,0,0,1,0,5.11,7.61,7.61,0,0,1-1,2.27,5.26,5.26,0,0,1-1.69,1.63A4.68,4.68,0,0,1,173.82,177.75Zm0-2.14a2.34,2.34,0,0,0,1.4-.41,3,3,0,0,0,.94-1.09,5.68,5.68,0,0,0,.51-1.57,10.25,10.25,0,0,0,.16-1.87,11.28,11.28,0,0,0-.15-1.88,5.37,5.37,0,0,0-.52-1.57,3,3,0,0,0-.93-1.08,2.7,2.7,0,0,0-2.83,0,3,3,0,0,0-.93,1.08,5.37,5.37,0,0,0-.53,1.57,11.07,11.07,0,0,0,0,3.75,5.37,5.37,0,0,0,.53,1.57,3,3,0,0,0,.93,1.09A2.32,2.32,0,0,0,173.82,175.61Z" fill="#e52823"/><path d="M184.12,170.4a3.66,3.66,0,0,1-1.39-.26,3.16,3.16,0,0,1-1.77-1.79,3.47,3.47,0,0,1-.25-1.34,3.51,3.51,0,0,1,.25-1.34,3.16,3.16,0,0,1,.69-1.09,3.1,3.1,0,0,1,1.08-.72,4,4,0,0,1,2.78,0,3,3,0,0,1,1.08.72,3.49,3.49,0,0,1,.69,1.09,3.71,3.71,0,0,1,.24,1.34,3.67,3.67,0,0,1-.24,1.34,3.4,3.4,0,0,1-.69,1.07,3,3,0,0,1-1.08.72A3.7,3.7,0,0,1,184.12,170.4Zm0-1.38a1.7,1.7,0,0,0,1.31-.55,2.09,2.09,0,0,0,.51-1.47,2.14,2.14,0,0,0-.51-1.49,1.78,1.78,0,0,0-2.61,0,2.14,2.14,0,0,0-.51,1.49,2.09,2.09,0,0,0,.51,1.47A1.71,1.71,0,0,0,184.12,169Zm-1.34,8.48,8.74-13.69h1.4l-8.76,13.69Zm8.7.25a3.65,3.65,0,0,1-1.38-.26,3.1,3.1,0,0,1-1.08-.72,3.26,3.26,0,0,1-.7-1.07,3.61,3.61,0,0,1-.24-1.33,3.71,3.71,0,0,1,.24-1.34A3.2,3.2,0,0,1,189,172a3.1,3.1,0,0,1,1.08-.72,3.82,3.82,0,0,1,2.77,0A3.1,3.1,0,0,1,194,172a3,3,0,0,1,.69,1.08,3.51,3.51,0,0,1,.25,1.34,3.42,3.42,0,0,1-.25,1.33,3.16,3.16,0,0,1-1.77,1.79A3.66,3.66,0,0,1,191.48,177.75Zm0-1.38a1.72,1.72,0,0,0,1.32-.55,2.08,2.08,0,0,0,.51-1.46,2.14,2.14,0,0,0-.51-1.49,1.73,1.73,0,0,0-1.32-.56,1.71,1.71,0,0,0-1.31.56,2.14,2.14,0,0,0-.51,1.49,2.08,2.08,0,0,0,.51,1.46A1.7,1.7,0,0,0,191.48,176.37Z" fill="#e52823"/><path d="M206.65,177.75a5.21,5.21,0,0,1-2.14-.42,4.74,4.74,0,0,1-2.6-2.79,5.52,5.52,0,0,1-.35-2,5.59,5.59,0,0,1,.35-2,4.93,4.93,0,0,1,1-1.65,4.85,4.85,0,0,1,1.6-1.12,5.76,5.76,0,0,1,4.27,0,4.77,4.77,0,0,1,2.61,2.77,5.82,5.82,0,0,1,.35,2,5.74,5.74,0,0,1-.35,2,4.8,4.8,0,0,1-2.61,2.79A5.19,5.19,0,0,1,206.65,177.75Zm0-1.91a2.71,2.71,0,0,0,1.23-.27,2.62,2.62,0,0,0,.89-.72,3.28,3.28,0,0,0,.55-1,4.48,4.48,0,0,0,.18-1.27,4.34,4.34,0,0,0-.18-1.25,3.51,3.51,0,0,0-.55-1.05,2.48,2.48,0,0,0-.89-.71,2.71,2.71,0,0,0-1.23-.27,2.72,2.72,0,0,0-2.12,1,3.29,3.29,0,0,0-.55,1.05,4.34,4.34,0,0,0-.18,1.25,4.48,4.48,0,0,0,.18,1.27,3.09,3.09,0,0,0,.55,1,2.79,2.79,0,0,0,.91.72A2.63,2.63,0,0,0,206.65,175.84Z" fill="#e52823"/><path d="M214.47,177.5v-8h-1.65v-1.87h1.65V167a3.44,3.44,0,0,1,.88-2.54,3,3,0,0,1,2.24-.88,3.56,3.56,0,0,1,1.74.37l-.47,1.62a1.55,1.55,0,0,0-.86-.23,1.3,1.3,0,0,0-1,.41,1.86,1.86,0,0,0-.36,1.25v.56h2v1.87h-2v8Z" fill="#e52823"/><path d="M220.81,177.5v-8h-1.64v-1.87h1.64V167a3.44,3.44,0,0,1,.88-2.54,3,3,0,0,1,2.24-.88,3.56,3.56,0,0,1,1.74.37l-.47,1.62a1.55,1.55,0,0,0-.86-.23,1.3,1.3,0,0,0-1,.41A1.86,1.86,0,0,0,223,167v.56h2v1.87h-2v8Z" fill="#e52823"/><path d="M238.89,177.5v-1.35a4.29,4.29,0,0,1-1.39,1.16,3.75,3.75,0,0,1-1.8.44,4.45,4.45,0,0,1-1.75-.35,3.91,3.91,0,0,1-1.39-1,4.93,4.93,0,0,1-.92-1.64,6.78,6.78,0,0,1-.33-2.2,6.6,6.6,0,0,1,.33-2.15,4.93,4.93,0,0,1,.92-1.64,4,4,0,0,1,1.38-1,4.23,4.23,0,0,1,1.76-.36,4,4,0,0,1,1.77.41,4.09,4.09,0,0,1,1.42,1.21v-1.37H241v9.91Zm-2.55-1.66a2.78,2.78,0,0,0,.75-.11,3.16,3.16,0,0,0,.72-.28,4.67,4.67,0,0,0,.61-.42,2.35,2.35,0,0,0,.47-.53v-3.92a3.16,3.16,0,0,0-.47-.51,3.34,3.34,0,0,0-.61-.43,3.74,3.74,0,0,0-.72-.29,2.76,2.76,0,0,0-.75-.1,2.58,2.58,0,0,0-1.17.25,2.75,2.75,0,0,0-.88.67,3,3,0,0,0-.56,1,4,4,0,0,0-.2,1.32,4.08,4.08,0,0,0,.2,1.33,3,3,0,0,0,.56,1,2.55,2.55,0,0,0,.88.69A2.58,2.58,0,0,0,236.34,175.84Z" fill="#e52823"/><path d="M246.38,177.75a2.54,2.54,0,0,1-1.9-.66,2.61,2.61,0,0,1-.65-1.91V163.81H246v10.84a1.52,1.52,0,0,0,.23.85.83.83,0,0,0,.71.34,1.32,1.32,0,0,0,.57-.12,1.15,1.15,0,0,0,.4-.25l.51,1.64a2.23,2.23,0,0,1-.78.45A3.69,3.69,0,0,1,246.38,177.75Z" fill="#e52823"/><path d="M252.25,177.75a2.54,2.54,0,0,1-1.9-.66,2.61,2.61,0,0,1-.65-1.91V163.81h2.16v10.84a1.44,1.44,0,0,0,.23.85.83.83,0,0,0,.71.34,1.35,1.35,0,0,0,.57-.12,1,1,0,0,0,.39-.25l.52,1.64a2.23,2.23,0,0,1-.78.45A3.69,3.69,0,0,1,252.25,177.75Z" fill="#e52823"/><path d="M25.72,199.62a5.29,5.29,0,0,1-2.06-.39A4.9,4.9,0,0,1,22,198.15,5,5,0,0,1,21,196.49a5.86,5.86,0,0,1,0-4.15A4.91,4.91,0,0,1,22,190.7a4.77,4.77,0,0,1,1.62-1.09,5.29,5.29,0,0,1,2.06-.39,5.87,5.87,0,0,1,1.32.14,5,5,0,0,1,1.05.39,4.16,4.16,0,0,1,.81.57,4.68,4.68,0,0,1,.61.66l-1.41,1.3a2.64,2.64,0,0,0-2.28-1.15,2.76,2.76,0,0,0-2.17.91,3.41,3.41,0,0,0-.83,2.37,4,4,0,0,0,.22,1.32,2.9,2.9,0,0,0,.62,1.05,2.79,2.79,0,0,0,.94.69,3,3,0,0,0,1.22.25,2.64,2.64,0,0,0,2.28-1.2l1.41,1.34a5,5,0,0,1-1.43,1.23A4.56,4.56,0,0,1,25.72,199.62Z" fill="#e52823"/><path d="M38.4,199.38V198A4.11,4.11,0,0,1,37,199.19a3.7,3.7,0,0,1-1.79.43,4.29,4.29,0,0,1-1.76-.35,3.77,3.77,0,0,1-1.39-1,4.74,4.74,0,0,1-.91-1.64,6.83,6.83,0,0,1-.33-2.2,6.6,6.6,0,0,1,.33-2.15,4.79,4.79,0,0,1,.91-1.65,4,4,0,0,1,1.38-1,4.31,4.31,0,0,1,1.77-.36,3.89,3.89,0,0,1,1.76.41,4,4,0,0,1,1.42,1.21v-1.37h2.15v9.91Zm-2.54-1.66a2.76,2.76,0,0,0,.74-.11,3.27,3.27,0,0,0,.72-.28,4,4,0,0,0,.62-.43,2.26,2.26,0,0,0,.46-.52v-3.92a2.72,2.72,0,0,0-.46-.51,3,3,0,0,0-.62-.43,3.29,3.29,0,0,0-.72-.29,2.9,2.9,0,0,0-1.91.14,2.71,2.71,0,0,0-.89.68,3.05,3.05,0,0,0-.56,1,4.46,4.46,0,0,0,0,2.64,3.1,3.1,0,0,0,.56,1.05,2.61,2.61,0,0,0,.89.69A2.72,2.72,0,0,0,35.86,197.72Z" fill="#e52823"/><path d="M46.34,199.62a2.58,2.58,0,0,1-1.91-.65,2.67,2.67,0,0,1-.63-1.91v-5.73H42.15v-1.86H43.8v-2.71H46v2.71h2v1.86H46v5.19a1.46,1.46,0,0,0,.24.86.8.8,0,0,0,.7.34,1.32,1.32,0,0,0,.57-.12,1,1,0,0,0,.38-.25l.51,1.64a2.23,2.23,0,0,1-.78.45A3.63,3.63,0,0,1,46.34,199.62Z" fill="#e52823"/><path d="M57.73,199.62a2.59,2.59,0,0,1-1.9-.65,2.63,2.63,0,0,1-.64-1.91V185.69h2.15v10.83a1.46,1.46,0,0,0,.24.86.8.8,0,0,0,.7.34,1.4,1.4,0,0,0,.58-.12,1,1,0,0,0,.39-.25l.51,1.64a2.23,2.23,0,0,1-.78.45A3.67,3.67,0,0,1,57.73,199.62Z" fill="#e52823"/><path d="M62.14,188.25a1.31,1.31,0,0,1-1.33-1.33,1.33,1.33,0,0,1,1.33-1.33,1.3,1.3,0,0,1,1,.39,1.28,1.28,0,0,1,.39.94,1.3,1.3,0,0,1-.39,1A1.33,1.33,0,0,1,62.14,188.25Zm-1.09,11.13v-9.91h2.16v9.91Z" fill="#e52823"/><path d="M69,199.62a2.57,2.57,0,0,1-1.91-.65,2.63,2.63,0,0,1-.64-1.91v-5.73H64.81v-1.86h1.64v-2.71h2.16v2.71h2v1.86h-2v5.19a1.45,1.45,0,0,0,.23.86.83.83,0,0,0,.71.34,1.28,1.28,0,0,0,.56-.12,1,1,0,0,0,.38-.25L71,199a2.23,2.23,0,0,1-.78.45A3.63,3.63,0,0,1,69,199.62Z" fill="#e52823"/><path d="M75.54,199.62a2.58,2.58,0,0,1-1.91-.65,2.67,2.67,0,0,1-.63-1.91v-5.73H71.36v-1.86H73v-2.71h2.15v2.71h2v1.86h-2v5.19a1.46,1.46,0,0,0,.24.86.81.81,0,0,0,.71.34,1.31,1.31,0,0,0,.56-.12,1,1,0,0,0,.38-.25l.51,1.64a2.23,2.23,0,0,1-.78.45A3.63,3.63,0,0,1,75.54,199.62Z" fill="#e52823"/><path d="M83.69,199.62a5.62,5.62,0,0,1-2.08-.37A4.57,4.57,0,0,1,80,198.2a5.06,5.06,0,0,1-1.07-1.65,5.7,5.7,0,0,1-.39-2.14,5.49,5.49,0,0,1,.37-2,4.81,4.81,0,0,1,1-1.65,5,5,0,0,1,1.59-1.11,5,5,0,0,1,2-.41,4.84,4.84,0,0,1,2,.4,4.34,4.34,0,0,1,1.54,1.12,4.92,4.92,0,0,1,1,1.7,6.79,6.79,0,0,1,.34,2.16v.53H80.75a3.17,3.17,0,0,0,.3,1.05,3,3,0,0,0,.64.87,2.78,2.78,0,0,0,1,.59,3.31,3.31,0,0,0,1.25.22,4.4,4.4,0,0,0,1.52-.29,3.56,3.56,0,0,0,1.32-.82l1,1.42a4.94,4.94,0,0,1-1.81,1.08A6.45,6.45,0,0,1,83.69,199.62Zm2.62-6a2.69,2.69,0,0,0-.19-.89,2.78,2.78,0,0,0-.51-.84,2.73,2.73,0,0,0-.85-.63A3,3,0,0,0,83.5,191a2.81,2.81,0,0,0-1.19.24,2.56,2.56,0,0,0-.85.62,2.81,2.81,0,0,0-.52.84,3.07,3.07,0,0,0-.21.91Z" fill="#e52823"/><path d="M90.52,199.38v-9.91h2.16v1.43a4.83,4.83,0,0,1,1.41-1.2,3.61,3.61,0,0,1,1.81-.48v2.13a3.23,3.23,0,0,0-.66-.06,2.81,2.81,0,0,0-.73.11,3.51,3.51,0,0,0-.74.28,3.76,3.76,0,0,0-.64.43,2.36,2.36,0,0,0-.45.52v6.75Z" fill="#e52823"/><path d="M97,199.6a1.36,1.36,0,0,1-1-.43,1.42,1.42,0,0,1-.42-1,1.36,1.36,0,0,1,.42-1,1.44,1.44,0,0,1,2,0,1.36,1.36,0,0,1,.42,1,1.42,1.42,0,0,1-.42,1A1.35,1.35,0,0,1,97,199.6Z" fill="#e52823"/></g></g></svg>