<svg xmlns="http://www.w3.org/2000/svg" viewBox="0 0 728 90"><defs><style>.cls-1{fill:#e52823;}.cls-2{fill:none;}</style></defs><g id="Layer_2" data-name="Layer 2"><g id="sub"><path class="cls-1" d="M284.21,31.62a7,7,0,0,1-2.92-.55,5.86,5.86,0,0,1-2-1.51l1.34-1.62a4.46,4.46,0,0,0,3.58,1.6,2.83,2.83,0,0,0,2-.68,2.36,2.36,0,0,0,0-3.4,2.82,2.82,0,0,0-2-.64,4.41,4.41,0,0,0-1.56.27,4.13,4.13,0,0,0-1.36.87l-1.66-.48V18h8.74v2.08H282v3.82a4.67,4.67,0,0,1,1.28-.8A4.25,4.25,0,0,1,285,22.8a4.69,4.69,0,0,1,1.62.29A4,4,0,0,1,289,25.28a4.85,4.85,0,0,1,0,3.69,4.11,4.11,0,0,1-1.05,1.42,4.6,4.6,0,0,1-1.61.91A6.4,6.4,0,0,1,284.21,31.62Z"/><path class="cls-1" d="M296.31,31.62a4.62,4.62,0,0,1-2.43-.61,5.22,5.22,0,0,1-1.65-1.59,7.46,7.46,0,0,1-1-2.21,10.16,10.16,0,0,1,0-5,7.46,7.46,0,0,1,1-2.21,5.08,5.08,0,0,1,1.65-1.58,4.71,4.71,0,0,1,2.43-.6,4.61,4.61,0,0,1,2.41.6A4.89,4.89,0,0,1,300.37,20a7,7,0,0,1,.95,2.21,10.16,10.16,0,0,1,0,5,7,7,0,0,1-.95,2.21A5,5,0,0,1,298.72,31,4.52,4.52,0,0,1,296.31,31.62Zm0-2.08a2.29,2.29,0,0,0,1.37-.4,2.85,2.85,0,0,0,.91-1.06,5.19,5.19,0,0,0,.5-1.53,9.81,9.81,0,0,0,.16-1.83,10.76,10.76,0,0,0-.15-1.83,4.92,4.92,0,0,0-.5-1.53,2.83,2.83,0,0,0-.91-1.05,2.34,2.34,0,0,0-1.38-.39,2.38,2.38,0,0,0-1.38.39,3,3,0,0,0-.91,1.05,5.5,5.5,0,0,0-.51,1.53,10.55,10.55,0,0,0,0,3.66,5.5,5.5,0,0,0,.51,1.53,3.14,3.14,0,0,0,.91,1.06A2.32,2.32,0,0,0,296.31,29.54Z"/><path class="cls-1" d="M306.35,24.46a3.49,3.49,0,0,1-1.35-.25,3.27,3.27,0,0,1-1.05-.7,3.22,3.22,0,0,1-.68-1.05,3.46,3.46,0,0,1-.24-1.3,3.55,3.55,0,0,1,.24-1.31,3.16,3.16,0,0,1,.68-1.06,3.27,3.27,0,0,1,1.05-.7,3.8,3.8,0,0,1,2.71,0,2.89,2.89,0,0,1,1.05.7,3.14,3.14,0,0,1,.67,1.06,3.55,3.55,0,0,1,.24,1.31,3.46,3.46,0,0,1-.24,1.3,3.2,3.2,0,0,1-.67,1.05,2.89,2.89,0,0,1-1.05.7A3.51,3.51,0,0,1,306.35,24.46Zm0-1.34a1.66,1.66,0,0,0,1.28-.54,2,2,0,0,0,.5-1.43,2.07,2.07,0,0,0-.5-1.46,1.74,1.74,0,0,0-2.54,0,2.12,2.12,0,0,0-.5,1.46,2,2,0,0,0,.5,1.43A1.66,1.66,0,0,0,306.35,23.12Zm-1.3,8.26L313.57,18h1.36l-8.54,13.34Zm8.48.24a3.49,3.49,0,0,1-1.35-.25,3.12,3.12,0,0,1-1.73-1.74,3.46,3.46,0,0,1-.24-1.3,3.55,3.55,0,0,1,.24-1.31,3.22,3.22,0,0,1,.68-1.05,3.27,3.27,0,0,1,1.05-.7,3.49,3.49,0,0,1,1.35-.25,3.42,3.42,0,0,1,1.35.25A3.1,3.1,0,0,1,316.61,27a3.55,3.55,0,0,1,.24,1.31,3.46,3.46,0,0,1-.24,1.3,3.12,3.12,0,0,1-.68,1,3.07,3.07,0,0,1-1.05.7A3.42,3.42,0,0,1,313.53,31.62Zm0-1.34a1.66,1.66,0,0,0,1.28-.54,2,2,0,0,0,.5-1.42,2,2,0,0,0-.5-1.45,1.76,1.76,0,0,0-2.56,0,2.09,2.09,0,0,0-.5,1.45,2,2,0,0,0,.5,1.42A1.68,1.68,0,0,0,313.53,30.28Z"/><path class="cls-1" d="M328.31,31.62a5.15,5.15,0,0,1-2.08-.41,4.74,4.74,0,0,1-1.56-1.1,5,5,0,0,1-1-1.61,5.82,5.82,0,0,1,0-3.92,5,5,0,0,1,1-1.61,4.71,4.71,0,0,1,1.56-1.09,5.15,5.15,0,0,1,2.08-.4,5.08,5.08,0,0,1,2.08.4A4.51,4.51,0,0,1,332,23a4.65,4.65,0,0,1,1,1.61,5.82,5.82,0,0,1,0,3.92,4.65,4.65,0,0,1-1,1.61,4.54,4.54,0,0,1-1.56,1.1A5.08,5.08,0,0,1,328.31,31.62Zm0-1.86a2.65,2.65,0,0,0,1.2-.26,2.49,2.49,0,0,0,.87-.7,3,3,0,0,0,.53-1,4.16,4.16,0,0,0,.18-1.23,4.09,4.09,0,0,0-.18-1.22,2.91,2.91,0,0,0-.53-1,2.49,2.49,0,0,0-.87-.7,2.85,2.85,0,0,0-2.38,0,2.73,2.73,0,0,0-.88.7,2.93,2.93,0,0,0-.54,1,4.09,4.09,0,0,0-.18,1.22,4.16,4.16,0,0,0,.18,1.23,3,3,0,0,0,.54,1,2.73,2.73,0,0,0,.88.7A2.66,2.66,0,0,0,328.31,29.76Z"/><path class="cls-1" d="M335.93,31.38V23.54h-1.6V21.72h1.6v-.54a3.37,3.37,0,0,1,.86-2.48,3,3,0,0,1,2.18-.86,3.51,3.51,0,0,1,1.7.36l-.46,1.58a1.46,1.46,0,0,0-.84-.22,1.25,1.25,0,0,0-1,.4,1.83,1.83,0,0,0-.35,1.22v.54h2v1.82h-2v7.84Z"/><path class="cls-1" d="M342.11,31.38V23.54h-1.6V21.72h1.6v-.54A3.37,3.37,0,0,1,343,18.7a3,3,0,0,1,2.18-.86,3.51,3.51,0,0,1,1.7.36l-.46,1.58a1.46,1.46,0,0,0-.84-.22,1.25,1.25,0,0,0-1,.4,1.83,1.83,0,0,0-.35,1.22v.54h2v1.82h-2v7.84Z"/><path class="cls-1" d="M356.25,31.62a6.68,6.68,0,0,1-2.32-.39,5.23,5.23,0,0,1-1.82-1.13l1-1.5a4.65,4.65,0,0,0,.62.5,5.49,5.49,0,0,0,.8.43,5.1,5.1,0,0,0,.91.3,4.36,4.36,0,0,0,.93.11,2.46,2.46,0,0,0,1.44-.35,1.09,1.09,0,0,0,.48-.93.77.77,0,0,0-.43-.72,4.3,4.3,0,0,0-1.08-.4c-.43-.11-.9-.21-1.41-.32a6.51,6.51,0,0,1-1.41-.48,3.14,3.14,0,0,1-1.08-.86,2.35,2.35,0,0,1-.43-1.48,2.7,2.7,0,0,1,.25-1.13,2.81,2.81,0,0,1,.73-.93,3.46,3.46,0,0,1,1.19-.63,5.44,5.44,0,0,1,1.63-.23,5.76,5.76,0,0,1,2.17.38,5.08,5.08,0,0,1,1.57,1l-.88,1.48a3.62,3.62,0,0,0-1.19-.82,3.93,3.93,0,0,0-1.67-.34,2.19,2.19,0,0,0-1.31.34,1,1,0,0,0-.47.86.71.71,0,0,0,.43.64,4.68,4.68,0,0,0,1.08.37l1.41.32a5.74,5.74,0,0,1,1.41.5,3,3,0,0,1,1.08.9,2.46,2.46,0,0,1,.43,1.53,2.7,2.7,0,0,1-.26,1.2,2.62,2.62,0,0,1-.77,1,3.72,3.72,0,0,1-1.26.63A6,6,0,0,1,356.25,31.62Z"/><path class="cls-1" d="M366.85,31.62a5.59,5.59,0,0,1-2-.36,4.54,4.54,0,0,1-1.6-1,5,5,0,0,1-1.05-1.61,5.58,5.58,0,0,1-.38-2.08,5.42,5.42,0,0,1,.36-2,4.84,4.84,0,0,1,1-1.61,5,5,0,0,1,1.55-1.08,5.11,5.11,0,0,1,3.94,0,4.21,4.21,0,0,1,1.5,1.09,4.77,4.77,0,0,1,1,1.66,6.42,6.42,0,0,1,.33,2.1v.52H364a3.23,3.23,0,0,0,.29,1,3,3,0,0,0,.62.85,2.76,2.76,0,0,0,.93.58,3.36,3.36,0,0,0,1.22.21,4.16,4.16,0,0,0,1.48-.28,3.4,3.4,0,0,0,1.28-.8l1,1.38A4.82,4.82,0,0,1,369,31.26,6.44,6.44,0,0,1,366.85,31.62Zm2.56-5.88a2.8,2.8,0,0,0-.69-1.69,2.49,2.49,0,0,0-.83-.61,2.79,2.79,0,0,0-1.22-.24,2.82,2.82,0,0,0-1.16.23,2.43,2.43,0,0,0-.83.6,2.81,2.81,0,0,0-.51.82,2.92,2.92,0,0,0-.2.89Z"/><path class="cls-1" d="M376,31.62a2.48,2.48,0,0,1-1.85-.64,2.55,2.55,0,0,1-.63-1.86V18h2.1V28.6a1.45,1.45,0,0,0,.23.83.8.8,0,0,0,.69.33,1.47,1.47,0,0,0,.56-.11,1,1,0,0,0,.38-.25L378,31a2.27,2.27,0,0,1-.76.44A3.53,3.53,0,0,1,376,31.62Z"/><path class="cls-1" d="M383.71,31.62a5.59,5.59,0,0,1-2-.36,4.54,4.54,0,0,1-1.6-1A4.68,4.68,0,0,1,379,28.62a5.58,5.58,0,0,1-.38-2.08,5.42,5.42,0,0,1,.36-2A4.84,4.84,0,0,1,380,23a4.9,4.9,0,0,1,1.55-1.08,5.11,5.11,0,0,1,3.94,0A4.21,4.21,0,0,1,387,23a4.93,4.93,0,0,1,.95,1.66,6.42,6.42,0,0,1,.33,2.1v.52h-7.44a3.23,3.23,0,0,0,.29,1,2.86,2.86,0,0,0,.62.85,2.76,2.76,0,0,0,.93.58,3.36,3.36,0,0,0,1.22.21,4.21,4.21,0,0,0,1.48-.28,3.48,3.48,0,0,0,1.28-.8l1,1.38a4.82,4.82,0,0,1-1.76,1.06A6.44,6.44,0,0,1,383.71,31.62Zm2.56-5.88a2.84,2.84,0,0,0-.19-.87,2.57,2.57,0,0,0-1.33-1.43,3.13,3.13,0,0,0-2.38,0,2.43,2.43,0,0,0-.83.6,2.81,2.81,0,0,0-.51.82,2.66,2.66,0,0,0-.2.89Z"/><path class="cls-1" d="M394.77,31.62a5.25,5.25,0,0,1-2-.38,4.63,4.63,0,0,1-1.57-1.06,4.88,4.88,0,0,1-1-1.61,5.39,5.39,0,0,1-.37-2,5.3,5.3,0,0,1,.37-2,4.94,4.94,0,0,1,1-1.6,4.63,4.63,0,0,1,1.57-1.06,5.25,5.25,0,0,1,2-.38,5.6,5.6,0,0,1,1.29.14,4.24,4.24,0,0,1,1,.38,3.83,3.83,0,0,1,.79.55,4.53,4.53,0,0,1,.6.65l-1.38,1.26a2.56,2.56,0,0,0-2.22-1.12,2.72,2.72,0,0,0-2.12.89,3.33,3.33,0,0,0-.8,2.31,3.79,3.79,0,0,0,.21,1.29,3.06,3.06,0,0,0,.6,1,2.76,2.76,0,0,0,.92.67,2.84,2.84,0,0,0,1.19.24,2.6,2.6,0,0,0,2.22-1.16l1.38,1.3a4.92,4.92,0,0,1-1.4,1.2A4.45,4.45,0,0,1,394.77,31.62Z"/><path class="cls-1" d="M403.25,31.62a2.45,2.45,0,0,1-1.86-.64,2.59,2.59,0,0,1-.62-1.86V23.54h-1.6V21.72h1.6V19.08h2.1v2.64h2v1.82h-2V28.6a1.45,1.45,0,0,0,.23.83.78.78,0,0,0,.69.33,1.42,1.42,0,0,0,.55-.11,1,1,0,0,0,.37-.25l.5,1.6a2.38,2.38,0,0,1-.76.44A3.45,3.45,0,0,1,403.25,31.62Z"/><path class="cls-1" d="M282.73,51.38V40.12h-4V38h10.42v2.08h-4V51.38Z"/><path class="cls-1" d="M293.31,51.62a5.15,5.15,0,0,1-2.08-.41,4.74,4.74,0,0,1-1.56-1.1,5,5,0,0,1-1-1.61,5.82,5.82,0,0,1,0-3.92,5,5,0,0,1,1-1.61,4.71,4.71,0,0,1,1.56-1.09,5.15,5.15,0,0,1,2.08-.4,5.08,5.08,0,0,1,2.08.4A4.51,4.51,0,0,1,297,43a4.65,4.65,0,0,1,1,1.61,5.82,5.82,0,0,1,0,3.92,4.65,4.65,0,0,1-1,1.61,4.54,4.54,0,0,1-1.56,1.1A5.08,5.08,0,0,1,293.31,51.62Zm0-1.86a2.65,2.65,0,0,0,1.2-.26,2.49,2.49,0,0,0,.87-.7,3,3,0,0,0,.53-1,4.16,4.16,0,0,0,.18-1.23,4.09,4.09,0,0,0-.18-1.22,2.91,2.91,0,0,0-.53-1,2.49,2.49,0,0,0-.87-.7,2.85,2.85,0,0,0-2.38,0,2.73,2.73,0,0,0-.88.7,2.93,2.93,0,0,0-.54,1,4.09,4.09,0,0,0-.18,1.22,4.16,4.16,0,0,0,.18,1.23,3,3,0,0,0,.54,1,2.73,2.73,0,0,0,.88.7A2.66,2.66,0,0,0,293.31,49.76Z"/><path class="cls-1" d="M305.61,51.62a3.72,3.72,0,0,1-1.71-.41A4.26,4.26,0,0,1,302.51,50v5h-2.1V41.72h2.1V43a4,4,0,0,1,1.34-1.14,3.75,3.75,0,0,1,1.76-.42,4.19,4.19,0,0,1,1.72.34,3.87,3.87,0,0,1,1.35,1,4.54,4.54,0,0,1,.89,1.59,7.32,7.32,0,0,1,0,4.28,4.54,4.54,0,0,1-.89,1.59,3.9,3.9,0,0,1-1.35,1A4.2,4.2,0,0,1,305.61,51.62ZM305,49.76a2.45,2.45,0,0,0,2-.9,3.49,3.49,0,0,0,.74-2.32,3.45,3.45,0,0,0-.74-2.31,2.47,2.47,0,0,0-2-.89,3,3,0,0,0-1.43.37,2.87,2.87,0,0,0-1.05.91v3.82A2.44,2.44,0,0,0,303,49a3.22,3.22,0,0,0,.6.42,3.53,3.53,0,0,0,.7.28A2.67,2.67,0,0,0,305,49.76Z"/><path class="cls-1" d="M317.21,51.38V38h5.88a4.85,4.85,0,0,1,1.85.33,4,4,0,0,1,1.37.9,3.5,3.5,0,0,1,.84,1.33,4.6,4.6,0,0,1,.28,1.62,4.32,4.32,0,0,1-.29,1.6,3.76,3.76,0,0,1-.84,1.33,3.85,3.85,0,0,1-1.36.9,4.85,4.85,0,0,1-1.85.33h-3.54v5Zm5.56-7.08a2.37,2.37,0,0,0,1.63-.56,2,2,0,0,0,.63-1.52,2,2,0,0,0-.63-1.53,2.33,2.33,0,0,0-1.63-.57h-3.22V44.3Z"/><path class="cls-1" d="M335.83,51.38V50.06a4.11,4.11,0,0,1-1.35,1.14,3.65,3.65,0,0,1-1.75.42,4.25,4.25,0,0,1-1.71-.34,3.81,3.81,0,0,1-1.36-1,4.85,4.85,0,0,1-.89-1.6,6.73,6.73,0,0,1-.32-2.14,6.61,6.61,0,0,1,.32-2.1,4.85,4.85,0,0,1,.89-1.6,3.81,3.81,0,0,1,1.35-1,4.23,4.23,0,0,1,1.72-.35,3.72,3.72,0,0,1,1.72.4,3.79,3.79,0,0,1,1.38,1.18V41.72h2.1v9.66Zm-2.48-1.62a2.62,2.62,0,0,0,.73-.1,3.3,3.3,0,0,0,.7-.28,3.73,3.73,0,0,0,.6-.41,2.17,2.17,0,0,0,.45-.51V44.64a3,3,0,0,0-.45-.5,3.22,3.22,0,0,0-.6-.42,3.3,3.3,0,0,0-.7-.28,2.6,2.6,0,0,0-2.73.8,3,3,0,0,0-.55,1,4.47,4.47,0,0,0,0,2.58,3.13,3.13,0,0,0,.55,1,2.54,2.54,0,0,0,.86.67A2.64,2.64,0,0,0,333.35,49.76Z"/><path class="cls-1" d="M349.09,51.38l-2.26-7.08-2.24,7.08h-2.2l-3-9.66h2.18l2,7,2.3-7h1.86l2.28,7,2-7h2.2l-3,9.66Z"/><path class="cls-1" d="M359.75,39.3a2.39,2.39,0,0,1-.2,1,2.64,2.64,0,0,1-.52.79,2.55,2.55,0,0,1-.79.53,2.55,2.55,0,0,1-1.93,0A2.46,2.46,0,0,1,355,40.26a2.57,2.57,0,0,1-.19-1,2.62,2.62,0,0,1,.19-1,2.55,2.55,0,0,1,.53-.79,2.64,2.64,0,0,1,.79-.52,2.55,2.55,0,0,1,1.93,0,2.34,2.34,0,0,1,1.31,1.31A2.44,2.44,0,0,1,359.75,39.3Zm-.35,0a2.14,2.14,0,0,0-.17-.84,2.08,2.08,0,0,0-.45-.67,2.37,2.37,0,0,0-.68-.45,2.12,2.12,0,0,0-.83-.16,2.08,2.08,0,0,0-.83.16,2.32,2.32,0,0,0-.67.45,2.1,2.1,0,0,0-.46.67,2.32,2.32,0,0,0-.16.84,2.17,2.17,0,0,0,.16.81,2.1,2.1,0,0,0,.46.67,2.17,2.17,0,0,0,.67.46,2.09,2.09,0,0,0,.83.17,2.12,2.12,0,0,0,.83-.17,2.21,2.21,0,0,0,.68-.46,2.08,2.08,0,0,0,.45-.67A2,2,0,0,0,359.4,39.3ZM358,40.72l-.73-1.12h-.51v1.12h-.38V37.89h1.16a.93.93,0,0,1,.64.23.8.8,0,0,1,.27.63.82.82,0,0,1-.08.4.8.8,0,0,1-.22.26.89.89,0,0,1-.25.14.54.54,0,0,1-.18,0l.76,1.13Zm.05-2a.53.53,0,0,0-.52-.52h-.77v1h.77a.54.54,0,0,0,.35-.14A.45.45,0,0,0,358,38.75Z"/><path class="cls-1" d="M286.29,71.38V70.06a4.11,4.11,0,0,1-1.35,1.14,3.65,3.65,0,0,1-1.75.42,4.25,4.25,0,0,1-1.71-.34,3.81,3.81,0,0,1-1.36-1,4.85,4.85,0,0,1-.89-1.6,6.73,6.73,0,0,1-.32-2.14,6.61,6.61,0,0,1,.32-2.1,4.85,4.85,0,0,1,.89-1.6,3.81,3.81,0,0,1,1.35-1,4.23,4.23,0,0,1,1.72-.35,3.72,3.72,0,0,1,1.72.4,3.79,3.79,0,0,1,1.38,1.18V58h2.1V71.38Zm-2.48-1.62a2.62,2.62,0,0,0,.73-.1,3.3,3.3,0,0,0,.7-.28,3.73,3.73,0,0,0,.6-.41,2.17,2.17,0,0,0,.45-.51V64.64a3,3,0,0,0-.45-.5,3.22,3.22,0,0,0-.6-.42,3.3,3.3,0,0,0-.7-.28,2.6,2.6,0,0,0-2.73.8,3,3,0,0,0-.55,1,4.47,4.47,0,0,0,0,2.58,3.13,3.13,0,0,0,.55,1,2.54,2.54,0,0,0,.86.67A2.64,2.64,0,0,0,283.81,69.76Z"/><path class="cls-1" d="M295.49,71.62a5.15,5.15,0,0,1-2.08-.41,4.74,4.74,0,0,1-1.56-1.1,5,5,0,0,1-1-1.61,5.82,5.82,0,0,1,0-3.92,5,5,0,0,1,1-1.61,4.71,4.71,0,0,1,1.56-1.09,5.15,5.15,0,0,1,2.08-.4,5.08,5.08,0,0,1,2.08.4A4.51,4.51,0,0,1,299.13,63a4.65,4.65,0,0,1,1,1.61,5.82,5.82,0,0,1,0,3.92,4.65,4.65,0,0,1-1,1.61,4.54,4.54,0,0,1-1.56,1.1A5.08,5.08,0,0,1,295.49,71.62Zm0-1.86a2.65,2.65,0,0,0,1.2-.26,2.49,2.49,0,0,0,.87-.7,3,3,0,0,0,.53-1,4.16,4.16,0,0,0,.18-1.23,4.09,4.09,0,0,0-.18-1.22,2.91,2.91,0,0,0-.53-1,2.49,2.49,0,0,0-.87-.7,2.85,2.85,0,0,0-2.38,0,2.73,2.73,0,0,0-.88.7,2.93,2.93,0,0,0-.54,1,4.09,4.09,0,0,0-.18,1.22,4.16,4.16,0,0,0,.18,1.23,3,3,0,0,0,.54,1,2.73,2.73,0,0,0,.88.7A2.66,2.66,0,0,0,295.49,69.76Z"/><path class="cls-1" d="M306.53,75.3a7.09,7.09,0,0,1-2.2-.31,5.12,5.12,0,0,1-1.86-1.13l1-1.52a3.47,3.47,0,0,0,1.36,1,4.89,4.89,0,0,0,1.72.28,4,4,0,0,0,1-.13,2.55,2.55,0,0,0,.92-.45,2.18,2.18,0,0,0,.66-.83,2.88,2.88,0,0,0,.25-1.29v-1.1A4.24,4.24,0,0,1,308,71a3.55,3.55,0,0,1-1.75.44,4.42,4.42,0,0,1-1.71-.33,3.83,3.83,0,0,1-1.36-1,4.6,4.6,0,0,1-.89-1.55,6.52,6.52,0,0,1-.32-2.12,6.44,6.44,0,0,1,.32-2.1,4.75,4.75,0,0,1,.89-1.56,3.7,3.7,0,0,1,1.35-1,4.39,4.39,0,0,1,1.72-.33,3.72,3.72,0,0,1,1.72.4,3.79,3.79,0,0,1,1.38,1.18V61.72h2.1v9.16a4.62,4.62,0,0,1-.44,2.16,3.58,3.58,0,0,1-1.15,1.36,4.36,4.36,0,0,1-1.6.7A8.21,8.21,0,0,1,306.53,75.3Zm.38-5.78a3.22,3.22,0,0,0,2.48-1.28V64.62a3.22,3.22,0,0,0-2.48-1.28,2.52,2.52,0,0,0-2,.85,3.33,3.33,0,0,0-.74,2.25,3.29,3.29,0,0,0,.74,2.24A2.54,2.54,0,0,0,306.91,69.52Z"/><path class="cls-1" d="M322.29,71.62a2.49,2.49,0,0,1-1.86-.64,2.59,2.59,0,0,1-.62-1.86V63.54h-1.6V61.72h1.6V59.08h2.1v2.64h2v1.82h-2V68.6a1.45,1.45,0,0,0,.23.83.8.8,0,0,0,.69.33,1.38,1.38,0,0,0,.55-.11,1,1,0,0,0,.37-.25l.5,1.6a2.27,2.27,0,0,1-.76.44A3.45,3.45,0,0,1,322.29,71.62Z"/><path class="cls-1" d="M330.13,71.62a5.15,5.15,0,0,1-2.08-.41,4.74,4.74,0,0,1-1.56-1.1,5,5,0,0,1-1-1.61,5.82,5.82,0,0,1,0-3.92,5,5,0,0,1,1-1.61,4.71,4.71,0,0,1,1.56-1.09,5.15,5.15,0,0,1,2.08-.4,5.08,5.08,0,0,1,2.08.4A4.51,4.51,0,0,1,333.77,63a4.65,4.65,0,0,1,1,1.61,5.82,5.82,0,0,1,0,3.92,4.65,4.65,0,0,1-1,1.61,4.54,4.54,0,0,1-1.56,1.1A5.08,5.08,0,0,1,330.13,71.62Zm0-1.86a2.65,2.65,0,0,0,1.2-.26,2.49,2.49,0,0,0,.87-.7,3,3,0,0,0,.53-1,4.16,4.16,0,0,0,.18-1.23,4.09,4.09,0,0,0-.18-1.22,2.91,2.91,0,0,0-.53-1,2.49,2.49,0,0,0-.87-.7,2.85,2.85,0,0,0-2.38,0,2.73,2.73,0,0,0-.88.7,2.93,2.93,0,0,0-.54,1,4.09,4.09,0,0,0-.18,1.22,4.16,4.16,0,0,0,.18,1.23,3,3,0,0,0,.54,1,2.73,2.73,0,0,0,.88.7A2.66,2.66,0,0,0,330.13,69.76Z"/><path class="cls-1" d="M341,75.3a6.27,6.27,0,0,1-2.16-.35,5.39,5.39,0,0,1-1.74-1.09l1-1.52a2.92,2.92,0,0,0,1.3,1,4.69,4.69,0,0,0,1.62.29,2.76,2.76,0,0,0,2-.69,2.62,2.62,0,0,0,.72-2V69.78a4.87,4.87,0,0,1-1.39,1,4.2,4.2,0,0,1-2,.47,3.14,3.14,0,0,1-2.34-.79,3.1,3.1,0,0,1-.78-2.27V61.72h2.1v5.74a1.92,1.92,0,0,0,.53,1.55,2.2,2.2,0,0,0,1.43.43,2.74,2.74,0,0,0,1.45-.39,3.39,3.39,0,0,0,1-.87V61.72h2.1V70.9a4.75,4.75,0,0,1-.36,1.91,3.69,3.69,0,0,1-1,1.38A4.35,4.35,0,0,1,343,75,6.14,6.14,0,0,1,341,75.3Z"/><path class="cls-1" d="M351.89,71.62a6.68,6.68,0,0,1-2.32-.39,5.23,5.23,0,0,1-1.82-1.13l1-1.5a4.65,4.65,0,0,0,.62.5,5.49,5.49,0,0,0,.8.43,5.1,5.1,0,0,0,.91.3,4.36,4.36,0,0,0,.93.11,2.46,2.46,0,0,0,1.44-.35,1.09,1.09,0,0,0,.48-.93.77.77,0,0,0-.43-.72,4.3,4.3,0,0,0-1.08-.4c-.43-.11-.9-.21-1.41-.32a6.51,6.51,0,0,1-1.41-.48,3.14,3.14,0,0,1-1.08-.86,2.35,2.35,0,0,1-.43-1.48,2.7,2.7,0,0,1,.25-1.13,2.81,2.81,0,0,1,.73-.93,3.46,3.46,0,0,1,1.19-.63,5.44,5.44,0,0,1,1.63-.23,5.76,5.76,0,0,1,2.17.38,5.08,5.08,0,0,1,1.57,1l-.88,1.48a3.62,3.62,0,0,0-1.19-.82,3.93,3.93,0,0,0-1.67-.34,2.19,2.19,0,0,0-1.31.34,1,1,0,0,0-.47.86.71.71,0,0,0,.43.64,4.68,4.68,0,0,0,1.08.37l1.41.32a5.74,5.74,0,0,1,1.41.5,3,3,0,0,1,1.08.9,2.46,2.46,0,0,1,.43,1.53,2.7,2.7,0,0,1-.26,1.2,2.62,2.62,0,0,1-.77,1,3.72,3.72,0,0,1-1.26.63A6,6,0,0,1,351.89,71.62Z"/></g><g id="REC"><rect class="cls-2" width="728" height="90"/></g></g></svg>