<svg xmlns="http://www.w3.org/2000/svg" viewBox="0 0 301.17 600"><g id="Layer_2" data-name="Layer 2"><g id="content"><rect width="300" height="600"/><rect x="0.36" width="300" height="600" fill="none"/><path d="M143.66,251.34c0,1.84,0,3.53,0,5.37,1.09.06,2.32.28,3.4.37,0,4.47-.11,7.86-.12,12.34,3,.36,5.16.71,6,.86,0-4.48.18-8,.18-12.48,0,0,3.19.5,3.25.54,0-1.84,0-3.68,0-5.51a98,98,0,0,0-12.69-1.49Z" fill="#fff"/><path d="M44.1,244.86c19.06-5.82,28.69,8.77,28.69,8.77s-6.05-20.36-28.69-8.77Z" fill="#fff"/><path d="M81,245.61a5.14,5.14,0,0,1,0-.68,14.2,14.2,0,0,0-7.52,10.93s2.59-6,8.69-7.86A3.68,3.68,0,0,1,81,245.61Z" fill="#fff"/><path d="M56.63,254.12s0,2.88,0,4.33c-.73,0-3.9-.2-5.29-.25,0,.78,0,1.58,0,2.36,1.67,0,3.4.23,5.06.21,0,1.4,0,2.6,0,4-1.66,0-3.33-.14-5-.17,0,.85,0,1.7,0,2.54,1.8,0,3.59.19,5.39.17,0-.07,0,4.25,0,4.25-3.55,0-7.75-.28-11.73-.61l.28-17.71c1.68.19,6.88.75,11.4.88Z" fill="#fff"/><path d="M58.14,254.16l-.06,4.62c1.67.09,3.17.09,3.17.09l0,12.84a40.35,40.35,0,0,0,6.4-.09l-.07-12.71s2.83-.13,3.27-.17c0-1.7,0-3-.06-4.72a113.13,113.13,0,0,1-12.63.14Z" fill="#fff"/><path d="M36,260l-.56-.06c0-1.22,0-2.43,0-3.64l.53.05a1.85,1.85,0,0,1,1.85,1.95c0,1.5-.94,1.79-1.86,1.7Zm1.41-8.57L29.83,250l0,18.58c1.95.38,3.73.7,5.62.91l0-5.36c.67.07,1.39.16,2.05.22,3.29.31,6.61-.93,6.66-6.31,0-4.77-3.14-6.15-6.66-6.67Z" fill="#fff"/><path d="M100.73,268.68c.85-2.22,1.7-4.29,2.55-6.5.13,2.12.21,4,.35,6.15,2.12-.23,3.82-.36,6-.49-.55-5.64-1-11.69-1.58-17.34l-5.46.5c-1,2.67-2,5.9-3.07,8.57-1-2.47-2-5.36-3-7.82-1.84.26-5.13.83-5.46.84-.63,5.75-1.35,12.14-2,17.89,1.46-.25,5-.81,6.07-1,.17-2.14.33-4.44.5-6.58l2.46,6.14,2.64-.4Z" fill="#fff"/><path d="M134.4,258.94l-.56,0c0-1.2,0-2.4,0-3.6l.54,0a1.79,1.79,0,0,1,1.85,1.89,1.53,1.53,0,0,1-1.87,1.7Zm5.27,3.82c1.62-.72,2.79-2.29,2.83-5.41.06-4.7-3.26-6.7-6.62-7-2.54-.2-5.09-.33-7.63-.4-.08,6-.11,11.43-.19,17.4,1.9.05,4,.19,5.65.33,0-1.68,0-2.92.07-4.6,1.09,1.75,2,3.2,3.06,5,2.34.21,4.74.51,7.08.85-1.47-2.18-2.79-4.05-4.25-6.19Z" fill="#fff"/><path d="M117.45,261.61l1.19-4.52c.45,1.48.91,3,1.36,4.46-2.6.09-2.6.06-2.55.06Zm4.15-11.75c-2.26,0-4.11,0-6,.12-1.56,5.79-3.39,12-4.94,17.79,1.73,0,3.48-.15,5.21-.15l.5-1.93,2.64-.07c-.06,0,2.33-.07,2.33-.07.06.23.28.83.58,1.85,1.73,0,3.46,0,5.19,0-1.87-6.13-3.76-12-5.47-17.58Z" fill="#fff"/><path d="M72.79,270.06a15.55,15.55,0,0,0,7,1.78c4,0,8.13-2.38,8.22-6.83.06-3.16-2-4.67-4.76-5.29l-1.5-.34c-.51-.13-1.34-.22-1.33-.92s.88-1,1.46-1a10.63,10.63,0,0,1,4,.86l1.69-4.47a13.24,13.24,0,0,0-5.79-1.38c-4,0-8,2.42-8.09,6.84-.06,2.92,2.1,4.52,4.69,5l1.34.25c.61.12,1.48.2,1.46,1s-1,.93-1.71.93A7.89,7.89,0,0,1,75,265c-.68,1.55-1.5,3.47-2.19,5Z" fill="#fff"/><path d="M87.16,239.8a4.47,4.47,0,1,0,4.41,4.52A4.47,4.47,0,0,0,87.16,239.8Zm1.62,1.65a5.34,5.34,0,0,0-4.8,2.8.17.17,0,0,0,0,.07,3.11,3.11,0,0,1,.11-1.24,3,3,0,0,1,3.71-2.17,2.8,2.8,0,0,1,1,.56Z" fill="#fff"/><path d="M1,599.69c1.28-91.93,67.13-154.26,150-154.26S301.17,514.5,301.17,599.69" fill="#e52823"/><g id="Layer_5" data-name="Layer 5"><path d="M23.08,55.88V35.5h10a6.92,6.92,0,0,1,2.49.41A5.26,5.26,0,0,1,37.41,37a4.76,4.76,0,0,1,1.11,1.65,5.21,5.21,0,0,1,.38,2,4.89,4.89,0,0,1-.29,1.74,4.59,4.59,0,0,1-.78,1.39,4.45,4.45,0,0,1-1.13,1,4.22,4.22,0,0,1-1.34.55,4.09,4.09,0,0,1,1.54.56A4.77,4.77,0,0,1,38.15,47,5.43,5.43,0,0,1,39,48.56a5.32,5.32,0,0,1,.3,1.78,6.27,6.27,0,0,1-.38,2.2,4.86,4.86,0,0,1-3,2.92,7.18,7.18,0,0,1-2.55.42Zm9.31-12a2.83,2.83,0,0,0,2.11-.73,2.5,2.5,0,0,0,.74-1.87,2.56,2.56,0,0,0-.74-1.86,2.84,2.84,0,0,0-2.11-.74H26.65v5.2Zm.16,8.83A3.2,3.2,0,0,0,34.82,52a2.68,2.68,0,0,0,.81-2.08,2.82,2.82,0,0,0-.78-2,3,3,0,0,0-2.3-.83h-5.9V52.7Z" fill="#fff"/><path d="M46.6,56.24a3.75,3.75,0,0,1-2.82-1,3.84,3.84,0,0,1-1-2.84V35.5H46V51.63a2.21,2.21,0,0,0,.35,1.27,1.23,1.23,0,0,0,1.06.5,2.19,2.19,0,0,0,.85-.17,1.49,1.49,0,0,0,.58-.38l.77,2.44a3.55,3.55,0,0,1-1.16.68A5.48,5.48,0,0,1,46.6,56.24Z" fill="#fff"/><path d="M61.94,55.88v-2a6.49,6.49,0,0,1-2.06,1.74,5.61,5.61,0,0,1-2.68.64,6.51,6.51,0,0,1-2.61-.52,5.54,5.54,0,0,1-2.07-1.53,7,7,0,0,1-1.36-2.44,10,10,0,0,1-.49-3.27,9.83,9.83,0,0,1,.49-3.21,7.05,7.05,0,0,1,1.36-2.44,5.76,5.76,0,0,1,2.06-1.54,6.27,6.27,0,0,1,2.62-.54,5.78,5.78,0,0,1,4.74,2.41v-2h3.21V55.88ZM58.15,53.4a4.37,4.37,0,0,0,1.12-.15,5.21,5.21,0,0,0,1.07-.43,4.91,4.91,0,0,0,.91-.63,3.17,3.17,0,0,0,.69-.78V45.58a4.07,4.07,0,0,0-.69-.77,5.48,5.48,0,0,0-.91-.64,5.17,5.17,0,0,0-1.07-.42,4,4,0,0,0-1.12-.16,3.9,3.9,0,0,0-1.74.37,3.81,3.81,0,0,0-1.31,1,4.33,4.33,0,0,0-.84,1.54,6.84,6.84,0,0,0,0,3.94A4.51,4.51,0,0,0,55.1,52a3.72,3.72,0,0,0,1.31,1A3.9,3.9,0,0,0,58.15,53.4Z" fill="#fff"/><path d="M76,56.24A7.81,7.81,0,0,1,73,55.66,7.16,7.16,0,0,1,70.56,54,7.32,7.32,0,0,1,69,51.58a8.42,8.42,0,0,1-.56-3.1A8.28,8.28,0,0,1,69,45.4,7.38,7.38,0,0,1,70.56,43,7.16,7.16,0,0,1,73,41.33,7.81,7.81,0,0,1,76,40.75,8.44,8.44,0,0,1,78,41a6.84,6.84,0,0,1,1.56.59,5.58,5.58,0,0,1,1.2.84,7.11,7.11,0,0,1,.92,1L79.57,45.3a3.94,3.94,0,0,0-3.39-1.71A4.17,4.17,0,0,0,72.94,45a5.12,5.12,0,0,0-1.22,3.53,5.94,5.94,0,0,0,.32,2A4.51,4.51,0,0,0,73,52a4,4,0,0,0,1.4,1,4.29,4.29,0,0,0,1.82.37,3.94,3.94,0,0,0,3.39-1.77l2.11,2a7.23,7.23,0,0,1-2.14,1.84A6.86,6.86,0,0,1,76,56.24Z" fill="#fff"/><path d="M94.3,55.88l-4.49-6.12L87.73,51.9v4H84.52V35.5h3.21V48.24l6.51-7.12h4L92.1,47.81l6.23,8.07Z" fill="#fff"/><path d="M108.6,55.88V35.5h14v3.17H112.17v5.2h10.18v3.18H112.17v8.83Z" fill="#fff"/><path d="M125.71,55.88V41.12h3.21v2.14a7.29,7.29,0,0,1,2.1-1.79,5.34,5.34,0,0,1,2.69-.72v3.18a4.74,4.74,0,0,0-1-.09,4.25,4.25,0,0,0-1.08.15,5.12,5.12,0,0,0-1.1.43,4.34,4.34,0,0,0-1,.64,3.1,3.1,0,0,0-.67.76V55.88Z" fill="#fff"/><path d="M137.93,39.31a2,2,0,0,1-2-2,2,2,0,0,1,2-2,2,2,0,0,1,2,2,2,2,0,0,1-2,2Zm-1.62,16.57V41.12h3.21V55.88Z" fill="#fff"/><path d="M154.06,55.88v-2A6.49,6.49,0,0,1,152,55.6a5.6,5.6,0,0,1-2.67.64,6.52,6.52,0,0,1-2.62-.52,5.65,5.65,0,0,1-2.08-1.53,7.29,7.29,0,0,1-1.36-2.44,10.32,10.32,0,0,1-.48-3.27,10.11,10.11,0,0,1,.48-3.21,7.39,7.39,0,0,1,1.36-2.44,5.88,5.88,0,0,1,2.07-1.54,6.28,6.28,0,0,1,2.63-.54,5.87,5.87,0,0,1,2.62.61,5.93,5.93,0,0,1,2.11,1.8V35.5h3.21V55.88Zm-3.79-2.48a4.37,4.37,0,0,0,1.12-.15,5.21,5.21,0,0,0,1.07-.43,4.91,4.91,0,0,0,.91-.63,3.17,3.17,0,0,0,.69-.78V45.58a4.07,4.07,0,0,0-.69-.77,5.48,5.48,0,0,0-.91-.64,5.17,5.17,0,0,0-1.07-.42,4,4,0,0,0-1.12-.16,3.9,3.9,0,0,0-1.74.37,3.81,3.81,0,0,0-1.31,1,4.33,4.33,0,0,0-.84,1.54,6.84,6.84,0,0,0,0,3.94,4.51,4.51,0,0,0,.84,1.56,3.72,3.72,0,0,0,1.31,1A3.9,3.9,0,0,0,150.27,53.4Z" fill="#fff"/><path d="M171.81,55.88v-2a6.38,6.38,0,0,1-2.06,1.74,5.55,5.55,0,0,1-2.67.64,6.44,6.44,0,0,1-2.61-.52,5.5,5.5,0,0,1-2.08-1.53A7.12,7.12,0,0,1,161,51.75a10,10,0,0,1-.49-3.27,9.83,9.83,0,0,1,.49-3.21,7.22,7.22,0,0,1,1.36-2.44,5.84,5.84,0,0,1,2.06-1.54,6.28,6.28,0,0,1,2.63-.54,5.74,5.74,0,0,1,4.73,2.41v-2H175V55.88ZM168,53.4a4.37,4.37,0,0,0,1.12-.15,5.2,5.2,0,0,0,2-1.06,3.35,3.35,0,0,0,.68-.78V45.58a4.37,4.37,0,0,0-.68-.77,5.57,5.57,0,0,0-.92-.64,5,5,0,0,0-1.07-.42,4,4,0,0,0-1.12-.16A3.87,3.87,0,0,0,165,45a4.33,4.33,0,0,0-.84,1.54,6.84,6.84,0,0,0,0,3.94A4.51,4.51,0,0,0,165,52a3.81,3.81,0,0,0,1.31,1A3.9,3.9,0,0,0,168,53.4Z" fill="#fff"/><path d="M185,61.86a9.37,9.37,0,0,1-3.3-.53A8.13,8.13,0,0,1,179,59.66l1.5-2.32a4.42,4.42,0,0,0,2,1.45,6.93,6.93,0,0,0,2.47.45A4.22,4.22,0,0,0,188,58.18a4,4,0,0,0,1.1-3V53.43A7.82,7.82,0,0,1,187,55a6.44,6.44,0,0,1-3.07.71,4.81,4.81,0,0,1-3.57-1.2,4.72,4.72,0,0,1-1.19-3.47v-10h3.21v8.77a2.88,2.88,0,0,0,.8,2.36,3.37,3.37,0,0,0,2.19.66,4.27,4.27,0,0,0,2.21-.59A5.3,5.3,0,0,0,189.14,51V41.12h3.21v14a7.42,7.42,0,0,1-.55,2.92,5.71,5.71,0,0,1-1.55,2.11,6.82,6.82,0,0,1-2.33,1.27A9.85,9.85,0,0,1,185,61.86Z" fill="#fff"/><path d="M214.77,55.88v-2a6.49,6.49,0,0,1-2.06,1.74,5.6,5.6,0,0,1-2.67.64,6.52,6.52,0,0,1-2.62-.52,5.54,5.54,0,0,1-2.07-1.53A7.12,7.12,0,0,1,204,51.75a10,10,0,0,1-.49-3.27,9.83,9.83,0,0,1,.49-3.21,7.22,7.22,0,0,1,1.36-2.44,5.76,5.76,0,0,1,2.06-1.54,6.28,6.28,0,0,1,2.63-.54,5.87,5.87,0,0,1,2.62.61,5.93,5.93,0,0,1,2.11,1.8V35.5H218V55.88ZM211,53.4a4.37,4.37,0,0,0,1.12-.15,5,5,0,0,0,1.07-.43,4.91,4.91,0,0,0,.91-.63,3.17,3.17,0,0,0,.69-.78V45.58a4.07,4.07,0,0,0-.69-.77,5.48,5.48,0,0,0-.91-.64,5,5,0,0,0-1.07-.42,4,4,0,0,0-1.12-.16,3.9,3.9,0,0,0-1.74.37,3.81,3.81,0,0,0-1.31,1,4.33,4.33,0,0,0-.84,1.54,6.84,6.84,0,0,0,0,3.94,4.51,4.51,0,0,0,.84,1.56,3.72,3.72,0,0,0,1.31,1A3.9,3.9,0,0,0,211,53.4Z" fill="#fff"/><path d="M229,56.24a8.45,8.45,0,0,1-3.1-.55,7,7,0,0,1-2.45-1.57,7.32,7.32,0,0,1-1.6-2.46,8.37,8.37,0,0,1-.58-3.18,8.2,8.2,0,0,1,.55-3,7.23,7.23,0,0,1,3.91-4.11,7.52,7.52,0,0,1,3-.61,7.26,7.26,0,0,1,3,.6A6.46,6.46,0,0,1,234,43a7.39,7.39,0,0,1,1.45,2.54,9.73,9.73,0,0,1,.51,3.21v.79H224.61a4.9,4.9,0,0,0,.44,1.56,4.49,4.49,0,0,0,.95,1.3,4.37,4.37,0,0,0,1.42.88,5,5,0,0,0,1.87.32,6.66,6.66,0,0,0,2.26-.42A5.41,5.41,0,0,0,233.5,52L235,54.07a7.26,7.26,0,0,1-2.69,1.62A9.77,9.77,0,0,1,229,56.24Zm3.91-9a4.43,4.43,0,0,0-.29-1.33,3.89,3.89,0,0,0-2-2.18,4.21,4.21,0,0,0-1.87-.37,4.27,4.27,0,0,0-1.77.35,3.75,3.75,0,0,0-1.27.92,4.14,4.14,0,0,0-.77,1.25,4,4,0,0,0-.31,1.36Z" fill="#fff"/><path d="M249.54,55.88v-2a6.49,6.49,0,0,1-2.06,1.74,5.57,5.57,0,0,1-2.67.64,6.52,6.52,0,0,1-2.62-.52,5.54,5.54,0,0,1-2.07-1.53,7.12,7.12,0,0,1-1.36-2.44,10,10,0,0,1-.49-3.27,9.83,9.83,0,0,1,.49-3.21,7.22,7.22,0,0,1,1.36-2.44,5.84,5.84,0,0,1,2.06-1.54,6.28,6.28,0,0,1,2.63-.54,5.74,5.74,0,0,1,4.73,2.41v-2h3.21V55.88Zm-3.79-2.48a4.37,4.37,0,0,0,1.12-.15,5,5,0,0,0,1.07-.43,4.91,4.91,0,0,0,.91-.63,3.17,3.17,0,0,0,.69-.78V45.58a4.07,4.07,0,0,0-.69-.77,5.48,5.48,0,0,0-.91-.64,5,5,0,0,0-1.07-.42,4,4,0,0,0-1.12-.16A3.9,3.9,0,0,0,244,44a3.81,3.81,0,0,0-1.31,1,4.33,4.33,0,0,0-.84,1.54,6.84,6.84,0,0,0,0,3.94A4.51,4.51,0,0,0,242.7,52,3.72,3.72,0,0,0,244,53,3.9,3.9,0,0,0,245.75,53.4Z" fill="#fff"/><path d="M260.69,56.24a3.75,3.75,0,0,1-2.82-1,3.87,3.87,0,0,1-1-2.84V35.5h3.2V51.63a2.14,2.14,0,0,0,.36,1.27,1.2,1.2,0,0,0,1,.5,2.24,2.24,0,0,0,.86-.17,1.67,1.67,0,0,0,.58-.38l.76,2.44a3.55,3.55,0,0,1-1.16.68A5.48,5.48,0,0,1,260.69,56.24Z" fill="#fff"/><path d="M270.72,56.24a10.37,10.37,0,0,1-3.55-.59,7.93,7.93,0,0,1-2.78-1.73l1.47-2.29a5.85,5.85,0,0,0,.95.76,6.72,6.72,0,0,0,1.22.66,8.39,8.39,0,0,0,1.39.46,6.33,6.33,0,0,0,1.42.17,3.7,3.7,0,0,0,2.2-.54,1.67,1.67,0,0,0,.73-1.42,1.18,1.18,0,0,0-.66-1.1,6.56,6.56,0,0,0-1.64-.61c-.67-.16-1.38-.33-2.16-.49a9.23,9.23,0,0,1-2.15-.73,4.69,4.69,0,0,1-1.65-1.32,3.52,3.52,0,0,1-.66-2.26,4,4,0,0,1,.38-1.72,4.26,4.26,0,0,1,1.12-1.43,5.6,5.6,0,0,1,1.82-1,8.18,8.18,0,0,1,2.49-.35,8.66,8.66,0,0,1,3.31.58,8.12,8.12,0,0,1,2.4,1.47L275,45.06a5.32,5.32,0,0,0-1.81-1.25,6.09,6.09,0,0,0-2.55-.52,3.36,3.36,0,0,0-2,.52,1.56,1.56,0,0,0-.71,1.31,1.05,1.05,0,0,0,.65,1,7.37,7.37,0,0,0,1.65.56c.66.16,1.38.32,2.16.49a9.29,9.29,0,0,1,2.15.77,4.67,4.67,0,0,1,1.65,1.37,3.78,3.78,0,0,1,.66,2.34,4.22,4.22,0,0,1-.4,1.83,4,4,0,0,1-1.18,1.47,5.67,5.67,0,0,1-1.92,1A9.17,9.17,0,0,1,270.72,56.24Z" fill="#fff"/><path d="M34.55,95a17.65,17.65,0,0,1-7.19-1.33,15.5,15.5,0,0,1-5-3.43l3-4.09A14,14,0,0,0,29.23,89a11.73,11.73,0,0,0,5.54,1.26,9.24,9.24,0,0,0,2.76-.36A5.29,5.29,0,0,0,39.37,89a3.61,3.61,0,0,0,1-1.33,3.49,3.49,0,0,0,.34-1.5,2.67,2.67,0,0,0-1.28-2.4,12.32,12.32,0,0,0-3.23-1.42c-1.3-.39-2.7-.76-4.2-1.12a20.85,20.85,0,0,1-4.2-1.48,9,9,0,0,1-3.23-2.58,7,7,0,0,1-1.28-4.38,7.67,7.67,0,0,1,.79-3.48,8.53,8.53,0,0,1,2.2-2.79,10.34,10.34,0,0,1,3.43-1.86A14.15,14.15,0,0,1,34.23,64a17,17,0,0,1,6.31,1.1,14.33,14.33,0,0,1,4.87,3.12l-3,3.9a11.11,11.11,0,0,0-4.07-2.62,13.25,13.25,0,0,0-4.64-.83,5.91,5.91,0,0,0-3.66,1,3.21,3.21,0,0,0-1.37,2.69A2.4,2.4,0,0,0,30,74.52a13.13,13.13,0,0,0,3.23,1.3c1.3.36,2.7.73,4.2,1.1a19.67,19.67,0,0,1,4.2,1.57,9.44,9.44,0,0,1,3.23,2.7,7.2,7.2,0,0,1,1.28,4.46,9.48,9.48,0,0,1-.67,3.57,8,8,0,0,1-2.09,3,10.24,10.24,0,0,1-3.62,2A16.42,16.42,0,0,1,34.55,95Z" fill="#fff"/><path d="M58.07,94.41V69.13H49V64.46H72.4v4.67H63.33V94.41Z" fill="#fff"/><path d="M94.94,94.41l-2.2-5.79H79l-2.2,5.79h-6L82.59,64.46h6.55l11.77,30ZM85.87,69.67,80.48,84H91.25Z" fill="#fff"/><path d="M121.25,94.41l-6.6-11.18h-5.26V94.41h-5.25V64.46H117.3a11.44,11.44,0,0,1,4,.68,8.81,8.81,0,0,1,3.13,1.92,8.61,8.61,0,0,1,2,3,10,10,0,0,1,.7,3.79,9.54,9.54,0,0,1-.61,3.53A8.62,8.62,0,0,1,124.93,80a7.8,7.8,0,0,1-2.29,1.75,9.47,9.47,0,0,1-2.65.87l7.36,11.77Zm-4.63-15.85a5.28,5.28,0,0,0,3.68-1.29,4.43,4.43,0,0,0,1.44-3.47,4.3,4.3,0,0,0-1.44-3.4,5.31,5.31,0,0,0-3.68-1.27h-7.23v9.43Z" fill="#fff"/><path d="M139.52,94.41V69.13h-9.07V64.46h23.39v4.67h-9.07V94.41Z" fill="#fff"/><path d="M190.75,94.41,175.13,73V94.41h-5.26V64.46h5.39l15.31,20.75V64.46h5.25v30Z" fill="#fff"/><path d="M216.21,95A15.94,15.94,0,0,1,210,93.78a14.57,14.57,0,0,1-4.84-3.23,14.38,14.38,0,0,1-3.17-4.9,17.69,17.69,0,0,1,0-12.39,14.4,14.4,0,0,1,8-8.12,16.88,16.88,0,0,1,12.35,0,14.28,14.28,0,0,1,4.83,3.23,14.87,14.87,0,0,1,3.16,4.89,17.26,17.26,0,0,1,0,12.39,14.82,14.82,0,0,1-3.16,4.9,14.43,14.43,0,0,1-4.83,3.23A15.88,15.88,0,0,1,216.21,95Zm0-4.67a9.82,9.82,0,0,0,4.08-.83,9.49,9.49,0,0,0,3.15-2.27,10,10,0,0,0,2-3.43,13.12,13.12,0,0,0,.69-4.29,13,13,0,0,0-.69-4.31,9.88,9.88,0,0,0-2-3.41,9.35,9.35,0,0,0-3.15-2.27,10.52,10.52,0,0,0-8.19,0A9.43,9.43,0,0,0,209,71.74a9.88,9.88,0,0,0-2,3.41,13,13,0,0,0-.69,4.31,13.12,13.12,0,0,0,.69,4.29,10,10,0,0,0,2,3.43,9.58,9.58,0,0,0,3.12,2.27A9.83,9.83,0,0,0,216.21,90.28Z" fill="#fff"/><path d="M258.55,94.41l-5.79-22.14-5.84,22.14h-5.61l-8.53-29.95h5.83l5.84,23,6.2-23h4.17l6.2,23,5.84-23h5.88l-8.58,30Z" fill="#fff"/></g></g><g id="REC"><rect x="0.36" width="300" height="600" fill="none"/></g></g></svg>