<svg xmlns="http://www.w3.org/2000/svg" viewBox="0 0 300 600"><g id="Layer_2" data-name="Layer 2"><g id="REC"><rect width="300" height="600" fill="none"/></g><g id="sub"><path d="M32.81,137.36l-4.11-5.74-4.12,5.74H21.5L27,129.84l-5.15-7.15h3.08l3.79,5.37,3.76-5.37h3.1l-5.17,7.13,5.5,7.54Z" fill="#e52823"/><path d="M37.34,137.36V122.69h2.58v12.38h6.46v2.29Z" fill="#e52823"/><path d="M61.74,137.36v-1.45a4.47,4.47,0,0,1-1.49,1.25,4,4,0,0,1-1.92.47,4.68,4.68,0,0,1-1.88-.38,4.06,4.06,0,0,1-1.5-1.1,5.26,5.26,0,0,1-1-1.76,7.4,7.4,0,0,1-.35-2.35,7.27,7.27,0,0,1,.35-2.31A5.26,5.26,0,0,1,55,128a4.13,4.13,0,0,1,1.49-1.11,4.5,4.5,0,0,1,1.89-.39,4.23,4.23,0,0,1,1.89.44,4.37,4.37,0,0,1,1.52,1.3v-5.52h2.31v14.67ZM59,135.58a3.15,3.15,0,0,0,.8-.11,3.27,3.27,0,0,0,.77-.31,3.19,3.19,0,0,0,.66-.45,2.4,2.4,0,0,0,.5-.56V130a2.83,2.83,0,0,0-.5-.55,3.62,3.62,0,0,0-1.43-.77,2.76,2.76,0,0,0-.8-.11,2.91,2.91,0,0,0-1.25.26,3,3,0,0,0-.95.73,3.29,3.29,0,0,0-.6,1.11A4.55,4.55,0,0,0,56,132a4.64,4.64,0,0,0,.21,1.42,3.44,3.44,0,0,0,.6,1.12,3,3,0,0,0,.95.74A2.91,2.91,0,0,0,59,135.58Z" fill="#e52823"/><path d="M68.21,125.44a1.35,1.35,0,0,1-1-.42,1.38,1.38,0,0,1-.42-1,1.43,1.43,0,0,1,1.43-1.43,1.38,1.38,0,0,1,1,.42,1.35,1.35,0,0,1,.42,1,1.43,1.43,0,0,1-1.43,1.43ZM67,137.36V126.74h2.31v10.62Z" fill="#e52823"/><path d="M79.54,137.36v-6.64A2.13,2.13,0,0,0,79,129a2.43,2.43,0,0,0-1.57-.47,3,3,0,0,0-1.59.44,4.11,4.11,0,0,0-1.14,1v7.43H72.34V126.74h2.31v1.43a5.57,5.57,0,0,1,.65-.62,4.76,4.76,0,0,1,.87-.55,4.83,4.83,0,0,1,1-.38,4.59,4.59,0,0,1,1.2-.15,3.06,3.06,0,0,1,3.43,3.41v7.48Z" fill="#e52823"/><path d="M89.66,137.63a5.41,5.41,0,0,1-2.29-.46A5,5,0,0,1,85.65,136a5.14,5.14,0,0,1-1.08-1.77A6.35,6.35,0,0,1,84.2,132a6.45,6.45,0,0,1,.37-2.16,5.34,5.34,0,0,1,1.08-1.77,5.21,5.21,0,0,1,1.72-1.2,6.15,6.15,0,0,1,4.57,0,5.21,5.21,0,0,1,1.72,1.2,5.34,5.34,0,0,1,1.08,1.77,6.21,6.21,0,0,1,.37,2.16,6.11,6.11,0,0,1-.37,2.15A5.14,5.14,0,0,1,93.66,136a5,5,0,0,1-1.72,1.21A5.37,5.37,0,0,1,89.66,137.63Zm0-2a2.92,2.92,0,0,0,1.32-.29,2.65,2.65,0,0,0,1-.77,3.47,3.47,0,0,0,.59-1.13,4.64,4.64,0,0,0,.19-1.35,4.52,4.52,0,0,0-.19-1.34,3.58,3.58,0,0,0-.59-1.13,2.88,2.88,0,0,0-1-.77,2.91,2.91,0,0,0-1.32-.28,2.86,2.86,0,0,0-1.3.28,3.06,3.06,0,0,0-1,.77,3.38,3.38,0,0,0-.59,1.13,4.22,4.22,0,0,0-.2,1.34,4.33,4.33,0,0,0,.2,1.35,3.29,3.29,0,0,0,.59,1.13,2.81,2.81,0,0,0,1,.77A2.86,2.86,0,0,0,89.66,135.58Z" fill="#e52823"/><path d="M110.34,137.36v-6.69a2,2,0,0,0-.58-1.7,2.45,2.45,0,0,0-1.56-.45,3,3,0,0,0-1.61.44,3.87,3.87,0,0,0-1.12,1v7.43h-2.31V122.69h2.31v5.48a5.57,5.57,0,0,1,.65-.62A5,5,0,0,1,107,127a4.75,4.75,0,0,1,1-.38,4.56,4.56,0,0,1,1.19-.15,3.51,3.51,0,0,1,2.58.86,3.41,3.41,0,0,1,.86,2.51v7.52Z" fill="#e52823"/><path d="M123.12,137.36v-1.45a4.47,4.47,0,0,1-1.49,1.25,4,4,0,0,1-1.92.47,4.68,4.68,0,0,1-1.88-.38,4.06,4.06,0,0,1-1.5-1.1,5.26,5.26,0,0,1-1-1.76A7.4,7.4,0,0,1,115,132a7.27,7.27,0,0,1,.35-2.31,5.26,5.26,0,0,1,1-1.76,4,4,0,0,1,1.49-1.11,4.5,4.5,0,0,1,1.89-.39,4.23,4.23,0,0,1,1.89.44,4.37,4.37,0,0,1,1.52,1.3v-1.47h2.31v10.62Zm-2.73-1.78a3.21,3.21,0,0,0,.8-.11,3.45,3.45,0,0,0,.77-.31,3.19,3.19,0,0,0,.66-.45,2.4,2.4,0,0,0,.5-.56V130a2.83,2.83,0,0,0-.5-.55,2.88,2.88,0,0,0-.66-.46,3,3,0,0,0-.77-.31,2.8,2.8,0,0,0-.8-.11,2.91,2.91,0,0,0-1.25.26,2.84,2.84,0,0,0-1,.73,3.13,3.13,0,0,0-.6,1.11,4.55,4.55,0,0,0-.21,1.42,4.64,4.64,0,0,0,.21,1.42,3.26,3.26,0,0,0,.6,1.12,2.87,2.87,0,0,0,1,.74A2.91,2.91,0,0,0,120.39,135.58Z" fill="#e52823"/><path d="M141.47,137.36v-6.93a2.2,2.2,0,0,0-.41-1.38,1.58,1.58,0,0,0-1.35-.53,2.63,2.63,0,0,0-1.45.44,3.53,3.53,0,0,0-1,1v7.43h-2.31v-6.93a2.26,2.26,0,0,0-.39-1.38,1.58,1.58,0,0,0-1.35-.53,2.5,2.5,0,0,0-1.43.45,4.18,4.18,0,0,0-1,1v7.43h-2.31V126.74h2.31v1.43a3.51,3.51,0,0,1,.51-.54,4.07,4.07,0,0,1,.79-.55,5.79,5.79,0,0,1,1-.43,3.77,3.77,0,0,1,1.17-.18,3.11,3.11,0,0,1,1.91.54,2.74,2.74,0,0,1,1,1.4,4,4,0,0,1,.58-.71,4.46,4.46,0,0,1,.84-.62,4.32,4.32,0,0,1,1-.44,4.12,4.12,0,0,1,1.16-.17,3.08,3.08,0,0,1,2.25.79,3.26,3.26,0,0,1,.81,2.42v7.68Z" fill="#e52823"/><path d="M150.42,137.63a7.5,7.5,0,0,1-2.55-.43,5.48,5.48,0,0,1-2-1.25l1-1.65a3.8,3.8,0,0,0,.68.55,5.68,5.68,0,0,0,.88.48,6,6,0,0,0,1,.33,4.44,4.44,0,0,0,1,.12,2.65,2.65,0,0,0,1.58-.39,1.19,1.19,0,0,0,.53-1,.85.85,0,0,0-.47-.79,4.79,4.79,0,0,0-1.19-.44c-.48-.12-1-.24-1.55-.35a6.74,6.74,0,0,1-1.55-.53,3.39,3.39,0,0,1-1.19-.95,2.51,2.51,0,0,1-.47-1.63,2.87,2.87,0,0,1,1.07-2.26,3.9,3.9,0,0,1,1.31-.7,6.11,6.11,0,0,1,1.8-.25,6.21,6.21,0,0,1,2.38.42,5.69,5.69,0,0,1,1.73,1.06l-1,1.62a4,4,0,0,0-1.31-.9,4.37,4.37,0,0,0-1.83-.37,2.4,2.4,0,0,0-1.44.37,1.13,1.13,0,0,0-.52,1,.76.76,0,0,0,.47.7,5.3,5.3,0,0,0,1.19.41l1.55.35a6.76,6.76,0,0,1,1.55.55,3.36,3.36,0,0,1,1.19,1,2.77,2.77,0,0,1,.47,1.68,3.1,3.1,0,0,1-.28,1.32,2.82,2.82,0,0,1-.85,1.06,4.11,4.11,0,0,1-1.39.69A6.42,6.42,0,0,1,150.42,137.63Z" fill="#e52823"/><path d="M160.36,137.63a2.72,2.72,0,0,1-2-.71,2.8,2.8,0,0,1-.68-2v-6.14h-1.76v-2h1.76v-2.91H160v2.91h2.15v2H160v5.56a1.58,1.58,0,0,0,.25.92.87.87,0,0,0,.76.36,1.46,1.46,0,0,0,.6-.12,1,1,0,0,0,.41-.28l.55,1.76a2.48,2.48,0,0,1-.84.49A3.82,3.82,0,0,1,160.36,137.63Z" fill="#e52823"/><path d="M169.1,137.63a6.18,6.18,0,0,1-2.23-.4,5,5,0,0,1-1.77-1.13,5.26,5.26,0,0,1-1.15-1.77,6.06,6.06,0,0,1-.42-2.29,5.85,5.85,0,0,1,.4-2.17A5.21,5.21,0,0,1,165,128.1a5.5,5.5,0,0,1,6-1.2,4.94,4.94,0,0,1,1.65,1.2,5.3,5.3,0,0,1,1,1.83,7.08,7.08,0,0,1,.37,2.31v.57H166a3.6,3.6,0,0,0,.32,1.12,3.47,3.47,0,0,0,.68.94,3.07,3.07,0,0,0,1,.63,3.52,3.52,0,0,0,1.34.23,4.82,4.82,0,0,0,1.63-.3,3.93,3.93,0,0,0,1.4-.88l1.06,1.51a5.23,5.23,0,0,1-1.94,1.17A7.15,7.15,0,0,1,169.1,137.63Zm2.81-6.47a3.11,3.11,0,0,0-.2-1,3,3,0,0,0-.55-.9,2.88,2.88,0,0,0-.92-.67,3,3,0,0,0-1.34-.27,3,3,0,0,0-1.28.26,2.81,2.81,0,0,0-.91.66,3,3,0,0,0-.56.9,3,3,0,0,0-.22,1Z" fill="#e52823"/><path d="M176.42,137.36V126.74h2.31v1.54a5.14,5.14,0,0,1,1.52-1.29,3.79,3.79,0,0,1,1.94-.52v2.29a3.71,3.71,0,0,0-.71-.07,3.12,3.12,0,0,0-.78.11,4.79,4.79,0,0,0-.79.31,3.45,3.45,0,0,0-.69.46,2.46,2.46,0,0,0-.49.55v7.24Z" fill="#e52823"/><path d="M30.1,163.36v-6.69a2.08,2.08,0,0,0-.57-1.7,2.45,2.45,0,0,0-1.56-.45,3.07,3.07,0,0,0-1.62.44,4,4,0,0,0-1.11,1v7.43H22.93V148.69h2.31v5.48a4.87,4.87,0,0,1,.65-.62A5,5,0,0,1,29,152.47a3.52,3.52,0,0,1,2.58.86,3.41,3.41,0,0,1,.85,2.51v7.52Z" fill="#e52823"/><path d="M42.89,163.36v-1.45a4.47,4.47,0,0,1-1.49,1.25,4,4,0,0,1-1.92.47,4.64,4.64,0,0,1-1.88-.38,4.06,4.06,0,0,1-1.5-1.1,5.09,5.09,0,0,1-1-1.76,7.4,7.4,0,0,1-.35-2.35,7.27,7.27,0,0,1,.35-2.31,5.09,5.09,0,0,1,1-1.76,4.1,4.1,0,0,1,1.48-1.11,4.58,4.58,0,0,1,1.9-.39,4.23,4.23,0,0,1,1.89.44,4.46,4.46,0,0,1,1.52,1.3v-1.47H45.2v10.62Zm-2.73-1.78a3.21,3.21,0,0,0,.8-.11,3.45,3.45,0,0,0,.77-.31,3.84,3.84,0,0,0,.66-.45,2.64,2.64,0,0,0,.5-.56V156a3.19,3.19,0,0,0-.5-.55,3.39,3.39,0,0,0-.66-.46,3,3,0,0,0-.77-.31,2.8,2.8,0,0,0-.8-.11,3,3,0,0,0-1.26.26,2.91,2.91,0,0,0-.94.73,3.14,3.14,0,0,0-.61,1.11,4.55,4.55,0,0,0-.21,1.42,4.64,4.64,0,0,0,.21,1.42,3.28,3.28,0,0,0,.61,1.12,2.94,2.94,0,0,0,.94.74A3,3,0,0,0,40.16,161.58Z" fill="#e52823"/><path d="M48.19,163.36V148.69H50.5v5.52a4.19,4.19,0,0,1,3.41-1.74,4.58,4.58,0,0,1,1.9.39,4.08,4.08,0,0,1,1.5,1.11,5.26,5.26,0,0,1,1,1.76,7.27,7.27,0,0,1,.35,2.31,7.4,7.4,0,0,1-.35,2.35,5.27,5.27,0,0,1-1,1.76,4.17,4.17,0,0,1-1.51,1.1,4.71,4.71,0,0,1-1.88.38,4.07,4.07,0,0,1-1.92-.47,4.47,4.47,0,0,1-1.49-1.25v1.45Zm2.31-3.19a3.07,3.07,0,0,0,1.15,1,3.37,3.37,0,0,0,1.6.41,2.68,2.68,0,0,0,2.19-1,4,4,0,0,0,.8-2.55,4.55,4.55,0,0,0-.21-1.42,3.29,3.29,0,0,0-.6-1.11,3,3,0,0,0-1-.73,2.91,2.91,0,0,0-1.23-.26,3.27,3.27,0,0,0-1.6.42,3.09,3.09,0,0,0-1.15,1Z" fill="#e52823"/><path d="M62.14,151.44a1.39,1.39,0,0,1-1-.42,1.37,1.37,0,0,1-.41-1,1.34,1.34,0,0,1,.41-1,1.44,1.44,0,0,1,2,0,1.35,1.35,0,0,1,.42,1,1.43,1.43,0,0,1-1.43,1.43ZM61,163.36V152.74h2.31v10.62Z" fill="#e52823"/><path d="M69.48,163.63a2.7,2.7,0,0,1-2-.71,2.8,2.8,0,0,1-.68-2v-6.14H65v-2h1.76v-2.91h2.31v2.91h2.15v2H69.07v5.56a1.58,1.58,0,0,0,.25.92.87.87,0,0,0,.76.36,1.46,1.46,0,0,0,.6-.12,1,1,0,0,0,.41-.28l.55,1.76a2.48,2.48,0,0,1-.84.49A3.82,3.82,0,0,1,69.48,163.63Z" fill="#e52823"/><path d="M80.77,163.36v-1.45a4.47,4.47,0,0,1-1.49,1.25,4,4,0,0,1-1.92.47,4.68,4.68,0,0,1-1.88-.38,4.06,4.06,0,0,1-1.5-1.1,5.26,5.26,0,0,1-1-1.76,7.4,7.4,0,0,1-.35-2.35,7.27,7.27,0,0,1,.35-2.31A5.26,5.26,0,0,1,74,154a4.13,4.13,0,0,1,1.49-1.11,4.5,4.5,0,0,1,1.89-.39,4.23,4.23,0,0,1,1.89.44,4.37,4.37,0,0,1,1.52,1.3v-1.47h2.31v10.62ZM78,161.58a3.15,3.15,0,0,0,.8-.11,3.27,3.27,0,0,0,.77-.31,3.19,3.19,0,0,0,.66-.45,2.4,2.4,0,0,0,.5-.56V156a2.83,2.83,0,0,0-.5-.55,3.62,3.62,0,0,0-1.43-.77,2.76,2.76,0,0,0-.8-.11,2.91,2.91,0,0,0-1.25.26,2.84,2.84,0,0,0-1,.73,3.29,3.29,0,0,0-.6,1.11A4.55,4.55,0,0,0,75,158a4.64,4.64,0,0,0,.21,1.42,3.44,3.44,0,0,0,.6,1.12,2.87,2.87,0,0,0,1,.74A2.91,2.91,0,0,0,78,161.58Z" fill="#e52823"/><path d="M89.28,163.63a2.7,2.7,0,0,1-2-.71,2.8,2.8,0,0,1-.69-2v-6.14H84.79v-2h1.76v-2.91h2.31v2.91H91v2H88.86v5.56a1.59,1.59,0,0,0,.26.92.87.87,0,0,0,.76.36,1.46,1.46,0,0,0,.6-.12,1,1,0,0,0,.41-.28l.55,1.76a2.59,2.59,0,0,1-.84.49A3.82,3.82,0,0,1,89.28,163.63Z" fill="#e52823"/><path d="M103.19,163.58a8,8,0,0,1-3-.74,7.43,7.43,0,0,1-2.15-1.52l1.45-2a6.83,6.83,0,0,0,1.55,1.25,5.67,5.67,0,0,0,2.13.73V157c-.58-.15-1.14-.32-1.69-.51a5.59,5.59,0,0,1-1.48-.76,3.43,3.43,0,0,1-1.48-3,3.82,3.82,0,0,1,.33-1.58,4.16,4.16,0,0,1,.94-1.31,4.83,4.83,0,0,1,1.46-.94,6.29,6.29,0,0,1,1.92-.45v-2H105v2a8.26,8.26,0,0,1,2.45.66,7.08,7.08,0,0,1,2,1.34l-1.45,1.92a5.35,5.35,0,0,0-1.4-1,6.52,6.52,0,0,0-1.57-.55v3.8c.57.15,1.14.32,1.71.52a5.82,5.82,0,0,1,1.53.79,4.1,4.1,0,0,1,1.1,1.24,3.64,3.64,0,0,1,.43,1.85,4.59,4.59,0,0,1-.29,1.61,4,4,0,0,1-.87,1.38,4.52,4.52,0,0,1-1.48,1,6.8,6.8,0,0,1-2.13.5v2h-1.76Zm-2-11a1.15,1.15,0,0,0,.57,1,5.09,5.09,0,0,0,1.44.64v-3.45a2.59,2.59,0,0,0-1.47.59A1.57,1.57,0,0,0,101.18,152.58Zm5.9,6.73a1.31,1.31,0,0,0-.6-1.15,6.05,6.05,0,0,0-1.53-.69v3.82a2.57,2.57,0,0,0,1.63-.75A1.84,1.84,0,0,0,107.08,159.31Z" fill="#e52823"/><path d="M113.24,163.36,118.78,151h-7.61v-2.29h10.58v1.78l-5.67,12.89Z" fill="#e52823"/><path d="M128.13,163.6a6.12,6.12,0,0,1-2.43-.45,6,6,0,0,1-1.79-1.17l1.21-2a4.11,4.11,0,0,0,1.27.95,3.88,3.88,0,0,0,1.74.35,3.44,3.44,0,0,0,1.73-.42,3.66,3.66,0,0,0,1.21-1.1,5,5,0,0,0,.71-1.55,7,7,0,0,0,.23-1.77v-.21a.76.76,0,0,0,0-.21,3.53,3.53,0,0,1-.64.73,5.71,5.71,0,0,1-.92.67,5.53,5.53,0,0,1-1.11.47,4.36,4.36,0,0,1-1.26.17,6.11,6.11,0,0,1-1.88-.29,4.58,4.58,0,0,1-1.57-.89,4.29,4.29,0,0,1-1.06-1.49,4.92,4.92,0,0,1-.4-2.06,4.76,4.76,0,0,1,.39-1.91,4.5,4.5,0,0,1,1.08-1.57,5.1,5.1,0,0,1,1.71-1.06,6.11,6.11,0,0,1,2.23-.38,5.92,5.92,0,0,1,2.76.6,5.17,5.17,0,0,1,1.88,1.65,7.29,7.29,0,0,1,1.07,2.42,11.85,11.85,0,0,1,.34,2.89,10.15,10.15,0,0,1-.42,3,7,7,0,0,1-1.23,2.41,5.82,5.82,0,0,1-2,1.62A6.23,6.23,0,0,1,128.13,163.6Zm.62-7.7a3.55,3.55,0,0,0,1.79-.47,4.3,4.3,0,0,0,1.42-1.26,5.73,5.73,0,0,0-.26-1.2,3.62,3.62,0,0,0-.58-1.1,3.27,3.27,0,0,0-1-.82,3.09,3.09,0,0,0-1.46-.32,3.31,3.31,0,0,0-1.27.23,3.11,3.11,0,0,0-.93.6,2.39,2.39,0,0,0-.74,1.73,2.66,2.66,0,0,0,.24,1.17,2.3,2.3,0,0,0,.66.82,2.83,2.83,0,0,0,1,.47A4.24,4.24,0,0,0,128.75,155.9Z" fill="#e52823"/><path d="M137.66,163.6a1.45,1.45,0,0,1-1.09-.46,1.52,1.52,0,0,1-.45-1.1,1.54,1.54,0,0,1,3.08,0,1.52,1.52,0,0,1-.45,1.1A1.45,1.45,0,0,1,137.66,163.6Z" fill="#e52823"/><path d="M146.22,163.6a6.06,6.06,0,0,1-2.43-.45A6,6,0,0,1,142,162l1.21-2a4.23,4.23,0,0,0,1.27.95,3.89,3.89,0,0,0,1.75.35,3.46,3.46,0,0,0,1.73-.42,3.76,3.76,0,0,0,1.21-1.1,5,5,0,0,0,.7-1.55,7,7,0,0,0,.23-1.77v-.21a1.49,1.49,0,0,0,0-.21,3.59,3.59,0,0,1-.65.73,5.63,5.63,0,0,1-.91.67,5.53,5.53,0,0,1-1.11.47,4.47,4.47,0,0,1-1.27.17,6.11,6.11,0,0,1-1.88-.29,4.54,4.54,0,0,1-1.56-.89,4.19,4.19,0,0,1-1.07-1.49,5.08,5.08,0,0,1-.4-2.06,4.76,4.76,0,0,1,.39-1.91,4.67,4.67,0,0,1,1.09-1.57,5.16,5.16,0,0,1,1.7-1.06,6.12,6.12,0,0,1,2.24-.38,5.92,5.92,0,0,1,2.76.6,5.25,5.25,0,0,1,1.88,1.65,7.27,7.27,0,0,1,1.06,2.42,11.85,11.85,0,0,1,.35,2.89,10.15,10.15,0,0,1-.42,3,7.13,7.13,0,0,1-1.23,2.41,5.85,5.85,0,0,1-2,1.62A6.19,6.19,0,0,1,146.22,163.6Zm.61-7.7a3.61,3.61,0,0,0,1.8-.47,4.4,4.4,0,0,0,1.42-1.26,6.48,6.48,0,0,0-.27-1.2,3.41,3.41,0,0,0-.58-1.1,3.16,3.16,0,0,0-1-.82,3.08,3.08,0,0,0-1.45-.32,3.36,3.36,0,0,0-1.28.23,3.05,3.05,0,0,0-.92.6,2.35,2.35,0,0,0-.56.82,2.32,2.32,0,0,0-.19.91,2.66,2.66,0,0,0,.24,1.17,2.3,2.3,0,0,0,.66.82,2.83,2.83,0,0,0,1,.47A4.35,4.35,0,0,0,146.83,155.9Z" fill="#e52823"/><path d="M159.44,163.6a6.12,6.12,0,0,1-2.43-.45,5.79,5.79,0,0,1-1.79-1.17l1.21-2a4.19,4.19,0,0,0,1.26.95,3.92,3.92,0,0,0,1.75.35,3.44,3.44,0,0,0,1.73-.42,3.76,3.76,0,0,0,1.21-1.1,5,5,0,0,0,.7-1.55,6.62,6.62,0,0,0,.23-1.77v-.21a1.49,1.49,0,0,0,0-.21,3.59,3.59,0,0,1-.65.73,5.22,5.22,0,0,1-.91.67,5.53,5.53,0,0,1-1.11.47,4.47,4.47,0,0,1-1.27.17,6.11,6.11,0,0,1-1.88-.29,4.63,4.63,0,0,1-1.56-.89,4.31,4.31,0,0,1-1.07-1.49,5.08,5.08,0,0,1-.39-2.06,4.76,4.76,0,0,1,.38-1.91,4.67,4.67,0,0,1,1.09-1.57,5.16,5.16,0,0,1,1.7-1.06,6.16,6.16,0,0,1,2.24-.38,5.92,5.92,0,0,1,2.76.6,5.17,5.17,0,0,1,1.88,1.65,7.5,7.5,0,0,1,1.07,2.42,12.36,12.36,0,0,1,.34,2.89,10.15,10.15,0,0,1-.42,3,7.13,7.13,0,0,1-1.23,2.41,5.85,5.85,0,0,1-2,1.62A6.16,6.16,0,0,1,159.44,163.6Zm.62-7.7a3.58,3.58,0,0,0,1.79-.47,4.4,4.4,0,0,0,1.42-1.26A5.76,5.76,0,0,0,163,153a3.41,3.41,0,0,0-.58-1.1,3.16,3.16,0,0,0-1-.82,3,3,0,0,0-1.45-.32,3.4,3.4,0,0,0-1.28.23,3.18,3.18,0,0,0-.92.6,2.35,2.35,0,0,0-.56.82,2.32,2.32,0,0,0-.19.91,2.66,2.66,0,0,0,.24,1.17,2.54,2.54,0,0,0,.66.82,2.83,2.83,0,0,0,1,.47A4.37,4.37,0,0,0,160.06,155.9Z" fill="#e52823"/></g></g></svg>