<svg xmlns="http://www.w3.org/2000/svg" viewBox="0 0 300 600"><g id="Layer_2" data-name="Layer 2"><g id="REC"><rect width="300" height="600" fill="none"/></g><g id="CTA"><path id="bg" d="M163.18,215.69H35a15.28,15.28,0,0,1-15.53-15v-1.56a15.28,15.28,0,0,1,15.53-15H163.18a15.28,15.28,0,0,1,15.53,15v1.56a15.29,15.29,0,0,1-15.53,15" fill="#e32c27"/><path d="M53.51,201.91a5.81,5.81,0,0,0,1.83,1.29,5.68,5.68,0,0,0,2.35.49,2.83,2.83,0,0,0,1.69-.44,1.27,1.27,0,0,0,.6-1.05,1.1,1.1,0,0,0-.65-1,9.26,9.26,0,0,0-2-.67,19.86,19.86,0,0,1-2.51-.71,4.25,4.25,0,0,1-1.68-1.15,3.14,3.14,0,0,1-.72-2.17,3.48,3.48,0,0,1,.61-2A4.15,4.15,0,0,1,54.76,193a6.25,6.25,0,0,1,2.64-.52,7.25,7.25,0,0,1,5.12,1.83l-1.55,2a5.35,5.35,0,0,0-1.77-1.07,5.84,5.84,0,0,0-2-.37,2.43,2.43,0,0,0-1.43.37,1.14,1.14,0,0,0-.5,1,1,1,0,0,0,.61.91,11.48,11.48,0,0,0,2,.62,19.56,19.56,0,0,1,2.49.72,4.4,4.4,0,0,1,1.72,1.2,3.12,3.12,0,0,1,.72,2.15A3.86,3.86,0,0,1,61.47,205a5.83,5.83,0,0,1-3.92,1.16A7.54,7.54,0,0,1,52,204Z" fill="#fff"/><path d="M71.1,200.08a1.7,1.7,0,0,0-.45-1.34,2,2,0,0,0-1.32-.39,2.45,2.45,0,0,0-1.25.32,2.88,2.88,0,0,0-.92.8v6.41H64.65V192.73h2.51v4.87a4.14,4.14,0,0,1,1.39-1,4.34,4.34,0,0,1,2-.43,3.12,3.12,0,0,1,2.32.79,3,3,0,0,1,.78,2.2v6.77H71.1Z" fill="#fff"/><path d="M77.84,205.46a4.57,4.57,0,0,1-1.75-1.82,5.49,5.49,0,0,1,0-5,4.57,4.57,0,0,1,1.75-1.82,5.68,5.68,0,0,1,5.35,0,4.51,4.51,0,0,1,1.75,1.82,5.49,5.49,0,0,1,0,5,4.51,4.51,0,0,1-1.75,1.82,5.68,5.68,0,0,1-5.35,0Zm4.45-2.36a3.29,3.29,0,0,0,0-3.95,2.38,2.38,0,0,0-3.56,0,3.33,3.33,0,0,0,0,3.95,2.36,2.36,0,0,0,3.56,0Z" fill="#fff"/><path d="M87.41,209.51V196.35h2.5v1.21a3.94,3.94,0,0,1,1.31-1.07,3.64,3.64,0,0,1,1.63-.37,3.91,3.91,0,0,1,3.68,2.31,7,7,0,0,1,0,5.38,3.93,3.93,0,0,1-1.5,1.73,4,4,0,0,1-2.18.59,3.58,3.58,0,0,1-2.94-1.46v4.84Zm6.4-10.39a2.18,2.18,0,0,0-1.75-.77,2.63,2.63,0,0,0-1.22.31,2.5,2.5,0,0,0-.93.77v3.39a2.46,2.46,0,0,0,.94.77,2.67,2.67,0,0,0,1.21.32,2.19,2.19,0,0,0,1.75-.78,3.38,3.38,0,0,0,0-4Z" fill="#fff"/><path d="M106.85,197v8.84h-2.8V192.73h2.88l6.09,8.51v-8.51h2.8v13.15h-2.7Z" fill="#fff"/><path d="M120.12,205.46a4.51,4.51,0,0,1-1.75-1.82,5.41,5.41,0,0,1,0-5,4.51,4.51,0,0,1,1.75-1.82,5.66,5.66,0,0,1,5.34,0,4.53,4.53,0,0,1,1.76,1.82,5.49,5.49,0,0,1,0,5,4.53,4.53,0,0,1-1.76,1.82,5.66,5.66,0,0,1-5.34,0Zm4.45-2.36a3.29,3.29,0,0,0,0-3.95,2.18,2.18,0,0,0-1.79-.8,2.13,2.13,0,0,0-1.77.8,3.33,3.33,0,0,0,0,3.95,2.14,2.14,0,0,0,1.77.81A2.19,2.19,0,0,0,124.57,203.1Z" fill="#fff"/><path d="M136,199.39l-2,6.49h-2.68l-2.9-9.53H131l1.78,6.41,2.09-6.41h2.23l2.09,6.41,1.77-6.41h2.61l-2.9,9.53H138Z" fill="#fff"/></g></g></svg>