<svg xmlns="http://www.w3.org/2000/svg" viewBox="0 0 300 600"><g id="Layer_2" data-name="Layer 2"><g id="REC"><rect width="300" height="600" fill="none"/></g><g id="sub"><path d="M28.3,132.88a8.06,8.06,0,0,1-3.36-.63,6.6,6.6,0,0,1-2.32-1.73l1.54-1.87a5.11,5.11,0,0,0,4.11,1.84,3.26,3.26,0,0,0,2.31-.78,2.72,2.72,0,0,0,0-3.91,3.31,3.31,0,0,0-2.26-.74,5,5,0,0,0-1.79.32,4.63,4.63,0,0,0-1.57,1l-1.9-.56v-8.55H33.13v2.39H25.77v4.39a5.21,5.21,0,0,1,1.47-.92,5,5,0,0,1,2-.39,5.15,5.15,0,0,1,1.86.34,4.63,4.63,0,0,1,1.58,1,4.69,4.69,0,0,1,1.08,1.55,5.18,5.18,0,0,1,.4,2.1,5,5,0,0,1-.44,2.15,4.86,4.86,0,0,1-1.2,1.63,5.58,5.58,0,0,1-1.85,1.05A7.55,7.55,0,0,1,28.3,132.88Z" fill="#e52823"/><path d="M42.21,132.88a5.25,5.25,0,0,1-2.79-.7,5.64,5.64,0,0,1-1.9-1.83,8.07,8.07,0,0,1-1.09-2.54,11.54,11.54,0,0,1,0-5.72,8.23,8.23,0,0,1,1.09-2.55,5.68,5.68,0,0,1,1.9-1.81,5.95,5.95,0,0,1,5.56,0,5.68,5.68,0,0,1,1.9,1.81A8.47,8.47,0,0,1,48,122.09a11.54,11.54,0,0,1,0,5.72,8.31,8.31,0,0,1-1.09,2.54,5.64,5.64,0,0,1-1.9,1.83A5.23,5.23,0,0,1,42.21,132.88Zm0-2.39a2.68,2.68,0,0,0,1.58-.46,3.27,3.27,0,0,0,1-1.22,6.17,6.17,0,0,0,.58-1.76,11.73,11.73,0,0,0,.18-2.1,12.76,12.76,0,0,0-.17-2.1,5.87,5.87,0,0,0-.58-1.76,3.24,3.24,0,0,0-1-1.21,3,3,0,0,0-3.18,0,3.33,3.33,0,0,0-1,1.21,5.88,5.88,0,0,0-.59,1.76,12.34,12.34,0,0,0,0,4.2,5.88,5.88,0,0,0,.59,1.76,3.37,3.37,0,0,0,1,1.22A2.64,2.64,0,0,0,42.21,130.49Z" fill="#e52823"/><path d="M53.76,124.65a3.94,3.94,0,0,1-1.56-.29,3.56,3.56,0,0,1-1.2-.8,3.78,3.78,0,0,1-.79-1.21,4.07,4.07,0,0,1-.27-1.49,4.17,4.17,0,0,1,.27-1.51,3.72,3.72,0,0,1,.79-1.22,3.56,3.56,0,0,1,1.2-.8,4.34,4.34,0,0,1,3.12,0,3.41,3.41,0,0,1,1.21.8,3.84,3.84,0,0,1,.77,1.22,4.17,4.17,0,0,1,.27,1.51,4.07,4.07,0,0,1-.27,1.49,3.9,3.9,0,0,1-.77,1.21,3.41,3.41,0,0,1-1.21.8A4,4,0,0,1,53.76,124.65Zm0-1.54a1.93,1.93,0,0,0,1.47-.62,2.36,2.36,0,0,0,.57-1.65,2.4,2.4,0,0,0-.57-1.67,1.91,1.91,0,0,0-1.47-.64,1.87,1.87,0,0,0-1.45.64,2.36,2.36,0,0,0-.58,1.67,2.33,2.33,0,0,0,.58,1.65A1.89,1.89,0,0,0,53.76,123.11Zm-1.5,9.5,9.8-15.34h1.56L53.8,132.61Zm9.75.27a4.11,4.11,0,0,1-1.55-.28,3.6,3.6,0,0,1-1.21-.8,3.93,3.93,0,0,1-.78-1.21,4,4,0,0,1-.27-1.49,4.16,4.16,0,0,1,.27-1.5,3.86,3.86,0,0,1,.78-1.22,3.6,3.6,0,0,1,1.21-.8,4.31,4.31,0,0,1,3.11,0,3.56,3.56,0,0,1,1.2.8,3.72,3.72,0,0,1,.79,1.22,4.16,4.16,0,0,1,.27,1.5,4,4,0,0,1-.27,1.49,3.78,3.78,0,0,1-.79,1.21,3.56,3.56,0,0,1-1.2.8A4.13,4.13,0,0,1,62,132.88Zm0-1.54a1.92,1.92,0,0,0,1.48-.62,2.31,2.31,0,0,0,.57-1.63,2.4,2.4,0,0,0-.57-1.67,1.93,1.93,0,0,0-1.48-.63,1.91,1.91,0,0,0-1.47.63,2.4,2.4,0,0,0-.57,1.67,2.31,2.31,0,0,0,.57,1.63A1.9,1.9,0,0,0,62,131.34Z" fill="#e52823"/><path d="M79,132.88a5.7,5.7,0,0,1-2.39-.47,5.41,5.41,0,0,1-1.8-1.26,5.53,5.53,0,0,1-1.12-1.85,6.71,6.71,0,0,1,0-4.51,5.28,5.28,0,0,1,2.92-3.11,6.44,6.44,0,0,1,4.78,0,5.31,5.31,0,0,1,1.8,1.26,5.43,5.43,0,0,1,1.12,1.85,6.71,6.71,0,0,1,0,4.51,5.53,5.53,0,0,1-1.12,1.85,5.31,5.31,0,0,1-1.8,1.26A5.7,5.7,0,0,1,79,132.88Zm0-2.13a3,3,0,0,0,1.38-.3,2.93,2.93,0,0,0,1-.81,3.57,3.57,0,0,0,.61-1.18,4.78,4.78,0,0,0,.21-1.42,4.61,4.61,0,0,0-.21-1.4,3.52,3.52,0,0,0-.61-1.17,2.93,2.93,0,0,0-1-.81,3,3,0,0,0-1.38-.3,3,3,0,0,0-1.36.3,3.07,3.07,0,0,0-1,.81,3.54,3.54,0,0,0-.62,1.17,4.61,4.61,0,0,0-.21,1.4,4.78,4.78,0,0,0,.21,1.42,3.59,3.59,0,0,0,.62,1.18,3.07,3.07,0,0,0,1,.81A3,3,0,0,0,79,130.75Z" fill="#e52823"/><path d="M87.77,132.61v-9H85.93V121.5h1.84v-.62a3.86,3.86,0,0,1,1-2.85,3.41,3.41,0,0,1,2.51-1,4.09,4.09,0,0,1,2,.41l-.52,1.82a1.77,1.77,0,0,0-1-.25,1.43,1.43,0,0,0-1.14.46,2.05,2.05,0,0,0-.4,1.4v.62h2.25v2.09H90.19v9Z" fill="#e52823"/><path d="M94.88,132.61v-9H93V121.5h1.84v-.62a3.86,3.86,0,0,1,1-2.85,3.39,3.39,0,0,1,2.51-1,4.12,4.12,0,0,1,2,.41l-.53,1.82a1.72,1.72,0,0,0-1-.25,1.43,1.43,0,0,0-1.14.46,2.05,2.05,0,0,0-.4,1.4v.62h2.25v2.09H97.3v9Z" fill="#e52823"/><path d="M111.14,132.88a7.71,7.71,0,0,1-2.67-.44,6,6,0,0,1-2.09-1.3l1.1-1.73a4.92,4.92,0,0,0,.72.58,5.32,5.32,0,0,0,.92.49,6.05,6.05,0,0,0,1,.35,4.94,4.94,0,0,0,1.07.12,2.8,2.8,0,0,0,1.66-.4,1.25,1.25,0,0,0,.55-1.07.89.89,0,0,0-.49-.83,5.58,5.58,0,0,0-1.25-.46l-1.62-.37a6.58,6.58,0,0,1-1.62-.55,3.45,3.45,0,0,1-1.24-1,2.65,2.65,0,0,1-.49-1.7,3,3,0,0,1,.28-1.3,3.16,3.16,0,0,1,.84-1.07,4.33,4.33,0,0,1,1.37-.72,6,6,0,0,1,1.88-.27,6.55,6.55,0,0,1,2.49.44,6.2,6.2,0,0,1,1.81,1.1l-1,1.71a4.06,4.06,0,0,0-1.36-1,4.64,4.64,0,0,0-1.92-.39,2.54,2.54,0,0,0-1.51.39,1.18,1.18,0,0,0-.54,1,.8.8,0,0,0,.49.74,5.27,5.27,0,0,0,1.24.42l1.63.37a6.63,6.63,0,0,1,1.62.58,3.55,3.55,0,0,1,1.24,1,2.87,2.87,0,0,1,.49,1.76,3.38,3.38,0,0,1-.29,1.38,3.06,3.06,0,0,1-.89,1.11,4.57,4.57,0,0,1-1.45.72A6.67,6.67,0,0,1,111.14,132.88Z" fill="#e52823"/><path d="M123.33,132.88a6.31,6.31,0,0,1-2.33-.41,5.24,5.24,0,0,1-1.84-1.18,5.45,5.45,0,0,1-1.21-1.85,6.41,6.41,0,0,1-.44-2.4,6.13,6.13,0,0,1,.42-2.26,5.33,5.33,0,0,1,1.16-1.85,5.51,5.51,0,0,1,1.78-1.25,5.66,5.66,0,0,1,2.28-.46,5.48,5.48,0,0,1,2.25.45,5,5,0,0,1,1.73,1.26,5.56,5.56,0,0,1,1.09,1.9,7.53,7.53,0,0,1,.38,2.42v.6H120a3.66,3.66,0,0,0,.34,1.17,3.24,3.24,0,0,0,.71,1,3.41,3.41,0,0,0,1.07.67,3.84,3.84,0,0,0,1.4.24,4.79,4.79,0,0,0,1.7-.33,3.9,3.9,0,0,0,1.47-.91l1.11,1.58a5.62,5.62,0,0,1-2,1.22A7.29,7.29,0,0,1,123.33,132.88Zm2.94-6.76a3.14,3.14,0,0,0-.21-1,3.07,3.07,0,0,0-.58-.94,3,3,0,0,0-1-.7,3.17,3.17,0,0,0-1.41-.28,3.1,3.1,0,0,0-1.33.27,2.68,2.68,0,0,0-1,.69,3,3,0,0,0-.59.94,3,3,0,0,0-.23,1Z" fill="#e52823"/><path d="M133.84,132.88a2.88,2.88,0,0,1-2.13-.73A2.93,2.93,0,0,1,131,130V117.27h2.41v12.14a1.62,1.62,0,0,0,.27,1,.91.91,0,0,0,.79.38,1.75,1.75,0,0,0,.65-.13,1,1,0,0,0,.43-.29l.58,1.84a2.72,2.72,0,0,1-.88.51A4,4,0,0,1,133.84,132.88Z" fill="#e52823"/><path d="M142.72,132.88a6.31,6.31,0,0,1-2.33-.41,5.24,5.24,0,0,1-1.84-1.18,5.45,5.45,0,0,1-1.21-1.85,6.41,6.41,0,0,1-.44-2.4,6.33,6.33,0,0,1,.41-2.26,5.57,5.57,0,0,1,2.95-3.1,5.66,5.66,0,0,1,2.28-.46,5.48,5.48,0,0,1,2.25.45,4.83,4.83,0,0,1,1.72,1.26,5.58,5.58,0,0,1,1.1,1.9,7.53,7.53,0,0,1,.38,2.42v.6h-8.56a3.92,3.92,0,0,0,.33,1.17,3.45,3.45,0,0,0,.72,1,3.41,3.41,0,0,0,1.07.67,3.84,3.84,0,0,0,1.4.24,4.79,4.79,0,0,0,1.7-.33,4,4,0,0,0,1.47-.91l1.11,1.58a5.62,5.62,0,0,1-2,1.22A7.29,7.29,0,0,1,142.72,132.88Zm2.94-6.76a3.44,3.44,0,0,0-.21-1,3.27,3.27,0,0,0-.58-.94,3,3,0,0,0-1-.7,3.2,3.2,0,0,0-1.41-.28,3.1,3.1,0,0,0-1.33.27,2.68,2.68,0,0,0-1,.69,3,3,0,0,0-.59.94,3,3,0,0,0-.23,1Z" fill="#e52823"/><path d="M155.44,132.88a6,6,0,0,1-2.31-.43,5.4,5.4,0,0,1-1.81-1.22,5.63,5.63,0,0,1-1.18-1.85,6.17,6.17,0,0,1-.43-2.34,6.06,6.06,0,0,1,.43-2.32,5.59,5.59,0,0,1,1.18-1.84,5.4,5.4,0,0,1,1.81-1.22,6,6,0,0,1,2.31-.44,6.58,6.58,0,0,1,1.48.16,5.46,5.46,0,0,1,1.18.44,5.13,5.13,0,0,1,.9.63,5.33,5.33,0,0,1,.69.75l-1.58,1.45a3,3,0,0,0-2.56-1.29,3.08,3.08,0,0,0-2.43,1,3.77,3.77,0,0,0-.92,2.65,4.48,4.48,0,0,0,.24,1.49,3.42,3.42,0,0,0,.69,1.17,3.11,3.11,0,0,0,1.06.77,3.3,3.3,0,0,0,1.36.28,3,3,0,0,0,2.56-1.34l1.58,1.5a5.4,5.4,0,0,1-1.61,1.38A5.11,5.11,0,0,1,155.44,132.88Z" fill="#e52823"/><path d="M165.19,132.88a2.86,2.86,0,0,1-2.14-.73,3,3,0,0,1-.71-2.14v-6.42H160.5V121.5h1.84v-3h2.41v3H167v2.09h-2.26v5.82a1.62,1.62,0,0,0,.27,1,.91.91,0,0,0,.79.38,1.7,1.7,0,0,0,.64-.13,1.07,1.07,0,0,0,.42-.29l.58,1.84a2.72,2.72,0,0,1-.88.51A4,4,0,0,1,165.19,132.88Z" fill="#e52823"/><path d="M178.83,132.61v-13h-4.65v-2.39h12v2.39h-4.65v13Z" fill="#e52823"/><path d="M191,132.88a5.78,5.78,0,0,1-2.4-.47,5.37,5.37,0,0,1-1.79-1.26,5.55,5.55,0,0,1-1.13-1.85,6.71,6.71,0,0,1,0-4.51,5.45,5.45,0,0,1,1.13-1.85,5.37,5.37,0,0,1,1.79-1.26,6.46,6.46,0,0,1,4.79,0,5.37,5.37,0,0,1,1.79,1.26,5.45,5.45,0,0,1,1.13,1.85,6.71,6.71,0,0,1,0,4.51,5.55,5.55,0,0,1-1.13,1.85,5.37,5.37,0,0,1-1.79,1.26A5.73,5.73,0,0,1,191,132.88Zm0-2.13a3,3,0,0,0,1.38-.3,2.93,2.93,0,0,0,1-.81,3.57,3.57,0,0,0,.61-1.18,5.13,5.13,0,0,0,.2-1.42,4.93,4.93,0,0,0-.2-1.4,3.52,3.52,0,0,0-.61-1.17,2.93,2.93,0,0,0-1-.81,3,3,0,0,0-1.38-.3,3,3,0,0,0-2.37,1.11,3.21,3.21,0,0,0-.62,1.17,4.61,4.61,0,0,0-.21,1.4,4.78,4.78,0,0,0,.21,1.42,3.25,3.25,0,0,0,.62,1.18,3,3,0,0,0,2.37,1.11Z" fill="#e52823"/><path d="M205.14,132.88a4.18,4.18,0,0,1-2-.47,4.91,4.91,0,0,1-1.59-1.34v5.77h-2.42V121.5h2.42V123a4.44,4.44,0,0,1,1.54-1.31,4.19,4.19,0,0,1,2-.49,4.93,4.93,0,0,1,2,.39,4.49,4.49,0,0,1,1.55,1.14,5.42,5.42,0,0,1,1,1.83,8.59,8.59,0,0,1,0,4.92,5.42,5.42,0,0,1-1,1.83,4.4,4.4,0,0,1-1.55,1.15A4.77,4.77,0,0,1,205.14,132.88Zm-.71-2.13a2.84,2.84,0,0,0,2.3-1,4.05,4.05,0,0,0,.85-2.67,4,4,0,0,0-.85-2.65,2.83,2.83,0,0,0-2.3-1,3.39,3.39,0,0,0-1.65.43,3.17,3.17,0,0,0-1.2,1v4.4a3.13,3.13,0,0,0,.51.6,4.24,4.24,0,0,0,.69.48,4,4,0,0,0,.81.32A3,3,0,0,0,204.43,130.75Z" fill="#e52823"/><path d="M218.48,132.61V117.27h6.76a5.47,5.47,0,0,1,2.13.38,4.7,4.7,0,0,1,1.58,1,4.22,4.22,0,0,1,1,1.53,5.46,5.46,0,0,1,0,3.71,4.25,4.25,0,0,1-1,1.52,4.4,4.4,0,0,1-1.56,1,5.66,5.66,0,0,1-2.13.38h-4.07v5.75Zm6.4-8.14a2.71,2.71,0,0,0,1.87-.65,2.24,2.24,0,0,0,.72-1.75,2.27,2.27,0,0,0-.72-1.75,2.67,2.67,0,0,0-1.87-.66h-3.71v4.81Z" fill="#e52823"/><path d="M239.89,132.61v-1.52a4.76,4.76,0,0,1-1.55,1.31,4.23,4.23,0,0,1-2,.48,5,5,0,0,1-2-.39,4.28,4.28,0,0,1-1.56-1.15,5.47,5.47,0,0,1-1-1.84,7.76,7.76,0,0,1-.36-2.46,7.58,7.58,0,0,1,.36-2.41,5.47,5.47,0,0,1,1-1.84,4.39,4.39,0,0,1,1.55-1.16,4.77,4.77,0,0,1,2-.41,4.5,4.5,0,0,1,2,.46,4.44,4.44,0,0,1,1.58,1.36V121.5h2.42v11.11ZM237,130.75a3,3,0,0,0,.84-.12,3.8,3.8,0,0,0,.81-.32,4.92,4.92,0,0,0,.69-.47,2.58,2.58,0,0,0,.51-.59v-4.39a3.37,3.37,0,0,0-.51-.58,4.24,4.24,0,0,0-.69-.48,3.34,3.34,0,0,0-.81-.32,3,3,0,0,0-3.14.92,3.33,3.33,0,0,0-.63,1.16,4.69,4.69,0,0,0-.22,1.48,4.75,4.75,0,0,0,.22,1.49,3.47,3.47,0,0,0,.63,1.17,3,3,0,0,0,1,.77A3,3,0,0,0,237,130.75Z" fill="#e52823"/><path d="M255.14,132.61l-2.6-8.14L250,132.61h-2.53L244,121.5h2.51l2.34,8.07,2.65-8.07h2.13l2.63,8.07,2.34-8.07h2.53l-3.45,11.11Z" fill="#e52823"/><path d="M267.39,118.71a2.72,2.72,0,0,1-.22,1.11,3,3,0,0,1-.6.91,2.85,2.85,0,0,1-.91.61,2.91,2.91,0,0,1-2.22,0,2.92,2.92,0,0,1-.9-.61,2.85,2.85,0,0,1-.61-.91,2.72,2.72,0,0,1-.22-1.11,2.78,2.78,0,0,1,.22-1.11,2.7,2.7,0,0,1,.61-.9,2.92,2.92,0,0,1,.9-.61,2.91,2.91,0,0,1,2.22,0,2.79,2.79,0,0,1,1.51,1.51A2.78,2.78,0,0,1,267.39,118.71Zm-.4,0a2.37,2.37,0,0,0-.19-.95,2.32,2.32,0,0,0-.52-.78,2.73,2.73,0,0,0-.78-.52,2.57,2.57,0,0,0-1-.19,2.43,2.43,0,0,0-.94.19,2.6,2.6,0,0,0-.78.52,2.32,2.32,0,0,0-.52.78,2.37,2.37,0,0,0-.19.95,2.26,2.26,0,0,0,.19.94,2.18,2.18,0,0,0,.52.77,2.63,2.63,0,0,0,.78.53,2.26,2.26,0,0,0,.94.19,2.38,2.38,0,0,0,1-.19,2.76,2.76,0,0,0,.78-.53,2.18,2.18,0,0,0,.52-.77A2.26,2.26,0,0,0,267,118.71Zm-1.66,1.64-.85-1.29h-.57v1.29h-.45v-3.26h1.34a1.08,1.08,0,0,1,.73.27.88.88,0,0,1,.32.72.92.92,0,0,1-.1.46.84.84,0,0,1-.25.3.8.8,0,0,1-.28.16l-.21,0,.87,1.3Zm.05-2.27a.54.54,0,0,0-.19-.43.6.6,0,0,0-.4-.17h-.88v1.18h.88a.58.58,0,0,0,.4-.16A.52.52,0,0,0,265.38,118.08Z" fill="#e52823"/><path d="M30.69,160.61v-1.52a4.86,4.86,0,0,1-1.55,1.31,4.27,4.27,0,0,1-2,.48,4.9,4.9,0,0,1-2-.39,4.24,4.24,0,0,1-1.57-1.15,5.45,5.45,0,0,1-1-1.84A7.48,7.48,0,0,1,22.2,155a7.3,7.3,0,0,1,.37-2.41,5.45,5.45,0,0,1,1-1.84,4.43,4.43,0,0,1,1.56-1.16,4.69,4.69,0,0,1,2-.41,4.43,4.43,0,0,1,2,.46A4.56,4.56,0,0,1,30.69,151v-5.77H33.1v15.34Zm-2.85-1.86a3.15,3.15,0,0,0,.84-.12,3.71,3.71,0,0,0,.8-.32,4.92,4.92,0,0,0,.69-.47,2.63,2.63,0,0,0,.52-.59v-4.39a3.45,3.45,0,0,0-.52-.58,4.24,4.24,0,0,0-.69-.48,3.26,3.26,0,0,0-.8-.32,3.15,3.15,0,0,0-.84-.12,3,3,0,0,0-1.31.28,2.85,2.85,0,0,0-1,.76,3.34,3.34,0,0,0-.64,1.16,5,5,0,0,0-.21,1.48,5.06,5.06,0,0,0,.21,1.49,3.48,3.48,0,0,0,.64,1.17,2.77,2.77,0,0,0,1,.77A3,3,0,0,0,27.84,158.75Z" fill="#e52823"/><path d="M41.27,160.88a5.7,5.7,0,0,1-2.39-.47,5.31,5.31,0,0,1-1.8-1.26A5.53,5.53,0,0,1,36,157.3a6.56,6.56,0,0,1,0-4.51,5.43,5.43,0,0,1,1.12-1.85,5.31,5.31,0,0,1,1.8-1.26,6.44,6.44,0,0,1,4.78,0,5.27,5.27,0,0,1,1.79,1.26,5.45,5.45,0,0,1,1.13,1.85,6.71,6.71,0,0,1,0,4.51,5.55,5.55,0,0,1-1.13,1.85,5.27,5.27,0,0,1-1.79,1.26A5.73,5.73,0,0,1,41.27,160.88Zm0-2.13a3,3,0,0,0,1.38-.3,2.93,2.93,0,0,0,1-.81,3.57,3.57,0,0,0,.61-1.18,4.78,4.78,0,0,0,.2-1.42,4.6,4.6,0,0,0-.2-1.4,3.52,3.52,0,0,0-.61-1.17,2.93,2.93,0,0,0-1-.81,3,3,0,0,0-1.38-.3,3,3,0,0,0-2.37,1.11,3.37,3.37,0,0,0-.62,1.17,4.61,4.61,0,0,0-.21,1.4,4.78,4.78,0,0,0,.21,1.42,3.41,3.41,0,0,0,.62,1.18,3,3,0,0,0,2.37,1.11Z" fill="#e52823"/><path d="M54,165.12a8.18,8.18,0,0,1-2.53-.36,6,6,0,0,1-2.14-1.3l1.13-1.75A3.91,3.91,0,0,0,52,162.82a5.77,5.77,0,0,0,2,.32,4.79,4.79,0,0,0,1.19-.15,2.84,2.84,0,0,0,1.06-.52,2.78,2.78,0,0,0,.76-.95,3.42,3.42,0,0,0,.28-1.49v-1.26a4.92,4.92,0,0,1-1.55,1.36,4.16,4.16,0,0,1-2,.5,4.94,4.94,0,0,1-2-.38,4.3,4.3,0,0,1-1.56-1.1,5.18,5.18,0,0,1-1-1.78,7.59,7.59,0,0,1-.36-2.44,7.51,7.51,0,0,1,.36-2.42,5.32,5.32,0,0,1,1-1.79,4.32,4.32,0,0,1,1.55-1.12,5.1,5.1,0,0,1,2-.38,4.5,4.5,0,0,1,2,.46A4.44,4.44,0,0,1,57.25,151V149.5h2.42V160a5.41,5.41,0,0,1-.51,2.49,4.23,4.23,0,0,1-1.32,1.56,5.36,5.36,0,0,1-1.84.81A9.45,9.45,0,0,1,54,165.12Zm.44-6.65A3.33,3.33,0,0,0,56,158a3.37,3.37,0,0,0,1.21-1v-4.17a3.47,3.47,0,0,0-1.21-1,3.33,3.33,0,0,0-1.64-.44,2.9,2.9,0,0,0-2.3,1,3.78,3.78,0,0,0-.85,2.59,3.73,3.73,0,0,0,.85,2.57A2.89,2.89,0,0,0,54.4,158.47Z" fill="#e52823"/><path d="M72.09,160.88a2.85,2.85,0,0,1-2.14-.73,2.93,2.93,0,0,1-.71-2.14v-6.42H67.4V149.5h1.84v-3h2.41v3H73.9v2.09H71.65v5.82a1.62,1.62,0,0,0,.27,1,.9.9,0,0,0,.79.38,1.61,1.61,0,0,0,.63-.13,1.2,1.2,0,0,0,.43-.29l.57,1.84a2.56,2.56,0,0,1-.87.51A4,4,0,0,1,72.09,160.88Z" fill="#e52823"/><path d="M81.1,160.88a5.73,5.73,0,0,1-2.39-.47,5.37,5.37,0,0,1-1.79-1.26,5.55,5.55,0,0,1-1.13-1.85,6.71,6.71,0,0,1,0-4.51,5.45,5.45,0,0,1,1.13-1.85,5.37,5.37,0,0,1,1.79-1.26,6.46,6.46,0,0,1,4.79,0,5.37,5.37,0,0,1,1.79,1.26,5.45,5.45,0,0,1,1.13,1.85,6.71,6.71,0,0,1,0,4.51,5.55,5.55,0,0,1-1.13,1.85,5.37,5.37,0,0,1-1.79,1.26A5.78,5.78,0,0,1,81.1,160.88Zm0-2.13a3,3,0,0,0,1.38-.3,2.93,2.93,0,0,0,1-.81,3.39,3.39,0,0,0,.61-1.18A4.78,4.78,0,0,0,84.3,155a4.61,4.61,0,0,0-.21-1.4,3.35,3.35,0,0,0-.61-1.17,2.93,2.93,0,0,0-1-.81,3,3,0,0,0-1.38-.3,3,3,0,0,0-1.35.3,3.1,3.1,0,0,0-1,.81,3.54,3.54,0,0,0-.62,1.17,4.93,4.93,0,0,0-.2,1.4,5.13,5.13,0,0,0,.2,1.42,3.59,3.59,0,0,0,.62,1.18,3.1,3.1,0,0,0,1,.81A3,3,0,0,0,81.1,158.75Z" fill="#e52823"/><path d="M93.64,165.12a7.06,7.06,0,0,1-2.49-.41,5.93,5.93,0,0,1-2-1.25l1.13-1.75a3.44,3.44,0,0,0,1.49,1.1,5.38,5.38,0,0,0,1.87.33,3.22,3.22,0,0,0,2.3-.79,3,3,0,0,0,.83-2.29v-1.29a6.1,6.1,0,0,1-1.6,1.21,4.8,4.8,0,0,1-2.31.54,3.67,3.67,0,0,1-2.7-.91,3.6,3.6,0,0,1-.89-2.61v-7.5h2.41v6.6a2.21,2.21,0,0,0,.61,1.78,2.56,2.56,0,0,0,1.65.5,3.13,3.13,0,0,0,1.66-.45,4,4,0,0,0,1.17-1V149.5h2.41v10.56a5.55,5.55,0,0,1-.41,2.19,4.28,4.28,0,0,1-1.17,1.59,4.94,4.94,0,0,1-1.75.95A7.16,7.16,0,0,1,93.64,165.12Z" fill="#e52823"/><path d="M106.13,160.88a7.63,7.63,0,0,1-2.67-.44,6,6,0,0,1-2.09-1.3l1.1-1.73a5.39,5.39,0,0,0,.71.58,5.71,5.71,0,0,0,.92.49,6.47,6.47,0,0,0,1.05.35,4.94,4.94,0,0,0,1.07.12,2.77,2.77,0,0,0,1.65-.4,1.26,1.26,0,0,0,.56-1.07.9.9,0,0,0-.5-.83,5.48,5.48,0,0,0-1.24-.46l-1.62-.37a6.44,6.44,0,0,1-1.62-.55,3.48,3.48,0,0,1-1.25-1,2.65,2.65,0,0,1-.49-1.7,3,3,0,0,1,.29-1.3,3.16,3.16,0,0,1,.84-1.07,4.23,4.23,0,0,1,1.37-.72,5.9,5.9,0,0,1,1.87-.27,6.64,6.64,0,0,1,2.5.44,6.15,6.15,0,0,1,1.8,1.1l-1,1.71a4.11,4.11,0,0,0-1.37-.95,4.57,4.57,0,0,0-1.92-.39,2.56,2.56,0,0,0-1.51.39,1.18,1.18,0,0,0-.54,1,.81.81,0,0,0,.5.74,5.12,5.12,0,0,0,1.24.42l1.62.37a6.63,6.63,0,0,1,1.62.58,3.55,3.55,0,0,1,1.24,1,2.87,2.87,0,0,1,.5,1.76,3.23,3.23,0,0,1-.3,1.38,3,3,0,0,1-.89,1.11,4.62,4.62,0,0,1-1.44.72A6.71,6.71,0,0,1,106.13,160.88Z" fill="#e52823"/></g></g></svg>