<svg xmlns="http://www.w3.org/2000/svg" xmlns:xlink="http://www.w3.org/1999/xlink" viewBox="0 0 160.43 600.48"><defs><clipPath id="clip-path"><rect x="19.99" y="310.98" width="102" height="25.83" fill="none"/></clipPath><clipPath id="clip-path-2"><rect x="19.99" y="310.98" width="102" height="25.83" fill="none"/></clipPath></defs><title>end-frame</title><g id="Layer_2" data-name="Layer 2"><g id="content"><rect x="0.43" y="0.48" width="160" height="600"/><rect width="160" height="600" fill="none"/><path d="M2.56,600c-.07-4.93-.05-7,0-10.76.67-48.09,35.12-80.7,78.44-80.7s78.6,36.13,78.6,80.7c0,3.65-.08,6.83,0,10.76" fill="#e32d27"/><path d="M21.7,21.82H35a8.31,8.31,0,0,1,4,.89,6.24,6.24,0,0,1,2.49,2.36,6.45,6.45,0,0,1,.83,3.21,6,6,0,0,1-1.25,3.88A5.31,5.31,0,0,1,38,34.1a5.25,5.25,0,0,1,3.46,2.09,6.49,6.49,0,0,1,1.41,4.14,6.65,6.65,0,0,1-1.94,4.9,7.34,7.34,0,0,1-5.43,1.94H21.7ZM33.86,32A3,3,0,0,0,36,31.23a2.73,2.73,0,0,0,.79-2,2.66,2.66,0,0,0-.81-2,3,3,0,0,0-2.15-.8H27.1V32Zm.19,10.56a3.34,3.34,0,0,0,2.39-.82,3.05,3.05,0,0,0,0-4.29,3.27,3.27,0,0,0-2.39-.86H27.1v6Z" fill="#fff"/><path d="M48.09,46.39a5,5,0,0,1-1.31-3.75V21.82h4.83V41.35a2.28,2.28,0,0,0,.45,1.45,1.49,1.49,0,0,0,1.22.57,3.21,3.21,0,0,0,1-.15,1.52,1.52,0,0,0,.64-.38l1,3.64a5.85,5.85,0,0,1-4,1.18A5.33,5.33,0,0,1,48.09,46.39Z" fill="#fff"/><path d="M70.72,44.81a7.39,7.39,0,0,1-2.53,2.11,6.87,6.87,0,0,1-3.13.74,7.83,7.83,0,0,1-4.18-1.14A7.73,7.73,0,0,1,58,43.21a11.82,11.82,0,0,1-1-5.18,11.7,11.7,0,0,1,1-5.12,7.93,7.93,0,0,1,2.89-3.37,7.6,7.6,0,0,1,4.2-1.18,7,7,0,0,1,3.11.72,7.2,7.2,0,0,1,2.55,2.09V28.81h4.86V47.17H70.72Zm0-10a4.57,4.57,0,0,0-1.79-1.51,5.31,5.31,0,0,0-2.39-.59,4.23,4.23,0,0,0-3.34,1.47A5.61,5.61,0,0,0,61.9,38a5.61,5.61,0,0,0,1.3,3.85,4.22,4.22,0,0,0,3.34,1.49,5.31,5.31,0,0,0,2.39-.59,4.57,4.57,0,0,0,1.79-1.51Z" fill="#fff"/><path d="M80.45,33a8.89,8.89,0,0,1,3.46-3.42,10,10,0,0,1,5-1.24,9.64,9.64,0,0,1,4.41.93,7.65,7.65,0,0,1,2.85,2.37l-3.15,3a4.38,4.38,0,0,0-3.88-2,4.7,4.7,0,0,0-3.59,1.47A5.39,5.39,0,0,0,84.17,38a5.45,5.45,0,0,0,1.39,3.89,4.68,4.68,0,0,0,3.59,1.49,4.58,4.58,0,0,0,2.2-.52A4.68,4.68,0,0,0,93,41.39l3.15,2.93a7.88,7.88,0,0,1-2.83,2.39,9.45,9.45,0,0,1-4.43.95,10,10,0,0,1-5-1.24A8.89,8.89,0,0,1,80.45,43a10.51,10.51,0,0,1,0-10Z" fill="#fff"/><path d="M106.36,40.1l-2.2,2.36v4.71H99.33V21.82h4.83V37l7-8.17H117l-7.26,8.33,7.49,10h-6Z" fill="#fff"/><path d="M21.7,59.82H39.64v4.64H27.1V70H39.37V74.6H27.1V85.17H21.7Z" fill="#fff"/><path d="M43.28,66.81h4.83v2.51a8.22,8.22,0,0,1,2.58-2.11A6.88,6.88,0,0,1,54,66.36v4.71a6.16,6.16,0,0,0-1.33-.15,6.28,6.28,0,0,0-2.58.61A4.32,4.32,0,0,0,48.11,73V85.17H43.28Z" fill="#fff"/><path d="M57.32,63.26a2.77,2.77,0,0,1-.85-2,2.92,2.92,0,0,1,2.89-2.89,2.89,2.89,0,1,1-2,4.92ZM57,66.81h4.83V85.17H57Z" fill="#fff"/><path d="M79.19,82.81a7.45,7.45,0,0,1-2.52,2.11,6.91,6.91,0,0,1-3.14.74,7.86,7.86,0,0,1-4.18-1.14,7.73,7.73,0,0,1-2.91-3.31,12,12,0,0,1-1-5.18,11.85,11.85,0,0,1,1-5.12,7.93,7.93,0,0,1,2.89-3.37,7.6,7.6,0,0,1,4.2-1.18,7.06,7.06,0,0,1,3.12.72,7.17,7.17,0,0,1,2.54,2.09V59.82h4.87V85.17H79.19Zm0-10.06a4.54,4.54,0,0,0-1.78-1.51,5.38,5.38,0,0,0-2.4-.59,4.23,4.23,0,0,0-3.34,1.49A5.73,5.73,0,0,0,70.38,76a5.65,5.65,0,0,0,1.29,3.85A4.23,4.23,0,0,0,75,81.37a5.38,5.38,0,0,0,2.4-.59,4.54,4.54,0,0,0,1.78-1.51Z" fill="#fff"/><path d="M101.46,82.81a7.39,7.39,0,0,1-2.53,2.11,6.87,6.87,0,0,1-3.13.74,7.83,7.83,0,0,1-4.18-1.14,7.73,7.73,0,0,1-2.91-3.31,12,12,0,0,1-1-5.18,11.85,11.85,0,0,1,1-5.12,7.93,7.93,0,0,1,2.89-3.37,7.6,7.6,0,0,1,4.2-1.18,7.06,7.06,0,0,1,3.12.72,7.25,7.25,0,0,1,2.54,2.09V66.81h4.87V85.17h-4.87Zm0-10a4.54,4.54,0,0,0-1.78-1.51,5.38,5.38,0,0,0-2.4-.59,4.23,4.23,0,0,0-3.34,1.47,6.42,6.42,0,0,0,0,7.72,4.22,4.22,0,0,0,3.34,1.49,5.38,5.38,0,0,0,2.4-.59,4.54,4.54,0,0,0,1.78-1.51Z" fill="#fff"/><path d="M113.05,86.38a5.84,5.84,0,0,0,2.43,1.71,8.54,8.54,0,0,0,3.08.57,5.12,5.12,0,0,0,3.65-1.21A4.58,4.58,0,0,0,123.5,84v-1.9A8.65,8.65,0,0,1,117,84.83a5.94,5.94,0,0,1-4.44-1.52,5.86,5.86,0,0,1-1.49-4.26V66.81h4.83V77.15a3.34,3.34,0,0,0,.87,2.6,3.66,3.66,0,0,0,2.51.78,4.87,4.87,0,0,0,2.4-.61,5.55,5.55,0,0,0,1.78-1.48V66.81h4.83V83.72a8.3,8.3,0,0,1-2.64,6.56,10.37,10.37,0,0,1-7.13,2.34,11.21,11.21,0,0,1-7.67-2.74Z" fill="#fff"/><path d="M34.2,120.81a7.45,7.45,0,0,1-2.52,2.11,6.94,6.94,0,0,1-3.14.74,7.83,7.83,0,0,1-4.18-1.14,7.73,7.73,0,0,1-2.91-3.31,12,12,0,0,1-1-5.18,11.85,11.85,0,0,1,1-5.12,7.93,7.93,0,0,1,2.89-3.37,7.6,7.6,0,0,1,4.2-1.18,7.06,7.06,0,0,1,3.12.72,7.25,7.25,0,0,1,2.54,2.09V97.82h4.87v25.35H34.2Zm0-10.06a4.54,4.54,0,0,0-1.78-1.51,5.38,5.38,0,0,0-2.4-.59,4.22,4.22,0,0,0-3.34,1.49A5.73,5.73,0,0,0,25.39,114a5.65,5.65,0,0,0,1.29,3.85A4.22,4.22,0,0,0,30,119.37a5.38,5.38,0,0,0,2.4-.59,4.54,4.54,0,0,0,1.78-1.51Z" fill="#fff"/><path d="M43.89,109.14a9.28,9.28,0,0,1,3.38-3.49,9.42,9.42,0,0,1,4.91-1.29A9,9,0,0,1,57,105.63a8.58,8.58,0,0,1,3.25,3.57,11.48,11.48,0,0,1,1.16,5.27v1.06H47.73a4.74,4.74,0,0,0,1.63,3.07A5.4,5.4,0,0,0,53,119.82a7.72,7.72,0,0,0,2.68-.49A6.23,6.23,0,0,0,57.91,118L60,121.12A9.16,9.16,0,0,1,56.7,123a13.46,13.46,0,0,1-4.22.66,10.49,10.49,0,0,1-5-1.2A8.81,8.81,0,0,1,44,119.07a10.56,10.56,0,0,1-.06-9.93Zm5.09.29a5,5,0,0,0-1.33,2.83H56.7a4.66,4.66,0,0,0-1.24-2.81,4.14,4.14,0,0,0-3.28-1.25A4.15,4.15,0,0,0,49,109.43Z" fill="#fff"/><path d="M77.48,120.81A7.45,7.45,0,0,1,75,122.92a6.91,6.91,0,0,1-3.14.74,7.86,7.86,0,0,1-4.18-1.14,7.65,7.65,0,0,1-2.9-3.31,11.82,11.82,0,0,1-1-5.18,11.7,11.7,0,0,1,1-5.12,7.84,7.84,0,0,1,2.88-3.37,7.6,7.6,0,0,1,4.2-1.18,7.06,7.06,0,0,1,3.12.72,7.17,7.17,0,0,1,2.54,2.09v-2.36h4.87v18.36H77.48Zm0-10a4.54,4.54,0,0,0-1.78-1.51,5.38,5.38,0,0,0-2.4-.59A4.25,4.25,0,0,0,70,110.16a6.42,6.42,0,0,0,0,7.72,4.23,4.23,0,0,0,3.34,1.49,5.38,5.38,0,0,0,2.4-.59,4.54,4.54,0,0,0,1.78-1.51Z" fill="#fff"/><path d="M88.45,122.39a5,5,0,0,1-1.31-3.75V97.82H92v19.53a2.23,2.23,0,0,0,.46,1.45,1.47,1.47,0,0,0,1.21.57,3.12,3.12,0,0,0,1-.15,1.5,1.5,0,0,0,.65-.38l1,3.64a5.82,5.82,0,0,1-4,1.18A5.31,5.31,0,0,1,88.45,122.39Z" fill="#fff"/><path d="M99,117.43a9.84,9.84,0,0,0,2.89,1.75,9.15,9.15,0,0,0,3.46.76,4.34,4.34,0,0,0,2.3-.5,1.55,1.55,0,0,0,.78-1.38,1.45,1.45,0,0,0-.91-1.34,11.91,11.91,0,0,0-2.78-.85A27.62,27.62,0,0,1,101,115a6,6,0,0,1-2.5-1.65,4.53,4.53,0,0,1-1.07-3.18,5.1,5.1,0,0,1,.89-2.88,6.09,6.09,0,0,1,2.61-2.11,9.63,9.63,0,0,1,4-.78,11.54,11.54,0,0,1,7.41,2.51l-1.94,3.3a6.88,6.88,0,0,0-2.34-1.52A8.08,8.08,0,0,0,105,108a4.23,4.23,0,0,0-2.11.46,1.4,1.4,0,0,0-.77,1.25A1.27,1.27,0,0,0,103,111a12.67,12.67,0,0,0,2.64.78,25.65,25.65,0,0,1,3.69,1,6.27,6.27,0,0,1,2.58,1.76,4.73,4.73,0,0,1,1.1,3.31,5.22,5.22,0,0,1-.93,3,6,6,0,0,1-2.73,2.12,11,11,0,0,1-4.28.76,13.8,13.8,0,0,1-4.58-.76,10.22,10.22,0,0,1-3.63-2.09Z" fill="#fff"/><path d="M22.92,153.53A11.21,11.21,0,0,0,26.43,156,10.79,10.79,0,0,0,31,157a5.46,5.46,0,0,0,3.25-.84,2.47,2.47,0,0,0,1.16-2,2.13,2.13,0,0,0-1.25-2,17.37,17.37,0,0,0-3.88-1.28,41.75,41.75,0,0,1-4.83-1.37,8,8,0,0,1-3.24-2.23,6,6,0,0,1-1.39-4.17A6.75,6.75,0,0,1,22,139.18a7.94,7.94,0,0,1,3.36-2.77,12,12,0,0,1,5.07-1,14,14,0,0,1,9.88,3.54l-3,3.95a10.13,10.13,0,0,0-3.4-2.07,11.13,11.13,0,0,0-3.86-.7,4.6,4.6,0,0,0-2.75.7,2.24,2.24,0,0,0-1,1.9,1.82,1.82,0,0,0,1.18,1.74,21.65,21.65,0,0,0,3.87,1.2,36.31,36.31,0,0,1,4.81,1.39,8.56,8.56,0,0,1,3.31,2.31,6,6,0,0,1,1.38,4.15,7.41,7.41,0,0,1-2.6,5.9q-2.61,2.25-7.54,2.25-6.74,0-10.76-4Z" fill="#fff"/><path d="M50.09,140.57H42.68v-4.75H62.89v4.75H55.52v20.6H50.09Z" fill="#fff"/><path d="M80.07,156.8H68.74l-1.59,4.37H61.22L71,135.82h6.77l9.76,25.35H81.66Zm-9.88-4.68h8.4L74.41,140.5Z" fill="#fff"/><path d="M99.26,152.09h-4v9.08h-5.4V135.82h11.86a9.34,9.34,0,0,1,4.52,1.05,7.14,7.14,0,0,1,3,2.9,8.56,8.56,0,0,1,1,4.22,7.64,7.64,0,0,1-1.62,5.06,7.08,7.08,0,0,1-3.93,2.47l5.7,9.65h-6.19Zm4.43-10.66a3.93,3.93,0,0,0-2.72-1H95.31v7H101a3.93,3.93,0,0,0,2.72-1,3.25,3.25,0,0,0,1.08-2.53A3.21,3.21,0,0,0,103.69,141.43Z" fill="#fff"/><path d="M119.82,140.57h-7.41v-4.75h20.21v4.75h-7.37v20.6h-5.43Z" fill="#fff"/><path d="M27.1,182.14v17H21.7V173.82h5.55L39,190.24V173.82h5.4v25.35H39.18Z" fill="#fff"/><path d="M49.9,179.78a12.23,12.23,0,0,1,4.73-4.68,14.45,14.45,0,0,1,13.6,0A12.29,12.29,0,0,1,73,179.78a14.2,14.2,0,0,1,0,13.51A12.29,12.29,0,0,1,68.23,198a14.53,14.53,0,0,1-13.6,0,12.23,12.23,0,0,1-4.73-4.68,14.2,14.2,0,0,1,0-13.51Zm18.27,2.49a7.13,7.13,0,0,0-2.71-3,7.54,7.54,0,0,0-4-1.09,7.44,7.44,0,0,0-4,1.09,7.31,7.31,0,0,0-2.7,3,10,10,0,0,0,0,8.53,7.31,7.31,0,0,0,2.7,3,7.52,7.52,0,0,0,4,1.08,7.62,7.62,0,0,0,4-1.08,7.13,7.13,0,0,0,2.71-3,10,10,0,0,0,0-8.53Z" fill="#fff"/><path d="M92.65,181.76l-4.41,17.41H82.5l-7.26-25.35h6l4.45,18.32,4.83-18.32h4.21l4.79,18.32L104,173.82h6.08l-7.22,25.35H97.09Z" fill="#fff"/><g id="white_logo" data-name="white logo"><g clip-path="url(#clip-path)"><g clip-path="url(#clip-path-2)"><path d="M31.53,315.07c15.36-4.7,23.12,7.07,23.12,7.07s-4.87-16.42-23.12-7.07" fill="#fff"/><path d="M61.23,315.67a5,5,0,0,1,0-.55,11.46,11.46,0,0,0-6.06,8.81s2.09-4.86,7-6.33a3,3,0,0,1-.94-1.93" fill="#fff"/><path d="M41.63,322.53s0,2.32,0,3.5c-.59,0-3.14-.17-4.26-.21,0,.63,0,1.27,0,1.9,1.34,0,2.74.19,4.08.17,0,1.13,0,2.1,0,3.22-1.34,0-2.68-.1-4-.13l0,2c1.45,0,2.89.15,4.34.13,0-.05,0,3.43,0,3.43-2.86,0-6.24-.22-9.45-.49l.22-14.28c1.35.16,5.54.6,9.19.71" fill="#fff"/><path d="M42.85,322.56l-.06,3.73c1.35.07,2.56.07,2.56.07v10.35a31.73,31.73,0,0,0,5.15-.07l-.06-10.25s2.28-.1,2.64-.13c0-1.37,0-2.44,0-3.81a90.74,90.74,0,0,1-10.17.11" fill="#fff"/><path d="M111.77,320.29v4.33c.87.05,1.86.22,2.73.3,0,3.6-.09,6.34-.09,9.95,2.43.29,4.15.57,4.82.69,0-3.61.14-6.45.14-10.06,0,0,2.57.4,2.62.44v-4.45a78.85,78.85,0,0,0-10.22-1.2" fill="#fff"/><path d="M25,327.25l-.45-.05,0-2.93.43.05a1.48,1.48,0,0,1,1.49,1.57c0,1.21-.76,1.44-1.5,1.36m1.13-6.9L20,319.24l0,15c1.57.31,3,.57,4.53.74l0-4.33,1.65.18c2.65.25,5.32-.75,5.36-5.09,0-3.84-2.53-5-5.37-5.37" fill="#fff"/><path d="M77.17,334.27c.68-1.79,1.37-3.46,2-5.24.11,1.71.18,3.25.29,5,1.7-.19,3.08-.29,4.8-.4-.45-4.55-.83-9.43-1.28-14-1.46.12-2.93.26-4.4.4-.82,2.14-1.65,4.76-2.47,6.9-.8-2-1.59-4.32-2.39-6.3-1.48.21-4.13.67-4.4.68-.51,4.63-1.09,9.79-1.6,14.42,1.17-.2,4-.65,4.89-.77.13-1.73.26-3.58.4-5.31l2,4.95,2.13-.32" fill="#fff"/><path d="M104.3,326.42l-.45,0c0-1,0-1.93,0-2.9l.43,0a1.46,1.46,0,0,1,1.5,1.53,1.25,1.25,0,0,1-1.52,1.37m4.25,3.08c1.31-.59,2.25-1.85,2.29-4.36,0-3.79-2.63-5.41-5.34-5.61-2-.17-4.1-.27-6.15-.33-.07,4.81-.09,9.21-.16,14,1.54,0,3.22.16,4.56.27,0-1.35,0-2.36.06-3.71.87,1.41,1.59,2.58,2.46,4,1.89.17,3.82.41,5.71.69-1.18-1.76-2.25-3.27-3.43-5" fill="#fff"/><path d="M90.65,328.57l.95-3.65c.37,1.2.73,2.4,1.1,3.6a19.4,19.4,0,0,1-2,.05M94,319.1c-1.82,0-3.31,0-4.87.1-1.25,4.66-2.73,9.65-4,14.34,1.39,0,2.81-.12,4.2-.12.13-.5.27-1.07.4-1.56l2.13-.05s1.88-.06,1.88-.06c0,.18.22.67.47,1.48,1.39,0,2.78,0,4.18,0-1.51-4.94-3-9.69-4.41-14.17" fill="#fff"/><path d="M54.66,335.38a12.53,12.53,0,0,0,5.65,1.44c3.2,0,6.55-1.92,6.62-5.51,0-2.55-1.57-3.76-3.83-4.27l-1.21-.27c-.42-.1-1.08-.18-1.07-.74s.7-.8,1.17-.8a8.68,8.68,0,0,1,3.27.69l1.36-3.6A10.6,10.6,0,0,0,62,321.21c-3.22,0-6.46,2-6.53,5.51,0,2.36,1.7,3.65,3.79,4l1.07.2c.49.1,1.2.16,1.18.84s-.85.76-1.37.76a6.36,6.36,0,0,1-3.68-1.22c-.55,1.26-1.21,2.8-1.76,4.05" fill="#fff"/><path d="M66.23,311a3.61,3.61,0,1,0,3.56,3.65A3.61,3.61,0,0,0,66.23,311m1.31,1.33a4.33,4.33,0,0,0-3.87,2.26s0,0,0,.06a2.65,2.65,0,0,1,.09-1,2.45,2.45,0,0,1,3-1.75,2.31,2.31,0,0,1,.85.45l0,0" fill="#fff"/></g></g></g></g></g></svg>