<svg xmlns="http://www.w3.org/2000/svg" viewBox="0 0 160 600"><title>subhead</title><g id="Layer_2" data-name="Layer 2"><g id="content"><path d="M25,226.48a6,6,0,0,1-2.23-.42,5.35,5.35,0,0,1-1.84-1.19A5.54,5.54,0,0,1,19.68,223a6.5,6.5,0,0,1,0-4.83A5.65,5.65,0,0,1,21,216.33a5.75,5.75,0,0,1,1.89-1.18,6.33,6.33,0,0,1,2.32-.42,6,6,0,0,1,1.52.19,5.62,5.62,0,0,1,1.25.5,4.73,4.73,0,0,1,1,.75,7.37,7.37,0,0,1,.78.91l-1.62.93a3.54,3.54,0,0,0-1.22-1.07,3.41,3.41,0,0,0-1.72-.44,3.78,3.78,0,0,0-1.56.31,3.7,3.7,0,0,0-1.24.85,4,4,0,0,0-.81,1.29,4.42,4.42,0,0,0-.3,1.66,4.34,4.34,0,0,0,.3,1.63,4.25,4.25,0,0,0,.81,1.31,3.88,3.88,0,0,0,1.24.86,3.94,3.94,0,0,0,1.56.3,3.44,3.44,0,0,0,1.28-.22,3,3,0,0,0,1-.61,3.11,3.11,0,0,0,.67-.89,4.38,4.38,0,0,0,.39-1.08h-4v-1.77h6.19a8.24,8.24,0,0,1-.39,2.62,5.65,5.65,0,0,1-1.1,2A4.86,4.86,0,0,1,27.39,226,6,6,0,0,1,25,226.48Z" fill="#e32d27"/><path d="M31.85,226.26v-8.21h1.79v1.19a3.93,3.93,0,0,1,1.17-1,3,3,0,0,1,1.5-.4v1.77a3,3,0,0,0-.55-.05,2.18,2.18,0,0,0-.6.09,2.64,2.64,0,0,0-.61.23,3.62,3.62,0,0,0-.54.36,1.81,1.81,0,0,0-.37.43v5.59Z" fill="#e32d27"/><path d="M37.75,226.26v-8.21h1.79v1.19a3.93,3.93,0,0,1,1.17-1,3,3,0,0,1,1.49-.4v1.77a2.84,2.84,0,0,0-.54-.05,2.18,2.18,0,0,0-.6.09,2.64,2.64,0,0,0-.61.23,3.62,3.62,0,0,0-.54.36,1.81,1.81,0,0,0-.37.43v5.59Z" fill="#e32d27"/><path d="M47.46,226.46a4.84,4.84,0,0,1-1.73-.3,3.9,3.9,0,0,1-2.25-2.25,4.56,4.56,0,0,1-.32-1.76,4.72,4.72,0,0,1,.3-1.68,4.19,4.19,0,0,1,.86-1.37,4.29,4.29,0,0,1,1.32-.92,4.2,4.2,0,0,1,1.68-.34,4,4,0,0,1,1.67.34,3.67,3.67,0,0,1,1.27.92,4.27,4.27,0,0,1,.81,1.41,5.42,5.42,0,0,1,.28,1.79v.44H45a2.56,2.56,0,0,0,.24.87,2.49,2.49,0,0,0,.53.72,2.35,2.35,0,0,0,.79.49,2.84,2.84,0,0,0,1,.18,3.64,3.64,0,0,0,1.26-.24,2.73,2.73,0,0,0,1.08-.68l.82,1.18a4.35,4.35,0,0,1-1.5.9A5.53,5.53,0,0,1,47.46,226.46Zm2.17-5a2.24,2.24,0,0,0-.16-.74,2.18,2.18,0,0,0-.42-.7,2.25,2.25,0,0,0-.71-.52,2.71,2.71,0,0,0-2,0,2.19,2.19,0,0,0-.71.51,2.4,2.4,0,0,0-.43.7,2.32,2.32,0,0,0-.17.76Z" fill="#e32d27"/><path d="M58.9,226.26v-1.12a3.57,3.57,0,0,1-1.15,1,3.21,3.21,0,0,1-1.49.35,3.51,3.51,0,0,1-1.45-.29,3.12,3.12,0,0,1-1.16-.85A4,4,0,0,1,52.9,224a6.13,6.13,0,0,1,0-3.6,4.06,4.06,0,0,1,.75-1.36,3.44,3.44,0,0,1,1.15-.86,3.5,3.5,0,0,1,1.46-.3,3.18,3.18,0,0,1,2.64,1.35v-1.14h1.78v8.21Zm-2.11-1.38a2.64,2.64,0,0,0,.62-.08,3.13,3.13,0,0,0,.6-.24,3.54,3.54,0,0,0,.51-.35,1.92,1.92,0,0,0,.38-.43v-3.25a2.13,2.13,0,0,0-.38-.42,3,3,0,0,0-.51-.36,3.13,3.13,0,0,0-.6-.24,2.2,2.2,0,0,0-.62-.08,2.16,2.16,0,0,0-1,.2,2.23,2.23,0,0,0-.73.56,2.54,2.54,0,0,0-.47.86,3.83,3.83,0,0,0,0,2.19,2.69,2.69,0,0,0,.47.87,2.26,2.26,0,0,0,.73.57A2.3,2.3,0,0,0,56.79,224.88Z" fill="#e32d27"/><path d="M65.48,226.46a2.1,2.1,0,0,1-1.58-.54,2.19,2.19,0,0,1-.53-1.58V219.6H62v-1.55h1.36V215.8h1.78v2.25h1.67v1.55H65.15v4.3a1.2,1.2,0,0,0,.2.7.67.67,0,0,0,.59.28,1.14,1.14,0,0,0,.46-.09.81.81,0,0,0,.32-.21l.42,1.36a2,2,0,0,1-.64.37A3,3,0,0,1,65.48,226.46Z" fill="#e32d27"/><path d="M78.31,226.46A6.4,6.4,0,0,1,76,226a5.45,5.45,0,0,1-1.89-1.2A5.73,5.73,0,0,1,72.82,223a6.44,6.44,0,0,1,0-4.78,5.62,5.62,0,0,1,1.26-1.85,5.45,5.45,0,0,1,1.89-1.2,6.4,6.4,0,0,1,2.34-.43,5.38,5.38,0,0,1,1.55.21,5.12,5.12,0,0,1,1.26.55,4.87,4.87,0,0,1,1,.81,5.2,5.2,0,0,1,.74,1l-1.68.88a3.37,3.37,0,0,0-2.86-1.65,3.78,3.78,0,0,0-1.56.31,3.56,3.56,0,0,0-1.24.85A4,4,0,0,0,74.7,219a4.4,4.4,0,0,0-.3,1.65,4.34,4.34,0,0,0,.3,1.63,4.2,4.2,0,0,0,.81,1.3,3.59,3.59,0,0,0,1.24.86,4,4,0,0,0,1.56.31,3.18,3.18,0,0,0,1.68-.47,3.25,3.25,0,0,0,1.18-1.18l1.7.85a6.89,6.89,0,0,1-.76,1,4.6,4.6,0,0,1-1,.82,5.54,5.54,0,0,1-1.26.56A5.38,5.38,0,0,1,78.31,226.46Z" fill="#e32d27"/><path d="M90,226.26v-5.17a1.61,1.61,0,0,0-.45-1.32,1.88,1.88,0,0,0-1.2-.34,2.3,2.3,0,0,0-1.25.34,2.9,2.9,0,0,0-.86.74v5.75H84.41V214.92H86.2v4.23a3.27,3.27,0,0,1,.5-.47,4.41,4.41,0,0,1,.66-.43,4.73,4.73,0,0,1,.8-.3,4,4,0,0,1,.93-.11,2.72,2.72,0,0,1,2,.67,2.64,2.64,0,0,1,.66,1.94v5.81Z" fill="#e32d27"/><path d="M97.78,226.46a4.18,4.18,0,0,1-1.77-.35,4,4,0,0,1-1.33-.93,4.06,4.06,0,0,1-.83-1.37,4.79,4.79,0,0,1-.29-1.66,4.84,4.84,0,0,1,.29-1.67,4.06,4.06,0,0,1,.83-1.37,4,4,0,0,1,1.33-.93,4.75,4.75,0,0,1,3.53,0,3.88,3.88,0,0,1,1.33.93,4.06,4.06,0,0,1,.83,1.37,4.62,4.62,0,0,1,.29,1.67,4.57,4.57,0,0,1-.29,1.66,4.06,4.06,0,0,1-.83,1.37,3.88,3.88,0,0,1-1.33.93A4.16,4.16,0,0,1,97.78,226.46Zm0-1.58a2.18,2.18,0,0,0,1.76-.81,2.92,2.92,0,0,0,.45-.88,3.58,3.58,0,0,0,.15-1,3.53,3.53,0,0,0-.15-1,3,3,0,0,0-.45-.87,2.13,2.13,0,0,0-.74-.59,2.25,2.25,0,0,0-1-.22,2.21,2.21,0,0,0-1,.22,2.13,2.13,0,0,0-.74.59,2.42,2.42,0,0,0-.46.87,3.24,3.24,0,0,0-.16,1,3.28,3.28,0,0,0,.16,1,2.39,2.39,0,0,0,.46.88,2.25,2.25,0,0,0,.74.59A2.21,2.21,0,0,0,97.78,224.88Z" fill="#e32d27"/><path d="M104.71,217.05a1.07,1.07,0,0,1-.78-.33,1.11,1.11,0,0,1,0-1.56,1.06,1.06,0,0,1,.78-.32,1.11,1.11,0,0,1,0,2.21Zm-.9,9.21v-8.21h1.79v8.21Z" fill="#e32d27"/><path d="M111.65,226.46a4.27,4.27,0,0,1-1.71-.32,4,4,0,0,1-1.34-.9,4.22,4.22,0,0,1-.87-1.37,4.62,4.62,0,0,1-.32-1.72,4.54,4.54,0,0,1,.32-1.72,4.17,4.17,0,0,1,.87-1.36,3.86,3.86,0,0,1,1.34-.9,4.27,4.27,0,0,1,1.71-.33,4.49,4.49,0,0,1,1.09.12,3.43,3.43,0,0,1,.87.33,3,3,0,0,1,.67.46,3.32,3.32,0,0,1,.51.56l-1.17,1.07a2.17,2.17,0,0,0-1.89-.95,2.32,2.32,0,0,0-1.8.75,2.86,2.86,0,0,0-.68,2,3.2,3.2,0,0,0,.18,1.09,2.6,2.6,0,0,0,.51.87,2.46,2.46,0,0,0,.78.57,2.53,2.53,0,0,0,1,.2,2.2,2.2,0,0,0,1.89-1l1.17,1.1a3.88,3.88,0,0,1-1.19,1A3.76,3.76,0,0,1,111.65,226.46Z" fill="#e32d27"/><path d="M120.18,226.46a4.78,4.78,0,0,1-1.72-.3,3.94,3.94,0,0,1-1.36-.88,4.08,4.08,0,0,1-.9-1.37,4.75,4.75,0,0,1-.32-1.76,4.52,4.52,0,0,1,.31-1.68,4.17,4.17,0,0,1,.85-1.37,4.29,4.29,0,0,1,1.32-.92,4.21,4.21,0,0,1,1.69-.34,3.91,3.91,0,0,1,1.66.34,3.71,3.71,0,0,1,1.28.92,4.08,4.08,0,0,1,.8,1.41,5.42,5.42,0,0,1,.28,1.79v.44h-6.32a2.57,2.57,0,0,0,.25.87,2.34,2.34,0,0,0,1.31,1.21,2.87,2.87,0,0,0,1,.18,3.6,3.6,0,0,0,1.26-.24,2.84,2.84,0,0,0,1.09-.68l.81,1.18a4.31,4.31,0,0,1-1.49.9A5.59,5.59,0,0,1,120.18,226.46Zm2.18-5a2.52,2.52,0,0,0-.16-.74,2.21,2.21,0,0,0-.43-.7,2.33,2.33,0,0,0-.7-.52,2.74,2.74,0,0,0-2,0,2,2,0,0,0-.7.51,2.43,2.43,0,0,0-.44.7,2.32,2.32,0,0,0-.17.76Z" fill="#e32d27"/><path d="M126.08,217.93v2.52h-.37v-2.52h-.8v-.34h2v.34Zm3.69,2.52v-2.37l-1,2.37h-.1l-1-2.37v2.37h-.37v-2.86h.56l.83,2.08.83-2.08h.56v2.86Z" fill="#e32d27"/><path d="M25.44,246.26v-1.12a3.53,3.53,0,0,1-1.14,1,3.24,3.24,0,0,1-1.49.35,3.56,3.56,0,0,1-1.46-.29,3.08,3.08,0,0,1-1.15-.85,4,4,0,0,1-.76-1.36,6.13,6.13,0,0,1,0-3.6A4.07,4.07,0,0,1,20.2,239a3.25,3.25,0,0,1,1.15-.86,3.5,3.5,0,0,1,1.46-.3,3.3,3.3,0,0,1,1.46.34,3.4,3.4,0,0,1,1.17,1v-4.27h1.79v11.34Zm-2.1-1.38a2.7,2.7,0,0,0,.62-.08,3,3,0,0,0,.59-.24,2.7,2.7,0,0,0,.51-.35,1.92,1.92,0,0,0,.38-.43v-3.25a2.13,2.13,0,0,0-.38-.42,2.34,2.34,0,0,0-.51-.36,3,3,0,0,0-.59-.24,2.25,2.25,0,0,0-.62-.08,2.14,2.14,0,0,0-1.7.76,2.38,2.38,0,0,0-.47.86,3.83,3.83,0,0,0,0,2.19,2.52,2.52,0,0,0,.47.87,2.16,2.16,0,0,0,.73.57A2.27,2.27,0,0,0,23.34,244.88Z" fill="#e32d27"/><path d="M33.26,246.46a4.24,4.24,0,0,1-1.77-.35,3.94,3.94,0,0,1-1.32-.93,4.06,4.06,0,0,1-.83-1.37,4.57,4.57,0,0,1-.29-1.66,4.62,4.62,0,0,1,.29-1.67,4.06,4.06,0,0,1,.83-1.37,3.94,3.94,0,0,1,1.32-.93,4.58,4.58,0,0,1,1.77-.34,4.5,4.5,0,0,1,1.77.34,3.91,3.91,0,0,1,2.16,2.3,4.84,4.84,0,0,1,.29,1.67,4.79,4.79,0,0,1-.29,1.66,3.91,3.91,0,0,1-2.16,2.3A4.18,4.18,0,0,1,33.26,246.46Zm0-1.58a2.19,2.19,0,0,0,1-.22,2.15,2.15,0,0,0,.74-.59,2.53,2.53,0,0,0,.45-.88,3.59,3.59,0,0,0,.16-1,3.54,3.54,0,0,0-.16-1,2.57,2.57,0,0,0-.45-.87,2,2,0,0,0-.74-.59,2.19,2.19,0,0,0-1-.22,2.16,2.16,0,0,0-1,.22,2.26,2.26,0,0,0-.75.59,2.78,2.78,0,0,0-.46.87,3.53,3.53,0,0,0-.15,1,3.58,3.58,0,0,0,.15,1,2.73,2.73,0,0,0,.46.88,2.39,2.39,0,0,0,.75.59A2.16,2.16,0,0,0,33.26,244.88Z" fill="#e32d27"/><path d="M42.65,249.59a6.21,6.21,0,0,1-1.87-.26,4.42,4.42,0,0,1-1.58-1l.83-1.29a2.89,2.89,0,0,0,1.15.81,4.24,4.24,0,0,0,1.47.24,3.7,3.7,0,0,0,.87-.11,2,2,0,0,0,.78-.38,2.11,2.11,0,0,0,.57-.71,2.51,2.51,0,0,0,.21-1.1v-.93a3.66,3.66,0,0,1-1.15,1,3,3,0,0,1-1.49.38A3.86,3.86,0,0,1,41,246a3.27,3.27,0,0,1-1.16-.82,3.86,3.86,0,0,1-.75-1.32,5.49,5.49,0,0,1-.28-1.8,5.41,5.41,0,0,1,.28-1.78,3.82,3.82,0,0,1,.75-1.33,3.35,3.35,0,0,1,1.15-.83,3.84,3.84,0,0,1,1.46-.28,3.18,3.18,0,0,1,2.64,1.35v-1.14h1.78v7.78a4,4,0,0,1-.37,1.84,3.2,3.2,0,0,1-1,1.16,3.7,3.7,0,0,1-1.36.59A7,7,0,0,1,42.65,249.59Zm.32-4.91a2.58,2.58,0,0,0,1.22-.32,2.62,2.62,0,0,0,.89-.77v-3.08a2.59,2.59,0,0,0-.89-.76,2.47,2.47,0,0,0-1.22-.32,2.15,2.15,0,0,0-1.7.72,2.8,2.8,0,0,0-.63,1.91,2.76,2.76,0,0,0,.63,1.9A2.15,2.15,0,0,0,43,244.68Z" fill="#e32d27"/><path d="M58,246.46a3,3,0,0,1-1.45-.35,3.48,3.48,0,0,1-1.18-1v4.27H53.56V238.05h1.79v1.12a3.3,3.3,0,0,1,1.13-1,3.19,3.19,0,0,1,1.5-.36,3.66,3.66,0,0,1,1.46.29,3.23,3.23,0,0,1,1.15.85,3.84,3.84,0,0,1,.76,1.35,5.66,5.66,0,0,1,.27,1.82,5.6,5.6,0,0,1-.27,1.81,4,4,0,0,1-.76,1.36,3.35,3.35,0,0,1-1.15.85A3.66,3.66,0,0,1,58,246.46Zm-.53-1.58a2.07,2.07,0,0,0,1.7-.76,3.4,3.4,0,0,0,0-3.94,2.1,2.1,0,0,0-1.7-.75,2.51,2.51,0,0,0-1.21.31,2.43,2.43,0,0,0-.89.77v3.25a2,2,0,0,0,.38.44,2.34,2.34,0,0,0,.51.36,3,3,0,0,0,.59.24A2.7,2.7,0,0,0,57.45,244.88Z" fill="#e32d27"/><path d="M69.18,246.26v-1.12a3.53,3.53,0,0,1-1.14,1,3.24,3.24,0,0,1-1.49.35,3.56,3.56,0,0,1-1.46-.29,3.08,3.08,0,0,1-1.15-.85,4,4,0,0,1-.76-1.36,6.13,6.13,0,0,1,0-3.6,4.07,4.07,0,0,1,.76-1.36,3.25,3.25,0,0,1,1.15-.86,3.5,3.5,0,0,1,1.46-.3,3.3,3.3,0,0,1,1.46.34,3.4,3.4,0,0,1,1.17,1v-1.14H71v8.21Zm-2.1-1.38a2.7,2.7,0,0,0,.62-.08,3,3,0,0,0,.59-.24,2.7,2.7,0,0,0,.51-.35,1.92,1.92,0,0,0,.38-.43v-3.25a2.13,2.13,0,0,0-.38-.42,2.34,2.34,0,0,0-.51-.36,3,3,0,0,0-.59-.24,2.25,2.25,0,0,0-.62-.08,2.14,2.14,0,0,0-1.7.76,2.38,2.38,0,0,0-.47.86,3.83,3.83,0,0,0,0,2.19,2.52,2.52,0,0,0,.47.87,2.16,2.16,0,0,0,.73.57A2.27,2.27,0,0,0,67.08,244.88Z" fill="#e32d27"/><path d="M79.06,246.26v-1.12a3.57,3.57,0,0,1-1.15,1,3.17,3.17,0,0,1-1.48.35,3.53,3.53,0,0,1-1.46-.29,3,3,0,0,1-1.15-.85,3.82,3.82,0,0,1-.76-1.36,6.13,6.13,0,0,1,0-3.6,3.91,3.91,0,0,1,.76-1.36,3.31,3.31,0,0,1,1.14-.86,3.54,3.54,0,0,1,1.47-.3,3.33,3.33,0,0,1,1.46.34,3.4,3.4,0,0,1,1.17,1v-4.27h1.78v11.34ZM77,244.88a2.64,2.64,0,0,0,.62-.08,3.13,3.13,0,0,0,.6-.24,3.54,3.54,0,0,0,.51-.35,1.92,1.92,0,0,0,.38-.43v-3.25a2.13,2.13,0,0,0-.38-.42,3,3,0,0,0-.51-.36,3.13,3.13,0,0,0-.6-.24,2.45,2.45,0,0,0-1.59.12,2.34,2.34,0,0,0-.73.56,2.54,2.54,0,0,0-.47.86,3.83,3.83,0,0,0,0,2.19,2.69,2.69,0,0,0,.47.87,2.37,2.37,0,0,0,.73.57A2.34,2.34,0,0,0,77,244.88Z" fill="#e32d27"/><path d="M86,246.46a5.66,5.66,0,0,1-2-.33,4.32,4.32,0,0,1-1.55-1l.82-1.27a3.28,3.28,0,0,0,.52.42,4.4,4.4,0,0,0,.68.37,5.07,5.07,0,0,0,.78.25,3.56,3.56,0,0,0,.79.1,2.05,2.05,0,0,0,1.22-.3.94.94,0,0,0,.41-.79.65.65,0,0,0-.37-.61,3.54,3.54,0,0,0-.91-.34c-.37-.1-.77-.19-1.2-.28a5.13,5.13,0,0,1-1.2-.4,2.69,2.69,0,0,1-.92-.74,2,2,0,0,1-.37-1.25,2.11,2.11,0,0,1,.22-1,2.24,2.24,0,0,1,.62-.79,3,3,0,0,1,1-.54,4.48,4.48,0,0,1,1.39-.2,4.76,4.76,0,0,1,1.84.33,4.26,4.26,0,0,1,1.33.81l-.74,1.26a3.21,3.21,0,0,0-1-.7,3.38,3.38,0,0,0-1.41-.28,1.91,1.91,0,0,0-1.12.28.9.9,0,0,0-.4.74.58.58,0,0,0,.37.54,3.94,3.94,0,0,0,.92.31l1.19.28a4.74,4.74,0,0,1,1.2.42,2.55,2.55,0,0,1,.92.77,2.11,2.11,0,0,1,.37,1.3,2.38,2.38,0,0,1-.23,1,2.11,2.11,0,0,1-.65.81,3.26,3.26,0,0,1-1.07.54A5.09,5.09,0,0,1,86,246.46Z" fill="#e32d27"/><path d="M97.1,242.36a3.72,3.72,0,0,1-1.36-.34,3.28,3.28,0,0,1-1-.69l.66-.91a3.07,3.07,0,0,0,.7.56,2.61,2.61,0,0,0,1,.34v-1.94l-.77-.23a2.83,2.83,0,0,1-.67-.35,1.75,1.75,0,0,1-.09-2.67,2.43,2.43,0,0,1,.66-.43,2.92,2.92,0,0,1,.87-.2v-.92h.8v.93a3.93,3.93,0,0,1,1.12.3,3.2,3.2,0,0,1,.89.61l-.66.87a2.36,2.36,0,0,0-.64-.46,3,3,0,0,0-.71-.25v1.73c.26.07.52.14.78.23a2.51,2.51,0,0,1,.69.36,1.72,1.72,0,0,1,.5.57,1.68,1.68,0,0,1,.2.84,2,2,0,0,1-.13.73,1.92,1.92,0,0,1-.4.63,1.94,1.94,0,0,1-.67.46,3,3,0,0,1-1,.23v.9h-.8Zm-.91-5a.53.53,0,0,0,.26.46,2.33,2.33,0,0,0,.65.29v-1.57a1.11,1.11,0,0,0-.66.27A.7.7,0,0,0,96.19,237.36Zm2.68,3.06a.6.6,0,0,0-.28-.53,2.79,2.79,0,0,0-.69-.31v1.74a1.18,1.18,0,0,0,.75-.35A.88.88,0,0,0,98.87,240.42Z" fill="#e32d27"/><path d="M103.72,246.26v-8.77l-1.85,1.94-1.16-1.21,3.27-3.3h1.73v11.34Z" fill="#e32d27"/><path d="M112.09,246.46a5.94,5.94,0,0,1-2.48-.46,4.93,4.93,0,0,1-1.72-1.29l1.14-1.37a3.81,3.81,0,0,0,3,1.36,2.44,2.44,0,0,0,1.71-.58,1.89,1.89,0,0,0,.62-1.43,1.85,1.85,0,0,0-.61-1.46,2.4,2.4,0,0,0-1.67-.55,3.77,3.77,0,0,0-1.32.23,3.56,3.56,0,0,0-1.16.74l-1.41-.41v-6.32h7.43v1.77h-5.44v3.25a3.85,3.85,0,0,1,2.56-1,4,4,0,0,1,1.38.24,3.53,3.53,0,0,1,1.17.72,3.33,3.33,0,0,1,.79,1.14,3.83,3.83,0,0,1,.3,1.55,3.61,3.61,0,0,1-1.21,2.8,4.07,4.07,0,0,1-1.37.77A5.44,5.44,0,0,1,112.09,246.46Z" fill="#e32d27"/><path d="M119.21,246.45a1.12,1.12,0,0,1-.84-.36,1.19,1.19,0,0,1-.35-.85,1.16,1.16,0,0,1,.35-.83,1.21,1.21,0,0,1,1.68,0,1.16,1.16,0,0,1,.35.83,1.19,1.19,0,0,1-.35.85A1.12,1.12,0,0,1,119.21,246.45Z" fill="#e32d27"/><path d="M125.82,246.45a4.55,4.55,0,0,1-3.26-1.26l.93-1.51a3.39,3.39,0,0,0,1,.73,3,3,0,0,0,1.35.27,2.74,2.74,0,0,0,1.34-.32,2.81,2.81,0,0,0,.93-.85,3.86,3.86,0,0,0,.55-1.2,5.31,5.31,0,0,0,.18-1.37v-.16a.88.88,0,0,0,0-.16,3.19,3.19,0,0,1-.5.57,5.61,5.61,0,0,1-.71.51,3.89,3.89,0,0,1-.86.36,3.45,3.45,0,0,1-1,.14,4.7,4.7,0,0,1-1.46-.23,3.56,3.56,0,0,1-1.2-.69,3.24,3.24,0,0,1-.83-1.15,4,4,0,0,1-.31-1.59,3.73,3.73,0,0,1,.3-1.48,3.66,3.66,0,0,1,.84-1.21,4,4,0,0,1,1.32-.82,4.76,4.76,0,0,1,1.73-.3,4.56,4.56,0,0,1,2.13.47,4,4,0,0,1,1.45,1.28,5.5,5.5,0,0,1,.83,1.87,9.46,9.46,0,0,1,.26,2.23,8.14,8.14,0,0,1-.32,2.3,5.64,5.64,0,0,1-.95,1.86A4.49,4.49,0,0,1,128,246,4.9,4.9,0,0,1,125.82,246.45Zm.48-5.95a2.86,2.86,0,0,0,1.39-.37,3.3,3.3,0,0,0,1.09-1,4.47,4.47,0,0,0-.2-.92,2.89,2.89,0,0,0-.45-.85,2.23,2.23,0,0,0-.76-.63,2.29,2.29,0,0,0-1.12-.25,2.53,2.53,0,0,0-1,.18,2.23,2.23,0,0,0-.71.46,2,2,0,0,0-.44.64,1.93,1.93,0,0,0-.14.69,2,2,0,0,0,.19.91,1.58,1.58,0,0,0,.51.63,2,2,0,0,0,.75.37A3.17,3.17,0,0,0,126.3,240.5Z" fill="#e32d27"/><path d="M136,246.45a4.78,4.78,0,0,1-1.88-.35,4.48,4.48,0,0,1-1.38-.91l.93-1.51a3.39,3.39,0,0,0,1,.73,3,3,0,0,0,1.35.27,2.7,2.7,0,0,0,1.33-.32,2.85,2.85,0,0,0,.94-.85,3.84,3.84,0,0,0,.54-1.2,5.31,5.31,0,0,0,.18-1.37v-.16a.86.86,0,0,0,0-.16,3.27,3.27,0,0,1-.51.57,5.49,5.49,0,0,1-.7.51,3.89,3.89,0,0,1-.86.36,3.52,3.52,0,0,1-1,.14,4.63,4.63,0,0,1-1.45-.23,3.7,3.7,0,0,1-1.21-.69,3.34,3.34,0,0,1-.82-1.15,3.79,3.79,0,0,1-.31-1.59,3.73,3.73,0,0,1,.3-1.48,3.66,3.66,0,0,1,.84-1.21,3.84,3.84,0,0,1,1.32-.82,4.7,4.7,0,0,1,1.72-.3,4.6,4.6,0,0,1,2.14.47,4,4,0,0,1,1.45,1.28,5.7,5.7,0,0,1,.83,1.87,9.46,9.46,0,0,1,.26,2.23,8.14,8.14,0,0,1-.32,2.3,5.66,5.66,0,0,1-1,1.86A4.54,4.54,0,0,1,138.2,246,4.9,4.9,0,0,1,136,246.45Zm.48-5.95a2.83,2.83,0,0,0,1.38-.37,3.33,3.33,0,0,0,1.1-1,4.51,4.51,0,0,0-.21-.92,2.67,2.67,0,0,0-.45-.85,2.2,2.2,0,0,0-.75-.63,2.29,2.29,0,0,0-1.12-.25,2.5,2.5,0,0,0-1,.18,2.23,2.23,0,0,0-.71.46,1.84,1.84,0,0,0-.44.64,1.93,1.93,0,0,0-.14.69,2.11,2.11,0,0,0,.18.91,1.77,1.77,0,0,0,.51.63,2.19,2.19,0,0,0,.75.37A3.3,3.3,0,0,0,136.52,240.5Z" fill="#e32d27"/></g><g id="REC"><rect width="160" height="600" fill="none"/></g></g></svg>