<svg xmlns="http://www.w3.org/2000/svg" viewBox="0 0 728 90"><g id="Layer_2" data-name="Layer 2"><g id="REC"><rect width="728" height="90" fill="none"/></g><g id="sbhd"><path d="M264.19,33.25V21.92h5.57a3.94,3.94,0,0,1,1.39.22,3.08,3.08,0,0,1,1,.62,2.62,2.62,0,0,1,.62.92A3,3,0,0,1,273,24.8a2.78,2.78,0,0,1-.16,1,2.51,2.51,0,0,1-.43.77,2.55,2.55,0,0,1-.63.55,2.43,2.43,0,0,1-.75.31,2.23,2.23,0,0,1,.86.31,2.76,2.76,0,0,1,.7.62,3.1,3.1,0,0,1,.47.86,2.93,2.93,0,0,1,.17,1A3.49,3.49,0,0,1,273,31.4a2.75,2.75,0,0,1-.63,1,2.69,2.69,0,0,1-1,.64,4,4,0,0,1-1.42.23Zm5.18-6.68a1.62,1.62,0,0,0,1.18-.4,1.41,1.41,0,0,0,.4-1,1.39,1.39,0,0,0-.4-1,1.59,1.59,0,0,0-1.18-.42h-3.19v2.89Zm.09,4.92a1.82,1.82,0,0,0,1.27-.42,1.52,1.52,0,0,0,.45-1.16,1.57,1.57,0,0,0-.44-1.1,1.68,1.68,0,0,0-1.28-.47h-3.28v3.15Z" fill="#e52823"/><path d="M277.28,33.46a2.07,2.07,0,0,1-1.57-.55,2.15,2.15,0,0,1-.54-1.58V21.92H277v9a1.23,1.23,0,0,0,.19.71.69.69,0,0,0,.59.28,1,1,0,0,0,.47-.1.85.85,0,0,0,.33-.21l.42,1.36a2,2,0,0,1-.65.38A3,3,0,0,1,277.28,33.46Z" fill="#e52823"/><path d="M285.57,33.25V32.17a4.19,4.19,0,0,1-1.18.89,3.48,3.48,0,0,1-1.71.4,2.73,2.73,0,0,1-2-.67,2.64,2.64,0,0,1-.66-1.93V25h1.79v5.15a1.61,1.61,0,0,0,.45,1.32,1.82,1.82,0,0,0,1.21.37,2.37,2.37,0,0,0,1.24-.33,3.14,3.14,0,0,0,.85-.74V25h1.79v8.21Z" fill="#e52823"/><path d="M293.48,33.46a4.67,4.67,0,0,1-1.73-.31,3.87,3.87,0,0,1-1.36-.87,4.16,4.16,0,0,1-.89-1.37,4.77,4.77,0,0,1-.32-1.77,4.62,4.62,0,0,1,.3-1.67,4,4,0,0,1,2.18-2.29,4,4,0,0,1,1.68-.34,4.11,4.11,0,0,1,1.67.33,3.58,3.58,0,0,1,1.27.93,4.07,4.07,0,0,1,.81,1.41,5.36,5.36,0,0,1,.28,1.78v.45h-6.32a2.57,2.57,0,0,0,.24.86,2.36,2.36,0,0,0,.53.72,2.47,2.47,0,0,0,.79.5,2.84,2.84,0,0,0,1,.18,3.6,3.6,0,0,0,1.26-.24,3,3,0,0,0,1.08-.68l.82,1.17a4.07,4.07,0,0,1-1.5.9A5.29,5.29,0,0,1,293.48,33.46Zm2.17-5a2.29,2.29,0,0,0-.16-.74,2.11,2.11,0,0,0-.42-.7,2.09,2.09,0,0,0-.71-.51,2.31,2.31,0,0,0-1-.21,2.33,2.33,0,0,0-1,.2,2.19,2.19,0,0,0-.71.51,2.49,2.49,0,0,0-.43.69,2.37,2.37,0,0,0-.17.76Z" fill="#e52823"/><path d="M303.58,33.25V21.92h5.57a4,4,0,0,1,1.39.22,3.08,3.08,0,0,1,1,.62,2.62,2.62,0,0,1,.62.92,3,3,0,0,1,.21,1.12,2.78,2.78,0,0,1-.16,1,2.74,2.74,0,0,1-.43.77,2.55,2.55,0,0,1-.63.55,2.43,2.43,0,0,1-.75.31,2.23,2.23,0,0,1,.86.31,2.94,2.94,0,0,1,.7.62,3.08,3.08,0,0,1,.46.86,2.7,2.7,0,0,1,.17,1,3.49,3.49,0,0,1-.21,1.23A2.69,2.69,0,0,1,310.72,33a3.86,3.86,0,0,1-1.41.23Zm5.18-6.68a1.58,1.58,0,0,0,1.17-.4,1.38,1.38,0,0,0,.41-1,1.36,1.36,0,0,0-.41-1,1.55,1.55,0,0,0-1.17-.42h-3.2v2.89Zm.09,4.92a1.78,1.78,0,0,0,1.26-.42,1.48,1.48,0,0,0,.45-1.16,1.56,1.56,0,0,0-.43-1.1,1.68,1.68,0,0,0-1.28-.47h-3.29v3.15Z" fill="#e52823"/><path d="M320.1,33.25V32.17a4.34,4.34,0,0,1-1.18.89,3.48,3.48,0,0,1-1.71.4,2.72,2.72,0,0,1-2-.67,2.64,2.64,0,0,1-.66-1.93V25h1.78v5.15a1.61,1.61,0,0,0,.45,1.32,1.85,1.85,0,0,0,1.22.37,2.36,2.36,0,0,0,1.23-.33,3.05,3.05,0,0,0,.86-.74V25h1.78v8.21Z" fill="#e52823"/><path d="M324.64,33.25V26.59h-1.36V25h1.36v-.46a2.82,2.82,0,0,1,.73-2.1,2.49,2.49,0,0,1,1.85-.73,3.09,3.09,0,0,1,1.45.3l-.39,1.34a1.35,1.35,0,0,0-.72-.18,1.05,1.05,0,0,0-.84.34,1.51,1.51,0,0,0-.3,1V25h1.67v1.55h-1.67v6.66Z" fill="#e52823"/><path d="M329.89,33.25V26.59h-1.36V25h1.36v-.46a2.86,2.86,0,0,1,.73-2.1,2.52,2.52,0,0,1,1.86-.73,3,3,0,0,1,1.44.3l-.39,1.34a1.31,1.31,0,0,0-.71-.18,1.06,1.06,0,0,0-.85.34,1.56,1.56,0,0,0-.29,1V25h1.66v1.55h-1.66v6.66Z" fill="#e52823"/><path d="M340.48,33.25V32.13a3.47,3.47,0,0,1-1.15,1,3.06,3.06,0,0,1-1.48.36,3.73,3.73,0,0,1-1.46-.29,3.2,3.2,0,0,1-1.15-.85,4.07,4.07,0,0,1-.76-1.36,5.66,5.66,0,0,1-.27-1.82,5.5,5.5,0,0,1,.27-1.78,4,4,0,0,1,.76-1.36,3.14,3.14,0,0,1,1.15-.86,3.47,3.47,0,0,1,1.46-.3,3.17,3.17,0,0,1,1.46.34,3.37,3.37,0,0,1,1.17,1V25h1.79v8.21Zm-2.11-1.37a2.61,2.61,0,0,0,1.22-.33,2.66,2.66,0,0,0,.51-.34,2,2,0,0,0,.38-.44V27.53a2.5,2.5,0,0,0-.38-.43,2.74,2.74,0,0,0-.51-.36,2.67,2.67,0,0,0-.59-.23,2.28,2.28,0,0,0-.63-.09,2.26,2.26,0,0,0-1,.2,2.3,2.3,0,0,0-.74.57,2.32,2.32,0,0,0-.46.85,3.86,3.86,0,0,0,0,2.2,2.45,2.45,0,0,0,.46.86,2,2,0,0,0,.74.57A2.12,2.12,0,0,0,338.37,31.88Z" fill="#e52823"/><path d="M346.69,33.46a2.11,2.11,0,0,1-1.58-.55,2.19,2.19,0,0,1-.53-1.58V21.92h1.78v9a1.24,1.24,0,0,0,.2.71.69.69,0,0,0,.59.28,1,1,0,0,0,.47-.1.85.85,0,0,0,.33-.21l.42,1.36a2,2,0,0,1-.65.38A3,3,0,0,1,346.69,33.46Z" fill="#e52823"/><path d="M353.16,33.46a4.32,4.32,0,0,1-1.76-.35,3.77,3.77,0,0,1-1.33-.94,4,4,0,0,1-.83-1.36,5,5,0,0,1,0-3.34,4,4,0,0,1,.83-1.36,3.75,3.75,0,0,1,1.33-.93,4.75,4.75,0,0,1,3.53,0,3.84,3.84,0,0,1,1.33.93,4,4,0,0,1,.83,1.36,5,5,0,0,1,0,3.34,4,4,0,0,1-.83,1.36,3.87,3.87,0,0,1-1.33.94A4.33,4.33,0,0,1,353.16,33.46Zm0-1.58a2.32,2.32,0,0,0,1-.22,2.09,2.09,0,0,0,.74-.6,2.57,2.57,0,0,0,.45-.87,3.39,3.39,0,0,0,.16-1.05,3.28,3.28,0,0,0-.16-1,2.52,2.52,0,0,0-.45-.86,2.09,2.09,0,0,0-.74-.6,2.43,2.43,0,0,0-2,0,2.43,2.43,0,0,0-.75.6,2.73,2.73,0,0,0-.46.86,3.58,3.58,0,0,0-.15,1,3.7,3.7,0,0,0,.15,1.05,2.78,2.78,0,0,0,.46.87,2.43,2.43,0,0,0,.75.6A2.33,2.33,0,0,0,353.16,31.88Z" fill="#e52823"/><path d="M362.59,23a2,2,0,0,1-.16.82,2.09,2.09,0,0,1-1.12,1.12,2,2,0,0,1-.82.17,2.08,2.08,0,0,1-.82-.17,2.32,2.32,0,0,1-.67-.45,2.08,2.08,0,0,1-.45-.67,2,2,0,0,1-.16-.82,2.07,2.07,0,0,1,.61-1.49,2.29,2.29,0,0,1,.67-.44,2.08,2.08,0,0,1,.82-.17,2.19,2.19,0,0,1,1.49.61,2.07,2.07,0,0,1,.61,1.49Zm-.3,0a1.82,1.82,0,0,0-.13-.7,1.85,1.85,0,0,0-.39-.58,1.88,1.88,0,0,0-.58-.38,1.82,1.82,0,0,0-.7-.14,1.75,1.75,0,0,0-.7.14,1.88,1.88,0,0,0-.58.38,1.67,1.67,0,0,0-.38.58,1.82,1.82,0,0,0,0,1.4,1.73,1.73,0,0,0,.38.57,1.88,1.88,0,0,0,.58.38,1.6,1.6,0,0,0,.7.15,1.66,1.66,0,0,0,.7-.15,1.88,1.88,0,0,0,.58-.38,1.92,1.92,0,0,0,.39-.57A1.82,1.82,0,0,0,362.29,23Zm-1.22,1.21-.63-1H360v1h-.33v-2.4h1a.84.84,0,0,1,.55.19.69.69,0,0,1,.23.54.74.74,0,0,1-.07.34.79.79,0,0,1-.18.22,1,1,0,0,1-.22.12l-.15,0,.64,1Zm0-1.67a.42.42,0,0,0-.14-.32.44.44,0,0,0-.3-.13H360v.87h.65a.47.47,0,0,0,.3-.11A.41.41,0,0,0,361.11,22.52Z" fill="#e52823"/><path d="M368.4,33.25V21.92h2v9.57h5v1.76Z" fill="#e52823"/><path d="M378,24a1.09,1.09,0,1,1,.79-.32A1.1,1.1,0,0,1,378,24Zm-.9,9.21V25h1.79v8.21Z" fill="#e52823"/><path d="M381.62,33.25V26.59h-1.36V25h1.36v-.46a2.86,2.86,0,0,1,.73-2.1,2.52,2.52,0,0,1,1.86-.73,3,3,0,0,1,1.44.3l-.39,1.34a1.31,1.31,0,0,0-.71-.18,1.06,1.06,0,0,0-.85.34,1.56,1.56,0,0,0-.29,1V25h1.66v1.55h-1.66v6.66Z" fill="#e52823"/><path d="M390.24,33.46a4.58,4.58,0,0,1-1.72-.31,3.78,3.78,0,0,1-1.36-.87,4.18,4.18,0,0,1-.9-1.37,4.77,4.77,0,0,1-.32-1.77,4.43,4.43,0,0,1,.31-1.67,4.07,4.07,0,0,1,.85-1.37,4.12,4.12,0,0,1,1.32-.92,4,4,0,0,1,1.68-.34,4.08,4.08,0,0,1,1.67.33,3.7,3.7,0,0,1,1.28.93,3.9,3.9,0,0,1,.8,1.41,5.36,5.36,0,0,1,.28,1.78v.45h-6.32a2.58,2.58,0,0,0,.25.86,2.33,2.33,0,0,0,.52.72,2.47,2.47,0,0,0,.79.5,2.87,2.87,0,0,0,1,.18,3.6,3.6,0,0,0,1.26-.24,3.1,3.1,0,0,0,1.09-.68l.81,1.17a4.11,4.11,0,0,1-1.49.9A5.35,5.35,0,0,1,390.24,33.46Zm2.18-5a2.59,2.59,0,0,0-.16-.74,2.32,2.32,0,0,0-.43-.7,2.09,2.09,0,0,0-.71-.51,2.28,2.28,0,0,0-1-.21,2.36,2.36,0,0,0-1,.2,2,2,0,0,0-.7.51,2.31,2.31,0,0,0-.44.69,2.37,2.37,0,0,0-.17.76Z" fill="#e52823"/><path d="M264.19,52.25V40.92h5a4.07,4.07,0,0,1,1.57.28,3.25,3.25,0,0,1,1.16.76,3.12,3.12,0,0,1,.72,1.13,4,4,0,0,1,0,2.74,3.39,3.39,0,0,1-.71,1.13,3.34,3.34,0,0,1-1.16.76,4.07,4.07,0,0,1-1.57.28h-3v4.25Zm4.72-6a2,2,0,0,0,1.39-.48,1.64,1.64,0,0,0,.54-1.29,1.68,1.68,0,0,0-.54-1.3,2,2,0,0,0-1.39-.49h-2.73v3.56Z" fill="#e52823"/><path d="M274.49,52.25V44h1.79v1.19a4.05,4.05,0,0,1,1.17-1,2.9,2.9,0,0,1,1.49-.4v1.77a2.21,2.21,0,0,0-.54,0,2.16,2.16,0,0,0-.6.08,3.22,3.22,0,0,0-.61.24,2.54,2.54,0,0,0-.54.36,1.6,1.6,0,0,0-.37.42v5.59Z" fill="#e52823"/><path d="M284.11,52.46a4.4,4.4,0,0,1-1.77-.35,3.83,3.83,0,0,1-1.32-.94,4,4,0,0,1-.83-1.36,5,5,0,0,1,0-3.34,4,4,0,0,1,.83-1.36,3.8,3.8,0,0,1,1.32-.93,4.4,4.4,0,0,1,1.77-.34,4.33,4.33,0,0,1,1.77.34,3.94,3.94,0,0,1,1.33.93,4,4,0,0,1,.83,1.36,5,5,0,0,1,0,3.34,4,4,0,0,1-.83,1.36,4,4,0,0,1-1.33.94A4.33,4.33,0,0,1,284.11,52.46Zm0-1.58a2.32,2.32,0,0,0,1-.22,2.18,2.18,0,0,0,.74-.6,2.57,2.57,0,0,0,.45-.87,3.71,3.71,0,0,0,.16-1,3.59,3.59,0,0,0-.16-1,2.62,2.62,0,0,0-.45-.86,2.33,2.33,0,0,0-2.76-.6,2.31,2.31,0,0,0-.75.6,2.64,2.64,0,0,0-.46.86,3.58,3.58,0,0,0-.15,1,3.7,3.7,0,0,0,.15,1,2.59,2.59,0,0,0,.46.87,2.18,2.18,0,0,0,1.75.82Z" fill="#e52823"/><path d="M292.63,52.46a2.12,2.12,0,0,1-1.58-.54,2.21,2.21,0,0,1-.53-1.59V45.59h-1.36V44h1.36V41.8h1.79V44H294v1.55h-1.66v4.3a1.23,1.23,0,0,0,.19.71.69.69,0,0,0,.59.28,1.07,1.07,0,0,0,.47-.1.84.84,0,0,0,.31-.21l.43,1.36a2.1,2.1,0,0,1-.65.38A3,3,0,0,1,292.63,52.46Z" fill="#e52823"/><path d="M299.38,52.46a4.63,4.63,0,0,1-1.73-.31,3.87,3.87,0,0,1-1.36-.87,4.16,4.16,0,0,1-.89-1.37,4.57,4.57,0,0,1-.32-1.77,4.62,4.62,0,0,1,.3-1.67,4,4,0,0,1,2.18-2.29,4,4,0,0,1,1.68-.34,4.11,4.11,0,0,1,1.67.33,3.58,3.58,0,0,1,1.27.93,4.07,4.07,0,0,1,.81,1.41,5.36,5.36,0,0,1,.28,1.78v.45H297a2.57,2.57,0,0,0,.24.86,2.4,2.4,0,0,0,.53.73,2.45,2.45,0,0,0,.79.49,2.84,2.84,0,0,0,1,.18,3.6,3.6,0,0,0,1.26-.24,3,3,0,0,0,1.08-.68l.82,1.17a4.07,4.07,0,0,1-1.5.9A5.29,5.29,0,0,1,299.38,52.46Zm2.17-5A2.41,2.41,0,0,0,301,46a2.09,2.09,0,0,0-.71-.51,2.31,2.31,0,0,0-1-.21,2.33,2.33,0,0,0-1,.2,2.19,2.19,0,0,0-.71.51,2.49,2.49,0,0,0-.43.69,2.37,2.37,0,0,0-.17.76Z" fill="#e52823"/><path d="M308.78,52.46a4.53,4.53,0,0,1-1.71-.32,3.89,3.89,0,0,1-1.33-.91,4,4,0,0,1-.88-1.36,4.67,4.67,0,0,1-.31-1.73,4.61,4.61,0,0,1,.31-1.72,4.14,4.14,0,0,1,.88-1.36,4,4,0,0,1,1.33-.9,4.53,4.53,0,0,1,1.71-.32,4.63,4.63,0,0,1,1.1.12,4,4,0,0,1,.86.32,3.07,3.07,0,0,1,.67.47,3.26,3.26,0,0,1,.51.55l-1.17,1.07a2.19,2.19,0,0,0-1.89-.95,2.31,2.31,0,0,0-1.8.76,2.83,2.83,0,0,0-.68,2,3.25,3.25,0,0,0,.18,1.1,2.55,2.55,0,0,0,.51.86,2.19,2.19,0,0,0,.78.57,2.37,2.37,0,0,0,1,.21,2.18,2.18,0,0,0,1.89-1L311.92,51a4.17,4.17,0,0,1-1.19,1A3.86,3.86,0,0,1,308.78,52.46Z" fill="#e52823"/><path d="M316,52.46a2.1,2.1,0,0,1-1.58-.54,2.17,2.17,0,0,1-.53-1.59V45.59h-1.36V44h1.36V41.8h1.78V44h1.67v1.55h-1.67v4.3a1.24,1.24,0,0,0,.2.71.68.68,0,0,0,.59.28,1,1,0,0,0,.46-.1.89.89,0,0,0,.32-.21l.42,1.36a2,2,0,0,1-.64.38A3,3,0,0,1,316,52.46Z" fill="#e52823"/><path d="M319.83,43a1.11,1.11,0,1,1,0-2.21,1.08,1.08,0,0,1,.78.32,1.12,1.12,0,0,1,0,1.57A1.08,1.08,0,0,1,319.83,43Zm-.9,9.21V44h1.78v8.21Z" fill="#e52823"/><path d="M326.75,52.46a4.33,4.33,0,0,1-1.77-.35,4,4,0,0,1-1.33-.94,4,4,0,0,1-.83-1.36,5,5,0,0,1,0-3.34,4,4,0,0,1,.83-1.36,3.94,3.94,0,0,1,1.33-.93,4.33,4.33,0,0,1,1.77-.34,4.4,4.4,0,0,1,1.77.34,3.8,3.8,0,0,1,1.32.93,4,4,0,0,1,.83,1.36,5,5,0,0,1,0,3.34,4,4,0,0,1-.83,1.36,3.83,3.83,0,0,1-1.32.94A4.4,4.4,0,0,1,326.75,52.46Zm0-1.58a2.39,2.39,0,0,0,1-.22,2.28,2.28,0,0,0,.74-.6,2.57,2.57,0,0,0,.45-.87,3.7,3.7,0,0,0,.15-1,3.58,3.58,0,0,0-.15-1,2.62,2.62,0,0,0-.45-.86,2.28,2.28,0,0,0-.74-.6,2.25,2.25,0,0,0-1-.22,2.21,2.21,0,0,0-1,.22,2.28,2.28,0,0,0-.74.6,2.46,2.46,0,0,0-.46.86,3.59,3.59,0,0,0-.16,1,3.71,3.71,0,0,0,.16,1,2.42,2.42,0,0,0,.46.87,2.28,2.28,0,0,0,.74.6A2.34,2.34,0,0,0,326.75,50.88Z" fill="#e52823"/><path d="M338.34,52.25V47.12a1.62,1.62,0,0,0-.45-1.33,1.82,1.82,0,0,0-1.21-.37,2.29,2.29,0,0,0-1.24.34,3.28,3.28,0,0,0-.87.75v5.74h-1.79V44h1.79v1.11a3.3,3.3,0,0,1,.5-.48,3.46,3.46,0,0,1,.67-.42,3.56,3.56,0,0,1,.81-.3,3.93,3.93,0,0,1,.92-.11,2.37,2.37,0,0,1,2.66,2.63v5.78Z" fill="#e52823"/><path d="M346.88,52.25V40.92h7.76v1.76h-5.78v2.89h5.66v1.77h-5.66v4.91Z" fill="#e52823"/><path d="M360.12,52.46a4.33,4.33,0,0,1-1.77-.35,4,4,0,0,1-1.33-.94,4,4,0,0,1-.83-1.36,5,5,0,0,1,0-3.34,4,4,0,0,1,.83-1.36,3.94,3.94,0,0,1,1.33-.93,4.33,4.33,0,0,1,1.77-.34,4.4,4.4,0,0,1,1.77.34,3.8,3.8,0,0,1,1.32.93,4,4,0,0,1,.83,1.36,5,5,0,0,1,0,3.34,4,4,0,0,1-.83,1.36,3.83,3.83,0,0,1-1.32.94A4.4,4.4,0,0,1,360.12,52.46Zm0-1.58a2.39,2.39,0,0,0,1-.22,2.28,2.28,0,0,0,.74-.6,2.57,2.57,0,0,0,.45-.87,3.7,3.7,0,0,0,.15-1,3.58,3.58,0,0,0-.15-1,2.62,2.62,0,0,0-.45-.86,2.28,2.28,0,0,0-.74-.6,2.25,2.25,0,0,0-1-.22,2.21,2.21,0,0,0-1,.22,2.28,2.28,0,0,0-.74.6,2.46,2.46,0,0,0-.46.86,3.59,3.59,0,0,0-.16,1,3.71,3.71,0,0,0,.16,1,2.42,2.42,0,0,0,.46.87,2.28,2.28,0,0,0,.74.6A2.34,2.34,0,0,0,360.12,50.88Z" fill="#e52823"/><path d="M366.15,52.25V44h1.79v1.19a4.19,4.19,0,0,1,1.17-1,2.93,2.93,0,0,1,1.5-.4v1.77a2.29,2.29,0,0,0-.55,0,2.16,2.16,0,0,0-.6.08,3.51,3.51,0,0,0-.61.24,2.54,2.54,0,0,0-.54.36,1.6,1.6,0,0,0-.37.42v5.59Z" fill="#e52823"/><path d="M382.13,52.25V46.9a1.7,1.7,0,0,0-.31-1.07,1.25,1.25,0,0,0-1.05-.41,2,2,0,0,0-1.11.34,2.72,2.72,0,0,0-.79.75v5.74h-1.79V46.9a1.76,1.76,0,0,0-.3-1.07,1.23,1.23,0,0,0-1-.41,1.92,1.92,0,0,0-1.1.35,3.21,3.21,0,0,0-.8.74v5.74h-1.79V44h1.79v1.11a2.42,2.42,0,0,1,.39-.42,3.26,3.26,0,0,1,.61-.42,4.57,4.57,0,0,1,.78-.33,2.69,2.69,0,0,1,.9-.14,2.41,2.41,0,0,1,1.48.42,2,2,0,0,1,.77,1.08,2.47,2.47,0,0,1,.45-.55,3.15,3.15,0,0,1,.64-.48,3.57,3.57,0,0,1,.8-.34,3,3,0,0,1,.89-.13,2.39,2.39,0,0,1,1.75.61,2.54,2.54,0,0,1,.62,1.87v5.93Z" fill="#e52823"/><path d="M391.77,52.25V51.17a4.34,4.34,0,0,1-1.18.89,3.48,3.48,0,0,1-1.71.4,2.68,2.68,0,0,1-2-.67,2.64,2.64,0,0,1-.66-1.93V44H388v5.15a1.62,1.62,0,0,0,.46,1.32,1.82,1.82,0,0,0,1.21.37,2.36,2.36,0,0,0,1.23-.33,2.9,2.9,0,0,0,.86-.74V44h1.79v8.21Z" fill="#e52823"/><path d="M398,52.46a2.15,2.15,0,0,1-1.58-.54,2.21,2.21,0,0,1-.53-1.59V40.92h1.78v9a1.24,1.24,0,0,0,.2.71.68.68,0,0,0,.59.28,1.07,1.07,0,0,0,.47-.1.74.74,0,0,0,.32-.21l.43,1.36a2,2,0,0,1-.65.38A3,3,0,0,1,398,52.46Z" fill="#e52823"/><path d="M406.51,52.25V51.13a3.57,3.57,0,0,1-1.15,1,3.06,3.06,0,0,1-1.48.36,3.69,3.69,0,0,1-1.46-.29,3.11,3.11,0,0,1-1.15-.85,3.91,3.91,0,0,1-.76-1.36,5.66,5.66,0,0,1-.27-1.82,5.5,5.5,0,0,1,.27-1.78,3.82,3.82,0,0,1,.76-1.36,3.19,3.19,0,0,1,1.14-.86,3.51,3.51,0,0,1,1.47-.3,3.2,3.2,0,0,1,1.46.34,3.37,3.37,0,0,1,1.17,1V44h1.79v8.21Zm-2.11-1.37a2.7,2.7,0,0,0,1.22-.33,3.48,3.48,0,0,0,.51-.34,2,2,0,0,0,.38-.44V46.53a2.5,2.5,0,0,0-.38-.43,3.61,3.61,0,0,0-.51-.36,2.57,2.57,0,0,0-.6-.23,2.21,2.21,0,0,0-.62-.09,2.34,2.34,0,0,0-1,.2,2.37,2.37,0,0,0-.73.57,2.49,2.49,0,0,0-.47.85,3.86,3.86,0,0,0,0,2.2,2.64,2.64,0,0,0,.47.86,2.1,2.1,0,0,0,.73.57A2.19,2.19,0,0,0,404.4,50.88Z" fill="#e52823"/><path d="M412.82,51.61a3.29,3.29,0,0,1-.44,1.65,3.83,3.83,0,0,1-1.14,1.26l-.82-.67a2.67,2.67,0,0,0,.41-.3,4.61,4.61,0,0,0,.37-.4,2.78,2.78,0,0,0,.29-.44,1.45,1.45,0,0,0,.15-.46.23.23,0,0,1-.11,0l-.18,0a1,1,0,0,1-.71-.31,1.09,1.09,0,0,1-.29-.78,1.14,1.14,0,0,1,.33-.82,1.1,1.1,0,0,1,.83-.34,1.27,1.27,0,0,1,.92.4A1.59,1.59,0,0,1,412.82,51.61Z" fill="#e52823"/><path d="M267.67,71.46a5.8,5.8,0,0,1-2.6-.54,4.71,4.71,0,0,1-1.68-1.3l1.09-1.31a3.82,3.82,0,0,0,1.37,1,4.4,4.4,0,0,0,1.76.36,2.81,2.81,0,0,0,1.74-.48A1.5,1.5,0,0,0,270,68a1.34,1.34,0,0,0-.65-1.24,3.76,3.76,0,0,0-1.87-.38h-.75a4.59,4.59,0,0,0-.54,0V64.56h1.29a4.64,4.64,0,0,0,.94-.08,2.58,2.58,0,0,0,.74-.27,1.47,1.47,0,0,0,.49-.47,1.19,1.19,0,0,0,.18-.66,1.31,1.31,0,0,0-.18-.69,1.44,1.44,0,0,0-.49-.49,2.37,2.37,0,0,0-.73-.29,3.7,3.7,0,0,0-.9-.11,4,4,0,0,0-2.94,1.26l-1-1.24a5.11,5.11,0,0,1,1.69-1.28,5.51,5.51,0,0,1,2.46-.5,6.21,6.21,0,0,1,1.67.21,4.09,4.09,0,0,1,1.28.6,2.79,2.79,0,0,1,.83.95,2.65,2.65,0,0,1,.3,1.27,2.26,2.26,0,0,1-.22,1,2.62,2.62,0,0,1-.57.77,3,3,0,0,1-.79.53,3.78,3.78,0,0,1-.87.27,3.17,3.17,0,0,1,.87.24,3,3,0,0,1,.86.53,2.7,2.7,0,0,1,.65.83,2.51,2.51,0,0,1,.26,1.16,3,3,0,0,1-.3,1.34,3,3,0,0,1-.86,1,3.91,3.91,0,0,1-1.35.69A5.8,5.8,0,0,1,267.67,71.46Z" fill="#e52823"/><path d="M278.13,71.46A4.54,4.54,0,0,1,276,71a4.13,4.13,0,0,1-1.45-1.27,5.66,5.66,0,0,1-.82-1.87,9.15,9.15,0,0,1-.27-2.26,7.66,7.66,0,0,1,.33-2.28,5.46,5.46,0,0,1,1-1.86,4.52,4.52,0,0,1,1.56-1.24,4.83,4.83,0,0,1,2.16-.46,4.71,4.71,0,0,1,1.86.34,4.3,4.3,0,0,1,1.39.91l-.92,1.5a3.22,3.22,0,0,0-1-.72,3,3,0,0,0-1.35-.27,2.65,2.65,0,0,0-1.27.31,2.88,2.88,0,0,0-.95.82,3.88,3.88,0,0,0-.58,1.19,5.07,5.07,0,0,0-.19,1.42v.33A3.05,3.05,0,0,1,276,65a4.06,4.06,0,0,1,.7-.51,3.94,3.94,0,0,1,.86-.38,3.43,3.43,0,0,1,1-.14,4.43,4.43,0,0,1,1.46.24,3.81,3.81,0,0,1,1.21.69,3.24,3.24,0,0,1,.83,1.15,3.79,3.79,0,0,1,.31,1.59,3.69,3.69,0,0,1-.3,1.48,3.66,3.66,0,0,1-.84,1.21,3.84,3.84,0,0,1-1.32.82A4.7,4.7,0,0,1,278.13,71.46ZM278,69.69a2.57,2.57,0,0,0,1-.18,2.1,2.1,0,0,0,.71-.47,1.86,1.86,0,0,0,.43-.63,1.75,1.75,0,0,0,.15-.69,2.11,2.11,0,0,0-.19-.91,1.58,1.58,0,0,0-.51-.63,2.24,2.24,0,0,0-.74-.37,3.58,3.58,0,0,0-.87-.11,2.88,2.88,0,0,0-1.4.35,3.17,3.17,0,0,0-1.09,1,4.61,4.61,0,0,0,.19.94,2.86,2.86,0,0,0,.46.86,2.44,2.44,0,0,0,.76.62A2.28,2.28,0,0,0,278,69.69Z" fill="#e52823"/><path d="M290.61,71.46a2.13,2.13,0,0,1-1.58-.54,2.21,2.21,0,0,1-.53-1.59V59.92h1.78v9a1.24,1.24,0,0,0,.2.71.67.67,0,0,0,.58.28,1.12,1.12,0,0,0,.48-.1.74.74,0,0,0,.32-.21l.43,1.36a2,2,0,0,1-.65.38A3,3,0,0,1,290.61,71.46Z" fill="#e52823"/><path d="M293.36,71.25V59.92h1.78v4.26a3.34,3.34,0,0,1,1.19-1,3.19,3.19,0,0,1,1.45-.34,3.58,3.58,0,0,1,1.47.3,3.26,3.26,0,0,1,1.16.86,4,4,0,0,1,.75,1.36,5.5,5.5,0,0,1,.27,1.78,5.66,5.66,0,0,1-.27,1.82,3.91,3.91,0,0,1-.76,1.36,3.27,3.27,0,0,1-1.17.85,3.64,3.64,0,0,1-1.45.29,3.11,3.11,0,0,1-1.48-.36,3.6,3.6,0,0,1-1.16-1v1.12Zm1.78-2.46a2.45,2.45,0,0,0,.9.77,2.56,2.56,0,0,0,1.23.32,2.06,2.06,0,0,0,1.69-.77,3,3,0,0,0,.62-2,3.52,3.52,0,0,0-.16-1.1,2.34,2.34,0,0,0-.47-.85,2.1,2.1,0,0,0-1.68-.77,2.56,2.56,0,0,0-1.23.32,2.59,2.59,0,0,0-.9.79Z" fill="#e52823"/><path d="M306.06,71.46a5.66,5.66,0,0,1-2-.33,4.32,4.32,0,0,1-1.55-1l.82-1.28a3.31,3.31,0,0,0,.52.43,5.43,5.43,0,0,0,.68.36,4.2,4.2,0,0,0,.78.26,3.55,3.55,0,0,0,.79.09,2.05,2.05,0,0,0,1.22-.3.93.93,0,0,0,.41-.79.66.66,0,0,0-.37-.61,3.54,3.54,0,0,0-.91-.34l-1.2-.27a5.14,5.14,0,0,1-1.2-.41,2.55,2.55,0,0,1-.92-.73,2,2,0,0,1-.37-1.26,2.25,2.25,0,0,1,.22-1,2.34,2.34,0,0,1,.62-.79,2.93,2.93,0,0,1,1-.53,4.46,4.46,0,0,1,1.38-.2,5,5,0,0,1,1.85.32,4.48,4.48,0,0,1,1.33.82l-.74,1.26a2.92,2.92,0,0,0-1-.7,3.4,3.4,0,0,0-1.42-.29,1.9,1.9,0,0,0-1.11.29.86.86,0,0,0-.4.73.57.57,0,0,0,.37.54,4,4,0,0,0,.91.32l1.2.27a5.18,5.18,0,0,1,1.2.43,2.52,2.52,0,0,1,.92.76,2.13,2.13,0,0,1,.37,1.3,2.38,2.38,0,0,1-.23,1,2.14,2.14,0,0,1-.65.82,3.45,3.45,0,0,1-1.07.53A5.07,5.07,0,0,1,306.06,71.46Z" fill="#e52823"/><path d="M319.06,71.42a6.13,6.13,0,0,1-2.3-.57,5.61,5.61,0,0,1-1.66-1.18l1.12-1.54a5.38,5.38,0,0,0,1.2,1,4.38,4.38,0,0,0,1.64.57V66.35c-.44-.11-.87-.24-1.3-.39a4.4,4.4,0,0,1-1.14-.59,2.82,2.82,0,0,1-.83-.92,2.76,2.76,0,0,1-.31-1.38,2.93,2.93,0,0,1,.25-1.22,3.12,3.12,0,0,1,.72-1,3.86,3.86,0,0,1,1.13-.73,4.94,4.94,0,0,1,1.48-.35V58.2h1.36v1.58a6.33,6.33,0,0,1,1.9.51,5.33,5.33,0,0,1,1.52,1l-1.12,1.48a4.28,4.28,0,0,0-1.08-.79,5.34,5.34,0,0,0-1.22-.42v2.94c.45.11.89.25,1.33.4a4.54,4.54,0,0,1,1.18.61,3.13,3.13,0,0,1,.85,1,2.85,2.85,0,0,1,.33,1.43,3.49,3.49,0,0,1-.22,1.24,3.16,3.16,0,0,1-.67,1.07,3.34,3.34,0,0,1-1.15.78,4.88,4.88,0,0,1-1.65.39V73h-1.36Zm-1.54-8.5a.91.91,0,0,0,.43.79,4.44,4.44,0,0,0,1.11.49V61.53a2,2,0,0,0-1.13.46A1.19,1.19,0,0,0,317.52,62.92Zm4.55,5.21a1,1,0,0,0-.47-.9,4.48,4.48,0,0,0-1.18-.53v3a2,2,0,0,0,1.27-.59A1.45,1.45,0,0,0,322.07,68.13Z" fill="#e52823"/><path d="M329.94,71.46a6,6,0,0,1-2.48-.47,5,5,0,0,1-1.72-1.28l1.14-1.38a3.8,3.8,0,0,0,3.05,1.36,2.37,2.37,0,0,0,1.7-.58,2,2,0,0,0,0-2.89,2.4,2.4,0,0,0-1.66-.54,3.61,3.61,0,0,0-1.33.23,3.37,3.37,0,0,0-1.15.74l-1.42-.41V59.92h7.43v1.76h-5.44v3.25a4,4,0,0,1,1.09-.68,3.72,3.72,0,0,1,1.48-.29,3.79,3.79,0,0,1,1.38.25,3.36,3.36,0,0,1,2,1.86,3.79,3.79,0,0,1,.3,1.55,3.86,3.86,0,0,1-.32,1.59,3.58,3.58,0,0,1-.9,1.2,3.83,3.83,0,0,1-1.37.78A5.4,5.4,0,0,1,329.94,71.46Z" fill="#e52823"/><path d="M340.36,71.46a4.57,4.57,0,0,1-2.14-.47,4,4,0,0,1-1.44-1.27,5.68,5.68,0,0,1-.83-1.87,9.66,9.66,0,0,1-.26-2.26,8,8,0,0,1,.32-2.28,5.64,5.64,0,0,1,.95-1.86,4.46,4.46,0,0,1,1.57-1.24,4.77,4.77,0,0,1,2.16-.46,4.71,4.71,0,0,1,1.86.34,4.15,4.15,0,0,1,1.38.91L343,62.5a3.35,3.35,0,0,0-1-.72,3,3,0,0,0-1.35-.27,2.69,2.69,0,0,0-1.28.31,2.85,2.85,0,0,0-.94.82,3.48,3.48,0,0,0-.58,1.19,5.07,5.07,0,0,0-.19,1.42v.33a2.68,2.68,0,0,1,.51-.57,4.14,4.14,0,0,1,.71-.51,3.94,3.94,0,0,1,.86-.38,3.43,3.43,0,0,1,1-.14,4.37,4.37,0,0,1,1.45.24,3.75,3.75,0,0,1,1.22.69,3.24,3.24,0,0,1,.83,1.15,4,4,0,0,1,.31,1.59,3.69,3.69,0,0,1-.3,1.48,3.66,3.66,0,0,1-.84,1.21,4,4,0,0,1-1.32.82A4.76,4.76,0,0,1,340.36,71.46Zm-.11-1.77a2.48,2.48,0,0,0,1-.18A2.25,2.25,0,0,0,342,69a2,2,0,0,0,.43-.63,1.93,1.93,0,0,0,.14-.69,2.11,2.11,0,0,0-.18-.91,1.77,1.77,0,0,0-.51-.63,2.45,2.45,0,0,0-.74-.37,3.6,3.6,0,0,0-.88-.11,2.84,2.84,0,0,0-1.39.35,3.08,3.08,0,0,0-1.09,1,3.57,3.57,0,0,0,.19.94,2.65,2.65,0,0,0,.46.86,2.33,2.33,0,0,0,.76.62A2.25,2.25,0,0,0,340.25,69.69Z" fill="#e52823"/><path d="M347.28,71.44a1.12,1.12,0,0,1-.84-.36,1.17,1.17,0,0,1-.35-.85,1.14,1.14,0,0,1,.35-.82,1.18,1.18,0,0,1,1.68,0,1.1,1.1,0,0,1,.35.82,1.13,1.13,0,0,1-.35.85A1.12,1.12,0,0,1,347.28,71.44Z" fill="#e52823"/><path d="M353.9,71.44a4.57,4.57,0,0,1-1.88-.35,4.47,4.47,0,0,1-1.39-.91l.94-1.51a3.39,3.39,0,0,0,1,.74,3,3,0,0,0,1.36.26,2.59,2.59,0,0,0,1.33-.32,2.84,2.84,0,0,0,.94-.85,3.86,3.86,0,0,0,.54-1.2,5.26,5.26,0,0,0,.18-1.37v-.16a1,1,0,0,0,0-.16,2.84,2.84,0,0,1-.5.57,4.14,4.14,0,0,1-.71.51,4.36,4.36,0,0,1-.85.37,3.56,3.56,0,0,1-1,.13,4.42,4.42,0,0,1-1.46-.23,3.35,3.35,0,0,1-2-1.83,4,4,0,0,1-.3-1.59,3.87,3.87,0,0,1,.29-1.48,3.58,3.58,0,0,1,.85-1.22,3.87,3.87,0,0,1,1.31-.81,4.76,4.76,0,0,1,1.73-.3,4.41,4.41,0,0,1,2.13.47,4,4,0,0,1,1.46,1.27,5.78,5.78,0,0,1,.82,1.87,9,9,0,0,1,.26,2.24,7.73,7.73,0,0,1-.32,2.29,5.45,5.45,0,0,1-.95,1.86A4.38,4.38,0,0,1,356.05,71,4.76,4.76,0,0,1,353.9,71.44Zm.47-6a2.85,2.85,0,0,0,1.39-.36,3.41,3.41,0,0,0,1.09-1,4.42,4.42,0,0,0-.2-.93,2.78,2.78,0,0,0-.45-.85,2.49,2.49,0,0,0-.76-.63,2.38,2.38,0,0,0-1.12-.24,2.78,2.78,0,0,0-1,.17,2.42,2.42,0,0,0-.71.46,2,2,0,0,0-.58,1.34,2,2,0,0,0,.19.91,1.73,1.73,0,0,0,.51.63,2.18,2.18,0,0,0,.75.36A3.22,3.22,0,0,0,354.37,65.49Z" fill="#e52823"/><path d="M364.11,71.44a4.6,4.6,0,0,1-1.88-.35,4.42,4.42,0,0,1-1.38-.91l.93-1.51a3.43,3.43,0,0,0,1,.74,3,3,0,0,0,1.35.26,2.63,2.63,0,0,0,1.34-.32,2.71,2.71,0,0,0,.93-.85,3.66,3.66,0,0,0,.55-1.2,5.71,5.71,0,0,0,.17-1.37v-.16a.92.92,0,0,0,0-.16,3.19,3.19,0,0,1-.5.57,4.14,4.14,0,0,1-.71.51,4.46,4.46,0,0,1-.86.37,3.51,3.51,0,0,1-1,.13,4.36,4.36,0,0,1-1.45-.23,3.38,3.38,0,0,1-1.21-.69,3.3,3.3,0,0,1-.82-1.14,4,4,0,0,1-.31-1.59,3.74,3.74,0,0,1,1.14-2.7,3.82,3.82,0,0,1,1.32-.81,4.76,4.76,0,0,1,1.73-.3,4.46,4.46,0,0,1,2.13.47A4,4,0,0,1,368,61.47a5.59,5.59,0,0,1,.83,1.87,9.55,9.55,0,0,1,.26,2.24,8.07,8.07,0,0,1-.32,2.29,5.63,5.63,0,0,1-1,1.86A4.47,4.47,0,0,1,366.27,71,4.77,4.77,0,0,1,364.11,71.44Zm.48-6a2.79,2.79,0,0,0,1.38-.36,3.34,3.34,0,0,0,1.1-1,4.42,4.42,0,0,0-.2-.93,3.29,3.29,0,0,0-.45-.85,2.49,2.49,0,0,0-.76-.63,2.41,2.41,0,0,0-1.12-.24,2.7,2.7,0,0,0-1,.17,2.42,2.42,0,0,0-.71.46,1.84,1.84,0,0,0-.44.64,2.05,2.05,0,0,0,.05,1.61A1.73,1.73,0,0,0,363,65a2.22,2.22,0,0,0,.74.36A3.3,3.3,0,0,0,364.59,65.49Z" fill="#e52823"/></g></g></svg>