<svg xmlns="http://www.w3.org/2000/svg" viewBox="0 0 300 250"><g id="Layer_2" data-name="Layer 2"><g id="rec"><rect width="300" height="250" fill="none"/></g><g id="CTA"><path id="bg" d="M113.75,158.67h-88a10.46,10.46,0,0,1-10.67-10.23v-1.07a10.46,10.46,0,0,1,10.67-10.23h88a10.46,10.46,0,0,1,10.67,10.23v1.07a10.46,10.46,0,0,1-10.67,10.23" fill="#e52823"/><path d="M43.69,152.65a5.2,5.2,0,0,1-2.07-.38,4.65,4.65,0,0,1-1.45-1L41,150.1a4.22,4.22,0,0,0,1.14.84,3.4,3.4,0,0,0,1.6.36,2.62,2.62,0,0,0,.79-.1,1.7,1.7,0,0,0,.54-.27,1,1,0,0,0,.29-.39.94.94,0,0,0,.1-.43.77.77,0,0,0-.37-.69,3.51,3.51,0,0,0-.93-.41c-.38-.11-.78-.22-1.21-.32a6.4,6.4,0,0,1-1.21-.43,2.57,2.57,0,0,1-.94-.75,2,2,0,0,1-.37-1.26,2.23,2.23,0,0,1,.23-1,2.37,2.37,0,0,1,.64-.81,2.76,2.76,0,0,1,1-.53,4.06,4.06,0,0,1,1.29-.2,5,5,0,0,1,1.82.32,4.15,4.15,0,0,1,1.41.9L46,146.06a3.07,3.07,0,0,0-1.17-.76,3.87,3.87,0,0,0-1.34-.24,1.73,1.73,0,0,0-1.06.3.92.92,0,0,0-.39.77.7.7,0,0,0,.37.63,3.74,3.74,0,0,0,.93.37l1.21.32a5.81,5.81,0,0,1,1.21.45,2.87,2.87,0,0,1,.94.78A2.1,2.1,0,0,1,47,150a2.78,2.78,0,0,1-.2,1,2.28,2.28,0,0,1-.6.85,3,3,0,0,1-1,.59A4.87,4.87,0,0,1,43.69,152.65Z" fill="#fff"/><path d="M52.62,152.49v-3.93a1.21,1.21,0,0,0-.34-1,1.48,1.48,0,0,0-.92-.26,1.72,1.72,0,0,0-1,.26,2.17,2.17,0,0,0-.65.57v4.37H48.4v-8.64h1.36v3.23a2.66,2.66,0,0,1,.38-.36,3.61,3.61,0,0,1,.5-.33,2.94,2.94,0,0,1,.61-.22,2.71,2.71,0,0,1,.71-.09,2,2,0,0,1,1.51.51,2,2,0,0,1,.51,1.47v4.43Z" fill="#fff"/><path d="M58.58,152.65a3.25,3.25,0,0,1-1.35-.27,3,3,0,0,1-1.64-1.75,3.78,3.78,0,0,1,0-2.54,2.82,2.82,0,0,1,.63-1,2.93,2.93,0,0,1,1-.71,3.63,3.63,0,0,1,2.7,0,3,3,0,0,1,1,.71,3.12,3.12,0,0,1,.63,1,3.78,3.78,0,0,1,0,2.54,3.22,3.22,0,0,1-.63,1,3,3,0,0,1-1,.71A3.25,3.25,0,0,1,58.58,152.65Zm0-1.2a1.62,1.62,0,0,0,1.34-.63,2.06,2.06,0,0,0,.34-.66,2.67,2.67,0,0,0,.12-.8,2.56,2.56,0,0,0-.12-.79,2.06,2.06,0,0,0-.34-.66,1.64,1.64,0,0,0-.56-.45,1.66,1.66,0,0,0-.78-.17,1.62,1.62,0,0,0-.77.17,1.78,1.78,0,0,0-.57.45,2.08,2.08,0,0,0-.35.66,2.9,2.9,0,0,0-.11.79,3,3,0,0,0,.11.8,2.08,2.08,0,0,0,.35.66,2,2,0,0,0,.57.46A1.74,1.74,0,0,0,58.58,151.45Z" fill="#fff"/><path d="M66.55,152.65a2.34,2.34,0,0,1-1.11-.27,2.66,2.66,0,0,1-.9-.75v3.25H63.18v-8.64h1.36v.85a2.6,2.6,0,0,1,.87-.74,2.4,2.4,0,0,1,1.14-.27,2.89,2.89,0,0,1,1.11.22,2.4,2.4,0,0,1,.87.64,3,3,0,0,1,.58,1,4.71,4.71,0,0,1,0,2.78,3,3,0,0,1-.58,1,2.4,2.4,0,0,1-.87.64A2.72,2.72,0,0,1,66.55,152.65Zm-.41-1.2a1.59,1.59,0,0,0,1.3-.59,2.58,2.58,0,0,0,0-3,1.61,1.61,0,0,0-1.3-.57,1.91,1.91,0,0,0-.92.24,1.73,1.73,0,0,0-.68.59v2.47a1.81,1.81,0,0,0,.29.34,2.7,2.7,0,0,0,.39.27,1.77,1.77,0,0,0,.45.18A2,2,0,0,0,66.14,151.45Z" fill="#fff"/><path d="M80.08,152.49l-4.5-6.17v6.17H74.06v-8.64h1.55l4.42,6v-6h1.52v8.64Z" fill="#fff"/><path d="M86.19,152.65a3.22,3.22,0,0,1-1.35-.27,2.84,2.84,0,0,1-1-.71,3.08,3.08,0,0,1-.64-1,3.78,3.78,0,0,1,0-2.54,3,3,0,0,1,.64-1,2.84,2.84,0,0,1,1-.71,3.39,3.39,0,0,1,1.35-.26,3.34,3.34,0,0,1,1.34.26,2.84,2.84,0,0,1,1,.71,3,3,0,0,1,.64,1,3.78,3.78,0,0,1,0,2.54,3.08,3.08,0,0,1-.64,1,2.84,2.84,0,0,1-1,.71A3.18,3.18,0,0,1,86.19,152.65Zm0-1.2a1.66,1.66,0,0,0,1.34-.63,2.06,2.06,0,0,0,.34-.66,2.67,2.67,0,0,0,.12-.8,2.56,2.56,0,0,0-.12-.79,2.06,2.06,0,0,0-.34-.66,1.69,1.69,0,0,0-1.34-.62,1.62,1.62,0,0,0-.77.17,1.78,1.78,0,0,0-.57.45,2.08,2.08,0,0,0-.35.66,2.56,2.56,0,0,0-.12.79,2.67,2.67,0,0,0,.12.8,2.08,2.08,0,0,0,.35.66,2,2,0,0,0,.57.46A1.74,1.74,0,0,0,86.19,151.45Z" fill="#fff"/><path d="M96.25,152.49l-1.46-4.58-1.45,4.58H91.91L90,146.24h1.41l1.32,4.54,1.49-4.54H95.4l1.47,4.54,1.33-4.54h1.42l-1.94,6.25Z" fill="#fff"/></g></g></svg>