<svg xmlns="http://www.w3.org/2000/svg" viewBox="0 0 300 250"><g id="Layer_2" data-name="Layer 2"><g id="rec"><rect width="300" height="250" fill="none"/></g><g id="sbhd"><path d="M19.77,102.67a5.93,5.93,0,0,1-2.48-.47,5,5,0,0,1-1.72-1.28l1.14-1.38a3.82,3.82,0,0,0,3,1.36,2.38,2.38,0,0,0,1.71-.58,2,2,0,0,0,0-2.89,2.43,2.43,0,0,0-1.67-.54,3.59,3.59,0,0,0-1.32.23,3.53,3.53,0,0,0-1.16.73l-1.41-.4V91.12h7.43v1.77H17.9v3.25A3.83,3.83,0,0,1,19,95.46a3.69,3.69,0,0,1,1.48-.29,3.78,3.78,0,0,1,1.37.25,3.34,3.34,0,0,1,2,1.86,3.78,3.78,0,0,1,.29,1.54,3.7,3.7,0,0,1-.32,1.59,3.46,3.46,0,0,1-.89,1.21,3.9,3.9,0,0,1-1.37.77A5.18,5.18,0,0,1,19.77,102.67Z" fill="#e52823"/><path d="M30.05,102.67a4,4,0,0,1-2.06-.52,4.41,4.41,0,0,1-1.4-1.35,6.22,6.22,0,0,1-.81-1.88,8.77,8.77,0,0,1,0-4.24,6.06,6.06,0,0,1,.81-1.87A4.2,4.2,0,0,1,28,91.46a4.4,4.4,0,0,1,4.11,0,4.33,4.33,0,0,1,1.41,1.35,6,6,0,0,1,.8,1.87,8.46,8.46,0,0,1,0,4.24,6.2,6.2,0,0,1-.8,1.88,4.54,4.54,0,0,1-1.41,1.35A3.92,3.92,0,0,1,30.05,102.67Zm0-1.77a2,2,0,0,0,1.17-.34,2.5,2.5,0,0,0,.77-.9,4.52,4.52,0,0,0,.43-1.3,8.8,8.8,0,0,0,.13-1.56,9.65,9.65,0,0,0-.12-1.55A4.48,4.48,0,0,0,32,93.94a2.58,2.58,0,0,0-.77-.89,2.26,2.26,0,0,0-2.35,0,2.48,2.48,0,0,0-.77.89,4.49,4.49,0,0,0-.44,1.31,8.61,8.61,0,0,0-.13,1.55,8.8,8.8,0,0,0,.13,1.56,4.52,4.52,0,0,0,.44,1.3,2.6,2.6,0,0,0,.77.9A2,2,0,0,0,30.05,100.9Z" fill="#e52823"/><path d="M38.59,96.58a3.06,3.06,0,0,1-1.15-.21,2.5,2.5,0,0,1-.89-.6,2.69,2.69,0,0,1-.58-.89,2.88,2.88,0,0,1-.2-1.11,3,3,0,0,1,.2-1.11,2.84,2.84,0,0,1,.58-.9,2.61,2.61,0,0,1,.89-.59,3.12,3.12,0,0,1,2.3,0,2.56,2.56,0,0,1,.9.59,3,3,0,0,1,.57.9,3.17,3.17,0,0,1,.2,1.11,3.08,3.08,0,0,1-.2,1.11,2.83,2.83,0,0,1-.57.89,2.45,2.45,0,0,1-.9.6A3.06,3.06,0,0,1,38.59,96.58Zm0-1.14A1.42,1.42,0,0,0,39.68,95a1.73,1.73,0,0,0,.42-1.21,1.77,1.77,0,0,0-.42-1.24,1.4,1.4,0,0,0-1.09-.47,1.35,1.35,0,0,0-1.07.47,1.73,1.73,0,0,0-.43,1.24A1.69,1.69,0,0,0,37.52,95,1.38,1.38,0,0,0,38.59,95.44Zm-1.11,7,7.25-11.34h1.15l-7.26,11.34Zm7.21.21a2.88,2.88,0,0,1-1.15-.22,2.57,2.57,0,0,1-.89-.59,2.69,2.69,0,0,1-.58-.89,3,3,0,0,1-.2-1.1,3.08,3.08,0,0,1,.2-1.11,2.61,2.61,0,0,1,1.47-1.49,3.25,3.25,0,0,1,2.3,0,2.61,2.61,0,0,1,1.47,1.49,2.88,2.88,0,0,1,.2,1.11,2.83,2.83,0,0,1-.2,1.1,2.69,2.69,0,0,1-.58.89,2.57,2.57,0,0,1-.89.59A2.88,2.88,0,0,1,44.69,102.67Zm0-1.14a1.44,1.44,0,0,0,1.09-.46,1.73,1.73,0,0,0,.42-1.21,1.77,1.77,0,0,0-.42-1.23,1.41,1.41,0,0,0-1.09-.47,1.43,1.43,0,0,0-1.09.47,1.77,1.77,0,0,0-.42,1.23,1.73,1.73,0,0,0,.42,1.21A1.46,1.46,0,0,0,44.69,101.53Z" fill="#e52823"/><path d="M57.25,102.67a4.32,4.32,0,0,1-1.76-.35,3.91,3.91,0,0,1-1.33-.94,4,4,0,0,1-.83-1.37A4.57,4.57,0,0,1,53,98.35a4.62,4.62,0,0,1,.29-1.67,4.06,4.06,0,0,1,.83-1.37,3.73,3.73,0,0,1,1.33-.92,4.75,4.75,0,0,1,3.53,0,3.82,3.82,0,0,1,1.33.92,4.06,4.06,0,0,1,.83,1.37,4.84,4.84,0,0,1,.29,1.67,4.79,4.79,0,0,1-.29,1.66,4,4,0,0,1-.83,1.37,4,4,0,0,1-1.33.94A4.33,4.33,0,0,1,57.25,102.67Zm0-1.59a2.19,2.19,0,0,0,1-.22,2,2,0,0,0,.74-.59,2.53,2.53,0,0,0,.45-.88,3.46,3.46,0,0,0,0-2.08,2.57,2.57,0,0,0-.45-.87,2.15,2.15,0,0,0-.74-.59,2.19,2.19,0,0,0-1-.22,2.16,2.16,0,0,0-1,.22,2.39,2.39,0,0,0-.75.59,2.78,2.78,0,0,0-.46.87,3.68,3.68,0,0,0,0,2.08,2.73,2.73,0,0,0,.46.88,2.26,2.26,0,0,0,.75.59A2.16,2.16,0,0,0,57.25,101.08Z" fill="#e52823"/><path d="M63.73,102.46V95.8H62.37V94.25h1.36v-.46a2.85,2.85,0,0,1,.73-2.11A2.55,2.55,0,0,1,66.31,91a2.94,2.94,0,0,1,1.45.31l-.39,1.34a1.33,1.33,0,0,0-.72-.18,1.08,1.08,0,0,0-.84.33,1.56,1.56,0,0,0-.29,1v.46h1.66V95.8H65.52v6.66Z" fill="#e52823"/><path d="M69,102.46V95.8H67.62V94.25H69v-.46a2.89,2.89,0,0,1,.73-2.11A2.56,2.56,0,0,1,71.57,91a2.9,2.9,0,0,1,1.44.31l-.39,1.34a1.31,1.31,0,0,0-.71-.18,1,1,0,0,0-.84.33,1.56,1.56,0,0,0-.3,1v.46h1.66V95.8H70.77v6.66Z" fill="#e52823"/><path d="M80.93,102.46V92.89H77.5V91.12h8.86v1.77H82.92v9.57Z" fill="#e52823"/><path d="M89.93,102.67a4.33,4.33,0,0,1-1.77-.35,4.11,4.11,0,0,1-1.33-.94A4,4,0,0,1,86,100a4.79,4.79,0,0,1-.29-1.66A4.84,4.84,0,0,1,86,96.68a4.06,4.06,0,0,1,.83-1.37,3.91,3.91,0,0,1,1.33-.92,4.33,4.33,0,0,1,1.77-.34,4.4,4.4,0,0,1,1.77.34,3.78,3.78,0,0,1,1.32.92,4.06,4.06,0,0,1,.83,1.37,4.62,4.62,0,0,1,.29,1.67,4.57,4.57,0,0,1-.29,1.66,4,4,0,0,1-2.15,2.31A4.4,4.4,0,0,1,89.93,102.67Zm0-1.59a2.25,2.25,0,0,0,1-.22,2.13,2.13,0,0,0,.74-.59,2.71,2.71,0,0,0,.45-.88,3.68,3.68,0,0,0,0-2.08,2.76,2.76,0,0,0-.45-.87,2.18,2.18,0,0,0-1.76-.81,2.21,2.21,0,0,0-1,.22,2.25,2.25,0,0,0-.74.59,2.42,2.42,0,0,0-.46.87,3.46,3.46,0,0,0,0,2.08,2.39,2.39,0,0,0,.46.88,2.13,2.13,0,0,0,.74.59A2.21,2.21,0,0,0,89.93,101.08Z" fill="#e52823"/><path d="M100.38,102.67a3.14,3.14,0,0,1-1.45-.35,3.61,3.61,0,0,1-1.18-1v4.27H96V94.25h1.79v1.12a3.22,3.22,0,0,1,2.63-1.32,3.49,3.49,0,0,1,1.46.29,3.09,3.09,0,0,1,1.15.84,4,4,0,0,1,.76,1.35,6.27,6.27,0,0,1,0,3.64,4,4,0,0,1-.76,1.35,3.23,3.23,0,0,1-1.15.85A3.5,3.5,0,0,1,100.38,102.67Zm-.53-1.59a2.06,2.06,0,0,0,1.7-.76,3.4,3.4,0,0,0,0-3.94,2.08,2.08,0,0,0-1.7-.75,2.53,2.53,0,0,0-1.21.31,2.36,2.36,0,0,0-.89.78V100a2,2,0,0,0,.38.44,2.34,2.34,0,0,0,.51.36,3,3,0,0,0,.59.24A2.25,2.25,0,0,0,99.85,101.08Z" fill="#e52823"/><path d="M110.24,102.46V91.12H118v1.77h-5.78v2.89h5.66v1.77h-5.66v4.91Z" fill="#e52823"/><path d="M120.66,93.25a1.11,1.11,0,0,1-1.1-1.11,1.09,1.09,0,0,1,1.1-1.1,1.11,1.11,0,0,1,1.11,1.1,1.13,1.13,0,0,1-1.11,1.11Zm-.9,9.21V94.25h1.79v8.21Z" fill="#e52823"/><path d="M129.42,102.46V97.33A1.66,1.66,0,0,0,129,96a1.91,1.91,0,0,0-1.22-.36,2.28,2.28,0,0,0-1.23.34,3.14,3.14,0,0,0-.88.75v5.74h-1.78V94.25h1.78v1.11a4.62,4.62,0,0,1,.5-.48,3.54,3.54,0,0,1,.68-.42,3.72,3.72,0,0,1,1.73-.41,2.64,2.64,0,0,1,2,.68,2.68,2.68,0,0,1,.66,2v5.78Z" fill="#e52823"/><path d="M136.91,92.19a2,2,0,0,1-.17.82,2.16,2.16,0,0,1-.44.67,2.07,2.07,0,0,1-1.49.61,2,2,0,0,1-.82-.16,2.08,2.08,0,0,1-.67-.45,2.19,2.19,0,0,1-.45-.67,2,2,0,0,1-.16-.82A2.09,2.09,0,0,1,134,90.25a2.22,2.22,0,0,1,.82-.16,2.26,2.26,0,0,1,.82.16,2.08,2.08,0,0,1,.67.45,2.05,2.05,0,0,1,.44.67A2.08,2.08,0,0,1,136.91,92.19Zm-.3,0a1.91,1.91,0,0,0-.14-.71,1.61,1.61,0,0,0-.39-.57,1.73,1.73,0,0,0-.57-.38,1.7,1.7,0,0,0-.71-.14,1.65,1.65,0,0,0-.7.14,1.73,1.73,0,0,0-.57.38,1.61,1.61,0,0,0-.39.57,1.91,1.91,0,0,0-.14.71,1.76,1.76,0,0,0,.53,1.27,1.73,1.73,0,0,0,.57.38,1.66,1.66,0,0,0,.7.15,1.71,1.71,0,0,0,.71-.15,1.73,1.73,0,0,0,.57-.38,1.76,1.76,0,0,0,.53-1.27Zm-1.23,1.21-.62-1h-.43v1H134V91h1a.8.8,0,0,1,.54.2.66.66,0,0,1,.24.54.67.67,0,0,1-.08.33.71.71,0,0,1-.18.23,1.13,1.13,0,0,1-.21.12l-.16,0,.65,1Zm0-1.67a.44.44,0,0,0-.44-.45h-.65v.87H135a.44.44,0,0,0,.3-.12A.39.39,0,0,0,135.42,91.73Z" fill="#e52823"/><path d="M142.85,102.46V91.12h7.77v1.77h-5.78v2.89h5.66v1.77h-5.66v3.14h5.78v1.77Z" fill="#e52823"/><path d="M158.16,102.46V97.33a1.66,1.66,0,0,0-.45-1.34,1.88,1.88,0,0,0-1.21-.36,2.23,2.23,0,0,0-1.23.34,3.14,3.14,0,0,0-.88.75v5.74H152.6V94.25h1.79v1.11a3.85,3.85,0,0,1,.5-.48,3.46,3.46,0,0,1,.67-.42,3.56,3.56,0,0,1,.81-.3,3.49,3.49,0,0,1,.93-.11A2.36,2.36,0,0,1,160,96.68v5.78Z" fill="#e52823"/><path d="M166,102.67a4.34,4.34,0,0,1-1.71-.33,3.82,3.82,0,0,1-1.33-.9,4,4,0,0,1-.88-1.37,4.93,4.93,0,0,1,0-3.44,4,4,0,0,1,2.21-2.26,4.34,4.34,0,0,1,1.71-.32,4.63,4.63,0,0,1,1.1.12,3.49,3.49,0,0,1,.86.32,3,3,0,0,1,.68.47,4.38,4.38,0,0,1,.51.55L168,96.58a2.19,2.19,0,0,0-1.88-1,2.34,2.34,0,0,0-1.81.75,2.86,2.86,0,0,0-.68,2,3.2,3.2,0,0,0,.18,1.09,2.5,2.5,0,0,0,.51.87,2.19,2.19,0,0,0,.78.57,2.38,2.38,0,0,0,1,.2,2.17,2.17,0,0,0,1.88-1l1.18,1.1a4.13,4.13,0,0,1-1.19,1A3.77,3.77,0,0,1,166,102.67Z" fill="#e52823"/><path d="M176.29,102.46V97.29a1.58,1.58,0,0,0-.45-1.31,1.83,1.83,0,0,0-1.2-.35,2.28,2.28,0,0,0-1.25.34,2.79,2.79,0,0,0-.86.75v5.74h-1.79V91.12h1.79v4.24a3.85,3.85,0,0,1,.5-.48,3.7,3.7,0,0,1,.66-.42,3.72,3.72,0,0,1,1.73-.41,2.71,2.71,0,0,1,2,.66,2.64,2.64,0,0,1,.66,1.94v5.81Z" fill="#e52823"/><path d="M186.16,102.46v-1.12a3.57,3.57,0,0,1-1.15,1,3.06,3.06,0,0,1-1.48.36,3.73,3.73,0,0,1-1.46-.29,3.32,3.32,0,0,1-1.15-.85,4,4,0,0,1-.76-1.36,5.71,5.71,0,0,1-.27-1.82,5.61,5.61,0,0,1,.27-1.79,4,4,0,0,1,.76-1.36,3.25,3.25,0,0,1,1.15-.86,3.62,3.62,0,0,1,1.46-.29,3.17,3.17,0,0,1,1.46.34,3.26,3.26,0,0,1,1.17,1V94.25H188v8.21Zm-2.11-1.38a2.2,2.2,0,0,0,.62-.08,3.13,3.13,0,0,0,.6-.24,2.7,2.7,0,0,0,.51-.35,1.92,1.92,0,0,0,.38-.43V96.73a2.45,2.45,0,0,0-.38-.42,2.34,2.34,0,0,0-.51-.36,3.13,3.13,0,0,0-.6-.24,2.64,2.64,0,0,0-.62-.08,2.14,2.14,0,0,0-1.7.76,2.45,2.45,0,0,0-.46.86,3.52,3.52,0,0,0-.16,1.1,3.46,3.46,0,0,0,.16,1.09,2.41,2.41,0,0,0,.46.87,2.1,2.1,0,0,0,.73.57A2.19,2.19,0,0,0,184.05,101.08Z" fill="#e52823"/><path d="M195.82,102.46V97.33a1.66,1.66,0,0,0-.45-1.34,1.91,1.91,0,0,0-1.22-.36,2.28,2.28,0,0,0-1.23.34,3.14,3.14,0,0,0-.88.75v5.74h-1.78V94.25H192v1.11a4,4,0,0,1,.51-.48,3.18,3.18,0,0,1,.67-.42,3.66,3.66,0,0,1,.8-.3,3.49,3.49,0,0,1,.93-.11,2.64,2.64,0,0,1,2,.68,2.68,2.68,0,0,1,.66,2v5.78Z" fill="#e52823"/><path d="M202.4,102.67a2.1,2.1,0,0,1-1.58-.55,2.14,2.14,0,0,1-.53-1.58V95.8h-1.36V94.25h1.36V92h1.78v2.24h1.67V95.8h-1.67v4.3a1.18,1.18,0,0,0,.2.7.66.66,0,0,0,.59.28,1.14,1.14,0,0,0,.46-.09.89.89,0,0,0,.32-.21l.42,1.36a1.86,1.86,0,0,1-.64.37A3,3,0,0,1,202.4,102.67Z" fill="#e52823"/><path d="M21.54,121.26v-1.12a3.57,3.57,0,0,1-1.15,1,3.1,3.1,0,0,1-1.49.36,3.68,3.68,0,0,1-1.45-.29,3.35,3.35,0,0,1-1.16-.85,4.16,4.16,0,0,1-.75-1.36,5.7,5.7,0,0,1-.28-1.82,5.6,5.6,0,0,1,.28-1.79,4.16,4.16,0,0,1,.75-1.36,3.44,3.44,0,0,1,1.15-.86,3.66,3.66,0,0,1,1.46-.29,3.21,3.21,0,0,1,2.64,1.34v-4.27h1.78v11.34Zm-2.11-1.38a2.25,2.25,0,0,0,.62-.08,3.13,3.13,0,0,0,.6-.24,3.54,3.54,0,0,0,.51-.35,1.92,1.92,0,0,0,.38-.43v-3.25a2.45,2.45,0,0,0-.38-.42,3,3,0,0,0-.51-.36,3.13,3.13,0,0,0-.6-.24,2.7,2.7,0,0,0-.62-.08,2.3,2.3,0,0,0-1,.2,2.23,2.23,0,0,0-.73.56,2.64,2.64,0,0,0-.47.86,3.52,3.52,0,0,0-.16,1.1,3.46,3.46,0,0,0,.16,1.09,2.59,2.59,0,0,0,.47.87,2.26,2.26,0,0,0,.73.57A2.16,2.16,0,0,0,19.43,119.88Z" fill="#e52823"/><path d="M29.44,121.47a4.78,4.78,0,0,1-1.72-.31,3.8,3.8,0,0,1-1.36-.88,4.14,4.14,0,0,1-.9-1.36,4.84,4.84,0,0,1-.32-1.77,4.52,4.52,0,0,1,.31-1.68,4.13,4.13,0,0,1,.86-1.37,4,4,0,0,1,1.31-.91,4.36,4.36,0,0,1,3.35,0,3.71,3.71,0,0,1,1.28.92,4.21,4.21,0,0,1,.81,1.42,5.58,5.58,0,0,1,.28,1.78v.44H27a2.82,2.82,0,0,0,.25.87,2.32,2.32,0,0,0,.53.72,2.37,2.37,0,0,0,.79.5,3,3,0,0,0,1,.17,3.82,3.82,0,0,0,1.26-.23,3.1,3.1,0,0,0,1.09-.68l.81,1.17a4,4,0,0,1-1.49.9A5.59,5.59,0,0,1,29.44,121.47Zm2.18-5a2.52,2.52,0,0,0-.16-.74,2.24,2.24,0,0,0-1.13-1.22,2.5,2.5,0,0,0-1-.2,2.4,2.4,0,0,0-1,.19,2.15,2.15,0,0,0-.7.51,2.32,2.32,0,0,0-.43.7,2.13,2.13,0,0,0-.17.76Z" fill="#e52823"/><path d="M37.93,121.47a5.71,5.71,0,0,1-2-.34,4.28,4.28,0,0,1-1.54-1l.81-1.27a3.27,3.27,0,0,0,.53.42,4,4,0,0,0,.68.37,4.32,4.32,0,0,0,.77.25,3.11,3.11,0,0,0,.79.1,2.06,2.06,0,0,0,1.23-.3.94.94,0,0,0,.41-.79.66.66,0,0,0-.37-.61,3.48,3.48,0,0,0-.92-.34l-1.2-.27a4.91,4.91,0,0,1-1.19-.41,2.66,2.66,0,0,1-.92-.73,2,2,0,0,1-.37-1.26,2.24,2.24,0,0,1,.21-1,2.36,2.36,0,0,1,.62-.79,3,3,0,0,1,1-.54,4.47,4.47,0,0,1,1.38-.19,4.81,4.81,0,0,1,1.85.32,4.61,4.61,0,0,1,1.33.82l-.75,1.25a3,3,0,0,0-1-.69,3.28,3.28,0,0,0-1.42-.29,1.81,1.81,0,0,0-1.11.29.85.85,0,0,0-.4.73.58.58,0,0,0,.36.54,4.09,4.09,0,0,0,.92.32l1.2.27a5.16,5.16,0,0,1,1.2.42,2.75,2.75,0,0,1,.92.77,2.11,2.11,0,0,1,.36,1.3,2.37,2.37,0,0,1-.22,1,2.13,2.13,0,0,1-.65.81,3.26,3.26,0,0,1-1.07.54A5.07,5.07,0,0,1,37.93,121.47Z" fill="#e52823"/><path d="M48.57,121.26l-2.5-3.4-1.16,1.19v2.21H43.13V109.92h1.78V117l3.62-4h2.21l-3.4,3.72,3.47,4.49Z" fill="#e52823"/><path d="M54.57,121.47a2.12,2.12,0,0,1-1.58-.55,2.19,2.19,0,0,1-.53-1.58V114.6H51.1v-1.55h1.36v-2.24h1.79v2.24h1.66v1.55H54.25v4.3a1.18,1.18,0,0,0,.19.7.67.67,0,0,0,.59.28,1.23,1.23,0,0,0,.47-.09.84.84,0,0,0,.31-.21l.42,1.36a1.77,1.77,0,0,1-.64.37A3,3,0,0,1,54.57,121.47Z" fill="#e52823"/><path d="M61.23,121.47a4.4,4.4,0,0,1-1.77-.35,4,4,0,0,1-1.32-.94,4.06,4.06,0,0,1-.83-1.37,4.57,4.57,0,0,1-.29-1.66,4.62,4.62,0,0,1,.29-1.67,4.06,4.06,0,0,1,.83-1.37,3.78,3.78,0,0,1,1.32-.92,4.4,4.4,0,0,1,1.77-.34,4.33,4.33,0,0,1,1.77.34,3.91,3.91,0,0,1,1.33.92,4.06,4.06,0,0,1,.83,1.37,4.84,4.84,0,0,1,.29,1.67,4.79,4.79,0,0,1-.29,1.66,4.06,4.06,0,0,1-.83,1.37,4.11,4.11,0,0,1-1.33.94A4.33,4.33,0,0,1,61.23,121.47Zm0-1.59a2.19,2.19,0,0,0,1-.22,2,2,0,0,0,.74-.59,2.53,2.53,0,0,0,.45-.88,3.46,3.46,0,0,0,0-2.08,2.57,2.57,0,0,0-.45-.87,2.15,2.15,0,0,0-.74-.59,2.19,2.19,0,0,0-1-.22,2.16,2.16,0,0,0-1,.22,2.29,2.29,0,0,0-.75.59,2.59,2.59,0,0,0-.46.87,3.68,3.68,0,0,0,0,2.08,2.54,2.54,0,0,0,.46.88,2.22,2.22,0,0,0,1.75.81Z" fill="#e52823"/><path d="M71.69,121.47a3.18,3.18,0,0,1-1.46-.35,3.71,3.71,0,0,1-1.18-1v4.27H67.27V113.05h1.78v1.12a3.43,3.43,0,0,1,1.14-1,3.25,3.25,0,0,1,1.5-.35,3.49,3.49,0,0,1,1.46.29,3.25,3.25,0,0,1,1.15.84,4,4,0,0,1,.75,1.35,6.06,6.06,0,0,1,0,3.64,4,4,0,0,1-.75,1.35,3.41,3.41,0,0,1-1.15.85A3.5,3.5,0,0,1,71.69,121.47Zm-.53-1.59a2.09,2.09,0,0,0,1.7-.76,3.4,3.4,0,0,0,0-3.94,2.11,2.11,0,0,0-1.7-.75,2.57,2.57,0,0,0-1.22.31,2.44,2.44,0,0,0-.89.78v3.24a2,2,0,0,0,.38.44,3,3,0,0,0,.51.36,3.13,3.13,0,0,0,.6.24A2.25,2.25,0,0,0,71.16,119.88Z" fill="#e52823"/><path d="M87.28,121.26v-1.12a3.57,3.57,0,0,1-1.15,1,3.13,3.13,0,0,1-1.49.36,3.64,3.64,0,0,1-1.45-.29,3.26,3.26,0,0,1-1.16-.85,4.37,4.37,0,0,1-.76-1.36,5.71,5.71,0,0,1-.27-1.82,5.61,5.61,0,0,1,.27-1.79A4.37,4.37,0,0,1,82,114a3.34,3.34,0,0,1,1.15-.86,3.66,3.66,0,0,1,1.46-.29,3.17,3.17,0,0,1,1.46.34,3.21,3.21,0,0,1,1.18,1v-1.14h1.78v8.21Zm-2.11-1.38a2.25,2.25,0,0,0,.62-.08,2.81,2.81,0,0,0,.59-.24,2.7,2.7,0,0,0,.51-.35,2,2,0,0,0,.39-.43v-3.25a2.53,2.53,0,0,0-.39-.42,2.34,2.34,0,0,0-.51-.36,2.81,2.81,0,0,0-.59-.24,2.7,2.7,0,0,0-.62-.08,2.27,2.27,0,0,0-1,.2,2.23,2.23,0,0,0-.73.56,2.47,2.47,0,0,0-.47.86,3.52,3.52,0,0,0-.16,1.1,3.46,3.46,0,0,0,.16,1.09,2.43,2.43,0,0,0,.47.87,2.26,2.26,0,0,0,.73.57A2.13,2.13,0,0,0,85.17,119.88Z" fill="#e52823"/><path d="M94.48,121.47a3.5,3.5,0,0,1-1.46-.3,3.41,3.41,0,0,1-1.15-.85,4,4,0,0,1-.75-1.35,6.27,6.27,0,0,1,0-3.64,4,4,0,0,1,.75-1.35,3.25,3.25,0,0,1,1.15-.84,3.49,3.49,0,0,1,1.46-.29,3.25,3.25,0,0,1,1.5.35,3.43,3.43,0,0,1,1.14,1v-1.12H98.9v11.34H97.12v-4.27a3.71,3.71,0,0,1-1.18,1A3.18,3.18,0,0,1,94.48,121.47Zm.53-1.59a2.25,2.25,0,0,0,.62-.08,3.13,3.13,0,0,0,.6-.24,3,3,0,0,0,.51-.36,2,2,0,0,0,.38-.44v-3.24a2.36,2.36,0,0,0-.89-.78,2.57,2.57,0,0,0-1.22-.31,2.11,2.11,0,0,0-1.7.75,3.4,3.4,0,0,0,0,3.94A2.09,2.09,0,0,0,95,119.88Z" fill="#e52823"/><path d="M106.76,121.26v-1.09a4.52,4.52,0,0,1-1.18.9,3.66,3.66,0,0,1-1.71.4,2.66,2.66,0,0,1-2-.68,2.63,2.63,0,0,1-.67-1.93v-5.81H103v5.15a1.61,1.61,0,0,0,.45,1.32,1.91,1.91,0,0,0,1.22.36,2.36,2.36,0,0,0,1.23-.33,2.88,2.88,0,0,0,.86-.74v-5.76h1.78v8.21Z" fill="#e52823"/><path d="M116.63,121.26v-1.12a3.53,3.53,0,0,1-1.14,1,3.13,3.13,0,0,1-1.49.36,3.64,3.64,0,0,1-1.45-.29,3.26,3.26,0,0,1-1.16-.85,4.17,4.17,0,0,1-.76-1.36,5.71,5.71,0,0,1-.27-1.82,5.61,5.61,0,0,1,.27-1.79,4.17,4.17,0,0,1,.76-1.36,3.25,3.25,0,0,1,1.15-.86,3.66,3.66,0,0,1,1.46-.29,3.17,3.17,0,0,1,1.46.34,3.26,3.26,0,0,1,1.17,1v-1.14h1.79v8.21Zm-2.1-1.38a2.25,2.25,0,0,0,.62-.08,3,3,0,0,0,.59-.24,2.7,2.7,0,0,0,.51-.35,1.92,1.92,0,0,0,.38-.43v-3.25a2.45,2.45,0,0,0-.38-.42,2.34,2.34,0,0,0-.51-.36,3,3,0,0,0-.59-.24,2.7,2.7,0,0,0-.62-.08,2.27,2.27,0,0,0-1,.2,2.13,2.13,0,0,0-.73.56,2.47,2.47,0,0,0-.47.86,3.52,3.52,0,0,0-.16,1.1,3.46,3.46,0,0,0,.16,1.09,2.43,2.43,0,0,0,.47.87,2.16,2.16,0,0,0,.73.57A2.13,2.13,0,0,0,114.53,119.88Z" fill="#e52823"/><path d="M120.73,121.26v-8.21h1.79v1.19a3.76,3.76,0,0,1,1.17-1,2.9,2.9,0,0,1,1.49-.4v1.76a2.84,2.84,0,0,0-.54,0,2.18,2.18,0,0,0-.6.09,2.67,2.67,0,0,0-.61.24,3,3,0,0,0-.54.35,1.81,1.81,0,0,0-.37.43v5.59Z" fill="#e52823"/><path d="M127.53,112.05a1.11,1.11,0,0,1-1.1-1.11,1.11,1.11,0,0,1,2.21,0,1.13,1.13,0,0,1-1.11,1.11Zm-.9,9.21v-8.21h1.79v8.21Z" fill="#e52823"/><path d="M136.27,121.26v-1.09a4.52,4.52,0,0,1-1.18.9,3.63,3.63,0,0,1-1.71.4,2.68,2.68,0,0,1-2-.68,2.63,2.63,0,0,1-.66-1.93v-5.81h1.78v5.15a1.61,1.61,0,0,0,.45,1.32,1.91,1.91,0,0,0,1.22.36,2.36,2.36,0,0,0,1.23-.33,2.76,2.76,0,0,0,.86-.74v-5.76h1.78v8.21Z" fill="#e52823"/><path d="M150.45,121.26v-5.35a1.68,1.68,0,0,0-.32-1.07,1.22,1.22,0,0,0-1-.41,2,2,0,0,0-1.12.34,2.6,2.6,0,0,0-.79.75v5.74H145.4v-5.35a1.68,1.68,0,0,0-.31-1.07,1.19,1.19,0,0,0-1-.41,1.87,1.87,0,0,0-1.1.35,3.21,3.21,0,0,0-.8.74v5.74h-1.78v-8.21h1.78v1.11a2.42,2.42,0,0,1,.39-.42,3.65,3.65,0,0,1,.61-.43,4.36,4.36,0,0,1,.79-.33,2.92,2.92,0,0,1,.9-.13,2.49,2.49,0,0,1,1.48.41,2.13,2.13,0,0,1,.76,1.08,2.68,2.68,0,0,1,.45-.54,3.69,3.69,0,0,1,.65-.49,3.85,3.85,0,0,1,.8-.34,3.3,3.3,0,0,1,.89-.12,2.35,2.35,0,0,1,1.74.61,2.54,2.54,0,0,1,.62,1.87v5.93Z" fill="#e52823"/><path d="M156.75,120.62a3.24,3.24,0,0,1-.43,1.64,3.76,3.76,0,0,1-1.15,1.26l-.81-.66a2.16,2.16,0,0,0,.4-.31,2.4,2.4,0,0,0,.38-.4,2.57,2.57,0,0,0,.29-.44,1.33,1.33,0,0,0,.15-.45l-.12,0h-.17a.94.94,0,0,1-.71-.3,1.09,1.09,0,0,1-.29-.79,1.13,1.13,0,0,1,.33-.81,1.1,1.1,0,0,1,.83-.34,1.21,1.21,0,0,1,.91.4A1.57,1.57,0,0,1,156.75,120.62Z" fill="#e52823"/><path d="M166.63,121.47a5.77,5.77,0,0,1-2.6-.54,4.65,4.65,0,0,1-1.68-1.3l1.08-1.31a3.8,3.8,0,0,0,1.38,1,4.23,4.23,0,0,0,1.75.37,2.82,2.82,0,0,0,1.75-.48,1.51,1.51,0,0,0,.62-1.26,1.34,1.34,0,0,0-.65-1.23,3.76,3.76,0,0,0-1.87-.38h-.76l-.53,0v-1.82h1.29a5.28,5.28,0,0,0,.93-.08,2.48,2.48,0,0,0,.74-.27,1.51,1.51,0,0,0,.5-.47,1.22,1.22,0,0,0,.18-.67,1.28,1.28,0,0,0-.18-.68,1.47,1.47,0,0,0-.5-.49,2.54,2.54,0,0,0-.73-.3,3.57,3.57,0,0,0-.89-.1,4,4,0,0,0-2.94,1.26l-1-1.24a5.27,5.27,0,0,1,1.69-1.29,5.65,5.65,0,0,1,2.46-.5,6.13,6.13,0,0,1,1.66.21,4.28,4.28,0,0,1,1.29.61,2.8,2.8,0,0,1,.83,1,2.65,2.65,0,0,1,.3,1.27,2.4,2.4,0,0,1-.22,1,2.62,2.62,0,0,1-.57.77,3.31,3.31,0,0,1-.79.53,3.93,3.93,0,0,1-.87.27,3.17,3.17,0,0,1,.87.24,3.14,3.14,0,0,1,.85.52,2.74,2.74,0,0,1,.66.84,2.48,2.48,0,0,1,.26,1.16,3,3,0,0,1-.3,1.33,3.09,3.09,0,0,1-.86,1,4.52,4.52,0,0,1-1.35.69A6.12,6.12,0,0,1,166.63,121.47Z" fill="#e52823"/><path d="M173.79,121.45a1.12,1.12,0,0,1-.84-.36,1.15,1.15,0,0,1-.35-.85,1.08,1.08,0,0,1,.35-.82,1.18,1.18,0,0,1,1.68,0,1.12,1.12,0,0,1,.35.82,1.19,1.19,0,0,1-.35.85A1.12,1.12,0,0,1,173.79,121.45Z" fill="#e52823"/><path d="M181.05,121.47a6,6,0,0,1-2.49-.47,4.78,4.78,0,0,1-1.71-1.29l1.14-1.37a3.81,3.81,0,0,0,3,1.36,2.41,2.41,0,0,0,1.71-.58,2,2,0,0,0,0-2.89,2.45,2.45,0,0,0-1.67-.54,3.61,3.61,0,0,0-1.33.23,3.43,3.43,0,0,0-1.15.73l-1.41-.4v-6.33h7.43v1.77h-5.44v3.25a3.77,3.77,0,0,1,1.08-.68,3.59,3.59,0,0,1,1.48-.29,3.79,3.79,0,0,1,1.38.25,3.5,3.5,0,0,1,1.17.71,3.41,3.41,0,0,1,.79,1.15,3.78,3.78,0,0,1,.3,1.54,3.86,3.86,0,0,1-.32,1.59,3.73,3.73,0,0,1-.89,1.21,4.07,4.07,0,0,1-1.37.77A5.22,5.22,0,0,1,181.05,121.47Z" fill="#e52823"/><path d="M195,124.59a6,6,0,0,1-1.87-.26,4.42,4.42,0,0,1-1.58-1l.83-1.29a2.92,2.92,0,0,0,1.16.81,4.14,4.14,0,0,0,1.46.24,3.7,3.7,0,0,0,.87-.11,2.14,2.14,0,0,0,.79-.38,2.1,2.1,0,0,0,.56-.71,2.49,2.49,0,0,0,.21-1.09v-.94a3.54,3.54,0,0,1-1.15,1,3,3,0,0,1-1.49.38,3.67,3.67,0,0,1-1.45-.28,3.15,3.15,0,0,1-1.15-.82,3.55,3.55,0,0,1-.76-1.32,5.5,5.5,0,0,1-.27-1.8,5.41,5.41,0,0,1,.27-1.78,3.77,3.77,0,0,1,.76-1.33,3.08,3.08,0,0,1,1.14-.82,3.65,3.65,0,0,1,1.46-.28,3.21,3.21,0,0,1,1.47.34,3.26,3.26,0,0,1,1.17,1v-1.14h1.78v7.79a4,4,0,0,1-.37,1.83,3,3,0,0,1-1,1.16,3.7,3.7,0,0,1-1.36.59A6.39,6.39,0,0,1,195,124.59Zm.32-4.91a2.56,2.56,0,0,0,1.22-.32,2.52,2.52,0,0,0,.89-.77v-3.07a2.52,2.52,0,0,0-.89-.77,2.56,2.56,0,0,0-1.22-.32,2.15,2.15,0,0,0-1.7.72,3.21,3.21,0,0,0,0,3.82A2.17,2.17,0,0,0,195.29,119.68Z" fill="#e52823"/><path d="M207.28,121.26v-1.12a3.57,3.57,0,0,1-1.15,1,3.1,3.1,0,0,1-1.49.36,3.68,3.68,0,0,1-1.45-.29,3.35,3.35,0,0,1-1.16-.85,4.16,4.16,0,0,1-.75-1.36,5.43,5.43,0,0,1-.28-1.82,5.34,5.34,0,0,1,.28-1.79A4.16,4.16,0,0,1,202,114a3.44,3.44,0,0,1,1.15-.86,3.66,3.66,0,0,1,1.46-.29,3.17,3.17,0,0,1,1.46.34,3.21,3.21,0,0,1,1.18,1v-1.14h1.78v8.21Zm-2.11-1.38a2.25,2.25,0,0,0,.62-.08,2.81,2.81,0,0,0,.59-.24,2.7,2.7,0,0,0,.51-.35,2,2,0,0,0,.39-.43v-3.25a2.53,2.53,0,0,0-.39-.42,2.34,2.34,0,0,0-.51-.36,2.81,2.81,0,0,0-.59-.24,2.7,2.7,0,0,0-.62-.08,2.3,2.3,0,0,0-1,.2,2.23,2.23,0,0,0-.73.56,2.47,2.47,0,0,0-.47.86,3.52,3.52,0,0,0-.16,1.1,3.46,3.46,0,0,0,.16,1.09,2.43,2.43,0,0,0,.47.87,2.26,2.26,0,0,0,.73.57A2.16,2.16,0,0,0,205.17,119.88Z" fill="#e52823"/><path d="M213.48,121.47a1.91,1.91,0,0,1-2.11-2.13v-9.42h1.79v9a1.18,1.18,0,0,0,.19.7.67.67,0,0,0,.59.28,1.28,1.28,0,0,0,.48-.09.89.89,0,0,0,.32-.21l.42,1.36a1.77,1.77,0,0,1-.64.37A3,3,0,0,1,213.48,121.47Z" fill="#e52823"/><path d="M217.17,121.45a1.12,1.12,0,0,1-.84-.36,1.19,1.19,0,0,1-.35-.85,1.12,1.12,0,0,1,.35-.82,1.18,1.18,0,0,1,1.68,0,1.12,1.12,0,0,1,.35.82,1.19,1.19,0,0,1-.35.85A1.12,1.12,0,0,1,217.17,121.45Z" fill="#e52823"/></g></g></svg>