<svg xmlns="http://www.w3.org/2000/svg" viewBox="0 0 300.97 600"><g id="Layer_2" data-name="Layer 2"><g id="content"><rect width="300" height="600"/><rect width="300" height="600" fill="none"/><path d="M143.3,251.34c0,1.84,0,3.53,0,5.37,1.08.06,2.31.28,3.39.37,0,4.47-.11,7.86-.11,12.34,3,.36,5.15.71,6,.86,0-4.48.17-8,.18-12.48,0,0,3.19.5,3.25.54v-5.51a97.8,97.8,0,0,0-12.68-1.49Z" fill="#fff"/><path d="M43.74,244.86c19.06-5.82,28.68,8.77,28.68,8.77s-6-20.36-28.68-8.77Z" fill="#fff"/><path d="M80.58,245.61c0-.08,0-.6,0-.68a14.23,14.23,0,0,0-7.52,10.93s2.6-6,8.7-7.86a3.68,3.68,0,0,1-1.18-2.39Z" fill="#fff"/><path d="M56.27,254.12s-.05,2.88,0,4.33c-.73,0-3.89-.2-5.28-.25,0,.78-.05,1.58,0,2.36,1.66,0,3.39.23,5.06.21,0,1.4,0,2.6,0,4-1.67,0-3.34-.14-5-.17,0,.85,0,1.7,0,2.54,1.79,0,3.59.19,5.38.17,0-.07,0,4.25,0,4.25-3.55,0-7.75-.28-11.73-.61l.28-17.71c1.67.19,6.87.75,11.4.88Z" fill="#fff"/><path d="M57.78,254.16l-.07,4.62c1.67.09,3.18.09,3.18.09l0,12.84a40.36,40.36,0,0,0,6.4-.09l-.08-12.71s2.83-.13,3.27-.17c0-1.7,0-3-.06-4.72a113,113,0,0,1-12.62.14Z" fill="#fff"/><path d="M35.65,260l-.56-.06,0-3.64.54.05a1.86,1.86,0,0,1,1.85,1.95c0,1.5-.94,1.79-1.86,1.7Zm1.4-8.57L29.47,250l0,18.58c1.94.38,3.72.7,5.62.91l0-5.36c.67.07,1.38.16,2.05.22,3.29.31,6.61-.93,6.65-6.31,0-4.77-3.14-6.15-6.66-6.67Z" fill="#fff"/><path d="M100.36,268.68c.85-2.22,1.7-4.29,2.55-6.5.14,2.12.22,4,.35,6.15,2.12-.23,3.82-.36,6-.49-.55-5.64-1-11.69-1.58-17.34l-5.47.5c-1,2.67-2,5.9-3.06,8.57-1-2.47-2-5.36-3-7.82-1.84.26-5.13.83-5.47.84-.63,5.75-1.35,12.14-2,17.89,1.45-.25,5-.81,6.07-1l.49-6.58,2.46,6.14,2.64-.4Z" fill="#fff"/><path d="M134,258.94l-.56,0c0-1.2,0-2.4.05-3.6l.54,0a1.79,1.79,0,0,1,1.85,1.89,1.54,1.54,0,0,1-1.88,1.7Zm5.27,3.82c1.63-.72,2.79-2.29,2.84-5.41.06-4.7-3.26-6.7-6.62-7-2.55-.2-5.09-.33-7.64-.4-.08,6-.11,11.43-.19,17.4,1.9.05,4,.19,5.65.33,0-1.68,0-2.92.07-4.6,1.09,1.75,2,3.2,3.07,5,2.34.21,4.73.51,7.07.85-1.46-2.18-2.78-4.05-4.25-6.19Z" fill="#fff"/><path d="M117.09,261.61c.39-1.48.79-3,1.18-4.52.46,1.48.91,3,1.36,4.46-2.6.09-2.6.06-2.54.06Zm4.15-11.75c-2.26,0-4.11,0-6,.12-1.56,5.79-3.39,12-5,17.79,1.73,0,3.48-.15,5.21-.15l.5-1.93,2.64-.07s2.33-.07,2.33-.07c.07.23.28.83.58,1.85,1.73,0,3.46,0,5.19,0-1.87-6.13-3.76-12-5.46-17.58Z" fill="#fff"/><path d="M72.43,270.06a15.55,15.55,0,0,0,7,1.78c4,0,8.13-2.38,8.21-6.83.07-3.16-2-4.67-4.76-5.29l-1.5-.34c-.51-.13-1.34-.22-1.32-.92s.87-1,1.46-1a10.67,10.67,0,0,1,4,.86q.84-2.24,1.69-4.47a13.27,13.27,0,0,0-5.79-1.38c-4,0-8,2.42-8.1,6.84,0,2.92,2.1,4.52,4.7,5l1.33.25c.61.12,1.48.2,1.47,1s-1,.93-1.71.93a7.87,7.87,0,0,1-4.56-1.5c-.69,1.55-1.5,3.47-2.19,5Z" fill="#fff"/><path d="M86.8,239.8a4.47,4.47,0,1,0,4.41,4.52A4.48,4.48,0,0,0,86.8,239.8Zm1.61,1.65a5.31,5.31,0,0,0-4.79,2.8s0,.05,0,.07a3.31,3.31,0,0,1,.11-1.24,3,3,0,0,1,3.72-2.17,2.88,2.88,0,0,1,1,.56Z" fill="#fff"/><path d="M.76,599.19c1.28-91.93,67.13-154.26,150-154.26S301,514,301,599.19" fill="#e52823"/><g id="Layer_5" data-name="Layer 5"><path d="M22.71,55.88V35.5h10a6.84,6.84,0,0,1,2.49.41A5.17,5.17,0,0,1,37,37a4.78,4.78,0,0,1,1.12,1.65,5.4,5.4,0,0,1,.38,2,5.12,5.12,0,0,1-.29,1.74,5.06,5.06,0,0,1-.78,1.39,4.63,4.63,0,0,1-1.13,1,4.37,4.37,0,0,1-1.35.55,4.13,4.13,0,0,1,1.55.56A4.93,4.93,0,0,1,37.79,47a5.17,5.17,0,0,1,.84,1.53,5.33,5.33,0,0,1,.31,1.78,6.06,6.06,0,0,1-.39,2.2,4.88,4.88,0,0,1-1.13,1.76,5,5,0,0,1-1.86,1.16,7.21,7.21,0,0,1-2.55.42Zm9.32-12a2.85,2.85,0,0,0,2.11-.73,2.49,2.49,0,0,0,.73-1.87,2.55,2.55,0,0,0-.73-1.86A2.85,2.85,0,0,0,32,38.67H26.29v5.2Zm.15,8.83A3.23,3.23,0,0,0,34.46,52a2.68,2.68,0,0,0,.81-2.08,2.82,2.82,0,0,0-.78-2,3,3,0,0,0-2.31-.83H26.29V52.7Z" fill="#fff"/><path d="M46.24,56.24a3.77,3.77,0,0,1-2.83-1,3.87,3.87,0,0,1-1-2.84V35.5h3.21V51.63A2.14,2.14,0,0,0,46,52.9a1.2,1.2,0,0,0,1.05.5,2.24,2.24,0,0,0,.86-.17,1.57,1.57,0,0,0,.58-.38l.76,2.44A3.45,3.45,0,0,1,48.1,56,5.46,5.46,0,0,1,46.24,56.24Z" fill="#fff"/><path d="M61.58,55.88v-2a6.42,6.42,0,0,1-2.07,1.74,5.55,5.55,0,0,1-2.67.64,6.44,6.44,0,0,1-2.61-.52,5.5,5.5,0,0,1-2.08-1.53,7.29,7.29,0,0,1-1.36-2.44,10,10,0,0,1-.49-3.27,9.83,9.83,0,0,1,.49-3.21,7.39,7.39,0,0,1,1.36-2.44,5.84,5.84,0,0,1,2.06-1.54,6.31,6.31,0,0,1,2.63-.54,5.91,5.91,0,0,1,2.63.61,6.1,6.1,0,0,1,2.11,1.8v-2h3.2V55.88ZM57.79,53.4a4.3,4.3,0,0,0,1.11-.15A4.79,4.79,0,0,0,60,52.82a5,5,0,0,0,.92-.63,3.65,3.65,0,0,0,.69-.78V45.58a4.9,4.9,0,0,0-.69-.77,5.57,5.57,0,0,0-.92-.64,4.77,4.77,0,0,0-1.07-.42,3.92,3.92,0,0,0-1.11-.16,3.84,3.84,0,0,0-1.74.37,4,4,0,0,0-1.32,1,4.49,4.49,0,0,0-.84,1.54,6.84,6.84,0,0,0,0,3.94A4.68,4.68,0,0,0,54.73,52a3.88,3.88,0,0,0,3.06,1.39Z" fill="#fff"/><path d="M75.66,56.24a7.85,7.85,0,0,1-3.07-.58A7.16,7.16,0,0,1,70.19,54a7.46,7.46,0,0,1-1.57-2.46,8.22,8.22,0,0,1-.57-3.1,8.08,8.08,0,0,1,.57-3.08A7.52,7.52,0,0,1,70.19,43a7.16,7.16,0,0,1,2.4-1.62,7.85,7.85,0,0,1,3.07-.58,8.44,8.44,0,0,1,2,.21,6.84,6.84,0,0,1,1.56.59,5.65,5.65,0,0,1,1.21.84,7,7,0,0,1,.91,1l-2.1,1.92a4,4,0,0,0-3.4-1.71A4.15,4.15,0,0,0,72.58,45a5.08,5.08,0,0,0-1.23,3.53,5.94,5.94,0,0,0,.32,2A4.67,4.67,0,0,0,72.59,52,4.18,4.18,0,0,0,74,53a4.25,4.25,0,0,0,1.81.37,4,4,0,0,0,3.4-1.77l2.1,2a7.31,7.31,0,0,1-2.13,1.84A6.87,6.87,0,0,1,75.66,56.24Z" fill="#fff"/><path d="M93.93,55.88l-4.49-6.12L87.36,51.9v4h-3.2V35.5h3.2V48.24l6.51-7.12h4l-6.11,6.69L98,55.88Z" fill="#fff"/><path d="M108.23,55.88V35.5h14v3.17H111.81v5.2H122v3.18H111.81v8.83Z" fill="#fff"/><path d="M125.34,55.88V41.12h3.21v2.14a7.2,7.2,0,0,1,2.11-1.79,5.29,5.29,0,0,1,2.69-.72v3.18a4.81,4.81,0,0,0-1-.09,4.13,4.13,0,0,0-1.08.15,4.93,4.93,0,0,0-1.1.43,4.66,4.66,0,0,0-1,.64,3.33,3.33,0,0,0-.67.76V55.88Z" fill="#fff"/><path d="M137.56,39.31a2,2,0,0,1-2-2,2,2,0,0,1,2-2,2,2,0,0,1,1.41.58,1.92,1.92,0,0,1,.58,1.41,1.88,1.88,0,0,1-.58,1.4A1.92,1.92,0,0,1,137.56,39.31Zm-1.62,16.57V41.12h3.21V55.88Z" fill="#fff"/><path d="M153.7,55.88v-2a6.53,6.53,0,0,1-2.07,1.74,5.55,5.55,0,0,1-2.67.64,6.44,6.44,0,0,1-2.61-.52,5.5,5.5,0,0,1-2.08-1.53,7.29,7.29,0,0,1-1.36-2.44,10,10,0,0,1-.49-3.27,9.83,9.83,0,0,1,.49-3.21,7.39,7.39,0,0,1,1.36-2.44,5.84,5.84,0,0,1,2.06-1.54,6.31,6.31,0,0,1,2.63-.54,5.91,5.91,0,0,1,2.63.61,6,6,0,0,1,2.11,1.8V35.5h3.2V55.88Zm-3.79-2.48a4.3,4.3,0,0,0,1.11-.15,4.79,4.79,0,0,0,1.07-.43,5,5,0,0,0,.92-.63,3.65,3.65,0,0,0,.69-.78V45.58a4.9,4.9,0,0,0-.69-.77,5.57,5.57,0,0,0-.92-.64,4.77,4.77,0,0,0-1.07-.42,3.92,3.92,0,0,0-1.11-.16,3.87,3.87,0,0,0-1.74.37,4,4,0,0,0-1.32,1,4.66,4.66,0,0,0-.84,1.54,6.84,6.84,0,0,0,0,3.94,4.87,4.87,0,0,0,.84,1.56,3.88,3.88,0,0,0,3.06,1.39Z" fill="#fff"/><path d="M171.45,55.88v-2a6.49,6.49,0,0,1-2.06,1.74,5.61,5.61,0,0,1-2.68.64,6.47,6.47,0,0,1-2.61-.52A5.5,5.5,0,0,1,162,54.19a7.29,7.29,0,0,1-1.36-2.44,10.31,10.31,0,0,1-.49-3.27,10.11,10.11,0,0,1,.49-3.21A7.39,7.39,0,0,1,162,42.83a5.84,5.84,0,0,1,2.06-1.54,6.31,6.31,0,0,1,2.63-.54,5.78,5.78,0,0,1,4.74,2.41v-2h3.21V55.88Zm-3.79-2.48a4.37,4.37,0,0,0,1.12-.15,4.91,4.91,0,0,0,1.06-.43,4.67,4.67,0,0,0,.92-.63,3.17,3.17,0,0,0,.69-.78V45.58a4.07,4.07,0,0,0-.69-.77,5.18,5.18,0,0,0-.92-.64,4.88,4.88,0,0,0-1.06-.42,4,4,0,0,0-1.12-.16,3.9,3.9,0,0,0-1.74.37,4,4,0,0,0-1.32,1,4.66,4.66,0,0,0-.84,1.54,6.84,6.84,0,0,0,0,3.94A4.87,4.87,0,0,0,164.6,52a3.85,3.85,0,0,0,1.32,1A3.9,3.9,0,0,0,167.66,53.4Z" fill="#fff"/><path d="M184.62,61.86a9.33,9.33,0,0,1-3.3-.53,7.93,7.93,0,0,1-2.66-1.67l1.5-2.32a4.45,4.45,0,0,0,2,1.45,7,7,0,0,0,2.48.45,4.19,4.19,0,0,0,3-1.06,4,4,0,0,0,1.1-3V53.43A7.76,7.76,0,0,1,186.65,55a6.47,6.47,0,0,1-3.07.71,4.85,4.85,0,0,1-3.58-1.2,4.76,4.76,0,0,1-1.19-3.47v-10H182v8.77a2.88,2.88,0,0,0,.81,2.36,3.36,3.36,0,0,0,2.18.66,4.28,4.28,0,0,0,2.22-.59A5.25,5.25,0,0,0,188.77,51V41.12H192v14a7.24,7.24,0,0,1-.55,2.92,5.69,5.69,0,0,1-1.54,2.11,6.78,6.78,0,0,1-2.34,1.27A9.79,9.79,0,0,1,184.62,61.86Z" fill="#fff"/><path d="M214.41,55.88v-2a6.49,6.49,0,0,1-2.06,1.74,5.61,5.61,0,0,1-2.68.64,6.44,6.44,0,0,1-2.61-.52A5.5,5.5,0,0,1,205,54.19a7.29,7.29,0,0,1-1.36-2.44,10.31,10.31,0,0,1-.49-3.27,10.11,10.11,0,0,1,.49-3.21A7.39,7.39,0,0,1,205,42.83,5.84,5.84,0,0,1,207,41.29a6.31,6.31,0,0,1,2.63-.54,5.91,5.91,0,0,1,2.63.61,6,6,0,0,1,2.11,1.8V35.5h3.21V55.88Zm-3.79-2.48a4.24,4.24,0,0,0,1.11-.15,4.79,4.79,0,0,0,1.07-.43,4.67,4.67,0,0,0,.92-.63,3.39,3.39,0,0,0,.69-.78V45.58a4.44,4.44,0,0,0-.69-.77,5.18,5.18,0,0,0-.92-.64,4.77,4.77,0,0,0-1.07-.42,4.14,4.14,0,0,0-2.85.21,4,4,0,0,0-1.32,1,4.66,4.66,0,0,0-.84,1.54,6.84,6.84,0,0,0,0,3.94,4.87,4.87,0,0,0,.84,1.56,3.85,3.85,0,0,0,1.32,1A3.9,3.9,0,0,0,210.62,53.4Z" fill="#fff"/><path d="M228.62,56.24a8.51,8.51,0,0,1-3.11-.55,6.92,6.92,0,0,1-2.44-1.57,7.18,7.18,0,0,1-1.6-2.46,8.69,8.69,0,0,1,0-6.19,7.33,7.33,0,0,1,6.94-4.72,7.31,7.31,0,0,1,3,.6A6.55,6.55,0,0,1,233.66,43a7.56,7.56,0,0,1,1.45,2.54,10,10,0,0,1,.5,3.21v.79H224.25a4.9,4.9,0,0,0,.44,1.56,4.31,4.31,0,0,0,.95,1.3,4.26,4.26,0,0,0,1.42.88,5,5,0,0,0,1.86.32,6.62,6.62,0,0,0,2.26-.42,5.37,5.37,0,0,0,2-1.23l1.46,2.11a7.3,7.3,0,0,1-2.68,1.62A9.77,9.77,0,0,1,228.62,56.24Zm3.91-9a4.43,4.43,0,0,0-.29-1.33,4,4,0,0,0-.77-1.25,3.8,3.8,0,0,0-1.27-.93,4.2,4.2,0,0,0-1.86-.37,4.27,4.27,0,0,0-1.77.35,3.75,3.75,0,0,0-1.27.92,4,4,0,0,0-.78,1.25,4.22,4.22,0,0,0-.3,1.36Z" fill="#fff"/><path d="M249.18,55.88v-2a6.49,6.49,0,0,1-2.06,1.74,5.61,5.61,0,0,1-2.68.64,6.44,6.44,0,0,1-2.61-.52,5.5,5.5,0,0,1-2.08-1.53,7.29,7.29,0,0,1-1.36-2.44,10.31,10.31,0,0,1-.49-3.27,10.11,10.11,0,0,1,.49-3.21,7.39,7.39,0,0,1,1.36-2.44,5.84,5.84,0,0,1,2.06-1.54,6.31,6.31,0,0,1,2.63-.54,5.91,5.91,0,0,1,2.63.61,6,6,0,0,1,2.11,1.8v-2h3.21V55.88Zm-3.79-2.48a4.24,4.24,0,0,0,1.11-.15,4.79,4.79,0,0,0,1.07-.43,4.67,4.67,0,0,0,.92-.63,3.17,3.17,0,0,0,.69-.78V45.58a4.07,4.07,0,0,0-.69-.77,5.18,5.18,0,0,0-.92-.64,4.77,4.77,0,0,0-1.07-.42,4.14,4.14,0,0,0-2.85.21,4,4,0,0,0-1.32,1,4.66,4.66,0,0,0-.84,1.54,6.84,6.84,0,0,0,0,3.94,4.87,4.87,0,0,0,.84,1.56,3.85,3.85,0,0,0,1.32,1A3.9,3.9,0,0,0,245.39,53.4Z" fill="#fff"/><path d="M260.33,56.24a3.79,3.79,0,0,1-2.83-1,3.87,3.87,0,0,1-1-2.84V35.5h3.21V51.63a2.21,2.21,0,0,0,.35,1.27,1.22,1.22,0,0,0,1.06.5,2.19,2.19,0,0,0,.85-.17,1.49,1.49,0,0,0,.58-.38l.77,2.44a3.61,3.61,0,0,1-1.17.68A5.42,5.42,0,0,1,260.33,56.24Z" fill="#fff"/><path d="M270.35,56.24a10.35,10.35,0,0,1-3.54-.59A7.84,7.84,0,0,1,264,53.92l1.46-2.29a6.32,6.32,0,0,0,.95.76,7.07,7.07,0,0,0,1.22.66,8.39,8.39,0,0,0,1.39.46,6.33,6.33,0,0,0,1.42.17,3.68,3.68,0,0,0,2.2-.54,1.68,1.68,0,0,0,.74-1.42,1.18,1.18,0,0,0-.66-1.1A6.81,6.81,0,0,0,271.1,50c-.66-.16-1.38-.33-2.15-.49a9.15,9.15,0,0,1-2.16-.73,4.87,4.87,0,0,1-1.65-1.32,3.51,3.51,0,0,1-.65-2.26,3.9,3.9,0,0,1,.38-1.72A4.11,4.11,0,0,1,266,42.06a5.71,5.71,0,0,1,1.82-1,8.18,8.18,0,0,1,2.49-.35,8.71,8.71,0,0,1,3.32.58A8.19,8.19,0,0,1,276,42.8l-1.34,2.26a5.37,5.37,0,0,0-1.82-1.25,6,6,0,0,0-2.55-.52,3.35,3.35,0,0,0-2,.52,1.55,1.55,0,0,0-.72,1.31,1.06,1.06,0,0,0,.66,1,7.37,7.37,0,0,0,1.65.56l2.15.49a9.37,9.37,0,0,1,2.16.77,4.67,4.67,0,0,1,1.65,1.37,3.84,3.84,0,0,1,.65,2.34,4.36,4.36,0,0,1-.39,1.83,4.07,4.07,0,0,1-1.18,1.47,5.76,5.76,0,0,1-1.92,1A9.25,9.25,0,0,1,270.35,56.24Z" fill="#fff"/><path d="M34.18,95A17.6,17.6,0,0,1,27,93.62a15.29,15.29,0,0,1-5-3.43l3-4.09A14.28,14.28,0,0,0,28.86,89a11.77,11.77,0,0,0,5.55,1.26,9.33,9.33,0,0,0,2.76-.36A5.38,5.38,0,0,0,39,89a3.71,3.71,0,0,0,1-1.33,3.64,3.64,0,0,0,.34-1.5,2.69,2.69,0,0,0-1.28-2.4,12.47,12.47,0,0,0-3.23-1.42c-1.31-.39-2.71-.76-4.2-1.12a20.64,20.64,0,0,1-4.2-1.48,9,9,0,0,1-3.23-2.58A6.91,6.91,0,0,1,23,72.77a7.79,7.79,0,0,1,.78-3.48,8.8,8.8,0,0,1,2.2-2.79,10.4,10.4,0,0,1,3.44-1.86A14.07,14.07,0,0,1,33.87,64a17,17,0,0,1,6.3,1.1,14.37,14.37,0,0,1,4.88,3.12l-3,3.9A11.07,11.07,0,0,0,38,69.47a13.26,13.26,0,0,0-4.65-.83,6,6,0,0,0-3.66,1,3.23,3.23,0,0,0-1.37,2.69,2.4,2.4,0,0,0,1.28,2.16,13.22,13.22,0,0,0,3.24,1.3c1.3.36,2.7.73,4.19,1.1a19.67,19.67,0,0,1,4.2,1.57,9.57,9.57,0,0,1,3.24,2.7,7.2,7.2,0,0,1,1.28,4.46,9.49,9.49,0,0,1-.68,3.57,7.9,7.9,0,0,1-2.09,3,10.19,10.19,0,0,1-3.61,2A16.49,16.49,0,0,1,34.18,95Z" fill="#fff"/><path d="M57.71,94.41V69.13H48.64V64.46H72v4.67H63V94.41Z" fill="#fff"/><path d="M94.57,94.41l-2.2-5.79H78.63l-2.2,5.79h-6L82.22,64.46h6.56l11.76,30ZM85.5,69.67,80.11,84H90.89Z" fill="#fff"/><path d="M120.88,94.41l-6.6-11.18H109V94.41h-5.25V64.46h13.15a11.46,11.46,0,0,1,4,.68,8.86,8.86,0,0,1,3.12,1.92,8.64,8.64,0,0,1,2,3,10.14,10.14,0,0,1,.69,3.79,9.75,9.75,0,0,1-.6,3.53,8.84,8.84,0,0,1-1.6,2.65,7.67,7.67,0,0,1-2.29,1.75,9.36,9.36,0,0,1-2.65.87L127,94.41Zm-4.62-15.85a5.31,5.31,0,0,0,3.68-1.29,4.43,4.43,0,0,0,1.44-3.47,4.3,4.3,0,0,0-1.44-3.4,5.35,5.35,0,0,0-3.68-1.27H109v9.43Z" fill="#fff"/><path d="M139.16,94.41V69.13h-9.07V64.46h23.39v4.67h-9.07V94.41Z" fill="#fff"/><path d="M190.39,94.41,174.76,73V94.41h-5.25V64.46h5.39l15.31,20.75V64.46h5.25v30Z" fill="#fff"/><path d="M215.84,95a15.88,15.88,0,0,1-6.17-1.17,14.62,14.62,0,0,1-4.85-3.23,14.36,14.36,0,0,1-3.16-4.9,17.55,17.55,0,0,1,0-12.39,14.32,14.32,0,0,1,8-8.12,16.88,16.88,0,0,1,12.35,0,14.14,14.14,0,0,1,4.82,3.23A14.9,14.9,0,0,1,230,73.26a17.26,17.26,0,0,1,0,12.39,14.84,14.84,0,0,1-3.17,4.9A14.29,14.29,0,0,1,222,93.78,15.9,15.9,0,0,1,215.84,95Zm0-4.67a9.9,9.9,0,0,0,4.09-.83,9.45,9.45,0,0,0,3.14-2.27,9.82,9.82,0,0,0,2-3.43,12.87,12.87,0,0,0,.7-4.29,12.73,12.73,0,0,0-.7-4.31,9.73,9.73,0,0,0-2-3.41,9.31,9.31,0,0,0-3.14-2.27,10.52,10.52,0,0,0-8.19,0,9.23,9.23,0,0,0-3.12,2.27,9.73,9.73,0,0,0-2,3.41,12.73,12.73,0,0,0-.7,4.31,12.87,12.87,0,0,0,.7,4.29,9.82,9.82,0,0,0,2,3.43,9.37,9.37,0,0,0,3.12,2.27A9.81,9.81,0,0,0,215.84,90.28Z" fill="#fff"/><path d="M258.18,94.41l-5.79-22.14-5.83,22.14h-5.62l-8.53-29.95h5.84l5.84,23,6.19-23h4.18l6.19,23,5.84-23h5.88l-8.57,30Z" fill="#fff"/></g></g><g id="REC"><rect width="300" height="600" fill="none"/></g></g></svg>