<svg xmlns="http://www.w3.org/2000/svg" viewBox="0 0 300 600"><g id="Layer_2" data-name="Layer 2"><g id="REC"><rect width="300" height="600" fill="none"/></g><g id="sbhd"><path d="M27.12,136.26a9.16,9.16,0,0,1-3.68-.67,8.13,8.13,0,0,1-2.57-1.76l1.52-2.1a7.23,7.23,0,0,0,2,1.5,6,6,0,0,0,2.84.64,4.83,4.83,0,0,0,1.41-.18,2.91,2.91,0,0,0,1-.48,2,2,0,0,0,.52-.68,1.8,1.8,0,0,0,.18-.77,1.37,1.37,0,0,0-.66-1.23A6.34,6.34,0,0,0,28,129.8q-1-.3-2.16-.57a11.39,11.39,0,0,1-2.15-.76A4.75,4.75,0,0,1,22,127.15a3.54,3.54,0,0,1-.66-2.25,4,4,0,0,1,.41-1.78,4.39,4.39,0,0,1,1.12-1.43,5.49,5.49,0,0,1,1.76-1,7.26,7.26,0,0,1,2.3-.35,8.65,8.65,0,0,1,3.23.57,7.34,7.34,0,0,1,2.5,1.6l-1.52,2a5.7,5.7,0,0,0-2.08-1.35,6.94,6.94,0,0,0-2.38-.42,3,3,0,0,0-1.88.53,1.66,1.66,0,0,0-.7,1.38,1.22,1.22,0,0,0,.66,1.1,7.15,7.15,0,0,0,1.65.67l2.16.56a10.23,10.23,0,0,1,2.15.8,5,5,0,0,1,1.65,1.38,3.68,3.68,0,0,1,.66,2.29,4.85,4.85,0,0,1-.35,1.83,4,4,0,0,1-1.07,1.52,5.07,5.07,0,0,1-1.85,1A8.19,8.19,0,0,1,27.12,136.26Z" fill="#e52823"/><path d="M40.6,136.26a6.31,6.31,0,0,1-2.33-.41,5.24,5.24,0,0,1-1.84-1.18,5.4,5.4,0,0,1-1.21-1.86,6.32,6.32,0,0,1-.44-2.39,6.09,6.09,0,0,1,.42-2.26,5.33,5.33,0,0,1,1.16-1.85,5.51,5.51,0,0,1,1.78-1.25,5.66,5.66,0,0,1,2.28-.46,5.45,5.45,0,0,1,2.25.45,5,5,0,0,1,1.73,1.26,5.56,5.56,0,0,1,1.09,1.9,7.53,7.53,0,0,1,.38,2.42v.6H37.31a3.66,3.66,0,0,0,.34,1.17A3.17,3.17,0,0,0,39.43,134a3.64,3.64,0,0,0,1.4.25,4.79,4.79,0,0,0,1.7-.33A3.91,3.91,0,0,0,44,133l1.1,1.59a5.67,5.67,0,0,1-2,1.22A7.35,7.35,0,0,1,40.6,136.26Zm2.95-6.76a3.47,3.47,0,0,0-.22-1,3.07,3.07,0,0,0-.58-.94,3,3,0,0,0-1-.7,3.17,3.17,0,0,0-1.41-.28,3.1,3.1,0,0,0-1.33.27,2.68,2.68,0,0,0-1,.69,3,3,0,0,0-.59.94,3,3,0,0,0-.23,1Z" fill="#e52823"/><path d="M51.11,136.26a2.88,2.88,0,0,1-2.13-.73,3,3,0,0,1-.72-2.14V120.65h2.42v12.14a1.64,1.64,0,0,0,.26,1,.91.91,0,0,0,.79.38,1.75,1.75,0,0,0,.65-.13,1.15,1.15,0,0,0,.43-.29l.58,1.84a2.78,2.78,0,0,1-.87.51A4.05,4.05,0,0,1,51.11,136.26Z" fill="#e52823"/><path d="M60,136.26a6.31,6.31,0,0,1-2.33-.41,5.24,5.24,0,0,1-1.84-1.18,5.4,5.4,0,0,1-1.21-1.86,6.32,6.32,0,0,1-.44-2.39,6.09,6.09,0,0,1,.42-2.26,5.33,5.33,0,0,1,1.16-1.85,5.51,5.51,0,0,1,1.78-1.25,5.66,5.66,0,0,1,2.28-.46,5.48,5.48,0,0,1,2.25.45,5,5,0,0,1,1.73,1.26,5.73,5.73,0,0,1,1.09,1.9,7.53,7.53,0,0,1,.38,2.42v.6H56.7A3.66,3.66,0,0,0,57,132.4,3.17,3.17,0,0,0,58.82,134a3.64,3.64,0,0,0,1.4.25,4.79,4.79,0,0,0,1.7-.33,3.87,3.87,0,0,0,1.47-.92l1.11,1.59a5.62,5.62,0,0,1-2,1.22A7.29,7.29,0,0,1,60,136.26Zm2.94-6.76a3.14,3.14,0,0,0-.21-1,3.07,3.07,0,0,0-.58-.94,3,3,0,0,0-1-.7,3.17,3.17,0,0,0-1.41-.28,3.1,3.1,0,0,0-1.33.27,2.68,2.68,0,0,0-1,.69,3,3,0,0,0-.59.94,3,3,0,0,0-.23,1Z" fill="#e52823"/><path d="M72.71,136.26a6,6,0,0,1-2.31-.43,5.4,5.4,0,0,1-1.81-1.22,5.63,5.63,0,0,1-1.18-1.85,6.17,6.17,0,0,1-.43-2.34,6,6,0,0,1,.43-2.32,5.59,5.59,0,0,1,1.18-1.84A5.4,5.4,0,0,1,70.4,125a6,6,0,0,1,2.31-.44,6.58,6.58,0,0,1,1.48.16,5.46,5.46,0,0,1,1.18.44,5.13,5.13,0,0,1,.9.63,4.79,4.79,0,0,1,.69.75L75.38,128a3,3,0,0,0-2.56-1.29,3.08,3.08,0,0,0-2.43,1,3.77,3.77,0,0,0-.92,2.65,4.48,4.48,0,0,0,.24,1.49,3.42,3.42,0,0,0,.69,1.17,3.11,3.11,0,0,0,1.06.77,3.3,3.3,0,0,0,1.36.28,3,3,0,0,0,2.56-1.34l1.58,1.5a5.4,5.4,0,0,1-1.61,1.38A5.21,5.21,0,0,1,72.71,136.26Z" fill="#e52823"/><path d="M82.46,136.26a2.86,2.86,0,0,1-2.14-.73,3,3,0,0,1-.71-2.14V127H77.77v-2.09h1.84v-3H82v3h2.26V127H82v5.82a1.65,1.65,0,0,0,.27,1,.9.9,0,0,0,.79.38,1.61,1.61,0,0,0,.63-.13,1.15,1.15,0,0,0,.43-.29l.57,1.84a2.56,2.56,0,0,1-.87.51A4,4,0,0,1,82.46,136.26Z" fill="#e52823"/><path d="M97.16,136.26a7.92,7.92,0,0,1-3.52-.72,6.42,6.42,0,0,1-2.28-1.76L92.83,132a5.11,5.11,0,0,0,1.87,1.37,5.82,5.82,0,0,0,2.37.49,3.77,3.77,0,0,0,2.35-.64,2,2,0,0,0,.84-1.7,1.79,1.79,0,0,0-.87-1.67,5,5,0,0,0-2.53-.52h-1a7,7,0,0,0-.72,0v-2.46h1.75a6.13,6.13,0,0,0,1.26-.12,2.88,2.88,0,0,0,1-.36,1.94,1.94,0,0,0,.67-.63,1.63,1.63,0,0,0,.24-.9,1.79,1.79,0,0,0-.24-.93,1.84,1.84,0,0,0-.67-.66,3.2,3.2,0,0,0-1-.4,5.21,5.21,0,0,0-1.21-.14,5.36,5.36,0,0,0-4,1.7l-1.38-1.68a7,7,0,0,1,2.29-1.73,7.37,7.37,0,0,1,3.32-.68,8.25,8.25,0,0,1,2.25.28,5.61,5.61,0,0,1,1.74.82,3.77,3.77,0,0,1,1.13,1.29,3.55,3.55,0,0,1,.4,1.72,3.12,3.12,0,0,1-.3,1.39,3.48,3.48,0,0,1-.77,1,3.91,3.91,0,0,1-1.07.71,4.27,4.27,0,0,1-1.17.37,4.67,4.67,0,0,1,1.17.32,4.15,4.15,0,0,1,1.16.72,3.57,3.57,0,0,1,.89,1.13,3.32,3.32,0,0,1,.34,1.56,4,4,0,0,1-1.56,3.23,5.63,5.63,0,0,1-1.83.93A8.1,8.1,0,0,1,97.16,136.26Z" fill="#e52823"/><path d="M116.55,136.26a5.78,5.78,0,0,1-2.4-.47,5.37,5.37,0,0,1-1.79-1.26,5.55,5.55,0,0,1-1.13-1.85,6.51,6.51,0,0,1-.39-2.26,6.41,6.41,0,0,1,.39-2.25,5.45,5.45,0,0,1,1.13-1.85,5.37,5.37,0,0,1,1.79-1.26,6.46,6.46,0,0,1,4.79,0,5.37,5.37,0,0,1,1.79,1.26,5.45,5.45,0,0,1,1.13,1.85,6.41,6.41,0,0,1,.39,2.25,6.51,6.51,0,0,1-.39,2.26,5.55,5.55,0,0,1-1.13,1.85,5.37,5.37,0,0,1-1.79,1.26A5.73,5.73,0,0,1,116.55,136.26Zm0-2.13a2.92,2.92,0,0,0,2.38-1.11,3.77,3.77,0,0,0,.61-1.18,5.18,5.18,0,0,0,.2-1.42,4.93,4.93,0,0,0-.2-1.4,3.61,3.61,0,0,0-.61-1.17,2.92,2.92,0,0,0-2.38-1.11,3,3,0,0,0-2.37,1.11,3.13,3.13,0,0,0-.62,1.17,4.61,4.61,0,0,0-.21,1.4,4.83,4.83,0,0,0,.21,1.42,3.25,3.25,0,0,0,.62,1.18,3,3,0,0,0,2.37,1.11Z" fill="#e52823"/><path d="M124.23,136v-1.84L129.7,127h-5.47v-2.09h8.71v1.75l-5.56,7.24H133V136Z" fill="#e52823"/><path d="M136.92,136.24a1.52,1.52,0,0,1-1.13-.48,1.58,1.58,0,0,1-.48-1.15,1.53,1.53,0,0,1,.48-1.12,1.61,1.61,0,0,1,2.27,0,1.52,1.52,0,0,1,.47,1.12,1.57,1.57,0,0,1-.47,1.15A1.53,1.53,0,0,1,136.92,136.24Z" fill="#e52823"/><path d="M152.31,136.26a6,6,0,0,1-2.31-.43,5.4,5.4,0,0,1-1.81-1.22,5.63,5.63,0,0,1-1.18-1.85,6.37,6.37,0,0,1-.43-2.34,6.22,6.22,0,0,1,.43-2.32,5.59,5.59,0,0,1,1.18-1.84A5.4,5.4,0,0,1,150,125a6,6,0,0,1,2.31-.44,6.58,6.58,0,0,1,1.48.16,5.46,5.46,0,0,1,1.18.44,5.62,5.62,0,0,1,.91.63,6,6,0,0,1,.69.75L155,128a3,3,0,0,0-2.56-1.29,3.08,3.08,0,0,0-2.43,1,3.77,3.77,0,0,0-.92,2.65,4.48,4.48,0,0,0,.24,1.49,3.42,3.42,0,0,0,.69,1.17,3.11,3.11,0,0,0,1.06.77,3.3,3.3,0,0,0,1.36.28,3,3,0,0,0,2.56-1.34l1.59,1.5a5.66,5.66,0,0,1-1.61,1.38A5.28,5.28,0,0,1,152.31,136.26Z" fill="#e52823"/><path d="M166.52,136v-1.52a4.76,4.76,0,0,1-1.55,1.31,4.2,4.2,0,0,1-2,.48,5,5,0,0,1-2-.39,4.28,4.28,0,0,1-1.56-1.15,5.29,5.29,0,0,1-1-1.84,7.48,7.48,0,0,1-.37-2.46,7.3,7.3,0,0,1,.37-2.41,5.29,5.29,0,0,1,1-1.84A4.28,4.28,0,0,1,161,125a4.77,4.77,0,0,1,2-.41,4.5,4.5,0,0,1,2,.46,4.44,4.44,0,0,1,1.58,1.36v-1.54h2.42V136Zm-2.85-1.86a3,3,0,0,0,.84-.12,4,4,0,0,0,.81-.32,4.92,4.92,0,0,0,.69-.47,2.58,2.58,0,0,0,.51-.59v-4.39a3.37,3.37,0,0,0-.51-.58,4.24,4.24,0,0,0-.69-.48,3.5,3.5,0,0,0-.81-.32,3,3,0,0,0-.84-.12,2.9,2.9,0,0,0-1.31.28,3.05,3.05,0,0,0-1,.76,3.33,3.33,0,0,0-.63,1.16,4.69,4.69,0,0,0-.22,1.48,4.75,4.75,0,0,0,.22,1.49,3.47,3.47,0,0,0,.63,1.17,3,3,0,0,0,1,.77A3,3,0,0,0,163.67,134.13Z" fill="#e52823"/><path d="M175.42,136.26a2.82,2.82,0,0,1-2.13-.73,3,3,0,0,1-.72-2.14V127h-1.84v-2.09h1.84v-3H175v3h2.25V127H175v5.82a1.72,1.72,0,0,0,.26,1,.92.92,0,0,0,.8.38,1.61,1.61,0,0,0,.63-.13,1.19,1.19,0,0,0,.42-.29l.58,1.84a2.72,2.72,0,0,1-.88.51A3.87,3.87,0,0,1,175.42,136.26Z" fill="#e52823"/><path d="M185.94,136v-9h-1.85v-2.09h1.85v-.62a3.85,3.85,0,0,1,1-2.85,3.41,3.41,0,0,1,2.51-1,4.16,4.16,0,0,1,2,.41l-.53,1.82a1.75,1.75,0,0,0-1-.25,1.43,1.43,0,0,0-1.14.46,2.05,2.05,0,0,0-.4,1.4v.62h2.25V127h-2.25v9Z" fill="#e52823"/><path d="M197.48,136.26a5.7,5.7,0,0,1-2.39-.47,5.41,5.41,0,0,1-1.8-1.26,5.53,5.53,0,0,1-1.12-1.85,6.51,6.51,0,0,1-.39-2.26,6.41,6.41,0,0,1,.39-2.25,5.28,5.28,0,0,1,2.92-3.11,6.44,6.44,0,0,1,4.78,0,5.31,5.31,0,0,1,1.8,1.26,5.43,5.43,0,0,1,1.12,1.85,6.41,6.41,0,0,1,.4,2.25,6.51,6.51,0,0,1-.4,2.26,5.53,5.53,0,0,1-1.12,1.85,5.31,5.31,0,0,1-1.8,1.26A5.7,5.7,0,0,1,197.48,136.26Zm0-2.13a3,3,0,0,0,1.38-.3,2.93,2.93,0,0,0,1-.81,3.57,3.57,0,0,0,.61-1.18,4.83,4.83,0,0,0,.21-1.42,4.61,4.61,0,0,0-.21-1.4,3.43,3.43,0,0,0-.61-1.17,2.93,2.93,0,0,0-1-.81,3.28,3.28,0,0,0-2.74,0,3.17,3.17,0,0,0-1,.81,3.45,3.45,0,0,0-.62,1.17,4.61,4.61,0,0,0-.21,1.4,4.83,4.83,0,0,0,.21,1.42,3.59,3.59,0,0,0,.62,1.18,3.17,3.17,0,0,0,1,.81A3,3,0,0,0,197.48,134.13Z" fill="#e52823"/><path d="M210.68,136.26a5.73,5.73,0,0,1-2.39-.47,5.27,5.27,0,0,1-1.79-1.26,5.55,5.55,0,0,1-1.13-1.85,6.51,6.51,0,0,1-.39-2.26,6.41,6.41,0,0,1,.39-2.25,5.45,5.45,0,0,1,1.13-1.85,5.27,5.27,0,0,1,1.79-1.26,6.46,6.46,0,0,1,4.79,0,5.37,5.37,0,0,1,1.79,1.26,5.45,5.45,0,0,1,1.13,1.85,6.41,6.41,0,0,1,.39,2.25,6.51,6.51,0,0,1-.39,2.26,5.55,5.55,0,0,1-1.13,1.85,5.37,5.37,0,0,1-1.79,1.26A5.78,5.78,0,0,1,210.68,136.26Zm0-2.13a3,3,0,0,0,1.38-.3,2.93,2.93,0,0,0,1-.81,3.39,3.39,0,0,0,.61-1.18,4.83,4.83,0,0,0,.21-1.42,4.61,4.61,0,0,0-.21-1.4,3.26,3.26,0,0,0-.61-1.17,2.93,2.93,0,0,0-1-.81,3,3,0,0,0-1.38-.3,3,3,0,0,0-1.35.3,3.1,3.1,0,0,0-1,.81,3.45,3.45,0,0,0-.62,1.17,4.6,4.6,0,0,0-.2,1.4,4.83,4.83,0,0,0,.2,1.42,3.59,3.59,0,0,0,.62,1.18,3.1,3.1,0,0,0,1,.81A3,3,0,0,0,210.68,134.13Z" fill="#e52823"/><path d="M226.67,136v-1.52a4.86,4.86,0,0,1-1.55,1.31,4.27,4.27,0,0,1-2,.48,4.9,4.9,0,0,1-2-.39,4.24,4.24,0,0,1-1.57-1.15,5.29,5.29,0,0,1-1-1.84,7.48,7.48,0,0,1-.37-2.46,7.3,7.3,0,0,1,.37-2.41,5.29,5.29,0,0,1,1-1.84,4.36,4.36,0,0,1,1.55-1.16,4.77,4.77,0,0,1,2-.41,4.43,4.43,0,0,1,2,.46,4.56,4.56,0,0,1,1.59,1.36v-5.77h2.41V136Zm-2.85-1.86a3.15,3.15,0,0,0,.84-.12,3.71,3.71,0,0,0,.8-.32,4.92,4.92,0,0,0,.69-.47,2.63,2.63,0,0,0,.52-.59v-4.39a3.45,3.45,0,0,0-.52-.58,4.24,4.24,0,0,0-.69-.48,3.26,3.26,0,0,0-.8-.32,3.15,3.15,0,0,0-.84-.12,2.94,2.94,0,0,0-1.32.28,2.91,2.91,0,0,0-1,.76,3.34,3.34,0,0,0-.64,1.16,5,5,0,0,0-.22,1.48,5.06,5.06,0,0,0,.22,1.49,3.48,3.48,0,0,0,.64,1.17,2.82,2.82,0,0,0,1,.77A3.08,3.08,0,0,0,223.82,134.13Z" fill="#e52823"/><path d="M26.85,162.26a5.91,5.91,0,0,1-2.31-.43,5.4,5.4,0,0,1-1.81-1.22,5.48,5.48,0,0,1-1.18-1.85,6.17,6.17,0,0,1-.43-2.34,6,6,0,0,1,.43-2.32,5.4,5.4,0,0,1,3-3.06,5.91,5.91,0,0,1,2.31-.44,6.64,6.64,0,0,1,1.48.16,5.18,5.18,0,0,1,1.17.44,4.86,4.86,0,0,1,.91.63,6,6,0,0,1,.69.75L29.52,154A3,3,0,0,0,27,152.74a3.12,3.12,0,0,0-2.44,1,3.82,3.82,0,0,0-.92,2.65,4.24,4.24,0,0,0,.25,1.49,3.42,3.42,0,0,0,.69,1.17,3.07,3.07,0,0,0,1.05.77,3.39,3.39,0,0,0,1.37.28,3,3,0,0,0,2.56-1.34l1.58,1.5a5.52,5.52,0,0,1-1.61,1.38A5.21,5.21,0,0,1,26.85,162.26Z" fill="#e52823"/><path d="M41.06,162v-1.52a4.86,4.86,0,0,1-1.55,1.31,4.26,4.26,0,0,1-2,.48,4.91,4.91,0,0,1-2-.39A4.12,4.12,0,0,1,34,160.72a5.47,5.47,0,0,1-1-1.84,7.76,7.76,0,0,1-.37-2.46,7.57,7.57,0,0,1,.37-2.41,5.47,5.47,0,0,1,1-1.84A4.19,4.19,0,0,1,35.52,151a4.74,4.74,0,0,1,2-.41,4.34,4.34,0,0,1,3.56,1.82v-1.54h2.42V162Zm-2.85-1.86a3.15,3.15,0,0,0,.84-.12,3.71,3.71,0,0,0,.8-.32,4,4,0,0,0,.69-.47,2.63,2.63,0,0,0,.52-.59v-4.39a3.45,3.45,0,0,0-.52-.58,3.52,3.52,0,0,0-.69-.48,3.26,3.26,0,0,0-.8-.32,3.15,3.15,0,0,0-.84-.12,2.9,2.9,0,0,0-1.31.28,2.85,2.85,0,0,0-1,.76,3.17,3.17,0,0,0-.63,1.16,4.69,4.69,0,0,0-.22,1.48,4.75,4.75,0,0,0,.22,1.49,3.3,3.3,0,0,0,.63,1.17,2.77,2.77,0,0,0,1,.77A3,3,0,0,0,38.21,160.13Z" fill="#e52823"/><path d="M54.12,162v-7a2.24,2.24,0,0,0-.6-1.8,2.56,2.56,0,0,0-1.65-.5,3.2,3.2,0,0,0-1.67.46,4.62,4.62,0,0,0-1.18,1V162H46.6V150.88H49v1.49a5.34,5.34,0,0,1,.68-.64,4.84,4.84,0,0,1,.91-.57,5.23,5.23,0,0,1,1.09-.41A5,5,0,0,1,53,150.6a3.61,3.61,0,0,1,2.69.92,3.65,3.65,0,0,1,.9,2.65V162Z" fill="#e52823"/><path d="M63.49,162.26a7.87,7.87,0,0,1-2.67-.44,6,6,0,0,1-2.1-1.3l1.11-1.73a5.39,5.39,0,0,0,.71.58,5.71,5.71,0,0,0,.92.49,6.47,6.47,0,0,0,1,.35,4.88,4.88,0,0,0,1.07.12,2.77,2.77,0,0,0,1.65-.4,1.26,1.26,0,0,0,.56-1.07.9.9,0,0,0-.5-.83,5.48,5.48,0,0,0-1.24-.46l-1.62-.37a6.31,6.31,0,0,1-1.62-.55,3.48,3.48,0,0,1-1.25-1,2.65,2.65,0,0,1-.49-1.7,3,3,0,0,1,.29-1.3,3.16,3.16,0,0,1,.84-1.07,4,4,0,0,1,1.36-.72,6,6,0,0,1,1.88-.27,6.64,6.64,0,0,1,2.5.44,6.15,6.15,0,0,1,1.8,1.1l-1,1.71a4.11,4.11,0,0,0-1.37-.95,4.61,4.61,0,0,0-1.92-.39,2.56,2.56,0,0,0-1.51.39,1.18,1.18,0,0,0-.54,1,.81.81,0,0,0,.5.74,5.12,5.12,0,0,0,1.24.42l1.62.37a6.63,6.63,0,0,1,1.62.58,3.45,3.45,0,0,1,1.24,1,2.87,2.87,0,0,1,.5,1.76,3.23,3.23,0,0,1-.3,1.38,3.06,3.06,0,0,1-.89,1.11,4.62,4.62,0,0,1-1.44.72A6.71,6.71,0,0,1,63.49,162.26Z" fill="#e52823"/><path d="M81,162.24a6.43,6.43,0,0,1-2.54-.47,6,6,0,0,1-1.87-1.23l1.26-2a4.44,4.44,0,0,0,1.32,1,4.11,4.11,0,0,0,1.83.36,3.65,3.65,0,0,0,1.81-.44,3.76,3.76,0,0,0,1.26-1.15,5,5,0,0,0,.74-1.62,7.17,7.17,0,0,0,.24-1.85v-.22a1.8,1.8,0,0,0,0-.22,4,4,0,0,1-.68.77,5.22,5.22,0,0,1-1,.69,5.27,5.27,0,0,1-1.16.5,4.78,4.78,0,0,1-1.32.18,6.11,6.11,0,0,1-2-.31,4.78,4.78,0,0,1-1.63-.93,4.45,4.45,0,0,1-1.12-1.55,5.35,5.35,0,0,1-.41-2.15,5,5,0,0,1,1.54-3.65,5.35,5.35,0,0,1,1.78-1.1,6.46,6.46,0,0,1,2.34-.41,6.12,6.12,0,0,1,2.88.64,5.37,5.37,0,0,1,2,1.72,7.56,7.56,0,0,1,1.12,2.53,13,13,0,0,1,.35,3,10.7,10.7,0,0,1-.43,3.1,7.51,7.51,0,0,1-1.29,2.52,6.07,6.07,0,0,1-2.12,1.69A6.57,6.57,0,0,1,81,162.24Zm.65-8.05a3.79,3.79,0,0,0,1.87-.49A4.48,4.48,0,0,0,85,152.37a5.72,5.72,0,0,0-.27-1.25,3.85,3.85,0,0,0-.61-1.15,3.06,3.06,0,0,0-2.54-1.18,3.48,3.48,0,0,0-1.34.24,3.12,3.12,0,0,0-1,.62,2.5,2.5,0,0,0-.59.86,2.52,2.52,0,0,0-.2.94,2.72,2.72,0,0,0,.26,1.23,2.43,2.43,0,0,0,.69.86,3.06,3.06,0,0,0,1,.49A4.29,4.29,0,0,0,81.66,154.19Z" fill="#e52823"/><path d="M94.83,162.24a6.47,6.47,0,0,1-2.54-.47,6,6,0,0,1-1.87-1.23l1.26-2a4.35,4.35,0,0,0,1.33,1,4.07,4.07,0,0,0,1.82.36,3.62,3.62,0,0,0,1.81-.44,3.76,3.76,0,0,0,1.26-1.15,5,5,0,0,0,.74-1.62,7.17,7.17,0,0,0,.24-1.85v-.22a1.8,1.8,0,0,0,0-.22,4,4,0,0,1-.68.77,5.14,5.14,0,0,1-1,.69,5.36,5.36,0,0,1-1.17.5,4.78,4.78,0,0,1-1.32.18,6.05,6.05,0,0,1-2-.31,4.73,4.73,0,0,1-1.64-.93A4.3,4.3,0,0,1,90,153.7a5.19,5.19,0,0,1-.42-2.15,5,5,0,0,1,.41-2,4.81,4.81,0,0,1,1.13-1.65,5.3,5.3,0,0,1,1.79-1.1,6.36,6.36,0,0,1,2.33-.41,6.19,6.19,0,0,1,2.89.64,5.34,5.34,0,0,1,2,1.72,7.56,7.56,0,0,1,1.12,2.53,12.45,12.45,0,0,1,.36,3,10.7,10.7,0,0,1-.44,3.1,7.33,7.33,0,0,1-1.29,2.52,6.07,6.07,0,0,1-2.12,1.69A6.57,6.57,0,0,1,94.83,162.24Zm.65-8.05a3.76,3.76,0,0,0,1.87-.49,4.52,4.52,0,0,0,1.49-1.33,6.4,6.4,0,0,0-.28-1.25A3.85,3.85,0,0,0,98,150a3.27,3.27,0,0,0-1-.85,3.22,3.22,0,0,0-1.52-.33,3.48,3.48,0,0,0-1.34.24,3.12,3.12,0,0,0-1,.62,2.51,2.51,0,0,0-.78,1.8,2.73,2.73,0,0,0,.25,1.23,2.43,2.43,0,0,0,.69.86,3.06,3.06,0,0,0,1,.49A4.34,4.34,0,0,0,95.48,154.19Z" fill="#e52823"/><path d="M108.2,162.2a5.68,5.68,0,0,1-2-.66,5.31,5.31,0,0,1-1.49-1.25,5.69,5.69,0,0,1-1-1.74,6.34,6.34,0,0,1-.34-2.13,6.25,6.25,0,0,1,.34-2.1,5.69,5.69,0,0,1,1-1.74,5.31,5.31,0,0,1,1.49-1.25,5.68,5.68,0,0,1,2-.66V149H110v1.66a4.87,4.87,0,0,1,2.08.7,5.54,5.54,0,0,1,1.35,1.23L111.83,154a3.1,3.1,0,0,0-1.84-1.22v7.25a3,3,0,0,0,1.84-1.27l1.59,1.5a6.18,6.18,0,0,1-1.35,1.22,4.87,4.87,0,0,1-2.08.71v2.07H108.2Zm-2.28-5.78a4.1,4.1,0,0,0,.61,2.27A2.94,2.94,0,0,0,108.2,160V152.9a3.09,3.09,0,0,0-1.67,1.28A4,4,0,0,0,105.92,156.42Z" fill="#e52823"/><path d="M126.64,162.26a6.31,6.31,0,0,1-2.33-.41,5.24,5.24,0,0,1-1.84-1.18,5.4,5.4,0,0,1-1.21-1.86,6.32,6.32,0,0,1-.44-2.39,6.09,6.09,0,0,1,.42-2.26,5.33,5.33,0,0,1,1.16-1.85,5.51,5.51,0,0,1,1.78-1.25,5.66,5.66,0,0,1,2.28-.46,5.45,5.45,0,0,1,2.25.45,5,5,0,0,1,1.73,1.26,5.56,5.56,0,0,1,1.09,1.9,7.53,7.53,0,0,1,.38,2.42v.6h-8.56a3.66,3.66,0,0,0,.34,1.17,3.24,3.24,0,0,0,.71,1,3.32,3.32,0,0,0,1.07.66,3.64,3.64,0,0,0,1.4.25,4.79,4.79,0,0,0,1.7-.33,3.91,3.91,0,0,0,1.48-.92l1.1,1.59a5.67,5.67,0,0,1-2,1.22A7.35,7.35,0,0,1,126.64,162.26Zm3-6.76a3.47,3.47,0,0,0-.22-1,2.89,2.89,0,0,0-.58-.94,3,3,0,0,0-.95-.7,3.15,3.15,0,0,0-1.4-.28,3.11,3.11,0,0,0-1.34.27,2.68,2.68,0,0,0-.95.69,3,3,0,0,0-.59.94,3.19,3.19,0,0,0-.23,1Z" fill="#e52823"/><path d="M142.12,162v-1.52a4.86,4.86,0,0,1-1.55,1.31,4.26,4.26,0,0,1-2,.48,5,5,0,0,1-2-.39,4.12,4.12,0,0,1-1.56-1.15,5.47,5.47,0,0,1-1-1.84,7.76,7.76,0,0,1-.37-2.46A7.57,7.57,0,0,1,134,154a5.47,5.47,0,0,1,1-1.84,4.19,4.19,0,0,1,1.55-1.16,4.77,4.77,0,0,1,2-.41,4.34,4.34,0,0,1,3.56,1.82v-1.54h2.42V162Zm-2.85-1.86a3.1,3.1,0,0,0,.84-.12,3.71,3.71,0,0,0,.8-.32,4,4,0,0,0,.69-.47,2.63,2.63,0,0,0,.52-.59v-4.39a3.45,3.45,0,0,0-.52-.58,3.52,3.52,0,0,0-.69-.48,3.26,3.26,0,0,0-.8-.32,3.1,3.1,0,0,0-.84-.12A2.9,2.9,0,0,0,138,153a3,3,0,0,0-1,.76,3.17,3.17,0,0,0-.63,1.16,4.69,4.69,0,0,0-.22,1.48,4.75,4.75,0,0,0,.22,1.49,3.3,3.3,0,0,0,.63,1.17,2.85,2.85,0,0,0,1,.77A3,3,0,0,0,139.27,160.13Z" fill="#e52823"/><path d="M148.93,162.24a1.53,1.53,0,0,1-1.14-.48,1.61,1.61,0,0,1-.47-1.15,1.6,1.6,0,0,1,1.61-1.59,1.59,1.59,0,0,1,1.14.47,1.56,1.56,0,0,1,.47,1.12,1.61,1.61,0,0,1-.47,1.15A1.56,1.56,0,0,1,148.93,162.24Z" fill="#e52823"/></g></g></svg>