<svg xmlns="http://www.w3.org/2000/svg" viewBox="0 0 300.22 600"><title>end</title><g id="Layer_2" data-name="Layer 2"><g id="content"><rect x="0.22" width="300" height="600"/><path d="M0,600c1.28-91.93,67.13-154.26,150-154.26S300.21,514.8,300.21,600" fill="#e52823"/><path d="M44.28,235.6c18.72-5.71,28.17,8.62,28.17,8.62s-5.94-20-28.17-8.62" fill="#fff"/><path d="M80.46,236.34c0-.08,0-.6,0-.68a14,14,0,0,0-7.38,10.74s2.54-5.92,8.53-7.71a3.63,3.63,0,0,1-1.15-2.35" fill="#fff"/><path d="M56.59,244.7s-.05,2.82,0,4.25c-.71,0-3.82-.19-5.19-.24,0,.76,0,1.54,0,2.31,1.63,0,3.33.22,5,.21,0,1.37,0,2.55,0,3.92-1.63,0-3.27-.13-4.91-.16,0,.83,0,1.66,0,2.5,1.77,0,3.53.18,5.29.16,0-.06,0,4.17,0,4.17-3.49,0-7.61-.27-11.52-.6l.27-17.39c1.65.19,6.75.73,11.2.87" fill="#fff"/><path d="M58.07,244.74,58,249.28c1.64.08,3.11.08,3.11.08V262a40,40,0,0,0,6.28-.08l-.08-12.49s2.78-.13,3.21-.17c0-1.66,0-3-.06-4.64a111.23,111.23,0,0,1-12.39.15" fill="#fff"/><path d="M142,242c0,1.8,0,3.47,0,5.27,1.07.06,2.27.27,3.34.36,0,4.4-.11,7.73-.11,12.12,2.95.36,5.05.7,5.87.84,0-4.39.17-7.86.17-12.25,0,0,3.13.49,3.19.53,0-1.8,0-3.61,0-5.42A96.31,96.31,0,0,0,142,242" fill="#fff"/><path d="M37.72,242l-7.44-1.36-.05,18.26c1.91.37,3.65.69,5.51.89l0-5.27c.65.08,1.35.16,2,.22,3.23.3,6.48-.92,6.53-6.2,0-4.68-3.08-6-6.54-6.54m-1.38,8.41-.54-.06,0-3.58.52.06a1.82,1.82,0,0,1,1.82,1.91c0,1.48-.92,1.76-1.83,1.67" fill="#fff"/><path d="M99.88,259c.83-2.17,1.67-4.21,2.5-6.38.13,2.08.22,4,.35,6,2.08-.23,3.75-.35,5.84-.48-.54-5.54-1-11.48-1.55-17l-5.36.49c-1,2.62-2,5.8-3,8.42-1-2.42-1.94-5.27-2.91-7.69-1.81.26-5,.82-5.36.83-.62,5.65-1.33,11.93-1.95,17.58,1.42-.25,4.91-.8,6-.95.16-2.1.32-4.36.48-6.46l2.42,6,2.59-.4" fill="#fff"/><path d="M138.11,253.19c1.59-.72,2.74-2.26,2.78-5.32.06-4.61-3.2-6.58-6.5-6.83q-3.73-.3-7.49-.4c-.08,5.86-.11,11.22-.19,17.09,1.87,0,3.92.19,5.55.33,0-1.65.05-2.88.07-4.53,1.07,1.72,1.94,3.15,3,4.89,2.29.21,4.65.51,6.94.85-1.43-2.15-2.73-4-4.17-6.08m-5.17-3.76-.56,0c0-1.18,0-2.35.05-3.53l.53,0a1.75,1.75,0,0,1,1.82,1.85,1.51,1.51,0,0,1-1.84,1.67" fill="#fff"/><path d="M120.37,240.51c-2.22,0-4,0-5.93.12-1.52,5.69-3.32,11.77-4.85,17.48,1.7,0,3.42-.15,5.11-.15l.5-1.9,2.59-.07c-.06,0,2.28-.07,2.28-.07.07.22.28.82.58,1.82,1.69,0,3.39,0,5.09,0-1.84-6-3.69-11.81-5.37-17.27m-4.07,11.54c.38-1.45.78-3,1.17-4.44.44,1.46.88,2.92,1.33,4.38-2.55.09-2.56.06-2.5.06" fill="#fff"/><path d="M152.45,258.94a.94.94,0,0,1,0,1.87.94.94,0,0,1,0-1.87Zm0,.15a.79.79,0,0,0,0,1.57.75.75,0,0,0,.75-.78.76.76,0,0,0-.75-.79Zm-.18,1.32h-.16v-1a1.17,1.17,0,0,1,.29,0,.55.55,0,0,1,.33.08.23.23,0,0,1,.09.21.27.27,0,0,1-.2.26h0c.09,0,.15.1.17.25a.77.77,0,0,0,.07.25h-.18a.78.78,0,0,1-.07-.26.19.19,0,0,0-.22-.18h-.12Zm0-.57h.12c.14,0,.26,0,.26-.18s-.07-.18-.26-.18h-.12Z" fill="#fff"/><path d="M72.45,260.35a15.28,15.28,0,0,0,6.9,1.75c3.9,0,8-2.34,8.06-6.7.06-3.11-1.91-4.59-4.67-5.21l-1.48-.33c-.5-.12-1.31-.22-1.3-.9s.86-1,1.43-1a10.26,10.26,0,0,1,4,.84q.84-2.21,1.66-4.39a13.06,13.06,0,0,0-5.68-1.36c-3.92,0-7.86,2.38-7.95,6.72-.06,2.87,2.06,4.44,4.61,4.91l1.31.25c.6.12,1.45.19,1.44,1s-1,.92-1.68.92a7.79,7.79,0,0,1-4.47-1.48c-.68,1.52-1.48,3.41-2.16,4.93" fill="#fff"/><path d="M86.56,230.63a4.39,4.39,0,1,0,4.33,4.44,4.39,4.39,0,0,0-4.33-4.44m1.59,1.62A5.26,5.26,0,0,0,83.44,235a.17.17,0,0,0,0,.07,3.07,3.07,0,0,1,3.75-3.35,2.7,2.7,0,0,1,1,.55l-.06,0" fill="#fff"/><g id="Layer_5" data-name="Layer 5"><path d="M22.93,55.88V35.5H33a6.84,6.84,0,0,1,2.49.41A5.17,5.17,0,0,1,37.26,37a4.78,4.78,0,0,1,1.12,1.65,5.4,5.4,0,0,1,.38,2,5.12,5.12,0,0,1-.29,1.74,4.58,4.58,0,0,1-1.91,2.38,4.42,4.42,0,0,1-1.34.55,4.09,4.09,0,0,1,1.54.56A4.93,4.93,0,0,1,38,47a5.17,5.17,0,0,1,.84,1.53,5.09,5.09,0,0,1,.31,1.78,6.06,6.06,0,0,1-.39,2.2,4.88,4.88,0,0,1-1.13,1.76,5,5,0,0,1-1.86,1.16,7.18,7.18,0,0,1-2.55.42Zm9.32-12a2.85,2.85,0,0,0,2.11-.73,2.49,2.49,0,0,0,.73-1.87,2.55,2.55,0,0,0-.73-1.86,2.85,2.85,0,0,0-2.11-.74H26.51v5.2Zm.15,8.83A3.23,3.23,0,0,0,34.68,52a2.68,2.68,0,0,0,.81-2.08,2.82,2.82,0,0,0-.78-2,3,3,0,0,0-2.31-.83H26.51V52.7Z" fill="#fff"/><path d="M46.46,56.24a3.77,3.77,0,0,1-2.83-1,3.87,3.87,0,0,1-1-2.84V35.5h3.21V51.63a2.21,2.21,0,0,0,.35,1.27,1.2,1.2,0,0,0,1.05.5,2.2,2.2,0,0,0,.86-.17,1.57,1.57,0,0,0,.58-.38l.76,2.44a3.45,3.45,0,0,1-1.16.68A5.46,5.46,0,0,1,46.46,56.24Z" fill="#fff"/><path d="M61.8,55.88v-2a6.42,6.42,0,0,1-2.07,1.74,5.55,5.55,0,0,1-2.67.64,6.44,6.44,0,0,1-2.61-.52,5.5,5.5,0,0,1-2.08-1.53A7.29,7.29,0,0,1,51,51.75a10.31,10.31,0,0,1-.49-3.27A10.11,10.11,0,0,1,51,45.27a7.39,7.39,0,0,1,1.36-2.44,5.84,5.84,0,0,1,2.06-1.54,6.31,6.31,0,0,1,2.63-.54,5.91,5.91,0,0,1,2.63.61,6,6,0,0,1,2.11,1.8v-2H65V55.88ZM58,53.4a4.24,4.24,0,0,0,1.11-.15,4.79,4.79,0,0,0,1.07-.43,5,5,0,0,0,.92-.63,3.39,3.39,0,0,0,.69-.78V45.58a4.44,4.44,0,0,0-.69-.77,5.57,5.57,0,0,0-.92-.64,4.77,4.77,0,0,0-1.07-.42,4.14,4.14,0,0,0-2.85.21A4,4,0,0,0,55,45a4.66,4.66,0,0,0-.84,1.54,6.84,6.84,0,0,0,0,3.94A4.87,4.87,0,0,0,55,52a3.85,3.85,0,0,0,1.32,1A3.9,3.9,0,0,0,58,53.4Z" fill="#fff"/><path d="M75.88,56.24a7.85,7.85,0,0,1-3.07-.58A7.37,7.37,0,0,1,70.41,54a7.46,7.46,0,0,1-1.57-2.46,8.22,8.22,0,0,1-.57-3.1,8.08,8.08,0,0,1,.57-3.08A7.52,7.52,0,0,1,70.41,43a7.37,7.37,0,0,1,2.4-1.62,7.85,7.85,0,0,1,3.07-.58,8.38,8.38,0,0,1,2,.21,6.84,6.84,0,0,1,1.56.59,5.65,5.65,0,0,1,1.21.84,7.11,7.11,0,0,1,.92,1L79.43,45.3A4,4,0,0,0,76,43.59,4.15,4.15,0,0,0,72.8,45a5.08,5.08,0,0,0-1.23,3.53,5.94,5.94,0,0,0,.32,2A4.67,4.67,0,0,0,72.81,52a4.18,4.18,0,0,0,1.41,1A4.26,4.26,0,0,0,76,53.4a4,4,0,0,0,3.39-1.77l2.11,2a7.36,7.36,0,0,1-2.14,1.84A6.87,6.87,0,0,1,75.88,56.24Z" fill="#fff"/><path d="M94.15,55.88l-4.49-6.12L87.58,51.9v4h-3.2V35.5h3.2V48.24l6.51-7.12h4L92,47.81l6.24,8.07Z" fill="#fff"/><path d="M108.45,55.88V35.5h14v3.17H112v5.2H122.2v3.18H112v8.83Z" fill="#fff"/><path d="M125.56,55.88V41.12h3.21v2.14a7.2,7.2,0,0,1,2.11-1.79,5.32,5.32,0,0,1,2.69-.72v3.18a4.81,4.81,0,0,0-1-.09,4.13,4.13,0,0,0-1.08.15,4.93,4.93,0,0,0-1.1.43,4.66,4.66,0,0,0-1,.64,3.33,3.33,0,0,0-.67.76V55.88Z" fill="#fff"/><path d="M137.79,39.31a1.9,1.9,0,0,1-1.41-.58,1.88,1.88,0,0,1-.58-1.4,1.92,1.92,0,0,1,.58-1.41,2,2,0,0,1,2.81,0,1.92,1.92,0,0,1,.58,1.41,1.88,1.88,0,0,1-.58,1.4A1.91,1.91,0,0,1,137.79,39.31Zm-1.62,16.57V41.12h3.2V55.88Z" fill="#fff"/><path d="M153.92,55.88v-2a6.49,6.49,0,0,1-2.06,1.74,5.61,5.61,0,0,1-2.68.64,6.44,6.44,0,0,1-2.61-.52,5.5,5.5,0,0,1-2.08-1.53,7.29,7.29,0,0,1-1.36-2.44,10.31,10.31,0,0,1-.49-3.27,10.11,10.11,0,0,1,.49-3.21,7.39,7.39,0,0,1,1.36-2.44,5.84,5.84,0,0,1,2.06-1.54,6.31,6.31,0,0,1,2.63-.54,5.91,5.91,0,0,1,2.63.61,6,6,0,0,1,2.11,1.8V35.5h3.21V55.88Zm-3.79-2.48a4.3,4.3,0,0,0,1.11-.15,4.79,4.79,0,0,0,1.07-.43,4.67,4.67,0,0,0,.92-.63,3.65,3.65,0,0,0,.69-.78V45.58a4.9,4.9,0,0,0-.69-.77,5.18,5.18,0,0,0-.92-.64,4.77,4.77,0,0,0-1.07-.42A4,4,0,0,0,147.07,45a4.66,4.66,0,0,0-.84,1.54,6.84,6.84,0,0,0,0,3.94,4.87,4.87,0,0,0,.84,1.56,3.85,3.85,0,0,0,1.32,1A3.9,3.9,0,0,0,150.13,53.4Z" fill="#fff"/><path d="M171.67,55.88v-2a6.49,6.49,0,0,1-2.06,1.74,5.61,5.61,0,0,1-2.68.64,6.51,6.51,0,0,1-2.61-.52,5.57,5.57,0,0,1-2.08-1.53,7.29,7.29,0,0,1-1.36-2.44,10.31,10.31,0,0,1-.49-3.27,10.11,10.11,0,0,1,.49-3.21,7.39,7.39,0,0,1,1.36-2.44,5.79,5.79,0,0,1,2.07-1.54,6.27,6.27,0,0,1,2.62-.54,5.78,5.78,0,0,1,4.74,2.41v-2h3.21V55.88Zm-3.79-2.48a4.37,4.37,0,0,0,1.12-.15,5.21,5.21,0,0,0,1.07-.43,4.91,4.91,0,0,0,.91-.63,3.17,3.17,0,0,0,.69-.78V45.58a4.07,4.07,0,0,0-.69-.77,5.48,5.48,0,0,0-.91-.64,5.17,5.17,0,0,0-1.07-.42,4,4,0,0,0-1.12-.16,3.9,3.9,0,0,0-1.74.37,3.81,3.81,0,0,0-1.31,1,4.33,4.33,0,0,0-.84,1.54,6.62,6.62,0,0,0,0,3.94,4.51,4.51,0,0,0,.84,1.56,3.72,3.72,0,0,0,1.31,1A3.9,3.9,0,0,0,167.88,53.4Z" fill="#fff"/><path d="M184.84,61.86a9.37,9.37,0,0,1-3.3-.53,7.93,7.93,0,0,1-2.66-1.67l1.5-2.32a4.45,4.45,0,0,0,2,1.45,7,7,0,0,0,2.48.45,4.19,4.19,0,0,0,3-1.06,4,4,0,0,0,1.1-3V53.43A7.76,7.76,0,0,1,186.87,55a6.47,6.47,0,0,1-3.07.71,4.81,4.81,0,0,1-3.57-1.2,4.72,4.72,0,0,1-1.2-3.47v-10h3.21v8.77a2.88,2.88,0,0,0,.81,2.36,3.37,3.37,0,0,0,2.19.66,4.27,4.27,0,0,0,2.21-.59A5.25,5.25,0,0,0,189,51V41.12h3.21v14a7.24,7.24,0,0,1-.55,2.92,5.58,5.58,0,0,1-1.54,2.11,6.78,6.78,0,0,1-2.34,1.27A9.74,9.74,0,0,1,184.84,61.86Z" fill="#fff"/><path d="M214.63,55.88v-2a6.49,6.49,0,0,1-2.06,1.74,5.61,5.61,0,0,1-2.68.64,6.47,6.47,0,0,1-2.61-.52,5.57,5.57,0,0,1-2.08-1.53,7.29,7.29,0,0,1-1.36-2.44,10.31,10.31,0,0,1-.49-3.27,10.11,10.11,0,0,1,.49-3.21,7.39,7.39,0,0,1,1.36-2.44,5.79,5.79,0,0,1,2.07-1.54,6.27,6.27,0,0,1,2.62-.54,5.78,5.78,0,0,1,4.74,2.41V35.5h3.21V55.88Zm-3.79-2.48a4.37,4.37,0,0,0,1.12-.15,4.91,4.91,0,0,0,1.06-.43,4.67,4.67,0,0,0,.92-.63,3.17,3.17,0,0,0,.69-.78V45.58a4.07,4.07,0,0,0-.69-.77,5.18,5.18,0,0,0-.92-.64,4.88,4.88,0,0,0-1.06-.42,4,4,0,0,0-1.12-.16,3.9,3.9,0,0,0-1.74.37,4,4,0,0,0-1.32,1,4.66,4.66,0,0,0-.84,1.54,6.84,6.84,0,0,0,0,3.94,4.87,4.87,0,0,0,.84,1.56,3.85,3.85,0,0,0,1.32,1A3.9,3.9,0,0,0,210.84,53.4Z" fill="#fff"/><path d="M228.84,56.24a8.51,8.51,0,0,1-3.11-.55,6.92,6.92,0,0,1-2.44-1.57,7.18,7.18,0,0,1-1.6-2.46,8.37,8.37,0,0,1-.58-3.18,8.2,8.2,0,0,1,.55-3A7.23,7.23,0,0,1,223.2,43a7.35,7.35,0,0,1,5.39-2.26,7.31,7.31,0,0,1,3,.6A6.55,6.55,0,0,1,233.88,43a7.56,7.56,0,0,1,1.45,2.54,9.73,9.73,0,0,1,.5,3.21v.79H224.47a4.9,4.9,0,0,0,.44,1.56,4.31,4.31,0,0,0,1,1.3,4.26,4.26,0,0,0,1.42.88,5,5,0,0,0,1.86.32,6.57,6.57,0,0,0,2.26-.42,5.37,5.37,0,0,0,2-1.23l1.46,2.11a7.22,7.22,0,0,1-2.68,1.62A9.77,9.77,0,0,1,228.84,56.24Zm3.91-9a4.43,4.43,0,0,0-.29-1.33,4,4,0,0,0-.77-1.25,3.86,3.86,0,0,0-1.26-.93,4.78,4.78,0,0,0-3.64,0,3.75,3.75,0,0,0-1.27.92,4.38,4.38,0,0,0-.78,1.25,4.22,4.22,0,0,0-.3,1.36Z" fill="#fff"/><path d="M249.4,55.88v-2a6.49,6.49,0,0,1-2.06,1.74,5.61,5.61,0,0,1-2.68.64,6.47,6.47,0,0,1-2.61-.52A5.57,5.57,0,0,1,240,54.19a7.29,7.29,0,0,1-1.36-2.44,10.31,10.31,0,0,1-.49-3.27,10.11,10.11,0,0,1,.49-3.21A7.39,7.39,0,0,1,240,42.83,5.79,5.79,0,0,1,242,41.29a6.27,6.27,0,0,1,2.62-.54,5.78,5.78,0,0,1,4.74,2.41v-2h3.21V55.88Zm-3.79-2.48a4.37,4.37,0,0,0,1.12-.15,5.21,5.21,0,0,0,1.07-.43,4.91,4.91,0,0,0,.91-.63,3.17,3.17,0,0,0,.69-.78V45.58a4.07,4.07,0,0,0-.69-.77,5.48,5.48,0,0,0-.91-.64,5.17,5.17,0,0,0-1.07-.42,4,4,0,0,0-1.12-.16,3.9,3.9,0,0,0-1.74.37,3.81,3.81,0,0,0-1.31,1,4.33,4.33,0,0,0-.84,1.54,6.62,6.62,0,0,0,0,3.94,4.51,4.51,0,0,0,.84,1.56,3.72,3.72,0,0,0,1.31,1A3.9,3.9,0,0,0,245.61,53.4Z" fill="#fff"/><path d="M260.55,56.24a3.75,3.75,0,0,1-2.82-1,3.84,3.84,0,0,1-1-2.84V35.5H260V51.63a2.21,2.21,0,0,0,.35,1.27,1.23,1.23,0,0,0,1.06.5,2.19,2.19,0,0,0,.85-.17,1.49,1.49,0,0,0,.58-.38l.77,2.44a3.66,3.66,0,0,1-1.16.68A5.48,5.48,0,0,1,260.55,56.24Z" fill="#fff"/><path d="M270.57,56.24a10.35,10.35,0,0,1-3.54-.59,7.84,7.84,0,0,1-2.78-1.73l1.47-2.29a6.22,6.22,0,0,0,.94.76,7.46,7.46,0,0,0,1.22.66,8.7,8.7,0,0,0,1.39.46,6.42,6.42,0,0,0,1.43.17,3.66,3.66,0,0,0,2.19-.54,1.68,1.68,0,0,0,.74-1.42,1.18,1.18,0,0,0-.66-1.1,6.81,6.81,0,0,0-1.65-.61c-.66-.16-1.38-.33-2.15-.49a9.31,9.31,0,0,1-2.16-.73,4.87,4.87,0,0,1-1.65-1.32,3.57,3.57,0,0,1-.65-2.26,3.9,3.9,0,0,1,.38-1.72,4.23,4.23,0,0,1,1.11-1.43,5.71,5.71,0,0,1,1.82-1,8.18,8.18,0,0,1,2.49-.35,8.71,8.71,0,0,1,3.32.58,8.38,8.38,0,0,1,2.4,1.47l-1.35,2.26a5.37,5.37,0,0,0-1.82-1.25,6,6,0,0,0-2.55-.52,3.35,3.35,0,0,0-2,.52,1.55,1.55,0,0,0-.72,1.31,1.06,1.06,0,0,0,.66,1,7.37,7.37,0,0,0,1.65.56l2.15.49a9.21,9.21,0,0,1,2.16.77,4.67,4.67,0,0,1,1.65,1.37,3.78,3.78,0,0,1,.65,2.34,4.36,4.36,0,0,1-.39,1.83,4.07,4.07,0,0,1-1.18,1.47,5.76,5.76,0,0,1-1.92,1A9.25,9.25,0,0,1,270.57,56.24Z" fill="#fff"/><path d="M34.4,95a17.6,17.6,0,0,1-7.18-1.33,15.4,15.4,0,0,1-5-3.43l3-4.09A14.28,14.28,0,0,0,29.08,89a11.77,11.77,0,0,0,5.55,1.26,9.33,9.33,0,0,0,2.76-.36A5.38,5.38,0,0,0,39.23,89a3.71,3.71,0,0,0,1-1.33,3.49,3.49,0,0,0,.34-1.5,2.69,2.69,0,0,0-1.28-2.4,12.32,12.32,0,0,0-3.23-1.42c-1.31-.39-2.71-.76-4.2-1.12a20.64,20.64,0,0,1-4.2-1.48,9,9,0,0,1-3.23-2.58,6.91,6.91,0,0,1-1.28-4.38A7.79,7.79,0,0,1,24,69.29a8.8,8.8,0,0,1,2.2-2.79,10.5,10.5,0,0,1,3.44-1.86A14.07,14.07,0,0,1,34.09,64a17.09,17.09,0,0,1,6.31,1.1,14.33,14.33,0,0,1,4.87,3.12l-3,3.9a11.07,11.07,0,0,0-4.06-2.62,13.26,13.26,0,0,0-4.65-.83,6,6,0,0,0-3.66,1,3.23,3.23,0,0,0-1.37,2.69,2.4,2.4,0,0,0,1.28,2.16,13.39,13.39,0,0,0,3.24,1.3c1.3.36,2.7.73,4.2,1.1a19.79,19.79,0,0,1,4.19,1.57,9.47,9.47,0,0,1,3.24,2.7A7.2,7.2,0,0,1,46,85.65a9.49,9.49,0,0,1-.68,3.57,8,8,0,0,1-2.08,3,10.33,10.33,0,0,1-3.62,2A16.49,16.49,0,0,1,34.4,95Z" fill="#fff"/><path d="M57.93,94.41V69.13H48.86V64.46H72.25v4.67H63.18V94.41Z" fill="#fff"/><path d="M94.79,94.41l-2.2-5.79H78.85l-2.2,5.79h-6L82.44,64.46H89l11.76,30ZM85.72,69.67,80.33,84H91.11Z" fill="#fff"/><path d="M121.1,94.41l-6.6-11.18h-5.25V94.41H104V64.46h13.15a11.46,11.46,0,0,1,4,.68,8.86,8.86,0,0,1,3.12,1.92,8.64,8.64,0,0,1,2,3,10.14,10.14,0,0,1,.69,3.79,9.75,9.75,0,0,1-.6,3.53A8.82,8.82,0,0,1,124.79,80a7.85,7.85,0,0,1-2.3,1.75,9.4,9.4,0,0,1-2.64.87l7.36,11.77Zm-4.62-15.85a5.3,5.3,0,0,0,3.68-1.29,4.43,4.43,0,0,0,1.44-3.47,4.3,4.3,0,0,0-1.44-3.4,5.33,5.33,0,0,0-3.68-1.27h-7.23v9.43Z" fill="#fff"/><path d="M139.38,94.41V69.13h-9.07V64.46H153.7v4.67h-9.07V94.41Z" fill="#fff"/><path d="M190.61,94.41,175,73V94.41h-5.25V64.46h5.39l15.31,20.75V64.46h5.25v30Z" fill="#fff"/><path d="M216.06,95a15.88,15.88,0,0,1-6.17-1.17A14.62,14.62,0,0,1,205,90.55a14.36,14.36,0,0,1-3.16-4.9,17.55,17.55,0,0,1,0-12.39,14.32,14.32,0,0,1,8-8.12,16.88,16.88,0,0,1,12.35,0,14.28,14.28,0,0,1,4.83,3.23,15,15,0,0,1,3.16,4.89,17.26,17.26,0,0,1,0,12.39,15,15,0,0,1-3.16,4.9,14.43,14.43,0,0,1-4.83,3.23A15.9,15.9,0,0,1,216.06,95Zm0-4.67a9.9,9.9,0,0,0,4.09-.83,9.35,9.35,0,0,0,3.14-2.27,9.82,9.82,0,0,0,2-3.43,12.87,12.87,0,0,0,.7-4.29,12.73,12.73,0,0,0-.7-4.31,9.73,9.73,0,0,0-2-3.41,9.22,9.22,0,0,0-3.14-2.27,10.52,10.52,0,0,0-8.19,0,9.23,9.23,0,0,0-3.12,2.27,9.73,9.73,0,0,0-2,3.41,12.73,12.73,0,0,0-.7,4.31,12.87,12.87,0,0,0,.7,4.29,9.82,9.82,0,0,0,2,3.43A9.37,9.37,0,0,0,212,89.45,9.81,9.81,0,0,0,216.06,90.28Z" fill="#fff"/><path d="M258.41,94.41l-5.8-22.14-5.83,22.14h-5.62l-8.53-29.95h5.84l5.84,23,6.19-23h4.18l6.2,23,5.83-23h5.88l-8.57,30Z" fill="#fff"/></g></g></g></svg>