<svg xmlns="http://www.w3.org/2000/svg" viewBox="0 0 160 600"><title>sub</title><g id="Layer_2" data-name="Layer 2"><g id="rec"><rect width="160" height="600" fill="none"/></g><g id="SUBHD"><path d="M17.45,227.19a4.83,4.83,0,0,1-2-.38A4.17,4.17,0,0,1,14,225.75l.94-1.13a3.16,3.16,0,0,0,2.51,1.12,2,2,0,0,0,1.41-.48,1.55,1.55,0,0,0,.51-1.17,1.53,1.53,0,0,0-.51-1.21,2,2,0,0,0-1.37-.45,3.2,3.2,0,0,0-1.09.19,2.9,2.9,0,0,0-1,.61l-1.17-.33v-5.21h6.12v1.45H15.91v2.68a3.14,3.14,0,0,1,.9-.56A3,3,0,0,1,18,221a3.32,3.32,0,0,1,1.13.2,2.79,2.79,0,0,1,1.62,1.54A3.16,3.16,0,0,1,21,224a3.22,3.22,0,0,1-.26,1.31,2.93,2.93,0,0,1-.74,1,3.2,3.2,0,0,1-1.13.64A4.35,4.35,0,0,1,17.45,227.19Z" fill="#e52823"/><path d="M25.92,227.19a3.27,3.27,0,0,1-1.7-.42,3.62,3.62,0,0,1-1.15-1.12,5.1,5.1,0,0,1-.67-1.54,7.42,7.42,0,0,1-.22-1.75,7.34,7.34,0,0,1,.22-1.74,5.27,5.27,0,0,1,.67-1.55,3.56,3.56,0,0,1,1.15-1.1,3.27,3.27,0,0,1,1.7-.42,3.23,3.23,0,0,1,1.69.42,3.46,3.46,0,0,1,1.15,1.1,5.27,5.27,0,0,1,.67,1.55,7.34,7.34,0,0,1,.22,1.74,7.42,7.42,0,0,1-.22,1.75,5.1,5.1,0,0,1-.67,1.54,3.52,3.52,0,0,1-1.15,1.12A3.23,3.23,0,0,1,25.92,227.19Zm0-1.45a1.65,1.65,0,0,0,1-.28,2.09,2.09,0,0,0,.64-.74,4.07,4.07,0,0,0,.35-1.07,7.92,7.92,0,0,0,0-2.57,3.74,3.74,0,0,0-.35-1.07,2.08,2.08,0,0,0-.64-.73,1.61,1.61,0,0,0-1-.28,1.58,1.58,0,0,0-1,.28,2,2,0,0,0-.64.73,4.08,4.08,0,0,0-.36,1.07,7.56,7.56,0,0,0,0,2.57,4.08,4.08,0,0,0,.36,1.07,2.19,2.19,0,0,0,.64.74A1.65,1.65,0,0,0,25.92,225.74Z" fill="#e52823"/><path d="M33,222.18A2.54,2.54,0,0,1,32,222a2.22,2.22,0,0,1-.74-.49,2.3,2.3,0,0,1-.48-.74,2.45,2.45,0,0,1-.16-.91,2.49,2.49,0,0,1,.16-.91A2.15,2.15,0,0,1,32,217.72a2.54,2.54,0,0,1,.94-.17,2.63,2.63,0,0,1,.95.17,2.13,2.13,0,0,1,.74.49,2.39,2.39,0,0,1,.47.75,2.49,2.49,0,0,1,.16.91,2.31,2.31,0,0,1-.63,1.65,2.13,2.13,0,0,1-.74.49A2.63,2.63,0,0,1,33,222.18Zm0-.94a1.17,1.17,0,0,0,.9-.38,1.42,1.42,0,0,0,.35-1,1.49,1.49,0,0,0-.35-1,1.2,1.2,0,0,0-.9-.38,1.16,1.16,0,0,0-.88.38,1.44,1.44,0,0,0-.35,1,1.37,1.37,0,0,0,.35,1A1.12,1.12,0,0,0,33,221.24ZM32,227l6-9.34h1L33,227Zm5.94.16A2.43,2.43,0,0,1,37,227a2.18,2.18,0,0,1-.73-.49,2.11,2.11,0,0,1-.48-.73,2.46,2.46,0,0,1-.17-.91,2.49,2.49,0,0,1,.17-.91A2.19,2.19,0,0,1,37,222.75a2.44,2.44,0,0,1,.95-.18,2.39,2.39,0,0,1,.94.18,2.08,2.08,0,0,1,.74.49,2.18,2.18,0,0,1,.47.74,2.49,2.49,0,0,1,.17.91,2.46,2.46,0,0,1-.17.91A2.14,2.14,0,0,1,38.92,227,2.38,2.38,0,0,1,38,227.19Zm0-.93a1.16,1.16,0,0,0,.89-.38,1.39,1.39,0,0,0,.35-1,1.41,1.41,0,0,0-.35-1,1.22,1.22,0,0,0-1.79,0,1.46,1.46,0,0,0-.35,1,1.43,1.43,0,0,0,.35,1A1.17,1.17,0,0,0,38,226.26Z" fill="#e52823"/><path d="M48.32,227.19a3.54,3.54,0,0,1-1.45-.28,3.35,3.35,0,0,1-1.1-.77,3.59,3.59,0,0,1-.68-1.13,3.91,3.91,0,0,1-.24-1.37,3.87,3.87,0,0,1,.24-1.37,3.48,3.48,0,0,1,.68-1.13,3.19,3.19,0,0,1,1.1-.76,3.54,3.54,0,0,1,1.45-.28,3.59,3.59,0,0,1,1.46.28,3.15,3.15,0,0,1,1.09.76,3.34,3.34,0,0,1,.69,1.13,4.1,4.1,0,0,1,.23,1.37,4.15,4.15,0,0,1-.23,1.37,3.44,3.44,0,0,1-.69,1.13,3.31,3.31,0,0,1-1.09.77A3.59,3.59,0,0,1,48.32,227.19Zm0-1.3a1.86,1.86,0,0,0,.84-.18,1.72,1.72,0,0,0,.61-.49,2.23,2.23,0,0,0,.37-.72,2.76,2.76,0,0,0,.13-.86,2.71,2.71,0,0,0-.13-.86,2.18,2.18,0,0,0-.37-.71,1.72,1.72,0,0,0-.61-.49,1.86,1.86,0,0,0-.84-.18,1.8,1.8,0,0,0-.82.18,1.75,1.75,0,0,0-.62.49,2.21,2.21,0,0,0-.38.71,3,3,0,0,0-.12.86,3.08,3.08,0,0,0,.12.86,2.26,2.26,0,0,0,.38.72,1.75,1.75,0,0,0,.62.49A1.8,1.8,0,0,0,48.32,225.89Z" fill="#e52823"/><path d="M53.66,227v-5.49H52.54v-1.28h1.12v-.37a2.36,2.36,0,0,1,.6-1.74,2.07,2.07,0,0,1,1.52-.6,2.42,2.42,0,0,1,1.19.25l-.32,1.11a1,1,0,0,0-.59-.16.88.88,0,0,0-.69.28,1.3,1.3,0,0,0-.24.86v.37H56.5v1.28H55.13V227Z" fill="#e52823"/><path d="M58,227v-5.49H56.86v-1.28H58v-.37a2.36,2.36,0,0,1,.6-1.74,2.07,2.07,0,0,1,1.53-.6,2.47,2.47,0,0,1,1.19.25L61,218.91a1,1,0,0,0-.59-.16.88.88,0,0,0-.69.28,1.24,1.24,0,0,0-.25.86v.37h1.37v1.28H59.45V227Z" fill="#e52823"/><path d="M70.31,227v-.93a2.89,2.89,0,0,1-.94.8,2.54,2.54,0,0,1-1.23.29A3.15,3.15,0,0,1,67,227a2.64,2.64,0,0,1-1-.7,3.4,3.4,0,0,1-.63-1.12,4.64,4.64,0,0,1-.22-1.5,4.54,4.54,0,0,1,.22-1.47,3.3,3.3,0,0,1,.63-1.12,2.6,2.6,0,0,1,.94-.71,3,3,0,0,1,1.2-.24,2.63,2.63,0,0,1,1.21.28,2.67,2.67,0,0,1,1,.82v-.94h1.47V227Zm-1.73-1.14a1.79,1.79,0,0,0,.51-.07,2.08,2.08,0,0,0,.49-.19,3.13,3.13,0,0,0,.42-.29,1.49,1.49,0,0,0,.31-.36v-2.67A1.66,1.66,0,0,0,70,222a3.19,3.19,0,0,0-.42-.3,2.08,2.08,0,0,0-.49-.19,1.79,1.79,0,0,0-.51-.07,1.71,1.71,0,0,0-.8.17,1.79,1.79,0,0,0-.6.46,2,2,0,0,0-.39.7,2.94,2.94,0,0,0-.13.91,2.88,2.88,0,0,0,.13.9,2,2,0,0,0,.39.71,1.69,1.69,0,0,0,.6.47A1.71,1.71,0,0,0,68.58,225.89Z" fill="#e52823"/><path d="M75.42,227.19a1.77,1.77,0,0,1-1.29-.44,1.82,1.82,0,0,1-.44-1.31v-7.75h1.47v7.39a1,1,0,0,0,.16.58.56.56,0,0,0,.48.23.85.85,0,0,0,.39-.08.63.63,0,0,0,.27-.17l.35,1.12a1.76,1.76,0,0,1-.53.31A2.62,2.62,0,0,1,75.42,227.19Z" fill="#e52823"/><path d="M79.43,227.19a1.79,1.79,0,0,1-1.3-.44,1.82,1.82,0,0,1-.44-1.31v-7.75h1.47v7.39a1,1,0,0,0,.16.58.57.57,0,0,0,.49.23.85.85,0,0,0,.39-.08.59.59,0,0,0,.26-.17l.35,1.12a1.65,1.65,0,0,1-.53.31A2.55,2.55,0,0,1,79.43,227.19Z" fill="#e52823"/><path d="M87.58,227v-7.89H84.75v-1.45H92v1.45H89.21V227Z" fill="#e52823"/><path d="M95,227.19a3.54,3.54,0,0,1-1.45-.28,3.21,3.21,0,0,1-1.09-.77,3.44,3.44,0,0,1-.69-1.13,3.91,3.91,0,0,1-.24-1.37,3.87,3.87,0,0,1,.24-1.37,3.34,3.34,0,0,1,.69-1.13,3.06,3.06,0,0,1,1.09-.76A3.54,3.54,0,0,1,95,220.1a3.59,3.59,0,0,1,1.46.28,3.15,3.15,0,0,1,1.09.76,3.34,3.34,0,0,1,.69,1.13,4.2,4.2,0,0,1,0,2.74,3.44,3.44,0,0,1-.69,1.13,3.31,3.31,0,0,1-1.09.77A3.59,3.59,0,0,1,95,227.19Zm0-1.3a1.86,1.86,0,0,0,.84-.18,1.64,1.64,0,0,0,.61-.49,2.05,2.05,0,0,0,.37-.72,2.76,2.76,0,0,0,.13-.86,2.71,2.71,0,0,0-.13-.86,2,2,0,0,0-.37-.71,1.64,1.64,0,0,0-.61-.49,1.86,1.86,0,0,0-.84-.18,1.8,1.8,0,0,0-.82.18,1.75,1.75,0,0,0-.62.49,2.21,2.21,0,0,0-.38.71,3,3,0,0,0-.12.86,3.08,3.08,0,0,0,.12.86,2.26,2.26,0,0,0,.38.72,1.75,1.75,0,0,0,.62.49A1.8,1.8,0,0,0,95,225.89Z" fill="#e52823"/><path d="M103.59,227.19a2.52,2.52,0,0,1-1.19-.28,3,3,0,0,1-1-.82v3.51H100v-9.34h1.47v.93a2.79,2.79,0,0,1,.94-.8,2.54,2.54,0,0,1,1.23-.29,3.18,3.18,0,0,1,1.21.23,2.58,2.58,0,0,1,.94.7,3.14,3.14,0,0,1,.62,1.11,5,5,0,0,1,0,3,3.23,3.23,0,0,1-.62,1.11,2.69,2.69,0,0,1-.94.7A3,3,0,0,1,103.59,227.19Zm-.43-1.3a1.72,1.72,0,0,0,1.4-.63,2.78,2.78,0,0,0,0-3.24,1.74,1.74,0,0,0-1.4-.62,2,2,0,0,0-1,.26,2,2,0,0,0-.74.63V225a1.8,1.8,0,0,0,.32.36,2.25,2.25,0,0,0,.42.3,1.92,1.92,0,0,0,.49.19A1.79,1.79,0,0,0,103.16,225.89Z" fill="#e52823"/><path d="M111.71,227v-9.34h6.4v1.45h-4.76v2.38H118V223h-4.66V227Z" fill="#e52823"/><path d="M120.29,219.44a.92.92,0,0,1-.91-.91.9.9,0,0,1,.91-.91.91.91,0,0,1,.65.26.88.88,0,0,1,.26.65.86.86,0,0,1-.26.64A.88.88,0,0,1,120.29,219.44Zm-.74,7.59v-6.77H121V227Z" fill="#e52823"/><path d="M127.5,227V222.8a1.35,1.35,0,0,0-.37-1.1,1.53,1.53,0,0,0-1-.3,1.85,1.85,0,0,0-1,.28,2.47,2.47,0,0,0-.72.61V227h-1.47v-6.77h1.47v.91a3.1,3.1,0,0,1,.41-.39,3,3,0,0,1,.55-.35,3.54,3.54,0,0,1,.67-.24,3.1,3.1,0,0,1,.76-.09,2.18,2.18,0,0,1,1.64.56,2.22,2.22,0,0,1,.54,1.61V227Z" fill="#e52823"/><path d="M133.67,218.57a1.67,1.67,0,0,1-.13.67,1.72,1.72,0,0,1-.37.55,1.62,1.62,0,0,1-.55.37,1.72,1.72,0,0,1-.68.14,1.67,1.67,0,0,1-.67-.14,1.73,1.73,0,0,1-.92-.92,1.67,1.67,0,0,1-.14-.67,1.75,1.75,0,0,1,.51-1.23,1.9,1.9,0,0,1,.55-.37,1.67,1.67,0,0,1,.67-.13,1.72,1.72,0,0,1,.68.13,1.77,1.77,0,0,1,.55.37,1.69,1.69,0,0,1,.5,1.23Zm-.24,0a1.48,1.48,0,0,0-.12-.59,1.36,1.36,0,0,0-.32-.47,1.38,1.38,0,0,0-.47-.31,1.46,1.46,0,0,0-1.16,0,1.48,1.48,0,0,0-.47.31,1.51,1.51,0,0,0-.32.47,1.47,1.47,0,0,0-.11.59,1.38,1.38,0,0,0,.11.57,1.4,1.4,0,0,0,.32.47,1.7,1.7,0,0,0,.47.32,1.46,1.46,0,0,0,1.16,0,1.56,1.56,0,0,0,.47-.32,1.27,1.27,0,0,0,.32-.47A1.39,1.39,0,0,0,133.43,218.57Zm-1,1-.52-.78h-.35v.78h-.27v-2h.81a.73.73,0,0,1,.45.16.55.55,0,0,1,.19.45.57.57,0,0,1-.06.27.58.58,0,0,1-.15.19.47.47,0,0,1-.17.09l-.13,0,.53.79Zm0-1.37a.34.34,0,0,0-.12-.27.33.33,0,0,0-.24-.1h-.54v.72h.54a.37.37,0,0,0,.24-.1A.32.32,0,0,0,132.45,218.19Z" fill="#e52823"/><path d="M14.19,247v-9.34h6.4v1.45H15.83v2.38h4.66V243H15.83v2.59h4.76V247Z" fill="#e52823"/><path d="M24.55,247.19a4.67,4.67,0,0,1-1.62-.27,3.5,3.5,0,0,1-1.28-.79l.67-1a3.22,3.22,0,0,0,.44.35,3.69,3.69,0,0,0,.56.3,3.43,3.43,0,0,0,.64.21,2.89,2.89,0,0,0,.65.08,1.64,1.64,0,0,0,1-.25.75.75,0,0,0,.34-.65.54.54,0,0,0-.3-.5,2.89,2.89,0,0,0-.76-.28l-1-.23a3.84,3.84,0,0,1-1-.33,2.25,2.25,0,0,1-.76-.6,1.65,1.65,0,0,1-.3-1,1.79,1.79,0,0,1,.18-.79,1.68,1.68,0,0,1,.51-.65,2.27,2.27,0,0,1,.83-.44,3.61,3.61,0,0,1,1.14-.16,3.94,3.94,0,0,1,1.52.26,3.72,3.72,0,0,1,1.1.67l-.62,1a2.39,2.39,0,0,0-.83-.57,2.78,2.78,0,0,0-1.17-.24,1.51,1.51,0,0,0-.91.24.71.71,0,0,0-.33.6.5.5,0,0,0,.3.45,3.46,3.46,0,0,0,.75.25l1,.23a4.46,4.46,0,0,1,1,.35,2.08,2.08,0,0,1,.75.63,1.72,1.72,0,0,1,.3,1.07,2,2,0,0,1-.18.84,1.75,1.75,0,0,1-.54.67,2.42,2.42,0,0,1-.88.44A4,4,0,0,1,24.55,247.19Z" fill="#e52823"/><path d="M31.16,247.19a4.76,4.76,0,0,1-1.63-.27,3.54,3.54,0,0,1-1.27-.79l.67-1a2.71,2.71,0,0,0,.44.35,3.26,3.26,0,0,0,.56.3,3.33,3.33,0,0,0,.63.21,3,3,0,0,0,.65.08,1.65,1.65,0,0,0,1-.25.75.75,0,0,0,.34-.65.54.54,0,0,0-.3-.5,3,3,0,0,0-.76-.28c-.3-.08-.63-.15-1-.23a3.9,3.9,0,0,1-1-.33,2.16,2.16,0,0,1-.76-.6,1.65,1.65,0,0,1-.3-1,1.79,1.79,0,0,1,.18-.79,1.68,1.68,0,0,1,.51-.65,2.27,2.27,0,0,1,.83-.44,3.61,3.61,0,0,1,1.14-.16,3.94,3.94,0,0,1,1.52.26,3.85,3.85,0,0,1,1.1.67l-.62,1a2.39,2.39,0,0,0-.83-.57,2.78,2.78,0,0,0-1.17-.24,1.55,1.55,0,0,0-.92.24.71.71,0,0,0-.33.6.49.49,0,0,0,.31.45,3.46,3.46,0,0,0,.75.25c.3.08.63.15,1,.23a4.65,4.65,0,0,1,1,.35,2.08,2.08,0,0,1,.75.63,1.72,1.72,0,0,1,.3,1.07,2,2,0,0,1-.18.84,1.75,1.75,0,0,1-.54.67,2.51,2.51,0,0,1-.88.44A4,4,0,0,1,31.16,247.19Z" fill="#e52823"/><path d="M38.58,247.19a3.85,3.85,0,0,1-1.42-.25,3.18,3.18,0,0,1-1.12-.72,3.26,3.26,0,0,1-.74-1.13,3.94,3.94,0,0,1-.26-1.45,3.72,3.72,0,0,1,.25-1.38,3.29,3.29,0,0,1,.71-1.13,3.18,3.18,0,0,1,1.08-.75,3.32,3.32,0,0,1,1.39-.28,3.38,3.38,0,0,1,1.37.27,3.08,3.08,0,0,1,1,.76,3.4,3.4,0,0,1,.66,1.16,4.36,4.36,0,0,1,.23,1.47v.37h-5.2a1.93,1.93,0,0,0,.2.71,2.13,2.13,0,0,0,.43.6,2,2,0,0,0,.65.4,2.35,2.35,0,0,0,.86.15,3,3,0,0,0,1-.2,2.3,2.3,0,0,0,.9-.56l.67,1a3.32,3.32,0,0,1-1.23.74A4.47,4.47,0,0,1,38.58,247.19Zm1.79-4.11a2,2,0,0,0-.13-.61,1.87,1.87,0,0,0-.35-.57,1.79,1.79,0,0,0-.58-.43,2,2,0,0,0-.86-.17,1.86,1.86,0,0,0-.81.16,1.81,1.81,0,0,0-.58.42,2.17,2.17,0,0,0-.36.58,2,2,0,0,0-.14.62Z" fill="#e52823"/><path d="M47.82,247V242.8a1.38,1.38,0,0,0-.37-1.1,1.55,1.55,0,0,0-1-.3,1.86,1.86,0,0,0-1,.28,2.76,2.76,0,0,0-.72.61V247H43.24v-6.77h1.47v.91a3,3,0,0,1,1-.74,3.21,3.21,0,0,1,.66-.24,3.1,3.1,0,0,1,.76-.09,2.16,2.16,0,0,1,1.64.56,2.18,2.18,0,0,1,.55,1.61V247Z" fill="#e52823"/><path d="M53.24,247.19a1.79,1.79,0,0,1-1.31-.44,1.86,1.86,0,0,1-.43-1.31v-3.9H50.38v-1.28H51.5v-1.84H53v1.84h1.37v1.28H53v3.54a1,1,0,0,0,.16.58.56.56,0,0,0,.48.23.85.85,0,0,0,.39-.08.65.65,0,0,0,.26-.17l.35,1.12a1.76,1.76,0,0,1-.53.31A2.57,2.57,0,0,1,53.24,247.19Z" fill="#e52823"/><path d="M56.4,239.44a.85.85,0,0,1-.64-.27.87.87,0,0,1-.27-.64.91.91,0,1,1,1.82,0,.87.87,0,0,1-.27.64A.85.85,0,0,1,56.4,239.44ZM55.66,247v-6.77h1.47V247Z" fill="#e52823"/><path d="M63.79,247v-.93a2.89,2.89,0,0,1-.94.8,2.54,2.54,0,0,1-1.23.29,3.08,3.08,0,0,1-1.19-.23,2.77,2.77,0,0,1-1-.7,3.56,3.56,0,0,1-.62-1.12,4.64,4.64,0,0,1-.22-1.5,4.54,4.54,0,0,1,.22-1.47,3.46,3.46,0,0,1,.62-1.12,2.64,2.64,0,0,1,1-.71,2.92,2.92,0,0,1,1.2-.24,2.64,2.64,0,0,1,2.17,1.1v-.94h1.47V247Zm-1.73-1.14a1.89,1.89,0,0,0,.51-.07,2.26,2.26,0,0,0,.49-.19,3.13,3.13,0,0,0,.42-.29,1.74,1.74,0,0,0,.31-.36v-2.67a2,2,0,0,0-.31-.35,3.19,3.19,0,0,0-.42-.3,2.26,2.26,0,0,0-.49-.19,1.89,1.89,0,0,0-.51-.07,1.71,1.71,0,0,0-.8.17,1.69,1.69,0,0,0-.6.46,2,2,0,0,0-.39.7,2.94,2.94,0,0,0-.13.91,2.88,2.88,0,0,0,.13.9,2,2,0,0,0,.39.71,1.61,1.61,0,0,0,.6.47A1.71,1.71,0,0,0,62.06,245.89Z" fill="#e52823"/><path d="M68.9,247.19a1.75,1.75,0,0,1-1.29-.44,1.78,1.78,0,0,1-.44-1.31v-7.75h1.47v7.39a1,1,0,0,0,.16.58.55.55,0,0,0,.48.23.85.85,0,0,0,.39-.08.7.7,0,0,0,.27-.17l.35,1.12a1.76,1.76,0,0,1-.53.31A2.62,2.62,0,0,1,68.9,247.19Z" fill="#e52823"/><path d="M79.54,247v-.93a2.89,2.89,0,0,1-.94.8,2.54,2.54,0,0,1-1.23.29,3.08,3.08,0,0,1-1.19-.23,2.77,2.77,0,0,1-1-.7,3.56,3.56,0,0,1-.62-1.12,4.64,4.64,0,0,1-.22-1.5,4.54,4.54,0,0,1,.22-1.47,3.46,3.46,0,0,1,.62-1.12,2.64,2.64,0,0,1,1-.71,2.92,2.92,0,0,1,1.2-.24,2.64,2.64,0,0,1,2.17,1.1v-.94H81V247Zm-1.73-1.14a1.89,1.89,0,0,0,.51-.07,2.26,2.26,0,0,0,.49-.19,3.13,3.13,0,0,0,.42-.29,1.74,1.74,0,0,0,.31-.36v-2.67a2,2,0,0,0-.31-.35,3.19,3.19,0,0,0-.42-.3,2.26,2.26,0,0,0-.49-.19,1.89,1.89,0,0,0-.51-.07,1.71,1.71,0,0,0-.8.17,1.61,1.61,0,0,0-.6.46,2,2,0,0,0-.39.7,2.94,2.94,0,0,0-.13.91,2.88,2.88,0,0,0,.13.9,2,2,0,0,0,.39.71,1.54,1.54,0,0,0,.6.47A1.71,1.71,0,0,0,77.81,245.89Z" fill="#e52823"/><path d="M85.48,247.19a3,3,0,0,1-1.21-.24,2.69,2.69,0,0,1-.94-.7,3.23,3.23,0,0,1-.62-1.11,5,5,0,0,1,0-3,3.14,3.14,0,0,1,.62-1.11,2.58,2.58,0,0,1,.94-.7,3.18,3.18,0,0,1,1.21-.23,2.54,2.54,0,0,1,1.23.29,2.79,2.79,0,0,1,.94.8v-.93h1.47v9.34H87.65v-3.51a3,3,0,0,1-1,.82A2.52,2.52,0,0,1,85.48,247.19Zm.43-1.3a1.79,1.79,0,0,0,.51-.07,1.92,1.92,0,0,0,.49-.19,2.25,2.25,0,0,0,.42-.3,1.8,1.8,0,0,0,.32-.36v-2.68a1.94,1.94,0,0,0-.74-.63,2,2,0,0,0-1-.26,1.74,1.74,0,0,0-1.4.62,2.78,2.78,0,0,0,0,3.24A1.72,1.72,0,0,0,85.91,245.89Z" fill="#e52823"/><path d="M95.59,247v-.9a3.48,3.48,0,0,1-1,.73,2.87,2.87,0,0,1-1.4.33,2.2,2.2,0,0,1-1.64-.55,2.15,2.15,0,0,1-.55-1.59v-4.79h1.47v4.25a1.35,1.35,0,0,0,.37,1.08,1.55,1.55,0,0,0,1,.3,1.94,1.94,0,0,0,1-.27,2.55,2.55,0,0,0,.71-.61v-4.75h1.47V247Z" fill="#e52823"/><path d="M103.72,247v-.93a3,3,0,0,1-.94.8,2.54,2.54,0,0,1-1.23.29,3.17,3.17,0,0,1-1.2-.23,2.73,2.73,0,0,1-.95-.7,3.38,3.38,0,0,1-.62-1.12,4.63,4.63,0,0,1-.23-1.5,4.53,4.53,0,0,1,.23-1.47,3.28,3.28,0,0,1,.62-1.12,2.64,2.64,0,0,1,.95-.71,2.92,2.92,0,0,1,1.2-.24,2.58,2.58,0,0,1,1.2.28,2.62,2.62,0,0,1,1,.82v-.94h1.47V247ZM102,245.89a1.79,1.79,0,0,0,.51-.07,2.15,2.15,0,0,0,.5-.19,3.13,3.13,0,0,0,.42-.29,1.74,1.74,0,0,0,.31-.36v-2.67a2,2,0,0,0-.31-.35,3.19,3.19,0,0,0-.42-.3,2.15,2.15,0,0,0-.5-.19,1.79,1.79,0,0,0-.51-.07,1.7,1.7,0,0,0-.79.17,1.73,1.73,0,0,0-.61.46,2.14,2.14,0,0,0-.38.7,2.94,2.94,0,0,0-.13.91,2.88,2.88,0,0,0,.13.9,2.19,2.19,0,0,0,.38.71,1.64,1.64,0,0,0,.61.47A1.7,1.7,0,0,0,102,245.89Z" fill="#e52823"/><path d="M109.14,247.19a1.75,1.75,0,0,1-1.3-.44,1.82,1.82,0,0,1-.44-1.31v-3.9h-1.12v-1.28h1.12v-1.84h1.47v1.84h1.37v1.28h-1.37v3.54a1,1,0,0,0,.16.58.57.57,0,0,0,.49.23.81.81,0,0,0,.38-.08.65.65,0,0,0,.26-.17l.35,1.12a1.76,1.76,0,0,1-.53.31A2.57,2.57,0,0,1,109.14,247.19Z" fill="#e52823"/><path d="M112.3,239.44a.85.85,0,0,1-.64-.27.87.87,0,0,1-.27-.64.9.9,0,0,1,.91-.91.89.89,0,0,1,.91.91.9.9,0,0,1-.91.91Zm-.74,7.59v-6.77H113V247Z" fill="#e52823"/><path d="M118,247.19a3.71,3.71,0,0,1-1.4-.26,3.26,3.26,0,0,1-1.82-1.87,4,4,0,0,1,0-2.84,3.28,3.28,0,0,1,1.82-1.86,3.53,3.53,0,0,1,1.4-.26,4.19,4.19,0,0,1,.91.09,3.49,3.49,0,0,1,.71.27,2.81,2.81,0,0,1,.55.38,3.57,3.57,0,0,1,.42.46l-1,.88a1.82,1.82,0,0,0-1.56-.78,1.91,1.91,0,0,0-1.48.62,2.36,2.36,0,0,0-.56,1.62,2.62,2.62,0,0,0,.15.9,1.81,1.81,0,0,0,.42.71,1.75,1.75,0,0,0,.64.47,1.9,1.9,0,0,0,.83.17,1.82,1.82,0,0,0,1.56-.81l1,.91a3.27,3.27,0,0,1-1,.84A3.15,3.15,0,0,1,118,247.19Z" fill="#e52823"/><path d="M16.47,267.19a4.67,4.67,0,0,1-1.62-.27,3.5,3.5,0,0,1-1.28-.79l.68-1.05a2.61,2.61,0,0,0,.43.35,3.75,3.75,0,0,0,1.2.51,2.89,2.89,0,0,0,.65.08,1.67,1.67,0,0,0,1-.25.77.77,0,0,0,.33-.65.54.54,0,0,0-.3-.5,3,3,0,0,0-.75-.28l-1-.23a3.84,3.84,0,0,1-1-.33,2.21,2.21,0,0,1-.75-.6,1.59,1.59,0,0,1-.31-1,1.79,1.79,0,0,1,.18-.79,1.89,1.89,0,0,1,.51-.65,2.27,2.27,0,0,1,.83-.44,3.61,3.61,0,0,1,1.14-.16,3.94,3.94,0,0,1,1.52.26,3.72,3.72,0,0,1,1.1.67l-.61,1a2.53,2.53,0,0,0-.84-.57,2.78,2.78,0,0,0-1.17-.24,1.51,1.51,0,0,0-.91.24.71.71,0,0,0-.33.6.5.5,0,0,0,.3.45,3.38,3.38,0,0,0,.76.25l1,.23a4.29,4.29,0,0,1,1,.35A2.2,2.2,0,0,1,19,264a1.72,1.72,0,0,1,.3,1.07,1.85,1.85,0,0,1-.19.84,1.82,1.82,0,0,1-.53.67,2.56,2.56,0,0,1-.89.44A4,4,0,0,1,16.47,267.19Z" fill="#e52823"/><path d="M22.8,267.19a1.76,1.76,0,0,1-1.3-.44,1.82,1.82,0,0,1-.44-1.31v-3.9H19.94v-1.28h1.12v-1.84h1.47v1.84h1.38v1.28H22.53v3.54a1,1,0,0,0,.17.58.54.54,0,0,0,.48.23.79.79,0,0,0,.38-.08.59.59,0,0,0,.26-.17l.35,1.12a1.76,1.76,0,0,1-.53.31A2.49,2.49,0,0,1,22.8,267.19Z" fill="#e52823"/><path d="M30,267v-.93a2.89,2.89,0,0,1-.94.8,2.54,2.54,0,0,1-1.23.29,3.08,3.08,0,0,1-1.19-.23,2.77,2.77,0,0,1-1-.7,3.56,3.56,0,0,1-.62-1.12,4.64,4.64,0,0,1-.22-1.5,4.54,4.54,0,0,1,.22-1.47,3.46,3.46,0,0,1,.62-1.12,2.64,2.64,0,0,1,.95-.71,2.92,2.92,0,0,1,1.2-.24A2.64,2.64,0,0,1,30,261.2v-.94h1.47V267Zm-1.73-1.14a1.89,1.89,0,0,0,.51-.07,2.26,2.26,0,0,0,.49-.19,3.13,3.13,0,0,0,.42-.29A1.74,1.74,0,0,0,30,265v-2.67a2,2,0,0,0-.31-.35,3.19,3.19,0,0,0-.42-.3,2.26,2.26,0,0,0-.49-.19,1.89,1.89,0,0,0-.51-.07,1.71,1.71,0,0,0-.8.17,1.69,1.69,0,0,0-.6.46,2,2,0,0,0-.39.7,2.94,2.94,0,0,0-.13.91,2.88,2.88,0,0,0,.13.9,2,2,0,0,0,.39.71,1.61,1.61,0,0,0,.6.47A1.71,1.71,0,0,0,28.25,265.89Z" fill="#e52823"/><path d="M33.36,267v-6.77h1.47v1a3.48,3.48,0,0,1,1-.82A2.54,2.54,0,0,1,37,260.1v1.45a2,2,0,0,0-.44,0,1.77,1.77,0,0,0-.5.07,2.37,2.37,0,0,0-.5.2,2,2,0,0,0-.45.29,1.37,1.37,0,0,0-.3.35V267Z" fill="#e52823"/><path d="M40.26,267.19a1.76,1.76,0,0,1-1.3-.44,1.82,1.82,0,0,1-.44-1.31v-3.9H37.4v-1.28h1.12v-1.84H40v1.84h1.37v1.28H40v3.54a1,1,0,0,0,.16.58.57.57,0,0,0,.49.23.81.81,0,0,0,.38-.08.65.65,0,0,0,.26-.17l.35,1.12a1.76,1.76,0,0,1-.53.31A2.57,2.57,0,0,1,40.26,267.19Z" fill="#e52823"/><path d="M45.82,267.19a3.91,3.91,0,0,1-1.43-.25,3.17,3.17,0,0,1-1.85-1.85,3.91,3.91,0,0,1,0-2.83,3.27,3.27,0,0,1,.7-1.13,3.42,3.42,0,0,1,2.47-1,3.43,3.43,0,0,1,1.38.27,3.08,3.08,0,0,1,1.05.76,3.58,3.58,0,0,1,.66,1.16,4.62,4.62,0,0,1,.23,1.47v.37H43.81a2.16,2.16,0,0,0,.21.71,2,2,0,0,0,.43.6,1.87,1.87,0,0,0,.65.4A2.31,2.31,0,0,0,46,266a3,3,0,0,0,1-.2,2.37,2.37,0,0,0,.9-.56l.67,1a3.49,3.49,0,0,1-1.23.74A4.47,4.47,0,0,1,45.82,267.19Zm1.79-4.11a2,2,0,0,0-.14-.61,1.55,1.55,0,0,0-.35-.57,1.6,1.6,0,0,0-.58-.43,2,2,0,0,0-.85-.17,1.86,1.86,0,0,0-.81.16,1.7,1.7,0,0,0-.58.42,1.76,1.76,0,0,0-.36.58,2,2,0,0,0-.14.62Z" fill="#e52823"/><path d="M50.48,267v-6.77H52v1a3.48,3.48,0,0,1,1-.82,2.57,2.57,0,0,1,1.24-.32v1.45a2.09,2.09,0,0,0-.45,0,1.77,1.77,0,0,0-.5.07,2.37,2.37,0,0,0-.5.2,2,2,0,0,0-.44.29,1.24,1.24,0,0,0-.31.35V267Z" fill="#e52823"/><path d="M63.43,267l-2.06-2.8-.95,1V267H59v-9.34h1.47v5.84l3-3.27h1.82l-2.8,3.07,2.86,3.7Z" fill="#e52823"/><path d="M67.07,259.44a.9.9,0,0,1-.91-.91.89.89,0,0,1,.91-.91.9.9,0,0,1,.91.91.92.92,0,0,1-.91.91ZM66.33,267v-6.77H67.8V267Z" fill="#e52823"/><path d="M71.74,267.19a1.76,1.76,0,0,1-1.3-.44,1.82,1.82,0,0,1-.43-1.31v-3.9H68.89v-1.28H70v-1.84h1.47v1.84h1.37v1.28H71.48v3.54a1,1,0,0,0,.16.58.56.56,0,0,0,.48.23.85.85,0,0,0,.39-.08.73.73,0,0,0,.26-.17l.35,1.12a1.83,1.83,0,0,1-.54.31A2.49,2.49,0,0,1,71.74,267.19Z" fill="#e52823"/><path d="M76.49,267.19a4.67,4.67,0,0,1-1.62-.27,3.5,3.5,0,0,1-1.28-.79l.67-1.05a2.71,2.71,0,0,0,.44.35,3.69,3.69,0,0,0,.56.3,3.33,3.33,0,0,0,.63.21,3,3,0,0,0,.66.08,1.64,1.64,0,0,0,1-.25.75.75,0,0,0,.34-.65.54.54,0,0,0-.3-.5,2.89,2.89,0,0,0-.76-.28l-1-.23a3.84,3.84,0,0,1-1-.33,2.16,2.16,0,0,1-.76-.6,1.65,1.65,0,0,1-.3-1,1.79,1.79,0,0,1,.18-.79,1.68,1.68,0,0,1,.51-.65,2.27,2.27,0,0,1,.83-.44,3.61,3.61,0,0,1,1.14-.16,3.94,3.94,0,0,1,1.52.26,3.85,3.85,0,0,1,1.1.67l-.62,1a2.39,2.39,0,0,0-.83-.57,2.78,2.78,0,0,0-1.17-.24,1.55,1.55,0,0,0-.92.24.72.72,0,0,0-.32.6.5.5,0,0,0,.3.45,3.46,3.46,0,0,0,.75.25l1,.23a4.65,4.65,0,0,1,1,.35A2.08,2.08,0,0,1,79,264a1.72,1.72,0,0,1,.3,1.07,2,2,0,0,1-.18.84,1.75,1.75,0,0,1-.54.67,2.51,2.51,0,0,1-.88.44A4,4,0,0,1,76.49,267.19Z" fill="#e52823"/></g></g></svg>