<svg xmlns="http://www.w3.org/2000/svg" viewBox="0 0 300 600"><title>subhead</title><g id="Layer_2" data-name="Layer 2"><g id="content"><path d="M27.35,190.3a7.5,7.5,0,0,1-2.75-.51,6.68,6.68,0,0,1-2.28-1.47,7.09,7.09,0,0,1-1.54-2.3,7.57,7.57,0,0,1-.57-3,7.4,7.4,0,0,1,.58-3,6.89,6.89,0,0,1,1.57-2.27,7.12,7.12,0,0,1,2.33-1.46,7.78,7.78,0,0,1,2.87-.52,7.33,7.33,0,0,1,1.88.23,6.88,6.88,0,0,1,1.54.62,5.51,5.51,0,0,1,1.24.93,7.78,7.78,0,0,1,1,1.12l-2,1.15a4.56,4.56,0,0,0-1.51-1.33,4.17,4.17,0,0,0-2.12-.53,4.88,4.88,0,0,0-1.93.37,4.57,4.57,0,0,0-1.52,1.06,4.79,4.79,0,0,0-1,1.6,5.75,5.75,0,0,0,0,4.06,5,5,0,0,0,1,1.61,4.43,4.43,0,0,0,1.52,1.06,4.89,4.89,0,0,0,1.93.38,4.21,4.21,0,0,0,1.59-.28,3.49,3.49,0,0,0,1.2-.75,3.67,3.67,0,0,0,.83-1.11,5.16,5.16,0,0,0,.48-1.33h-5v-2.18h7.64a10.2,10.2,0,0,1-.47,3.23,7.12,7.12,0,0,1-1.36,2.47,6.07,6.07,0,0,1-2.19,1.57A7.22,7.22,0,0,1,27.35,190.3Z" fill="#e32d27"/><path d="M35.81,190V179.89H38v1.47a5,5,0,0,1,1.45-1.23,3.64,3.64,0,0,1,1.85-.5v2.19a3.39,3.39,0,0,0-.68-.07,2.89,2.89,0,0,0-.74.11,4.4,4.4,0,0,0-.76.29,3.84,3.84,0,0,0-.66.45,2.21,2.21,0,0,0-.46.52V190Z" fill="#e32d27"/><path d="M43.1,190V179.89h2.21v1.47a5.06,5.06,0,0,1,1.44-1.23,3.67,3.67,0,0,1,1.85-.5v2.19a3.28,3.28,0,0,0-.67-.07,2.76,2.76,0,0,0-.74.11,4.11,4.11,0,0,0-.76.29,3.19,3.19,0,0,0-.66.45,2,2,0,0,0-.46.52V190Z" fill="#e32d27"/><path d="M55.09,190.28A5.68,5.68,0,0,1,53,189.9a4.76,4.76,0,0,1-1.68-1.08,4.9,4.9,0,0,1-1.1-1.69,5.68,5.68,0,0,1-.4-2.18,5.51,5.51,0,0,1,.38-2.07,5,5,0,0,1,2.68-2.83A5.37,5.37,0,0,1,57,180a4.67,4.67,0,0,1,1.58,1.15,5.13,5.13,0,0,1,1,1.74,6.78,6.78,0,0,1,.35,2.21v.54H52.09a3.21,3.21,0,0,0,.3,1.07,3,3,0,0,0,.65.9,2.88,2.88,0,0,0,1,.6,3.47,3.47,0,0,0,1.28.23,4.44,4.44,0,0,0,1.56-.3,3.55,3.55,0,0,0,1.34-.84l1,1.45a5.17,5.17,0,0,1-1.85,1.11A6.56,6.56,0,0,1,55.09,190.28Zm2.69-6.17a3.18,3.18,0,0,0-.2-.92,2.83,2.83,0,0,0-.52-.86,3.12,3.12,0,0,0-3.38-.65,2.57,2.57,0,0,0-.87.63,2.86,2.86,0,0,0-.53.86,2.71,2.71,0,0,0-.21.94Z" fill="#e32d27"/><path d="M69.22,190v-1.39a4.26,4.26,0,0,1-1.41,1.2,3.93,3.93,0,0,1-1.84.44,4.52,4.52,0,0,1-1.8-.36,3.66,3.66,0,0,1-1.42-1,5.06,5.06,0,0,1-.94-1.68,7.67,7.67,0,0,1,0-4.45,5.06,5.06,0,0,1,.94-1.68A4.07,4.07,0,0,1,64.16,180a4.47,4.47,0,0,1,1.81-.37,4,4,0,0,1,1.81.42,4.14,4.14,0,0,1,1.44,1.24v-1.4h2.21V190Zm-2.6-1.7a3,3,0,0,0,.77-.11,3.09,3.09,0,0,0,.73-.29,4.11,4.11,0,0,0,.63-.43,2.17,2.17,0,0,0,.47-.54v-4a2.8,2.8,0,0,0-.47-.52,3.55,3.55,0,0,0-1.36-.74,3,3,0,0,0-.77-.1,2.71,2.71,0,0,0-1.2.25,2.78,2.78,0,0,0-.9.69,3.29,3.29,0,0,0-.58,1.06,4.56,4.56,0,0,0-.2,1.36,4.45,4.45,0,0,0,.2,1.35,3.34,3.34,0,0,0,.58,1.07,2.7,2.7,0,0,0,.9.71A2.86,2.86,0,0,0,66.62,188.33Z" fill="#e32d27"/><path d="M77.35,190.28a2.58,2.58,0,0,1-1.95-.67,2.67,2.67,0,0,1-.65-2V181.8H73.07v-1.91h1.68v-2.78H77v2.78H79v1.91H77v5.31a1.49,1.49,0,0,0,.24.87.84.84,0,0,0,.73.35,1.4,1.4,0,0,0,.58-.12.94.94,0,0,0,.38-.26l.53,1.68a2.34,2.34,0,0,1-.8.46A3.48,3.48,0,0,1,77.35,190.28Z" fill="#e32d27"/><path d="M93.21,190.28a7.87,7.87,0,0,1-2.9-.52A6.84,6.84,0,0,1,86.42,186a8.05,8.05,0,0,1,0-5.9A6.84,6.84,0,0,1,88,177.8a6.77,6.77,0,0,1,2.33-1.48,7.87,7.87,0,0,1,2.9-.53,7.12,7.12,0,0,1,1.91.25,6.34,6.34,0,0,1,2.78,1.68,6.78,6.78,0,0,1,.91,1.2L96.73,180a4,4,0,0,0-1.45-1.46,3.93,3.93,0,0,0-2.07-.57,4.65,4.65,0,0,0-4.47,3,5.57,5.57,0,0,0-.36,2,5.48,5.48,0,0,0,.36,2,5.11,5.11,0,0,0,1,1.61,4.63,4.63,0,0,0,1.52,1.06,4.94,4.94,0,0,0,1.94.38,3.85,3.85,0,0,0,2.07-.58,4,4,0,0,0,1.45-1.46l2.1,1.05a8,8,0,0,1-.93,1.21,6.37,6.37,0,0,1-1.23,1,7.07,7.07,0,0,1-1.55.69A6.73,6.73,0,0,1,93.21,190.28Z" fill="#e32d27"/><path d="M107.59,190v-6.38A2,2,0,0,0,107,182a2.32,2.32,0,0,0-1.49-.43A2.87,2.87,0,0,0,104,182a3.91,3.91,0,0,0-1.06.92V190h-2.2V176H103v5.23a5.09,5.09,0,0,1,.62-.59,4.78,4.78,0,0,1,.82-.52,4.31,4.31,0,0,1,1-.37,4.56,4.56,0,0,1,1.14-.14,3.38,3.38,0,0,1,2.46.82,3.29,3.29,0,0,1,.82,2.4V190Z" fill="#e32d27"/><path d="M117.25,190.28a5.24,5.24,0,0,1-2.18-.43,5,5,0,0,1-1.64-1.15,5.07,5.07,0,0,1-1-1.7,6,6,0,0,1,0-4.11,5,5,0,0,1,1-1.69,4.85,4.85,0,0,1,1.64-1.15,5.87,5.87,0,0,1,4.36,0,4.85,4.85,0,0,1,1.64,1.15,5,5,0,0,1,1,1.69,6,6,0,0,1,0,4.11,5.07,5.07,0,0,1-1,1.7,5,5,0,0,1-1.64,1.15A5.24,5.24,0,0,1,117.25,190.28Zm0-1.95a2.78,2.78,0,0,0,1.26-.27,2.65,2.65,0,0,0,.91-.74,3.26,3.26,0,0,0,.56-1.08,4.24,4.24,0,0,0,.19-1.29,4.13,4.13,0,0,0-.19-1.28,3.12,3.12,0,0,0-.56-1.07,2.54,2.54,0,0,0-.91-.74,2.79,2.79,0,0,0-3.42.74,3.14,3.14,0,0,0-.57,1.07,4.13,4.13,0,0,0-.19,1.28,4.24,4.24,0,0,0,.19,1.29,3.28,3.28,0,0,0,.57,1.08,2.89,2.89,0,0,0,.92.74A2.79,2.79,0,0,0,117.25,188.33Z" fill="#e32d27"/><path d="M125.82,178.65a1.37,1.37,0,0,1-1.37-1.37,1.37,1.37,0,0,1,1.37-1.36,1.37,1.37,0,0,1,1.36,1.36,1.37,1.37,0,0,1-1.36,1.37ZM124.71,190V179.89h2.2V190Z" fill="#e32d27"/><path d="M134.39,190.28a5.33,5.33,0,0,1-2.11-.4,4.71,4.71,0,0,1-1.65-1.11,5.23,5.23,0,0,1-1.09-1.69,5.89,5.89,0,0,1-.38-2.13,5.79,5.79,0,0,1,.38-2.12,5.08,5.08,0,0,1,1.09-1.68,4.87,4.87,0,0,1,1.65-1.12,5.51,5.51,0,0,1,2.11-.4,5.58,5.58,0,0,1,1.35.15,4.49,4.49,0,0,1,1.07.4,4,4,0,0,1,.83.58,4.46,4.46,0,0,1,.63.68l-1.45,1.32a2.71,2.71,0,0,0-2.33-1.17,2.87,2.87,0,0,0-2.23.93,3.53,3.53,0,0,0-.84,2.43,3.9,3.9,0,0,0,.23,1.35,3.05,3.05,0,0,0,1.59,1.78,3.13,3.13,0,0,0,1.25.25,2.71,2.71,0,0,0,2.33-1.22l1.45,1.37a5.13,5.13,0,0,1-1.47,1.26A4.75,4.75,0,0,1,134.39,190.28Z" fill="#e32d27"/><path d="M144.93,190.28a5.68,5.68,0,0,1-2.13-.38,4.67,4.67,0,0,1-1.68-1.08,5.07,5.07,0,0,1-1.11-1.69,5.87,5.87,0,0,1-.39-2.18,5.71,5.71,0,0,1,.37-2.07,5.22,5.22,0,0,1,1.06-1.69,5.25,5.25,0,0,1,5.77-1.15,4.63,4.63,0,0,1,1.57,1.15,5,5,0,0,1,1,1.74,6.78,6.78,0,0,1,.35,2.21v.54h-7.82a3.48,3.48,0,0,0,.31,1.07,3,3,0,0,0,.65.9,2.78,2.78,0,0,0,1,.6,3.44,3.44,0,0,0,1.28.23,4.39,4.39,0,0,0,1.55-.3,3.59,3.59,0,0,0,1.35-.84l1,1.45a5,5,0,0,1-1.84,1.11A6.6,6.6,0,0,1,144.93,190.28Zm2.69-6.17a3.18,3.18,0,0,0-.2-.92,2.86,2.86,0,0,0-.53-.86,2.73,2.73,0,0,0-.87-.64,3.31,3.31,0,0,0-2.5,0,2.57,2.57,0,0,0-.87.63,3.11,3.11,0,0,0-.54.86,3.26,3.26,0,0,0-.21.94Z" fill="#e32d27"/><path d="M152.31,179.13v3.3h-.47v-3.3h-1.06v-.44h2.59v.44Zm4.83,3.3v-3.09l-1.27,3.09h-.14l-1.28-3.09v3.09H154v-3.74h.73l1.09,2.72,1.08-2.72h.74v3.74Z" fill="#e32d27"/><path d="M171.86,190v-1.39a4.4,4.4,0,0,1-1.42,1.2,3.91,3.91,0,0,1-1.84.44,4.44,4.44,0,0,1-1.79-.36,3.69,3.69,0,0,1-1.43-1,5.06,5.06,0,0,1-.94-1.68,7.67,7.67,0,0,1,0-4.45,5.06,5.06,0,0,1,.94-1.68A4.11,4.11,0,0,1,166.8,180a4.39,4.39,0,0,1,1.8-.37,4,4,0,0,1,1.81.42,4.17,4.17,0,0,1,1.45,1.24V176h2.2v14Zm-2.61-1.7a3,3,0,0,0,.77-.11,3.09,3.09,0,0,0,.73-.29,3.32,3.32,0,0,0,.63-.43,2.45,2.45,0,0,0,.48-.54v-4a3.29,3.29,0,0,0-.48-.52,2.63,2.63,0,0,0-.63-.44,3.12,3.12,0,0,0-.73-.3,3,3,0,0,0-.77-.1,2.67,2.67,0,0,0-1.19.25,2.93,2.93,0,0,0-.91.69,3.09,3.09,0,0,0-.57,1.06,4.26,4.26,0,0,0-.2,1.36,4.16,4.16,0,0,0,.2,1.35,3.14,3.14,0,0,0,.57,1.07,2.84,2.84,0,0,0,.91.71A2.81,2.81,0,0,0,169.25,188.33Z" fill="#e32d27"/><path d="M181.52,190.28a5.32,5.32,0,0,1-2.19-.43,4.87,4.87,0,0,1-2.66-2.85,6,6,0,0,1,0-4.11,4.87,4.87,0,0,1,1-1.69,4.81,4.81,0,0,1,1.63-1.15,5.48,5.48,0,0,1,2.19-.42,5.4,5.4,0,0,1,2.18.42,5,5,0,0,1,1.64,1.15,5,5,0,0,1,1,1.69,6,6,0,0,1,0,4.11,4.85,4.85,0,0,1-2.67,2.85A5.24,5.24,0,0,1,181.52,190.28Zm0-1.95a2.84,2.84,0,0,0,1.26-.27,2.75,2.75,0,0,0,.91-.74,3.26,3.26,0,0,0,.56-1.08,4.57,4.57,0,0,0,.19-1.29,4.45,4.45,0,0,0-.19-1.28,3.12,3.12,0,0,0-.56-1.07,2.63,2.63,0,0,0-.91-.74,2.84,2.84,0,0,0-1.26-.27,2.76,2.76,0,0,0-1.24.27,2.8,2.8,0,0,0-.93.74,3,3,0,0,0-.56,1.07,4.13,4.13,0,0,0-.19,1.28,4.24,4.24,0,0,0,.19,1.29,3.09,3.09,0,0,0,.56,1.08,2.93,2.93,0,0,0,.93.74A2.76,2.76,0,0,0,181.52,188.33Z" fill="#e32d27"/><path d="M193.11,194.15a7.4,7.4,0,0,1-2.31-.33,5.35,5.35,0,0,1-2-1.19l1-1.59a3.43,3.43,0,0,0,1.42,1,5.13,5.13,0,0,0,1.81.3,4.45,4.45,0,0,0,1.08-.14,2.65,2.65,0,0,0,1-.47,2.51,2.51,0,0,0,.69-.87,3.17,3.17,0,0,0,.26-1.36v-1.15a4.44,4.44,0,0,1-1.42,1.24,3.66,3.66,0,0,1-1.83.46,4.62,4.62,0,0,1-1.8-.35,4,4,0,0,1-1.43-1,4.73,4.73,0,0,1-.93-1.63,6.66,6.66,0,0,1-.34-2.23,6.52,6.52,0,0,1,.34-2.2,4.68,4.68,0,0,1,.93-1.64,3.88,3.88,0,0,1,1.42-1,4.64,4.64,0,0,1,1.81-.35,4,4,0,0,1,1.8.42,4.08,4.08,0,0,1,1.45,1.24v-1.4h2.21v9.61a4.93,4.93,0,0,1-.47,2.27,3.85,3.85,0,0,1-1.2,1.43,4.9,4.9,0,0,1-1.68.74A8.56,8.56,0,0,1,193.11,194.15Zm.4-6.07a3.36,3.36,0,0,0,2.6-1.35v-3.8A3.13,3.13,0,0,0,195,182a3,3,0,0,0-1.5-.4,2.63,2.63,0,0,0-2.1.89,3.46,3.46,0,0,0-.78,2.36,3.4,3.4,0,0,0,.78,2.35A2.66,2.66,0,0,0,193.51,188.08Z" fill="#e32d27"/><path d="M212.05,190.28a3.78,3.78,0,0,1-1.79-.43,4.49,4.49,0,0,1-1.46-1.23v5.27h-2.21v-14h2.21v1.38a4,4,0,0,1,1.4-1.19,3.86,3.86,0,0,1,1.85-.45,4.47,4.47,0,0,1,1.81.36,4,4,0,0,1,1.41,1,4.84,4.84,0,0,1,.94,1.67,7.1,7.1,0,0,1,.33,2.25,7,7,0,0,1-.33,2.24,4.75,4.75,0,0,1-.94,1.67,3.92,3.92,0,0,1-1.41,1A4.31,4.31,0,0,1,212.05,190.28Zm-.65-1.95a2.59,2.59,0,0,0,2.1-1,3.69,3.69,0,0,0,.78-2.43,3.65,3.65,0,0,0-.78-2.43,2.6,2.6,0,0,0-2.1-.93,3.11,3.11,0,0,0-1.5.39,3,3,0,0,0-1.1,1v4a2.41,2.41,0,0,0,.47.55,3.54,3.54,0,0,0,.63.44,3.09,3.09,0,0,0,.73.29A3,3,0,0,0,211.4,188.33Z" fill="#e32d27"/><path d="M225.89,190v-1.39a4.2,4.2,0,0,1-1.42,1.2,3.87,3.87,0,0,1-1.83.44,4.45,4.45,0,0,1-1.8-.36,3.77,3.77,0,0,1-1.43-1,4.87,4.87,0,0,1-.93-1.68,7.45,7.45,0,0,1,0-4.45,4.87,4.87,0,0,1,.93-1.68,4.11,4.11,0,0,1,1.42-1.06,4.47,4.47,0,0,1,1.81-.37,4,4,0,0,1,1.8.42,4.17,4.17,0,0,1,1.45,1.24v-1.4h2.21V190Zm-2.6-1.7a2.91,2.91,0,0,0,.76-.11,3.16,3.16,0,0,0,.74-.29,4.11,4.11,0,0,0,.63-.43,2.4,2.4,0,0,0,.47-.54v-4a3.2,3.2,0,0,0-.47-.52,3.09,3.09,0,0,0-.63-.44,3.19,3.19,0,0,0-.74-.3,2.89,2.89,0,0,0-.76-.1,2.71,2.71,0,0,0-1.2.25,2.78,2.78,0,0,0-.9.69,3,3,0,0,0-.58,1.06,4.56,4.56,0,0,0-.2,1.36,4.45,4.45,0,0,0,.2,1.35,3,3,0,0,0,.58,1.07,2.7,2.7,0,0,0,.9.71A2.86,2.86,0,0,0,223.29,188.33Z" fill="#e32d27"/><path d="M238.09,190v-1.39a4.2,4.2,0,0,1-1.42,1.2,3.87,3.87,0,0,1-1.83.44,4.45,4.45,0,0,1-1.8-.36,3.77,3.77,0,0,1-1.43-1,4.87,4.87,0,0,1-.93-1.68,7.45,7.45,0,0,1,0-4.45,4.87,4.87,0,0,1,.93-1.68A4.11,4.11,0,0,1,233,180a4.47,4.47,0,0,1,1.81-.37,4,4,0,0,1,1.8.42,4.08,4.08,0,0,1,1.45,1.24V176h2.21v14Zm-2.6-1.7a2.85,2.85,0,0,0,.76-.11,3.16,3.16,0,0,0,.74-.29,4.11,4.11,0,0,0,.63-.43,2.17,2.17,0,0,0,.47-.54v-4a2.8,2.8,0,0,0-.47-.52A3.09,3.09,0,0,0,237,182a3.19,3.19,0,0,0-.74-.3,2.84,2.84,0,0,0-.76-.1,2.71,2.71,0,0,0-1.2.25,2.78,2.78,0,0,0-.9.69,3.11,3.11,0,0,0-.58,1.06,4.56,4.56,0,0,0-.2,1.36,4.45,4.45,0,0,0,.2,1.35,3.15,3.15,0,0,0,.58,1.07,2.7,2.7,0,0,0,.9.71A2.86,2.86,0,0,0,235.49,188.33Z" fill="#e32d27"/><path d="M246.64,190.28a7.1,7.1,0,0,1-2.44-.41,5.4,5.4,0,0,1-1.91-1.18l1-1.58a4.51,4.51,0,0,0,.65.53,6.59,6.59,0,0,0,.84.45,5.38,5.38,0,0,0,1,.31,4.09,4.09,0,0,0,1,.12,2.58,2.58,0,0,0,1.51-.37,1.14,1.14,0,0,0,.51-1,.8.8,0,0,0-.45-.75,4.4,4.4,0,0,0-1.14-.42c-.45-.11-1-.23-1.48-.34a6.45,6.45,0,0,1-1.48-.5,3.37,3.37,0,0,1-1.13-.91,2.4,2.4,0,0,1-.45-1.55,2.69,2.69,0,0,1,.26-1.19,2.74,2.74,0,0,1,.77-1,3.66,3.66,0,0,1,1.24-.66,5.33,5.33,0,0,1,1.72-.25,6.19,6.19,0,0,1,2.28.4,5.63,5.63,0,0,1,1.64,1l-.92,1.56a3.75,3.75,0,0,0-1.25-.87,4.31,4.31,0,0,0-1.75-.35,2.39,2.39,0,0,0-1.38.35,1.08,1.08,0,0,0-.49.91.72.72,0,0,0,.45.67,5.47,5.47,0,0,0,1.13.39l1.48.33a6.17,6.17,0,0,1,1.48.53,3.17,3.17,0,0,1,1.14.94,2.63,2.63,0,0,1,.45,1.61,3,3,0,0,1-.27,1.26,2.92,2.92,0,0,1-.81,1,4.08,4.08,0,0,1-1.32.66A6.32,6.32,0,0,1,246.64,190.28Z" fill="#e32d27"/><path d="M23.1,207.17a5.3,5.3,0,0,1-1.9-.47,4.76,4.76,0,0,1-1.37-1l.93-1.28a4.13,4.13,0,0,0,1,.79,3.55,3.55,0,0,0,1.36.47V203c-.37-.09-.73-.2-1.08-.32a3.62,3.62,0,0,1-.94-.48,2.19,2.19,0,0,1-.94-1.9,2.47,2.47,0,0,1,.21-1,2.55,2.55,0,0,1,.6-.83,3.11,3.11,0,0,1,.93-.6,3.83,3.83,0,0,1,1.22-.28v-1.29h1.12v1.3a5.28,5.28,0,0,1,1.56.42,4.32,4.32,0,0,1,1.25.85l-.93,1.22a3.36,3.36,0,0,0-.88-.64,4.26,4.26,0,0,0-1-.35v2.42c.36.09.72.2,1.09.33a3.42,3.42,0,0,1,1,.5,2.66,2.66,0,0,1,.7.79,2.37,2.37,0,0,1,.27,1.18,2.92,2.92,0,0,1-.18,1,2.46,2.46,0,0,1-.55.88,2.9,2.9,0,0,1-.95.65,4.32,4.32,0,0,1-1.35.32v1.26H23.1Zm-1.28-7a.73.73,0,0,0,.36.64,3.29,3.29,0,0,0,.92.41V199a1.65,1.65,0,0,0-.94.38A1,1,0,0,0,21.82,200.17Zm3.75,4.28a.84.84,0,0,0-.38-.73,3.81,3.81,0,0,0-1-.44v2.43a1.61,1.61,0,0,0,1-.48A1.19,1.19,0,0,0,25.57,204.45Z" fill="#e32d27"/><path d="M31.83,211V200.19l-2.29,2.4-1.43-1.49,4-4.08h2.14v14Z" fill="#e32d27"/><path d="M42.16,211.28a7.23,7.23,0,0,1-3.06-.58A6,6,0,0,1,37,209.12l1.4-1.7a4.7,4.7,0,0,0,3.76,1.68,3,3,0,0,0,2.11-.72,2.46,2.46,0,0,0,0-3.57,3,3,0,0,0-2.06-.67,4.81,4.81,0,0,0-1.63.28,4.3,4.3,0,0,0-1.43.92l-1.74-.51V197h9.17v2.19H39.85v4a4.87,4.87,0,0,1,1.35-.84A4.45,4.45,0,0,1,43,202a4.66,4.66,0,0,1,1.7.31,4.08,4.08,0,0,1,1.44.88,4,4,0,0,1,1,1.41,4.67,4.67,0,0,1,.37,1.92,4.77,4.77,0,0,1-.4,2A4.42,4.42,0,0,1,46,210a5.17,5.17,0,0,1-1.69,1A6.81,6.81,0,0,1,42.16,211.28Z" fill="#e32d27"/><path d="M51,211.26a1.49,1.49,0,0,1-1.47-1.49,1.39,1.39,0,0,1,.43-1,1.42,1.42,0,0,1,1-.43,1.47,1.47,0,0,1,1.47,1.45A1.49,1.49,0,0,1,51,211.26Z" fill="#e32d27"/><path d="M59.13,211.26a5.75,5.75,0,0,1-2.32-.43,5.57,5.57,0,0,1-1.71-1.12l1.15-1.87a4.33,4.33,0,0,0,1.21.91,3.73,3.73,0,0,0,1.67.33,3.36,3.36,0,0,0,1.65-.4,3.52,3.52,0,0,0,1.15-1.05,4.89,4.89,0,0,0,.68-1.48,6.94,6.94,0,0,0,.22-1.69v-.2a.69.69,0,0,0,0-.2,3.51,3.51,0,0,1-.61.7,5.34,5.34,0,0,1-.88.63,4.39,4.39,0,0,1-1.06.45,4.3,4.3,0,0,1-1.2.17,5.65,5.65,0,0,1-1.8-.28,4.39,4.39,0,0,1-1.49-.85,4,4,0,0,1-1-1.42,4.83,4.83,0,0,1-.38-2,4.67,4.67,0,0,1,.37-1.83,4.39,4.39,0,0,1,1-1.5,4.73,4.73,0,0,1,1.63-1,5.77,5.77,0,0,1,2.13-.37,5.52,5.52,0,0,1,2.63.58,4.89,4.89,0,0,1,1.8,1.57,7.13,7.13,0,0,1,1,2.31A11.36,11.36,0,0,1,65.3,204a10,10,0,0,1-.39,2.83,6.86,6.86,0,0,1-1.18,2.3,5.49,5.49,0,0,1-1.93,1.54A6,6,0,0,1,59.13,211.26Zm.59-7.35a3.47,3.47,0,0,0,1.71-.45,4.12,4.12,0,0,0,1.35-1.21,5.18,5.18,0,0,0-.25-1.14,3.29,3.29,0,0,0-.55-1.05,2.87,2.87,0,0,0-.94-.78,2.93,2.93,0,0,0-1.38-.3,3.06,3.06,0,0,0-1.22.22,2.76,2.76,0,0,0-.89.56,2.44,2.44,0,0,0-.53.79,2.25,2.25,0,0,0-.18.86,2.62,2.62,0,0,0,.23,1.13,2.27,2.27,0,0,0,.63.77,2.68,2.68,0,0,0,.93.45A3.93,3.93,0,0,0,59.72,203.91Z" fill="#e32d27"/><path d="M71.75,211.26a5.79,5.79,0,0,1-2.32-.43,5.7,5.7,0,0,1-1.71-1.12l1.15-1.87a4.33,4.33,0,0,0,1.21.91,3.73,3.73,0,0,0,1.67.33,3.36,3.36,0,0,0,1.65-.4,3.52,3.52,0,0,0,1.15-1.05,4.66,4.66,0,0,0,.68-1.48,6.94,6.94,0,0,0,.22-1.69v-.2a1.36,1.36,0,0,0,0-.2,3.58,3.58,0,0,1-.62.7,5.34,5.34,0,0,1-.88.63,4.49,4.49,0,0,1-1.05.45,4.42,4.42,0,0,1-1.21.17,5.65,5.65,0,0,1-1.8-.28,4.39,4.39,0,0,1-1.49-.85,4,4,0,0,1-1-1.42,4.83,4.83,0,0,1-.38-2,4.67,4.67,0,0,1,.37-1.83,4.39,4.39,0,0,1,1-1.5,4.73,4.73,0,0,1,1.63-1,5.81,5.81,0,0,1,2.13-.37,5.59,5.59,0,0,1,2.64.58,4.94,4.94,0,0,1,1.79,1.57,7.13,7.13,0,0,1,1,2.31,11.36,11.36,0,0,1,.32,2.77,10,10,0,0,1-.39,2.83,6.86,6.86,0,0,1-1.18,2.3,5.49,5.49,0,0,1-1.93,1.54A6,6,0,0,1,71.75,211.26Zm.59-7.35a3.47,3.47,0,0,0,1.71-.45,4.26,4.26,0,0,0,1.36-1.21,5.86,5.86,0,0,0-.26-1.14,3.29,3.29,0,0,0-.55-1.05,2.87,2.87,0,0,0-.94-.78,2.93,2.93,0,0,0-1.38-.3,3.06,3.06,0,0,0-1.22.22,2.61,2.61,0,0,0-.88.56,2.32,2.32,0,0,0-.54.79,2.25,2.25,0,0,0-.18.86,2.62,2.62,0,0,0,.23,1.13,2.27,2.27,0,0,0,.63.77,2.68,2.68,0,0,0,.93.45A3.93,3.93,0,0,0,72.34,203.91Z" fill="#e32d27"/></g><g id="REC"><rect width="300" height="600" fill="none"/></g></g></svg>