<svg xmlns="http://www.w3.org/2000/svg" viewBox="0 0 300 600"><title>SUBHED</title><g id="Layer_2" data-name="Layer 2"><g id="SUBHED"><path d="M31,129.88a7.65,7.65,0,0,1-2.83-.53,7,7,0,0,1-2.34-1.51,6.94,6.94,0,0,1-1.58-2.36,7.76,7.76,0,0,1-.58-3.06,7.62,7.62,0,0,1,.59-3.08A7,7,0,0,1,25.82,117a7.3,7.3,0,0,1,2.4-1.49,7.91,7.91,0,0,1,2.94-.53,7.23,7.23,0,0,1,1.93.24,7,7,0,0,1,1.59.63,6.28,6.28,0,0,1,1.27,1,9.58,9.58,0,0,1,1,1.15l-2,1.19a4.7,4.7,0,0,0-1.55-1.37,4.31,4.31,0,0,0-2.18-.55,4.93,4.93,0,0,0-2,.39,4.68,4.68,0,0,0-1.57,1.08,5.19,5.19,0,0,0-1,1.64,5.69,5.69,0,0,0-.38,2.1,5.56,5.56,0,0,0,.38,2.07,5.13,5.13,0,0,0,1,1.65,4.6,4.6,0,0,0,1.57,1.1,4.92,4.92,0,0,0,2,.38,4.42,4.42,0,0,0,1.63-.28,3.82,3.82,0,0,0,1.24-.77,4,4,0,0,0,.85-1.14,6,6,0,0,0,.49-1.36H30.26v-2.25H38.1a10.69,10.69,0,0,1-.48,3.32,7.3,7.3,0,0,1-1.4,2.53A6.13,6.13,0,0,1,34,129.3,7.4,7.4,0,0,1,31,129.88Z" fill="#ec1c24"/><path d="M39.63,129.6V119.18H41.9v1.51a5.23,5.23,0,0,1,1.49-1.26,3.72,3.72,0,0,1,1.89-.51v2.25a2.87,2.87,0,0,0-.69-.07,3,3,0,0,0-.76.11,3.7,3.7,0,0,0-.78.3,3.65,3.65,0,0,0-.68.45,2.52,2.52,0,0,0-.47.54v7.1Z" fill="#ec1c24"/><path d="M47.12,129.6V119.18h2.26v1.51a5.23,5.23,0,0,1,1.49-1.26,3.73,3.73,0,0,1,1.9-.51v2.25a3,3,0,0,0-.69-.07,3,3,0,0,0-.77.11,3.92,3.92,0,0,0-.78.3,4,4,0,0,0-.68.45,2.83,2.83,0,0,0-.47.54v7.1Z" fill="#ec1c24"/><path d="M59.43,129.86a6,6,0,0,1-2.19-.39,4.9,4.9,0,0,1-2.86-2.85,6,6,0,0,1-.41-2.24,5.84,5.84,0,0,1,.39-2.13,5.17,5.17,0,0,1,2.76-2.9,5.33,5.33,0,0,1,2.13-.43,5.21,5.21,0,0,1,2.12.42A4.64,4.64,0,0,1,63,120.52a5.19,5.19,0,0,1,1,1.79,6.82,6.82,0,0,1,.36,2.26v.56h-8a3.41,3.41,0,0,0,.32,1.1,2.87,2.87,0,0,0,.67.92,2.91,2.91,0,0,0,1,.62,3.4,3.4,0,0,0,1.31.23,4.66,4.66,0,0,0,1.6-.3,3.8,3.8,0,0,0,1.38-.86l1,1.48a5.2,5.2,0,0,1-1.89,1.15A7,7,0,0,1,59.43,129.86Zm2.76-6.34a3.26,3.26,0,0,0-.21-.94A2.73,2.73,0,0,0,60.55,121,3.36,3.36,0,0,0,58,121a2.67,2.67,0,0,0-.89.64,2.94,2.94,0,0,0-.55.89,3,3,0,0,0-.22,1Z" fill="#ec1c24"/><path d="M73.94,129.6v-1.43a4.43,4.43,0,0,1-1.46,1.23,4,4,0,0,1-1.88.46,4.7,4.7,0,0,1-1.85-.37,4,4,0,0,1-1.46-1.08,5.12,5.12,0,0,1-1-1.72,7.19,7.19,0,0,1-.35-2.31,7.07,7.07,0,0,1,.35-2.27,5.12,5.12,0,0,1,1-1.72,4.17,4.17,0,0,1,1.45-1.09,4.51,4.51,0,0,1,1.86-.38,4.16,4.16,0,0,1,1.85.43,4.22,4.22,0,0,1,1.49,1.28v-1.45H76.2V129.6Zm-2.68-1.75a3.07,3.07,0,0,0,.79-.11,3.34,3.34,0,0,0,.76-.3,4.25,4.25,0,0,0,.64-.44,2.52,2.52,0,0,0,.49-.55v-4.12a2.72,2.72,0,0,0-.49-.54,3.67,3.67,0,0,0-.64-.45,3.34,3.34,0,0,0-.76-.3,2.69,2.69,0,0,0-.79-.11,2.77,2.77,0,0,0-1.22.26,2.81,2.81,0,0,0-.93.71,2.94,2.94,0,0,0-.59,1.09,4.71,4.71,0,0,0,0,2.78,3.15,3.15,0,0,0,.59,1.1,2.71,2.71,0,0,0,.93.72A2.77,2.77,0,0,0,71.26,127.85Z" fill="#ec1c24"/><path d="M82.28,129.86a2.65,2.65,0,0,1-2-.69,2.76,2.76,0,0,1-.67-2v-6H77.88v-2h1.73v-2.84h2.26v2.84H84v2H81.87v5.46a1.53,1.53,0,0,0,.25.89.84.84,0,0,0,.74.36,1.46,1.46,0,0,0,.6-.12,1.16,1.16,0,0,0,.4-.27l.53,1.73a2.58,2.58,0,0,1-.81.47A3.74,3.74,0,0,1,82.28,129.86Z" fill="#ec1c24"/><path d="M98.56,129.86a8.13,8.13,0,0,1-3-.54,7.33,7.33,0,0,1-2.39-1.52,7.13,7.13,0,0,1-1.59-2.35,8.08,8.08,0,0,1,0-6.06A6.93,6.93,0,0,1,93.19,117a7.17,7.17,0,0,1,2.39-1.52,8.13,8.13,0,0,1,3-.54,6.69,6.69,0,0,1,2,.26,6.3,6.3,0,0,1,2.86,1.72,7.17,7.17,0,0,1,.94,1.23l-2.14,1.12a4.24,4.24,0,0,0-1.48-1.5,4.08,4.08,0,0,0-2.14-.59,4.93,4.93,0,0,0-2,.39A4.68,4.68,0,0,0,95,118.69a5.08,5.08,0,0,0-1,1.64,5.88,5.88,0,0,0,0,4.16,5.36,5.36,0,0,0,1,1.65,4.71,4.71,0,0,0,1.57,1.09,5.1,5.1,0,0,0,2,.38,4,4,0,0,0,2.14-.59,4.17,4.17,0,0,0,1.48-1.5l2.16,1.08a8.43,8.43,0,0,1-1,1.24,6.3,6.3,0,0,1-1.26,1,6.55,6.55,0,0,1-3.56,1Z" fill="#ec1c24"/><path d="M113.33,129.6V123a2.05,2.05,0,0,0-.56-1.67,2.46,2.46,0,0,0-1.53-.44,3,3,0,0,0-1.59.43,4,4,0,0,0-1.09,1v7.29H106.3V115.22h2.26v5.36a5.36,5.36,0,0,1,.64-.6,5,5,0,0,1,.84-.54,5.27,5.27,0,0,1,1-.38,5,5,0,0,1,1.18-.14,3.42,3.42,0,0,1,2.52.84,3.35,3.35,0,0,1,.84,2.46v7.38Z" fill="#ec1c24"/><path d="M123.25,129.86a5.33,5.33,0,0,1-2.24-.45,5,5,0,0,1-1.69-1.18,5.13,5.13,0,0,1-1-1.74,6.2,6.2,0,0,1,0-4.22,5,5,0,0,1,1-1.74,4.9,4.9,0,0,1,1.69-1.18,6,6,0,0,1,4.48,0,5,5,0,0,1,1.68,1.18,5.22,5.22,0,0,1,1.06,1.74,6.36,6.36,0,0,1,0,4.22,5.32,5.32,0,0,1-1.06,1.74,5.09,5.09,0,0,1-1.68,1.18A5.37,5.37,0,0,1,123.25,129.86Zm0-2a2.77,2.77,0,0,0,2.23-1,3.43,3.43,0,0,0,.57-1.11,4.55,4.55,0,0,0,.19-1.33,4.44,4.44,0,0,0-.19-1.32,3.49,3.49,0,0,0-.57-1.1,2.77,2.77,0,0,0-2.23-1,2.73,2.73,0,0,0-1.27.28,2.93,2.93,0,0,0-1,.75,3.14,3.14,0,0,0-.58,1.1,4.44,4.44,0,0,0-.2,1.32,4.56,4.56,0,0,0,.2,1.33,3.1,3.1,0,0,0,.58,1.11,2.93,2.93,0,0,0,1,.75A2.73,2.73,0,0,0,123.25,127.85Z" fill="#ec1c24"/><path d="M132,117.91a1.38,1.38,0,0,1-1-.41,1.41,1.41,0,1,1,2,0A1.39,1.39,0,0,1,132,117.91ZM130.9,129.6V119.18h2.27V129.6Z" fill="#ec1c24"/><path d="M140.84,129.86a5.67,5.67,0,0,1-2.17-.41A5.22,5.22,0,0,1,137,128.3a5.35,5.35,0,0,1-1.11-1.73,6,6,0,0,1-.4-2.19,5.91,5.91,0,0,1,.4-2.18,5.31,5.31,0,0,1,1.11-1.72,5.22,5.22,0,0,1,1.69-1.15,5.67,5.67,0,0,1,2.17-.41,5.86,5.86,0,0,1,1.39.15,5.25,5.25,0,0,1,1.1.41,3.9,3.9,0,0,1,.85.6,4.74,4.74,0,0,1,.65.7l-1.49,1.36a2.76,2.76,0,0,0-2.39-1.21,2.94,2.94,0,0,0-2.29,1,3.61,3.61,0,0,0-.86,2.49,4.14,4.14,0,0,0,.23,1.39,3.25,3.25,0,0,0,.64,1.1,3,3,0,0,0,2.28,1,2.78,2.78,0,0,0,2.39-1.25l1.49,1.4a5.09,5.09,0,0,1-1.51,1.29A4.77,4.77,0,0,1,140.84,129.86Z" fill="#ec1c24"/><path d="M151.67,129.86a6,6,0,0,1-2.19-.39,5,5,0,0,1-1.73-1.11,5.09,5.09,0,0,1-1.13-1.74,6,6,0,0,1-.41-2.24,5.84,5.84,0,0,1,.39-2.13,5.24,5.24,0,0,1,1.09-1.73,5.13,5.13,0,0,1,1.67-1.17,5.3,5.3,0,0,1,2.13-.43,5.21,5.21,0,0,1,2.12.42,4.64,4.64,0,0,1,1.61,1.18,5.19,5.19,0,0,1,1,1.79,7.09,7.09,0,0,1,.35,2.26v.56h-8a3.4,3.4,0,0,0,.31,1.1,3.2,3.2,0,0,0,.67.92,3,3,0,0,0,1,.62,3.37,3.37,0,0,0,1.31.23,4.66,4.66,0,0,0,1.6-.3,3.89,3.89,0,0,0,1.38-.86l1,1.48a5.16,5.16,0,0,1-1.9,1.15A6.89,6.89,0,0,1,151.67,129.86Zm2.75-6.34a2.94,2.94,0,0,0-.2-.94,2.73,2.73,0,0,0-.54-.89,2.85,2.85,0,0,0-.89-.65,3.36,3.36,0,0,0-2.57,0,2.58,2.58,0,0,0-.89.64,2.94,2.94,0,0,0-.55.89,2.79,2.79,0,0,0-.22,1Z" fill="#ec1c24"/><path d="M159.69,115.78V120h-.61v-4.18h-1.33v-.56H161v.56Zm6.12,4.18V116L164.19,120H164L162.4,116V120h-.6v-4.74h.93l1.38,3.45,1.38-3.45h.92V120Z" fill="#ec1c24"/><path d="M181.53,129.6v-1.43a4.53,4.53,0,0,1-1.46,1.23,4,4,0,0,1-1.88.46,4.7,4.7,0,0,1-1.85-.37,4,4,0,0,1-1.46-1.08,5.12,5.12,0,0,1-1-1.72,7.19,7.19,0,0,1-.35-2.31,7.07,7.07,0,0,1,.35-2.27,5.12,5.12,0,0,1,1-1.72,4.17,4.17,0,0,1,1.45-1.09,4.51,4.51,0,0,1,1.86-.38,4.19,4.19,0,0,1,1.85.43,4.31,4.31,0,0,1,1.49,1.28v-5.41h2.26V129.6Zm-2.68-1.75a3.07,3.07,0,0,0,.79-.11,3.34,3.34,0,0,0,.76-.3A4.25,4.25,0,0,0,181,127a2.52,2.52,0,0,0,.49-.55v-4.12a2.72,2.72,0,0,0-.49-.54,3.67,3.67,0,0,0-.64-.45,3.34,3.34,0,0,0-.76-.3,2.69,2.69,0,0,0-.79-.11,2.85,2.85,0,0,0-1.23.26,2.88,2.88,0,0,0-.92.71,3.1,3.1,0,0,0-.6,1.09,4.93,4.93,0,0,0,0,2.78,3.34,3.34,0,0,0,.6,1.1,2.78,2.78,0,0,0,.92.72A2.85,2.85,0,0,0,178.85,127.85Z" fill="#ec1c24"/><path d="M191.45,129.86a5.38,5.38,0,0,1-2.25-.45,5.09,5.09,0,0,1-1.68-1.18,5.32,5.32,0,0,1-1.06-1.74,6.36,6.36,0,0,1,0-4.22,5.22,5.22,0,0,1,1.06-1.74,5,5,0,0,1,1.68-1.18,6.08,6.08,0,0,1,4.49,0,5,5,0,0,1,1.68,1.18,5.22,5.22,0,0,1,1.06,1.74,6.36,6.36,0,0,1,0,4.22,5.32,5.32,0,0,1-1.06,1.74,5.09,5.09,0,0,1-1.68,1.18A5.37,5.37,0,0,1,191.45,129.86Zm0-2a2.84,2.84,0,0,0,1.29-.28,3,3,0,0,0,.94-.75,3.43,3.43,0,0,0,.57-1.11,4.55,4.55,0,0,0,.19-1.33,4.44,4.44,0,0,0-.19-1.32,3.49,3.49,0,0,0-.57-1.1,3,3,0,0,0-.94-.75,2.84,2.84,0,0,0-1.29-.28,2.8,2.8,0,0,0-1.28.28,3,3,0,0,0-.95.75,3.51,3.51,0,0,0-.58,1.1,4.44,4.44,0,0,0-.19,1.32,4.55,4.55,0,0,0,.19,1.33,3.45,3.45,0,0,0,.58,1.11,3,3,0,0,0,.95.75A2.8,2.8,0,0,0,191.45,127.85Z" fill="#ec1c24"/><path d="M203.35,133.82a7.91,7.91,0,0,1-2.38-.33,5.57,5.57,0,0,1-2-1.22l1.06-1.64a3.62,3.62,0,0,0,1.46,1,5.42,5.42,0,0,0,1.86.3,4.69,4.69,0,0,0,1.11-.14,2.87,2.87,0,0,0,1-.49,2.62,2.62,0,0,0,.71-.89,3.16,3.16,0,0,0,.27-1.39v-1.19a4.55,4.55,0,0,1-1.46,1.27,3.73,3.73,0,0,1-1.88.48,4.73,4.73,0,0,1-1.85-.36,4,4,0,0,1-1.46-1,4.88,4.88,0,0,1-1-1.67,7,7,0,0,1-.35-2.29,6.83,6.83,0,0,1,.35-2.26,4.93,4.93,0,0,1,1-1.68,4.06,4.06,0,0,1,1.45-1,4.67,4.67,0,0,1,1.86-.36,4.16,4.16,0,0,1,1.85.43,4.22,4.22,0,0,1,1.49,1.28v-1.45h2.26v9.88a5.06,5.06,0,0,1-.47,2.33,4,4,0,0,1-1.24,1.46,4.91,4.91,0,0,1-1.73.76A8.78,8.78,0,0,1,203.35,133.82Zm.41-6.23a3.09,3.09,0,0,0,1.54-.41,3.2,3.2,0,0,0,1.13-1v-3.9a3.31,3.31,0,0,0-1.13-1,3.2,3.2,0,0,0-1.54-.41,2.69,2.69,0,0,0-2.16.92,4.06,4.06,0,0,0,0,4.84A2.74,2.74,0,0,0,203.76,127.59Z" fill="#ec1c24"/><path d="M222.79,129.86a3.88,3.88,0,0,1-1.84-.45,4.48,4.48,0,0,1-1.5-1.26v5.41h-2.26V119.18h2.26v1.43a4.2,4.2,0,0,1,1.45-1.23,3.89,3.89,0,0,1,1.89-.46,4.68,4.68,0,0,1,1.86.37,4.12,4.12,0,0,1,1.45,1.07,5,5,0,0,1,1,1.71,7.8,7.8,0,0,1,0,4.62,5.07,5.07,0,0,1-1,1.71,4.15,4.15,0,0,1-1.45,1.08A4.51,4.51,0,0,1,222.79,129.86Zm-.66-2a2.63,2.63,0,0,0,2.15-1,3.82,3.82,0,0,0,.8-2.5,3.78,3.78,0,0,0-.8-2.49,2.65,2.65,0,0,0-2.15-1,3.2,3.2,0,0,0-1.55.4,3,3,0,0,0-1.13,1v4.12a2.56,2.56,0,0,0,.49.56,3.67,3.67,0,0,0,.64.45,3.34,3.34,0,0,0,.76.3A3.13,3.13,0,0,0,222.13,127.85Z" fill="#ec1c24"/><path d="M237,129.6v-1.43a4.39,4.39,0,0,1-1.45,1.23,4,4,0,0,1-1.89.46,4.69,4.69,0,0,1-1.84-.37,4,4,0,0,1-1.47-1.08,5.12,5.12,0,0,1-1-1.72,7.19,7.19,0,0,1-.34-2.31,7.07,7.07,0,0,1,.34-2.27,5.12,5.12,0,0,1,1-1.72,4.21,4.21,0,0,1,1.46-1.09,4.5,4.5,0,0,1,1.85-.38,4.23,4.23,0,0,1,1.86.43,4.19,4.19,0,0,1,1.48,1.28v-1.45h2.27V129.6Zm-2.67-1.75a3.13,3.13,0,0,0,.79-.11,3.46,3.46,0,0,0,.75-.3,3.89,3.89,0,0,0,.65-.44,2.46,2.46,0,0,0,.48-.55v-4.12a2.66,2.66,0,0,0-.48-.54,3.41,3.41,0,0,0-.65-.45,3.46,3.46,0,0,0-.75-.3,2.74,2.74,0,0,0-.79-.11,2.85,2.85,0,0,0-1.23.26,2.81,2.81,0,0,0-.93.71,3.25,3.25,0,0,0-.59,1.09,4.93,4.93,0,0,0,0,2.78,3.51,3.51,0,0,0,.59,1.1,2.71,2.71,0,0,0,.93.72A2.85,2.85,0,0,0,234.33,127.85Z" fill="#ec1c24"/><path d="M249.53,129.6v-1.43a4.49,4.49,0,0,1-1.45,1.23,4,4,0,0,1-1.89.46,4.74,4.74,0,0,1-1.85-.37,4.06,4.06,0,0,1-1.46-1.08,5.12,5.12,0,0,1-1-1.72,7.19,7.19,0,0,1-.35-2.31,7.07,7.07,0,0,1,.35-2.27,5.12,5.12,0,0,1,1-1.72,4.17,4.17,0,0,1,1.45-1.09,4.51,4.51,0,0,1,1.86-.38,4.16,4.16,0,0,1,1.85.43,4.22,4.22,0,0,1,1.49,1.28v-5.41h2.26V129.6Zm-2.67-1.75a3,3,0,0,0,.78-.11,3.34,3.34,0,0,0,.76-.3A3.8,3.8,0,0,0,249,127a2.52,2.52,0,0,0,.49-.55v-4.12a2.72,2.72,0,0,0-.49-.54,3.38,3.38,0,0,0-1.4-.75,2.63,2.63,0,0,0-.78-.11,2.85,2.85,0,0,0-1.23.26,2.81,2.81,0,0,0-.93.71,2.94,2.94,0,0,0-.59,1.09,4.71,4.71,0,0,0,0,2.78,3.15,3.15,0,0,0,.59,1.1,2.71,2.71,0,0,0,.93.72A2.85,2.85,0,0,0,246.86,127.85Z" fill="#ec1c24"/><path d="M258.31,129.86a7.26,7.26,0,0,1-2.51-.42,5.7,5.7,0,0,1-2-1.22l1-1.62a3.76,3.76,0,0,0,.67.54,4.65,4.65,0,0,0,.86.46,5.38,5.38,0,0,0,1,.33,4.94,4.94,0,0,0,1,.11,2.63,2.63,0,0,0,1.55-.37,1.18,1.18,0,0,0,.52-1,.83.83,0,0,0-.46-.77,4.64,4.64,0,0,0-1.17-.43c-.46-.12-1-.23-1.52-.35a6.34,6.34,0,0,1-1.52-.52,3.38,3.38,0,0,1-1.16-.92,2.5,2.5,0,0,1-.46-1.6,2.82,2.82,0,0,1,.27-1.22,3,3,0,0,1,.78-1,4,4,0,0,1,1.29-.68,5.82,5.82,0,0,1,1.75-.25,6.23,6.23,0,0,1,2.34.41,5.76,5.76,0,0,1,1.69,1l-.94,1.59a4,4,0,0,0-1.29-.88,4.39,4.39,0,0,0-1.8-.37,2.41,2.41,0,0,0-1.41.37,1.09,1.09,0,0,0-.51.93.75.75,0,0,0,.47.69,5,5,0,0,0,1.16.4l1.52.34A6.23,6.23,0,0,1,261,124a3.35,3.35,0,0,1,1.17,1,2.67,2.67,0,0,1,.46,1.65,3,3,0,0,1-.28,1.29,2.78,2.78,0,0,1-.83,1,4.23,4.23,0,0,1-1.36.68A6.54,6.54,0,0,1,258.31,129.86Z" fill="#ec1c24"/><path d="M28.51,155.69a8.13,8.13,0,0,1-2.92-.73,7.13,7.13,0,0,1-2.1-1.5l1.42-2a6.56,6.56,0,0,0,1.52,1.22,5.41,5.41,0,0,0,2.08.72v-4.19c-.56-.14-1.11-.31-1.65-.49A5.92,5.92,0,0,1,25.4,148a3.61,3.61,0,0,1-1-1.16,3.51,3.51,0,0,1-.4-1.77,3.83,3.83,0,0,1,.32-1.54,4,4,0,0,1,.92-1.28,4.63,4.63,0,0,1,1.43-.92,6.1,6.1,0,0,1,1.88-.45v-2h1.72v2a8,8,0,0,1,2.41.64,6.75,6.75,0,0,1,1.93,1.32l-1.43,1.87a5.38,5.38,0,0,0-1.36-1,7.12,7.12,0,0,0-1.55-.54V147c.56.15,1.13.32,1.69.51a5.15,5.15,0,0,1,1.49.78,3.92,3.92,0,0,1,1.08,1.21,3.63,3.63,0,0,1,.42,1.82,4.4,4.4,0,0,1-.28,1.57,3.89,3.89,0,0,1-.85,1.36,4.54,4.54,0,0,1-1.45,1,6.89,6.89,0,0,1-2.1.5v1.94H28.51Zm-2-10.78a1.14,1.14,0,0,0,.55,1,5.17,5.17,0,0,0,1.41.62v-3.38a2.49,2.49,0,0,0-1.43.58A1.51,1.51,0,0,0,26.55,144.91Zm5.78,6.59a1.28,1.28,0,0,0-.6-1.13,5.52,5.52,0,0,0-1.5-.68v3.75a2.51,2.51,0,0,0,1.61-.74A1.85,1.85,0,0,0,32.33,151.5Z" fill="#ec1c24"/><path d="M39.89,155.47V144.34l-2.35,2.46-1.46-1.53,4.14-4.18h2.2v14.38Z" fill="#ec1c24"/><path d="M50.5,155.73a7.67,7.67,0,0,1-3.15-.59,6.3,6.3,0,0,1-2.17-1.63l1.44-1.75a4.82,4.82,0,0,0,3.86,1.73,3.07,3.07,0,0,0,2.17-.74,2.55,2.55,0,0,0,0-3.66,3.07,3.07,0,0,0-2.12-.69,4.86,4.86,0,0,0-1.68.29,4.43,4.43,0,0,0-1.46.94l-1.79-.52v-8H55v2.24h-6.9v4.12a4.86,4.86,0,0,1,1.38-.86,4.56,4.56,0,0,1,1.87-.37,4.93,4.93,0,0,1,1.75.31,4.42,4.42,0,0,1,1.48.91,4.34,4.34,0,0,1,1,1.45,4.91,4.91,0,0,1,.38,2,4.81,4.81,0,0,1-.41,2,4.42,4.42,0,0,1-1.13,1.53,4.93,4.93,0,0,1-1.74,1A6.8,6.8,0,0,1,50.5,155.73Z" fill="#ec1c24"/><path d="M59.54,155.71a1.41,1.41,0,0,1-1.07-.46,1.46,1.46,0,0,1-.44-1.07,1.41,1.41,0,0,1,.44-1.05,1.51,1.51,0,0,1,2.13,0,1.41,1.41,0,0,1,.44,1.05,1.46,1.46,0,0,1-.44,1.07A1.4,1.4,0,0,1,59.54,155.71Z" fill="#ec1c24"/><path d="M67.92,155.71a6.05,6.05,0,0,1-2.38-.44,5.86,5.86,0,0,1-1.76-1.16L65,152.19a4.08,4.08,0,0,0,1.24.94,3.89,3.89,0,0,0,1.71.33,3.45,3.45,0,0,0,1.7-.4A3.71,3.71,0,0,0,70.8,152a4.79,4.79,0,0,0,.69-1.52,6.81,6.81,0,0,0,.23-1.74v-.2a1.49,1.49,0,0,0,0-.21,3.25,3.25,0,0,1-.64.72,5.05,5.05,0,0,1-.9.65,4.34,4.34,0,0,1-1.08.46,4.28,4.28,0,0,1-1.24.18A5.92,5.92,0,0,1,66,150a4.47,4.47,0,0,1-1.53-.88,4.05,4.05,0,0,1-1-1.45,4.92,4.92,0,0,1-.39-2,4.77,4.77,0,0,1,1.44-3.42,5.12,5.12,0,0,1,1.67-1,6.14,6.14,0,0,1,2.19-.38,5.86,5.86,0,0,1,2.71.59,5.14,5.14,0,0,1,1.84,1.62,7.2,7.2,0,0,1,1.05,2.37,11.94,11.94,0,0,1,.33,2.84,10.18,10.18,0,0,1-.41,2.91,6.85,6.85,0,0,1-1.21,2.36,5.57,5.57,0,0,1-2,1.58A6.11,6.11,0,0,1,67.92,155.71Zm.61-7.55a3.52,3.52,0,0,0,1.75-.46,4.14,4.14,0,0,0,1.39-1.24,6.38,6.38,0,0,0-.25-1.18,3.53,3.53,0,0,0-.58-1.08,3,3,0,0,0-1-.79,2.92,2.92,0,0,0-1.42-.32,3.24,3.24,0,0,0-1.25.23,3.09,3.09,0,0,0-.91.58,2.4,2.4,0,0,0-.54.81,2.23,2.23,0,0,0-.19.89,2.57,2.57,0,0,0,.24,1.15,2.21,2.21,0,0,0,.65.8,2.84,2.84,0,0,0,.94.46A4.22,4.22,0,0,0,68.53,148.16Z" fill="#ec1c24"/><path d="M80.88,155.71a6,6,0,0,1-2.38-.44,5.86,5.86,0,0,1-1.76-1.16l1.19-1.92a4,4,0,0,0,1.24.94,3.89,3.89,0,0,0,1.71.33,3.38,3.38,0,0,0,1.69-.4A3.74,3.74,0,0,0,83.76,152a4.79,4.79,0,0,0,.69-1.52,6.81,6.81,0,0,0,.23-1.74v-.2a.76.76,0,0,0,0-.21A3.19,3.19,0,0,1,84,149a5.44,5.44,0,0,1-.9.65,4.26,4.26,0,0,1-1.09.46,4.18,4.18,0,0,1-1.24.18A5.91,5.91,0,0,1,79,150a4.47,4.47,0,0,1-1.53-.88,4.05,4.05,0,0,1-1-1.45,4.92,4.92,0,0,1-.39-2,4.73,4.73,0,0,1,.37-1.87,4.78,4.78,0,0,1,1.07-1.55,5.12,5.12,0,0,1,1.67-1,6.14,6.14,0,0,1,2.19-.38,5.86,5.86,0,0,1,2.71.59,5.14,5.14,0,0,1,1.84,1.62,7.41,7.41,0,0,1,1,2.37,11.94,11.94,0,0,1,.33,2.84,10.18,10.18,0,0,1-.41,2.91,7,7,0,0,1-1.21,2.36,5.57,5.57,0,0,1-2,1.58A6.11,6.11,0,0,1,80.88,155.71Zm.6-7.55a3.53,3.53,0,0,0,1.76-.46,4.23,4.23,0,0,0,1.39-1.24,5.69,5.69,0,0,0-.26-1.18,3.73,3.73,0,0,0-.57-1.08,3,3,0,0,0-1-.79,2.92,2.92,0,0,0-1.42-.32,3.24,3.24,0,0,0-1.25.23,3.09,3.09,0,0,0-.91.58,2.59,2.59,0,0,0-.55.81,2.4,2.4,0,0,0-.18.89,2.57,2.57,0,0,0,.24,1.15,2.29,2.29,0,0,0,.64.8,3,3,0,0,0,1,.46A4.2,4.2,0,0,0,81.48,148.16Z" fill="#ec1c24"/></g><g id="rec"><rect width="300" height="600" fill="none"/></g></g></svg>