<svg xmlns="http://www.w3.org/2000/svg" viewBox="0 0 300 600"><g id="Layer_2" data-name="Layer 2"><g id="REC"><rect width="300" height="600" fill="none"/></g><g id="SUBHD"><path d="M28.11,127.74a7,7,0,0,1-2.75-.52,6.49,6.49,0,0,1-2.16-1.44,6.31,6.31,0,0,1-1.41-2.18,7.87,7.87,0,0,1,0-5.52,6.31,6.31,0,0,1,1.41-2.18,6.49,6.49,0,0,1,2.16-1.44,7.53,7.53,0,0,1,5.5,0,6.42,6.42,0,0,1,3.56,3.62,7.72,7.72,0,0,1,0,5.52,6.42,6.42,0,0,1-3.56,3.62A7.05,7.05,0,0,1,28.11,127.74Zm0-2.08a4.36,4.36,0,0,0,1.82-.37,4.29,4.29,0,0,0,1.4-1,4.63,4.63,0,0,0,.89-1.53,6.07,6.07,0,0,0,0-3.83,4.59,4.59,0,0,0-.89-1.52,4.29,4.29,0,0,0-1.4-1,4.36,4.36,0,0,0-1.82-.37,4.31,4.31,0,0,0-1.83.37,4.15,4.15,0,0,0-1.39,1,4.27,4.27,0,0,0-.89,1.52,6.07,6.07,0,0,0,0,3.83,4.31,4.31,0,0,0,.89,1.53,4.15,4.15,0,0,0,1.39,1A4.31,4.31,0,0,0,28.11,125.66Z" fill="#e52823"/><path d="M39.59,127.74a2.46,2.46,0,0,1-1.85-.64,2.55,2.55,0,0,1-.63-1.86V114.16h2.1v10.56a1.38,1.38,0,0,0,.23.83.78.78,0,0,0,.69.33,1.51,1.51,0,0,0,.56-.11,1,1,0,0,0,.38-.25l.5,1.6a2.38,2.38,0,0,1-.76.44A3.53,3.53,0,0,1,39.59,127.74Z" fill="#e52823"/><path d="M49.63,127.5v-1.32a4.33,4.33,0,0,1-1.35,1.14,3.68,3.68,0,0,1-1.75.42,4.18,4.18,0,0,1-1.71-.34,3.73,3.73,0,0,1-1.36-1,4.68,4.68,0,0,1-.89-1.6,6.46,6.46,0,0,1-.32-2.14,6.34,6.34,0,0,1,.32-2.1,4.68,4.68,0,0,1,.89-1.6,3.81,3.81,0,0,1,1.35-1,4.2,4.2,0,0,1,1.72-.35,3.78,3.78,0,0,1,1.72.4,4,4,0,0,1,1.38,1.18v-5h2.1V127.5Zm-2.48-1.62a2.67,2.67,0,0,0,.73-.1,3.53,3.53,0,0,0,.7-.28,3.73,3.73,0,0,0,.6-.41,2.17,2.17,0,0,0,.45-.51v-3.82a3,3,0,0,0-.45-.5,3.22,3.22,0,0,0-.6-.42,3.53,3.53,0,0,0-.7-.28,2.67,2.67,0,0,0-.73-.1,2.58,2.58,0,0,0-1.14.24,2.54,2.54,0,0,0-.86.66,2.82,2.82,0,0,0-.55,1,4.47,4.47,0,0,0,0,2.58,3,3,0,0,0,.55,1,2.45,2.45,0,0,0,.86.67A2.58,2.58,0,0,0,47.15,125.88Z" fill="#e52823"/><path d="M71.19,127.5V117.2l-4.08,10.3h-1L62,117.2v10.3H59.67V114.16H63l3.64,9.16,3.62-9.16h3.3V127.5Z" fill="#e52823"/><path d="M80.69,127.74a5.08,5.08,0,0,1-2.08-.41,4.54,4.54,0,0,1-1.56-1.1,4.65,4.65,0,0,1-1-1.61,5.82,5.82,0,0,1,0-3.92,4.65,4.65,0,0,1,1-1.61A4.51,4.51,0,0,1,78.61,118a5.08,5.08,0,0,1,2.08-.4,5.15,5.15,0,0,1,2.08.4,4.71,4.71,0,0,1,1.56,1.09,5,5,0,0,1,1,1.61,5.82,5.82,0,0,1,0,3.92,5,5,0,0,1-1,1.61,4.74,4.74,0,0,1-1.56,1.1A5.15,5.15,0,0,1,80.69,127.74Zm0-1.86a2.55,2.55,0,0,0,2.07-1,3.14,3.14,0,0,0,.53-1,4.16,4.16,0,0,0,.18-1.23,4.09,4.09,0,0,0-.18-1.22,3.09,3.09,0,0,0-.53-1,2.55,2.55,0,0,0-2.07-1,2.59,2.59,0,0,0-2.06,1,2.93,2.93,0,0,0-.54,1,4.09,4.09,0,0,0-.18,1.22,4.16,4.16,0,0,0,.18,1.23,3,3,0,0,0,.54,1,2.59,2.59,0,0,0,2.06,1Z" fill="#e52823"/><path d="M90.71,127.74a2.45,2.45,0,0,1-1.86-.64,2.55,2.55,0,0,1-.62-1.86v-5.58h-1.6v-1.82h1.6V115.2h2.1v2.64h2v1.82h-2v5.06a1.38,1.38,0,0,0,.23.83.78.78,0,0,0,.69.33,1.42,1.42,0,0,0,.55-.11,1.09,1.09,0,0,0,.37-.25l.5,1.6a2.38,2.38,0,0,1-.76.44A3.45,3.45,0,0,1,90.71,127.74Z" fill="#e52823"/><path d="M100.71,127.5v-6.08a1.91,1.91,0,0,0-.52-1.55,2.26,2.26,0,0,0-1.42-.41,2.7,2.7,0,0,0-1.47.4,3.55,3.55,0,0,0-1,.88v6.76h-2.1V114.16h2.1v5a4,4,0,0,1,.59-.56,4.53,4.53,0,0,1,1.72-.85,4.23,4.23,0,0,1,1.09-.13,3.18,3.18,0,0,1,2.34.78,3.09,3.09,0,0,1,.78,2.28v6.84Z" fill="#e52823"/><path d="M110,127.74a5.54,5.54,0,0,1-2-.36,4.37,4.37,0,0,1-1.6-1,4.68,4.68,0,0,1-1-1.61,5.39,5.39,0,0,1-.39-2.08,5.23,5.23,0,0,1,.37-2,4.66,4.66,0,0,1,1-1.61,5.06,5.06,0,0,1,1.56-1.08,4.7,4.7,0,0,1,2-.4,4.83,4.83,0,0,1,2,.39,4.39,4.39,0,0,1,1.5,1.09,4.75,4.75,0,0,1,.94,1.66,6.17,6.17,0,0,1,.33,2.1v.52h-7.43a3,3,0,0,0,.29,1,2.7,2.7,0,0,0,.62.85,2.63,2.63,0,0,0,.92.58,3.41,3.41,0,0,0,1.23.21,4.21,4.21,0,0,0,1.48-.28,3.44,3.44,0,0,0,1.27-.8l1,1.38a4.78,4.78,0,0,1-1.75,1.06A6.5,6.5,0,0,1,110,127.74Zm2.56-5.88a2.82,2.82,0,0,0-.18-.87,2.78,2.78,0,0,0-.5-.82,2.53,2.53,0,0,0-.84-.61,2.75,2.75,0,0,0-1.21-.24,2.79,2.79,0,0,0-1.16.23,2.47,2.47,0,0,0-.84.6,2.78,2.78,0,0,0-.5.82,3,3,0,0,0-.21.89Z" fill="#e52823"/><path d="M116.66,127.5v-9.66h2.1v1.4a4.88,4.88,0,0,1,1.38-1.17,3.54,3.54,0,0,1,1.76-.47v2.08a3,3,0,0,0-.64-.06,2.64,2.64,0,0,0-.71.1,4.28,4.28,0,0,0-.72.28,3.46,3.46,0,0,0-.63.42,2.51,2.51,0,0,0-.44.5v6.58Z" fill="#e52823"/><path d="M138.1,127.5v-5.84h-6.94v5.84h-2.34V114.16h2.34v5.42h6.94v-5.42h2.34V127.5Z" fill="#e52823"/><path d="M149.74,127.5v-1.28a4.74,4.74,0,0,1-1.39,1,4.19,4.19,0,0,1-2,.47A3.16,3.16,0,0,1,144,127a3.09,3.09,0,0,1-.77-2.27v-6.84h2.09v6.06a1.92,1.92,0,0,0,.53,1.55,2.22,2.22,0,0,0,1.43.43,2.74,2.74,0,0,0,1.45-.39,3.39,3.39,0,0,0,1-.87v-6.78h2.11v9.66Z" fill="#e52823"/><path d="M154.57,127.5V114.16h2.1v5a3.77,3.77,0,0,1,3.09-1.58,4.33,4.33,0,0,1,1.74.35,3.93,3.93,0,0,1,1.36,1,4.85,4.85,0,0,1,.89,1.6,6.61,6.61,0,0,1,.32,2.1,6.73,6.73,0,0,1-.32,2.14,4.71,4.71,0,0,1-.91,1.6,3.76,3.76,0,0,1-1.37,1,4.18,4.18,0,0,1-1.71.34,3.66,3.66,0,0,1-1.73-.42,4,4,0,0,1-1.36-1.14v1.32Zm2.1-2.9a2.83,2.83,0,0,0,1,.91,3,3,0,0,0,1.46.37,2.44,2.44,0,0,0,2-.9,3.59,3.59,0,0,0,.72-2.32,4.37,4.37,0,0,0-.18-1.29,3.16,3.16,0,0,0-.55-1,2.64,2.64,0,0,0-.86-.66,2.59,2.59,0,0,0-1.12-.24,3,3,0,0,0-1.46.38,2.85,2.85,0,0,0-1,.92Z" fill="#e52823"/><path d="M166.19,127.5V114.16h2.1v5a3.77,3.77,0,0,1,3.09-1.58,4.33,4.33,0,0,1,1.74.35,3.93,3.93,0,0,1,1.36,1,4.85,4.85,0,0,1,.89,1.6,6.61,6.61,0,0,1,.32,2.1,6.73,6.73,0,0,1-.32,2.14,4.71,4.71,0,0,1-.91,1.6,3.76,3.76,0,0,1-1.37,1,4.18,4.18,0,0,1-1.71.34,3.66,3.66,0,0,1-1.73-.42,4,4,0,0,1-1.36-1.14v1.32Zm2.1-2.9a2.91,2.91,0,0,0,1,.91,3,3,0,0,0,1.46.37,2.44,2.44,0,0,0,2-.9,3.59,3.59,0,0,0,.72-2.32,4.37,4.37,0,0,0-.18-1.29,3.16,3.16,0,0,0-.55-1,2.64,2.64,0,0,0-.86-.66,2.59,2.59,0,0,0-1.12-.24,3,3,0,0,0-1.46.38,2.94,2.94,0,0,0-1,.92Z" fill="#e52823"/><path d="M184.61,127.5v-1.32a4.25,4.25,0,0,1-1.36,1.14,3.62,3.62,0,0,1-1.75.42,4.25,4.25,0,0,1-1.71-.34,3.78,3.78,0,0,1-1.35-1,4.87,4.87,0,0,1-.9-1.6,6.74,6.74,0,0,1-.31-2.14,6.62,6.62,0,0,1,.31-2.1,4.87,4.87,0,0,1,.9-1.6,3.81,3.81,0,0,1,1.35-1,4.18,4.18,0,0,1,1.71-.35,3.79,3.79,0,0,1,1.73.4,4,4,0,0,1,1.38,1.18v-1.34h2.1v9.66Zm-2.49-1.62a2.69,2.69,0,0,0,.74-.1,3.79,3.79,0,0,0,.7-.28,3.73,3.73,0,0,0,.6-.41,2.42,2.42,0,0,0,.45-.51v-3.82a3.44,3.44,0,0,0-.45-.5,3.22,3.22,0,0,0-.6-.42,3.79,3.79,0,0,0-.7-.28,2.69,2.69,0,0,0-.74-.1,2.57,2.57,0,0,0-1.13.24,2.68,2.68,0,0,0-.87.66,3,3,0,0,0-.54,1,4.47,4.47,0,0,0,0,2.58,3.11,3.11,0,0,0,.54,1,2.54,2.54,0,0,0,2,.91Z" fill="#e52823"/><path d="M189.43,127.5v-9.66h2.1v1.4a4.62,4.62,0,0,1,1.38-1.17,3.49,3.49,0,0,1,1.76-.47v2.08a3.1,3.1,0,0,0-.64-.06,2.53,2.53,0,0,0-.71.1,3.7,3.7,0,0,0-.72.28,2.88,2.88,0,0,0-.63.42,2,2,0,0,0-.44.5v6.58Z" fill="#e52823"/><path d="M203.17,127.5v-1.32a4.25,4.25,0,0,1-1.36,1.14,3.62,3.62,0,0,1-1.75.42,4.25,4.25,0,0,1-1.71-.34,3.78,3.78,0,0,1-1.35-1,4.87,4.87,0,0,1-.9-1.6,6.74,6.74,0,0,1-.31-2.14,6.62,6.62,0,0,1,.31-2.1,4.87,4.87,0,0,1,.9-1.6,3.86,3.86,0,0,1,1.34-1,4.26,4.26,0,0,1,1.72-.35,3.79,3.79,0,0,1,1.73.4,4,4,0,0,1,1.38,1.18v-5h2.09V127.5Zm-2.49-1.62a2.74,2.74,0,0,0,.74-.1,3.79,3.79,0,0,0,.7-.28,3.63,3.63,0,0,0,.59-.41,2.47,2.47,0,0,0,.46-.51v-3.82a3.54,3.54,0,0,0-.46-.5,3.14,3.14,0,0,0-.59-.42,3.79,3.79,0,0,0-.7-.28,2.74,2.74,0,0,0-.74-.1,2.54,2.54,0,0,0-2,.9,3.16,3.16,0,0,0-.55,1,4.71,4.71,0,0,0,0,2.58,3.33,3.33,0,0,0,.55,1,2.54,2.54,0,0,0,.86.67A2.64,2.64,0,0,0,200.68,125.88Z" fill="#e52823"/><path d="M212,115.42a2.39,2.39,0,0,1-.2,1,2.47,2.47,0,0,1-.52.79,2.44,2.44,0,0,1-.79.53,2.55,2.55,0,0,1-1.93,0,2.5,2.5,0,0,1-.78-.53,2.34,2.34,0,0,1-.53-.79,2.39,2.39,0,0,1-.2-1,2.44,2.44,0,0,1,.2-1,2.24,2.24,0,0,1,.53-.79,2.48,2.48,0,0,1,.78-.52,2.55,2.55,0,0,1,1.93,0,2.41,2.41,0,0,1,.79.52,2.36,2.36,0,0,1,.52.79A2.44,2.44,0,0,1,212,115.42Zm-.35,0a2.14,2.14,0,0,0-.17-.84,2.08,2.08,0,0,0-.45-.67,2.24,2.24,0,0,0-.68-.45,2.23,2.23,0,0,0-1.66,0,2.32,2.32,0,0,0-.67.45,2.08,2.08,0,0,0-.45.67,2.14,2.14,0,0,0-.17.84,2,2,0,0,0,.17.81,2.08,2.08,0,0,0,.45.67,2.35,2.35,0,0,0,.67.46,2.11,2.11,0,0,0,1.66,0,2.27,2.27,0,0,0,.68-.46,2.08,2.08,0,0,0,.45-.67A2,2,0,0,0,211.63,115.42Zm-1.45,1.42-.73-1.12H209v1.12h-.39V114h1.16a.93.93,0,0,1,.64.23.81.81,0,0,1,.28.63.84.84,0,0,1-.09.4.8.8,0,0,1-.22.26.89.89,0,0,1-.25.14.54.54,0,0,1-.18,0l.76,1.13Zm0-2a.55.55,0,0,0-.52-.53H209v1h.76a.52.52,0,0,0,.35-.14A.45.45,0,0,0,210.23,114.87Z" fill="#e52823"/><path d="M225.71,127.5v-1.32a4.25,4.25,0,0,1-1.36,1.14,3.62,3.62,0,0,1-1.75.42,4.25,4.25,0,0,1-1.71-.34,3.78,3.78,0,0,1-1.35-1,4.87,4.87,0,0,1-.9-1.6,6.74,6.74,0,0,1-.31-2.14,6.62,6.62,0,0,1,.31-2.1,4.87,4.87,0,0,1,.9-1.6,3.86,3.86,0,0,1,1.34-1,4.26,4.26,0,0,1,1.72-.35,3.79,3.79,0,0,1,1.73.4,4,4,0,0,1,1.38,1.18v-5h2.09V127.5Zm-2.49-1.62a2.74,2.74,0,0,0,.74-.1,3.79,3.79,0,0,0,.7-.28,3.24,3.24,0,0,0,.59-.41,2.47,2.47,0,0,0,.46-.51v-3.82a3.54,3.54,0,0,0-.46-.5,2.85,2.85,0,0,0-.59-.42,3.79,3.79,0,0,0-.7-.28,2.74,2.74,0,0,0-.74-.1,2.54,2.54,0,0,0-2,.9,3.16,3.16,0,0,0-.55,1,4.71,4.71,0,0,0,0,2.58,3.33,3.33,0,0,0,.55,1,2.54,2.54,0,0,0,.86.67A2.64,2.64,0,0,0,223.22,125.88Z" fill="#e52823"/><path d="M234.91,127.74a5.08,5.08,0,0,1-2.08-.41,4.68,4.68,0,0,1-1.57-1.1,4.78,4.78,0,0,1-1-1.61,5.82,5.82,0,0,1,0-3.92,4.78,4.78,0,0,1,1-1.61,4.65,4.65,0,0,1,1.57-1.09,5.08,5.08,0,0,1,2.08-.4,5.15,5.15,0,0,1,2.08.4,4.57,4.57,0,0,1,1.55,1.09,4.83,4.83,0,0,1,1,1.61,5.82,5.82,0,0,1,0,3.92,4.83,4.83,0,0,1-1,1.61,4.59,4.59,0,0,1-1.55,1.1A5.15,5.15,0,0,1,234.91,127.74Zm0-1.86a2.71,2.71,0,0,0,1.2-.26,2.55,2.55,0,0,0,.86-.7,3,3,0,0,0,.53-1,4.16,4.16,0,0,0,.18-1.23,4.09,4.09,0,0,0-.18-1.22,2.91,2.91,0,0,0-.53-1,2.55,2.55,0,0,0-.86-.7,2.71,2.71,0,0,0-1.2-.26,2.67,2.67,0,0,0-1.19.26,2.73,2.73,0,0,0-.88.7,3.11,3.11,0,0,0-.54,1,4.09,4.09,0,0,0-.18,1.22,4.16,4.16,0,0,0,.18,1.23,3.16,3.16,0,0,0,.54,1,2.73,2.73,0,0,0,.88.7A2.67,2.67,0,0,0,234.91,125.88Z" fill="#e52823"/><path d="M245.94,131.42a7.09,7.09,0,0,1-2.2-.31,5.12,5.12,0,0,1-1.86-1.13l1-1.52a3.47,3.47,0,0,0,1.36,1,4.89,4.89,0,0,0,1.72.28,4,4,0,0,0,1-.13,2.55,2.55,0,0,0,.92-.45,2.18,2.18,0,0,0,.66-.83,2.88,2.88,0,0,0,.25-1.29v-1.1a4.24,4.24,0,0,1-1.35,1.18,3.55,3.55,0,0,1-1.75.44,4.42,4.42,0,0,1-1.71-.33,3.83,3.83,0,0,1-1.36-1,4.6,4.6,0,0,1-.89-1.55,6.52,6.52,0,0,1-.32-2.12,6.44,6.44,0,0,1,.32-2.1,4.75,4.75,0,0,1,.89-1.56,3.7,3.7,0,0,1,1.35-1,4.39,4.39,0,0,1,1.72-.33,3.72,3.72,0,0,1,1.72.4,3.79,3.79,0,0,1,1.38,1.18v-1.34h2.1V127a4.62,4.62,0,0,1-.44,2.16,3.58,3.58,0,0,1-1.15,1.36,4.36,4.36,0,0,1-1.6.7A8.21,8.21,0,0,1,245.94,131.42Zm.38-5.78a3.22,3.22,0,0,0,2.48-1.28v-3.62a3.22,3.22,0,0,0-2.48-1.28,2.52,2.52,0,0,0-2,.85,3.33,3.33,0,0,0-.74,2.25,3.29,3.29,0,0,0,.74,2.24A2.54,2.54,0,0,0,246.32,125.64Z" fill="#e52823"/><path d="M21.81,153.5V140.16h2.1v5A3.82,3.82,0,0,1,25.3,144a3.77,3.77,0,0,1,1.71-.4,4.31,4.31,0,0,1,1.73.35,3.84,3.84,0,0,1,1.36,1,4.85,4.85,0,0,1,.89,1.6,6.61,6.61,0,0,1,.32,2.1A6.73,6.73,0,0,1,31,150.8a4.87,4.87,0,0,1-.9,1.6,3.94,3.94,0,0,1-1.37,1,4.25,4.25,0,0,1-1.71.34,3.67,3.67,0,0,1-1.74-.42,4,4,0,0,1-1.36-1.14v1.32Zm2.1-2.9a2.87,2.87,0,0,0,1.05.91,3,3,0,0,0,1.45.37,2.43,2.43,0,0,0,2-.9,3.6,3.6,0,0,0,.73-2.32,4.37,4.37,0,0,0-.19-1.29,3,3,0,0,0-.55-1,2.64,2.64,0,0,0-.86-.66,2.59,2.59,0,0,0-1.12-.24,3,3,0,0,0-1.45.38,2.89,2.89,0,0,0-1.05.92Z" fill="#e52823"/><path d="M34.49,142.66a1.26,1.26,0,0,1-.92-.38,1.3,1.3,0,0,1,0-1.84,1.26,1.26,0,0,1,.92-.38,1.28,1.28,0,0,1,.92.38,1.3,1.3,0,0,1,0,1.84A1.28,1.28,0,0,1,34.49,142.66ZM33.43,153.5v-9.66h2.1v9.66Z" fill="#e52823"/><path d="M41.57,153.74a6.64,6.64,0,0,1-2.32-.39,5.05,5.05,0,0,1-1.82-1.13l1-1.5a4.09,4.09,0,0,0,.62.5,5,5,0,0,0,.8.43,4.62,4.62,0,0,0,.91.3,4.22,4.22,0,0,0,.93.11,2.46,2.46,0,0,0,1.44-.35,1.09,1.09,0,0,0,.48-.93.79.79,0,0,0-.43-.72,4.62,4.62,0,0,0-1.08-.4c-.44-.11-.91-.21-1.41-.32a6.16,6.16,0,0,1-1.41-.48,3,3,0,0,1-1.08-.86,2.29,2.29,0,0,1-.43-1.48,2.56,2.56,0,0,1,.25-1.13,2.69,2.69,0,0,1,.73-.93,3.37,3.37,0,0,1,1.19-.63,5.34,5.34,0,0,1,1.63-.23,5.8,5.8,0,0,1,2.17.38,5.2,5.2,0,0,1,1.57,1l-.88,1.48a3.73,3.73,0,0,0-1.19-.82,4,4,0,0,0-1.67-.34,2.17,2.17,0,0,0-1.31.34,1,1,0,0,0-.47.86.69.69,0,0,0,.43.64,4.37,4.37,0,0,0,1.08.37l1.41.32a6.05,6.05,0,0,1,1.41.5,3.14,3.14,0,0,1,1.08.9,2.52,2.52,0,0,1,.43,1.53,2.84,2.84,0,0,1-.26,1.2,2.73,2.73,0,0,1-.77,1,3.72,3.72,0,0,1-1.26.63A6,6,0,0,1,41.57,153.74Z" fill="#e52823"/><path d="M52.09,153.74a5.18,5.18,0,0,1-2-.38,4.63,4.63,0,0,1-1.57-1.06,4.73,4.73,0,0,1-1-1.61,5.39,5.39,0,0,1-.37-2,5.3,5.3,0,0,1,.37-2,4.78,4.78,0,0,1,1-1.6A4.63,4.63,0,0,1,50.08,144a5.18,5.18,0,0,1,2-.38,5.6,5.6,0,0,1,1.29.14,4.24,4.24,0,0,1,1,.38,3.83,3.83,0,0,1,.79.55,6.08,6.08,0,0,1,.6.65l-1.38,1.26a2.58,2.58,0,0,0-2.22-1.12,2.72,2.72,0,0,0-2.12.89,3.28,3.28,0,0,0-.8,2.31,3.79,3.79,0,0,0,.21,1.29,3.06,3.06,0,0,0,.6,1,2.66,2.66,0,0,0,.92.67,2.84,2.84,0,0,0,1.19.24,2.6,2.6,0,0,0,2.22-1.16l1.38,1.3a5.06,5.06,0,0,1-1.4,1.2A4.48,4.48,0,0,1,52.09,153.74Z" fill="#e52823"/><path d="M64.17,153.5v-1.28a5,5,0,0,1-1.39,1.05,4.2,4.2,0,0,1-2,.47,3.14,3.14,0,0,1-2.34-.79,3.1,3.1,0,0,1-.78-2.27v-6.84h2.1v6.06a1.88,1.88,0,0,0,.53,1.55,2.18,2.18,0,0,0,1.43.43,2.79,2.79,0,0,0,1.45-.39,3.52,3.52,0,0,0,1-.87v-6.78h2.1v9.66Z" fill="#e52823"/><path d="M70.05,142.66a1.26,1.26,0,0,1-.92-.38,1.3,1.3,0,0,1,0-1.84,1.26,1.26,0,0,1,.92-.38,1.28,1.28,0,0,1,.92.38,1.3,1.3,0,0,1,0,1.84A1.28,1.28,0,0,1,70.05,142.66ZM69,153.5v-9.66h2.1v9.66Z" fill="#e52823"/><path d="M76.73,153.74a2.45,2.45,0,0,1-1.86-.64,2.55,2.55,0,0,1-.62-1.86v-5.58h-1.6v-1.82h1.6V141.2h2.1v2.64h2v1.82h-2v5.06a1.38,1.38,0,0,0,.23.83.78.78,0,0,0,.69.33,1.42,1.42,0,0,0,.55-.11,1.09,1.09,0,0,0,.37-.25l.5,1.6a2.38,2.38,0,0,1-.76.44A3.45,3.45,0,0,1,76.73,153.74Z" fill="#e52823"/><path d="M83.51,153.74a6.64,6.64,0,0,1-2.32-.39,5.05,5.05,0,0,1-1.82-1.13l1-1.5a4.09,4.09,0,0,0,.62.5,5,5,0,0,0,.8.43,4.62,4.62,0,0,0,.91.3,4.2,4.2,0,0,0,.92.11,2.48,2.48,0,0,0,1.45-.35,1.09,1.09,0,0,0,.48-.93.79.79,0,0,0-.43-.72,4.62,4.62,0,0,0-1.08-.4c-.44-.11-.91-.21-1.42-.32a6.24,6.24,0,0,1-1.4-.48A3,3,0,0,1,80.1,148a2.29,2.29,0,0,1-.43-1.48,2.56,2.56,0,0,1,.25-1.13,2.69,2.69,0,0,1,.73-.93,3.41,3.41,0,0,1,1.18-.63,5.46,5.46,0,0,1,1.64-.23,5.8,5.8,0,0,1,2.17.38,5.2,5.2,0,0,1,1.57,1l-.88,1.48a3.73,3.73,0,0,0-1.19-.82,4,4,0,0,0-1.67-.34,2.17,2.17,0,0,0-1.31.34,1,1,0,0,0-.47.86.69.69,0,0,0,.43.64,4.37,4.37,0,0,0,1.08.37l1.4.32a6,6,0,0,1,1.42.5,3.14,3.14,0,0,1,1.08.9,2.52,2.52,0,0,1,.43,1.53,2.68,2.68,0,0,1-1,2.16,3.72,3.72,0,0,1-1.26.63A6,6,0,0,1,83.51,153.74Z" fill="#e52823"/><path d="M92.23,152.74a3.88,3.88,0,0,1-.51,1.94,4.46,4.46,0,0,1-1.35,1.48l-1-.78a2.86,2.86,0,0,0,.48-.36c.15-.15.3-.3.44-.47a4.21,4.21,0,0,0,.34-.52,2,2,0,0,0,.18-.53l-.14,0-.2,0a1.09,1.09,0,0,1-.84-.36,1.28,1.28,0,0,1-.34-.92,1.34,1.34,0,0,1,.39-1,1.28,1.28,0,0,1,1-.4,1.49,1.49,0,0,1,1.08.47A1.87,1.87,0,0,1,92.23,152.74Z" fill="#e52823"/><path d="M104.66,153.74a5.33,5.33,0,0,1-2.52-.55,4.82,4.82,0,0,1-1.7-1.5,6.67,6.67,0,0,1-1-2.2,11.32,11.32,0,0,1-.31-2.65,9.3,9.3,0,0,1,.38-2.69,6.71,6.71,0,0,1,1.12-2.18,5.4,5.4,0,0,1,1.84-1.47A5.71,5.71,0,0,1,105,140a5.52,5.52,0,0,1,2.19.4,5,5,0,0,1,1.63,1.08l-1.08,1.76a4.08,4.08,0,0,0-1.15-.85A3.55,3.55,0,0,0,105,142a3.08,3.08,0,0,0-1.5.36,3.42,3.42,0,0,0-1.11,1,4.45,4.45,0,0,0-.68,1.4,6.14,6.14,0,0,0-.23,1.68v.38a4.16,4.16,0,0,1,.61-.67,5.68,5.68,0,0,1,.83-.6,4.82,4.82,0,0,1,1-.44,4,4,0,0,1,1.13-.17,5.11,5.11,0,0,1,1.71.28,4.31,4.31,0,0,1,1.43.82,3.74,3.74,0,0,1,1,1.35,4.55,4.55,0,0,1,.36,1.87,4.3,4.3,0,0,1-.35,1.74,4.18,4.18,0,0,1-1,1.43,4.42,4.42,0,0,1-1.55,1A5.65,5.65,0,0,1,104.66,153.74Zm-.14-2.08a3,3,0,0,0,1.16-.21,2.41,2.41,0,0,0,.84-.55,2.27,2.27,0,0,0,.51-.75,2,2,0,0,0,.17-.81,2.38,2.38,0,0,0-.22-1.07,1.89,1.89,0,0,0-.6-.74,2.53,2.53,0,0,0-.87-.43,3.82,3.82,0,0,0-1-.14,3.42,3.42,0,0,0-1.64.42,3.69,3.69,0,0,0-1.28,1.14,4.88,4.88,0,0,0,.22,1.1,3.18,3.18,0,0,0,.54,1,2.84,2.84,0,0,0,.9.74A2.77,2.77,0,0,0,104.52,151.66Z" fill="#e52823"/><path d="M119.34,153.74a2.48,2.48,0,0,1-1.85-.64,2.55,2.55,0,0,1-.63-1.86V140.16H119v10.56a1.45,1.45,0,0,0,.23.83.8.8,0,0,0,.69.33,1.47,1.47,0,0,0,.56-.11,1,1,0,0,0,.38-.25l.5,1.6a2.27,2.27,0,0,1-.76.44A3.49,3.49,0,0,1,119.34,153.74Z" fill="#e52823"/><path d="M122.58,153.5V140.16h2.1v5a3.9,3.9,0,0,1,1.39-1.18,3.77,3.77,0,0,1,1.71-.4,4.24,4.24,0,0,1,1.73.35,3.76,3.76,0,0,1,1.36,1,4.68,4.68,0,0,1,.89,1.6,6.34,6.34,0,0,1,.32,2.1,6.46,6.46,0,0,1-.32,2.14,4.54,4.54,0,0,1-.9,1.6,3.76,3.76,0,0,1-1.37,1,4.18,4.18,0,0,1-1.71.34,3.73,3.73,0,0,1-1.74-.42,4.25,4.25,0,0,1-1.36-1.14v1.32Zm2.1-2.9a2.87,2.87,0,0,0,1,.91,3,3,0,0,0,1.45.37,2.42,2.42,0,0,0,2-.9,3.54,3.54,0,0,0,.73-2.32,4.06,4.06,0,0,0-.19-1.29,2.82,2.82,0,0,0-.55-1,2.53,2.53,0,0,0-2-.9,3,3,0,0,0-1.45.38,2.89,2.89,0,0,0-1,.92Z" fill="#e52823"/><path d="M137.52,153.74a6.68,6.68,0,0,1-2.32-.39,5.23,5.23,0,0,1-1.82-1.13l1-1.5a4.65,4.65,0,0,0,.62.5,5.49,5.49,0,0,0,.8.43,5.1,5.1,0,0,0,.91.3,4.36,4.36,0,0,0,.93.11,2.46,2.46,0,0,0,1.44-.35,1.09,1.09,0,0,0,.48-.93.77.77,0,0,0-.43-.72,4.3,4.3,0,0,0-1.08-.4c-.43-.11-.9-.21-1.41-.32a6.51,6.51,0,0,1-1.41-.48,3.14,3.14,0,0,1-1.08-.86,2.35,2.35,0,0,1-.43-1.48,2.7,2.7,0,0,1,.25-1.13,2.81,2.81,0,0,1,.73-.93,3.46,3.46,0,0,1,1.19-.63,5.44,5.44,0,0,1,1.63-.23,5.76,5.76,0,0,1,2.17.38,5.08,5.08,0,0,1,1.57,1l-.88,1.48a3.62,3.62,0,0,0-1.19-.82,3.93,3.93,0,0,0-1.67-.34,2.19,2.19,0,0,0-1.31.34,1,1,0,0,0-.47.86.71.71,0,0,0,.43.64,4.68,4.68,0,0,0,1.08.37l1.41.32a5.74,5.74,0,0,1,1.41.5,3,3,0,0,1,1.08.9,2.46,2.46,0,0,1,.43,1.53,2.7,2.7,0,0,1-.26,1.2,2.62,2.62,0,0,1-.77,1,3.72,3.72,0,0,1-1.26.63A6,6,0,0,1,137.52,153.74Z" fill="#e52823"/><path d="M144.74,153.72a1.35,1.35,0,0,1-1-.42,1.39,1.39,0,0,1-.41-1,1.34,1.34,0,0,1,.41-1,1.38,1.38,0,0,1,1-.41,1.35,1.35,0,0,1,1,.41,1.3,1.3,0,0,1,.41,1,1.35,1.35,0,0,1-.41,1A1.32,1.32,0,0,1,144.74,153.72Z" fill="#e52823"/><path d="M157.74,153.7A7.55,7.55,0,0,1,155,153a7,7,0,0,1-1.95-1.39l1.32-1.82a6.53,6.53,0,0,0,1.41,1.13,5.27,5.27,0,0,0,1.93.67v-3.89a15.87,15.87,0,0,1-1.53-.46,5.06,5.06,0,0,1-1.35-.69,3.46,3.46,0,0,1-1-1.08,3.36,3.36,0,0,1-.37-1.63,3.51,3.51,0,0,1,.3-1.44,3.94,3.94,0,0,1,.85-1.19,4.4,4.4,0,0,1,1.33-.85,5.55,5.55,0,0,1,1.74-.41v-1.84h1.6V140a7.11,7.11,0,0,1,2.23.6,6.17,6.17,0,0,1,1.79,1.22L162,143.56a4.68,4.68,0,0,0-1.27-.92,6.07,6.07,0,0,0-1.43-.5v3.46c.52.13,1,.29,1.56.47a5.08,5.08,0,0,1,1.39.72,3.62,3.62,0,0,1,1,1.13,3.31,3.31,0,0,1,.39,1.68,4,4,0,0,1-.26,1.46,3.48,3.48,0,0,1-.79,1.26,4.08,4.08,0,0,1-1.35.92,6.21,6.21,0,0,1-1.94.46v1.8h-1.6Zm-1.82-10a1.05,1.05,0,0,0,.51.92,4.85,4.85,0,0,0,1.31.58v-3.14a2.41,2.41,0,0,0-1.33.54A1.43,1.43,0,0,0,155.92,143.7Zm5.36,6.12a1.19,1.19,0,0,0-.55-1,5,5,0,0,0-1.39-.63v3.48a2.37,2.37,0,0,0,1.49-.69A1.68,1.68,0,0,0,161.28,149.82Z" fill="#e52823"/><path d="M168.3,153.5V143.18l-2.18,2.28L164.76,144l3.84-3.88h2V153.5Z" fill="#e52823"/><path d="M177.58,153.74a6.91,6.91,0,0,1-3.06-.63,5.62,5.62,0,0,1-2-1.53l1.28-1.54a4.44,4.44,0,0,0,1.62,1.19,5,5,0,0,0,2.06.43,3.31,3.31,0,0,0,2.05-.56,1.77,1.77,0,0,0,.73-1.48,1.55,1.55,0,0,0-.76-1.45,4.35,4.35,0,0,0-2.2-.45h-.89l-.63,0v-2.14h1.52a5.35,5.35,0,0,0,1.1-.1,2.63,2.63,0,0,0,.87-.32,1.62,1.62,0,0,0,.58-.55,1.4,1.4,0,0,0,.21-.78,1.55,1.55,0,0,0-.21-.81,1.67,1.67,0,0,0-.58-.57,2.68,2.68,0,0,0-.86-.35,4.32,4.32,0,0,0-1.05-.12,4.65,4.65,0,0,0-3.46,1.48l-1.2-1.46a6.1,6.1,0,0,1,2-1.51,6.59,6.59,0,0,1,2.89-.59,7,7,0,0,1,2,.25,4.69,4.69,0,0,1,1.51.71,3.18,3.18,0,0,1,1,1.12,3,3,0,0,1,.35,1.49,2.6,2.6,0,0,1-.26,1.21,2.91,2.91,0,0,1-.67.91,3.51,3.51,0,0,1-.93.62,3.65,3.65,0,0,1-1,.32,3.91,3.91,0,0,1,1,.28,3.67,3.67,0,0,1,1,.62,3.1,3.1,0,0,1,.77,1,2.93,2.93,0,0,1,.3,1.36,3.46,3.46,0,0,1-.35,1.58,3.58,3.58,0,0,1-1,1.23,4.77,4.77,0,0,1-1.59.81A7.08,7.08,0,0,1,177.58,153.74Z" fill="#e52823"/><path d="M186,153.72a1.35,1.35,0,0,1-1-.42,1.39,1.39,0,0,1-.41-1,1.34,1.34,0,0,1,.41-1,1.38,1.38,0,0,1,1-.41,1.35,1.35,0,0,1,1,.41,1.3,1.3,0,0,1,.41,1,1.35,1.35,0,0,1-.41,1A1.32,1.32,0,0,1,186,153.72Z" fill="#e52823"/><path d="M193.78,153.72a5.62,5.62,0,0,1-2.21-.41,5.43,5.43,0,0,1-1.63-1.07l1.1-1.78a4.11,4.11,0,0,0,1.15.87,3.55,3.55,0,0,0,1.59.31,3.15,3.15,0,0,0,1.57-.38,3.21,3.21,0,0,0,1.1-1,4.33,4.33,0,0,0,.64-1.41,6.24,6.24,0,0,0,.21-1.61v-.19a.65.65,0,0,0,0-.19,3,3,0,0,1-.59.67,4.77,4.77,0,0,1-.83.6,4.39,4.39,0,0,1-1,.43,4,4,0,0,1-1.15.16,5.37,5.37,0,0,1-1.71-.27,4.08,4.08,0,0,1-1.42-.81,4,4,0,0,1-1-1.35,4.55,4.55,0,0,1-.36-1.87,4.35,4.35,0,0,1,1.34-3.17,4.61,4.61,0,0,1,1.55-1,5.73,5.73,0,0,1,2-.35,5.29,5.29,0,0,1,2.51.55,4.77,4.77,0,0,1,1.71,1.5,6.47,6.47,0,0,1,1,2.2,10.71,10.71,0,0,1,.31,2.63,9.08,9.08,0,0,1-.38,2.7,6.31,6.31,0,0,1-1.12,2.19,5.21,5.21,0,0,1-1.84,1.47A5.68,5.68,0,0,1,193.78,153.72Zm.56-7a3.23,3.23,0,0,0,1.63-.43,3.85,3.85,0,0,0,1.29-1.15,5.48,5.48,0,0,0-.24-1.09,3.1,3.1,0,0,0-.53-1,2.69,2.69,0,0,0-.89-.74,2.8,2.8,0,0,0-1.32-.29,3,3,0,0,0-1.16.21,2.76,2.76,0,0,0-.84.54,2.38,2.38,0,0,0-.51.75,2.23,2.23,0,0,0-.17.82,2.52,2.52,0,0,0,.22,1.07,2.09,2.09,0,0,0,.6.74,2.67,2.67,0,0,0,.88.43A4,4,0,0,0,194.34,146.72Z" fill="#e52823"/><path d="M205.8,153.72a5.62,5.62,0,0,1-2.21-.41,5.43,5.43,0,0,1-1.63-1.07l1.1-1.78a4.11,4.11,0,0,0,1.15.87,3.55,3.55,0,0,0,1.59.31,3.15,3.15,0,0,0,1.57-.38,3.21,3.21,0,0,0,1.1-1,4.33,4.33,0,0,0,.64-1.41,6.24,6.24,0,0,0,.21-1.61v-.19a.65.65,0,0,0,0-.19,3,3,0,0,1-.59.67,4.77,4.77,0,0,1-.83.6,4.39,4.39,0,0,1-1,.43,4,4,0,0,1-1.15.16,5.37,5.37,0,0,1-1.71-.27,4.08,4.08,0,0,1-1.42-.81,4,4,0,0,1-1-1.35,4.55,4.55,0,0,1-.36-1.87,4.35,4.35,0,0,1,1.34-3.17,4.61,4.61,0,0,1,1.55-1,5.73,5.73,0,0,1,2-.35,5.29,5.29,0,0,1,2.51.55,4.77,4.77,0,0,1,1.71,1.5,6.47,6.47,0,0,1,1,2.2,10.71,10.71,0,0,1,.31,2.63,9.08,9.08,0,0,1-.38,2.7,6.31,6.31,0,0,1-1.12,2.19,5.21,5.21,0,0,1-1.84,1.47A5.68,5.68,0,0,1,205.8,153.72Zm.56-7a3.23,3.23,0,0,0,1.63-.43,3.85,3.85,0,0,0,1.29-1.15,5.48,5.48,0,0,0-.24-1.09,3.1,3.1,0,0,0-.53-1,2.69,2.69,0,0,0-.89-.74,2.8,2.8,0,0,0-1.32-.29,3,3,0,0,0-1.16.21,2.76,2.76,0,0,0-.84.54,2.38,2.38,0,0,0-.51.75,2.23,2.23,0,0,0-.17.82,2.52,2.52,0,0,0,.22,1.07,2.09,2.09,0,0,0,.6.74,2.67,2.67,0,0,0,.88.43A4,4,0,0,0,206.36,146.72Z" fill="#e52823"/></g></g></svg>