<svg xmlns="http://www.w3.org/2000/svg" viewBox="0 0 300.56 601"><g id="Layer_2" data-name="Layer 2"><g id="content"><rect x="0.56" y="1" width="300" height="600"/><path d="M141.85,261.34v5.37c1.08.06,2.31.28,3.39.37,0,4.47-.11,7.86-.11,12.34,3,.36,5.15.71,6,.86,0-4.48.17-8,.17-12.48,0,0,3.2.5,3.25.54,0-1.84,0-3.68,0-5.51a98,98,0,0,0-12.69-1.49Z" fill="#fff"/><path d="M42.29,254.86C61.35,249,71,263.63,71,263.63s-6-20.36-28.69-8.77Z" fill="#fff"/><path d="M79.14,255.61c0-.08,0-.6,0-.68a14.23,14.23,0,0,0-7.52,10.93s2.59-6,8.69-7.86a3.68,3.68,0,0,1-1.17-2.39Z" fill="#fff"/><path d="M54.83,264.12s0,2.88,0,4.33c-.73,0-3.9-.2-5.29-.25,0,.78,0,1.58,0,2.36,1.66,0,3.39.23,5.05.21,0,1.4,0,2.6,0,4-1.66,0-3.33-.14-5-.17l0,2.54c1.79,0,3.58.19,5.38.17,0-.07,0,4.25,0,4.25-3.54,0-7.74-.28-11.73-.61l.28-17.71c1.68.19,6.88.75,11.41.88Z" fill="#fff"/><path d="M56.34,264.16l-.07,4.62c1.67.09,3.17.09,3.17.09v12.84a40.22,40.22,0,0,0,6.39-.09l-.07-12.71s2.83-.13,3.27-.17c0-1.7,0-3-.06-4.72a113,113,0,0,1-12.62.14Z" fill="#fff"/><path d="M34.21,270l-.56-.06,0-3.64.53.05a1.85,1.85,0,0,1,1.85,1.95c0,1.5-.94,1.79-1.85,1.7Zm1.4-8.57L28,260l0,18.58c1.94.38,3.72.7,5.61.91l0-5.36c.66.07,1.38.16,2,.22,3.29.31,6.6-.93,6.65-6.31,0-4.77-3.14-6.15-6.66-6.67Z" fill="#fff"/><path d="M98.92,278.68c.85-2.22,1.7-4.29,2.55-6.5.13,2.12.22,4,.35,6.15,2.12-.23,3.82-.36,6-.49-.56-5.64-1-11.69-1.58-17.34l-5.47.5c-1,2.67-2,5.9-3.07,8.57-1-2.47-2-5.36-3-7.82-1.85.26-5.13.83-5.47.84-.63,5.75-1.35,12.14-2,17.89,1.45-.25,5-.81,6.07-1,.16-2.14.32-4.44.49-6.58l2.46,6.14,2.64-.4Z" fill="#fff"/><path d="M132.59,268.94l-.56,0c0-1.2,0-2.4.05-3.6l.53,0a1.79,1.79,0,0,1,1.85,1.89,1.53,1.53,0,0,1-1.87,1.7Zm5.27,3.82c1.62-.72,2.79-2.29,2.83-5.41.07-4.7-3.25-6.7-6.62-7q-3.81-.3-7.63-.4c-.08,6-.11,11.43-.19,17.4,1.9.05,4,.19,5.65.33,0-1.68,0-2.92.07-4.6,1.09,1.75,2,3.2,3.06,5,2.34.21,4.74.51,7.08.85-1.46-2.18-2.78-4.05-4.25-6.19Z" fill="#fff"/><path d="M115.64,271.61l1.19-4.52c.45,1.48.91,3,1.36,4.46-2.6.09-2.6.06-2.55.06Zm4.15-11.75c-2.26,0-4.11,0-6,.12-1.55,5.79-3.39,12-4.94,17.79,1.73,0,3.48-.15,5.21-.15l.5-1.93,2.64-.07s2.33-.07,2.33-.07c.07.23.28.83.58,1.85,1.73,0,3.46,0,5.19,0-1.87-6.13-3.76-12-5.47-17.58Z" fill="#fff"/><path d="M71,280.06a15.52,15.52,0,0,0,7,1.78c4,0,8.12-2.38,8.21-6.83.06-3.16-2-4.67-4.76-5.29l-1.5-.34c-.51-.13-1.34-.22-1.32-.92s.87-1,1.45-1a10.63,10.63,0,0,1,4,.86q.85-2.24,1.69-4.47a13.2,13.2,0,0,0-5.78-1.38c-4,0-8,2.42-8.1,6.84-.06,2.92,2.1,4.52,4.7,5l1.33.25c.61.12,1.48.2,1.46,1s-1,.93-1.7.93a7.85,7.85,0,0,1-4.56-1.5c-.69,1.55-1.51,3.47-2.19,5Z" fill="#fff"/><path d="M85.35,249.8a4.47,4.47,0,1,0,4.41,4.52A4.47,4.47,0,0,0,85.35,249.8ZM87,251.45a5.34,5.34,0,0,0-4.8,2.8s0,.05,0,.07a3.31,3.31,0,0,1,.11-1.24A3,3,0,0,1,86,250.91a2.84,2.84,0,0,1,1.06.56Z" fill="#fff"/><path d="M0,600c1.28-91.93,67.13-154.26,150-154.26S300.21,514.8,300.21,600" fill="#e52823"/><g id="Layer_5" data-name="Layer 5"><path d="M23.27,56.88V36.5h10a6.84,6.84,0,0,1,2.49.41A5.26,5.26,0,0,1,37.6,38a4.62,4.62,0,0,1,1.11,1.65,5.22,5.22,0,0,1,.39,2,4.89,4.89,0,0,1-.3,1.74,4.5,4.5,0,0,1-1.9,2.38,4.37,4.37,0,0,1-1.35.55,4,4,0,0,1,1.54.56A5,5,0,0,1,38.35,48a5.66,5.66,0,0,1,.84,1.53,5.32,5.32,0,0,1,.3,1.78,6.05,6.05,0,0,1-.38,2.2A4.88,4.88,0,0,1,38,55.3a5,5,0,0,1-1.86,1.16,7.27,7.27,0,0,1-2.56.42Zm9.32-12a2.86,2.86,0,0,0,2.11-.73,2.53,2.53,0,0,0,.73-1.87,2.59,2.59,0,0,0-.73-1.86,2.87,2.87,0,0,0-2.11-.74H26.84v5.2Zm.15,8.83A3.23,3.23,0,0,0,35,53a2.68,2.68,0,0,0,.81-2.08,2.82,2.82,0,0,0-.78-2,3,3,0,0,0-2.31-.83h-5.9V53.7Z" fill="#fff"/><path d="M46.79,57.24a3.75,3.75,0,0,1-2.82-1,3.87,3.87,0,0,1-1-2.84V36.5h3.2V52.63a2.14,2.14,0,0,0,.36,1.27,1.2,1.2,0,0,0,1,.5,2.15,2.15,0,0,0,.85-.17,1.63,1.63,0,0,0,.59-.38l.76,2.44a3.55,3.55,0,0,1-1.16.68A5.48,5.48,0,0,1,46.79,57.24Z" fill="#fff"/><path d="M62.13,56.88v-2a6.38,6.38,0,0,1-2.06,1.74,5.55,5.55,0,0,1-2.67.64,6.52,6.52,0,0,1-2.62-.52,5.54,5.54,0,0,1-2.07-1.53,7.12,7.12,0,0,1-1.36-2.44,10,10,0,0,1-.49-3.27,9.83,9.83,0,0,1,.49-3.21,7.22,7.22,0,0,1,1.36-2.44,5.76,5.76,0,0,1,2.06-1.54,6.28,6.28,0,0,1,2.63-.54,5.87,5.87,0,0,1,2.62.61,5.93,5.93,0,0,1,2.11,1.8v-2h3.21V56.88ZM58.34,54.4a4.37,4.37,0,0,0,1.12-.15,5.2,5.2,0,0,0,2-1.06,3.35,3.35,0,0,0,.68-.78V46.58a4.37,4.37,0,0,0-.68-.77,5.57,5.57,0,0,0-.92-.64,5,5,0,0,0-1.07-.42,4,4,0,0,0-1.12-.16A3.87,3.87,0,0,0,55.29,46a4.33,4.33,0,0,0-.84,1.54,6.84,6.84,0,0,0,0,3.94A4.51,4.51,0,0,0,55.29,53a3.81,3.81,0,0,0,1.31,1A3.9,3.9,0,0,0,58.34,54.4Z" fill="#fff"/><path d="M76.22,57.24a7.81,7.81,0,0,1-3.07-.58A7.16,7.16,0,0,1,70.75,55a7.3,7.3,0,0,1-1.57-2.46,8.22,8.22,0,0,1-.57-3.1,8.08,8.08,0,0,1,.57-3.08A7.36,7.36,0,0,1,70.75,44a7.16,7.16,0,0,1,2.4-1.62,7.81,7.81,0,0,1,3.07-.58,8.44,8.44,0,0,1,2,.21,6.84,6.84,0,0,1,1.56.59,5.34,5.34,0,0,1,1.2.84,6.55,6.55,0,0,1,.92,1L79.76,46.3a3.92,3.92,0,0,0-3.39-1.71A4.18,4.18,0,0,0,73.13,46a5.12,5.12,0,0,0-1.22,3.53,5.94,5.94,0,0,0,.32,2A4.67,4.67,0,0,0,73.15,53a4,4,0,0,0,1.4,1,4.29,4.29,0,0,0,1.82.37,3.93,3.93,0,0,0,3.39-1.77l2.11,2a7.23,7.23,0,0,1-2.14,1.84A6.83,6.83,0,0,1,76.22,57.24Z" fill="#fff"/><path d="M94.49,56.88,90,50.76,87.92,52.9v4H84.71V36.5h3.21V49.24l6.51-7.12h4l-6.11,6.69,6.23,8.07Z" fill="#fff"/><path d="M108.79,56.88V36.5h14v3.17H112.36v5.2h10.18v3.18H112.36v8.83Z" fill="#fff"/><path d="M125.9,56.88V42.12h3.21v2.14a7.29,7.29,0,0,1,2.1-1.79,5.34,5.34,0,0,1,2.69-.72v3.18a4.71,4.71,0,0,0-1-.09,4.26,4.26,0,0,0-1.09.15,5.12,5.12,0,0,0-1.1.43,4.34,4.34,0,0,0-1,.64,3.1,3.1,0,0,0-.67.76V56.88Z" fill="#fff"/><path d="M138.12,40.31a2,2,0,0,1-2-2,2,2,0,1,1,4,0,2,2,0,0,1-2,2ZM136.5,56.88V42.12h3.21V56.88Z" fill="#fff"/><path d="M154.25,56.88v-2a6.49,6.49,0,0,1-2.06,1.74,5.57,5.57,0,0,1-2.67.64,6.52,6.52,0,0,1-2.62-.52,5.54,5.54,0,0,1-2.07-1.53,7.12,7.12,0,0,1-1.36-2.44,10,10,0,0,1-.49-3.27,9.83,9.83,0,0,1,.49-3.21,7.22,7.22,0,0,1,1.36-2.44,5.76,5.76,0,0,1,2.06-1.54,6.28,6.28,0,0,1,2.63-.54,5.87,5.87,0,0,1,2.62.61,5.93,5.93,0,0,1,2.11,1.8V36.5h3.21V56.88Zm-3.79-2.48a4.37,4.37,0,0,0,1.12-.15,5,5,0,0,0,1.07-.43,4.91,4.91,0,0,0,.91-.63,3.17,3.17,0,0,0,.69-.78V46.58a4.07,4.07,0,0,0-.69-.77,5.48,5.48,0,0,0-.91-.64,5,5,0,0,0-1.07-.42,4,4,0,0,0-1.12-.16A3.87,3.87,0,0,0,147.41,46a4.33,4.33,0,0,0-.84,1.54,6.84,6.84,0,0,0,0,3.94,4.51,4.51,0,0,0,.84,1.56,3.81,3.81,0,0,0,1.31,1A3.9,3.9,0,0,0,150.46,54.4Z" fill="#fff"/><path d="M172,56.88v-2a6.38,6.38,0,0,1-2.06,1.74,5.55,5.55,0,0,1-2.67.64,6.44,6.44,0,0,1-2.61-.52,5.5,5.5,0,0,1-2.08-1.53,7.12,7.12,0,0,1-1.36-2.44,10,10,0,0,1-.49-3.27,9.83,9.83,0,0,1,.49-3.21,7.22,7.22,0,0,1,1.36-2.44,5.84,5.84,0,0,1,2.06-1.54,6.31,6.31,0,0,1,2.63-.54,5.91,5.91,0,0,1,2.63.61,6,6,0,0,1,2.1,1.8v-2h3.21V56.88Zm-3.78-2.48a4.3,4.3,0,0,0,1.11-.15,4.79,4.79,0,0,0,1.07-.43,5,5,0,0,0,.92-.63,3.35,3.35,0,0,0,.68-.78V46.58a4.37,4.37,0,0,0-.68-.77,5.57,5.57,0,0,0-.92-.64,4.77,4.77,0,0,0-1.07-.42,4.16,4.16,0,0,0-2.86.21,4,4,0,0,0-1.31,1,4.33,4.33,0,0,0-.84,1.54,6.84,6.84,0,0,0,0,3.94,4.51,4.51,0,0,0,.84,1.56,3.84,3.84,0,0,0,3.06,1.39Z" fill="#fff"/><path d="M185.17,62.86a9.37,9.37,0,0,1-3.3-.53,8,8,0,0,1-2.65-1.67l1.49-2.32a4.42,4.42,0,0,0,2,1.45,6.93,6.93,0,0,0,2.47.45,4.2,4.2,0,0,0,3.06-1.06,4,4,0,0,0,1.1-3V54.43A7.92,7.92,0,0,1,187.21,56a6.48,6.48,0,0,1-3.08.71,4.83,4.83,0,0,1-3.57-1.2,4.76,4.76,0,0,1-1.19-3.47v-10h3.21v8.77a2.88,2.88,0,0,0,.81,2.36,3.34,3.34,0,0,0,2.18.66,4.31,4.31,0,0,0,2.22-.59A5.39,5.39,0,0,0,189.33,52V42.12h3.21v14a7.42,7.42,0,0,1-.55,2.92,5.6,5.6,0,0,1-1.55,2.11,6.82,6.82,0,0,1-2.33,1.27A9.85,9.85,0,0,1,185.17,62.86Z" fill="#fff"/><path d="M215,56.88v-2a6.38,6.38,0,0,1-2.06,1.74,5.55,5.55,0,0,1-2.67.64,6.44,6.44,0,0,1-2.61-.52,5.5,5.5,0,0,1-2.08-1.53,7.12,7.12,0,0,1-1.36-2.44,10,10,0,0,1-.49-3.27,9.83,9.83,0,0,1,.49-3.21,7.22,7.22,0,0,1,1.36-2.44,5.84,5.84,0,0,1,2.06-1.54,6.31,6.31,0,0,1,2.63-.54,5.91,5.91,0,0,1,2.63.61,6,6,0,0,1,2.1,1.8V36.5h3.21V56.88Zm-3.78-2.48a4.35,4.35,0,0,0,1.11-.15,5.2,5.2,0,0,0,2-1.06,3.35,3.35,0,0,0,.68-.78V46.58a4.37,4.37,0,0,0-.68-.77,5.57,5.57,0,0,0-.92-.64,5,5,0,0,0-1.07-.42,4,4,0,0,0-1.11-.16A3.87,3.87,0,0,0,208.12,46a4.33,4.33,0,0,0-.84,1.54,6.84,6.84,0,0,0,0,3.94,4.51,4.51,0,0,0,.84,1.56,3.81,3.81,0,0,0,1.31,1A3.92,3.92,0,0,0,211.18,54.4Z" fill="#fff"/><path d="M229.17,57.24a8.45,8.45,0,0,1-3.1-.55,6.84,6.84,0,0,1-2.44-1.57A7.2,7.2,0,0,1,222,52.66a8.76,8.76,0,0,1,0-6.19A7.39,7.39,0,0,1,223.53,44a7.64,7.64,0,0,1,2.37-1.65,7.52,7.52,0,0,1,3-.61,7.23,7.23,0,0,1,3,.6A6.46,6.46,0,0,1,234.21,44a7.58,7.58,0,0,1,1.46,2.54,10,10,0,0,1,.5,3.21v.79H224.8a4.67,4.67,0,0,0,.45,1.56,4.46,4.46,0,0,0,.94,1.3,4.37,4.37,0,0,0,1.42.88,5,5,0,0,0,1.87.32,6.66,6.66,0,0,0,2.26-.42A5.41,5.41,0,0,0,233.69,53l1.47,2.11a7.26,7.26,0,0,1-2.69,1.62A9.77,9.77,0,0,1,229.17,57.24Zm3.91-9a4.14,4.14,0,0,0-.29-1.33,3.75,3.75,0,0,0-.76-1.25,3.91,3.91,0,0,0-1.27-.93,4.76,4.76,0,0,0-3.63,0,3.65,3.65,0,0,0-1.27.92,4.32,4.32,0,0,0-1.09,2.61Z" fill="#fff"/><path d="M249.73,56.88v-2a6.38,6.38,0,0,1-2.06,1.74,5.55,5.55,0,0,1-2.67.64,6.44,6.44,0,0,1-2.61-.52,5.5,5.5,0,0,1-2.08-1.53A7.12,7.12,0,0,1,239,52.75a10,10,0,0,1-.49-3.27,9.83,9.83,0,0,1,.49-3.21,7.22,7.22,0,0,1,1.36-2.44,5.84,5.84,0,0,1,2.06-1.54,6.31,6.31,0,0,1,2.63-.54,5.91,5.91,0,0,1,2.63.61,6,6,0,0,1,2.1,1.8v-2h3.21V56.88ZM246,54.4a4.35,4.35,0,0,0,1.11-.15,5.2,5.2,0,0,0,2-1.06,3.35,3.35,0,0,0,.68-.78V46.58a4.37,4.37,0,0,0-.68-.77,5.57,5.57,0,0,0-.92-.64,5,5,0,0,0-1.07-.42,4,4,0,0,0-1.11-.16,3.92,3.92,0,0,0-1.75.37,4,4,0,0,0-1.31,1,4.33,4.33,0,0,0-.84,1.54,6.84,6.84,0,0,0,0,3.94,4.51,4.51,0,0,0,.84,1.56A3.84,3.84,0,0,0,246,54.4Z" fill="#fff"/><path d="M260.89,57.24a3.76,3.76,0,0,1-2.83-1,3.87,3.87,0,0,1-1-2.84V36.5h3.21V52.63a2.14,2.14,0,0,0,.35,1.27,1.2,1.2,0,0,0,1,.5,2.24,2.24,0,0,0,.86-.17,1.57,1.57,0,0,0,.58-.38l.76,2.44a3.45,3.45,0,0,1-1.16.68A5.46,5.46,0,0,1,260.89,57.24Z" fill="#fff"/><path d="M270.91,57.24a10.41,10.41,0,0,1-3.55-.59,7.93,7.93,0,0,1-2.78-1.73l1.47-2.29a5.85,5.85,0,0,0,.95.76,6.72,6.72,0,0,0,1.22.66,8.39,8.39,0,0,0,1.39.46,6.33,6.33,0,0,0,1.42.17,3.7,3.7,0,0,0,2.2-.54,1.67,1.67,0,0,0,.73-1.42,1.17,1.17,0,0,0-.65-1.1,6.81,6.81,0,0,0-1.65-.61c-.66-.16-1.38-.33-2.16-.49a9.23,9.23,0,0,1-2.15-.73,4.87,4.87,0,0,1-1.65-1.32,3.52,3.52,0,0,1-.66-2.26,4,4,0,0,1,.38-1.72,4.26,4.26,0,0,1,1.12-1.43,5.6,5.6,0,0,1,1.82-1,8.18,8.18,0,0,1,2.49-.35,8.62,8.62,0,0,1,3.31.58,8.12,8.12,0,0,1,2.4,1.47l-1.34,2.26a5.47,5.47,0,0,0-1.82-1.25,6.09,6.09,0,0,0-2.55-.52,3.31,3.31,0,0,0-2,.52,1.55,1.55,0,0,0-.72,1.31,1.06,1.06,0,0,0,.66,1,7.1,7.1,0,0,0,1.64.56l2.16.49a9.29,9.29,0,0,1,2.15.77,4.5,4.5,0,0,1,1.65,1.37,3.78,3.78,0,0,1,.66,2.34,4.22,4.22,0,0,1-.4,1.83,3.94,3.94,0,0,1-1.17,1.47,5.72,5.72,0,0,1-1.93,1A9.13,9.13,0,0,1,270.91,57.24Z" fill="#fff"/><path d="M34.74,96a17.65,17.65,0,0,1-7.19-1.33,15.35,15.35,0,0,1-5-3.43l3-4.09A14.28,14.28,0,0,0,29.42,90,11.75,11.75,0,0,0,35,91.28a9.24,9.24,0,0,0,2.76-.36A5.2,5.2,0,0,0,39.56,90a3.75,3.75,0,0,0,1-1.33,3.63,3.63,0,0,0,.33-1.5,2.67,2.67,0,0,0-1.28-2.4,12.32,12.32,0,0,0-3.23-1.42c-1.3-.39-2.7-.76-4.2-1.12A20.76,20.76,0,0,1,28,80.73a9.05,9.05,0,0,1-3.24-2.58,7,7,0,0,1-1.28-4.38,7.67,7.67,0,0,1,.79-3.48,8.66,8.66,0,0,1,2.2-2.79,10.44,10.44,0,0,1,3.43-1.86A14.15,14.15,0,0,1,34.42,65a17,17,0,0,1,6.31,1.1,14.23,14.23,0,0,1,4.87,3.12l-3,3.9a11.16,11.16,0,0,0-4.06-2.62,13.3,13.3,0,0,0-4.65-.83,5.91,5.91,0,0,0-3.66,1,3.23,3.23,0,0,0-1.37,2.69,2.4,2.4,0,0,0,1.28,2.16,13.13,13.13,0,0,0,3.23,1.3c1.3.36,2.7.73,4.2,1.1a19.67,19.67,0,0,1,4.2,1.57A9.44,9.44,0,0,1,45,82.19a7.2,7.2,0,0,1,1.28,4.46,9.48,9.48,0,0,1-.67,3.57,8,8,0,0,1-2.09,3,10.28,10.28,0,0,1-3.61,2A16.53,16.53,0,0,1,34.74,96Z" fill="#fff"/><path d="M58.26,95.41V70.13H49.2V65.46H72.59v4.67H63.52V95.41Z" fill="#fff"/><path d="M95.13,95.41l-2.2-5.79H79.19L77,95.41H71L82.78,65.46h6.56l11.76,30ZM86.06,70.67,80.67,85H91.45Z" fill="#fff"/><path d="M121.44,95.41l-6.6-11.18h-5.25V95.41h-5.26V65.46h13.16a11.54,11.54,0,0,1,4,.68,8.52,8.52,0,0,1,5.12,4.91,10.14,10.14,0,0,1,.69,3.79,9.54,9.54,0,0,1-.61,3.53A8.62,8.62,0,0,1,125.12,81a7.8,7.8,0,0,1-2.29,1.75,9.47,9.47,0,0,1-2.65.87l7.36,11.77Zm-4.63-15.85a5.32,5.32,0,0,0,3.69-1.29,4.46,4.46,0,0,0,1.43-3.47,4.32,4.32,0,0,0-1.43-3.4,5.36,5.36,0,0,0-3.69-1.27h-7.22v9.43Z" fill="#fff"/><path d="M139.71,95.41V70.13h-9.07V65.46H154v4.67H145V95.41Z" fill="#fff"/><path d="M190.94,95.41,175.32,74V95.41h-5.26V65.46h5.39l15.31,20.75V65.46H196v30Z" fill="#fff"/><path d="M216.4,96a15.88,15.88,0,0,1-6.17-1.17,14.36,14.36,0,0,1-8-8.13,17.69,17.69,0,0,1,0-12.39,14.38,14.38,0,0,1,8-8.12,16.85,16.85,0,0,1,12.34,0,14.28,14.28,0,0,1,4.83,3.23,15.06,15.06,0,0,1,3.17,4.89,17.4,17.4,0,0,1,0,12.39,15,15,0,0,1-3.17,4.9,14.43,14.43,0,0,1-4.83,3.23A15.85,15.85,0,0,1,216.4,96Zm0-4.67a9.9,9.9,0,0,0,4.09-.83,9.55,9.55,0,0,0,3.14-2.27,10,10,0,0,0,2-3.43,13.12,13.12,0,0,0,.69-4.29,13,13,0,0,0-.69-4.31,9.88,9.88,0,0,0-2-3.41,9.41,9.41,0,0,0-3.14-2.27,10.54,10.54,0,0,0-8.2,0,9.43,9.43,0,0,0-3.12,2.27,9.88,9.88,0,0,0-2,3.41,13,13,0,0,0-.69,4.31,13.12,13.12,0,0,0,.69,4.29,10,10,0,0,0,2,3.43,9.58,9.58,0,0,0,3.12,2.27A9.83,9.83,0,0,0,216.4,91.28Z" fill="#fff"/><path d="M258.74,95.41,253,73.27l-5.84,22.14H241.5L233,65.46h5.84l5.83,23,6.2-23H255l6.2,23,5.84-23h5.88l-8.58,30Z" fill="#fff"/><path d="M23.27,55.88V35.5h10a6.84,6.84,0,0,1,2.49.41A5.26,5.26,0,0,1,37.6,37a4.62,4.62,0,0,1,1.11,1.65,5.22,5.22,0,0,1,.39,2,4.89,4.89,0,0,1-.3,1.74,4.5,4.5,0,0,1-1.9,2.38,4.37,4.37,0,0,1-1.35.55,4,4,0,0,1,1.54.56A5,5,0,0,1,38.35,47a5.66,5.66,0,0,1,.84,1.53,5.32,5.32,0,0,1,.3,1.78,6.05,6.05,0,0,1-.38,2.2A4.88,4.88,0,0,1,38,54.3a5,5,0,0,1-1.86,1.16,7.27,7.27,0,0,1-2.56.42Zm9.32-12a2.86,2.86,0,0,0,2.11-.73,2.53,2.53,0,0,0,.73-1.87,2.59,2.59,0,0,0-.73-1.86,2.87,2.87,0,0,0-2.11-.74H26.84v5.2Zm.15,8.83A3.23,3.23,0,0,0,35,52a2.68,2.68,0,0,0,.81-2.08,2.82,2.82,0,0,0-.78-2,3,3,0,0,0-2.31-.83h-5.9V52.7Z" fill="#fff"/><path d="M46.79,56.24a3.75,3.75,0,0,1-2.82-1,3.87,3.87,0,0,1-1-2.84V35.5h3.2V51.63a2.14,2.14,0,0,0,.36,1.27,1.2,1.2,0,0,0,1,.5,2.15,2.15,0,0,0,.85-.17,1.63,1.63,0,0,0,.59-.38l.76,2.44a3.55,3.55,0,0,1-1.16.68A5.48,5.48,0,0,1,46.79,56.24Z" fill="#fff"/><path d="M62.13,55.88v-2a6.38,6.38,0,0,1-2.06,1.74,5.55,5.55,0,0,1-2.67.64,6.52,6.52,0,0,1-2.62-.52,5.54,5.54,0,0,1-2.07-1.53,7.12,7.12,0,0,1-1.36-2.44,10,10,0,0,1-.49-3.27,9.83,9.83,0,0,1,.49-3.21,7.22,7.22,0,0,1,1.36-2.44,5.76,5.76,0,0,1,2.06-1.54,6.28,6.28,0,0,1,2.63-.54,5.87,5.87,0,0,1,2.62.61,5.93,5.93,0,0,1,2.11,1.8v-2h3.21V55.88ZM58.34,53.4a4.37,4.37,0,0,0,1.12-.15,5.2,5.2,0,0,0,2-1.06,3.35,3.35,0,0,0,.68-.78V45.58a4.37,4.37,0,0,0-.68-.77,5.57,5.57,0,0,0-.92-.64,5,5,0,0,0-1.07-.42,4,4,0,0,0-1.12-.16A3.87,3.87,0,0,0,55.29,45a4.33,4.33,0,0,0-.84,1.54,6.84,6.84,0,0,0,0,3.94A4.51,4.51,0,0,0,55.29,52a3.81,3.81,0,0,0,1.31,1A3.9,3.9,0,0,0,58.34,53.4Z" fill="#fff"/><path d="M76.22,56.24a7.81,7.81,0,0,1-3.07-.58A7.16,7.16,0,0,1,70.75,54a7.3,7.3,0,0,1-1.57-2.46,8.22,8.22,0,0,1-.57-3.1,8.08,8.08,0,0,1,.57-3.08A7.36,7.36,0,0,1,70.75,43a7.16,7.16,0,0,1,2.4-1.62,7.81,7.81,0,0,1,3.07-.58,8.44,8.44,0,0,1,2,.21,6.84,6.84,0,0,1,1.56.59,5.34,5.34,0,0,1,1.2.84,6.55,6.55,0,0,1,.92,1L79.76,45.3a3.92,3.92,0,0,0-3.39-1.71A4.18,4.18,0,0,0,73.13,45a5.12,5.12,0,0,0-1.22,3.53,5.94,5.94,0,0,0,.32,2A4.67,4.67,0,0,0,73.15,52a4,4,0,0,0,1.4,1,4.29,4.29,0,0,0,1.82.37,3.93,3.93,0,0,0,3.39-1.77l2.11,2a7.23,7.23,0,0,1-2.14,1.84A6.83,6.83,0,0,1,76.22,56.24Z" fill="#fff"/><path d="M94.49,55.88,90,49.76,87.92,51.9v4H84.71V35.5h3.21V48.24l6.51-7.12h4l-6.11,6.69,6.23,8.07Z" fill="#fff"/><path d="M108.79,55.88V35.5h14v3.17H112.36v5.2h10.18v3.18H112.36v8.83Z" fill="#fff"/><path d="M125.9,55.88V41.12h3.21v2.14a7.29,7.29,0,0,1,2.1-1.79,5.34,5.34,0,0,1,2.69-.72v3.18a4.71,4.71,0,0,0-1-.09,4.26,4.26,0,0,0-1.09.15,5.12,5.12,0,0,0-1.1.43,4.34,4.34,0,0,0-1,.64,3.1,3.1,0,0,0-.67.76V55.88Z" fill="#fff"/><path d="M138.12,39.31a2,2,0,0,1-2-2,2,2,0,1,1,4,0,2,2,0,0,1-2,2ZM136.5,55.88V41.12h3.21V55.88Z" fill="#fff"/><path d="M154.25,55.88v-2a6.49,6.49,0,0,1-2.06,1.74,5.57,5.57,0,0,1-2.67.64,6.52,6.52,0,0,1-2.62-.52,5.54,5.54,0,0,1-2.07-1.53,7.12,7.12,0,0,1-1.36-2.44,10,10,0,0,1-.49-3.27,9.83,9.83,0,0,1,.49-3.21,7.22,7.22,0,0,1,1.36-2.44,5.76,5.76,0,0,1,2.06-1.54,6.28,6.28,0,0,1,2.63-.54,5.87,5.87,0,0,1,2.62.61,5.93,5.93,0,0,1,2.11,1.8V35.5h3.21V55.88Zm-3.79-2.48a4.37,4.37,0,0,0,1.12-.15,5,5,0,0,0,1.07-.43,4.91,4.91,0,0,0,.91-.63,3.17,3.17,0,0,0,.69-.78V45.58a4.07,4.07,0,0,0-.69-.77,5.48,5.48,0,0,0-.91-.64,5,5,0,0,0-1.07-.42,4,4,0,0,0-1.12-.16A3.87,3.87,0,0,0,147.41,45a4.33,4.33,0,0,0-.84,1.54,6.84,6.84,0,0,0,0,3.94,4.51,4.51,0,0,0,.84,1.56,3.81,3.81,0,0,0,1.31,1A3.9,3.9,0,0,0,150.46,53.4Z" fill="#fff"/><path d="M172,55.88v-2a6.38,6.38,0,0,1-2.06,1.74,5.55,5.55,0,0,1-2.67.64,6.44,6.44,0,0,1-2.61-.52,5.5,5.5,0,0,1-2.08-1.53,7.12,7.12,0,0,1-1.36-2.44,10,10,0,0,1-.49-3.27,9.83,9.83,0,0,1,.49-3.21,7.22,7.22,0,0,1,1.36-2.44,5.84,5.84,0,0,1,2.06-1.54,6.31,6.31,0,0,1,2.63-.54,5.91,5.91,0,0,1,2.63.61,6,6,0,0,1,2.1,1.8v-2h3.21V55.88Zm-3.78-2.48a4.3,4.3,0,0,0,1.11-.15,4.79,4.79,0,0,0,1.07-.43,5,5,0,0,0,.92-.63,3.35,3.35,0,0,0,.68-.78V45.58a4.37,4.37,0,0,0-.68-.77,5.57,5.57,0,0,0-.92-.64,4.77,4.77,0,0,0-1.07-.42,4.16,4.16,0,0,0-2.86.21,4,4,0,0,0-1.31,1,4.33,4.33,0,0,0-.84,1.54,6.84,6.84,0,0,0,0,3.94,4.51,4.51,0,0,0,.84,1.56,3.84,3.84,0,0,0,3.06,1.39Z" fill="#fff"/><path d="M185.17,61.86a9.37,9.37,0,0,1-3.3-.53,8,8,0,0,1-2.65-1.67l1.49-2.32a4.42,4.42,0,0,0,2,1.45,6.93,6.93,0,0,0,2.47.45,4.2,4.2,0,0,0,3.06-1.06,4,4,0,0,0,1.1-3V53.43A7.92,7.92,0,0,1,187.21,55a6.48,6.48,0,0,1-3.08.71,4.83,4.83,0,0,1-3.57-1.2,4.76,4.76,0,0,1-1.19-3.47v-10h3.21v8.77a2.88,2.88,0,0,0,.81,2.36,3.34,3.34,0,0,0,2.18.66,4.31,4.31,0,0,0,2.22-.59A5.39,5.39,0,0,0,189.33,51V41.12h3.21v14a7.42,7.42,0,0,1-.55,2.92,5.6,5.6,0,0,1-1.55,2.11,6.82,6.82,0,0,1-2.33,1.27A9.85,9.85,0,0,1,185.17,61.86Z" fill="#fff"/><path d="M215,55.88v-2a6.38,6.38,0,0,1-2.06,1.74,5.55,5.55,0,0,1-2.67.64,6.44,6.44,0,0,1-2.61-.52,5.5,5.5,0,0,1-2.08-1.53,7.12,7.12,0,0,1-1.36-2.44,10,10,0,0,1-.49-3.27,9.83,9.83,0,0,1,.49-3.21,7.22,7.22,0,0,1,1.36-2.44,5.84,5.84,0,0,1,2.06-1.54,6.31,6.31,0,0,1,2.63-.54,5.91,5.91,0,0,1,2.63.61,6,6,0,0,1,2.1,1.8V35.5h3.21V55.88Zm-3.78-2.48a4.35,4.35,0,0,0,1.11-.15,5.2,5.2,0,0,0,2-1.06,3.35,3.35,0,0,0,.68-.78V45.58a4.37,4.37,0,0,0-.68-.77,5.57,5.57,0,0,0-.92-.64,5,5,0,0,0-1.07-.42,4,4,0,0,0-1.11-.16A3.87,3.87,0,0,0,208.12,45a4.33,4.33,0,0,0-.84,1.54,6.84,6.84,0,0,0,0,3.94,4.51,4.51,0,0,0,.84,1.56,3.81,3.81,0,0,0,1.31,1A3.92,3.92,0,0,0,211.18,53.4Z" fill="#fff"/><path d="M229.17,56.24a8.45,8.45,0,0,1-3.1-.55,6.84,6.84,0,0,1-2.44-1.57A7.2,7.2,0,0,1,222,51.66a8.76,8.76,0,0,1,0-6.19A7.39,7.39,0,0,1,223.53,43a7.64,7.64,0,0,1,2.37-1.65,7.52,7.52,0,0,1,3-.61,7.23,7.23,0,0,1,3,.6A6.46,6.46,0,0,1,234.21,43a7.58,7.58,0,0,1,1.46,2.54,10,10,0,0,1,.5,3.21v.79H224.8a4.67,4.67,0,0,0,.45,1.56,4.46,4.46,0,0,0,.94,1.3,4.37,4.37,0,0,0,1.42.88,5,5,0,0,0,1.87.32,6.66,6.66,0,0,0,2.26-.42A5.41,5.41,0,0,0,233.69,52l1.47,2.11a7.26,7.26,0,0,1-2.69,1.62A9.77,9.77,0,0,1,229.17,56.24Zm3.91-9a4.14,4.14,0,0,0-.29-1.33,3.75,3.75,0,0,0-.76-1.25,3.91,3.91,0,0,0-1.27-.93,4.76,4.76,0,0,0-3.63,0,3.65,3.65,0,0,0-1.27.92,4.32,4.32,0,0,0-1.09,2.61Z" fill="#fff"/><path d="M249.73,55.88v-2a6.38,6.38,0,0,1-2.06,1.74,5.55,5.55,0,0,1-2.67.64,6.44,6.44,0,0,1-2.61-.52,5.5,5.5,0,0,1-2.08-1.53A7.12,7.12,0,0,1,239,51.75a10,10,0,0,1-.49-3.27,9.83,9.83,0,0,1,.49-3.21,7.22,7.22,0,0,1,1.36-2.44,5.84,5.84,0,0,1,2.06-1.54,6.31,6.31,0,0,1,2.63-.54,5.91,5.91,0,0,1,2.63.61,6,6,0,0,1,2.1,1.8v-2h3.21V55.88ZM246,53.4a4.35,4.35,0,0,0,1.11-.15,5.2,5.2,0,0,0,2-1.06,3.35,3.35,0,0,0,.68-.78V45.58a4.37,4.37,0,0,0-.68-.77,5.57,5.57,0,0,0-.92-.64,5,5,0,0,0-1.07-.42,4,4,0,0,0-1.11-.16,3.92,3.92,0,0,0-1.75.37,4,4,0,0,0-1.31,1,4.33,4.33,0,0,0-.84,1.54,6.84,6.84,0,0,0,0,3.94,4.51,4.51,0,0,0,.84,1.56A3.84,3.84,0,0,0,246,53.4Z" fill="#fff"/><path d="M260.89,56.24a3.76,3.76,0,0,1-2.83-1,3.87,3.87,0,0,1-1-2.84V35.5h3.21V51.63a2.14,2.14,0,0,0,.35,1.27,1.2,1.2,0,0,0,1,.5,2.24,2.24,0,0,0,.86-.17,1.57,1.57,0,0,0,.58-.38l.76,2.44a3.45,3.45,0,0,1-1.16.68A5.46,5.46,0,0,1,260.89,56.24Z" fill="#fff"/><path d="M270.91,56.24a10.41,10.41,0,0,1-3.55-.59,7.93,7.93,0,0,1-2.78-1.73l1.47-2.29a5.85,5.85,0,0,0,.95.76,6.72,6.72,0,0,0,1.22.66,8.39,8.39,0,0,0,1.39.46,6.33,6.33,0,0,0,1.42.17,3.7,3.7,0,0,0,2.2-.54,1.67,1.67,0,0,0,.73-1.42,1.17,1.17,0,0,0-.65-1.1,6.81,6.81,0,0,0-1.65-.61c-.66-.16-1.38-.33-2.16-.49a9.23,9.23,0,0,1-2.15-.73,4.87,4.87,0,0,1-1.65-1.32,3.52,3.52,0,0,1-.66-2.26,4,4,0,0,1,.38-1.72,4.26,4.26,0,0,1,1.12-1.43,5.6,5.6,0,0,1,1.82-1,8.18,8.18,0,0,1,2.49-.35,8.62,8.62,0,0,1,3.31.58,8.12,8.12,0,0,1,2.4,1.47l-1.34,2.26a5.47,5.47,0,0,0-1.82-1.25,6.09,6.09,0,0,0-2.55-.52,3.31,3.31,0,0,0-2,.52,1.55,1.55,0,0,0-.72,1.31,1.06,1.06,0,0,0,.66,1,7.1,7.1,0,0,0,1.64.56l2.16.49a9.29,9.29,0,0,1,2.15.77,4.5,4.5,0,0,1,1.65,1.37,3.78,3.78,0,0,1,.66,2.34,4.22,4.22,0,0,1-.4,1.83,3.94,3.94,0,0,1-1.17,1.47,5.72,5.72,0,0,1-1.93,1A9.13,9.13,0,0,1,270.91,56.24Z" fill="#fff"/><path d="M34.74,95a17.65,17.65,0,0,1-7.19-1.33,15.35,15.35,0,0,1-5-3.43l3-4.09A14.28,14.28,0,0,0,29.42,89,11.75,11.75,0,0,0,35,90.28a9.24,9.24,0,0,0,2.76-.36A5.2,5.2,0,0,0,39.56,89a3.75,3.75,0,0,0,1-1.33,3.63,3.63,0,0,0,.33-1.5,2.67,2.67,0,0,0-1.28-2.4,12.32,12.32,0,0,0-3.23-1.42c-1.3-.39-2.7-.76-4.2-1.12A20.76,20.76,0,0,1,28,79.73a9.05,9.05,0,0,1-3.24-2.58,7,7,0,0,1-1.28-4.38,7.67,7.67,0,0,1,.79-3.48,8.66,8.66,0,0,1,2.2-2.79,10.44,10.44,0,0,1,3.43-1.86A14.15,14.15,0,0,1,34.42,64a17,17,0,0,1,6.31,1.1,14.23,14.23,0,0,1,4.87,3.12l-3,3.9a11.16,11.16,0,0,0-4.06-2.62,13.3,13.3,0,0,0-4.65-.83,5.91,5.91,0,0,0-3.66,1,3.23,3.23,0,0,0-1.37,2.69,2.4,2.4,0,0,0,1.28,2.16,13.13,13.13,0,0,0,3.23,1.3c1.3.36,2.7.73,4.2,1.1a19.67,19.67,0,0,1,4.2,1.57A9.44,9.44,0,0,1,45,81.19a7.2,7.2,0,0,1,1.28,4.46,9.48,9.48,0,0,1-.67,3.57,8,8,0,0,1-2.09,3,10.28,10.28,0,0,1-3.61,2A16.53,16.53,0,0,1,34.74,95Z" fill="#fff"/><path d="M58.26,94.41V69.13H49.2V64.46H72.59v4.67H63.52V94.41Z" fill="#fff"/><path d="M95.13,94.41l-2.2-5.79H79.19L77,94.41H71L82.78,64.46h6.56l11.76,30ZM86.06,69.67,80.67,84H91.45Z" fill="#fff"/><path d="M121.44,94.41l-6.6-11.18h-5.25V94.41h-5.26V64.46h13.16a11.54,11.54,0,0,1,4,.68,8.52,8.52,0,0,1,5.12,4.91,10.14,10.14,0,0,1,.69,3.79,9.54,9.54,0,0,1-.61,3.53A8.62,8.62,0,0,1,125.12,80a7.8,7.8,0,0,1-2.29,1.75,9.47,9.47,0,0,1-2.65.87l7.36,11.77Zm-4.63-15.85a5.32,5.32,0,0,0,3.69-1.29,4.46,4.46,0,0,0,1.43-3.47,4.32,4.32,0,0,0-1.43-3.4,5.36,5.36,0,0,0-3.69-1.27h-7.22v9.43Z" fill="#fff"/><path d="M139.71,94.41V69.13h-9.07V64.46H154v4.67H145V94.41Z" fill="#fff"/><path d="M190.94,94.41,175.32,73V94.41h-5.26V64.46h5.39l15.31,20.75V64.46H196v30Z" fill="#fff"/><path d="M216.4,95a15.88,15.88,0,0,1-6.17-1.17,14.36,14.36,0,0,1-8-8.13,17.69,17.69,0,0,1,0-12.39,14.38,14.38,0,0,1,8-8.12,16.85,16.85,0,0,1,12.34,0,14.28,14.28,0,0,1,4.83,3.23,15.06,15.06,0,0,1,3.17,4.89,17.4,17.4,0,0,1,0,12.39,15,15,0,0,1-3.17,4.9,14.43,14.43,0,0,1-4.83,3.23A15.85,15.85,0,0,1,216.4,95Zm0-4.67a9.9,9.9,0,0,0,4.09-.83,9.55,9.55,0,0,0,3.14-2.27,10,10,0,0,0,2-3.43,13.12,13.12,0,0,0,.69-4.29,13,13,0,0,0-.69-4.31,9.88,9.88,0,0,0-2-3.41,9.41,9.41,0,0,0-3.14-2.27,10.54,10.54,0,0,0-8.2,0,9.43,9.43,0,0,0-3.12,2.27,9.88,9.88,0,0,0-2,3.41,13,13,0,0,0-.69,4.31,13.12,13.12,0,0,0,.69,4.29,10,10,0,0,0,2,3.43,9.58,9.58,0,0,0,3.12,2.27A9.83,9.83,0,0,0,216.4,90.28Z" fill="#fff"/><path d="M258.74,94.41,253,72.27l-5.84,22.14H241.5L233,64.46h5.84l5.83,23,6.2-23H255l6.2,23,5.84-23h5.88l-8.58,30Z" fill="#fff"/></g></g><g id="REC"><rect x="0.56" y="1" width="300" height="600" fill="none"/><rect x="0.56" width="300" height="600" fill="none"/></g></g></svg>