<svg xmlns="http://www.w3.org/2000/svg" viewBox="0 0 301.08 600"><defs><style>.cls-1{fill:none;}.cls-2{fill:#fff;}.cls-3{fill:#e52823;}.cls-4{fill:#e32d27;}</style></defs><g id="Layer_2" data-name="Layer 2"><g id="content"><rect width="300" height="600"/><rect class="cls-1" width="300" height="599.75"/><path class="cls-2" d="M144.49,276c0,1.74,0,3.35,0,5.09,1,0,2.19.26,3.22.35,0,4.23-.11,7.44-.11,11.67,2.85.35,4.87.67,5.66.82,0-4.24.16-7.58.17-11.81,0,0,3,.47,3.07.51,0-1.74,0-3.48,0-5.22a94.48,94.48,0,0,0-12-1.41Z"/><path class="cls-2" d="M50.25,269.82c18-5.51,27.15,8.3,27.15,8.3s-5.72-19.28-27.15-8.3Z"/><path class="cls-2" d="M85.13,270.53a4.7,4.7,0,0,1,0-.65A13.48,13.48,0,0,0,78,280.23s2.45-5.71,8.23-7.44a3.41,3.41,0,0,1-1.11-2.26Z"/><path class="cls-2" d="M62.11,278.59s0,2.72,0,4.1c-.69,0-3.69-.19-5-.24,0,.73,0,1.49,0,2.22,1.57,0,3.21.22,4.79.21,0,1.32,0,2.46,0,3.78-1.58,0-3.16-.12-4.73-.16,0,.81,0,1.61,0,2.41,1.7,0,3.4.18,5.1.16,0-.06,0,4,0,4-3.36,0-7.34-.26-11.11-.58l.27-16.76c1.58.18,6.51.71,10.79.84Z"/><path class="cls-2" d="M63.54,278.62,63.48,283c1.58.08,3,.08,3,.08v12.15a38.3,38.3,0,0,0,6-.08l-.07-12,3.1-.16c0-1.61,0-2.87-.06-4.48a105.78,105.78,0,0,1-11.95.14Z"/><path class="cls-2" d="M42.59,284.13l-.53-.06,0-3.45.51.06a1.75,1.75,0,0,1,1.75,1.84c0,1.42-.89,1.7-1.76,1.61ZM43.92,276l-7.18-1.3,0,17.59c1.84.36,3.52.66,5.31.86l0-5.08c.63.07,1.31.16,1.94.21,3.11.29,6.25-.88,6.29-6,0-4.51-3-5.82-6.3-6.31Z"/><path class="cls-2" d="M103.85,292.36c.81-2.1,1.61-4.05,2.41-6.15.13,2,.21,3.82.34,5.83,2-.23,3.61-.34,5.63-.47-.52-5.34-1-11.07-1.49-16.41l-5.17.47c-1,2.52-1.94,5.59-2.91,8.11-.93-2.33-1.87-5.07-2.8-7.41-1.74.25-4.85.8-5.17.8-.6,5.45-1.28,11.5-1.88,16.94,1.37-.24,4.73-.77,5.75-.91l.46-6.23,2.33,5.82,2.5-.39Z"/><path class="cls-2" d="M135.72,283.15l-.53,0c0-1.13,0-2.26.05-3.4l.51,0a1.7,1.7,0,0,1,1.75,1.79,1.46,1.46,0,0,1-1.78,1.61Zm5,3.61c1.54-.68,2.64-2.17,2.68-5.12.06-4.45-3.08-6.34-6.26-6.58-2.41-.2-4.82-.32-7.23-.39-.07,5.65-.1,10.82-.18,16.47,1.8.05,3.78.19,5.35.32,0-1.59,0-2.77.07-4.36,1,1.66,1.87,3,2.89,4.71,2.22.2,4.49.49,6.7.81-1.38-2.07-2.63-3.84-4-5.86Z"/><path class="cls-2" d="M119.68,285.67c.37-1.4.75-2.88,1.13-4.28.42,1.41.85,2.81,1.28,4.22-2.46.09-2.46.06-2.41.06Zm3.93-11.12c-2.14,0-3.89,0-5.72.12-1.47,5.47-3.21,11.34-4.68,16.84,1.64,0,3.3-.15,4.93-.15.15-.58.33-1.25.48-1.82l2.5-.07c-.06,0,2.2-.07,2.2-.07.06.22.26.79.55,1.75,1.64,0,3.28,0,4.91,0-1.77-5.8-3.56-11.38-5.17-16.64Z"/><path class="cls-2" d="M77.41,293.67a14.72,14.72,0,0,0,6.64,1.68c3.76,0,7.7-2.25,7.78-6.45.06-3-1.85-4.43-4.51-5l-1.42-.32c-.48-.12-1.26-.21-1.25-.87s.83-.93,1.38-.94a10.24,10.24,0,0,1,3.83.81c.54-1.41,1.07-2.82,1.6-4.22A12.44,12.44,0,0,0,86,277c-3.78,0-7.58,2.29-7.66,6.48,0,2.76,2,4.27,4.45,4.73l1.26.23c.57.12,1.4.19,1.38,1s-1,.88-1.61.88a7.46,7.46,0,0,1-4.32-1.42c-.65,1.47-1.42,3.29-2.07,4.75Z"/><path class="cls-2" d="M91,265a4.23,4.23,0,1,0,4.17,4.29A4.23,4.23,0,0,0,91,265Zm1.53,1.56A5.09,5.09,0,0,0,88,269.24a.15.15,0,0,0,0,.07,3,3,0,0,1,.1-1.18,2.88,2.88,0,0,1,3.51-2.05,2.54,2.54,0,0,1,1,.53Z"/><path class="cls-3" d="M22.35,177.5V163.81h6.73a4.57,4.57,0,0,1,1.67.28,3.49,3.49,0,0,1,1.22.75,3.08,3.08,0,0,1,.75,1.1,3.64,3.64,0,0,1,.26,1.35,3.34,3.34,0,0,1-.2,1.17,3,3,0,0,1-.52.93,3,3,0,0,1-.76.67,2.91,2.91,0,0,1-.9.37,2.63,2.63,0,0,1,1,.38,3.33,3.33,0,0,1,.84.75,3.55,3.55,0,0,1,.57,1,3.67,3.67,0,0,1,.2,1.19,4.18,4.18,0,0,1-.25,1.48,3.47,3.47,0,0,1-.76,1.18,3.4,3.4,0,0,1-1.25.78,4.85,4.85,0,0,1-1.72.28Zm6.25-8.07A2,2,0,0,0,30,169a1.85,1.85,0,0,0,0-2.51A1.91,1.91,0,0,0,28.6,166H24.75v3.48Zm.11,5.94a2.22,2.22,0,0,0,1.53-.5,1.82,1.82,0,0,0,.54-1.4,1.88,1.88,0,0,0-.52-1.34,2,2,0,0,0-1.55-.56h-4v3.8Z"/><path class="cls-3" d="M42.29,177.5v-1.31a5.28,5.28,0,0,1-1.42,1.07,4.34,4.34,0,0,1-2.07.49,3.26,3.26,0,0,1-2.4-.81,3.2,3.2,0,0,1-.8-2.33v-7h2.16v6.22a2,2,0,0,0,.54,1.59,2.28,2.28,0,0,0,1.47.44,2.92,2.92,0,0,0,1.49-.4,3.55,3.55,0,0,0,1-.9v-6.95h2.16v9.91Z"/><path class="cls-3" d="M51.14,181.52a6.3,6.3,0,0,1-2.22-.36A5.28,5.28,0,0,1,47.14,180l1-1.56a3,3,0,0,0,1.33,1,4.74,4.74,0,0,0,1.67.3,2.85,2.85,0,0,0,2-.71,2.7,2.7,0,0,0,.74-2v-1.15a5.57,5.57,0,0,1-1.43,1.08,4.26,4.26,0,0,1-2.06.48,3.22,3.22,0,0,1-2.4-.81,3.16,3.16,0,0,1-.8-2.33v-6.69h2.15v5.89a2,2,0,0,0,.55,1.59,2.27,2.27,0,0,0,1.46.44,2.8,2.8,0,0,0,1.49-.4,3.73,3.73,0,0,0,1-.89v-6.63h2.15V177a4.83,4.83,0,0,1-.37,2,3.77,3.77,0,0,1-1,1.41,4.5,4.5,0,0,1-1.57.85A6.26,6.26,0,0,1,51.14,181.52Z"/><path class="cls-3" d="M66.71,177.5V166.91l-2.23,2.34-1.4-1.46,3.94-4h2.09V177.5Z"/><path class="cls-3" d="M74.63,176.72a4,4,0,0,1-.52,2,4.5,4.5,0,0,1-1.39,1.52l-1-.8a3.15,3.15,0,0,0,.49-.37,3.37,3.37,0,0,0,.45-.48A2.62,2.62,0,0,0,73,178a1.67,1.67,0,0,0,.19-.54l-.15,0-.2,0a1.12,1.12,0,0,1-.86-.37,1.27,1.27,0,0,1-.35-.94,1.36,1.36,0,0,1,.4-1,1.34,1.34,0,0,1,1-.41,1.49,1.49,0,0,1,1.11.48A1.9,1.9,0,0,1,74.63,176.72Z"/><path class="cls-3" d="M86.33,181.52a7.13,7.13,0,0,1-2.26-.32A5.33,5.33,0,0,1,82.16,180l1-1.56a3.38,3.38,0,0,0,1.39,1,5.13,5.13,0,0,0,1.77.29,4.23,4.23,0,0,0,1.06-.14,2.5,2.5,0,0,0,.94-.46,2.39,2.39,0,0,0,.68-.85,3,3,0,0,0,.25-1.32v-1.13a4.44,4.44,0,0,1-1.38,1.21,3.64,3.64,0,0,1-1.8.45,4.4,4.4,0,0,1-1.75-.34,3.82,3.82,0,0,1-1.4-1,4.57,4.57,0,0,1-.91-1.59,6.62,6.62,0,0,1-.33-2.18,6.47,6.47,0,0,1,.33-2.15,4.62,4.62,0,0,1,.91-1.6,3.92,3.92,0,0,1,1.39-1,4.38,4.38,0,0,1,1.76-.34A3.85,3.85,0,0,1,89.26,169v-1.37h2.16V177A4.83,4.83,0,0,1,91,179.2a3.79,3.79,0,0,1-1.18,1.4,4.75,4.75,0,0,1-1.64.72A8.74,8.74,0,0,1,86.33,181.52Zm.39-5.93a3,3,0,0,0,1.47-.39,3.07,3.07,0,0,0,1.07-.92v-3.72a3.07,3.07,0,0,0-1.07-.92,3,3,0,0,0-1.47-.39,2.57,2.57,0,0,0-2,.87,3.88,3.88,0,0,0,0,4.61A2.6,2.6,0,0,0,86.72,175.59Z"/><path class="cls-3" d="M98.81,177.75a5.88,5.88,0,0,1-2.09-.37,4.78,4.78,0,0,1-1.64-1.06A4.92,4.92,0,0,1,94,174.67a5.88,5.88,0,0,1,0-4.16,5.2,5.2,0,0,1,1-1.65,5.13,5.13,0,0,1,5.63-1.12,4.44,4.44,0,0,1,1.54,1.12,5,5,0,0,1,1,1.7,6.79,6.79,0,0,1,.34,2.16v.53H95.87a3.17,3.17,0,0,0,.3,1.05,2.88,2.88,0,0,0,.64.87,3,3,0,0,0,1,.6A3.52,3.52,0,0,0,99,176a4.21,4.21,0,0,0,1.52-.29,3.44,3.44,0,0,0,1.31-.82l1,1.42a5.1,5.1,0,0,1-1.81,1.09A6.74,6.74,0,0,1,98.81,177.75Zm2.62-6a3,3,0,0,0-.19-.89,2.62,2.62,0,0,0-.52-.84,2.77,2.77,0,0,0-.85-.63,3.28,3.28,0,0,0-2.44,0,2.71,2.71,0,0,0-.85.62,2.62,2.62,0,0,0-.52.84,2.55,2.55,0,0,0-.21.91Z"/><path class="cls-3" d="M108.64,177.75a2.53,2.53,0,0,1-1.91-.66,2.61,2.61,0,0,1-.64-1.91v-5.72h-1.64v-1.87h1.64v-2.71h2.16v2.71h2v1.87h-2v5.19a1.44,1.44,0,0,0,.23.85.83.83,0,0,0,.71.34,1.28,1.28,0,0,0,.56-.12,1,1,0,0,0,.38-.25l.52,1.64a2.23,2.23,0,0,1-.78.45A3.61,3.61,0,0,1,108.64,177.75Z"/><path class="cls-3" d="M122,177.75a5.19,5.19,0,0,1-2.13-.42,5,5,0,0,1-1.6-1.13,5.1,5.1,0,0,1-1-1.66,5.74,5.74,0,0,1-.35-2,5.82,5.82,0,0,1,.35-2,5,5,0,0,1,1-1.65,4.85,4.85,0,0,1,1.6-1.12,5.76,5.76,0,0,1,4.27,0,4.85,4.85,0,0,1,1.6,1.12,4.78,4.78,0,0,1,1,1.65,5.59,5.59,0,0,1,.35,2,5.52,5.52,0,0,1-.35,2,4.91,4.91,0,0,1-1,1.66,5,5,0,0,1-1.6,1.13A5.21,5.21,0,0,1,122,177.75Zm0-1.91a2.61,2.61,0,0,0,2.13-1,3.08,3.08,0,0,0,.54-1,4.49,4.49,0,0,0,.19-1.27,4.35,4.35,0,0,0-.19-1.25,3.27,3.27,0,0,0-.54-1.05,2.57,2.57,0,0,0-.89-.71,2.73,2.73,0,0,0-1.24-.27,2.66,2.66,0,0,0-1.21.27,2.7,2.7,0,0,0-.9.71,3.1,3.1,0,0,0-.55,1.05,4,4,0,0,0-.19,1.25,4.16,4.16,0,0,0,.19,1.27,2.93,2.93,0,0,0,.55,1,2.86,2.86,0,0,0,.9.72A2.66,2.66,0,0,0,122,175.84Z"/><path class="cls-3" d="M136,177.5v-6.2a2,2,0,0,0-.54-1.61,2.32,2.32,0,0,0-1.47-.44,2.8,2.8,0,0,0-1.49.41,4,4,0,0,0-1.06.9v6.94h-2.15v-9.91h2.15v1.33a4.86,4.86,0,0,1,.61-.57,4.68,4.68,0,0,1,.81-.52,4.88,4.88,0,0,1,2.09-.49,2.85,2.85,0,0,1,3.2,3.18v7Z"/><path class="cls-3" d="M145.51,177.75a5.83,5.83,0,0,1-2.08-.37,4.6,4.6,0,0,1-1.64-1.06,4.92,4.92,0,0,1-1.08-1.65,5.7,5.7,0,0,1-.39-2.14,5.49,5.49,0,0,1,.37-2,4.91,4.91,0,0,1,2.63-2.76,5.24,5.24,0,0,1,4,0,4.53,4.53,0,0,1,1.54,1.12,5,5,0,0,1,1,1.7,6.52,6.52,0,0,1,.34,2.16v.53h-7.63a3.41,3.41,0,0,0,.29,1.05,2.88,2.88,0,0,0,.64.87,3.2,3.2,0,0,0,1,.6,3.54,3.54,0,0,0,1.26.21,4.16,4.16,0,0,0,1.51-.29,3.56,3.56,0,0,0,1.32-.82l1,1.42a5,5,0,0,1-1.8,1.09A6.8,6.8,0,0,1,145.51,177.75Zm2.63-6a3.06,3.06,0,0,0-.2-.89,2.43,2.43,0,0,0-.51-.84,2.9,2.9,0,0,0-.85-.63,3.28,3.28,0,0,0-2.44,0,2.64,2.64,0,0,0-.86.62,2.81,2.81,0,0,0-.52.84,2.77,2.77,0,0,0-.2.91Z"/><path class="cls-3" d="M162.48,177.75a7.06,7.06,0,0,1-3-.57,5.85,5.85,0,0,1-2.08-1.55l1.38-1.66a4.59,4.59,0,0,0,3.67,1.64,2.87,2.87,0,0,0,2.06-.7,2.25,2.25,0,0,0,.75-1.72,2.2,2.2,0,0,0-.74-1.76,2.9,2.9,0,0,0-2-.66,4.41,4.41,0,0,0-1.6.28,4.06,4.06,0,0,0-1.39.89l-1.71-.49v-7.64h9V166h-6.57v3.92a4.82,4.82,0,0,1,1.32-.83,4.45,4.45,0,0,1,1.78-.34A5,5,0,0,1,165,169a4.13,4.13,0,0,1,1.4.87,4.09,4.09,0,0,1,1,1.38,4.8,4.8,0,0,1,.35,1.87,4.57,4.57,0,0,1-.39,1.92,4.28,4.28,0,0,1-1.07,1.45,4.73,4.73,0,0,1-1.66.94A6.44,6.44,0,0,1,162.48,177.75Z"/><path class="cls-3" d="M174.9,177.75a4.71,4.71,0,0,1-2.5-.63,5.26,5.26,0,0,1-1.69-1.63,7.35,7.35,0,0,1-1-2.27,10.36,10.36,0,0,1,0-5.11,7.35,7.35,0,0,1,1-2.27,5.13,5.13,0,0,1,1.69-1.62,5.37,5.37,0,0,1,5,0,5.13,5.13,0,0,1,1.69,1.62,7.37,7.37,0,0,1,1,2.27,10.36,10.36,0,0,1,0,5.11,7.37,7.37,0,0,1-1,2.27,5.26,5.26,0,0,1-1.69,1.63A4.68,4.68,0,0,1,174.9,177.75Zm0-2.14a2.34,2.34,0,0,0,1.4-.41,3,3,0,0,0,.94-1.09,5.68,5.68,0,0,0,.51-1.57,10.25,10.25,0,0,0,.16-1.87,11.28,11.28,0,0,0-.15-1.88,5.08,5.08,0,0,0-.51-1.57,3,3,0,0,0-.94-1.08,2.37,2.37,0,0,0-1.41-.4,2.4,2.4,0,0,0-1.42.4,3.07,3.07,0,0,0-.93,1.08,5.37,5.37,0,0,0-.53,1.57,11.07,11.07,0,0,0,0,3.75,5.37,5.37,0,0,0,.53,1.57,3.1,3.1,0,0,0,.93,1.09A2.34,2.34,0,0,0,174.9,175.61Z"/><path class="cls-3" d="M185.2,170.4a3.66,3.66,0,0,1-1.39-.26,3.16,3.16,0,0,1-1.07-.72,3,3,0,0,1-.7-1.07,3.47,3.47,0,0,1-.25-1.34,3.51,3.51,0,0,1,.25-1.34,3,3,0,0,1,.7-1.09,3.16,3.16,0,0,1,1.07-.72,4,4,0,0,1,2.78,0,2.93,2.93,0,0,1,1.08.72,3.49,3.49,0,0,1,.69,1.09,3.71,3.71,0,0,1,.24,1.34,3.67,3.67,0,0,1-.24,1.34,3.4,3.4,0,0,1-.69,1.07,2.93,2.93,0,0,1-1.08.72A3.7,3.7,0,0,1,185.2,170.4Zm0-1.38a1.7,1.7,0,0,0,1.31-.55A2.09,2.09,0,0,0,187,167a2.14,2.14,0,0,0-.51-1.49,1.68,1.68,0,0,0-1.31-.57,1.66,1.66,0,0,0-1.29.57,2.1,2.1,0,0,0-.52,1.49,2,2,0,0,0,.52,1.47A1.67,1.67,0,0,0,185.2,169Zm-1.34,8.48,8.75-13.69H194l-8.76,13.69Zm8.7.25a3.65,3.65,0,0,1-1.38-.26,3.1,3.1,0,0,1-1.08-.72,3.26,3.26,0,0,1-.7-1.07,3.61,3.61,0,0,1-.24-1.33,3.71,3.71,0,0,1,.24-1.34,3.2,3.2,0,0,1,.7-1.08,3.1,3.1,0,0,1,1.08-.72,3.82,3.82,0,0,1,2.77,0A3.1,3.1,0,0,1,195,172a3.2,3.2,0,0,1,.7,1.08,3.71,3.71,0,0,1,.24,1.34,3.61,3.61,0,0,1-.24,1.33,3.26,3.26,0,0,1-.7,1.07,3.1,3.1,0,0,1-1.08.72A3.66,3.66,0,0,1,192.56,177.75Zm0-1.38a1.71,1.71,0,0,0,1.32-.55,2.08,2.08,0,0,0,.51-1.46,2.14,2.14,0,0,0-.51-1.49,1.82,1.82,0,0,0-2.63,0,2.14,2.14,0,0,0-.51,1.49,2.08,2.08,0,0,0,.51,1.46A1.7,1.7,0,0,0,192.56,176.37Z"/><path class="cls-3" d="M207.73,177.75a5.24,5.24,0,0,1-2.14-.42,5.14,5.14,0,0,1-1.6-1.13,5.08,5.08,0,0,1-1-1.66,5.74,5.74,0,0,1-.35-2,5.82,5.82,0,0,1,.35-2,4.71,4.71,0,0,1,2.6-2.77,5.76,5.76,0,0,1,4.27,0,4.77,4.77,0,0,1,2.61,2.77,5.82,5.82,0,0,1,.35,2,5.74,5.74,0,0,1-.35,2,4.8,4.8,0,0,1-2.61,2.79A5.19,5.19,0,0,1,207.73,177.75Zm0-1.91a2.71,2.71,0,0,0,1.23-.27,2.62,2.62,0,0,0,.89-.72,3.28,3.28,0,0,0,.55-1,4.48,4.48,0,0,0,.18-1.27,4.34,4.34,0,0,0-.18-1.25,3.51,3.51,0,0,0-.55-1.05,2.48,2.48,0,0,0-.89-.71,2.71,2.71,0,0,0-1.23-.27,2.63,2.63,0,0,0-1.21.27,2.52,2.52,0,0,0-.9.71,3.13,3.13,0,0,0-.56,1.05,4.34,4.34,0,0,0-.18,1.25,4.48,4.48,0,0,0,.18,1.27,3,3,0,0,0,.56,1,2.66,2.66,0,0,0,.9.72A2.63,2.63,0,0,0,207.73,175.84Z"/><path class="cls-3" d="M215.55,177.5v-8h-1.64v-1.87h1.64V167a3.44,3.44,0,0,1,.88-2.54,3,3,0,0,1,2.24-.88,3.56,3.56,0,0,1,1.74.37l-.47,1.62a1.55,1.55,0,0,0-.86-.23,1.3,1.3,0,0,0-1,.41,1.86,1.86,0,0,0-.36,1.25v.56h2v1.87h-2v8Z"/><path class="cls-3" d="M221.89,177.5v-8h-1.64v-1.87h1.64V167a3.44,3.44,0,0,1,.88-2.54,3,3,0,0,1,2.24-.88,3.56,3.56,0,0,1,1.74.37l-.47,1.62a1.55,1.55,0,0,0-.86-.23,1.3,1.3,0,0,0-1,.41A1.86,1.86,0,0,0,224,167v.56h2v1.87h-2v8Z"/><path class="cls-3" d="M240,177.5v-1.35a4.29,4.29,0,0,1-1.39,1.16,3.74,3.74,0,0,1-1.79.44,4.46,4.46,0,0,1-1.76-.35,3.91,3.91,0,0,1-1.39-1,4.93,4.93,0,0,1-.92-1.64,6.79,6.79,0,0,1-.32-2.2,6.61,6.61,0,0,1,.32-2.15,4.93,4.93,0,0,1,.92-1.64,4,4,0,0,1,1.38-1,4.28,4.28,0,0,1,1.77-.36,3.92,3.92,0,0,1,1.76.41A4.09,4.09,0,0,1,240,169v-1.37h2.15v9.91Zm-2.55-1.66a2.78,2.78,0,0,0,.75-.11,3.16,3.16,0,0,0,.72-.28,4.8,4.8,0,0,0,.62-.42,2.58,2.58,0,0,0,.46-.53v-3.92a3.59,3.59,0,0,0-.46-.51,3.42,3.42,0,0,0-.62-.43,3.74,3.74,0,0,0-.72-.29,2.76,2.76,0,0,0-.75-.1,2.58,2.58,0,0,0-1.17.25,2.75,2.75,0,0,0-.88.67,3,3,0,0,0-.56,1,4.25,4.25,0,0,0-.2,1.32,4.36,4.36,0,0,0,.2,1.33,3,3,0,0,0,.56,1,2.55,2.55,0,0,0,.88.69A2.58,2.58,0,0,0,237.42,175.84Z"/><path class="cls-3" d="M247.46,177.75a2.54,2.54,0,0,1-1.9-.66,2.61,2.61,0,0,1-.65-1.91V163.81h2.16v10.84a1.52,1.52,0,0,0,.23.85.83.83,0,0,0,.71.34,1.4,1.4,0,0,0,.58-.12,1.19,1.19,0,0,0,.39-.25l.51,1.64a2.23,2.23,0,0,1-.78.45A3.69,3.69,0,0,1,247.46,177.75Z"/><path class="cls-3" d="M253.33,177.75a2.54,2.54,0,0,1-1.9-.66,2.61,2.61,0,0,1-.65-1.91V163.81h2.16v10.84a1.52,1.52,0,0,0,.23.85.83.83,0,0,0,.71.34,1.4,1.4,0,0,0,.58-.12,1.19,1.19,0,0,0,.39-.25l.51,1.64a2.23,2.23,0,0,1-.78.45A3.69,3.69,0,0,1,253.33,177.75Z"/><path class="cls-3" d="M26.8,199.62a5.29,5.29,0,0,1-2.06-.39,4.75,4.75,0,0,1-1.61-1.08,4.87,4.87,0,0,1-1.06-1.66,5.86,5.86,0,0,1,0-4.15,4.78,4.78,0,0,1,1.06-1.64,4.64,4.64,0,0,1,1.61-1.09,5.29,5.29,0,0,1,2.06-.39,5.87,5.87,0,0,1,1.32.14,5,5,0,0,1,1.05.39,4.16,4.16,0,0,1,.81.57,5.46,5.46,0,0,1,.62.66l-1.42,1.3a2.64,2.64,0,0,0-2.28-1.15,2.76,2.76,0,0,0-2.17.91,3.4,3.4,0,0,0-.82,2.37,4,4,0,0,0,.21,1.32,2.9,2.9,0,0,0,.62,1.05,2.79,2.79,0,0,0,.94.69,3,3,0,0,0,1.22.25,2.64,2.64,0,0,0,2.28-1.2l1.42,1.34a5.19,5.19,0,0,1-1.44,1.23A4.56,4.56,0,0,1,26.8,199.62Z"/><path class="cls-3" d="M39.48,199.38V198a4.07,4.07,0,0,1-1.38,1.17,3.74,3.74,0,0,1-1.8.43,4.24,4.24,0,0,1-1.75-.35,3.73,3.73,0,0,1-1.4-1,4.91,4.91,0,0,1-.91-1.64,6.83,6.83,0,0,1-.33-2.2,6.6,6.6,0,0,1,.33-2.15,5,5,0,0,1,.91-1.65,3.91,3.91,0,0,1,1.39-1,4.23,4.23,0,0,1,1.76-.36,3.89,3.89,0,0,1,1.76.41,4,4,0,0,1,1.42,1.21v-1.37h2.16v9.91Zm-2.54-1.66a2.9,2.9,0,0,0,.75-.11,3.39,3.39,0,0,0,.71-.28,4,4,0,0,0,.62-.43,2.26,2.26,0,0,0,.46-.52v-3.92A2.72,2.72,0,0,0,39,192a3,3,0,0,0-.62-.43,3.41,3.41,0,0,0-.71-.29,2.87,2.87,0,0,0-.75-.1,2.59,2.59,0,0,0-2.06.92,3.05,3.05,0,0,0-.56,1,4.46,4.46,0,0,0,0,2.64,3.1,3.1,0,0,0,.56,1.05,2.61,2.61,0,0,0,.89.69A2.72,2.72,0,0,0,36.94,197.72Z"/><path class="cls-3" d="M47.42,199.62a2.58,2.58,0,0,1-1.91-.65,2.67,2.67,0,0,1-.63-1.91v-5.73H43.24v-1.86h1.64v-2.71H47v2.71h2v1.86H47v5.19a1.46,1.46,0,0,0,.24.86.82.82,0,0,0,.71.34,1.31,1.31,0,0,0,.56-.12,1,1,0,0,0,.38-.25l.51,1.64a2.23,2.23,0,0,1-.78.45A3.59,3.59,0,0,1,47.42,199.62Z"/><path class="cls-3" d="M58.81,199.62a2.59,2.59,0,0,1-1.9-.65,2.63,2.63,0,0,1-.64-1.91V185.69h2.15v10.83a1.46,1.46,0,0,0,.24.86.81.81,0,0,0,.71.34,1.39,1.39,0,0,0,.57-.12,1,1,0,0,0,.39-.25l.51,1.64a2.23,2.23,0,0,1-.78.45A3.67,3.67,0,0,1,58.81,199.62Z"/><path class="cls-3" d="M63.22,188.25a1.31,1.31,0,0,1-1.33-1.33,1.33,1.33,0,0,1,1.33-1.33,1.3,1.3,0,0,1,1,.39,1.28,1.28,0,0,1,.39.94,1.3,1.3,0,0,1-.39,1A1.33,1.33,0,0,1,63.22,188.25Zm-1.08,11.13v-9.91h2.15v9.91Z"/><path class="cls-3" d="M70.08,199.62a2.57,2.57,0,0,1-1.91-.65,2.63,2.63,0,0,1-.64-1.91v-5.73H65.89v-1.86h1.64v-2.71h2.16v2.71h2v1.86h-2v5.19a1.53,1.53,0,0,0,.23.86.83.83,0,0,0,.71.34,1.35,1.35,0,0,0,.57-.12,1.14,1.14,0,0,0,.38-.25l.51,1.64a2.23,2.23,0,0,1-.78.45A3.63,3.63,0,0,1,70.08,199.62Z"/><path class="cls-3" d="M76.62,199.62a2.58,2.58,0,0,1-1.91-.65,2.67,2.67,0,0,1-.63-1.91v-5.73H72.44v-1.86h1.64v-2.71h2.15v2.71h2v1.86h-2v5.19a1.46,1.46,0,0,0,.24.86.82.82,0,0,0,.71.34,1.31,1.31,0,0,0,.56-.12,1,1,0,0,0,.38-.25l.51,1.64a2.23,2.23,0,0,1-.78.45A3.55,3.55,0,0,1,76.62,199.62Z"/><path class="cls-3" d="M84.77,199.62a5.62,5.62,0,0,1-2.08-.37A4.57,4.57,0,0,1,81,198.2,5.06,5.06,0,0,1,80,196.55a5.7,5.7,0,0,1-.39-2.14,5.49,5.49,0,0,1,.37-2,4.81,4.81,0,0,1,1-1.65,5,5,0,0,1,1.59-1.11,5.06,5.06,0,0,1,2-.41,4.91,4.91,0,0,1,2,.4,4.53,4.53,0,0,1,1.54,1.12,5.07,5.07,0,0,1,1,1.7,6.52,6.52,0,0,1,.34,2.16v.53H81.83a3.73,3.73,0,0,0,.3,1.05,3,3,0,0,0,.64.87,2.88,2.88,0,0,0,1,.59,3.31,3.31,0,0,0,1.25.22,4.4,4.4,0,0,0,1.52-.29,3.56,3.56,0,0,0,1.32-.82l1,1.42a4.89,4.89,0,0,1-1.8,1.08A6.55,6.55,0,0,1,84.77,199.62Zm2.63-6a3,3,0,0,0-.2-.89,2.78,2.78,0,0,0-.51-.84,2.73,2.73,0,0,0-.85-.63,3,3,0,0,0-1.26-.25,2.81,2.81,0,0,0-1.19.24,2.56,2.56,0,0,0-.85.62,2.81,2.81,0,0,0-.52.84,3.07,3.07,0,0,0-.21.91Z"/><path class="cls-3" d="M91.6,199.38v-9.91h2.16v1.43a4.83,4.83,0,0,1,1.41-1.2,3.61,3.61,0,0,1,1.81-.48v2.13a3.23,3.23,0,0,0-.66-.06,2.81,2.81,0,0,0-.73.11,3.24,3.24,0,0,0-.73.28,3.86,3.86,0,0,0-.65.43,2.36,2.36,0,0,0-.45.52v6.75Z"/><path class="cls-3" d="M98.11,199.6a1.36,1.36,0,0,1-1-.43,1.42,1.42,0,0,1-.42-1,1.36,1.36,0,0,1,.42-1,1.44,1.44,0,0,1,2,0,1.36,1.36,0,0,1,.42,1,1.42,1.42,0,0,1-.42,1A1.35,1.35,0,0,1,98.11,199.6Z"/><path class="cls-4" d="M.26,599.19c1.29-91.93,67.14-154.26,150-154.26S300.47,514,300.47,599.19"/><path class="cls-2" d="M22.45,61.43V30.75H38.6a10.59,10.59,0,0,1,3.86.64,8.15,8.15,0,0,1,2.76,1.72,7,7,0,0,1,1.66,2.51,8.24,8.24,0,0,1,.55,2.94A7.81,7.81,0,0,1,47,41.17a6.5,6.5,0,0,1-1.15,2.09,7.17,7.17,0,0,1-1.67,1.5,6.3,6.3,0,0,1-2,.82,6.08,6.08,0,0,1,2.32.85,7.2,7.2,0,0,1,1.86,1.66,7.85,7.85,0,0,1,1.25,2.28A8.22,8.22,0,0,1,48,53.09a9.21,9.21,0,0,1-.58,3.27A7.4,7.4,0,0,1,45.77,59,7.65,7.65,0,0,1,43,60.79a10.83,10.83,0,0,1-3.89.64ZM37.17,42.89A3.76,3.76,0,0,0,39.79,42a3.21,3.21,0,0,0,0-4.6,3.73,3.73,0,0,0-2.62-.89H29v6.35Zm.28,12.74a4.19,4.19,0,0,0,2.87-.91,3.24,3.24,0,0,0,1-2.56,3.39,3.39,0,0,0-1-2.47,3.93,3.93,0,0,0-2.92-1H29v6.94Z"/><path class="cls-2" d="M59.07,62q-6.26,0-6.26-6.12V30.75h5.84V54.3a2.88,2.88,0,0,0,.53,1.77,1.74,1.74,0,0,0,1.5.71,3.59,3.59,0,0,0,1.22-.2,1.8,1.8,0,0,0,.8-.49l1.24,4.47a5.21,5.21,0,0,1-1.86,1A9.64,9.64,0,0,1,59.07,62Z"/><path class="cls-2" d="M81.79,61.43V58.58a9.38,9.38,0,0,1-3.06,2.53,8.29,8.29,0,0,1-3.79.87,9.76,9.76,0,0,1-3.89-.78,8.61,8.61,0,0,1-3.13-2.28,11.05,11.05,0,0,1-2.07-3.65,14.91,14.91,0,0,1-.76-5,15.11,15.11,0,0,1,.74-4.88,10.66,10.66,0,0,1,2-3.65A8.87,8.87,0,0,1,71,39.47a9.55,9.55,0,0,1,3.94-.81,8.76,8.76,0,0,1,3.74.83,8.4,8.4,0,0,1,3.11,2.57V39.21h5.89V61.43Zm-5-4.65a6.21,6.21,0,0,0,2.87-.71,5.37,5.37,0,0,0,2.14-1.82V46.43a5.66,5.66,0,0,0-2.14-1.84,6.12,6.12,0,0,0-2.87-.73,5.21,5.21,0,0,0-4.1,1.77,6.81,6.81,0,0,0-1.56,4.67A6.9,6.9,0,0,0,72.68,55,5.16,5.16,0,0,0,76.78,56.78Z"/><path class="cls-2" d="M103.82,62a12.57,12.57,0,0,1-4.71-.85,11.15,11.15,0,0,1-3.73-2.41A10.94,10.94,0,0,1,92.92,55a13.08,13.08,0,0,1,0-9.38,10.8,10.8,0,0,1,2.46-3.7,11,11,0,0,1,3.73-2.42,12.57,12.57,0,0,1,4.71-.85,11,11,0,0,1,5.55,1.24,10.5,10.5,0,0,1,3.24,2.76l-3.82,3.59a5.31,5.31,0,0,0-4.69-2.39,5.73,5.73,0,0,0-4.35,1.77,6.51,6.51,0,0,0-1.68,4.67A6.59,6.59,0,0,0,99.75,55a5.67,5.67,0,0,0,4.35,1.79,5.48,5.48,0,0,0,4.69-2.43l3.82,3.58a8.59,8.59,0,0,1-1.36,1.5,10,10,0,0,1-1.88,1.29,10.94,10.94,0,0,1-2.46.92A12.77,12.77,0,0,1,103.82,62Z"/><path class="cls-2" d="M130.83,61.43l-5.89-8.56-2.67,2.86v5.7h-5.84V30.75h5.84V49.1l8.42-9.89h7.17l-8.78,10.08,9.06,12.14Z"/><path class="cls-2" d="M153,61.43V30.75h21.71v5.79H159.58v6.35h14.85v5.8H159.58V61.43Z"/><path class="cls-2" d="M179.17,61.43V39.21H185v3a10.16,10.16,0,0,1,3.11-2.5,8.24,8.24,0,0,1,4-1v5.7a8.11,8.11,0,0,0-1.61-.13,7,7,0,0,0-1.54.18,8.06,8.06,0,0,0-1.57.53,8.44,8.44,0,0,0-1.38.8,4.32,4.32,0,0,0-1,1V61.43Z"/><path class="cls-2" d="M198.63,36.82a3.45,3.45,0,0,1-3.45-3.5,3.28,3.28,0,0,1,1-2.46,3.36,3.36,0,0,1,2.44-1,3.4,3.4,0,0,1,2.48,1,3.28,3.28,0,0,1,1,2.46,3.45,3.45,0,0,1-3.49,3.5Zm-2.9,24.61V39.21h5.84V61.43Z"/><path class="cls-2" d="M222.64,61.43V58.58a9.38,9.38,0,0,1-3.06,2.53,8.29,8.29,0,0,1-3.79.87,9.76,9.76,0,0,1-3.89-.78,8.61,8.61,0,0,1-3.13-2.28,11.05,11.05,0,0,1-2.07-3.65,14.91,14.91,0,0,1-.76-5,15.11,15.11,0,0,1,.74-4.88,10.66,10.66,0,0,1,2-3.65,8.87,8.87,0,0,1,3.13-2.3,9.58,9.58,0,0,1,3.94-.81,8.84,8.84,0,0,1,3.75.83,8.45,8.45,0,0,1,3.1,2.57V30.75h5.89V61.43Zm-5-4.65a6.21,6.21,0,0,0,2.87-.71,5.37,5.37,0,0,0,2.14-1.82V46.39a5.45,5.45,0,0,0-2.14-1.82,6.34,6.34,0,0,0-2.87-.71,5.21,5.21,0,0,0-4.1,1.77A6.81,6.81,0,0,0,212,50.3,6.9,6.9,0,0,0,213.53,55,5.16,5.16,0,0,0,217.63,56.78Z"/><path class="cls-2" d="M249.6,61.43V58.58a9.38,9.38,0,0,1-3.06,2.53,8.33,8.33,0,0,1-3.8.87,9.79,9.79,0,0,1-3.89-.78,8.57,8.57,0,0,1-3.12-2.28,10.71,10.71,0,0,1-2.07-3.65,14.91,14.91,0,0,1-.76-5,15.12,15.12,0,0,1,.73-4.88,10.68,10.68,0,0,1,2.05-3.65,8.78,8.78,0,0,1,3.13-2.3,9.53,9.53,0,0,1,3.93-.81,8.77,8.77,0,0,1,3.75.83,8.4,8.4,0,0,1,3.11,2.57V39.21h5.88V61.43Zm-5-4.65a6.25,6.25,0,0,0,2.88-.71,5.51,5.51,0,0,0,2.14-1.82V46.43a5.82,5.82,0,0,0-2.14-1.84,6.16,6.16,0,0,0-2.88-.73,5.19,5.19,0,0,0-4.09,1.77,6.82,6.82,0,0,0-1.57,4.67A6.9,6.9,0,0,0,240.49,55,5.14,5.14,0,0,0,244.58,56.78Z"/><path class="cls-2" d="M270.3,70.45a13.61,13.61,0,0,1-9.3-3.32L263.63,63A6.42,6.42,0,0,0,266.68,65a11.29,11.29,0,0,0,3.62.62,6.49,6.49,0,0,0,2.53-.46A5.62,5.62,0,0,0,274.69,64a5.06,5.06,0,0,0,1.17-1.79,5.86,5.86,0,0,0,.42-2.23v-2.3a12.14,12.14,0,0,1-3.11,2.3A9.81,9.81,0,0,1,268.46,61q-3.69,0-5.43-1.87A7.17,7.17,0,0,1,261.28,54V39.21h5.84V51.72a3.92,3.92,0,0,0,1.11,3.2,4.58,4.58,0,0,0,3,.9,5.67,5.67,0,0,0,3-.78,8.25,8.25,0,0,0,2.07-1.75V39.21h5.84V60a11.2,11.2,0,0,1-.85,4.44,9.31,9.31,0,0,1-2.42,3.31,10.5,10.5,0,0,1-3.72,2.05A15.92,15.92,0,0,1,270.3,70.45Z"/><path class="cls-2" d="M37.58,106.43v-2.85a9.35,9.35,0,0,1-3,2.53,8.33,8.33,0,0,1-3.8.87,9.76,9.76,0,0,1-3.89-.78,8.57,8.57,0,0,1-3.12-2.28,10.71,10.71,0,0,1-2.07-3.65,14.91,14.91,0,0,1-.76-5,15.12,15.12,0,0,1,.73-4.88,10.68,10.68,0,0,1,2.05-3.65,8.78,8.78,0,0,1,3.13-2.3,9.53,9.53,0,0,1,3.93-.81,8.77,8.77,0,0,1,3.75.83,8.37,8.37,0,0,1,3.1,2.57V75.75h5.89v30.68Zm-5-4.65a6.25,6.25,0,0,0,2.88-.71,5.41,5.41,0,0,0,2.13-1.82V91.39a5.49,5.49,0,0,0-2.13-1.82,6.38,6.38,0,0,0-2.88-.71,5.19,5.19,0,0,0-4.09,1.77,6.77,6.77,0,0,0-1.57,4.67A6.85,6.85,0,0,0,28.48,100,5.14,5.14,0,0,0,32.57,101.78Z"/><path class="cls-2" d="M59.71,107a13,13,0,0,1-4.71-.83,11.06,11.06,0,0,1-3.78-2.34,10.81,10.81,0,0,1-2.48-3.68,12.45,12.45,0,0,1-.9-4.83,12.24,12.24,0,0,1,.85-4.53,11,11,0,0,1,6-6.19,11.58,11.58,0,0,1,4.64-.92,11.32,11.32,0,0,1,4.56.9,10,10,0,0,1,3.52,2.5,11.79,11.79,0,0,1,2.25,3.84,14.44,14.44,0,0,1,.8,4.95v1.38H54a5.92,5.92,0,0,0,1.93,3.5,6.38,6.38,0,0,0,4.46,1.47,9.2,9.2,0,0,0,1.5-.14,10.56,10.56,0,0,0,1.61-.41A9.53,9.53,0,0,0,65,101a8.18,8.18,0,0,0,1.26-.92l2.62,3.86a10.8,10.8,0,0,1-4.09,2.3A16.47,16.47,0,0,1,59.71,107Zm5.15-13.8a7.08,7.08,0,0,0-.41-1.63,4.72,4.72,0,0,0-1-1.54,4.82,4.82,0,0,0-1.68-1.13,6.32,6.32,0,0,0-2.46-.44,5.86,5.86,0,0,0-2.37.44A5.13,5.13,0,0,0,55.34,90a4.86,4.86,0,0,0-1,1.52,6.74,6.74,0,0,0-.44,1.68Z"/><path class="cls-2" d="M90,106.43v-2.85a9.38,9.38,0,0,1-3.06,2.53,8.33,8.33,0,0,1-3.8.87,9.71,9.71,0,0,1-3.88-.78,8.61,8.61,0,0,1-3.13-2.28A10.71,10.71,0,0,1,74,100.27a14.91,14.91,0,0,1-.76-5A15.11,15.11,0,0,1,74,90.42a10.66,10.66,0,0,1,2-3.65,8.87,8.87,0,0,1,3.13-2.3,9.53,9.53,0,0,1,3.93-.81,8.77,8.77,0,0,1,3.75.83A8.4,8.4,0,0,1,90,87.06V84.21h5.89v22.22Zm-5-4.65a6.22,6.22,0,0,0,2.88-.71A5.44,5.44,0,0,0,90,99.25V91.43a5.83,5.83,0,0,0-2.14-1.84A6.13,6.13,0,0,0,85,88.86a5.2,5.2,0,0,0-4.09,1.77,6.81,6.81,0,0,0-1.56,4.67A6.9,6.9,0,0,0,80.87,100,5.15,5.15,0,0,0,85,101.78Z"/><path class="cls-2" d="M107.92,107q-6.26,0-6.26-6.12V75.75h5.84V99.3a2.88,2.88,0,0,0,.53,1.77,1.75,1.75,0,0,0,1.5.71,3.55,3.55,0,0,0,1.22-.2,1.8,1.8,0,0,0,.8-.49l1.24,4.47a5.21,5.21,0,0,1-1.86,1A9.64,9.64,0,0,1,107.92,107Z"/><path class="cls-2" d="M123.37,107a16.56,16.56,0,0,1-5.54-.92,12.22,12.22,0,0,1-4.39-2.53L116,99.3a8.09,8.09,0,0,0,1.49,1.15,14,14,0,0,0,1.93,1,13.45,13.45,0,0,0,2.12.69,9.26,9.26,0,0,0,2.14.25,4.91,4.91,0,0,0,2.83-.64,2,2,0,0,0,.9-1.7,1.44,1.44,0,0,0-1-1.36,12.89,12.89,0,0,0-2.44-.76l-3.17-.67a12.68,12.68,0,0,1-3.18-1.08,6.73,6.73,0,0,1-2.43-2,5.68,5.68,0,0,1-1-3.5,6.07,6.07,0,0,1,.6-2.64,6.44,6.44,0,0,1,1.75-2.23,8.61,8.61,0,0,1,2.85-1.55,12.29,12.29,0,0,1,3.91-.57,13.93,13.93,0,0,1,5,.85,14.2,14.2,0,0,1,3.89,2.19l-2.34,4.14A8.34,8.34,0,0,0,127.15,89a9.44,9.44,0,0,0-3.82-.76,4.64,4.64,0,0,0-2.56.62,1.84,1.84,0,0,0-.94,1.54,1.31,1.31,0,0,0,1,1.22,15,15,0,0,0,2.44.69l3.17.69a12.55,12.55,0,0,1,3.18,1.17A7.49,7.49,0,0,1,132,96.31a5.9,5.9,0,0,1,1,3.59,6.22,6.22,0,0,1-2.5,5.08C128.85,106.31,126.47,107,123.37,107Z"/><path class="cls-2" d="M33.4,152a19.82,19.82,0,0,1-7.66-1.33,16.71,16.71,0,0,1-5.41-3.54L23.92,142a14.27,14.27,0,0,0,4.1,2.94,12.42,12.42,0,0,0,5.65,1.25,6.44,6.44,0,0,0,4-1A3,3,0,0,0,39,142.78a2.18,2.18,0,0,0-1.31-2,15.26,15.26,0,0,0-3.27-1.2c-1.3-.33-2.72-.68-4.25-1A18.11,18.11,0,0,1,25.92,137a9.62,9.62,0,0,1-3.26-2.74,7.41,7.41,0,0,1-1.31-4.62,8.19,8.19,0,0,1,.8-3.61,9.09,9.09,0,0,1,2.3-3,11.14,11.14,0,0,1,3.66-2,15.06,15.06,0,0,1,4.87-.73q7.32,0,12,4.28l-3.63,4.87a12,12,0,0,0-4.23-2.55,14.33,14.33,0,0,0-4.69-.81,5.35,5.35,0,0,0-3.2.83,2.61,2.61,0,0,0-1.13,2.21A2,2,0,0,0,29.37,131a16.49,16.49,0,0,0,3.27,1.13l4.23,1.06a18.16,18.16,0,0,1,4.23,1.61,9.45,9.45,0,0,1,3.27,2.78,7.49,7.49,0,0,1,1.31,4.6,9.88,9.88,0,0,1-.76,3.91,8.17,8.17,0,0,1-2.3,3.1,11.18,11.18,0,0,1-3.84,2.07A17.08,17.08,0,0,1,33.4,152Z"/><path class="cls-2" d="M56.54,151.43V126.54h-9v-5.79H72v5.79H63.12v24.89Z"/><path class="cls-2" d="M94.49,151.43l-1.94-5.2H79.4l-1.93,5.2H70.06l11.82-30.68h8.19l11.82,30.68ZM86,127.23l-4.79,13.21h9.57Z"/><path class="cls-2" d="M122.09,151.43l-6-10.9h-4.78v10.9h-6.54V120.75H119.1a11.94,11.94,0,0,1,4.3.73,9.37,9.37,0,0,1,3.26,2.07,8.82,8.82,0,0,1,2.07,3.15,10.56,10.56,0,0,1,.72,3.93,10,10,0,0,1-.6,3.59,9.37,9.37,0,0,1-1.54,2.69,8.2,8.2,0,0,1-2.16,1.84,8.41,8.41,0,0,1-2.47,1l6.95,11.69Zm-3.91-16.7a4.9,4.9,0,0,0,3.24-1.09,3.76,3.76,0,0,0,1.31-3,3.66,3.66,0,0,0-1.31-3,5,5,0,0,0-3.24-1.07h-6.9v8.19Z"/><path class="cls-2" d="M141.41,151.43V126.54h-9v-5.79h24.47v5.79H148v24.89Z"/><path class="cls-2" d="M194.08,151.43l-14.63-20v20h-6.53V120.75h6.71L193.84,140V120.75h6.54v30.68Z"/><path class="cls-2" d="M221,152a17.28,17.28,0,0,1-6.44-1.17,14.83,14.83,0,0,1-8.42-8.33,17.64,17.64,0,0,1,0-12.74,14.77,14.77,0,0,1,8.42-8.32,18,18,0,0,1,12.83,0,14.7,14.7,0,0,1,8.42,8.32,17.51,17.51,0,0,1,0,12.74,14.75,14.75,0,0,1-8.42,8.33A17.13,17.13,0,0,1,221,152Zm0-5.79a9.06,9.06,0,0,0,3.84-.79,8.66,8.66,0,0,0,2.92-2.11,9.65,9.65,0,0,0,1.87-3.18,12.45,12.45,0,0,0,0-8,10,10,0,0,0-1.87-3.2,8.27,8.27,0,0,0-2.92-2.11A9.37,9.37,0,0,0,221,126a9.51,9.51,0,0,0-3.89.76,8.27,8.27,0,0,0-2.92,2.11,9.76,9.76,0,0,0-1.86,3.2,12.28,12.28,0,0,0,0,8,9.46,9.46,0,0,0,1.86,3.18,8.66,8.66,0,0,0,2.92,2.11A9.2,9.2,0,0,0,221,146.19Z"/><path class="cls-2" d="M264.18,151.43l-5.38-21.07-5.34,21.07h-7l-8.78-30.68H245l5.38,22.17,5.85-22.17h5.1l5.8,22.17,5.38-22.17h7.31l-8.74,30.68Z"/></g><g id="REC"><rect class="cls-1" x="1.08" width="300" height="600"/></g></g></svg>