<svg xmlns="http://www.w3.org/2000/svg" viewBox="0 0 301 601.26"><defs><style>.cls-1{fill:#231f20;stroke:#231f20;stroke-miterlimit:10;}.cls-2{fill:#fff;}.cls-3{fill:#ed1c24;}.cls-4{fill:none;}</style></defs><g id="Layer_2" data-name="Layer 2"><g id="Layer_5" data-name="Layer 5"><g id="art1"><rect class="cls-1" x="0.5" y="0.5" width="300" height="600"/><path class="cls-2" d="M23.21,56.38V36h10a6.84,6.84,0,0,1,2.49.41,5.17,5.17,0,0,1,1.82,1.11,4.78,4.78,0,0,1,1.12,1.65,5.4,5.4,0,0,1,.38,2,5.12,5.12,0,0,1-.29,1.74A5.06,5.06,0,0,1,38,44.31a4.63,4.63,0,0,1-1.13,1,4.37,4.37,0,0,1-1.35.55,4.13,4.13,0,0,1,1.55.56,4.93,4.93,0,0,1,1.25,1.12,5.17,5.17,0,0,1,.84,1.53,5.33,5.33,0,0,1,.31,1.78,6.06,6.06,0,0,1-.39,2.2,4.88,4.88,0,0,1-1.13,1.76A5,5,0,0,1,36.06,56a7.21,7.21,0,0,1-2.55.42Zm9.32-12a2.85,2.85,0,0,0,2.11-.73,2.49,2.49,0,0,0,.73-1.87,2.55,2.55,0,0,0-.73-1.86,2.85,2.85,0,0,0-2.11-.74H26.79v5.2Zm.15,8.83A3.23,3.23,0,0,0,35,52.45a2.68,2.68,0,0,0,.81-2.08,2.82,2.82,0,0,0-.78-2,3,3,0,0,0-2.31-.83H26.79V53.2Z"/><path class="cls-2" d="M46.74,56.74a3.77,3.77,0,0,1-2.83-1,3.87,3.87,0,0,1-1-2.84V36h3.21V52.13a2.14,2.14,0,0,0,.35,1.27,1.2,1.2,0,0,0,1.05.5,2.24,2.24,0,0,0,.86-.17,1.57,1.57,0,0,0,.58-.38l.76,2.44a3.45,3.45,0,0,1-1.16.68A5.46,5.46,0,0,1,46.74,56.74Z"/><path class="cls-2" d="M62.08,56.38v-2A6.42,6.42,0,0,1,60,56.1a5.55,5.55,0,0,1-2.67.64,6.44,6.44,0,0,1-2.61-.52,5.5,5.5,0,0,1-2.08-1.53,7.29,7.29,0,0,1-1.36-2.44A10,10,0,0,1,50.8,49a9.83,9.83,0,0,1,.49-3.21,7.39,7.39,0,0,1,1.36-2.44,5.84,5.84,0,0,1,2.06-1.54,6.31,6.31,0,0,1,2.63-.54,5.91,5.91,0,0,1,2.63.61,6.1,6.1,0,0,1,2.11,1.8v-2h3.2V56.38ZM58.29,53.9a4.3,4.3,0,0,0,1.11-.15,4.79,4.79,0,0,0,1.07-.43,5,5,0,0,0,.92-.63,3.65,3.65,0,0,0,.69-.78V46.08a4.9,4.9,0,0,0-.69-.77,5.57,5.57,0,0,0-.92-.64,4.77,4.77,0,0,0-1.07-.42,3.92,3.92,0,0,0-1.11-.16,3.84,3.84,0,0,0-1.74.37,4,4,0,0,0-1.32,1A4.49,4.49,0,0,0,54.39,47a6.84,6.84,0,0,0,0,3.94,4.68,4.68,0,0,0,.84,1.56,3.88,3.88,0,0,0,3.06,1.39Z"/><path class="cls-2" d="M76.16,56.74a7.85,7.85,0,0,1-3.07-.58,7.16,7.16,0,0,1-2.4-1.62,7.46,7.46,0,0,1-1.57-2.46,8.22,8.22,0,0,1-.57-3.1,8.08,8.08,0,0,1,.57-3.08,7.52,7.52,0,0,1,1.57-2.45,7.16,7.16,0,0,1,2.4-1.62,7.85,7.85,0,0,1,3.07-.58,8.44,8.44,0,0,1,2,.21,6.84,6.84,0,0,1,1.56.59,5.65,5.65,0,0,1,1.21.84,7,7,0,0,1,.91,1l-2.1,1.92a4,4,0,0,0-3.4-1.71,4.15,4.15,0,0,0-3.23,1.36A5.08,5.08,0,0,0,71.85,49a5.94,5.94,0,0,0,.32,2,4.67,4.67,0,0,0,.92,1.56,4.18,4.18,0,0,0,1.41,1,4.25,4.25,0,0,0,1.81.37,4,4,0,0,0,3.4-1.77l2.1,2A7.31,7.31,0,0,1,79.68,56,6.87,6.87,0,0,1,76.16,56.74Z"/><path class="cls-2" d="M94.43,56.38l-4.49-6.12L87.86,52.4v4h-3.2V36h3.2V48.74l6.51-7.12h4l-6.11,6.69,6.24,8.07Z"/><path class="cls-2" d="M108.73,56.38V36h14v3.17H112.31v5.2h10.17v3.18H112.31v8.83Z"/><path class="cls-2" d="M125.84,56.38V41.62h3.21v2.14A7.2,7.2,0,0,1,131.16,42a5.29,5.29,0,0,1,2.69-.72v3.18a4.81,4.81,0,0,0-1-.09,4.13,4.13,0,0,0-1.08.15,5.2,5.2,0,0,0-1.11.43,4.87,4.87,0,0,0-1,.64,3.33,3.33,0,0,0-.67.76V56.38Z"/><path class="cls-2" d="M138.06,39.81a2,2,0,0,1-2-2,2,2,0,0,1,2-2,2,2,0,0,1,1.41.58,1.92,1.92,0,0,1,.58,1.41,1.88,1.88,0,0,1-.58,1.4A1.92,1.92,0,0,1,138.06,39.81Zm-1.62,16.57V41.62h3.21V56.38Z"/><path class="cls-2" d="M154.2,56.38v-2a6.53,6.53,0,0,1-2.07,1.74,5.55,5.55,0,0,1-2.67.64,6.44,6.44,0,0,1-2.61-.52,5.5,5.5,0,0,1-2.08-1.53,7.29,7.29,0,0,1-1.36-2.44,10,10,0,0,1-.49-3.27,9.83,9.83,0,0,1,.49-3.21,7.39,7.39,0,0,1,1.36-2.44,5.84,5.84,0,0,1,2.06-1.54,6.31,6.31,0,0,1,2.63-.54,5.91,5.91,0,0,1,2.63.61,6,6,0,0,1,2.11,1.8V36h3.2V56.38Zm-3.79-2.48a4.3,4.3,0,0,0,1.11-.15,4.79,4.79,0,0,0,1.07-.43,5,5,0,0,0,.92-.63,3.65,3.65,0,0,0,.69-.78V46.08a4.9,4.9,0,0,0-.69-.77,5.57,5.57,0,0,0-.92-.64,4.77,4.77,0,0,0-1.07-.42,3.92,3.92,0,0,0-1.11-.16,3.87,3.87,0,0,0-1.74.37,4,4,0,0,0-1.32,1,4.66,4.66,0,0,0-.84,1.54,6.84,6.84,0,0,0,0,3.94,4.87,4.87,0,0,0,.84,1.56,3.88,3.88,0,0,0,3.06,1.39Z"/><path class="cls-2" d="M172,56.38v-2a6.49,6.49,0,0,1-2.06,1.74,5.61,5.61,0,0,1-2.68.64,6.47,6.47,0,0,1-2.61-.52,5.5,5.5,0,0,1-2.08-1.53,7.29,7.29,0,0,1-1.36-2.44,10.31,10.31,0,0,1-.49-3.27,10.11,10.11,0,0,1,.49-3.21,7.39,7.39,0,0,1,1.36-2.44,5.84,5.84,0,0,1,2.06-1.54,6.31,6.31,0,0,1,2.63-.54A5.78,5.78,0,0,1,172,43.66v-2h3.21V56.38Zm-3.79-2.48a4.37,4.37,0,0,0,1.12-.15,4.91,4.91,0,0,0,1.06-.43,4.67,4.67,0,0,0,.92-.63,3.17,3.17,0,0,0,.69-.78V46.08a4.07,4.07,0,0,0-.69-.77,5.18,5.18,0,0,0-.92-.64,4.88,4.88,0,0,0-1.06-.42,4,4,0,0,0-1.12-.16,3.9,3.9,0,0,0-1.74.37,4,4,0,0,0-1.32,1,4.66,4.66,0,0,0-.84,1.54,6.84,6.84,0,0,0,0,3.94,4.87,4.87,0,0,0,.84,1.56,3.85,3.85,0,0,0,1.32,1A3.9,3.9,0,0,0,168.16,53.9Z"/><path class="cls-2" d="M185.12,62.36a9.33,9.33,0,0,1-3.3-.53,7.93,7.93,0,0,1-2.66-1.67l1.5-2.32a4.45,4.45,0,0,0,2,1.45,7,7,0,0,0,2.48.45,4.19,4.19,0,0,0,3-1.06,4,4,0,0,0,1.1-3V53.93a7.76,7.76,0,0,1-2.12,1.61,6.47,6.47,0,0,1-3.07.71,4.85,4.85,0,0,1-3.58-1.2,4.76,4.76,0,0,1-1.19-3.47v-10h3.21v8.77a2.88,2.88,0,0,0,.81,2.36,3.36,3.36,0,0,0,2.18.66,4.28,4.28,0,0,0,2.22-.59,5.25,5.25,0,0,0,1.54-1.33V41.62h3.21v14a7.24,7.24,0,0,1-.55,2.92,5.69,5.69,0,0,1-1.54,2.11,6.78,6.78,0,0,1-2.34,1.27A9.79,9.79,0,0,1,185.12,62.36Z"/><path class="cls-2" d="M214.91,56.38v-2a6.49,6.49,0,0,1-2.06,1.74,5.61,5.61,0,0,1-2.68.64,6.44,6.44,0,0,1-2.61-.52,5.5,5.5,0,0,1-2.08-1.53,7.29,7.29,0,0,1-1.36-2.44,10.31,10.31,0,0,1-.49-3.27,10.11,10.11,0,0,1,.49-3.21,7.39,7.39,0,0,1,1.36-2.44,5.84,5.84,0,0,1,2.06-1.54,6.31,6.31,0,0,1,2.63-.54,5.91,5.91,0,0,1,2.63.61,6,6,0,0,1,2.11,1.8V36h3.21V56.38Zm-3.79-2.48a4.24,4.24,0,0,0,1.11-.15,4.79,4.79,0,0,0,1.07-.43,4.67,4.67,0,0,0,.92-.63,3.39,3.39,0,0,0,.69-.78V46.08a4.44,4.44,0,0,0-.69-.77,5.18,5.18,0,0,0-.92-.64,4.77,4.77,0,0,0-1.07-.42,4.14,4.14,0,0,0-2.85.21,4,4,0,0,0-1.32,1,4.66,4.66,0,0,0-.84,1.54,6.84,6.84,0,0,0,0,3.94,4.87,4.87,0,0,0,.84,1.56,3.85,3.85,0,0,0,1.32,1A3.9,3.9,0,0,0,211.12,53.9Z"/><path class="cls-2" d="M229.12,56.74a8.51,8.51,0,0,1-3.11-.55,6.92,6.92,0,0,1-2.44-1.57,7.18,7.18,0,0,1-1.6-2.46,8.69,8.69,0,0,1,0-6.19,7.33,7.33,0,0,1,6.94-4.72,7.31,7.31,0,0,1,3,.6,6.55,6.55,0,0,1,2.29,1.66,7.56,7.56,0,0,1,1.45,2.54,10,10,0,0,1,.5,3.21v.79H224.75a4.9,4.9,0,0,0,.44,1.56,4.31,4.31,0,0,0,.95,1.3,4.26,4.26,0,0,0,1.42.88,5,5,0,0,0,1.86.32,6.62,6.62,0,0,0,2.26-.42,5.37,5.37,0,0,0,2-1.23l1.46,2.11a7.3,7.3,0,0,1-2.68,1.62A9.77,9.77,0,0,1,229.12,56.74Zm3.91-9a4.43,4.43,0,0,0-.29-1.33,4,4,0,0,0-.77-1.25,3.8,3.8,0,0,0-1.27-.93,4.2,4.2,0,0,0-1.86-.37,4.27,4.27,0,0,0-1.77.35,3.75,3.75,0,0,0-1.27.92A4,4,0,0,0,225,46.4a4.22,4.22,0,0,0-.3,1.36Z"/><path class="cls-2" d="M249.68,56.38v-2a6.49,6.49,0,0,1-2.06,1.74,5.61,5.61,0,0,1-2.68.64,6.44,6.44,0,0,1-2.61-.52,5.5,5.5,0,0,1-2.08-1.53,7.29,7.29,0,0,1-1.36-2.44A10.31,10.31,0,0,1,238.4,49a10.11,10.11,0,0,1,.49-3.21,7.39,7.39,0,0,1,1.36-2.44,5.84,5.84,0,0,1,2.06-1.54,6.31,6.31,0,0,1,2.63-.54,5.91,5.91,0,0,1,2.63.61,6,6,0,0,1,2.11,1.8v-2h3.21V56.38Zm-3.79-2.48a4.24,4.24,0,0,0,1.11-.15,4.79,4.79,0,0,0,1.07-.43,4.67,4.67,0,0,0,.92-.63,3.17,3.17,0,0,0,.69-.78V46.08a4.07,4.07,0,0,0-.69-.77,5.18,5.18,0,0,0-.92-.64,4.77,4.77,0,0,0-1.07-.42,4.14,4.14,0,0,0-2.85.21,4,4,0,0,0-1.32,1A4.66,4.66,0,0,0,242,47,6.84,6.84,0,0,0,242,51a4.87,4.87,0,0,0,.84,1.56,3.85,3.85,0,0,0,1.32,1A3.9,3.9,0,0,0,245.89,53.9Z"/><path class="cls-2" d="M260.83,56.74a3.79,3.79,0,0,1-2.83-1,3.87,3.87,0,0,1-1-2.84V36h3.21V52.13a2.21,2.21,0,0,0,.35,1.27,1.22,1.22,0,0,0,1.06.5,2.19,2.19,0,0,0,.85-.17,1.49,1.49,0,0,0,.58-.38l.77,2.44a3.61,3.61,0,0,1-1.17.68A5.42,5.42,0,0,1,260.83,56.74Z"/><path class="cls-2" d="M270.85,56.74a10.35,10.35,0,0,1-3.54-.59,7.84,7.84,0,0,1-2.78-1.73L266,52.13a6.32,6.32,0,0,0,.95.76,7.07,7.07,0,0,0,1.22.66,8.39,8.39,0,0,0,1.39.46,6.33,6.33,0,0,0,1.42.17,3.68,3.68,0,0,0,2.2-.54,1.68,1.68,0,0,0,.74-1.42,1.18,1.18,0,0,0-.66-1.1,6.81,6.81,0,0,0-1.65-.61c-.66-.16-1.38-.33-2.15-.49a9.15,9.15,0,0,1-2.16-.73A4.87,4.87,0,0,1,265.64,48a3.51,3.51,0,0,1-.65-2.26,3.9,3.9,0,0,1,.38-1.72,4.11,4.11,0,0,1,1.11-1.43,5.71,5.71,0,0,1,1.82-1,8.18,8.18,0,0,1,2.49-.35,8.71,8.71,0,0,1,3.32.58,8.19,8.19,0,0,1,2.39,1.47l-1.34,2.26a5.37,5.37,0,0,0-1.82-1.25,6,6,0,0,0-2.55-.52,3.35,3.35,0,0,0-2,.52,1.55,1.55,0,0,0-.72,1.31,1.06,1.06,0,0,0,.66,1,7.37,7.37,0,0,0,1.65.56l2.15.49a9.37,9.37,0,0,1,2.16.77,4.67,4.67,0,0,1,1.65,1.37,3.84,3.84,0,0,1,.65,2.34A4.36,4.36,0,0,1,276.6,54a4.07,4.07,0,0,1-1.18,1.47,5.76,5.76,0,0,1-1.92,1A9.25,9.25,0,0,1,270.85,56.74Z"/><path class="cls-2" d="M34.68,95.45a17.6,17.6,0,0,1-7.18-1.33,15.29,15.29,0,0,1-5-3.43l3-4.09a14.28,14.28,0,0,0,3.93,2.92,11.77,11.77,0,0,0,5.55,1.26,9.33,9.33,0,0,0,2.76-.36,5.38,5.38,0,0,0,1.84-.94,3.71,3.71,0,0,0,1-1.33,3.64,3.64,0,0,0,.34-1.5,2.69,2.69,0,0,0-1.28-2.4,12.47,12.47,0,0,0-3.23-1.42c-1.31-.39-2.71-.76-4.2-1.12A20.64,20.64,0,0,1,28,80.23a9,9,0,0,1-3.23-2.58,6.91,6.91,0,0,1-1.28-4.38,7.79,7.79,0,0,1,.78-3.48A8.8,8.8,0,0,1,26.44,67a10.4,10.4,0,0,1,3.44-1.86,14.07,14.07,0,0,1,4.49-.67,17,17,0,0,1,6.3,1.1,14.37,14.37,0,0,1,4.88,3.12l-3,3.9A11.07,11.07,0,0,0,38.52,70a13.26,13.26,0,0,0-4.65-.83,6,6,0,0,0-3.66,1,3.23,3.23,0,0,0-1.37,2.69A2.4,2.4,0,0,0,30.12,75a13.22,13.22,0,0,0,3.24,1.3c1.3.36,2.7.73,4.19,1.1A19.67,19.67,0,0,1,41.75,79,9.57,9.57,0,0,1,45,81.69a7.2,7.2,0,0,1,1.28,4.46,9.49,9.49,0,0,1-.68,3.57,7.9,7.9,0,0,1-2.09,3,10.19,10.19,0,0,1-3.61,2A16.49,16.49,0,0,1,34.68,95.45Z"/><path class="cls-2" d="M58.21,94.91V69.63H49.14V65H72.53v4.67H63.46V94.91Z"/><path class="cls-2" d="M95.07,94.91l-2.2-5.79H79.13l-2.2,5.79H71L82.72,65h6.56l11.76,30ZM86,70.17,80.61,84.45H91.39Z"/><path class="cls-2" d="M121.38,94.91l-6.6-11.18h-5.25V94.91h-5.25V65h13.15a11.46,11.46,0,0,1,4,.68,8.86,8.86,0,0,1,3.12,1.92,8.64,8.64,0,0,1,2,3,10.14,10.14,0,0,1,.69,3.79,9.75,9.75,0,0,1-.6,3.53,8.84,8.84,0,0,1-1.6,2.65,7.67,7.67,0,0,1-2.29,1.75,9.36,9.36,0,0,1-2.65.87l7.37,11.77Zm-4.62-15.85a5.31,5.31,0,0,0,3.68-1.29,4.43,4.43,0,0,0,1.44-3.47,4.3,4.3,0,0,0-1.44-3.4,5.35,5.35,0,0,0-3.68-1.27h-7.23v9.43Z"/><path class="cls-2" d="M139.66,94.91V69.63h-9.07V65H154v4.67h-9.07V94.91Z"/><path class="cls-2" d="M190.89,94.91,175.26,73.49V94.91H170V65h5.39l15.31,20.75V65H196v30Z"/><path class="cls-2" d="M216.34,95.45a15.88,15.88,0,0,1-6.17-1.17,14.62,14.62,0,0,1-4.85-3.23,14.36,14.36,0,0,1-3.16-4.9,17.55,17.55,0,0,1,0-12.39,14.32,14.32,0,0,1,8-8.12,16.88,16.88,0,0,1,12.35,0,14.14,14.14,0,0,1,4.82,3.23,14.9,14.9,0,0,1,3.17,4.89,17.26,17.26,0,0,1,0,12.39,14.84,14.84,0,0,1-3.17,4.9,14.29,14.29,0,0,1-4.82,3.23A15.9,15.9,0,0,1,216.34,95.45Zm0-4.67a9.9,9.9,0,0,0,4.09-.83,9.45,9.45,0,0,0,3.14-2.27,9.82,9.82,0,0,0,2-3.43,12.87,12.87,0,0,0,.7-4.29,12.73,12.73,0,0,0-.7-4.31,9.73,9.73,0,0,0-2-3.41A9.31,9.31,0,0,0,220.43,70a10.52,10.52,0,0,0-8.19,0,9.23,9.23,0,0,0-3.12,2.27,9.73,9.73,0,0,0-2,3.41,12.73,12.73,0,0,0-.7,4.31,12.87,12.87,0,0,0,.7,4.29,9.82,9.82,0,0,0,2,3.43A9.37,9.37,0,0,0,212.24,90,9.81,9.81,0,0,0,216.34,90.78Z"/><path class="cls-2" d="M258.68,94.91l-5.79-22.14-5.83,22.14h-5.62L232.91,65h5.84l5.84,23,6.19-23H255l6.19,23L267,65h5.88l-8.57,30Z"/><path class="cls-3" d="M24.74,130.1V115.72h7.07a4.81,4.81,0,0,1,1.76.29,3.63,3.63,0,0,1,1.28.78,3.28,3.28,0,0,1,.79,1.16,3.78,3.78,0,0,1,.27,1.42,3.45,3.45,0,0,1-.21,1.23,3.12,3.12,0,0,1-.55,1,3.29,3.29,0,0,1-.79.7,3,3,0,0,1-1,.39,2.94,2.94,0,0,1,1.09.4,3.47,3.47,0,0,1,.88.79,3.85,3.85,0,0,1,.81,2.33,4.31,4.31,0,0,1-.27,1.55,3.44,3.44,0,0,1-.8,1.24,3.58,3.58,0,0,1-1.31.83,5.31,5.31,0,0,1-1.8.29Zm6.58-8.48a2,2,0,0,0,1.48-.51,1.92,1.92,0,0,0,0-2.63,2,2,0,0,0-1.48-.52H27.26v3.66Zm.1,6.23a2.29,2.29,0,0,0,1.61-.52,1.9,1.9,0,0,0,.57-1.47,2,2,0,0,0-.55-1.4,2.09,2.09,0,0,0-1.63-.59H27.26v4Z"/><path class="cls-3" d="M45.7,130.1v-1.38a5.89,5.89,0,0,1-1.5,1.13,4.49,4.49,0,0,1-2.17.51,3.39,3.39,0,0,1-2.52-.86,3.32,3.32,0,0,1-.84-2.44v-7.38h2.26v6.54a2.06,2.06,0,0,0,.57,1.67,2.38,2.38,0,0,0,1.54.46,3,3,0,0,0,1.57-.42A3.65,3.65,0,0,0,45.7,127v-7.31H48V130.1Z"/><path class="cls-3" d="M55,134.32a6.7,6.7,0,0,1-2.33-.37,5.84,5.84,0,0,1-1.87-1.18l1.05-1.64a3.11,3.11,0,0,0,1.4,1,5.2,5.2,0,0,0,1.75.31,3,3,0,0,0,2.16-.75,2.84,2.84,0,0,0,.77-2.14v-1.21a5.17,5.17,0,0,1-1.5,1.13,4.42,4.42,0,0,1-2.16.51,3.39,3.39,0,0,1-2.53-.85,3.34,3.34,0,0,1-.84-2.45v-7h2.27v6.19a2,2,0,0,0,.57,1.67,2.36,2.36,0,0,0,1.54.47,2.88,2.88,0,0,0,1.56-.43,3.78,3.78,0,0,0,1.09-.93v-7h2.27v9.9a5.11,5.11,0,0,1-.39,2.06,4.09,4.09,0,0,1-1.09,1.49,4.86,4.86,0,0,1-1.65.89A6.81,6.81,0,0,1,55,134.32Z"/><path class="cls-3" d="M73.4,130.36a5.37,5.37,0,0,1-2.24-.45,5.09,5.09,0,0,1-1.68-1.18A5.32,5.32,0,0,1,68.42,127a6.36,6.36,0,0,1,0-4.22A5.22,5.22,0,0,1,69.48,121a5,5,0,0,1,1.68-1.18,6.08,6.08,0,0,1,4.49,0A5,5,0,0,1,77.33,121a5,5,0,0,1,1,1.74,6.2,6.2,0,0,1,0,4.22,5,5,0,0,1-2.73,2.92A5.41,5.41,0,0,1,73.4,130.36Zm0-2a2.73,2.73,0,0,0,2.23-1,3.27,3.27,0,0,0,.58-1.11,4.55,4.55,0,0,0,.19-1.33,4.44,4.44,0,0,0-.19-1.32,3.31,3.31,0,0,0-.58-1.1,2.73,2.73,0,0,0-2.23-1,2.76,2.76,0,0,0-1.27.28,3,3,0,0,0-.95.75,3.31,3.31,0,0,0-.58,1.1,4.44,4.44,0,0,0-.19,1.32,4.55,4.55,0,0,0,.19,1.33,3.27,3.27,0,0,0,.58,1.11,3,3,0,0,0,.95.75A2.76,2.76,0,0,0,73.4,128.35Z"/><path class="cls-3" d="M88.11,130.1v-6.52a2.1,2.1,0,0,0-.57-1.69,2.39,2.39,0,0,0-1.55-.46,2.91,2.91,0,0,0-1.56.43,4.07,4.07,0,0,0-1.11,1v7.29H81.06V119.68h2.26v1.4a4.69,4.69,0,0,1,.64-.6,4.75,4.75,0,0,1,.85-.54,5.37,5.37,0,0,1,1-.38,5,5,0,0,1,1.18-.14,3.35,3.35,0,0,1,2.52.87,3.4,3.4,0,0,1,.84,2.48v7.33Z"/><path class="cls-3" d="M98.13,130.36A5.91,5.91,0,0,1,96,130a5,5,0,0,1-1.73-1.11,5.09,5.09,0,0,1-1.13-1.74,5.77,5.77,0,0,1-.41-2.24,5.84,5.84,0,0,1,.39-2.13A5.24,5.24,0,0,1,94.16,121a5.13,5.13,0,0,1,1.67-1.17,5.26,5.26,0,0,1,2.13-.43,5.13,5.13,0,0,1,2.11.42,4.58,4.58,0,0,1,1.62,1.18,5,5,0,0,1,1,1.79,6.82,6.82,0,0,1,.36,2.26v.56h-8a3.4,3.4,0,0,0,.31,1.1,3.2,3.2,0,0,0,.67.92,3,3,0,0,0,1,.62,3.45,3.45,0,0,0,1.32.23,4.56,4.56,0,0,0,1.59-.3,3.72,3.72,0,0,0,1.38-.86l1,1.48a5.16,5.16,0,0,1-1.9,1.15A6.91,6.91,0,0,1,98.13,130.36Zm2.76-6.34a2.94,2.94,0,0,0-.2-.94,2.73,2.73,0,0,0-.54-.89,3.18,3.18,0,0,0-3.46-.66,2.72,2.72,0,0,0-.9.64,3.15,3.15,0,0,0-.55.89,3,3,0,0,0-.21,1Z"/><path class="cls-3" d="M108.12,129.28a4.27,4.27,0,0,1-.55,2.09,4.74,4.74,0,0,1-1.46,1.59l-1-.84a3.37,3.37,0,0,0,.51-.38,4.61,4.61,0,0,0,.48-.51,3.79,3.79,0,0,0,.36-.56,1.77,1.77,0,0,0,.2-.57l-.15,0-.22,0a1.17,1.17,0,0,1-.9-.39,1.37,1.37,0,0,1-.37-1,1.41,1.41,0,0,1,.42-1,1.4,1.4,0,0,1,1-.43,1.56,1.56,0,0,1,1.16.5A2,2,0,0,1,108.12,129.28Z"/><path class="cls-3" d="M120.41,134.32A7.82,7.82,0,0,1,118,134a5.48,5.48,0,0,1-2-1.22l1-1.64a3.65,3.65,0,0,0,1.47,1,5.42,5.42,0,0,0,1.86.3,4.69,4.69,0,0,0,1.11-.14,2.87,2.87,0,0,0,1-.49,2.62,2.62,0,0,0,.71-.89,3.16,3.16,0,0,0,.27-1.39v-1.19a4.55,4.55,0,0,1-1.46,1.27,3.76,3.76,0,0,1-1.88.48,4.73,4.73,0,0,1-1.85-.36,4,4,0,0,1-1.46-1,4.88,4.88,0,0,1-1-1.67,7,7,0,0,1-.35-2.29,6.83,6.83,0,0,1,.35-2.26,4.93,4.93,0,0,1,1-1.68,4.06,4.06,0,0,1,1.45-1,4.67,4.67,0,0,1,1.86-.36,4.16,4.16,0,0,1,1.85.43,4.22,4.22,0,0,1,1.49,1.28v-1.45h2.26v9.88a5.2,5.2,0,0,1-.47,2.33,4,4,0,0,1-1.24,1.46,4.91,4.91,0,0,1-1.73.76A8.85,8.85,0,0,1,120.41,134.32Zm.41-6.23a3.09,3.09,0,0,0,1.54-.41,3.2,3.2,0,0,0,1.13-1v-3.9a3.31,3.31,0,0,0-1.13-1,3.2,3.2,0,0,0-1.54-.41,2.69,2.69,0,0,0-2.16.92,4.06,4.06,0,0,0,0,4.84A2.74,2.74,0,0,0,120.82,128.09Z"/><path class="cls-3" d="M133.52,130.36a6,6,0,0,1-2.19-.39,5,5,0,0,1-1.73-1.11,5.09,5.09,0,0,1-1.13-1.74,6,6,0,0,1-.41-2.24,5.84,5.84,0,0,1,.39-2.13,5.24,5.24,0,0,1,1.09-1.73,5.13,5.13,0,0,1,1.67-1.17,5.33,5.33,0,0,1,2.13-.43,5.21,5.21,0,0,1,2.12.42,4.64,4.64,0,0,1,1.61,1.18,5.19,5.19,0,0,1,1,1.79,7.09,7.09,0,0,1,.35,2.26v.56h-8a3.4,3.4,0,0,0,.31,1.1,3.2,3.2,0,0,0,.67.92,3,3,0,0,0,1,.62,3.37,3.37,0,0,0,1.31.23,4.66,4.66,0,0,0,1.6-.3,3.89,3.89,0,0,0,1.38-.86l1,1.48a5.16,5.16,0,0,1-1.9,1.15A6.89,6.89,0,0,1,133.52,130.36Zm2.76-6.34a3.26,3.26,0,0,0-.21-.94,2.73,2.73,0,0,0-.54-.89,2.85,2.85,0,0,0-.89-.65,3.36,3.36,0,0,0-2.57,0,2.58,2.58,0,0,0-.89.64,2.94,2.94,0,0,0-.55.89,2.79,2.79,0,0,0-.22,1Z"/><path class="cls-3" d="M143.84,130.36a2.65,2.65,0,0,1-2-.69,2.76,2.76,0,0,1-.67-2v-6h-1.73v-2h1.73v-2.84h2.26v2.84h2.12v2h-2.12v5.46a1.53,1.53,0,0,0,.25.89.84.84,0,0,0,.74.36,1.46,1.46,0,0,0,.6-.12,1.16,1.16,0,0,0,.4-.27l.54,1.73a2.76,2.76,0,0,1-.82.47A3.74,3.74,0,0,1,143.84,130.36Z"/><path class="cls-3" d="M157.86,130.36a5.41,5.41,0,0,1-2.25-.45,5,5,0,0,1-2.73-2.92,6.2,6.2,0,0,1,0-4.22,5,5,0,0,1,1.05-1.74,5,5,0,0,1,1.68-1.18,6.08,6.08,0,0,1,4.49,0,5,5,0,0,1,1.68,1.18,5.22,5.22,0,0,1,1.06,1.74,6.36,6.36,0,0,1,0,4.22,5.32,5.32,0,0,1-1.06,1.74,5.09,5.09,0,0,1-1.68,1.18A5.37,5.37,0,0,1,157.86,130.36Zm0-2a2.79,2.79,0,0,0,1.29-.28,2.89,2.89,0,0,0,.94-.75,3.43,3.43,0,0,0,.57-1.11,4.55,4.55,0,0,0,.19-1.33,4.44,4.44,0,0,0-.19-1.32,3.49,3.49,0,0,0-.57-1.1,2.89,2.89,0,0,0-.94-.75,3.09,3.09,0,0,0-2.57,0,2.89,2.89,0,0,0-.94.75,3.34,3.34,0,0,0-.59,1.1,4.44,4.44,0,0,0-.19,1.32,4.55,4.55,0,0,0,.19,1.33,3.29,3.29,0,0,0,.59,1.11,2.89,2.89,0,0,0,.94.75A2.8,2.8,0,0,0,157.86,128.35Z"/><path class="cls-3" d="M172.56,130.1v-6.52a2.1,2.1,0,0,0-.57-1.69,2.36,2.36,0,0,0-1.54-.46,2.86,2.86,0,0,0-1.56.43,4.07,4.07,0,0,0-1.11,1v7.29h-2.27V119.68h2.27v1.4a4.57,4.57,0,0,1,.63-.6,5.14,5.14,0,0,1,.85-.54,5.47,5.47,0,0,1,1-.38,4.81,4.81,0,0,1,1.17-.14,3.35,3.35,0,0,1,2.52.87,3.4,3.4,0,0,1,.85,2.48v7.33Z"/><path class="cls-3" d="M182.59,130.36a6,6,0,0,1-2.19-.39,5,5,0,0,1-1.73-1.11,5.24,5.24,0,0,1-1.13-1.74,6,6,0,0,1-.41-2.24,5.84,5.84,0,0,1,.39-2.13,5.17,5.17,0,0,1,2.76-2.9,5.34,5.34,0,0,1,2.14-.43,5.16,5.16,0,0,1,2.11.42,4.77,4.77,0,0,1,1.62,1.18,5.33,5.33,0,0,1,1,1.79,6.82,6.82,0,0,1,.36,2.26v.56h-8a3.41,3.41,0,0,0,.32,1.1,3,3,0,0,0,.67.92,2.91,2.91,0,0,0,1,.62,3.4,3.4,0,0,0,1.31.23,4.66,4.66,0,0,0,1.6-.3,3.72,3.72,0,0,0,1.38-.86l1,1.48a5.2,5.2,0,0,1-1.89,1.15A7,7,0,0,1,182.59,130.36Zm2.76-6.34a3.26,3.26,0,0,0-.21-.94,2.73,2.73,0,0,0-1.43-1.54,3.36,3.36,0,0,0-2.57,0,2.67,2.67,0,0,0-.89.64,2.94,2.94,0,0,0-.55.89,3,3,0,0,0-.22,1Z"/><path class="cls-3" d="M200.42,130.36a7.44,7.44,0,0,1-3.15-.6,6.22,6.22,0,0,1-2.18-1.63l1.45-1.74a4.81,4.81,0,0,0,3.86,1.72,3,3,0,0,0,2.16-.73,2.36,2.36,0,0,0,.79-1.81,2.38,2.38,0,0,0-.77-1.86,3.09,3.09,0,0,0-2.12-.69,4.64,4.64,0,0,0-1.68.3,4.33,4.33,0,0,0-1.47.93l-1.79-.51v-8H205V118h-6.9v4.12a5.1,5.1,0,0,1,1.38-.87,4.69,4.69,0,0,1,1.87-.36,4.93,4.93,0,0,1,1.75.31,4.56,4.56,0,0,1,1.48.9,4.48,4.48,0,0,1,1,1.46,5.21,5.21,0,0,1,0,4,4.55,4.55,0,0,1-1.13,1.53,5.18,5.18,0,0,1-1.74,1A6.89,6.89,0,0,1,200.42,130.36Z"/><path class="cls-3" d="M213.46,130.36a5,5,0,0,1-2.62-.66,5.52,5.52,0,0,1-1.78-1.72,7.62,7.62,0,0,1-1-2.38,11.09,11.09,0,0,1,0-5.37,7.72,7.72,0,0,1,1-2.38,5.46,5.46,0,0,1,1.78-1.7,5.57,5.57,0,0,1,5.22,0,5.36,5.36,0,0,1,1.78,1.7,7.72,7.72,0,0,1,1,2.38,10.77,10.77,0,0,1,0,5.37,7.62,7.62,0,0,1-1,2.38,5.42,5.42,0,0,1-1.78,1.72A4.93,4.93,0,0,1,213.46,130.36Zm0-2.25a2.49,2.49,0,0,0,1.48-.43,3.1,3.1,0,0,0,1-1.14,6,6,0,0,0,.54-1.65,10.47,10.47,0,0,0,.17-2,11.51,11.51,0,0,0-.16-2,5.71,5.71,0,0,0-.54-1.65,3.18,3.18,0,0,0-1-1.13,2.54,2.54,0,0,0-1.49-.42,2.51,2.51,0,0,0-1.48.42,3.2,3.2,0,0,0-1,1.13,6,6,0,0,0-.55,1.65,11.49,11.49,0,0,0-.17,2,11.37,11.37,0,0,0,.17,2,6,6,0,0,0,.55,1.65,3.33,3.33,0,0,0,1,1.14A2.45,2.45,0,0,0,213.46,128.11Z"/><path class="cls-3" d="M224.29,122.64a3.8,3.8,0,0,1-1.46-.27,3.17,3.17,0,0,1-1.13-.76,3.28,3.28,0,0,1-.73-1.13,3.6,3.6,0,0,1-.26-1.4,3.65,3.65,0,0,1,.26-1.41,3.37,3.37,0,0,1,.73-1.15,3.29,3.29,0,0,1,1.13-.75,4.08,4.08,0,0,1,2.92,0,3.11,3.11,0,0,1,1.13.75,3.7,3.7,0,0,1,.73,1.15,3.84,3.84,0,0,1,.26,1.41,3.79,3.79,0,0,1-.26,1.4,3.6,3.6,0,0,1-.73,1.13,3,3,0,0,1-1.13.76A3.83,3.83,0,0,1,224.29,122.64Zm0-1.45a1.79,1.79,0,0,0,1.38-.58,2.19,2.19,0,0,0,.54-1.54,2.23,2.23,0,0,0-.54-1.57,1.77,1.77,0,0,0-1.38-.6,1.75,1.75,0,0,0-1.36.6,2.23,2.23,0,0,0-.54,1.57,2.19,2.19,0,0,0,.54,1.54A1.76,1.76,0,0,0,224.29,121.19Zm-1.41,8.91,9.19-14.38h1.47l-9.21,14.39Zm9.15.26a3.83,3.83,0,0,1-1.46-.27,3.39,3.39,0,0,1-1.86-1.88,3.6,3.6,0,0,1-.26-1.4,3.68,3.68,0,0,1,.26-1.41,3.23,3.23,0,0,1,.73-1.14,3.38,3.38,0,0,1,1.13-.75,3.83,3.83,0,0,1,1.46-.27,3.78,3.78,0,0,1,1.45.27,3.29,3.29,0,0,1,1.13.75,3.4,3.4,0,0,1,.74,1.14,3.88,3.88,0,0,1,.26,1.41,3.79,3.79,0,0,1-.26,1.4,3.42,3.42,0,0,1-.74,1.12,3.17,3.17,0,0,1-1.13.76A3.78,3.78,0,0,1,232,130.36Zm0-1.45a1.79,1.79,0,0,0,1.38-.58,2.17,2.17,0,0,0,.54-1.53,2.25,2.25,0,0,0-.54-1.57,1.91,1.91,0,0,0-2.76,0,2.25,2.25,0,0,0-.54,1.57,2.17,2.17,0,0,0,.54,1.53A1.79,1.79,0,0,0,232,128.91Z"/><path class="cls-3" d="M248,130.36a5.37,5.37,0,0,1-2.24-.45,5.09,5.09,0,0,1-1.68-1.18A5.15,5.15,0,0,1,243,127a6.2,6.2,0,0,1,0-4.22A5.06,5.06,0,0,1,244,121a5,5,0,0,1,1.68-1.18,6,6,0,0,1,4.48,0,5,5,0,0,1,1.68,1.18,5.06,5.06,0,0,1,1.06,1.74,6.2,6.2,0,0,1,0,4.22,5.15,5.15,0,0,1-1.06,1.74,5.09,5.09,0,0,1-1.68,1.18A5.37,5.37,0,0,1,248,130.36Zm0-2a2.77,2.77,0,0,0,2.23-1,3.43,3.43,0,0,0,.57-1.11,4.56,4.56,0,0,0,.2-1.33,4.44,4.44,0,0,0-.2-1.32,3.49,3.49,0,0,0-.57-1.1,2.77,2.77,0,0,0-2.23-1,2.76,2.76,0,0,0-1.27.28,2.93,2.93,0,0,0-.95.75,3.31,3.31,0,0,0-.58,1.1,4.44,4.44,0,0,0-.2,1.32,4.56,4.56,0,0,0,.2,1.33,3.27,3.27,0,0,0,.58,1.11,2.93,2.93,0,0,0,.95.75A2.76,2.76,0,0,0,248,128.35Z"/><path class="cls-3" d="M256.17,130.1v-8.46h-1.72v-2h1.72v-.58a3.6,3.6,0,0,1,.93-2.67,3.18,3.18,0,0,1,2.35-.93,3.83,3.83,0,0,1,1.84.39l-.5,1.7a1.65,1.65,0,0,0-.91-.24,1.32,1.32,0,0,0-1.06.44,1.88,1.88,0,0,0-.38,1.31v.58h2.11v2h-2.11v8.46Z"/><path class="cls-3" d="M32,156v-1.42a4.79,4.79,0,0,1-1.46,1.23,4,4,0,0,1-1.89.45,4.52,4.52,0,0,1-1.84-.37,3.9,3.9,0,0,1-1.47-1.08,5.2,5.2,0,0,1-1-1.72,7.19,7.19,0,0,1-.34-2.31,7,7,0,0,1,.34-2.26,5.35,5.35,0,0,1,1-1.73,4.34,4.34,0,0,1,1.46-1.09,4.5,4.5,0,0,1,1.85-.37,4.07,4.07,0,0,1,1.86.43A4.27,4.27,0,0,1,32,147v-1.44h2.26V156Zm-2.68-1.75a3.11,3.11,0,0,0,.79-.1,3.82,3.82,0,0,0,.75-.31,3.37,3.37,0,0,0,.65-.44,2.55,2.55,0,0,0,.49-.55V148.7a3.42,3.42,0,0,0-.49-.53,3,3,0,0,0-.65-.46,3.27,3.27,0,0,0-.75-.3,3.13,3.13,0,0,0-.79-.11,2.85,2.85,0,0,0-1.23.26,2.78,2.78,0,0,0-.92.71,3.19,3.19,0,0,0-.6,1.09,4.76,4.76,0,0,0-.2,1.39,4.67,4.67,0,0,0,.2,1.39,3.24,3.24,0,0,0,.6,1.1,2.68,2.68,0,0,0,.92.72A2.71,2.71,0,0,0,29.33,154.22Z"/><path class="cls-3" d="M39.88,156.23a2.68,2.68,0,0,1-2-.69,2.76,2.76,0,0,1-.68-2V141.59h2.27V153a1.59,1.59,0,0,0,.24.9.88.88,0,0,0,.75.35,1.5,1.5,0,0,0,.6-.12,1,1,0,0,0,.41-.26l.54,1.72a2.21,2.21,0,0,1-.82.47A3.72,3.72,0,0,1,39.88,156.23Z"/><path class="cls-3" d="M46,156.23a2.67,2.67,0,0,1-2-.69,2.72,2.72,0,0,1-.68-2V141.59h2.26V153a1.52,1.52,0,0,0,.25.9.85.85,0,0,0,.74.35,1.54,1.54,0,0,0,.61-.12,1.07,1.07,0,0,0,.41-.26l.54,1.72a2.39,2.39,0,0,1-.82.47A3.82,3.82,0,0,1,46,156.23Z"/><path class="cls-3" d="M59.84,156.23a5.67,5.67,0,0,1-2.17-.41A5,5,0,0,1,56,154.68a5.4,5.4,0,0,1-1.11-1.74,6.17,6.17,0,0,1,0-4.37A5.42,5.42,0,0,1,56,146.85a5,5,0,0,1,1.69-1.14,5.48,5.48,0,0,1,2.17-.41,5.86,5.86,0,0,1,1.39.15,4.75,4.75,0,0,1,1.1.41,3.88,3.88,0,0,1,.85.59,5.29,5.29,0,0,1,.65.7l-1.49,1.36A2.78,2.78,0,0,0,60,147.3a2.94,2.94,0,0,0-2.29,1,3.61,3.61,0,0,0-.86,2.49,4.09,4.09,0,0,0,.23,1.39,3.16,3.16,0,0,0,.64,1.1,3.08,3.08,0,0,0,1,.72,2.93,2.93,0,0,0,1.28.26A2.76,2.76,0,0,0,62.34,153l1.49,1.4a5.27,5.27,0,0,1-1.51,1.3A4.87,4.87,0,0,1,59.84,156.23Z"/><path class="cls-3" d="M73.17,156v-1.42a4.79,4.79,0,0,1-1.46,1.23,4,4,0,0,1-1.89.45,4.52,4.52,0,0,1-1.84-.37,3.9,3.9,0,0,1-1.47-1.08,5,5,0,0,1-1-1.72,7.19,7.19,0,0,1-.34-2.31,7,7,0,0,1,.34-2.26,5.17,5.17,0,0,1,1-1.73A4.34,4.34,0,0,1,68,145.67a4.5,4.5,0,0,1,1.85-.37,4.1,4.1,0,0,1,1.86.43A4.27,4.27,0,0,1,73.17,147v-1.44h2.26V156Zm-2.68-1.75a3.11,3.11,0,0,0,.79-.1,3.82,3.82,0,0,0,.75-.31,3.37,3.37,0,0,0,.65-.44,2.31,2.31,0,0,0,.49-.55V148.7a3,3,0,0,0-.49-.53,3,3,0,0,0-.65-.46,3.27,3.27,0,0,0-.75-.3,3.13,3.13,0,0,0-.79-.11,2.85,2.85,0,0,0-1.23.26,2.68,2.68,0,0,0-.92.71,3.19,3.19,0,0,0-.6,1.09,4.76,4.76,0,0,0-.2,1.39,4.67,4.67,0,0,0,.2,1.39,3.24,3.24,0,0,0,.6,1.1,2.59,2.59,0,0,0,.92.72A2.71,2.71,0,0,0,70.49,154.22Z"/><path class="cls-3" d="M81.51,156.23a2.69,2.69,0,0,1-2-.69,2.8,2.8,0,0,1-.66-2v-6H77.11v-2h1.73v-2.85H81.1v2.85h2.11v2H81.1V153a1.52,1.52,0,0,0,.25.9.85.85,0,0,0,.74.35,1.46,1.46,0,0,0,.6-.12.92.92,0,0,0,.39-.26l.54,1.72a2.21,2.21,0,0,1-.82.47A3.64,3.64,0,0,1,81.51,156.23Z"/><path class="cls-3" d="M93.48,156.23a2.68,2.68,0,0,1-2-.69,2.76,2.76,0,0,1-.68-2V141.59h2.27V153a1.59,1.59,0,0,0,.24.9.88.88,0,0,0,.75.35,1.53,1.53,0,0,0,.6-.12.94.94,0,0,0,.41-.26l.54,1.72a2.21,2.21,0,0,1-.82.47A3.72,3.72,0,0,1,93.48,156.23Z"/><path class="cls-3" d="M98.11,144.28a1.31,1.31,0,0,1-1-.41,1.4,1.4,0,0,1,2-2,1.4,1.4,0,0,1-1,2.39ZM97,156V145.56h2.26V156Z"/><path class="cls-3" d="M105.31,156.23a2.65,2.65,0,0,1-2-.69,2.76,2.76,0,0,1-.67-2v-6h-1.72v-2h1.72v-2.85h2.26v2.85H107v2H104.9V153a1.59,1.59,0,0,0,.25.9.87.87,0,0,0,.75.35,1.45,1.45,0,0,0,.59-.12,1,1,0,0,0,.4-.26l.54,1.72a2.39,2.39,0,0,1-.82.47A3.74,3.74,0,0,1,105.31,156.23Z"/><path class="cls-3" d="M112.19,156.23a2.65,2.65,0,0,1-2-.69,2.76,2.76,0,0,1-.67-2v-6h-1.73v-2h1.73v-2.85h2.26v2.85h2.11v2h-2.11V153a1.52,1.52,0,0,0,.25.9.85.85,0,0,0,.74.35,1.46,1.46,0,0,0,.6-.12,1,1,0,0,0,.39-.26l.54,1.72a2.21,2.21,0,0,1-.82.47A3.64,3.64,0,0,1,112.19,156.23Z"/><path class="cls-3" d="M120.75,156.23a6,6,0,0,1-2.19-.39,4.91,4.91,0,0,1-1.72-1.11,5.09,5.09,0,0,1-1.13-1.74,6.07,6.07,0,0,1,0-4.36,5.19,5.19,0,0,1,1.09-1.74,5.32,5.32,0,0,1,1.67-1.16,5.53,5.53,0,0,1,4.25,0,4.74,4.74,0,0,1,1.62,1.17,5.26,5.26,0,0,1,1,1.79,6.88,6.88,0,0,1,.36,2.27v.56h-8a3.23,3.23,0,0,0,.31,1.1,3,3,0,0,0,.67.91,2.94,2.94,0,0,0,1,.63,3.66,3.66,0,0,0,1.32.22,4.6,4.6,0,0,0,1.59-.3,3.72,3.72,0,0,0,1.38-.86l1,1.49a5.45,5.45,0,0,1-1.9,1.14A6.91,6.91,0,0,1,120.75,156.23Zm2.76-6.34a2.94,2.94,0,0,0-.74-1.82,2.77,2.77,0,0,0-.9-.66,3.06,3.06,0,0,0-1.31-.26,2.88,2.88,0,0,0-1.25.25,2.61,2.61,0,0,0-.9.65,2.89,2.89,0,0,0-.55.88,2.77,2.77,0,0,0-.21,1Z"/><path class="cls-3" d="M127.93,156V145.56h2.26v1.51a5.24,5.24,0,0,1,1.49-1.27,3.83,3.83,0,0,1,1.9-.5v2.24a3.54,3.54,0,0,0-.69-.06,3,3,0,0,0-.77.1,4.54,4.54,0,0,0-.77.3,3.68,3.68,0,0,0-.68.46,2.39,2.39,0,0,0-.48.54V156Z"/><path class="cls-2" d="M44.54,250c19-5.8,28.57,8.74,28.57,8.74S67.09,238.46,44.54,250Z"/><path class="cls-2" d="M81.24,250.77c0-.09,0-.61,0-.69A14.16,14.16,0,0,0,73.75,261s2.58-6,8.66-7.82A3.67,3.67,0,0,1,81.24,250.77Z"/><path class="cls-2" d="M57,259.24s-.05,2.87,0,4.32c-.73,0-3.89-.2-5.27-.25,0,.77,0,1.57,0,2.34,1.66,0,3.38.24,5,.22,0,1.39,0,2.59,0,4-1.66,0-3.32-.13-5-.17,0,.85,0,1.7,0,2.54,1.79,0,3.58.19,5.36.16,0-.06,0,4.24,0,4.24-3.53,0-7.72-.28-11.68-.61l.27-17.65C47.33,258.56,52.51,259.11,57,259.24Z"/><path class="cls-2" d="M58.53,259.28l-.07,4.61c1.66.08,3.16.09,3.16.09l0,12.79a40.09,40.09,0,0,0,6.38-.09L67.9,264l3.26-.16c0-1.69,0-3-.06-4.71A112.06,112.06,0,0,1,58.53,259.28Z"/><path class="cls-2" d="M143.71,256.47c0,1.84,0,3.52,0,5.35,1.08.06,2.3.28,3.38.37,0,4.46-.11,7.84-.11,12.3,3,.36,5.13.7,5.95.85,0-4.46.18-8,.18-12.43,0,0,3.18.49,3.24.54V258A98.78,98.78,0,0,0,143.71,256.47Z"/><path class="cls-2" d="M37.88,256.55l-7.55-1.38,0,18.52c1.93.38,3.71.7,5.59.91l0-5.35c.66.08,1.37.17,2,.23,3.27.3,6.58-.94,6.62-6.3C44.55,258.44,41.39,257.06,37.88,256.55Zm-1.4,8.53-.55-.06,0-3.63.53.06a1.84,1.84,0,0,1,1.84,1.94C38.32,264.89,37.4,265.18,36.48,265.08Z"/><path class="cls-2" d="M100.94,273.75c.85-2.21,1.7-4.27,2.54-6.48.14,2.12.22,4,.35,6.13,2.11-.23,3.81-.35,5.93-.48-.55-5.63-1-11.66-1.57-17.28-1.81.16-3.63.32-5.44.5-1,2.65-2,5.88-3.06,8.53-1-2.46-2-5.34-2.94-7.79-1.84.26-5.11.83-5.45.83-.63,5.74-1.35,12.11-2,17.84,1.44-.25,5-.82,6-1l.49-6.56q1.23,3.06,2.45,6.12Z"/><path class="cls-2" d="M139.73,267.86c1.62-.73,2.78-2.3,2.82-5.4.07-4.68-3.24-6.68-6.59-6.93-2.53-.2-5.07-.33-7.6-.41-.08,5.95-.12,11.39-.2,17.34,1.9.06,4,.2,5.63.34,0-1.68.05-2.92.07-4.59,1.09,1.74,2,3.19,3,5,2.34.21,4.72.51,7.05.85C142.51,271.84,141.19,270,139.73,267.86Zm-5.25-3.81-.56,0c0-1.19,0-2.38.05-3.58l.54,0a1.78,1.78,0,0,1,1.84,1.88A1.54,1.54,0,0,1,134.48,264.05Z"/><path class="cls-2" d="M121.73,255c-2.25,0-4.09,0-6,.12-1.55,5.77-3.38,11.94-4.93,17.73,1.72,0,3.47-.15,5.19-.15l.5-1.93,2.63-.06s2.32-.08,2.32-.08c.07.23.28.83.58,1.84,1.72,0,3.45,0,5.17,0C125.32,266.41,123.43,260.54,121.73,255Zm-4.13,11.7c.39-1.47.79-3,1.18-4.5.45,1.48.91,3,1.36,4.44A22.44,22.44,0,0,1,117.6,266.7Z"/><path class="cls-2" d="M73.12,275.13a15.55,15.55,0,0,0,7,1.77c4,0,8.1-2.37,8.18-6.8.07-3.16-1.94-4.66-4.74-5.28l-1.5-.34c-.5-.12-1.33-.22-1.31-.91s.87-1,1.45-1a10.71,10.71,0,0,1,4,.85q.86-2.22,1.69-4.45a13.14,13.14,0,0,0-5.77-1.37c-4,0-8,2.41-8.06,6.82-.06,2.9,2.09,4.5,4.68,5l1.32.25c.61.13,1.48.2,1.46,1s-1,.93-1.7.93a7.81,7.81,0,0,1-4.54-1.5C74.62,271.67,73.8,273.58,73.12,275.13Z"/><path class="cls-2" d="M87.43,245a4.45,4.45,0,1,0,4.39,4.51A4.44,4.44,0,0,0,87.43,245ZM89,246.61a5.35,5.35,0,0,0-4.78,2.8s0,0,0,.07a3.31,3.31,0,0,1,.11-1.24,3,3,0,0,1,3.7-2.16,2.73,2.73,0,0,1,1,.56Z"/><path class="cls-3" d="M295.17,601.26c0-1.17.05-2.34.05-3.52a145.2,145.2,0,0,0-290.4,0c0,1.18,0,2.35,0,3.52Z"/></g></g><g id="rec"><rect class="cls-4" x="0.5" y="0.5" width="300" height="600"/></g></g></svg>