<svg xmlns="http://www.w3.org/2000/svg" viewBox="0 0 728 90"><title>subhead</title><g id="Layer_2" data-name="Layer 2"><g id="REC"><rect width="728" height="90" fill="none"/></g><g id="sub"><path d="M302,32a7.25,7.25,0,0,1-3.07-.58,6,6,0,0,1-2.12-1.58l1.41-1.7A4.68,4.68,0,0,0,302,29.78a3,3,0,0,0,2.11-.72,2.49,2.49,0,0,0,0-3.57,3,3,0,0,0-2.06-.67,4.82,4.82,0,0,0-1.64.28A4.41,4.41,0,0,0,299,26l-1.74-.51V17.7h9.18v2.19h-6.72v4a4.81,4.81,0,0,1,1.34-.84,4.53,4.53,0,0,1,1.83-.36,4.91,4.91,0,0,1,1.7.3,4.35,4.35,0,0,1,1.44.89,4.1,4.1,0,0,1,1,1.41,5.08,5.08,0,0,1,0,3.88,4.29,4.29,0,0,1-1.1,1.49,4.89,4.89,0,0,1-1.69.95A6.52,6.52,0,0,1,302,32Z" fill="#e52823"/><path d="M314.74,32a4.83,4.83,0,0,1-2.55-.64,5.31,5.31,0,0,1-1.73-1.67,7.58,7.58,0,0,1-1-2.32,10.53,10.53,0,0,1,0-5.23,7.69,7.69,0,0,1,1-2.32,5.28,5.28,0,0,1,1.73-1.66,4.92,4.92,0,0,1,2.55-.63,4.87,4.87,0,0,1,2.53.63A5.19,5.19,0,0,1,319,19.78a7.69,7.69,0,0,1,1,2.32,10.53,10.53,0,0,1,0,5.23,7.58,7.58,0,0,1-1,2.32,5.22,5.22,0,0,1-1.73,1.67A4.78,4.78,0,0,1,314.74,32Zm0-2.18a2.45,2.45,0,0,0,1.44-.42,3,3,0,0,0,1-1.12,5.9,5.9,0,0,0,.52-1.6,11.31,11.31,0,0,0,0-3.85,5.37,5.37,0,0,0-.52-1.6,3.12,3.12,0,0,0-1-1.1,2.77,2.77,0,0,0-2.9,0,3,3,0,0,0-1,1.1,5.38,5.38,0,0,0-.54,1.6,11,11,0,0,0,0,3.85,5.29,5.29,0,0,0,.54,1.6,3.07,3.07,0,0,0,1,1.12A2.44,2.44,0,0,0,314.74,29.78Z" fill="#e52823"/><path d="M325.28,24.44a3.54,3.54,0,0,1-1.41-.26,3.25,3.25,0,0,1-1.11-.73,3.51,3.51,0,0,1-1-2.47,3.72,3.72,0,0,1,.25-1.38,3.46,3.46,0,0,1,.71-1.11,3.27,3.27,0,0,1,1.11-.74,3.73,3.73,0,0,1,1.41-.26,3.87,3.87,0,0,1,1.43.26,3.14,3.14,0,0,1,1.1.74,3.46,3.46,0,0,1,.71,1.11,3.72,3.72,0,0,1,.25,1.38,3.51,3.51,0,0,1-1,2.47,3.12,3.12,0,0,1-1.1.73A3.68,3.68,0,0,1,325.28,24.44Zm0-1.4a1.75,1.75,0,0,0,1.35-.57,2.12,2.12,0,0,0,.52-1.5,2.17,2.17,0,0,0-.52-1.53,1.73,1.73,0,0,0-1.35-.58,1.69,1.69,0,0,0-1.32.58,2.17,2.17,0,0,0-.52,1.53,2.12,2.12,0,0,0,.52,1.5A1.72,1.72,0,0,0,325.28,23Zm-1.36,8.67,8.94-14h1.43l-9,14Zm8.9.25a3.82,3.82,0,0,1-1.42-.26,3.47,3.47,0,0,1-1.1-.73,3.36,3.36,0,0,1-.71-1.1,3.58,3.58,0,0,1-.25-1.36,3.63,3.63,0,0,1,.25-1.37A3.2,3.2,0,0,1,330.3,26a3.33,3.33,0,0,1,1.1-.74,4,4,0,0,1,2.84,0,3.31,3.31,0,0,1,1.82,1.85,3.83,3.83,0,0,1,.25,1.37,3.78,3.78,0,0,1-.25,1.36,3.27,3.27,0,0,1-1.82,1.83A3.82,3.82,0,0,1,332.82,32Zm0-1.41a1.78,1.78,0,0,0,1.35-.56,2.12,2.12,0,0,0,.52-1.49,2.2,2.2,0,0,0-.52-1.53,1.87,1.87,0,0,0-2.69,0A2.21,2.21,0,0,0,331,28.5a2.12,2.12,0,0,0,.53,1.49A1.77,1.77,0,0,0,332.82,30.55Z" fill="#e52823"/><path d="M348.34,32a5.24,5.24,0,0,1-2.18-.43,5,5,0,0,1-1.64-1.15,5.12,5.12,0,0,1-1-1.69,5.91,5.91,0,0,1-.36-2.06,5.83,5.83,0,0,1,.36-2.06,5,5,0,0,1,1-1.69,4.85,4.85,0,0,1,1.64-1.15,5.87,5.87,0,0,1,4.36,0,4.85,4.85,0,0,1,1.64,1.15,5,5,0,0,1,1,1.69,5.83,5.83,0,0,1,.36,2.06,5.91,5.91,0,0,1-.36,2.06,5.12,5.12,0,0,1-1,1.69,5,5,0,0,1-1.64,1.15A5.24,5.24,0,0,1,348.34,32Zm0-1.95a2.66,2.66,0,0,0,1.26-.28,2.6,2.6,0,0,0,.91-.73,3.26,3.26,0,0,0,.56-1.08,4.24,4.24,0,0,0,.19-1.29,4.13,4.13,0,0,0-.19-1.28,3.26,3.26,0,0,0-.56-1.08,2.72,2.72,0,0,0-.91-.73,3,3,0,0,0-2.5,0,2.86,2.86,0,0,0-.92.73,3.28,3.28,0,0,0-.57,1.08,4.13,4.13,0,0,0-.19,1.28,4.24,4.24,0,0,0,.19,1.29,3.28,3.28,0,0,0,.57,1.08,2.73,2.73,0,0,0,.92.73A2.66,2.66,0,0,0,348.34,30Z" fill="#e52823"/><path d="M356.34,31.71V23.48h-1.68V21.57h1.68V21a3.51,3.51,0,0,1,.9-2.6,3.1,3.1,0,0,1,2.29-.91,3.74,3.74,0,0,1,1.79.38l-.48,1.66a1.66,1.66,0,0,0-.89-.23,1.33,1.33,0,0,0-1,.42,1.94,1.94,0,0,0-.36,1.28v.57h2.05v1.91h-2.05v8.23Z" fill="#e52823"/><path d="M362.83,31.71V23.48h-1.68V21.57h1.68V21a3.51,3.51,0,0,1,.9-2.6,3.1,3.1,0,0,1,2.29-.91,3.74,3.74,0,0,1,1.79.38l-.49,1.66a1.6,1.6,0,0,0-.88-.23,1.31,1.31,0,0,0-1,.42A1.94,1.94,0,0,0,365,21v.57h2v1.91h-2v8.23Z" fill="#e52823"/><path d="M304.22,51.71V50.32a4.2,4.2,0,0,1-1.42,1.2A3.87,3.87,0,0,1,301,52a4.45,4.45,0,0,1-1.8-.36,3.77,3.77,0,0,1-1.43-1.05,4.87,4.87,0,0,1-.93-1.68,7.45,7.45,0,0,1,0-4.45,4.87,4.87,0,0,1,.93-1.68,4.11,4.11,0,0,1,1.42-1.06,4.47,4.47,0,0,1,1.81-.37,4,4,0,0,1,1.8.42A4.17,4.17,0,0,1,304.22,43v-1.4h2.21V51.71Zm-2.6-1.7a2.91,2.91,0,0,0,.76-.11,3.16,3.16,0,0,0,.74-.29,4.11,4.11,0,0,0,.63-.43,2.4,2.4,0,0,0,.47-.54v-4a2.84,2.84,0,0,0-.47-.52,3.09,3.09,0,0,0-.63-.44,3.19,3.19,0,0,0-.74-.3,2.89,2.89,0,0,0-.76-.1,2.71,2.71,0,0,0-1.2.25,2.78,2.78,0,0,0-.9.69,3,3,0,0,0-.58,1.06,4.56,4.56,0,0,0-.2,1.36,4.45,4.45,0,0,0,.2,1.35,3,3,0,0,0,.58,1.07,2.7,2.7,0,0,0,.9.71A2.86,2.86,0,0,0,301.62,50Z" fill="#e52823"/><path d="M311.89,52a2.61,2.61,0,0,1-1.95-.67,2.68,2.68,0,0,1-.66-1.95V37.7h2.21V48.79a1.49,1.49,0,0,0,.24.87.82.82,0,0,0,.72.35,1.45,1.45,0,0,0,.59-.12,1,1,0,0,0,.4-.26l.52,1.68a2.29,2.29,0,0,1-.79.46A3.64,3.64,0,0,1,311.89,52Z" fill="#e52823"/><path d="M317.89,52a2.6,2.6,0,0,1-1.94-.67,2.68,2.68,0,0,1-.66-1.95V37.7h2.2V48.79a1.49,1.49,0,0,0,.24.87.84.84,0,0,0,.73.35,1.48,1.48,0,0,0,.59-.12,1,1,0,0,0,.4-.26l.52,1.68a2.34,2.34,0,0,1-.8.46A3.56,3.56,0,0,1,317.89,52Z" fill="#e52823"/><path d="M336.54,51.71l-7.31-10v10h-2.46v-14h2.52l7.17,9.7V37.7h2.45v14Z" fill="#e52823"/><path d="M346.53,52a5.89,5.89,0,0,1-2.13-.38,4.76,4.76,0,0,1-1.68-1.08,5,5,0,0,1-1.1-1.69,6,6,0,0,1,0-4.25,5.17,5.17,0,0,1,6.82-2.84A4.57,4.57,0,0,1,350,42.87a5.15,5.15,0,0,1,1,1.74,6.78,6.78,0,0,1,.34,2.21v.54h-7.81a3.23,3.23,0,0,0,.31,1.07,2.88,2.88,0,0,0,.65.9,3,3,0,0,0,1,.6,3.47,3.47,0,0,0,1.28.23,4.4,4.4,0,0,0,1.56-.3,3.48,3.48,0,0,0,1.34-.84l1,1.45a5.08,5.08,0,0,1-1.85,1.11A6.8,6.8,0,0,1,346.53,52Zm2.69-6.17a2.88,2.88,0,0,0-.2-.92,2.83,2.83,0,0,0-.52-.86,2.73,2.73,0,0,0-.87-.64,2.92,2.92,0,0,0-1.28-.25,2.89,2.89,0,0,0-1.22.24,2.57,2.57,0,0,0-.87.63,3.11,3.11,0,0,0-.54.86,2.71,2.71,0,0,0-.21.94Z" fill="#e52823"/><path d="M353.53,51.71V41.57h2.2V43a5.1,5.1,0,0,1,1.45-1.23,3.67,3.67,0,0,1,1.85-.5V43.5a3.4,3.4,0,0,0-.67-.06,2.87,2.87,0,0,0-.75.1,4,4,0,0,0-.75.29,4.09,4.09,0,0,0-.67.44,2.46,2.46,0,0,0-.46.53v6.91Z" fill="#e52823"/><path d="M361.36,51.71V43.48h-1.68V41.57h1.68V41a3.51,3.51,0,0,1,.9-2.6,3.1,3.1,0,0,1,2.29-.91,3.74,3.74,0,0,1,1.79.38l-.49,1.66a1.6,1.6,0,0,0-.88-.23,1.31,1.31,0,0,0-1,.42,1.94,1.94,0,0,0-.36,1.28v.57h2.05v1.91h-2.05v8.23Z" fill="#e52823"/><path d="M369.49,38.25v4.07h-.59V38.25h-1.3V37.7h3.19v.55Zm6,4.07V38.5l-1.57,3.82h-.17l-1.58-3.82v3.82h-.59V37.7h.91l1.34,3.36,1.35-3.36h.9v4.62Z" fill="#e52823"/><path d="M297.14,71.71v-14H304a4.71,4.71,0,0,1,1.71.29,3.46,3.46,0,0,1,1.25.76,3.25,3.25,0,0,1,.77,1.13,3.81,3.81,0,0,1,.26,1.39,3.42,3.42,0,0,1-.73,2.15,3.35,3.35,0,0,1-.78.68,2.92,2.92,0,0,1-.92.37,3,3,0,0,1,1.06.39,3.5,3.5,0,0,1,.86.77,3.8,3.8,0,0,1,.57,1.05,3.64,3.64,0,0,1,.21,1.22,4.19,4.19,0,0,1-.26,1.52,3.42,3.42,0,0,1-.77,1.21,3.58,3.58,0,0,1-1.29.8,5.22,5.22,0,0,1-1.75.28Zm6.41-8.25A2,2,0,0,0,305,63a1.75,1.75,0,0,0,.5-1.29,1.77,1.77,0,0,0-.5-1.28,2,2,0,0,0-1.45-.5H299.6v3.57Zm.1,6.07a2.23,2.23,0,0,0,1.57-.52,1.83,1.83,0,0,0,.55-1.43,1.93,1.93,0,0,0-.53-1.37,2.09,2.09,0,0,0-1.59-.57h-4v3.89Z" fill="#e52823"/><path d="M313.31,72a2.6,2.6,0,0,1-1.94-.67,2.68,2.68,0,0,1-.66-2V57.7h2.2V68.79a1.49,1.49,0,0,0,.25.87.82.82,0,0,0,.72.35,1.45,1.45,0,0,0,.59-.12,1,1,0,0,0,.4-.26l.52,1.68a2.25,2.25,0,0,1-.8.46A3.56,3.56,0,0,1,313.31,72Z" fill="#e52823"/><path d="M323.86,71.71V70.32a4.4,4.4,0,0,1-1.42,1.2,3.93,3.93,0,0,1-1.84.44,4.44,4.44,0,0,1-1.79-.36,3.69,3.69,0,0,1-1.43-1,5.06,5.06,0,0,1-.94-1.68,7.67,7.67,0,0,1,0-4.45,5.06,5.06,0,0,1,.94-1.68,4.16,4.16,0,0,1,1.41-1.06,4.47,4.47,0,0,1,1.81-.37,4,4,0,0,1,1.81.42A4.17,4.17,0,0,1,323.86,63v-1.4h2.2V71.71ZM321.25,70a3,3,0,0,0,.77-.11,3.09,3.09,0,0,0,.73-.29,4.11,4.11,0,0,0,.63-.43,2.45,2.45,0,0,0,.48-.54v-4a3.29,3.29,0,0,0-.48-.52,3.55,3.55,0,0,0-1.36-.74,3,3,0,0,0-.77-.1,2.71,2.71,0,0,0-1.2.25,2.78,2.78,0,0,0-.9.69,3.29,3.29,0,0,0-.58,1.06,4.56,4.56,0,0,0-.2,1.36,4.45,4.45,0,0,0,.2,1.35,3.34,3.34,0,0,0,.58,1.07,2.7,2.7,0,0,0,.9.71A2.86,2.86,0,0,0,321.25,70Z" fill="#e52823"/><path d="M332.4,72a6.81,6.81,0,0,1-2.43-.41,5.31,5.31,0,0,1-1.91-1.18l1-1.58a5.14,5.14,0,0,0,.65.53,8.29,8.29,0,0,0,.84.45,6.32,6.32,0,0,0,1,.31,4.11,4.11,0,0,0,1,.12,2.53,2.53,0,0,0,1.51-.37,1.17,1.17,0,0,0,.5-1,.81.81,0,0,0-.45-.75,4.46,4.46,0,0,0-1.13-.42c-.46-.11-.95-.23-1.48-.34a6.14,6.14,0,0,1-1.48-.5,3.31,3.31,0,0,1-1.14-.91,2.4,2.4,0,0,1-.45-1.55,2.72,2.72,0,0,1,1-2.16,3.71,3.71,0,0,1,1.25-.66,5.3,5.3,0,0,1,1.71-.25,6.11,6.11,0,0,1,2.28.4,5.83,5.83,0,0,1,1.65,1l-.93,1.56a3.65,3.65,0,0,0-1.25-.87,4.31,4.31,0,0,0-1.75-.35,2.39,2.39,0,0,0-1.38.35,1.1,1.1,0,0,0-.49.91.73.73,0,0,0,.45.67,5.38,5.38,0,0,0,1.14.39l1.48.33a6.5,6.5,0,0,1,1.48.53,3.33,3.33,0,0,1,1.13.94,2.63,2.63,0,0,1,.45,1.61,3,3,0,0,1-.27,1.26,2.71,2.71,0,0,1-.81,1,4.08,4.08,0,0,1-1.32.66A6.27,6.27,0,0,1,332.4,72Z" fill="#e52823"/><path d="M341.89,72a2.59,2.59,0,0,1-1.95-.67,2.72,2.72,0,0,1-.65-2V63.48h-1.68V61.57h1.68V58.79h2.21v2.78h2.05v1.91H341.5v5.31a1.49,1.49,0,0,0,.24.87.82.82,0,0,0,.72.35,1.4,1.4,0,0,0,.58-.12,1.06,1.06,0,0,0,.39-.26l.52,1.68a2.25,2.25,0,0,1-.8.46A3.48,3.48,0,0,1,341.89,72Z" fill="#e52823"/><path d="M350.23,72a5.89,5.89,0,0,1-2.13-.38,4.76,4.76,0,0,1-1.68-1.08,4.9,4.9,0,0,1-1.1-1.69,5.72,5.72,0,0,1-.4-2.18,5.51,5.51,0,0,1,.38-2.07A5,5,0,0,1,348,61.73a5.37,5.37,0,0,1,4.14,0,4.67,4.67,0,0,1,1.58,1.15,5.13,5.13,0,0,1,1,1.74,6.78,6.78,0,0,1,.35,2.21v.54h-7.81a3.21,3.21,0,0,0,.3,1.07,2.87,2.87,0,0,0,1.63,1.5,3.44,3.44,0,0,0,1.28.23,4.39,4.39,0,0,0,1.55-.3,3.52,3.52,0,0,0,1.35-.84l1,1.45a5.17,5.17,0,0,1-1.85,1.11A6.84,6.84,0,0,1,350.23,72Zm2.69-6.17a3.18,3.18,0,0,0-.2-.92,2.67,2.67,0,0,0-.53-.86,2.73,2.73,0,0,0-.87-.64,3.31,3.31,0,0,0-2.5,0A2.57,2.57,0,0,0,348,64a2.86,2.86,0,0,0-.53.86,2.71,2.71,0,0,0-.21.94Z" fill="#e52823"/><path d="M357.22,71.71V61.57h2.21V63a5,5,0,0,1,1.45-1.23,3.64,3.64,0,0,1,1.85-.5V63.5a3.44,3.44,0,0,0-.68-.06,2.85,2.85,0,0,0-.74.1,4.4,4.4,0,0,0-.76.29,3.84,3.84,0,0,0-.66.45,2,2,0,0,0-.46.52v6.91Z" fill="#e52823"/><path d="M368,72a6.83,6.83,0,0,1-2.44-.41,5.4,5.4,0,0,1-1.91-1.18l1-1.58a4.51,4.51,0,0,0,.65.53,6.59,6.59,0,0,0,.84.45,6.2,6.2,0,0,0,1,.31,4.17,4.17,0,0,0,1,.12,2.51,2.51,0,0,0,1.51-.37,1.15,1.15,0,0,0,.51-1,.81.81,0,0,0-.46-.75,4.32,4.32,0,0,0-1.13-.42c-.45-.11-.95-.23-1.48-.34a6.29,6.29,0,0,1-1.48-.5,3.27,3.27,0,0,1-1.13-.91,2.35,2.35,0,0,1-.46-1.55,2.69,2.69,0,0,1,.27-1.19,2.82,2.82,0,0,1,.76-1,3.81,3.81,0,0,1,1.25-.66,5.3,5.3,0,0,1,1.71-.25,6.11,6.11,0,0,1,2.28.4,5.83,5.83,0,0,1,1.65,1L371,64.28a3.85,3.85,0,0,0-1.25-.87,4.35,4.35,0,0,0-1.76-.35,2.37,2.37,0,0,0-1.37.35,1.09,1.09,0,0,0-.5.91.74.74,0,0,0,.46.67,5.47,5.47,0,0,0,1.13.39l1.48.33a6.33,6.33,0,0,1,1.48.53,3.37,3.37,0,0,1,1.14.94,2.63,2.63,0,0,1,.45,1.61,2.83,2.83,0,0,1-.28,1.26,2.78,2.78,0,0,1-.8,1,4,4,0,0,1-1.33.66A6.2,6.2,0,0,1,368,72Z" fill="#e52823"/></g></g></svg>