<svg xmlns="http://www.w3.org/2000/svg" viewBox="0 0 728 90"><g id="Layer_2" data-name="Layer 2"><g id="sub"><path d="M283.36,42.42,281,33.55l-2.34,8.87h-2.25l-3.42-12h2.34l2.34,9.23,2.48-9.23h1.68l2.48,9.23,2.34-9.23h2.36l-3.44,12Z" fill="#e52823"/><path d="M296.27,42.42V37a1.69,1.69,0,0,0-.47-1.39,2,2,0,0,0-1.28-.37,2.47,2.47,0,0,0-1.32.36,3.26,3.26,0,0,0-.91.79v6.08H290.4v-12h1.89V34.9a3.2,3.2,0,0,1,.53-.5,4.19,4.19,0,0,1,.7-.45,3.74,3.74,0,0,1,.85-.32,3.87,3.87,0,0,1,1-.12,2.86,2.86,0,0,1,2.11.71,2.8,2.8,0,0,1,.7,2.05v6.15Z" fill="#e52823"/><path d="M301.56,32.67a1.17,1.17,0,0,1-.83-.34,1.13,1.13,0,0,1-.34-.83,1.12,1.12,0,0,1,.34-.83,1.18,1.18,0,0,1,1.66,0,1.12,1.12,0,0,1,.34.83,1.13,1.13,0,0,1-.34.83A1.17,1.17,0,0,1,301.56,32.67Zm-.95,9.75V33.73h1.89v8.69Z" fill="#e52823"/><path d="M307.93,42.64a6.15,6.15,0,0,1-2.09-.35,4.56,4.56,0,0,1-1.63-1l.86-1.35a3.24,3.24,0,0,0,.56.45,3.51,3.51,0,0,0,.72.39,5.62,5.62,0,0,0,.82.27,4,4,0,0,0,.83.1,2.2,2.2,0,0,0,1.3-.32,1,1,0,0,0,.43-.83.7.7,0,0,0-.38-.65,3.59,3.59,0,0,0-1-.36c-.39-.1-.81-.19-1.27-.29a5.67,5.67,0,0,1-1.26-.43,2.78,2.78,0,0,1-1-.78,2,2,0,0,1-.38-1.33,2.37,2.37,0,0,1,.22-1,2.48,2.48,0,0,1,.66-.83,3.2,3.2,0,0,1,1.07-.57,4.65,4.65,0,0,1,1.47-.21,5.1,5.1,0,0,1,2,.35,4.47,4.47,0,0,1,1.41.86l-.79,1.33a3.26,3.26,0,0,0-1.07-.74,3.65,3.65,0,0,0-1.5-.3,2,2,0,0,0-1.18.3,1,1,0,0,0-.43.78.61.61,0,0,0,.39.57,3.9,3.9,0,0,0,1,.34l1.27.28a6.14,6.14,0,0,1,1.27.45,2.83,2.83,0,0,1,1,.81,2.26,2.26,0,0,1,.39,1.38,2.58,2.58,0,0,1-.23,1.08,2.35,2.35,0,0,1-.7.87,3.41,3.41,0,0,1-1.13.56A5.26,5.26,0,0,1,307.93,42.64Z" fill="#e52823"/><path d="M319.2,42.42l-2.65-3.6-1.22,1.26v2.34h-1.89v-12h1.89v7.5l3.83-4.19h2.34l-3.6,3.94,3.68,4.75Z" fill="#e52823"/><path d="M327,42.64a5.17,5.17,0,0,1-1.83-.32,4.16,4.16,0,0,1-1.44-.93,4.22,4.22,0,0,1-.94-1.45,4.9,4.9,0,0,1-.35-1.87,4.81,4.81,0,0,1,.33-1.78,4.21,4.21,0,0,1,.91-1.44,4.27,4.27,0,0,1,3.17-1.34,4.4,4.4,0,0,1,1.77.35,3.94,3.94,0,0,1,1.35,1,4.36,4.36,0,0,1,.85,1.49,5.76,5.76,0,0,1,.3,1.89v.47h-6.7a3.23,3.23,0,0,0,.26.92,2.77,2.77,0,0,0,.56.76,2.58,2.58,0,0,0,.84.52,2.92,2.92,0,0,0,1.1.19,3.81,3.81,0,0,0,1.33-.25,3.13,3.13,0,0,0,1.15-.72l.87,1.24a4.58,4.58,0,0,1-1.59,1A5.94,5.94,0,0,1,327,42.64Zm2.3-5.29a2.61,2.61,0,0,0-.17-.79,2.33,2.33,0,0,0-1.2-1.28,2.41,2.41,0,0,0-1.09-.22,2.46,2.46,0,0,0-1.05.21,2.33,2.33,0,0,0-.75.54,2.45,2.45,0,0,0-.45.74,2.31,2.31,0,0,0-.18.8Z" fill="#e52823"/><path d="M333,42.42V33.73h1.89V35a4.36,4.36,0,0,1,1.24-1.05,3.09,3.09,0,0,1,1.59-.43v1.88a2.52,2.52,0,0,0-.58-.06,2.47,2.47,0,0,0-.64.09,4,4,0,0,0-.65.25,3.24,3.24,0,0,0-.56.38,2.31,2.31,0,0,0-.4.45v5.92Z" fill="#e52823"/><path d="M349.67,42.64a6.78,6.78,0,0,1-2.48-.45A5.83,5.83,0,0,1,343.86,39a6.78,6.78,0,0,1,0-5.06,5.83,5.83,0,0,1,3.33-3.23,6.78,6.78,0,0,1,2.48-.45,5.61,5.61,0,0,1,1.64.22,5,5,0,0,1,1.33.58,5.25,5.25,0,0,1,1.06.86,6.27,6.27,0,0,1,.78,1l-1.78.94a3.45,3.45,0,0,0-1.24-1.25,3.38,3.38,0,0,0-1.79-.5,4.05,4.05,0,0,0-1.65.33,3.74,3.74,0,0,0-1.31.9,4.32,4.32,0,0,0-.86,1.36,4.89,4.89,0,0,0,0,3.48,4.25,4.25,0,0,0,.86,1.37,3.77,3.77,0,0,0,1.31.91,4.05,4.05,0,0,0,1.65.33,3.38,3.38,0,0,0,1.79-.5A3.45,3.45,0,0,0,352.7,39l1.8.9a7.79,7.79,0,0,1-.8,1,4.93,4.93,0,0,1-1.06.86,5.39,5.39,0,0,1-1.33.6A6,6,0,0,1,349.67,42.64Z" fill="#e52823"/><path d="M357.07,32.67a1.16,1.16,0,0,1-1.17-1.17,1.16,1.16,0,0,1,.34-.83,1.13,1.13,0,0,1,.83-.34,1.16,1.16,0,0,1,1.17,1.17,1.13,1.13,0,0,1-.34.83A1.16,1.16,0,0,1,357.07,32.67Zm-.95,9.75V33.73H358v8.69Z" fill="#e52823"/><path d="M363.08,42.64a2.2,2.2,0,0,1-1.67-.58,2.31,2.31,0,0,1-.56-1.67v-5h-1.44V33.73h1.44V31.35h1.89v2.38h1.76v1.64h-1.76v4.55a1.28,1.28,0,0,0,.21.75.7.7,0,0,0,.62.3,1.3,1.3,0,0,0,.49-.1.92.92,0,0,0,.34-.23l.45,1.44a2.06,2.06,0,0,1-.69.4A3,3,0,0,1,363.08,42.64Z" fill="#e52823"/><path d="M369.62,46a5.58,5.58,0,0,1-1.95-.31,4.81,4.81,0,0,1-1.56-1l.88-1.37a2.61,2.61,0,0,0,1.17.85,4,4,0,0,0,1.46.26,2.49,2.49,0,0,0,1.8-.62,2.36,2.36,0,0,0,.64-1.79V41a4.37,4.37,0,0,1-1.25,1,3.75,3.75,0,0,1-1.81.42,2.81,2.81,0,0,1-2.1-.71,2.76,2.76,0,0,1-.7-2V33.73h1.89V38.9a1.73,1.73,0,0,0,.47,1.39,2,2,0,0,0,1.29.39,2.54,2.54,0,0,0,1.31-.35,3.08,3.08,0,0,0,.9-.79V33.73H374V42a4.22,4.22,0,0,1-.32,1.72,3.36,3.36,0,0,1-.91,1.24,4,4,0,0,1-1.38.75A5.54,5.54,0,0,1,369.62,46Z" fill="#e52823"/><path d="M380,31.55a2.25,2.25,0,0,1-.65,1.57,2,2,0,0,1-.71.48,2.31,2.31,0,0,1-1.74,0,2.08,2.08,0,0,1-.7-.48,2,2,0,0,1-.48-.7,2.31,2.31,0,0,1,0-1.74,2,2,0,0,1,.48-.71,2.21,2.21,0,0,1,.7-.47,2.31,2.31,0,0,1,1.74,0,2.14,2.14,0,0,1,1.18,1.18A2.12,2.12,0,0,1,380,31.55Zm-.32,0a1.86,1.86,0,0,0-.15-.75,1.82,1.82,0,0,0-.41-.61,2,2,0,0,0-.61-.4,1.93,1.93,0,0,0-1.49,0,1.91,1.91,0,0,0-.6.4,1.82,1.82,0,0,0-.41.61,1.86,1.86,0,0,0-.15.75,1.8,1.8,0,0,0,.15.73,1.73,1.73,0,0,0,.41.61,1.94,1.94,0,0,0,.6.41,1.93,1.93,0,0,0,1.49,0,2,2,0,0,0,.61-.41,1.73,1.73,0,0,0,.41-.61A1.8,1.8,0,0,0,379.68,31.55Zm-1.3,1.28-.66-1h-.45v1h-.35V30.28h1a.86.86,0,0,1,.58.21.7.7,0,0,1,.25.57.72.72,0,0,1-.08.35,1,1,0,0,1-.19.24.89.89,0,0,1-.23.13l-.16,0,.68,1Zm0-1.77a.42.42,0,0,0-.15-.34.44.44,0,0,0-.31-.14h-.69v.93H378a.43.43,0,0,0,.31-.13A.39.39,0,0,0,378.42,31.06Z" fill="#e52823"/><path d="M387.67,42.64a4.63,4.63,0,0,1-1.81-.34,4.11,4.11,0,0,1-1.41-1,4.25,4.25,0,0,1-.93-1.44,5,5,0,0,1-.33-1.83,4.87,4.87,0,0,1,.33-1.82,4.35,4.35,0,0,1,.93-1.44,4,4,0,0,1,1.41-1,4.64,4.64,0,0,1,1.81-.35,5.08,5.08,0,0,1,1.16.13,4,4,0,0,1,.92.34,3.45,3.45,0,0,1,.71.5,4.89,4.89,0,0,1,.54.58l-1.24,1.14a2.31,2.31,0,0,0-2-1,2.46,2.46,0,0,0-1.91.8,3,3,0,0,0-.72,2.08,3.57,3.57,0,0,0,.19,1.16,2.9,2.9,0,0,0,.54.92,2.52,2.52,0,0,0,1.9.82,2.32,2.32,0,0,0,2-1L391,41.09a4.22,4.22,0,0,1-1.26,1.08A4.07,4.07,0,0,1,387.67,42.64Z" fill="#e52823"/><path d="M398.79,42.42V41.24a3.71,3.71,0,0,1-1.21,1,3.32,3.32,0,0,1-1.58.38,3.7,3.7,0,0,1-1.53-.31,3.22,3.22,0,0,1-1.23-.9,4.17,4.17,0,0,1-.8-1.44,6,6,0,0,1-.29-1.92,5.86,5.86,0,0,1,.29-1.89,4.17,4.17,0,0,1,.8-1.44,3.4,3.4,0,0,1,1.22-.91,3.69,3.69,0,0,1,1.54-.32,3.37,3.37,0,0,1,2.79,1.43V33.73h1.9v8.69ZM396.56,41a2.5,2.5,0,0,0,.66-.09,2.89,2.89,0,0,0,.63-.26,2.58,2.58,0,0,0,.54-.37,1.88,1.88,0,0,0,.4-.45V36.36a2.09,2.09,0,0,0-.4-.45,2.62,2.62,0,0,0-.54-.38,2.85,2.85,0,0,0-.63-.25,2.5,2.5,0,0,0-.66-.09,2.38,2.38,0,0,0-1,.21,2.41,2.41,0,0,0-1.27,1.51,4,4,0,0,0,0,2.32,2.8,2.8,0,0,0,.49.92,2.31,2.31,0,0,0,1.8.82Z" fill="#e52823"/><path d="M405.76,42.64a2.2,2.2,0,0,1-1.67-.58,2.27,2.27,0,0,1-.56-1.67v-5h-1.44V33.73h1.44V31.35h1.89v2.38h1.76v1.64h-1.76v4.55a1.28,1.28,0,0,0,.21.75.69.69,0,0,0,.62.3,1.3,1.3,0,0,0,.49-.1.87.87,0,0,0,.33-.23l.45,1.44a1.91,1.91,0,0,1-.68.4A3.08,3.08,0,0,1,405.76,42.64Z" fill="#e52823"/><path d="M276.76,62.64a2.21,2.21,0,0,1-1.68-.58,2.31,2.31,0,0,1-.56-1.67v-5h-1.44V53.73h1.44V51.35h1.89v2.38h1.77v1.64h-1.77v4.55a1.28,1.28,0,0,0,.21.75.71.71,0,0,0,.62.3,1.35,1.35,0,0,0,.5-.1.87.87,0,0,0,.33-.23l.45,1.44a2.11,2.11,0,0,1-.68.4A3.08,3.08,0,0,1,276.76,62.64Z" fill="#e52823"/><path d="M283.81,62.64a4.49,4.49,0,0,1-1.87-.37,4,4,0,0,1-1.4-1,4.3,4.3,0,0,1-.89-1.45,5.12,5.12,0,0,1-.3-1.76,5.18,5.18,0,0,1,.3-1.77,4.26,4.26,0,0,1,.89-1.44,4,4,0,0,1,1.4-1,5,5,0,0,1,3.74,0,4.08,4.08,0,0,1,1.41,1A4.23,4.23,0,0,1,288,56.3a5.19,5.19,0,0,1,.31,1.77,5.13,5.13,0,0,1-.31,1.76,4.28,4.28,0,0,1-.88,1.45,4.08,4.08,0,0,1-1.41,1A4.46,4.46,0,0,1,283.81,62.64Zm0-1.67a2.32,2.32,0,0,0,1.08-.24,2.17,2.17,0,0,0,.78-.63,2.73,2.73,0,0,0,.48-.93,3.66,3.66,0,0,0,.16-1.1,3.61,3.61,0,0,0-.16-1.1,2.88,2.88,0,0,0-.48-.92,2.41,2.41,0,0,0-.78-.63,2.45,2.45,0,0,0-1.08-.23,2.3,2.3,0,0,0-1.85.86,2.71,2.71,0,0,0-.49.92,3.61,3.61,0,0,0-.16,1.1,3.66,3.66,0,0,0,.16,1.1,2.58,2.58,0,0,0,.49.93,2.21,2.21,0,0,0,.79.63A2.3,2.3,0,0,0,283.81,61Z" fill="#e52823"/><path d="M297.8,62.42l-2-6.37-2,6.37h-2l-2.7-8.69h2l1.84,6.32,2.07-6.32h1.67l2.05,6.32,1.84-6.32h2l-2.7,8.69Z" fill="#e52823"/><path d="M307.82,62.64a5.08,5.08,0,0,1-1.82-.32,4.16,4.16,0,0,1-1.44-.93,4.25,4.25,0,0,1-.95-1.45,4.9,4.9,0,0,1-.34-1.87,5,5,0,0,1,.32-1.78,4.32,4.32,0,0,1,4.09-2.78,4.16,4.16,0,0,1,1.76.36,3.79,3.79,0,0,1,1.35,1,4.22,4.22,0,0,1,.86,1.49,5.76,5.76,0,0,1,.3,1.89v.47h-6.7a2.94,2.94,0,0,0,.26.92,2.58,2.58,0,0,0,.56.76,2.39,2.39,0,0,0,.84.52,2.9,2.9,0,0,0,1.09.19,3.82,3.82,0,0,0,1.34-.25,3.21,3.21,0,0,0,1.15-.72l.86,1.24a4.44,4.44,0,0,1-1.58,1A6,6,0,0,1,307.82,62.64Zm2.31-5.29a2.49,2.49,0,0,0-.17-.78,2.31,2.31,0,0,0-1.2-1.29,2.77,2.77,0,0,0-2.14,0,2.33,2.33,0,0,0-.75.54,2.48,2.48,0,0,0-.46.74,2.31,2.31,0,0,0-.18.8Z" fill="#e52823"/><path d="M313.82,62.42V53.73h1.89V55A4.22,4.22,0,0,1,317,53.94a3.15,3.15,0,0,1,1.58-.43v1.88a2.5,2.5,0,0,0-1.21,0,4,4,0,0,0-.65.25,3.33,3.33,0,0,0-.57.38,2.24,2.24,0,0,0-.39.45v5.92Z" fill="#e52823"/><path d="M328.33,62.6a6.78,6.78,0,0,1-2.44-.6,6,6,0,0,1-1.76-1.25l1.19-1.64a5.79,5.79,0,0,0,1.27,1,4.5,4.5,0,0,0,1.74.6v-3.5c-.47-.12-.93-.25-1.38-.41a4.83,4.83,0,0,1-1.22-.62,3,3,0,0,1-.87-1,3,3,0,0,1-.33-1.47,3.17,3.17,0,0,1,.27-1.29,3.44,3.44,0,0,1,.76-1.07,3.85,3.85,0,0,1,1.2-.76,4.82,4.82,0,0,1,1.57-.37V48.6h1.44v1.67a6.92,6.92,0,0,1,2,.54,5.67,5.67,0,0,1,1.61,1.1l-1.18,1.57a4.15,4.15,0,0,0-1.15-.83,5.9,5.9,0,0,0-1.28-.45v3.11c.46.12.93.27,1.4.43a4.91,4.91,0,0,1,1.25.64,3.27,3.27,0,0,1,.9,1,3,3,0,0,1,.35,1.51,3.9,3.9,0,0,1-.23,1.32,3.43,3.43,0,0,1-.71,1.13,3.76,3.76,0,0,1-1.22.83,5.43,5.43,0,0,1-1.74.41v1.62h-1.44Zm-1.64-9a.94.94,0,0,0,.46.83,4.06,4.06,0,0,0,1.18.52V52.13a2.12,2.12,0,0,0-1.2.48A1.27,1.27,0,0,0,326.69,53.6Zm4.82,5.51a1.06,1.06,0,0,0-.49-.94,5,5,0,0,0-1.25-.57v3.13a2.09,2.09,0,0,0,1.34-.62A1.52,1.52,0,0,0,331.51,59.11Z" fill="#e52823"/><path d="M336.55,62.42l4.54-10.13h-6.23V50.42h8.66v1.46l-4.65,10.54Z" fill="#e52823"/><path d="M350.18,62.42V59.71h-5.73V58l4.94-7.59h2.89v7.41h1.61v1.88h-1.61v2.71Zm0-10.11-3.66,5.52h3.66Z" fill="#e52823"/><path d="M356.6,62.62a1.19,1.19,0,0,1-.89-.38,1.26,1.26,0,0,1-.37-.9,1.23,1.23,0,0,1,.37-.87,1.26,1.26,0,0,1,.89-.37,1.22,1.22,0,0,1,.89.37,1.19,1.19,0,0,1,.37.87,1.22,1.22,0,0,1-.37.9A1.16,1.16,0,0,1,356.6,62.62Z" fill="#e52823"/><path d="M363.61,62.62a4.91,4.91,0,0,1-2-.37,4.68,4.68,0,0,1-1.47-1l1-1.6a3.6,3.6,0,0,0,1,.78,3.21,3.21,0,0,0,1.44.28,2.78,2.78,0,0,0,1.41-.34,3.05,3.05,0,0,0,1-.9,3.86,3.86,0,0,0,.57-1.27,5.45,5.45,0,0,0,.19-1.45v-.17a1,1,0,0,0,0-.17,3.25,3.25,0,0,1-.54.6,4.54,4.54,0,0,1-.74.54,4.38,4.38,0,0,1-.91.39,4,4,0,0,1-1,.14,4.91,4.91,0,0,1-1.54-.24,3.64,3.64,0,0,1-1.27-.73,3.5,3.5,0,0,1-.88-1.21,4.24,4.24,0,0,1-.32-1.69,3.91,3.91,0,0,1,.31-1.56,3.76,3.76,0,0,1,.9-1.29,4,4,0,0,1,1.39-.86,5.09,5.09,0,0,1,1.83-.32,4.83,4.83,0,0,1,2.26.49,4.3,4.3,0,0,1,1.54,1.36,6,6,0,0,1,.87,2,10.12,10.12,0,0,1,.28,2.37,8.6,8.6,0,0,1-.34,2.43,5.92,5.92,0,0,1-1,2,4.91,4.91,0,0,1-1.66,1.33A5.16,5.16,0,0,1,363.61,62.62Zm.5-6.3a3.1,3.1,0,0,0,1.47-.38,3.61,3.61,0,0,0,1.16-1,5.1,5.1,0,0,0-.22-1A3,3,0,0,0,366,53a2.37,2.37,0,0,0-2-.93,2.81,2.81,0,0,0-1.05.19,2.38,2.38,0,0,0-.75.49,1.79,1.79,0,0,0-.46.67,1.83,1.83,0,0,0-.16.74,2.19,2.19,0,0,0,.2,1,1.78,1.78,0,0,0,.54.67,2.54,2.54,0,0,0,.79.39A3.67,3.67,0,0,0,364.11,56.32Z" fill="#e52823"/><path d="M374.42,62.62a4.94,4.94,0,0,1-2-.37,4.63,4.63,0,0,1-1.46-1l1-1.6a3.47,3.47,0,0,0,1,.78,3.2,3.2,0,0,0,1.43.28,2.84,2.84,0,0,0,1.42-.34,3.05,3.05,0,0,0,1-.9,4.08,4.08,0,0,0,.57-1.27,5.45,5.45,0,0,0,.19-1.45v-.17a1.11,1.11,0,0,0,0-.17,3.17,3.17,0,0,1-.53.6,4.54,4.54,0,0,1-.74.54,4.38,4.38,0,0,1-.91.39,4,4,0,0,1-1,.14,4.91,4.91,0,0,1-1.54-.24,3.78,3.78,0,0,1-1.28-.73,3.61,3.61,0,0,1-.87-1.21,4.24,4.24,0,0,1-.32-1.69,3.91,3.91,0,0,1,.31-1.56,3.87,3.87,0,0,1,.89-1.29,4.13,4.13,0,0,1,1.4-.86,5,5,0,0,1,1.83-.32,4.79,4.79,0,0,1,2.25.49,4.22,4.22,0,0,1,1.54,1.36,5.81,5.81,0,0,1,.88,2,10.12,10.12,0,0,1,.28,2.37,8.25,8.25,0,0,1-.35,2.43,5.72,5.72,0,0,1-1,2,4.91,4.91,0,0,1-1.66,1.33A5.18,5.18,0,0,1,374.42,62.62Zm.51-6.3a3,3,0,0,0,1.46-.38,3.65,3.65,0,0,0,1.17-1,5.1,5.1,0,0,0-.22-1,3,3,0,0,0-.48-.9,2.37,2.37,0,0,0-2-.93,2.79,2.79,0,0,0-1,.19,2.55,2.55,0,0,0-.76.49,2.06,2.06,0,0,0-.46.67,2,2,0,0,0-.15.74,2.19,2.19,0,0,0,.2,1,1.78,1.78,0,0,0,.54.67,2.54,2.54,0,0,0,.79.39A3.61,3.61,0,0,0,374.93,56.32Z" fill="#e52823"/></g><g id="REC"><rect width="728" height="90" fill="none"/></g></g></svg>