<svg xmlns="http://www.w3.org/2000/svg" viewBox="0 0 300 600"><title>cta</title><g id="Layer_2" data-name="Layer 2"><g id="rec"><rect width="300" height="600" fill="none"/></g><g id="cta"><g id="left"><rect x="16.08" y="182.6" width="160.19" height="33.51" rx="16.75" fill="#ed1c24"/><path d="M51.35,206.54a8.38,8.38,0,0,1-3.44-.64,7.31,7.31,0,0,1-2.42-1.65l1.42-2a6.84,6.84,0,0,0,1.89,1.4,5.7,5.7,0,0,0,2.66.61,4.32,4.32,0,0,0,1.33-.18,2.35,2.35,0,0,0,.88-.45,1.78,1.78,0,0,0,.5-.64,1.64,1.64,0,0,0,.16-.72,1.28,1.28,0,0,0-.61-1.15,6,6,0,0,0-1.56-.68q-.93-.28-2-.54a10,10,0,0,1-2-.71A4.39,4.39,0,0,1,46.58,198a3.34,3.34,0,0,1-.62-2.1,3.73,3.73,0,0,1,.38-1.67,4.14,4.14,0,0,1,1.06-1.34,5,5,0,0,1,1.65-.9,6.89,6.89,0,0,1,2.15-.32,8.26,8.26,0,0,1,3,.53,6.81,6.81,0,0,1,2.34,1.5l-1.42,1.87a5.54,5.54,0,0,0-1.95-1.26,6.6,6.6,0,0,0-2.23-.4,2.85,2.85,0,0,0-1.76.5,1.54,1.54,0,0,0-.66,1.29,1.16,1.16,0,0,0,.62,1,6.32,6.32,0,0,0,1.55.62c.62.18,1.3.35,2,.53a8.87,8.87,0,0,1,2,.76,4.43,4.43,0,0,1,1.55,1.29,3.44,3.44,0,0,1,.62,2.14,4.5,4.5,0,0,1-.33,1.72,3.76,3.76,0,0,1-1,1.42,4.74,4.74,0,0,1-1.73,1A7.83,7.83,0,0,1,51.35,206.54Z" fill="#fff"/><path d="M66.21,206.28v-6.56a2.07,2.07,0,0,0-.56-1.67,2.42,2.42,0,0,0-1.53-.44,3.05,3.05,0,0,0-1.59.43,3.93,3.93,0,0,0-1.08,1v7.29H59.18V191.9h2.27v5.37a4.61,4.61,0,0,1,.63-.61,5,5,0,0,1,.84-.54,5.12,5.12,0,0,1,1-.37,4.37,4.37,0,0,1,1.17-.14,3.42,3.42,0,0,1,2.52.84,3.33,3.33,0,0,1,.84,2.46v7.37Z" fill="#fff"/><path d="M76.13,206.54a5.49,5.49,0,0,1-2.24-.44,5,5,0,0,1-2.74-2.93,6.2,6.2,0,0,1,0-4.22,5.13,5.13,0,0,1,1-1.74A5,5,0,0,1,73.89,196a6,6,0,0,1,4.48,0,5.07,5.07,0,0,1,1.68,1.17A5.32,5.32,0,0,1,81.11,199a6.2,6.2,0,0,1,0,4.22,5.22,5.22,0,0,1-1.06,1.74,5.12,5.12,0,0,1-1.68,1.19A5.53,5.53,0,0,1,76.13,206.54Zm0-2a2.79,2.79,0,0,0,1.29-.28,2.67,2.67,0,0,0,.94-.75,3.43,3.43,0,0,0,.57-1.11,4.56,4.56,0,0,0,.2-1.33,4.33,4.33,0,0,0-.2-1.31,3.28,3.28,0,0,0-.57-1.1,2.7,2.7,0,0,0-.94-.76,2.92,2.92,0,0,0-1.29-.28,2.86,2.86,0,0,0-1.27.28,2.83,2.83,0,0,0-1,.76,3.13,3.13,0,0,0-.58,1.1,4.33,4.33,0,0,0-.2,1.31,4.56,4.56,0,0,0,.2,1.33,3.27,3.27,0,0,0,.58,1.11,2.8,2.8,0,0,0,1,.75A2.73,2.73,0,0,0,76.13,204.53Z" fill="#fff"/><path d="M89.39,206.54a4,4,0,0,1-1.85-.44,4.7,4.7,0,0,1-1.49-1.27v5.42H83.78V195.87h2.27v1.42a4.17,4.17,0,0,1,1.44-1.23,4.06,4.06,0,0,1,1.9-.45,4.66,4.66,0,0,1,1.85.36A4.15,4.15,0,0,1,92.7,197a5.07,5.07,0,0,1,1,1.71,8,8,0,0,1,0,4.62,5,5,0,0,1-1,1.71,4.18,4.18,0,0,1-1.46,1.08A4.5,4.5,0,0,1,89.39,206.54Zm-.67-2a2.65,2.65,0,0,0,2.16-1,4.33,4.33,0,0,0,0-5,2.67,2.67,0,0,0-2.16-1,3.16,3.16,0,0,0-1.54.4,3,3,0,0,0-1.13,1v4.12a2.8,2.8,0,0,0,.48.56,3.75,3.75,0,0,0,.65.45,3.46,3.46,0,0,0,.75.3A2.74,2.74,0,0,0,88.72,204.53Z" fill="#fff"/><path d="M111.92,206.28,104.42,196v10.29h-2.53V191.9h2.59l7.35,10v-10h2.53v14.38Z" fill="#fff"/><path d="M122.07,206.54a5.53,5.53,0,0,1-2.24-.44,5.12,5.12,0,0,1-1.68-1.19,5.22,5.22,0,0,1-1.06-1.74,6.36,6.36,0,0,1,0-4.22,5.32,5.32,0,0,1,1.06-1.74,5.07,5.07,0,0,1,1.68-1.17,6.08,6.08,0,0,1,4.49,0,5.07,5.07,0,0,1,1.68,1.17,5.32,5.32,0,0,1,1.06,1.74,6.36,6.36,0,0,1,0,4.22,5.22,5.22,0,0,1-1.06,1.74,5.12,5.12,0,0,1-1.68,1.19A5.54,5.54,0,0,1,122.07,206.54Zm0-2a2.77,2.77,0,0,0,2.24-1,3.43,3.43,0,0,0,.57-1.11,4.55,4.55,0,0,0,.19-1.33,4.32,4.32,0,0,0-.19-1.31,3.28,3.28,0,0,0-.57-1.1,2.89,2.89,0,0,0-.94-.76,3,3,0,0,0-1.3-.28,2.77,2.77,0,0,0-2.22,1,3.3,3.3,0,0,0-.58,1.1,4.32,4.32,0,0,0-.19,1.31,4.55,4.55,0,0,0,.19,1.33,3.45,3.45,0,0,0,.58,1.11,2.9,2.9,0,0,0,1,.75A2.79,2.79,0,0,0,122.07,204.53Z" fill="#fff"/><path d="M138.83,206.28l-2.44-7.63L134,206.28H131.6l-3.23-10.41h2.35l2.2,7.56,2.48-7.56h2l2.46,7.56,2.2-7.56h2.37l-3.23,10.41Z" fill="#fff"/></g></g></g></svg>