<svg xmlns="http://www.w3.org/2000/svg" viewBox="0 0 300 600"><title>subhead</title><g id="Layer_2" data-name="Layer 2"><g id="rec"><rect width="300" height="600" fill="none"/></g><g id="Layer_5" data-name="Layer 5"><g id="art1"><path d="M28.66,129.86a7.44,7.44,0,0,1-3.3-.68,6.11,6.11,0,0,1-2.13-1.65l1.38-1.66a4.81,4.81,0,0,0,1.74,1.28,5.49,5.49,0,0,0,2.22.46,3.56,3.56,0,0,0,2.21-.6,1.9,1.9,0,0,0,.79-1.6,1.67,1.67,0,0,0-.82-1.56,4.74,4.74,0,0,0-2.37-.48h-1a4.91,4.91,0,0,0-.68,0V121.1h1.64a6.29,6.29,0,0,0,1.19-.1,3.1,3.1,0,0,0,.93-.35,1.71,1.71,0,0,0,.63-.59,1.53,1.53,0,0,0,.22-.84,1.66,1.66,0,0,0-.22-.87,1.78,1.78,0,0,0-.63-.62,3.07,3.07,0,0,0-.92-.38,5.17,5.17,0,0,0-1.14-.13,5,5,0,0,0-3.73,1.6l-1.29-1.58a6.45,6.45,0,0,1,2.15-1.62,6.93,6.93,0,0,1,3.11-.64,7.66,7.66,0,0,1,2.11.27,5,5,0,0,1,1.63.76,3.49,3.49,0,0,1,1.06,1.21,3.39,3.39,0,0,1,.38,1.61,3,3,0,0,1-.28,1.31,3.22,3.22,0,0,1-.73,1,3.58,3.58,0,0,1-1,.67,4.38,4.38,0,0,1-1.1.35,4.13,4.13,0,0,1,1.1.3,4,4,0,0,1,1.09.67,3.49,3.49,0,0,1,.83,1.06,3.05,3.05,0,0,1,.32,1.46,3.82,3.82,0,0,1-.37,1.7,4.07,4.07,0,0,1-1.09,1.33,5.45,5.45,0,0,1-1.72.87A7.5,7.5,0,0,1,28.66,129.86Z" fill="#ed1c24"/><path d="M41.75,129.86a5,5,0,0,1-2.62-.66,5.42,5.42,0,0,1-1.78-1.72,7.87,7.87,0,0,1-1-2.38,11.09,11.09,0,0,1,0-5.37,8,8,0,0,1,1-2.38,5.36,5.36,0,0,1,1.78-1.7,5.57,5.57,0,0,1,5.22,0,5.43,5.43,0,0,1,1.77,1.7,7.74,7.74,0,0,1,1,2.38,11.09,11.09,0,0,1,0,5.37,7.63,7.63,0,0,1-1,2.38,5.49,5.49,0,0,1-1.77,1.72A5,5,0,0,1,41.75,129.86Zm0-2.25a2.48,2.48,0,0,0,1.47-.43,3.23,3.23,0,0,0,1-1.14,6,6,0,0,0,.53-1.65,10.46,10.46,0,0,0,.18-2,12.6,12.6,0,0,0-.16-2,5.71,5.71,0,0,0-.54-1.65,3.28,3.28,0,0,0-1-1.13,2.85,2.85,0,0,0-3,0,3.18,3.18,0,0,0-1,1.13,5.72,5.72,0,0,0-.55,1.65,10.58,10.58,0,0,0-.17,2,10.47,10.47,0,0,0,.17,2,5.72,5.72,0,0,0,.55,1.65,3.3,3.3,0,0,0,1,1.14A2.48,2.48,0,0,0,41.75,127.61Z" fill="#ed1c24"/><path d="M52.57,122.14a3.75,3.75,0,0,1-1.45-.27,3.31,3.31,0,0,1-1.14-.76,3.44,3.44,0,0,1-.73-1.13,3.79,3.79,0,0,1-.26-1.4,3.84,3.84,0,0,1,.26-1.41A3.52,3.52,0,0,1,50,116a3.43,3.43,0,0,1,1.14-.75,3.75,3.75,0,0,1,1.45-.27,3.92,3.92,0,0,1,1.47.27,3.29,3.29,0,0,1,1.13.75,3.5,3.5,0,0,1,.72,1.15,3.84,3.84,0,0,1,.26,1.41,3.79,3.79,0,0,1-.26,1.4,3.41,3.41,0,0,1-.72,1.13,3.17,3.17,0,0,1-1.13.76A3.92,3.92,0,0,1,52.57,122.14Zm0-1.45a1.79,1.79,0,0,0,1.38-.58,2.19,2.19,0,0,0,.54-1.54A2.23,2.23,0,0,0,54,117a1.77,1.77,0,0,0-1.38-.6,1.75,1.75,0,0,0-1.36.6,2.23,2.23,0,0,0-.54,1.57,2.19,2.19,0,0,0,.54,1.54A1.76,1.76,0,0,0,52.57,120.69Zm-1.4,8.91,9.18-14.38h1.47L52.61,129.6Zm9.14.26a3.75,3.75,0,0,1-1.45-.27,3.31,3.31,0,0,1-1.14-.76,3.39,3.39,0,0,1-.73-1.12,3.79,3.79,0,0,1-.26-1.4A3.88,3.88,0,0,1,57,124.9a3.38,3.38,0,0,1,.73-1.14,3.43,3.43,0,0,1,1.14-.75,3.75,3.75,0,0,1,1.45-.27,3.83,3.83,0,0,1,1.46.27,3.29,3.29,0,0,1,1.86,1.89,3.88,3.88,0,0,1,.26,1.41,3.79,3.79,0,0,1-.26,1.4,3.39,3.39,0,0,1-.73,1.12,3.26,3.26,0,0,1-1.13.76A3.83,3.83,0,0,1,60.31,129.86Zm0-1.45a1.79,1.79,0,0,0,1.38-.58,2.17,2.17,0,0,0,.54-1.53,2.25,2.25,0,0,0-.54-1.57,1.91,1.91,0,0,0-2.76,0,2.25,2.25,0,0,0-.54,1.57,2.17,2.17,0,0,0,.54,1.53A1.79,1.79,0,0,0,60.31,128.41Z" fill="#ed1c24"/><path d="M76.24,129.86a5.37,5.37,0,0,1-2.24-.45,5.09,5.09,0,0,1-1.68-1.18,5.32,5.32,0,0,1-1.06-1.74,6.36,6.36,0,0,1,0-4.22,5.22,5.22,0,0,1,1.06-1.74A5,5,0,0,1,74,119.35a6.08,6.08,0,0,1,4.49,0,5,5,0,0,1,1.68,1.18,5.22,5.22,0,0,1,1.06,1.74,6.36,6.36,0,0,1,0,4.22,5.32,5.32,0,0,1-1.06,1.74,5.09,5.09,0,0,1-1.68,1.18A5.38,5.38,0,0,1,76.24,129.86Zm0-2a2.86,2.86,0,0,0,1.3-.28,3,3,0,0,0,.94-.75,3.43,3.43,0,0,0,.57-1.11,4.55,4.55,0,0,0,.19-1.33,4.44,4.44,0,0,0-.19-1.32,3.49,3.49,0,0,0-.57-1.1,3,3,0,0,0-.94-.75,2.86,2.86,0,0,0-1.3-.28,2.79,2.79,0,0,0-1.27.28,3,3,0,0,0-1,.75,3.51,3.51,0,0,0-.58,1.1,4.44,4.44,0,0,0-.19,1.32,4.55,4.55,0,0,0,.19,1.33,3.45,3.45,0,0,0,.58,1.11,3,3,0,0,0,1,.75A2.79,2.79,0,0,0,76.24,127.85Z" fill="#ed1c24"/><path d="M84.46,129.6v-8.46H82.73v-2h1.73v-.58a3.6,3.6,0,0,1,.93-2.67,3.16,3.16,0,0,1,2.35-.93,3.79,3.79,0,0,1,1.83.39l-.5,1.7a1.59,1.59,0,0,0-.9-.24,1.34,1.34,0,0,0-1.07.44,1.93,1.93,0,0,0-.38,1.31v.58h2.12v2H86.72v8.46Z" fill="#ed1c24"/><path d="M91.12,129.6v-8.46H89.4v-2h1.72v-.58a3.6,3.6,0,0,1,.93-2.67A3.18,3.18,0,0,1,94.4,115a3.76,3.76,0,0,1,1.83.39l-.49,1.7a1.65,1.65,0,0,0-.91-.24,1.34,1.34,0,0,0-1.07.44,1.93,1.93,0,0,0-.37,1.31v.58H95.5v2H93.39v8.46Z" fill="#ed1c24"/><path d="M110.12,129.6v-1.43a4.53,4.53,0,0,1-1.46,1.23,4,4,0,0,1-1.89.46,4.69,4.69,0,0,1-1.84-.37,4,4,0,0,1-1.47-1.08,5.1,5.1,0,0,1-.95-1.72,6.92,6.92,0,0,1-.35-2.31,6.8,6.8,0,0,1,.35-2.27,5.1,5.1,0,0,1,.95-1.72,4.21,4.21,0,0,1,1.46-1.09,4.5,4.5,0,0,1,1.85-.38,4.2,4.2,0,0,1,1.86.43,4.31,4.31,0,0,1,1.49,1.28v-1.45h2.26V129.6Zm-2.68-1.75a3.13,3.13,0,0,0,.79-.11,3.09,3.09,0,0,0,.75-.3,3.89,3.89,0,0,0,.65-.44,2.52,2.52,0,0,0,.49-.55v-4.12a2.72,2.72,0,0,0-.49-.54,3.41,3.41,0,0,0-.65-.45,3.09,3.09,0,0,0-.75-.3,2.74,2.74,0,0,0-.79-.11,2.85,2.85,0,0,0-1.23.26,2.78,2.78,0,0,0-.92.71,3.1,3.1,0,0,0-.6,1.09,4.93,4.93,0,0,0,0,2.78,3.34,3.34,0,0,0,.6,1.1,2.68,2.68,0,0,0,.92.72A2.85,2.85,0,0,0,107.44,127.85Z" fill="#ed1c24"/><path d="M118,129.86a2.68,2.68,0,0,1-2-.69,2.76,2.76,0,0,1-.68-2V115.22h2.27V126.6a1.53,1.53,0,0,0,.24.89.86.86,0,0,0,.75.36,1.53,1.53,0,0,0,.6-.12,1,1,0,0,0,.41-.27l.54,1.73a2.53,2.53,0,0,1-.82.47A3.72,3.72,0,0,1,118,129.86Z" fill="#ed1c24"/><path d="M124.15,129.86a2.67,2.67,0,0,1-2-.69,2.76,2.76,0,0,1-.68-2V115.22h2.26V126.6a1.53,1.53,0,0,0,.25.89.84.84,0,0,0,.74.36,1.54,1.54,0,0,0,.61-.12,1.21,1.21,0,0,0,.41-.27l.54,1.73a2.64,2.64,0,0,1-.82.47A3.82,3.82,0,0,1,124.15,129.86Z" fill="#ed1c24"/><path d="M140,129.88a7.69,7.69,0,0,1-2.83-.53,7,7,0,0,1-2.34-1.51,7.25,7.25,0,0,1-1.58-2.36,7.76,7.76,0,0,1-.58-3.06,7.62,7.62,0,0,1,.59-3.08,7.06,7.06,0,0,1,1.62-2.34,7.26,7.26,0,0,1,2.39-1.49,7.91,7.91,0,0,1,2.94-.53,7.23,7.23,0,0,1,1.93.24,6.85,6.85,0,0,1,1.59.63,6,6,0,0,1,1.27,1,9.58,9.58,0,0,1,1,1.15l-2.05,1.19a4.6,4.6,0,0,0-1.55-1.37,4.31,4.31,0,0,0-2.18-.55,4.93,4.93,0,0,0-2,.39,4.74,4.74,0,0,0-1.56,1.08,5,5,0,0,0-1,1.64,5.69,5.69,0,0,0-.38,2.1,5.56,5.56,0,0,0,.38,2.07,5,5,0,0,0,1,1.65,4.65,4.65,0,0,0,1.56,1.1,4.92,4.92,0,0,0,2,.38,4.39,4.39,0,0,0,1.63-.28,3.72,3.72,0,0,0,1.24-.77,3.86,3.86,0,0,0,.85-1.14,5.15,5.15,0,0,0,.49-1.36h-5.11v-2.25h7.85a10.68,10.68,0,0,1-.49,3.32,7.14,7.14,0,0,1-1.4,2.53A6.18,6.18,0,0,1,143,129.3,7.48,7.48,0,0,1,140,129.88Z" fill="#ed1c24"/><path d="M148.67,129.6V119.18h2.26v1.51a5.23,5.23,0,0,1,1.49-1.26,3.73,3.73,0,0,1,1.9-.51v2.25a2.93,2.93,0,0,0-.69-.07,3,3,0,0,0-.77.11,3.92,3.92,0,0,0-.78.3,3.57,3.57,0,0,0-.67.45,2.59,2.59,0,0,0-.48.54v7.1Z" fill="#ed1c24"/><path d="M156.15,129.6V119.18h2.26v1.51a5.37,5.37,0,0,1,1.49-1.26,3.73,3.73,0,0,1,1.9-.51v2.25a2.87,2.87,0,0,0-.69-.07,3,3,0,0,0-.77.11,3.83,3.83,0,0,0-.77.3,3.34,3.34,0,0,0-.68.45,2.91,2.91,0,0,0-.48.54v7.1Z" fill="#ed1c24"/><path d="M168.46,129.86a6,6,0,0,1-2.19-.39,4.92,4.92,0,0,1-2.85-2.85,5.77,5.77,0,0,1-.42-2.24,5.84,5.84,0,0,1,.39-2.13,5.24,5.24,0,0,1,1.09-1.73,5.15,5.15,0,0,1,3.81-1.6,5.16,5.16,0,0,1,2.11.42,4.77,4.77,0,0,1,1.62,1.18,5.33,5.33,0,0,1,1,1.79,6.82,6.82,0,0,1,.36,2.26v.56h-8a3.16,3.16,0,0,0,.31,1.1,3,3,0,0,0,.67.92,2.91,2.91,0,0,0,1,.62,3.45,3.45,0,0,0,1.32.23,4.64,4.64,0,0,0,1.59-.3,3.72,3.72,0,0,0,1.38-.86l1,1.48a5.32,5.32,0,0,1-1.9,1.15A6.91,6.91,0,0,1,168.46,129.86Zm2.76-6.34a2.71,2.71,0,0,0-.21-.94,2.65,2.65,0,0,0-1.43-1.54,2.92,2.92,0,0,0-1.31-.26A2.85,2.85,0,0,0,167,121a2.72,2.72,0,0,0-.9.64,2.94,2.94,0,0,0-.55.89,2.77,2.77,0,0,0-.21,1Z" fill="#ed1c24"/><path d="M183,129.6v-1.43a4.49,4.49,0,0,1-1.45,1.23,4,4,0,0,1-1.89.46,4.65,4.65,0,0,1-1.84-.37,4,4,0,0,1-1.47-1.08,5.12,5.12,0,0,1-1-1.72,7.19,7.19,0,0,1-.35-2.31,7.07,7.07,0,0,1,.35-2.27,5.12,5.12,0,0,1,1-1.72,4.17,4.17,0,0,1,1.45-1.09,4.51,4.51,0,0,1,1.86-.38,4.16,4.16,0,0,1,1.85.43,4.22,4.22,0,0,1,1.49,1.28v-1.45h2.26V129.6Zm-2.67-1.75a3,3,0,0,0,.78-.11,3.34,3.34,0,0,0,.76-.3,4.35,4.35,0,0,0,.65-.44,2.75,2.75,0,0,0,.48-.55v-4.12a3,3,0,0,0-.48-.54,3.75,3.75,0,0,0-.65-.45,3.34,3.34,0,0,0-.76-.3,2.63,2.63,0,0,0-.78-.11,2.85,2.85,0,0,0-1.23.26,2.81,2.81,0,0,0-.93.71,2.94,2.94,0,0,0-.59,1.09,4.71,4.71,0,0,0,0,2.78,3.15,3.15,0,0,0,.59,1.1,2.71,2.71,0,0,0,.93.72A2.85,2.85,0,0,0,180.3,127.85Z" fill="#ed1c24"/><path d="M191.32,129.86a2.68,2.68,0,0,1-2-.69,2.76,2.76,0,0,1-.67-2v-6h-1.72v-2h1.72v-2.84h2.27v2.84H193v2h-2.11v5.46a1.53,1.53,0,0,0,.24.89.86.86,0,0,0,.75.36,1.45,1.45,0,0,0,.59-.12,1.16,1.16,0,0,0,.4-.27l.54,1.73a2.64,2.64,0,0,1-.82.47A3.72,3.72,0,0,1,191.32,129.86Z" fill="#ed1c24"/><path d="M207.59,129.86a8.08,8.08,0,0,1-3-.54,7,7,0,0,1-4-3.87,8.2,8.2,0,0,1,0-6.06,7,7,0,0,1,4-3.87,8.08,8.08,0,0,1,3-.54,6.76,6.76,0,0,1,2,.26,6.19,6.19,0,0,1,1.59.7,5.74,5.74,0,0,1,1.26,1,7.17,7.17,0,0,1,.94,1.23l-2.13,1.12a4.28,4.28,0,0,0-1.49-1.5,4.08,4.08,0,0,0-2.14-.59,5,5,0,0,0-2,.39,4.74,4.74,0,0,0-1.56,1.08,4.94,4.94,0,0,0-1,1.64,5.88,5.88,0,0,0,0,4.16,5.2,5.2,0,0,0,1,1.65,4.77,4.77,0,0,0,1.56,1.09,5.14,5.14,0,0,0,2,.38,4,4,0,0,0,2.14-.59,4.2,4.2,0,0,0,1.49-1.5l2.15,1.08a8.43,8.43,0,0,1-1,1.24,5.78,5.78,0,0,1-1.26,1,6.59,6.59,0,0,1-1.59.72A6.75,6.75,0,0,1,207.59,129.86Z" fill="#ed1c24"/><path d="M222.36,129.6V123a2,2,0,0,0-.56-1.67,2.42,2.42,0,0,0-1.53-.44,2.9,2.9,0,0,0-1.58.43,3.82,3.82,0,0,0-1.09,1v7.29h-2.27V115.22h2.27v5.36a4.57,4.57,0,0,1,.63-.6,5.59,5.59,0,0,1,.85-.54,4.81,4.81,0,0,1,1-.38,4.93,4.93,0,0,1,1.17-.14,3.45,3.45,0,0,1,2.53.84,3.35,3.35,0,0,1,.84,2.46v7.38Z" fill="#ed1c24"/><path d="M232.28,129.86a5.37,5.37,0,0,1-2.24-.45,5.09,5.09,0,0,1-1.68-1.18,5.32,5.32,0,0,1-1.06-1.74,6.2,6.2,0,0,1,0-4.22,5.22,5.22,0,0,1,1.06-1.74,5,5,0,0,1,1.68-1.18,6,6,0,0,1,4.48,0,4.9,4.9,0,0,1,1.69,1.18,5,5,0,0,1,1,1.74,6.2,6.2,0,0,1,0,4.22,5.13,5.13,0,0,1-1,1.74,5,5,0,0,1-1.69,1.18A5.33,5.33,0,0,1,232.28,129.86Zm0-2a2.73,2.73,0,0,0,2.23-1,3.25,3.25,0,0,0,.57-1.11,4.56,4.56,0,0,0,.2-1.33,4.44,4.44,0,0,0-.2-1.32,3.29,3.29,0,0,0-.57-1.1,2.73,2.73,0,0,0-2.23-1,2.76,2.76,0,0,0-1.27.28,3,3,0,0,0-.95.75,3.31,3.31,0,0,0-.58,1.1,4.44,4.44,0,0,0-.19,1.32,4.55,4.55,0,0,0,.19,1.33,3.27,3.27,0,0,0,.58,1.11,3,3,0,0,0,.95.75A2.76,2.76,0,0,0,232.28,127.85Z" fill="#ed1c24"/><path d="M241.08,117.91a1.35,1.35,0,0,1-1-.41,1.4,1.4,0,0,1,2-2,1.4,1.4,0,0,1-1,2.39Zm-1.14,11.69V119.18h2.26V129.6Z" fill="#ed1c24"/><path d="M249.88,129.86a5.59,5.59,0,0,1-2.17-.41,5.12,5.12,0,0,1-2.8-2.88,5.8,5.8,0,0,1-.4-2.19,5.72,5.72,0,0,1,.4-2.18,5.15,5.15,0,0,1,2.8-2.87,5.59,5.59,0,0,1,2.17-.41,5.92,5.92,0,0,1,1.39.15,5.47,5.47,0,0,1,1.1.41,4.46,4.46,0,0,1,.85.6,4.66,4.66,0,0,1,.64.7l-1.48,1.36a2.79,2.79,0,0,0-2.4-1.21,2.92,2.92,0,0,0-2.28,1,3.56,3.56,0,0,0-.86,2.49,4.14,4.14,0,0,0,.22,1.39,3.27,3.27,0,0,0,.65,1.1,2.94,2.94,0,0,0,1,.72,3.11,3.11,0,0,0,1.28.26,2.8,2.8,0,0,0,2.4-1.25l1.48,1.4a5,5,0,0,1-1.5,1.29A4.79,4.79,0,0,1,249.88,129.86Z" fill="#ed1c24"/><path d="M260.7,129.86a6,6,0,0,1-2.19-.39,4.91,4.91,0,0,1-1.72-1.11,5.11,5.11,0,0,1-1.14-1.74,6,6,0,0,1-.41-2.24,5.84,5.84,0,0,1,.39-2.13,5.24,5.24,0,0,1,1.09-1.73,5.15,5.15,0,0,1,3.81-1.6,5.16,5.16,0,0,1,2.11.42,4.77,4.77,0,0,1,1.62,1.18,5.33,5.33,0,0,1,1,1.79,6.82,6.82,0,0,1,.36,2.26v.56h-8a3.16,3.16,0,0,0,.31,1.1,3,3,0,0,0,.67.92,2.91,2.91,0,0,0,1,.62,3.45,3.45,0,0,0,1.32.23,4.64,4.64,0,0,0,1.59-.3,3.72,3.72,0,0,0,1.38-.86l1,1.48a5.2,5.2,0,0,1-1.89,1.15A7,7,0,0,1,260.7,129.86Zm2.76-6.34a3,3,0,0,0-.21-.94,2.73,2.73,0,0,0-1.43-1.54,3.36,3.36,0,0,0-2.57,0,2.78,2.78,0,0,0-.89.64,2.94,2.94,0,0,0-.55.89,3,3,0,0,0-.22,1Z" fill="#ed1c24"/><path d="M268.29,121.93v-4.59h-1.65v-.85h4.25v.85h-1.65v4.59Z" fill="#ed1c24"/><path d="M276.42,121.93v-4.2l-1.67,4.2h-.4l-1.68-4.2v4.2h-.95v-5.44h1.34l1.49,3.74,1.48-3.74h1.34v5.44Z" fill="#ed1c24"/><path d="M23,159.7a4.35,4.35,0,0,1-1.41-.19,4.2,4.2,0,0,1-1-.57l.67-1.68a3.14,3.14,0,0,0,.63.42,1.74,1.74,0,0,0,.81.16,1.5,1.5,0,0,0,1.11-.42,1.81,1.81,0,0,0,.43-1.35v-11h2.26v11a3.88,3.88,0,0,1-.85,2.66A3.31,3.31,0,0,1,23,159.7Zm2.33-15.92a1.4,1.4,0,0,1-1-2.39,1.4,1.4,0,0,1,2,2A1.31,1.31,0,0,1,25.32,143.78Z" fill="#ed1c24"/><path d="M34.2,155.73a6,6,0,0,1-2.19-.39,4.91,4.91,0,0,1-1.72-1.11,5.09,5.09,0,0,1-1.13-1.74,5.77,5.77,0,0,1-.41-2.24,6,6,0,0,1,.38-2.12,5.09,5.09,0,0,1,2.76-2.9,5.53,5.53,0,0,1,4.25,0,4.74,4.74,0,0,1,1.62,1.17,5.26,5.26,0,0,1,1,1.79,6.88,6.88,0,0,1,.36,2.27V151h-8a3.47,3.47,0,0,0,.31,1.1,3.16,3.16,0,0,0,.67.91,2.94,2.94,0,0,0,1,.63,3.66,3.66,0,0,0,1.32.22,4.6,4.6,0,0,0,1.59-.3,3.72,3.72,0,0,0,1.38-.86l1,1.49a5.36,5.36,0,0,1-1.9,1.14A6.91,6.91,0,0,1,34.2,155.73ZM37,149.39a2.94,2.94,0,0,0-.74-1.82,2.77,2.77,0,0,0-.9-.66,3.06,3.06,0,0,0-1.31-.26,2.88,2.88,0,0,0-1.25.25,2.61,2.61,0,0,0-.9.65,2.89,2.89,0,0,0-.55.88,2.77,2.77,0,0,0-.21,1Z" fill="#ed1c24"/><path d="M41.38,155.47V145.06h2.26v1.51a5.24,5.24,0,0,1,1.49-1.27,3.83,3.83,0,0,1,1.9-.5V147a3.54,3.54,0,0,0-.69-.06,3.07,3.07,0,0,0-.77.1,4.54,4.54,0,0,0-.77.3,3.68,3.68,0,0,0-.68.46,2.39,2.39,0,0,0-.48.54v7.09Z" fill="#ed1c24"/><path d="M55.76,155.47l-3.17-4.31-1.46,1.51v2.8H48.86V141.09h2.27v9l4.59-5h2.8l-4.31,4.72,4.4,5.69Z" fill="#ed1c24"/><path d="M64.32,159.7a6.7,6.7,0,0,1-2.33-.38,5.51,5.51,0,0,1-1.87-1.18l1.05-1.63a3.2,3.2,0,0,0,1.41,1,4.91,4.91,0,0,0,1.74.31,3,3,0,0,0,2.16-.74,2.83,2.83,0,0,0,.77-2.15v-1.2a5.65,5.65,0,0,1-1.49,1.13,4.48,4.48,0,0,1-2.17.5,3.38,3.38,0,0,1-2.52-.85,3.34,3.34,0,0,1-.84-2.45v-7h2.26v6.18a2.07,2.07,0,0,0,.57,1.68,2.43,2.43,0,0,0,1.54.46,3,3,0,0,0,1.57-.42,3.61,3.61,0,0,0,1.08-.94v-7h2.27V155a5.08,5.08,0,0,1-.39,2.06A4,4,0,0,1,68,158.5a4.86,4.86,0,0,1-1.65.89A6.51,6.51,0,0,1,64.32,159.7Z" fill="#ed1c24"/><path d="M81.16,155.73a2.65,2.65,0,0,1-2-.69,2.76,2.76,0,0,1-.67-2v-6H76.76v-2h1.73v-2.85h2.26v2.85h2.11v2H80.75v5.45a1.52,1.52,0,0,0,.25.9.85.85,0,0,0,.74.35,1.46,1.46,0,0,0,.6-.12.92.92,0,0,0,.39-.26l.54,1.72a2.21,2.21,0,0,1-.82.47A3.64,3.64,0,0,1,81.16,155.73Z" fill="#ed1c24"/><path d="M84.89,155.47V145.06h2.26v1.51a5.24,5.24,0,0,1,1.49-1.27,3.83,3.83,0,0,1,1.9-.5V147a3.54,3.54,0,0,0-.69-.06,3,3,0,0,0-.77.1,4.54,4.54,0,0,0-.77.3,3.68,3.68,0,0,0-.68.46,2.39,2.39,0,0,0-.48.54v7.09Z" fill="#ed1c24"/><path d="M97.2,155.73a6,6,0,0,1-2.19-.39,4.91,4.91,0,0,1-1.72-1.11,5.09,5.09,0,0,1-1.13-1.74,5.77,5.77,0,0,1-.41-2.24,6,6,0,0,1,.38-2.12,5.09,5.09,0,0,1,2.76-2.9,5.53,5.53,0,0,1,4.25,0,4.74,4.74,0,0,1,1.62,1.17,5.26,5.26,0,0,1,1,1.79,6.88,6.88,0,0,1,.36,2.27V151h-8a3.47,3.47,0,0,0,.31,1.1,3.16,3.16,0,0,0,.67.91,2.94,2.94,0,0,0,1,.63,3.66,3.66,0,0,0,1.32.22,4.6,4.6,0,0,0,1.59-.3,3.72,3.72,0,0,0,1.38-.86l1,1.49a5.36,5.36,0,0,1-1.9,1.14A6.91,6.91,0,0,1,97.2,155.73Zm2.76-6.34a3.05,3.05,0,0,0-.2-.94,2.86,2.86,0,0,0-.54-.88,2.77,2.77,0,0,0-.9-.66,3.06,3.06,0,0,0-1.31-.26,2.88,2.88,0,0,0-1.25.25,2.61,2.61,0,0,0-.9.65,2.89,2.89,0,0,0-.55.88,2.77,2.77,0,0,0-.21,1Z" fill="#ed1c24"/><path d="M111.71,155.47v-1.42a4.76,4.76,0,0,1-1.45,1.23,4,4,0,0,1-1.89.45,4.48,4.48,0,0,1-1.84-.37,3.9,3.9,0,0,1-1.47-1.08,5,5,0,0,1-1-1.72,7.19,7.19,0,0,1-.34-2.31,7,7,0,0,1,.34-2.26,5.17,5.17,0,0,1,1-1.73,4.34,4.34,0,0,1,1.46-1.09,4.46,4.46,0,0,1,1.85-.37,4,4,0,0,1,1.85.43,4.19,4.19,0,0,1,1.49,1.27v-1.44H114v10.41ZM109,153.72a3.11,3.11,0,0,0,.79-.1,4.09,4.09,0,0,0,.75-.31,3.71,3.71,0,0,0,.65-.44,2.5,2.5,0,0,0,.48-.55V148.2a3.46,3.46,0,0,0-1.13-1,3.46,3.46,0,0,0-.75-.3,3.13,3.13,0,0,0-.79-.11,2.85,2.85,0,0,0-1.23.26,2.81,2.81,0,0,0-.93.71,3.18,3.18,0,0,0-.59,1.09,4.45,4.45,0,0,0-.21,1.39,4.36,4.36,0,0,0,.21,1.39,3.22,3.22,0,0,0,.59,1.1,2.72,2.72,0,0,0,2.16,1Z" fill="#ed1c24"/><path d="M120.06,155.73a2.68,2.68,0,0,1-2-.69,2.76,2.76,0,0,1-.67-2v-6h-1.72v-2h1.72v-2.85h2.27v2.85h2.11v2h-2.11v5.45a1.59,1.59,0,0,0,.24.9.88.88,0,0,0,.75.35,1.45,1.45,0,0,0,.59-.12,1,1,0,0,0,.4-.26l.54,1.72a2.3,2.3,0,0,1-.82.47A3.72,3.72,0,0,1,120.06,155.73Z" fill="#ed1c24"/><path d="M127.37,155.73a7.26,7.26,0,0,1-2.51-.42,5.56,5.56,0,0,1-2-1.22l1-1.62a3.76,3.76,0,0,0,.67.54,5.35,5.35,0,0,0,.86.47,6.24,6.24,0,0,0,1,.32,4.34,4.34,0,0,0,1,.12,2.62,2.62,0,0,0,1.55-.38,1.16,1.16,0,0,0,.52-1,.83.83,0,0,0-.46-.78,5.06,5.06,0,0,0-1.17-.43c-.46-.11-1-.23-1.52-.34a6.81,6.81,0,0,1-1.52-.52,3.41,3.41,0,0,1-1.16-.93,2.49,2.49,0,0,1-.46-1.59,2.66,2.66,0,0,1,.27-1.22,2.9,2.9,0,0,1,.78-1,3.88,3.88,0,0,1,1.28-.67,5.58,5.58,0,0,1,1.76-.25,6,6,0,0,1,2.34.41,5.74,5.74,0,0,1,1.69,1l-.94,1.6a4,4,0,0,0-1.29-.89,4.38,4.38,0,0,0-1.8-.36,2.41,2.41,0,0,0-1.41.36,1.12,1.12,0,0,0-.51.93.75.75,0,0,0,.47.69,5,5,0,0,0,1.16.4l1.52.34a7.19,7.19,0,0,1,1.52.54,3.35,3.35,0,0,1,1.17,1,2.74,2.74,0,0,1,.46,1.65,3,3,0,0,1-.28,1.3,2.83,2.83,0,0,1-.83,1,4,4,0,0,1-1.36.68A6.2,6.2,0,0,1,127.37,155.73Z" fill="#ed1c24"/></g></g></g></svg>