<svg xmlns="http://www.w3.org/2000/svg" viewBox="0 0 300 600"><title>sub</title><g id="Layer_2" data-name="Layer 2"><g id="REC"><rect width="300" height="600" fill="none"/></g><g id="IMAGES"><path d="M24.69,134.89a6.63,6.63,0,0,1-2.78-.52A5.52,5.52,0,0,1,20,132.93l1.28-1.54a4.22,4.22,0,0,0,3.4,1.52,2.71,2.71,0,0,0,1.91-.64,2.1,2.1,0,0,0,.69-1.6,2.06,2.06,0,0,0-.69-1.63,2.66,2.66,0,0,0-1.86-.61,4.22,4.22,0,0,0-1.48.26,3.85,3.85,0,0,0-1.29.82l-1.58-.45V122h8.31v2H22.6v3.63a4.4,4.4,0,0,1,1.21-.76,4.4,4.4,0,0,1,3.19,0,3.81,3.81,0,0,1,1.3.79,3.74,3.74,0,0,1,.9,1.29,4.27,4.27,0,0,1,.33,1.73,4.21,4.21,0,0,1-.36,1.77,3.84,3.84,0,0,1-1,1.35,4.57,4.57,0,0,1-1.53.87A6.09,6.09,0,0,1,24.69,134.89Z" fill="#e52823"/><path d="M36.18,134.89a4.35,4.35,0,0,1-2.31-.58,4.92,4.92,0,0,1-1.57-1.51,7.09,7.09,0,0,1-.9-2.1,9.79,9.79,0,0,1,0-4.73,7.09,7.09,0,0,1,.9-2.1,4.79,4.79,0,0,1,1.57-1.5,4.45,4.45,0,0,1,2.31-.57,4.4,4.4,0,0,1,2.29.57,4.79,4.79,0,0,1,1.57,1.5,7.09,7.09,0,0,1,.9,2.1,9.79,9.79,0,0,1,0,4.73,7.09,7.09,0,0,1-.9,2.1,4.92,4.92,0,0,1-1.57,1.51A4.31,4.31,0,0,1,36.18,134.89Zm0-2a2.15,2.15,0,0,0,1.3-.38,2.82,2.82,0,0,0,.87-1,5.44,5.44,0,0,0,.47-1.46,10.45,10.45,0,0,0,0-3.47,4.73,4.73,0,0,0-.47-1.46,2.71,2.71,0,0,0-.87-1,2.45,2.45,0,0,0-2.62,0,2.71,2.71,0,0,0-.87,1,5,5,0,0,0-.48,1.46,10.11,10.11,0,0,0,0,3.47,5.11,5.11,0,0,0,.48,1.46,2.92,2.92,0,0,0,.87,1A2.14,2.14,0,0,0,36.18,132.91Z" fill="#e52823"/><path d="M45.72,128.09a3.28,3.28,0,0,1-1.28-.24,2.93,2.93,0,0,1-1.65-1.66,3.34,3.34,0,0,1-.23-1.24,3.37,3.37,0,0,1,.23-1.24,3,3,0,0,1,.65-1,2.86,2.86,0,0,1,1-.66,3.28,3.28,0,0,1,1.28-.24A3.37,3.37,0,0,1,47,122a2.86,2.86,0,0,1,1,.66,3.08,3.08,0,0,1,.63,1,3.18,3.18,0,0,1,.23,1.24,3.24,3.24,0,0,1-.86,2.24,3,3,0,0,1-1,.66A3.37,3.37,0,0,1,45.72,128.09Zm0-1.28a1.57,1.57,0,0,0,1.21-.51,1.91,1.91,0,0,0,.48-1.36,2,2,0,0,0-.48-1.38,1.63,1.63,0,0,0-2.41,0,2,2,0,0,0-.47,1.38,1.91,1.91,0,0,0,.47,1.36A1.58,1.58,0,0,0,45.72,126.81Zm-1.24,7.85L52.58,122h1.29l-8.11,12.67Zm8.06.23a3.28,3.28,0,0,1-1.28-.24,2.86,2.86,0,0,1-1-.66,3,3,0,0,1-.65-1,3.34,3.34,0,0,1-.23-1.24,3.41,3.41,0,0,1,.23-1.24,2.93,2.93,0,0,1,.65-1,2.86,2.86,0,0,1,1-.66,3.28,3.28,0,0,1,1.28-.24,3.32,3.32,0,0,1,1.28.24,2.86,2.86,0,0,1,1,.66,2.91,2.91,0,0,1,.64,1,3.22,3.22,0,0,1,.23,1.24,3.15,3.15,0,0,1-.23,1.24,3,3,0,0,1-.64,1,2.86,2.86,0,0,1-1,.66A3.32,3.32,0,0,1,52.54,134.89Zm0-1.27a1.55,1.55,0,0,0,1.21-.52,1.89,1.89,0,0,0,.48-1.35,1.94,1.94,0,0,0-.48-1.37,1.55,1.55,0,0,0-1.21-.53,1.58,1.58,0,0,0-1.22.53,2,2,0,0,0-.47,1.37,1.93,1.93,0,0,0,.47,1.35A1.57,1.57,0,0,0,52.54,133.62Z" fill="#e52823"/><path d="M66.58,134.89a4.83,4.83,0,0,1-2-.39,4.65,4.65,0,0,1-1.48-1,4.76,4.76,0,0,1-.93-1.53,5.52,5.52,0,0,1-.32-1.87,5.47,5.47,0,0,1,.32-1.86,4.76,4.76,0,0,1,.93-1.53,4.47,4.47,0,0,1,1.48-1,5.35,5.35,0,0,1,4,0,4.47,4.47,0,0,1,1.48,1A4.76,4.76,0,0,1,71,128.2a5.47,5.47,0,0,1,.32,1.86,5.52,5.52,0,0,1-.32,1.87,4.76,4.76,0,0,1-.93,1.53,4.65,4.65,0,0,1-1.48,1A4.86,4.86,0,0,1,66.58,134.89Zm0-1.77a2.39,2.39,0,0,0,2-.91,2.84,2.84,0,0,0,.5-1,4.08,4.08,0,0,0,0-2.33,2.83,2.83,0,0,0-.5-1,2.43,2.43,0,0,0-2-.92,2.53,2.53,0,0,0-1.12.25,2.62,2.62,0,0,0-.84.67,2.69,2.69,0,0,0-.51,1,4.08,4.08,0,0,0,0,2.33,2.69,2.69,0,0,0,.51,1,2.62,2.62,0,0,0,.84.67A2.52,2.52,0,0,0,66.58,133.12Z" fill="#e52823"/><path d="M73.82,134.66v-7.45H72.3v-1.73h1.52V125a3.16,3.16,0,0,1,.82-2.35,2.77,2.77,0,0,1,2.07-.82,3.34,3.34,0,0,1,1.61.34l-.44,1.5a1.41,1.41,0,0,0-.79-.21,1.18,1.18,0,0,0-.94.38,1.69,1.69,0,0,0-.34,1.16v.51h1.87v1.73H75.81v7.45Z" fill="#e52823"/><path d="M79.69,134.66v-7.45H78.17v-1.73h1.52V125a3.16,3.16,0,0,1,.82-2.35,2.77,2.77,0,0,1,2.07-.82,3.31,3.31,0,0,1,1.61.34l-.44,1.5a1.41,1.41,0,0,0-.79-.21,1.18,1.18,0,0,0-.94.38,1.69,1.69,0,0,0-.34,1.16v.51h1.87v1.73H81.68v7.45Z" fill="#e52823"/><path d="M96.43,134.66v-1.25a4.15,4.15,0,0,1-1.28,1.08,3.49,3.49,0,0,1-1.67.4,4.14,4.14,0,0,1-1.62-.32,3.67,3.67,0,0,1-1.29-.95,4.41,4.41,0,0,1-.85-1.52,6.44,6.44,0,0,1-.3-2,6.21,6.21,0,0,1,.3-2,4.32,4.32,0,0,1,.85-1.52,3.54,3.54,0,0,1,1.28-1,4,4,0,0,1,1.63-.33,3.56,3.56,0,0,1,1.64.38,3.66,3.66,0,0,1,1.31,1.12v-1.28h2v9.18Zm-2.36-1.54a2.72,2.72,0,0,0,.69-.09,3,3,0,0,0,.67-.27,2.87,2.87,0,0,0,.57-.39,2.43,2.43,0,0,0,.43-.48v-3.63a3.16,3.16,0,0,0-.43-.48,3.41,3.41,0,0,0-.57-.4,3,3,0,0,0-.67-.26,2.74,2.74,0,0,0-.69-.1,2.48,2.48,0,0,0-1.08.23,2.4,2.4,0,0,0-.82.63,2.61,2.61,0,0,0-.52,1,4.26,4.26,0,0,0,0,2.45,2.83,2.83,0,0,0,.52,1,2.4,2.4,0,0,0,.82.63A2.35,2.35,0,0,0,94.07,133.12Z" fill="#e52823"/><path d="M103.36,134.89a2.35,2.35,0,0,1-1.76-.61,2.44,2.44,0,0,1-.59-1.77V122h2v10a1.32,1.32,0,0,0,.22.79.74.74,0,0,0,.66.31,1.35,1.35,0,0,0,.53-.1,1,1,0,0,0,.36-.24l.47,1.52a2,2,0,0,1-.72.42A3.43,3.43,0,0,1,103.36,134.89Z" fill="#e52823"/><path d="M108.8,134.89a2.34,2.34,0,0,1-1.76-.61,2.4,2.4,0,0,1-.6-1.77V122h2v10a1.39,1.39,0,0,0,.21.79.76.76,0,0,0,.66.31,1.32,1.32,0,0,0,.53-.1.87.87,0,0,0,.36-.24l.48,1.52a2.24,2.24,0,0,1-.72.42A3.47,3.47,0,0,1,108.8,134.89Z" fill="#e52823"/><path d="M119.85,134.66V124H116v-2h9.9v2h-3.84v10.7Z" fill="#e52823"/><path d="M129.91,134.89a4.79,4.79,0,0,1-2-.39,4.54,4.54,0,0,1-1.48-1,4.43,4.43,0,0,1-.93-1.53,5.29,5.29,0,0,1-.33-1.87,5.24,5.24,0,0,1,.33-1.86,4.43,4.43,0,0,1,.93-1.53,4.37,4.37,0,0,1,1.48-1,5.32,5.32,0,0,1,3.95,0,4.37,4.37,0,0,1,1.48,1,4.43,4.43,0,0,1,.93,1.53,5.24,5.24,0,0,1,.33,1.86,5.29,5.29,0,0,1-.33,1.87,4.43,4.43,0,0,1-.93,1.53,4.54,4.54,0,0,1-1.48,1A4.78,4.78,0,0,1,129.91,134.89Zm0-1.77a2.51,2.51,0,0,0,1.13-.24,2.48,2.48,0,0,0,.83-.67,3,3,0,0,0,.51-1,4.08,4.08,0,0,0,0-2.33,3,3,0,0,0-.51-1,2.48,2.48,0,0,0-.83-.67,2.51,2.51,0,0,0-1.13-.25,2.43,2.43,0,0,0-2,.92,2.69,2.69,0,0,0-.51,1,3.86,3.86,0,0,0,0,2.33,2.69,2.69,0,0,0,.51,1,2.39,2.39,0,0,0,2,.91Z" fill="#e52823"/><path d="M141.59,134.89a3.46,3.46,0,0,1-1.62-.39,3.88,3.88,0,0,1-1.32-1.11v4.77h-2V125.48h2v1.26a3.58,3.58,0,0,1,1.27-1.08,3.46,3.46,0,0,1,1.67-.4,3.92,3.92,0,0,1,1.63.32,3.52,3.52,0,0,1,1.29.94,4.42,4.42,0,0,1,.84,1.51,6.83,6.83,0,0,1,0,4.07,4.42,4.42,0,0,1-.84,1.51,3.67,3.67,0,0,1-1.29.95A3.92,3.92,0,0,1,141.59,134.89Zm-.59-1.77a2.33,2.33,0,0,0,1.9-.85,3.36,3.36,0,0,0,.7-2.21,3.29,3.29,0,0,0-.7-2.19A2.36,2.36,0,0,0,141,127a2.8,2.8,0,0,0-1.36.36,2.63,2.63,0,0,0-1,.86v3.63a2.14,2.14,0,0,0,.42.49,2.91,2.91,0,0,0,.57.4,3,3,0,0,0,.67.27A2.72,2.72,0,0,0,141,133.12Z" fill="#e52823"/><path d="M152.61,134.66V122h8.68v2h-6.46v3.23h6.33v2h-6.33v5.49Z" fill="#e52823"/><path d="M164.26,124.36a1.21,1.21,0,0,1-.88-.36,1.19,1.19,0,0,1-.36-.87,1.22,1.22,0,0,1,.36-.88,1.21,1.21,0,0,1,.88-.36,1.19,1.19,0,0,1,.87.36,1.22,1.22,0,0,1,.36.88,1.23,1.23,0,0,1-1.23,1.23Zm-1,10.3v-9.18h2v9.18Z" fill="#e52823"/><path d="M174,134.66v-5.74a1.85,1.85,0,0,0-.5-1.49,2.12,2.12,0,0,0-1.36-.41,2.6,2.6,0,0,0-1.38.38,4,4,0,0,0-1,.84v6.42h-2v-9.18h2v1.24a4.41,4.41,0,0,1,1.31-1,4.33,4.33,0,0,1,1.94-.45,2.64,2.64,0,0,1,3,2.94v6.46Z" fill="#e52823"/><path d="M182.41,123.18a2.36,2.36,0,0,1-.18.92,2.52,2.52,0,0,1-.5.75,2.29,2.29,0,0,1-.75.5,2.42,2.42,0,0,1-1.83,0,2.3,2.3,0,0,1-1.25-1.25,2.36,2.36,0,0,1-.18-.92,2.39,2.39,0,0,1,.18-.92,2.36,2.36,0,0,1,.5-.74,2.52,2.52,0,0,1,.75-.5,2.42,2.42,0,0,1,1.83,0,2.29,2.29,0,0,1,.75.5,2.36,2.36,0,0,1,.5.74A2.39,2.39,0,0,1,182.41,123.18Zm-.33,0a2.09,2.09,0,0,0-.15-.79,1.92,1.92,0,0,0-.44-.64,2.18,2.18,0,0,0-.64-.43,2.09,2.09,0,0,0-.79-.15,2,2,0,0,0-.78.15,2.18,2.18,0,0,0-.64.43,1.92,1.92,0,0,0-.44.64,2.09,2.09,0,0,0-.15.79,2,2,0,0,0,.15.78,2,2,0,0,0,.44.64,2.18,2.18,0,0,0,.64.43,1.85,1.85,0,0,0,.78.16,1.92,1.92,0,0,0,.79-.16,2.18,2.18,0,0,0,.64-.43,2,2,0,0,0,.44-.64A2,2,0,0,0,182.08,123.18Zm-1.37,1.36-.7-1.07h-.48v1.07h-.36v-2.7h1.1a1,1,0,0,1,.61.22.76.76,0,0,1,.26.6.74.74,0,0,1-.09.38.71.71,0,0,1-.2.25.78.78,0,0,1-.23.13.54.54,0,0,1-.18,0l.72,1.08Zm0-1.88a.49.49,0,0,0-.15-.36.53.53,0,0,0-.34-.14h-.73v1h.73a.52.52,0,0,0,.34-.13A.45.45,0,0,0,180.75,122.66Z" fill="#e52823"/><path d="M189.05,134.66V122h8.68v2h-6.46v3.23h6.33v2h-6.33v3.52h6.46v2Z" fill="#e52823"/><path d="M203.11,134.89a6.23,6.23,0,0,1-2.2-.37,5,5,0,0,1-1.73-1.07l.91-1.43a3.71,3.71,0,0,0,.59.48,4.94,4.94,0,0,0,.76.4,5.44,5.44,0,0,0,.86.29,3.92,3.92,0,0,0,.89.1,2.37,2.37,0,0,0,1.37-.33,1,1,0,0,0,.45-.88.74.74,0,0,0-.41-.69,4.56,4.56,0,0,0-1-.38l-1.34-.3a5.3,5.3,0,0,1-1.34-.46,3,3,0,0,1-1-.81,2.23,2.23,0,0,1-.41-1.41,2.43,2.43,0,0,1,.24-1.07,2.68,2.68,0,0,1,.69-.89,3.46,3.46,0,0,1,1.13-.59,4.92,4.92,0,0,1,1.55-.22,5.38,5.38,0,0,1,2.06.36,5,5,0,0,1,1.5.91l-.84,1.41a3.33,3.33,0,0,0-1.13-.78,3.74,3.74,0,0,0-1.59-.33,2.05,2.05,0,0,0-1.24.33,1,1,0,0,0-.45.81.66.66,0,0,0,.41.61,4.26,4.26,0,0,0,1,.35l1.34.31a5.46,5.46,0,0,1,1.34.47,2.93,2.93,0,0,1,1,.86,2.36,2.36,0,0,1,.41,1.45,2.57,2.57,0,0,1-.25,1.14,2.38,2.38,0,0,1-.73.91,3.38,3.38,0,0,1-1.2.6A5.43,5.43,0,0,1,203.11,134.89Z" fill="#e52823"/><path d="M212.08,134.89a6.23,6.23,0,0,1-2.2-.37,4.91,4.91,0,0,1-1.73-1.07l.91-1.43a3.71,3.71,0,0,0,.59.48,4.94,4.94,0,0,0,.76.4,5.12,5.12,0,0,0,.86.29,3.86,3.86,0,0,0,.89.1,2.31,2.31,0,0,0,1.36-.33,1,1,0,0,0,.46-.88.75.75,0,0,0-.41-.69,4.47,4.47,0,0,0-1-.38l-1.33-.3a5.17,5.17,0,0,1-1.34-.46,2.86,2.86,0,0,1-1-.81,2.23,2.23,0,0,1-.41-1.41,2.43,2.43,0,0,1,.24-1.07,2.68,2.68,0,0,1,.69-.89,3.36,3.36,0,0,1,1.13-.59,4.92,4.92,0,0,1,1.55-.22,5.42,5.42,0,0,1,2.06.36,4.87,4.87,0,0,1,1.49.91l-.83,1.41a3.33,3.33,0,0,0-1.13-.78,3.77,3.77,0,0,0-1.59-.33,2,2,0,0,0-1.24.33,1,1,0,0,0-.45.81.66.66,0,0,0,.41.61,4.17,4.17,0,0,0,1,.35l1.34.31a5.18,5.18,0,0,1,1.34.47,2.88,2.88,0,0,1,1,.86,2.36,2.36,0,0,1,.41,1.45,2.57,2.57,0,0,1-.25,1.14,2.38,2.38,0,0,1-.73.91,3.38,3.38,0,0,1-1.2.6A5.43,5.43,0,0,1,212.08,134.89Z" fill="#e52823"/><path d="M222.15,134.89a5.26,5.26,0,0,1-1.93-.34,4.38,4.38,0,0,1-1.52-1,4.51,4.51,0,0,1-1-1.53,5.25,5.25,0,0,1-.36-2,5.34,5.34,0,0,1,.34-1.87,4.62,4.62,0,0,1,1-1.53,4.55,4.55,0,0,1,1.48-1,4.45,4.45,0,0,1,1.88-.38,4.51,4.51,0,0,1,1.86.37,4,4,0,0,1,1.42,1,4.58,4.58,0,0,1,.91,1.58,6.06,6.06,0,0,1,.31,2v.5h-7.07a3,3,0,0,0,.28,1,2.56,2.56,0,0,0,.59.8,2.65,2.65,0,0,0,.88.56,3.24,3.24,0,0,0,1.16.2,4.08,4.08,0,0,0,1.41-.27,3.33,3.33,0,0,0,1.21-.76l.91,1.31a4.7,4.7,0,0,1-1.67,1A6.08,6.08,0,0,1,222.15,134.89Zm2.43-5.59a2.53,2.53,0,0,0-.18-.82,2.58,2.58,0,0,0-.47-.78,2.45,2.45,0,0,0-.79-.58,2.73,2.73,0,0,0-1.16-.23,2.51,2.51,0,0,0-1.1.22,2.2,2.2,0,0,0-.79.57,2.64,2.64,0,0,0-.49.78,2.9,2.9,0,0,0-.19.84Z" fill="#e52823"/><path d="M234.69,134.66v-5.74a1.85,1.85,0,0,0-.5-1.49,2.12,2.12,0,0,0-1.36-.41,2.6,2.6,0,0,0-1.38.38,4,4,0,0,0-1,.84v6.42h-2v-9.18h2v1.24a4.12,4.12,0,0,1,.56-.53,4,4,0,0,1,.75-.48,4.25,4.25,0,0,1,1.94-.45,2.63,2.63,0,0,1,3,2.94v6.46Z" fill="#e52823"/><path d="M242,134.89a2.36,2.36,0,0,1-1.77-.61,2.44,2.44,0,0,1-.58-1.77v-5.3h-1.52v-1.73h1.52V123h2v2.5h1.86v1.73h-1.86V132a1.32,1.32,0,0,0,.22.79.73.73,0,0,0,.65.31,1.29,1.29,0,0,0,.53-.1,1,1,0,0,0,.35-.24l.47,1.52a2,2,0,0,1-.72.42A3.34,3.34,0,0,1,242,134.89Z" fill="#e52823"/><path d="M246.33,124.36a1.23,1.23,0,0,1-1.23-1.23,1.22,1.22,0,0,1,.36-.88,1.24,1.24,0,0,1,1.75,0,1.22,1.22,0,0,1,.36.88,1.23,1.23,0,0,1-1.24,1.23Zm-1,10.3v-9.18h2v9.18Z" fill="#e52823"/><path d="M256.37,134.66v-1.25a4.18,4.18,0,0,1-1.29,1.08,3.42,3.42,0,0,1-1.66.4,4.14,4.14,0,0,1-1.62-.32,3.67,3.67,0,0,1-1.29-.95,4.41,4.41,0,0,1-.85-1.52,6.44,6.44,0,0,1-.3-2,6.21,6.21,0,0,1,.3-2,4.32,4.32,0,0,1,.85-1.52,3.54,3.54,0,0,1,1.28-1,4,4,0,0,1,1.63-.33,3.56,3.56,0,0,1,1.64.38,3.66,3.66,0,0,1,1.31,1.12v-1.28h2v9.18ZM254,133.12a2.86,2.86,0,0,0,.7-.09,3.16,3.16,0,0,0,.66-.27,2.87,2.87,0,0,0,.57-.39,2.43,2.43,0,0,0,.43-.48v-3.63a3.16,3.16,0,0,0-.43-.48,3.41,3.41,0,0,0-.57-.4,3.12,3.12,0,0,0-.66-.26,2.88,2.88,0,0,0-.7-.1,2.52,2.52,0,0,0-1.08.23,2.4,2.4,0,0,0-.82.63,2.61,2.61,0,0,0-.52,1,4.26,4.26,0,0,0,0,2.45,2.83,2.83,0,0,0,.52,1,2.4,2.4,0,0,0,.82.63A2.38,2.38,0,0,0,254,133.12Z" fill="#e52823"/><path d="M263.3,134.89a2.35,2.35,0,0,1-1.76-.61,2.44,2.44,0,0,1-.59-1.77V122h2v10a1.32,1.32,0,0,0,.22.79.74.74,0,0,0,.66.31,1.35,1.35,0,0,0,.53-.1,1,1,0,0,0,.36-.24l.47,1.52a2,2,0,0,1-.72.42A3.43,3.43,0,0,1,263.3,134.89Z" fill="#e52823"/><path d="M26.66,161.46v-1.25a4,4,0,0,1-1.28,1.08,3.45,3.45,0,0,1-1.66.4,4.16,4.16,0,0,1-1.63-.32,3.67,3.67,0,0,1-1.29-1A4.76,4.76,0,0,1,20,158.9a6.44,6.44,0,0,1-.3-2,6.21,6.21,0,0,1,.3-2,4.66,4.66,0,0,1,.85-1.52,3.63,3.63,0,0,1,1.28-1,4,4,0,0,1,1.64-.33,3.52,3.52,0,0,1,1.63.38,3.57,3.57,0,0,1,1.31,1.12v-1.28h2v9.18Zm-2.35-1.54a2.84,2.84,0,0,0,.69-.09,3.16,3.16,0,0,0,.66-.27,2.87,2.87,0,0,0,.57-.39,2.15,2.15,0,0,0,.43-.48v-3.63a2.7,2.7,0,0,0-.43-.48,3.41,3.41,0,0,0-.57-.4,3.12,3.12,0,0,0-.66-.26,2.45,2.45,0,0,0-.69-.1,2.53,2.53,0,0,0-1.09.23,2.37,2.37,0,0,0-.81.63,2.62,2.62,0,0,0-.53,1,4.26,4.26,0,0,0,0,2.45,2.84,2.84,0,0,0,.53,1,2.38,2.38,0,0,0,1.9.86Z" fill="#e52823"/><path d="M34.72,161.69a4,4,0,0,1-1.64-.33,3.72,3.72,0,0,1-1.28-1A4.42,4.42,0,0,1,31,158.9a6.83,6.83,0,0,1,0-4.07,4.42,4.42,0,0,1,.84-1.51,3.57,3.57,0,0,1,1.28-.94,4,4,0,0,1,1.64-.32,3.49,3.49,0,0,1,1.67.4,3.58,3.58,0,0,1,1.27,1.08v-1.26h2V165h-2v-4.77a4.08,4.08,0,0,1-1.32,1.11A3.46,3.46,0,0,1,34.72,161.69Zm.59-1.77a2.78,2.78,0,0,0,.69-.09,3,3,0,0,0,.66-.27,2.91,2.91,0,0,0,.57-.4,2,2,0,0,0,.43-.49V155a2.78,2.78,0,0,0-1-.87,2.86,2.86,0,0,0-1.35-.35,2.34,2.34,0,0,0-1.9.85,3.29,3.29,0,0,0-.71,2.19,3.37,3.37,0,0,0,.71,2.21A2.31,2.31,0,0,0,35.31,159.92Z" fill="#e52823"/><path d="M48.44,161.46v-1.21a4.75,4.75,0,0,1-1.33,1,3.9,3.9,0,0,1-1.9.45,3,3,0,0,1-2.23-.75,3,3,0,0,1-.74-2.16v-6.5h2V158a1.79,1.79,0,0,0,.5,1.47,2.06,2.06,0,0,0,1.36.41,2.64,2.64,0,0,0,1.38-.37,3.45,3.45,0,0,0,1-.82v-6.45h2v9.18Z" fill="#e52823"/><path d="M59.47,161.46v-1.25a4,4,0,0,1-1.28,1.08,3.42,3.42,0,0,1-1.66.4,4.19,4.19,0,0,1-1.63-.32,3.67,3.67,0,0,1-1.29-1,4.56,4.56,0,0,1-.84-1.52,6.16,6.16,0,0,1-.31-2,5.94,5.94,0,0,1,.31-2,4.46,4.46,0,0,1,.84-1.52,3.58,3.58,0,0,1,1.29-1,3.92,3.92,0,0,1,1.63-.33,3.59,3.59,0,0,1,2.94,1.5v-1.28h2v9.18Zm-2.35-1.54a2.72,2.72,0,0,0,.69-.09,3,3,0,0,0,.67-.27,2.87,2.87,0,0,0,.57-.39,2.1,2.1,0,0,0,.42-.48v-3.63a2.63,2.63,0,0,0-.42-.48,3.41,3.41,0,0,0-.57-.4,3,3,0,0,0-.67-.26,2.35,2.35,0,0,0-.69-.1,2.45,2.45,0,0,0-1.08.23,2.4,2.4,0,0,0-.82.63,2.61,2.61,0,0,0-.52,1,4.26,4.26,0,0,0,0,2.45,2.83,2.83,0,0,0,.52,1,2.4,2.4,0,0,0,.82.63A2.32,2.32,0,0,0,57.12,159.92Z" fill="#e52823"/><path d="M66.83,161.69a2.33,2.33,0,0,1-1.77-.61,2.44,2.44,0,0,1-.59-1.77V154H63v-1.73h1.52v-2.5h2v2.5h1.86V154H66.47v4.81a1.39,1.39,0,0,0,.21.79.76.76,0,0,0,.66.31,1.27,1.27,0,0,0,.52-.1.89.89,0,0,0,.35-.24l.48,1.52a2.24,2.24,0,0,1-.72.42A3.42,3.42,0,0,1,66.83,161.69Z" fill="#e52823"/><path d="M71.12,151.16a1.23,1.23,0,0,1-1.23-1.23,1.22,1.22,0,0,1,.36-.88,1.24,1.24,0,0,1,2.11.88,1.16,1.16,0,0,1-.37.87A1.19,1.19,0,0,1,71.12,151.16Zm-1,10.3v-9.18h2v9.18Z" fill="#e52823"/><path d="M78.87,161.69a5,5,0,0,1-1.91-.36,4.52,4.52,0,0,1-1.49-1,4.67,4.67,0,0,1-1-1.53,5.47,5.47,0,0,1,0-3.85,4.73,4.73,0,0,1,1-1.52,4.49,4.49,0,0,1,1.49-1,5,5,0,0,1,1.91-.36,5.1,5.1,0,0,1,1.23.13,4.44,4.44,0,0,1,1,.36,4.15,4.15,0,0,1,.75.52,6.53,6.53,0,0,1,.57.62l-1.31,1.2A2.46,2.46,0,0,0,79,153.82a2.6,2.6,0,0,0-2,.85,3.17,3.17,0,0,0-.76,2.19,3.69,3.69,0,0,0,.2,1.23,3.11,3.11,0,0,0,.57,1,2.63,2.63,0,0,0,.88.63,2.57,2.57,0,0,0,1.13.23,2.45,2.45,0,0,0,2.11-1.1l1.31,1.24a4.57,4.57,0,0,1-1.33,1.14A4.38,4.38,0,0,1,78.87,161.69Z" fill="#e52823"/><path d="M92.21,161.69a6.23,6.23,0,0,1-2.2-.37,4.91,4.91,0,0,1-1.73-1.07l.91-1.43a3.71,3.71,0,0,0,.59.48,4.94,4.94,0,0,0,.76.4,5.44,5.44,0,0,0,.86.29,3.92,3.92,0,0,0,.89.1,2.31,2.31,0,0,0,1.36-.33,1,1,0,0,0,.46-.88.75.75,0,0,0-.41-.69,4.56,4.56,0,0,0-1-.38l-1.34-.3a5.17,5.17,0,0,1-1.34-.46,3,3,0,0,1-1-.81,2.23,2.23,0,0,1-.41-1.41,2.43,2.43,0,0,1,.24-1.07,2.68,2.68,0,0,1,.69-.89,3.57,3.57,0,0,1,1.13-.6,5.24,5.24,0,0,1,1.55-.21,5.38,5.38,0,0,1,2.06.36,5,5,0,0,1,1.5.91l-.84,1.41a3.33,3.33,0,0,0-1.13-.78,3.77,3.77,0,0,0-1.59-.33,2.05,2.05,0,0,0-1.24.33,1,1,0,0,0-.45.81.66.66,0,0,0,.41.61,4.11,4.11,0,0,0,1,.35l1.34.31a5.46,5.46,0,0,1,1.34.47,2.93,2.93,0,0,1,1,.86,2.36,2.36,0,0,1,.41,1.45,2.57,2.57,0,0,1-.25,1.14,2.38,2.38,0,0,1-.73.91,3.38,3.38,0,0,1-1.2.6A5.43,5.43,0,0,1,92.21,161.69Z" fill="#e52823"/><path d="M100.8,161.69a2.33,2.33,0,0,1-1.77-.61,2.44,2.44,0,0,1-.59-1.77V154H96.92v-1.73h1.52v-2.5h2v2.5h1.86V154h-1.86v4.81a1.32,1.32,0,0,0,.22.79.73.73,0,0,0,.65.31,1.24,1.24,0,0,0,.52-.1,1,1,0,0,0,.36-.24l.47,1.52a2.24,2.24,0,0,1-.72.42A3.42,3.42,0,0,1,100.8,161.69Z" fill="#e52823"/><path d="M110.54,161.46v-1.25a4,4,0,0,1-1.28,1.08,3.42,3.42,0,0,1-1.66.4,4.14,4.14,0,0,1-1.62-.32,3.71,3.71,0,0,1-1.3-1,4.56,4.56,0,0,1-.84-1.52,6.43,6.43,0,0,1-.31-2,6.2,6.2,0,0,1,.31-2,4.46,4.46,0,0,1,.84-1.52,3.58,3.58,0,0,1,1.29-1,3.92,3.92,0,0,1,1.63-.33,3.59,3.59,0,0,1,2.94,1.5v-1.28h2v9.18Zm-2.35-1.54a2.72,2.72,0,0,0,.69-.09,3,3,0,0,0,.67-.27,2.87,2.87,0,0,0,.57-.39,2.1,2.1,0,0,0,.42-.48v-3.63a2.63,2.63,0,0,0-.42-.48,3.41,3.41,0,0,0-.57-.4,3,3,0,0,0-.67-.26,2.35,2.35,0,0,0-.69-.1,2.45,2.45,0,0,0-1.08.23,2.4,2.4,0,0,0-.82.63,2.61,2.61,0,0,0-.52,1,4.26,4.26,0,0,0,0,2.45,2.83,2.83,0,0,0,.52,1,2.4,2.4,0,0,0,.82.63A2.32,2.32,0,0,0,108.19,159.92Z" fill="#e52823"/><path d="M115.12,161.46v-9.18h2v1.33a4.57,4.57,0,0,1,1.31-1.11,3.39,3.39,0,0,1,1.67-.44v2a2.84,2.84,0,0,0-.61-.05,2.69,2.69,0,0,0-.67.09,2.84,2.84,0,0,0-.68.27,2.33,2.33,0,0,0-.6.4,2,2,0,0,0-.42.47v6.25Z" fill="#e52823"/><path d="M124.49,161.69a2.36,2.36,0,0,1-1.77-.61,2.44,2.44,0,0,1-.59-1.77V154h-1.52v-1.73h1.52v-2.5h2v2.5H126V154h-1.86v4.81a1.32,1.32,0,0,0,.22.79.73.73,0,0,0,.65.31,1.32,1.32,0,0,0,.53-.1,1.07,1.07,0,0,0,.35-.24l.47,1.52a2.14,2.14,0,0,1-.72.42A3.34,3.34,0,0,1,124.49,161.69Z" fill="#e52823"/><path d="M132,161.69a5.29,5.29,0,0,1-1.93-.34,4.32,4.32,0,0,1-2.51-2.51,5.25,5.25,0,0,1-.36-2,5.12,5.12,0,0,1,.34-1.87,4.62,4.62,0,0,1,1-1.53,4.58,4.58,0,0,1,3.35-1.4,4.45,4.45,0,0,1,1.86.37,4,4,0,0,1,1.43,1,4.72,4.72,0,0,1,.9,1.58,6.06,6.06,0,0,1,.31,2v.5h-7.06a3,3,0,0,0,.27,1,2.72,2.72,0,0,0,.59.8,2.76,2.76,0,0,0,.88.56,3.28,3.28,0,0,0,1.16.2,4,4,0,0,0,1.41-.27,3.37,3.37,0,0,0,1.22-.76l.91,1.31a4.79,4.79,0,0,1-1.67,1A6.1,6.1,0,0,1,132,161.69Zm2.44-5.59a2.85,2.85,0,0,0-.19-.82,2.23,2.23,0,0,0-.47-.78,2.35,2.35,0,0,0-.79-.58,2.69,2.69,0,0,0-1.16-.23,2.54,2.54,0,0,0-1.1.22,2.2,2.2,0,0,0-.79.57,2.42,2.42,0,0,0-.48.78,2.37,2.37,0,0,0-.19.84Z" fill="#e52823"/><path d="M138.36,161.46v-9.18h2v1.33a4.57,4.57,0,0,1,1.31-1.11,3.36,3.36,0,0,1,1.67-.44v2a2.84,2.84,0,0,0-.61-.05,2.63,2.63,0,0,0-.67.09,2.91,2.91,0,0,0-.69.27,2.73,2.73,0,0,0-.6.4,2.19,2.19,0,0,0-.41.47v6.25Z" fill="#e52823"/><path d="M155.94,161.46l-2.8-3.8L151.85,159v2.47h-2V148.79h2v7.92l4.05-4.43h2.47l-3.8,4.17,3.87,5Z" fill="#e52823"/><path d="M160.88,151.16a1.23,1.23,0,0,1-1.24-1.23,1.22,1.22,0,0,1,.36-.88,1.24,1.24,0,0,1,1.75,0,1.22,1.22,0,0,1,.36.88,1.23,1.23,0,0,1-1.23,1.23Zm-1,10.3v-9.18h2v9.18Z" fill="#e52823"/><path d="M167.22,161.69a2.36,2.36,0,0,1-1.77-.61,2.44,2.44,0,0,1-.58-1.77V154h-1.53v-1.73h1.53v-2.5h2v2.5h1.86V154h-1.86v4.81a1.32,1.32,0,0,0,.22.79.73.73,0,0,0,.65.31,1.32,1.32,0,0,0,.53-.1,1,1,0,0,0,.35-.24l.47,1.52a2,2,0,0,1-.72.42A3.34,3.34,0,0,1,167.22,161.69Z" fill="#e52823"/><path d="M173.66,161.69a6.23,6.23,0,0,1-2.2-.37,5,5,0,0,1-1.73-1.07l.91-1.43a3.71,3.71,0,0,0,.59.48,4.94,4.94,0,0,0,.76.4,5.44,5.44,0,0,0,.86.29,3.92,3.92,0,0,0,.89.1,2.35,2.35,0,0,0,1.37-.33,1,1,0,0,0,.45-.88.74.74,0,0,0-.41-.69,4.56,4.56,0,0,0-1-.38l-1.34-.3a5.3,5.3,0,0,1-1.34-.46,3,3,0,0,1-1-.81,2.23,2.23,0,0,1-.41-1.41,2.43,2.43,0,0,1,.24-1.07,2.68,2.68,0,0,1,.69-.89,3.51,3.51,0,0,1,1.14-.6,5.12,5.12,0,0,1,1.54-.21,5.47,5.47,0,0,1,2.07.36,5.12,5.12,0,0,1,1.49.91l-.84,1.41a3.23,3.23,0,0,0-1.13-.78,3.71,3.71,0,0,0-1.59-.33,2.05,2.05,0,0,0-1.24.33,1,1,0,0,0-.45.81.66.66,0,0,0,.41.61,4.26,4.26,0,0,0,1,.35l1.34.31a5.46,5.46,0,0,1,1.34.47,2.93,2.93,0,0,1,1,.86,2.36,2.36,0,0,1,.41,1.45,2.57,2.57,0,0,1-.25,1.14,2.29,2.29,0,0,1-.73.91,3.38,3.38,0,0,1-1.2.6A5.43,5.43,0,0,1,173.66,161.69Z" fill="#e52823"/></g></g></svg>