<svg xmlns="http://www.w3.org/2000/svg" viewBox="0 0 728 90"><g id="Layer_2" data-name="Layer 2"><g id="REC"><rect width="728" height="90" fill="none"/></g><g id="CTA"><rect width="728" height="90" fill="none"/><path id="bg" d="M700.4,41.58H598.85a12.13,12.13,0,0,1-12.31-11.95V28.39a12.13,12.13,0,0,1,12.31-11.95H700.4a12.13,12.13,0,0,1,12.31,12v1.24a12.13,12.13,0,0,1-12.31,12" fill="#e52823"/><path d="M619,34.17a6.18,6.18,0,0,1-2.44-.44,5.14,5.14,0,0,1-1.7-1.17l1-1.38a4.94,4.94,0,0,0,1.33,1,4,4,0,0,0,1.88.43,3.21,3.21,0,0,0,.94-.12,1.81,1.81,0,0,0,.62-.32,1.15,1.15,0,0,0,.35-.45,1.19,1.19,0,0,0,.12-.51.91.91,0,0,0-.44-.81,4.1,4.1,0,0,0-1.09-.48c-.45-.13-.92-.26-1.43-.38a7.23,7.23,0,0,1-1.42-.5,3.05,3.05,0,0,1-1.09-.88,2.33,2.33,0,0,1-.44-1.48,2.59,2.59,0,0,1,.27-1.18,3,3,0,0,1,.74-.95,3.63,3.63,0,0,1,1.17-.63,4.8,4.8,0,0,1,1.52-.23,5.83,5.83,0,0,1,2.14.38,5.05,5.05,0,0,1,1.65,1.05l-1,1.33a3.69,3.69,0,0,0-1.37-.89,4.54,4.54,0,0,0-1.58-.28,2,2,0,0,0-1.24.35,1.07,1.07,0,0,0-.46.91.81.81,0,0,0,.43.73,4.57,4.57,0,0,0,1.1.44c.44.12.91.25,1.42.37a6.52,6.52,0,0,1,1.42.54,3.14,3.14,0,0,1,1.1.91A2.44,2.44,0,0,1,623,31a3.07,3.07,0,0,1-.23,1.21,2.67,2.67,0,0,1-.7,1,3.31,3.31,0,0,1-1.23.68A5.45,5.45,0,0,1,619,34.17Z" fill="#fff"/><path d="M629.51,34V29.37a1.41,1.41,0,0,0-.4-1.18,1.67,1.67,0,0,0-1.08-.32,2.11,2.11,0,0,0-1.11.31,2.57,2.57,0,0,0-.77.67V34h-1.6V23.84h1.6v3.79a3.48,3.48,0,0,1,1-.81,3.34,3.34,0,0,1,.71-.26,3.2,3.2,0,0,1,.83-.1,2.42,2.42,0,0,1,1.78.59,2.36,2.36,0,0,1,.6,1.74V34Z" fill="#fff"/><path d="M636.51,34.17a3.78,3.78,0,0,1-1.58-.31,3.56,3.56,0,0,1-1.19-.84A3.62,3.62,0,0,1,633,31.8a4.57,4.57,0,0,1,0-3,3.67,3.67,0,0,1,.75-1.23,3.53,3.53,0,0,1,1.19-.83,4.31,4.31,0,0,1,3.16,0A3.46,3.46,0,0,1,640,28.82a4.4,4.4,0,0,1,0,3,3.6,3.6,0,0,1-.74,1.22,3.66,3.66,0,0,1-1.19.84A3.81,3.81,0,0,1,636.51,34.17Zm0-1.41a2,2,0,0,0,.91-.2,1.82,1.82,0,0,0,.66-.53,2.38,2.38,0,0,0,.41-.79,3.17,3.17,0,0,0,.13-.93,3.12,3.12,0,0,0-.13-.93,2.43,2.43,0,0,0-.41-.78,1.82,1.82,0,0,0-.66-.53,2,2,0,0,0-2.48.53,2.43,2.43,0,0,0-.41.78,3.12,3.12,0,0,0-.14.93,3.17,3.17,0,0,0,.14.93,2.38,2.38,0,0,0,.41.79,2,2,0,0,0,.67.53A2,2,0,0,0,636.51,32.76Z" fill="#fff"/><path d="M645.87,34.17a2.74,2.74,0,0,1-1.3-.31,3.2,3.2,0,0,1-1.06-.89v3.82h-1.6V26.64h1.6v1a2.91,2.91,0,0,1,2.36-1.19,3.33,3.33,0,0,1,1.31.26,2.87,2.87,0,0,1,1,.75,3.47,3.47,0,0,1,.68,1.21,5.66,5.66,0,0,1,0,3.26,3.56,3.56,0,0,1-.68,1.21,3,3,0,0,1-1,.76A3.33,3.33,0,0,1,645.87,34.17Zm-.47-1.41a1.88,1.88,0,0,0,1.52-.69,3,3,0,0,0,0-3.52,1.9,1.9,0,0,0-1.52-.68,2.25,2.25,0,0,0-1.09.29,2,2,0,0,0-.8.69v2.9a1.61,1.61,0,0,0,.34.4,2.51,2.51,0,0,0,.46.32,2.44,2.44,0,0,0,.53.21A2.16,2.16,0,0,0,645.4,32.76Z" fill="#fff"/><path d="M661.77,34l-5.3-7.26V34h-1.78V23.84h1.83l5.19,7v-7h1.78V34Z" fill="#fff"/><path d="M668.94,34.17a3.86,3.86,0,0,1-1.59-.31,3.62,3.62,0,0,1-1.18-.84,3.47,3.47,0,0,1-.75-1.22,4.4,4.4,0,0,1,0-3,3.51,3.51,0,0,1,.75-1.23,3.59,3.59,0,0,1,1.18-.83,4.34,4.34,0,0,1,3.17,0,3.46,3.46,0,0,1,1.93,2.06,4.4,4.4,0,0,1,0,3,3.6,3.6,0,0,1-.74,1.22,3.66,3.66,0,0,1-1.19.84A3.84,3.84,0,0,1,668.94,34.17Zm0-1.41a2,2,0,0,0,.91-.2,2,2,0,0,0,.66-.53,2.36,2.36,0,0,0,.4-.79,2.87,2.87,0,0,0,.14-.93,2.83,2.83,0,0,0-.14-.93,2.4,2.4,0,0,0-.4-.78,2,2,0,0,0-.66-.53,2,2,0,0,0-.91-.2,2,2,0,0,0-.9.2,2,2,0,0,0-.67.53,2.43,2.43,0,0,0-.41.78,3.12,3.12,0,0,0-.14.93,3.17,3.17,0,0,0,.14.93,2.38,2.38,0,0,0,.41.79,2,2,0,0,0,.67.53A2,2,0,0,0,668.94,32.76Z" fill="#fff"/><path d="M680.76,34,679,28.6,677.34,34h-1.68l-2.28-7.35H675L676.59,32l1.75-5.34h1.41L681.49,32,683,26.64h1.68L682.43,34Z" fill="#fff"/></g></g></svg>