<svg xmlns="http://www.w3.org/2000/svg" xmlns:xlink="http://www.w3.org/1999/xlink" viewBox="0 0 300 600"><defs><clipPath id="clip-path" transform="translate(-0.24)"><rect y="167.9" width="184.45" height="142.53" fill="none"/></clipPath></defs><title>bg</title><g id="Layer_2" data-name="Layer 2"><g id="content"><rect width="300" height="600"/><path d="M.24,600c1.28-89.39,67.09-150,149.85-150s150.15,67.16,150.15,150" transform="translate(-0.24)" fill="#e52823"/><g clip-path="url(#clip-path)"><g clip-path="url(#clip-path)"><path d="M44.3,223.6c18.72-5.71,28.17,8.62,28.17,8.62s-5.94-20-28.17-8.62" transform="translate(-0.24)" fill="#fff"/><path d="M80.48,224.34a5.14,5.14,0,0,1,0-.68A14,14,0,0,0,73.1,234.4s2.54-5.92,8.53-7.71a3.58,3.58,0,0,1-1.15-2.35" transform="translate(-0.24)" fill="#fff"/><path d="M56.61,232.7s0,2.82,0,4.25c-.72,0-3.82-.19-5.19-.24,0,.76,0,1.54,0,2.31,1.64,0,3.34.22,5,.21,0,1.37,0,2.55,0,3.92-1.64,0-3.27-.13-4.91-.16,0,.83,0,1.66,0,2.5,1.76,0,3.53.18,5.29.16,0-.06,0,4.17,0,4.17-3.48,0-7.6-.27-11.51-.6l.27-17.39c1.65.19,6.75.73,11.2.87" transform="translate(-0.24)" fill="#fff"/><path d="M58.09,232.74,58,237.28c1.65.08,3.12.08,3.12.08l0,12.61a40,40,0,0,0,6.28-.08l-.07-12.49s2.78-.13,3.21-.17c0-1.66-.05-3-.06-4.64a111.23,111.23,0,0,1-12.39.15" transform="translate(-0.24)" fill="#fff"/><path d="M142.05,230c0,1.8,0,3.47,0,5.27,1.07.06,2.27.27,3.34.36,0,4.4-.11,7.73-.12,12.12,3,.36,5.06.7,5.87.84,0-4.39.17-7.86.18-12.25,0,0,3.13.49,3.19.53v-5.42A96,96,0,0,0,142.05,230" transform="translate(-0.24)" fill="#fff"/><path d="M37.74,230l-7.45-1.36,0,18.26c1.9.37,3.65.69,5.51.89l0-5.27c.66.08,1.36.16,2,.22,3.23.3,6.48-.92,6.53-6.2,0-4.68-3.08-6-6.54-6.54m-1.38,8.41-.55-.06,0-3.58.53.06a1.82,1.82,0,0,1,1.82,1.91c0,1.48-.93,1.76-1.83,1.67" transform="translate(-0.24)" fill="#fff"/><path d="M99.9,247c.83-2.17,1.67-4.21,2.5-6.38.13,2.08.21,4,.35,6,2.08-.23,3.75-.35,5.84-.48-.54-5.54-1-11.48-1.55-17l-5.36.49c-1,2.62-2,5.8-3,8.42-1-2.42-1.94-5.27-2.91-7.69-1.81.26-5,.82-5.37.83-.62,5.65-1.32,11.93-1.94,17.58,1.42-.25,4.91-.8,6-1,.16-2.1.32-4.36.48-6.46l2.42,6,2.59-.4" transform="translate(-0.24)" fill="#fff"/><path d="M138.13,241.19c1.59-.72,2.74-2.26,2.78-5.32.06-4.61-3.2-6.58-6.5-6.83q-3.74-.3-7.49-.4c-.08,5.86-.11,11.22-.19,17.09,1.87.05,3.92.19,5.55.33,0-1.65,0-2.88.07-4.53,1.07,1.72,1.94,3.15,3,4.89,2.3.21,4.66.51,7,.85-1.44-2.15-2.73-4-4.17-6.08M133,237.43l-.56,0c0-1.18,0-2.35,0-3.53l.53,0a1.74,1.74,0,0,1,1.81,1.85,1.51,1.51,0,0,1-1.83,1.67" transform="translate(-0.24)" fill="#fff"/><path d="M120.39,228.51c-2.22,0-4,0-5.93.12-1.53,5.69-3.33,11.77-4.85,17.48,1.69,0,3.42-.15,5.11-.15l.5-1.9,2.59-.07c-.06,0,2.28-.07,2.28-.07.07.22.28.82.57,1.82,1.7,0,3.4,0,5.1,0-1.84-6-3.69-11.81-5.37-17.27m-4.07,11.54,1.16-4.44c.45,1.46.89,2.92,1.34,4.38-2.55.09-2.56.06-2.5.06" transform="translate(-0.24)" fill="#fff"/><path d="M152.47,246.94a.94.94,0,0,1,0,1.87.94.94,0,0,1,0-1.87Zm0,.15a.79.79,0,0,0,0,1.57.76.76,0,0,0,.75-.78.77.77,0,0,0-.75-.79Zm-.18,1.32h-.16v-1a1.17,1.17,0,0,1,.29,0,.49.49,0,0,1,.32.08.22.22,0,0,1,.1.21.27.27,0,0,1-.2.26h0c.09,0,.15.1.17.25a.57.57,0,0,0,.07.25h-.18a.78.78,0,0,1-.07-.26.19.19,0,0,0-.22-.18h-.12Zm0-.57h.12c.14,0,.26-.05.26-.18s-.07-.18-.26-.18h-.12Z" transform="translate(-0.24)" fill="#fff"/><path d="M72.47,248.35a15.28,15.28,0,0,0,6.9,1.75c3.89,0,8-2.34,8.06-6.7.06-3.11-1.91-4.59-4.67-5.21l-1.48-.33c-.5-.12-1.31-.22-1.3-.9s.86-1,1.43-1a10.26,10.26,0,0,1,4,.84c.55-1.47,1.11-2.93,1.66-4.39a13.06,13.06,0,0,0-5.68-1.36c-3.92,0-7.86,2.38-8,6.72-.06,2.87,2.06,4.44,4.61,4.91l1.31.25c.6.12,1.45.19,1.44,1s-1,.92-1.68.92a7.82,7.82,0,0,1-4.48-1.48c-.67,1.52-1.47,3.41-2.15,4.93" transform="translate(-0.24)" fill="#fff"/><path d="M86.58,218.63a4.39,4.39,0,1,0,4.33,4.44,4.39,4.39,0,0,0-4.33-4.44m1.59,1.62A5.26,5.26,0,0,0,83.46,223s0,.05,0,.07a3.19,3.19,0,0,1,.11-1.22,3,3,0,0,1,3.65-2.13,2.7,2.7,0,0,1,1,.55l-.06,0" transform="translate(-0.24)" fill="#fff"/></g></g><g id="Layer_5" data-name="Layer 5"><path d="M23,55.88V35.5H33a6.84,6.84,0,0,1,2.49.41A5.17,5.17,0,0,1,37.28,37a4.78,4.78,0,0,1,1.12,1.65,5.4,5.4,0,0,1,.38,2,5.12,5.12,0,0,1-.29,1.74,5.06,5.06,0,0,1-.78,1.39,4.63,4.63,0,0,1-1.13,1,4.37,4.37,0,0,1-1.35.55,4.13,4.13,0,0,1,1.55.56A4.93,4.93,0,0,1,38,47a5.17,5.17,0,0,1,.84,1.53,5.33,5.33,0,0,1,.31,1.78,6.06,6.06,0,0,1-.39,2.2,4.88,4.88,0,0,1-1.13,1.76,5,5,0,0,1-1.86,1.16,7.21,7.21,0,0,1-2.55.42Zm9.32-12a2.85,2.85,0,0,0,2.11-.73,2.49,2.49,0,0,0,.73-1.87,2.55,2.55,0,0,0-.73-1.86,2.85,2.85,0,0,0-2.11-.74H26.53v5.2Zm.15,8.83A3.23,3.23,0,0,0,34.7,52a2.68,2.68,0,0,0,.81-2.08,2.82,2.82,0,0,0-.78-2,3,3,0,0,0-2.31-.83H26.53V52.7Z" transform="translate(-0.24)" fill="#fff"/><path d="M46.48,56.24a3.76,3.76,0,0,1-2.83-1,3.87,3.87,0,0,1-1-2.84V35.5H45.9V51.63a2.14,2.14,0,0,0,.35,1.27,1.2,1.2,0,0,0,1,.5,2.24,2.24,0,0,0,.86-.17,1.57,1.57,0,0,0,.58-.38l.76,2.44a3.45,3.45,0,0,1-1.16.68A5.46,5.46,0,0,1,46.48,56.24Z" transform="translate(-0.24)" fill="#fff"/><path d="M61.82,55.88v-2a6.42,6.42,0,0,1-2.07,1.74,5.55,5.55,0,0,1-2.67.64,6.44,6.44,0,0,1-2.61-.52,5.5,5.5,0,0,1-2.08-1.53A7.12,7.12,0,0,1,51,51.75a10,10,0,0,1-.49-3.27A9.83,9.83,0,0,1,51,45.27a7.22,7.22,0,0,1,1.36-2.44,5.84,5.84,0,0,1,2.06-1.54,6.31,6.31,0,0,1,2.63-.54,5.91,5.91,0,0,1,2.63.61,6.1,6.1,0,0,1,2.11,1.8v-2H65V55.88ZM58,53.4a4.35,4.35,0,0,0,1.11-.15,4.79,4.79,0,0,0,1.07-.43,5,5,0,0,0,.92-.63,3.65,3.65,0,0,0,.69-.78V45.58a4.9,4.9,0,0,0-.69-.77,5.57,5.57,0,0,0-.92-.64,4.77,4.77,0,0,0-1.07-.42A4,4,0,0,0,58,43.59a3.84,3.84,0,0,0-1.74.37A4,4,0,0,0,55,45a4.33,4.33,0,0,0-.84,1.54,6.84,6.84,0,0,0,0,3.94A4.51,4.51,0,0,0,55,52,3.88,3.88,0,0,0,58,53.4Z" transform="translate(-0.24)" fill="#fff"/><path d="M75.9,56.24a7.85,7.85,0,0,1-3.07-.58A7.16,7.16,0,0,1,70.43,54a7.46,7.46,0,0,1-1.57-2.46,8.22,8.22,0,0,1-.57-3.1,8.08,8.08,0,0,1,.57-3.08A7.52,7.52,0,0,1,70.43,43a7.16,7.16,0,0,1,2.4-1.62,7.85,7.85,0,0,1,3.07-.58,8.44,8.44,0,0,1,2,.21,6.84,6.84,0,0,1,1.56.59,5.65,5.65,0,0,1,1.21.84,7,7,0,0,1,.91,1l-2.1,1.92a4,4,0,0,0-3.4-1.71A4.15,4.15,0,0,0,72.82,45a5.08,5.08,0,0,0-1.23,3.53,5.94,5.94,0,0,0,.32,2A4.67,4.67,0,0,0,72.83,52a4.26,4.26,0,0,0,3.22,1.39,4,4,0,0,0,3.4-1.77l2.1,2a7.31,7.31,0,0,1-2.13,1.84A6.87,6.87,0,0,1,75.9,56.24Z" transform="translate(-0.24)" fill="#fff"/><path d="M94.17,55.88l-4.49-6.12L87.6,51.9v4H84.39V35.5H87.6V48.24l6.51-7.12h4L92,47.81l6.24,8.07Z" transform="translate(-0.24)" fill="#fff"/><path d="M108.47,55.88V35.5h14v3.17H112.05v5.2h10.17v3.18H112.05v8.83Z" transform="translate(-0.24)" fill="#fff"/><path d="M125.58,55.88V41.12h3.21v2.14a7.2,7.2,0,0,1,2.11-1.79,5.29,5.29,0,0,1,2.69-.72v3.18a4.81,4.81,0,0,0-1-.09,4.26,4.26,0,0,0-1.09.15,5,5,0,0,0-1.09.43,4.66,4.66,0,0,0-1,.64,3.33,3.33,0,0,0-.67.76V55.88Z" transform="translate(-0.24)" fill="#fff"/><path d="M137.8,39.31a2,2,0,0,1-2-2,2,2,0,0,1,2-2,2,2,0,0,1,1.41.58,1.92,1.92,0,0,1,.58,1.41,1.88,1.88,0,0,1-.58,1.4A1.92,1.92,0,0,1,137.8,39.31Zm-1.62,16.57V41.12h3.21V55.88Z" transform="translate(-0.24)" fill="#fff"/><path d="M153.93,55.88v-2a6.38,6.38,0,0,1-2.06,1.74,5.55,5.55,0,0,1-2.67.64,6.44,6.44,0,0,1-2.61-.52,5.5,5.5,0,0,1-2.08-1.53,7.29,7.29,0,0,1-1.36-2.44,10,10,0,0,1-.49-3.27,9.83,9.83,0,0,1,.49-3.21,7.39,7.39,0,0,1,1.36-2.44,5.84,5.84,0,0,1,2.06-1.54,6.31,6.31,0,0,1,2.63-.54,5.74,5.74,0,0,1,4.73,2.41V35.5h3.21V55.88Zm-3.78-2.48a4.3,4.3,0,0,0,1.11-.15,4.79,4.79,0,0,0,1.07-.43,5,5,0,0,0,.92-.63,3.35,3.35,0,0,0,.68-.78V45.58a4.37,4.37,0,0,0-.68-.77,5.57,5.57,0,0,0-.92-.64,4.77,4.77,0,0,0-1.07-.42,3.92,3.92,0,0,0-1.11-.16,3.87,3.87,0,0,0-1.74.37,4,4,0,0,0-1.32,1,4.33,4.33,0,0,0-.84,1.54,6.84,6.84,0,0,0,0,3.94,4.51,4.51,0,0,0,.84,1.56,3.88,3.88,0,0,0,3.06,1.39Z" transform="translate(-0.24)" fill="#fff"/><path d="M171.69,55.88v-2a6.49,6.49,0,0,1-2.06,1.74,5.61,5.61,0,0,1-2.68.64,6.44,6.44,0,0,1-2.61-.52,5.5,5.5,0,0,1-2.08-1.53,7.29,7.29,0,0,1-1.36-2.44,10.31,10.31,0,0,1-.49-3.27,10.11,10.11,0,0,1,.49-3.21,7.39,7.39,0,0,1,1.36-2.44,5.84,5.84,0,0,1,2.06-1.54,6.31,6.31,0,0,1,2.63-.54,5.91,5.91,0,0,1,2.63.61,6,6,0,0,1,2.11,1.8v-2h3.21V55.88ZM167.9,53.4a4.24,4.24,0,0,0,1.11-.15,4.79,4.79,0,0,0,1.07-.43,4.67,4.67,0,0,0,.92-.63,3.17,3.17,0,0,0,.69-.78V45.58a4.07,4.07,0,0,0-.69-.77,5.18,5.18,0,0,0-.92-.64,4.77,4.77,0,0,0-1.07-.42,4.14,4.14,0,0,0-2.85.21,4,4,0,0,0-1.32,1,4.66,4.66,0,0,0-.84,1.54,6.84,6.84,0,0,0,0,3.94,4.87,4.87,0,0,0,.84,1.56,3.85,3.85,0,0,0,1.32,1A3.9,3.9,0,0,0,167.9,53.4Z" transform="translate(-0.24)" fill="#fff"/><path d="M184.86,61.86a9.29,9.29,0,0,1-3.3-.53,7.93,7.93,0,0,1-2.66-1.67l1.5-2.32a4.45,4.45,0,0,0,2,1.45,7,7,0,0,0,2.48.45,4.19,4.19,0,0,0,3-1.06,4,4,0,0,0,1.1-3V53.43A7.92,7.92,0,0,1,186.89,55a6.47,6.47,0,0,1-3.07.71,4.85,4.85,0,0,1-3.58-1.2,4.76,4.76,0,0,1-1.19-3.47v-10h3.21v8.77a2.88,2.88,0,0,0,.81,2.36,3.36,3.36,0,0,0,2.18.66,4.28,4.28,0,0,0,2.22-.59A5.25,5.25,0,0,0,189,51V41.12h3.21v14a7.24,7.24,0,0,1-.55,2.92,5.69,5.69,0,0,1-1.54,2.11,6.78,6.78,0,0,1-2.34,1.27A9.79,9.79,0,0,1,184.86,61.86Z" transform="translate(-0.24)" fill="#fff"/><path d="M214.65,55.88v-2a6.49,6.49,0,0,1-2.06,1.74,5.61,5.61,0,0,1-2.68.64,6.44,6.44,0,0,1-2.61-.52,5.5,5.5,0,0,1-2.08-1.53,7.29,7.29,0,0,1-1.36-2.44,10.31,10.31,0,0,1-.49-3.27,10.11,10.11,0,0,1,.49-3.21,7.39,7.39,0,0,1,1.36-2.44,5.84,5.84,0,0,1,2.06-1.54,6.31,6.31,0,0,1,2.63-.54,5.91,5.91,0,0,1,2.63.61,6,6,0,0,1,2.11,1.8V35.5h3.21V55.88Zm-3.79-2.48a4.3,4.3,0,0,0,1.11-.15,4.79,4.79,0,0,0,1.07-.43,5,5,0,0,0,.92-.63,3.65,3.65,0,0,0,.69-.78V45.58a4.9,4.9,0,0,0-.69-.77,5.57,5.57,0,0,0-.92-.64,4.77,4.77,0,0,0-1.07-.42A4,4,0,0,0,207.8,45a4.66,4.66,0,0,0-.84,1.54,6.84,6.84,0,0,0,0,3.94A4.87,4.87,0,0,0,207.8,52a3.85,3.85,0,0,0,1.32,1A3.9,3.9,0,0,0,210.86,53.4Z" transform="translate(-0.24)" fill="#fff"/><path d="M228.85,56.24a8.45,8.45,0,0,1-3.1-.55,6.92,6.92,0,0,1-2.44-1.57,7.18,7.18,0,0,1-1.6-2.46,8.69,8.69,0,0,1,0-6.19,7.33,7.33,0,0,1,6.94-4.72,7.23,7.23,0,0,1,3,.6A6.59,6.59,0,0,1,233.9,43a7.56,7.56,0,0,1,1.45,2.54,10,10,0,0,1,.5,3.21v.79H224.49a4.66,4.66,0,0,0,.44,1.56,4.31,4.31,0,0,0,.95,1.3,4.26,4.26,0,0,0,1.42.88,5,5,0,0,0,1.86.32,6.62,6.62,0,0,0,2.26-.42,5.37,5.37,0,0,0,2-1.23l1.46,2.11a7.26,7.26,0,0,1-2.69,1.62A9.69,9.69,0,0,1,228.85,56.24Zm3.92-9a4.43,4.43,0,0,0-.29-1.33,4,4,0,0,0-.77-1.25,3.8,3.8,0,0,0-1.27-.93,4.2,4.2,0,0,0-1.86-.37,4.27,4.27,0,0,0-1.77.35,3.75,3.75,0,0,0-1.27.92,4.23,4.23,0,0,0-1.08,2.61Z" transform="translate(-0.24)" fill="#fff"/><path d="M249.42,55.88v-2a6.49,6.49,0,0,1-2.06,1.74,5.61,5.61,0,0,1-2.68.64,6.44,6.44,0,0,1-2.61-.52A5.5,5.5,0,0,1,240,54.19a7.29,7.29,0,0,1-1.36-2.44,10.31,10.31,0,0,1-.49-3.27,10.11,10.11,0,0,1,.49-3.21A7.39,7.39,0,0,1,240,42.83a5.84,5.84,0,0,1,2.06-1.54,6.31,6.31,0,0,1,2.63-.54,5.91,5.91,0,0,1,2.63.61,6,6,0,0,1,2.11,1.8v-2h3.21V55.88Zm-3.79-2.48a4.24,4.24,0,0,0,1.11-.15,4.79,4.79,0,0,0,1.07-.43,4.67,4.67,0,0,0,.92-.63,3.39,3.39,0,0,0,.69-.78V45.58a4.44,4.44,0,0,0-.69-.77,5.18,5.18,0,0,0-.92-.64,4.77,4.77,0,0,0-1.07-.42,4.14,4.14,0,0,0-2.85.21,4,4,0,0,0-1.32,1,4.66,4.66,0,0,0-.84,1.54,6.84,6.84,0,0,0,0,3.94,4.87,4.87,0,0,0,.84,1.56,3.85,3.85,0,0,0,1.32,1A3.9,3.9,0,0,0,245.63,53.4Z" transform="translate(-0.24)" fill="#fff"/><path d="M260.57,56.24a3.79,3.79,0,0,1-2.83-1,3.87,3.87,0,0,1-1-2.84V35.5H260V51.63a2.21,2.21,0,0,0,.35,1.27,1.21,1.21,0,0,0,1.05.5,2.2,2.2,0,0,0,.86-.17,1.57,1.57,0,0,0,.58-.38l.77,2.44a3.61,3.61,0,0,1-1.17.68A5.46,5.46,0,0,1,260.57,56.24Z" transform="translate(-0.24)" fill="#fff"/><path d="M270.59,56.24a10.35,10.35,0,0,1-3.54-.59,7.84,7.84,0,0,1-2.78-1.73l1.46-2.29a6.32,6.32,0,0,0,.95.76,7.07,7.07,0,0,0,1.22.66,8.39,8.39,0,0,0,1.39.46,6.33,6.33,0,0,0,1.42.17,3.68,3.68,0,0,0,2.2-.54,1.68,1.68,0,0,0,.74-1.42,1.18,1.18,0,0,0-.66-1.1,6.81,6.81,0,0,0-1.65-.61c-.66-.16-1.38-.33-2.15-.49a9.15,9.15,0,0,1-2.16-.73,4.87,4.87,0,0,1-1.65-1.32,3.52,3.52,0,0,1-.66-2.26,3.9,3.9,0,0,1,.39-1.72,4.11,4.11,0,0,1,1.11-1.43,5.71,5.71,0,0,1,1.82-1,8.18,8.18,0,0,1,2.49-.35,8.71,8.71,0,0,1,3.32.58,8.19,8.19,0,0,1,2.39,1.47l-1.34,2.26a5.37,5.37,0,0,0-1.82-1.25,6,6,0,0,0-2.55-.52,3.35,3.35,0,0,0-2,.52,1.55,1.55,0,0,0-.72,1.31,1.06,1.06,0,0,0,.66,1,7.37,7.37,0,0,0,1.65.56l2.15.49a9.37,9.37,0,0,1,2.16.77,4.67,4.67,0,0,1,1.65,1.37,3.84,3.84,0,0,1,.65,2.34,4.36,4.36,0,0,1-.39,1.83,4.07,4.07,0,0,1-1.18,1.47,5.72,5.72,0,0,1-1.93,1A9.13,9.13,0,0,1,270.59,56.24Z" transform="translate(-0.24)" fill="#fff"/><path d="M34.42,95a17.6,17.6,0,0,1-7.18-1.33,15.29,15.29,0,0,1-5-3.43l3-4.09A14.28,14.28,0,0,0,29.1,89a11.75,11.75,0,0,0,5.54,1.26,9.36,9.36,0,0,0,2.77-.36A5.38,5.38,0,0,0,39.25,89a3.71,3.71,0,0,0,1-1.33,3.64,3.64,0,0,0,.34-1.5,2.69,2.69,0,0,0-1.28-2.4,12.4,12.4,0,0,0-3.24-1.42c-1.3-.39-2.7-.76-4.19-1.12a20.64,20.64,0,0,1-4.2-1.48,9.14,9.14,0,0,1-3.24-2.58,7,7,0,0,1-1.27-4.38A7.79,7.79,0,0,1,24,69.29a8.8,8.8,0,0,1,2.2-2.79,10.4,10.4,0,0,1,3.44-1.86A14.07,14.07,0,0,1,34.11,64a17,17,0,0,1,6.3,1.1,14.37,14.37,0,0,1,4.88,3.12l-3,3.9a11.07,11.07,0,0,0-4.06-2.62,13.26,13.26,0,0,0-4.65-.83,6,6,0,0,0-3.66,1,3.23,3.23,0,0,0-1.37,2.69,2.4,2.4,0,0,0,1.28,2.16,13.22,13.22,0,0,0,3.24,1.3c1.3.36,2.7.73,4.19,1.1a19.67,19.67,0,0,1,4.2,1.57,9.44,9.44,0,0,1,3.23,2.7A7.14,7.14,0,0,1,46,85.65a9.49,9.49,0,0,1-.68,3.57,7.9,7.9,0,0,1-2.09,3,10.19,10.19,0,0,1-3.61,2A16.49,16.49,0,0,1,34.42,95Z" transform="translate(-0.24)" fill="#fff"/><path d="M58,94.41V69.13H48.88V64.46H72.27v4.67H63.2V94.41Z" transform="translate(-0.24)" fill="#fff"/><path d="M94.81,94.41l-2.2-5.79H78.87l-2.2,5.79h-6L82.46,64.46H89l11.76,30ZM85.74,69.67,80.35,84H91.13Z" transform="translate(-0.24)" fill="#fff"/><path d="M121.12,94.41l-6.6-11.18h-5.25V94.41H104V64.46h13.16a11.46,11.46,0,0,1,4,.68,8.86,8.86,0,0,1,3.12,1.92,8.64,8.64,0,0,1,2,3,10.14,10.14,0,0,1,.69,3.79,9.75,9.75,0,0,1-.6,3.53A8.84,8.84,0,0,1,124.8,80a7.8,7.8,0,0,1-2.29,1.75,9.47,9.47,0,0,1-2.65.87l7.37,11.77ZM116.5,78.56a5.31,5.31,0,0,0,3.68-1.29,4.43,4.43,0,0,0,1.44-3.47,4.3,4.3,0,0,0-1.44-3.4,5.35,5.35,0,0,0-3.68-1.27h-7.23v9.43Z" transform="translate(-0.24)" fill="#fff"/><path d="M139.4,94.41V69.13h-9.07V64.46h23.39v4.67h-9.07V94.41Z" transform="translate(-0.24)" fill="#fff"/><path d="M190.63,94.41,175,73V94.41h-5.25V64.46h5.39l15.31,20.75V64.46h5.25v30Z" transform="translate(-0.24)" fill="#fff"/><path d="M216.08,95a15.88,15.88,0,0,1-6.17-1.17,14.36,14.36,0,0,1-8-8.13,17.69,17.69,0,0,1,0-12.39,14.38,14.38,0,0,1,8-8.12,16.88,16.88,0,0,1,12.35,0,14.14,14.14,0,0,1,4.82,3.23,14.9,14.9,0,0,1,3.17,4.89,17.4,17.4,0,0,1,0,12.39,14.84,14.84,0,0,1-3.17,4.9,14.29,14.29,0,0,1-4.82,3.23A15.9,15.9,0,0,1,216.08,95Zm0-4.67a9.9,9.9,0,0,0,4.09-.83,9.45,9.45,0,0,0,3.14-2.27,9.82,9.82,0,0,0,2-3.43,13.13,13.13,0,0,0,.7-4.29,13,13,0,0,0-.7-4.31,9.73,9.73,0,0,0-2-3.41,9.31,9.31,0,0,0-3.14-2.27,10.54,10.54,0,0,0-8.2,0,9.43,9.43,0,0,0-3.12,2.27,9.86,9.86,0,0,0-2,3.41,12.73,12.73,0,0,0-.7,4.31,12.87,12.87,0,0,0,.7,4.29,10,10,0,0,0,2,3.43A9.58,9.58,0,0,0,212,89.45,9.89,9.89,0,0,0,216.08,90.28Z" transform="translate(-0.24)" fill="#fff"/><path d="M258.42,94.41l-5.79-22.14L246.8,94.41h-5.62l-8.53-29.95h5.84l5.84,23,6.19-23h4.18l6.19,23,5.84-23h5.88l-8.57,30Z" transform="translate(-0.24)" fill="#fff"/></g></g></g></svg>