<svg xmlns="http://www.w3.org/2000/svg" xmlns:xlink="http://www.w3.org/1999/xlink" viewBox="0 0 300 250"><defs><clipPath id="clip-path"><rect x="0.5" y="136.2" width="135.92" height="105.03" fill="none"/></clipPath></defs><g id="Layer_2" data-name="Layer 2"><g id="Layer_1-2" data-name="Layer 1"><g id="Layer_1-3" data-name="Layer 1"><rect width="300" height="250"/></g><path d="M300,219.56c-14.19-27.25-44.59-46.09-79.71-46.09-47.12,0-84.89,30.6-87.89,76.23H300Z" fill="#e52823"/><g id="Content"><g clip-path="url(#clip-path)"><g clip-path="url(#clip-path)"><path d="M33.14,177.24c13.79-4.21,20.76,6.35,20.76,6.35s-4.38-14.74-20.76-6.35" fill="#fff"/><path d="M59.8,177.79c0-.06,0-.44,0-.5a10.3,10.3,0,0,0-5.44,7.91,11,11,0,0,1,6.29-5.69,2.66,2.66,0,0,1-.85-1.72" fill="#fff"/><path d="M42.21,183.94s0,2.09,0,3.14c-.52,0-2.81-.15-3.82-.18,0,.56,0,1.14,0,1.7,1.21,0,2.46.17,3.66.16,0,1,0,1.88,0,2.89-1.21,0-2.41-.1-3.62-.12,0,.61,0,1.23,0,1.84,1.3,0,2.59.13,3.89.12,0-.05,0,3.07,0,3.07-2.57,0-5.61-.2-8.49-.44L34,183.3c1.21.15,5,.55,8.25.64" fill="#fff"/><path d="M43.3,184l0,3.35c1.21.06,2.3.06,2.3.06v9.29a28.72,28.72,0,0,0,4.63-.06l-.06-9.2,2.37-.12c0-1.23,0-2.19,0-3.42a79.37,79.37,0,0,1-9.13.1" fill="#fff"/><path d="M105.17,181.93v3.89c.78,0,1.67.2,2.45.27,0,3.23-.08,5.69-.08,8.92,2.18.27,3.73.52,4.33.63,0-3.24.12-5.8.13-9,0,0,2.31.35,2.35.39v-4a71.76,71.76,0,0,0-9.18-1.08" fill="#fff"/><path d="M28.31,182l-5.49-1,0,13.45c1.4.27,2.69.51,4.06.66l0-3.89c.48.06,1,.12,1.48.16,2.38.23,4.78-.67,4.82-4.56,0-3.45-2.28-4.45-4.82-4.83m-1,6.2-.4,0c0-.88,0-1.76,0-2.64l.39,0A1.36,1.36,0,0,1,28.64,187c0,1.09-.68,1.3-1.35,1.23" fill="#fff"/><path d="M74.11,194.48c.62-1.61,1.23-3.1,1.85-4.7.09,1.53.15,2.92.25,4.45,1.53-.17,2.76-.26,4.31-.36-.4-4.08-.75-8.46-1.14-12.54q-2,.16-4,.36c-.74,1.92-1.48,4.27-2.22,6.2-.71-1.79-1.42-3.88-2.14-5.67-1.33.19-3.71.61-4,.61-.46,4.17-1,8.79-1.44,13,1-.19,3.62-.6,4.39-.7.12-1.55.24-3.21.36-4.77.59,1.49,1.19,3,1.78,4.45.33,0,1.52-.23,1.91-.29" fill="#fff"/><path d="M102.28,190.2c1.18-.53,2-1.67,2-3.92,0-3.4-2.35-4.85-4.78-5-1.84-.15-3.69-.25-5.53-.3-.06,4.32-.08,8.27-.14,12.59,1.38,0,2.89.15,4.09.25,0-1.22,0-2.12,0-3.34.79,1.27,1.43,2.32,2.22,3.61,1.69.15,3.43.37,5.12.62-1.06-1.59-2-2.94-3.08-4.48m-3.81-2.77-.41,0c0-.87,0-1.74,0-2.6l.39,0a1.3,1.3,0,0,1,1.34,1.37,1.12,1.12,0,0,1-1.36,1.23" fill="#fff"/><path d="M89.21,180.86c-1.63,0-3,0-4.37.09-1.12,4.19-2.45,8.67-3.57,12.87,1.25,0,2.52-.1,3.77-.11.11-.44.24-1,.36-1.39l1.91,0s1.68-.05,1.68-.05c.05.16.2.6.42,1.33,1.25,0,2.51,0,3.76,0-1.35-4.43-2.72-8.7-4-12.72m-3,8.5.86-3.27c.33,1.08.66,2.15,1,3.23a15.49,15.49,0,0,1-1.84,0" fill="#fff"/><path d="M112.85,194.44a.69.69,0,1,1-.68.69.68.68,0,0,1,.68-.69Zm0,.11a.58.58,0,0,0,0,1.16.58.58,0,0,0,0-1.16Zm-.13,1h-.12v-.77l.21,0a.41.41,0,0,1,.24.06.17.17,0,0,1,.07.16.17.17,0,0,1-.15.18h0c.07,0,.12.07.13.19a.86.86,0,0,0,.05.19H113a.79.79,0,0,1,0-.2.14.14,0,0,0-.16-.13h-.09Zm0-.43h.09c.1,0,.18,0,.18-.13s0-.13-.18-.13h-.09Z" fill="#fff"/><path d="M53.9,195.48A11.42,11.42,0,0,0,59,196.77c2.87,0,5.88-1.72,5.94-4.94,0-2.29-1.41-3.38-3.44-3.84l-1.09-.24c-.37-.09-1-.16-1-.67s.63-.71,1.05-.71a7.52,7.52,0,0,1,2.93.62c.41-1.08.82-2.16,1.22-3.24a9.72,9.72,0,0,0-4.18-1c-2.89,0-5.8,1.75-5.86,5,0,2.11,1.52,3.27,3.4,3.61l1,.18c.44.09,1.07.15,1.06.76s-.76.67-1.24.67a5.62,5.62,0,0,1-3.29-1.09c-.5,1.13-1.09,2.52-1.59,3.64" fill="#fff"/><path d="M64.3,173.57a3.24,3.24,0,1,0,3.19,3.28,3.24,3.24,0,0,0-3.19-3.28m1.17,1.2a3.86,3.86,0,0,0-3.47,2,.07.07,0,0,0,0,0,2.31,2.31,0,0,1,.07-.9,2.21,2.21,0,0,1,2.69-1.57,1.87,1.87,0,0,1,.76.41l0,0" fill="#fff"/></g></g></g><path d="M14.77,13.47H26a7,7,0,0,1,3.34.75,5.18,5.18,0,0,1,2.1,2,5.33,5.33,0,0,1,.7,2.7,5,5,0,0,1-1.05,3.26,4.47,4.47,0,0,1-2.63,1.64,4.43,4.43,0,0,1,2.91,1.76,5.46,5.46,0,0,1,1.19,3.48,5.62,5.62,0,0,1-1.63,4.13,6.19,6.19,0,0,1-4.58,1.63H14.77ZM25,22.05a2.5,2.5,0,0,0,1.82-.66,2.28,2.28,0,0,0,.67-1.71A2.25,2.25,0,0,0,26.81,18a2.5,2.5,0,0,0-1.8-.67h-5.7v4.71Zm.16,8.89a2.82,2.82,0,0,0,2-.69,2.57,2.57,0,0,0,0-3.61,2.75,2.75,0,0,0-2-.72H19.31v5Z" fill="#fff"/><path d="M37,34.16A4.2,4.2,0,0,1,35.89,31V13.47H40V29.92a1.9,1.9,0,0,0,.38,1.21,1.26,1.26,0,0,0,1,.48,2.78,2.78,0,0,0,.83-.12,1.22,1.22,0,0,0,.54-.32l.87,3.07a5,5,0,0,1-3.36,1A4.51,4.51,0,0,1,37,34.16Z" fill="#fff"/><path d="M56,32.83a6.22,6.22,0,0,1-2.12,1.78,5.83,5.83,0,0,1-2.64.62,6.6,6.6,0,0,1-3.52-1,6.44,6.44,0,0,1-2.45-2.79,9.92,9.92,0,0,1-.88-4.36,9.84,9.84,0,0,1,.88-4.31A6.73,6.73,0,0,1,47.74,20a6.45,6.45,0,0,1,3.54-1A6,6,0,0,1,56,21.34v-2h4.1V34.81H56Zm0-8.44a3.8,3.8,0,0,0-1.5-1.27,4.47,4.47,0,0,0-2-.5,3.58,3.58,0,0,0-2.81,1.24,4.72,4.72,0,0,0-1.09,3.26,4.72,4.72,0,0,0,1.09,3.24,3.52,3.52,0,0,0,2.81,1.25,4.45,4.45,0,0,0,2-.49A3.8,3.8,0,0,0,56,29.85Z" fill="#fff"/><path d="M64.24,22.9A7.46,7.46,0,0,1,67.15,20,8.42,8.42,0,0,1,71.37,19a8.1,8.1,0,0,1,3.71.79,6.38,6.38,0,0,1,2.4,2l-2.65,2.49a3.72,3.72,0,0,0-3.27-1.66,4,4,0,0,0-3,1.24,4.54,4.54,0,0,0-1.17,3.26,4.58,4.58,0,0,0,1.17,3.27,4.26,4.26,0,0,0,4.88.82A4,4,0,0,0,74.83,30l2.65,2.46a6.51,6.51,0,0,1-2.38,2,8,8,0,0,1-3.73.8,8.52,8.52,0,0,1-4.22-1,7.55,7.55,0,0,1-2.91-2.89,8.26,8.26,0,0,1-1.06-4.21A8.23,8.23,0,0,1,64.24,22.9Z" fill="#fff"/><path d="M86.06,28.86l-1.86,2v4H80.14V13.47H84.2V26.24l5.86-6.88h5l-6.11,7,6.3,8.44H90.16Z" fill="#fff"/><path d="M105.55,13.47h15.1v3.9H110.09V22h10.34v3.91H110.09v8.89h-4.54Z" fill="#fff"/><path d="M123.72,19.36h4.07v2.11A6.87,6.87,0,0,1,130,19.69a5.8,5.8,0,0,1,2.76-.72v4a5.59,5.59,0,0,0-1.12-.13,5.41,5.41,0,0,0-2.18.52,3.62,3.62,0,0,0-1.63,1.25V34.81h-4.07Z" fill="#fff"/><path d="M135.55,16.37a2.41,2.41,0,1,1,1.71.72A2.34,2.34,0,0,1,135.55,16.37Zm-.31,3h4.07V34.81h-4.07Z" fill="#fff"/><path d="M154,32.83a6.22,6.22,0,0,1-2.12,1.78,5.89,5.89,0,0,1-2.64.62,6.57,6.57,0,0,1-3.52-1,6.38,6.38,0,0,1-2.45-2.79,9.92,9.92,0,0,1-.88-4.36,9.84,9.84,0,0,1,.88-4.31A6.6,6.6,0,0,1,145.66,20a6.42,6.42,0,0,1,3.54-1A6,6,0,0,1,154,21.34V13.47h4.1V34.81H154Zm0-8.47a3.72,3.72,0,0,0-1.5-1.27,4.47,4.47,0,0,0-2-.5,3.55,3.55,0,0,0-2.81,1.25,4.81,4.81,0,0,0-1.09,3.28,4.72,4.72,0,0,0,1.09,3.24,3.52,3.52,0,0,0,2.81,1.25,4.45,4.45,0,0,0,2-.49,3.8,3.8,0,0,0,1.5-1.27Z" fill="#fff"/><path d="M172.72,32.83a6.35,6.35,0,0,1-2.13,1.78,5.83,5.83,0,0,1-2.64.62,6.6,6.6,0,0,1-3.52-1A6.44,6.44,0,0,1,162,31.48a9.92,9.92,0,0,1-.88-4.36,9.84,9.84,0,0,1,.88-4.31A6.73,6.73,0,0,1,164.41,20,6.45,6.45,0,0,1,168,19a6,6,0,0,1,2.62.61,6.14,6.14,0,0,1,2.15,1.76v-2h4.09V34.81h-4.09Zm0-8.44a3.9,3.9,0,0,0-1.51-1.27,4.46,4.46,0,0,0-2-.5,3.58,3.58,0,0,0-2.82,1.24,4.72,4.72,0,0,0-1.09,3.26,4.72,4.72,0,0,0,1.09,3.24,3.53,3.53,0,0,0,2.82,1.25,4.44,4.44,0,0,0,2-.49,3.9,3.9,0,0,0,1.51-1.27Z" fill="#fff"/><path d="M182.48,35.84a4.86,4.86,0,0,0,2,1.44,7.22,7.22,0,0,0,2.6.48,4.29,4.29,0,0,0,3.07-1,3.86,3.86,0,0,0,1.09-2.94v-1.6A7.23,7.23,0,0,1,189,33.85a7.16,7.16,0,0,1-3.16.68,5,5,0,0,1-3.74-1.28,5,5,0,0,1-1.25-3.59V19.36h4.07v8.7a2.79,2.79,0,0,0,.73,2.19,3.08,3.08,0,0,0,2.12.66,4.11,4.11,0,0,0,2-.51,4.93,4.93,0,0,0,1.51-1.25V19.36h4.06V33.6a7,7,0,0,1-2.22,5.52,8.76,8.76,0,0,1-6,2,9.45,9.45,0,0,1-6.47-2.31Z" fill="#fff"/><path d="M218.19,32.83a6.35,6.35,0,0,1-2.13,1.78,5.83,5.83,0,0,1-2.64.62,6.6,6.6,0,0,1-3.52-1,6.44,6.44,0,0,1-2.45-2.79,9.92,9.92,0,0,1-.88-4.36,9.84,9.84,0,0,1,.88-4.31A6.73,6.73,0,0,1,209.88,20a6.47,6.47,0,0,1,3.54-1,6,6,0,0,1,2.62.61,6.06,6.06,0,0,1,2.15,1.76V13.47h4.09V34.81h-4.09Zm0-8.47a3.75,3.75,0,0,0-1.51-1.27,4.46,4.46,0,0,0-2-.5,3.57,3.57,0,0,0-2.82,1.25,4.86,4.86,0,0,0-1.09,3.28,4.77,4.77,0,0,0,1.09,3.24,3.54,3.54,0,0,0,2.82,1.25,4.44,4.44,0,0,0,2-.49,3.83,3.83,0,0,0,1.51-1.27Z" fill="#fff"/><path d="M226.35,23a7.64,7.64,0,0,1,2.85-2.93,7.84,7.84,0,0,1,4.12-1.1,7.58,7.58,0,0,1,4,1.08,7.22,7.22,0,0,1,2.73,3,9.77,9.77,0,0,1,1,4.44v.89H229.58A4,4,0,0,0,231,31,4.52,4.52,0,0,0,234,32a6.44,6.44,0,0,0,2.25-.42,5.28,5.28,0,0,0,1.88-1.12L240,33.09a7.71,7.71,0,0,1-2.82,1.58,11.32,11.32,0,0,1-3.55.56,8.8,8.8,0,0,1-4.22-1,7.32,7.32,0,0,1-3-2.85,8.32,8.32,0,0,1-1.08-4.28A8.2,8.2,0,0,1,226.35,23Zm4.28.25a4.22,4.22,0,0,0-1.12,2.38h7.62a3.92,3.92,0,0,0-1-2.37,3.53,3.53,0,0,0-2.77-1.05A3.47,3.47,0,0,0,230.63,23.25Z" fill="#fff"/><path d="M254.63,32.83a6.22,6.22,0,0,1-2.12,1.78,5.83,5.83,0,0,1-2.64.62,6.6,6.6,0,0,1-3.52-1,6.44,6.44,0,0,1-2.45-2.79,9.92,9.92,0,0,1-.88-4.36,9.84,9.84,0,0,1,.88-4.31A6.73,6.73,0,0,1,246.33,20a6.45,6.45,0,0,1,3.54-1,6,6,0,0,1,4.76,2.37v-2h4.1V34.81h-4.1Zm0-8.44a3.8,3.8,0,0,0-1.5-1.27,4.46,4.46,0,0,0-2-.5,3.58,3.58,0,0,0-2.82,1.24,4.72,4.72,0,0,0-1.09,3.26,4.72,4.72,0,0,0,1.09,3.24,3.53,3.53,0,0,0,2.82,1.25,4.44,4.44,0,0,0,2-.49,3.8,3.8,0,0,0,1.5-1.27Z" fill="#fff"/><path d="M263.87,34.16A4.21,4.21,0,0,1,262.76,31V13.47h4.07V29.92a1.9,1.9,0,0,0,.38,1.21,1.25,1.25,0,0,0,1,.48,2.84,2.84,0,0,0,.84-.12,1.35,1.35,0,0,0,.54-.32l.86,3.07a4.91,4.91,0,0,1-3.35,1A4.5,4.5,0,0,1,263.87,34.16Z" fill="#fff"/><path d="M272.71,30a7.93,7.93,0,0,0,2.44,1.47,7.48,7.48,0,0,0,2.91.64,3.59,3.59,0,0,0,1.93-.42,1.3,1.3,0,0,0,.66-1.16,1.23,1.23,0,0,0-.77-1.13,10.06,10.06,0,0,0-2.33-.71,22.18,22.18,0,0,1-3.08-.77,5.09,5.09,0,0,1-2.11-1.39,3.78,3.78,0,0,1-.89-2.67,4.25,4.25,0,0,1,.75-2.43,5.09,5.09,0,0,1,2.19-1.78A8.07,8.07,0,0,1,277.8,19,9.72,9.72,0,0,1,284,21.09l-1.63,2.78a5.75,5.75,0,0,0-2-1.28,6.75,6.75,0,0,0-2.61-.51,3.58,3.58,0,0,0-1.77.38,1.18,1.18,0,0,0-.66,1.06,1.08,1.08,0,0,0,.72,1,11.12,11.12,0,0,0,2.23.65,21.37,21.37,0,0,1,3.1.81,5.41,5.41,0,0,1,2.18,1.47,4,4,0,0,1,.92,2.79,4.42,4.42,0,0,1-.78,2.56,5.12,5.12,0,0,1-2.3,1.78,9.22,9.22,0,0,1-3.6.64,11.58,11.58,0,0,1-3.86-.64A8.61,8.61,0,0,1,271,32.83Z" fill="#fff"/><path d="M17.36,69.17a14.08,14.08,0,0,0,4.44,3.12,13.55,13.55,0,0,0,5.73,1.2,6.9,6.9,0,0,0,4.11-1.07,3.1,3.1,0,0,0,1.46-2.56,2.68,2.68,0,0,0-1.58-2.48,20.81,20.81,0,0,0-4.9-1.62A54.07,54.07,0,0,1,20.53,64a10.25,10.25,0,0,1-4.11-2.82,7.57,7.57,0,0,1-1.75-5.27A8.65,8.65,0,0,1,16.16,51a10,10,0,0,1,4.25-3.48,15.1,15.1,0,0,1,6.4-1.28q7.64,0,12.48,4.46l-3.79,5a12.62,12.62,0,0,0-4.29-2.62,14.15,14.15,0,0,0-4.88-.89,5.81,5.81,0,0,0-3.48.9,2.81,2.81,0,0,0-1.22,2.39,2.3,2.3,0,0,0,1.49,2.2A28.79,28.79,0,0,0,28,59.23,43.91,43.91,0,0,1,34.09,61a10.59,10.59,0,0,1,4.17,2.91A7.58,7.58,0,0,1,40,69.14a9.38,9.38,0,0,1-3.28,7.46q-3.3,2.84-9.53,2.84-8.5,0-13.59-5.09Z" fill="#fff"/><path d="M51.68,52.8H42.32v-6H67.85v6H58.54v26H51.68Z" fill="#fff"/><path d="M89.55,73.29H75.25l-2,5.52H65.74l12.39-32h8.54L99,78.81H91.57Zm-12.48-5.9H87.68L82.4,52.7Z" fill="#fff"/><path d="M113.79,67.34h-5V78.81H102v-32h15a11.86,11.86,0,0,1,5.71,1.32,9.06,9.06,0,0,1,3.74,3.67,10.79,10.79,0,0,1,1.3,5.33,9.63,9.63,0,0,1-2,6.38,9,9,0,0,1-5,3.12l7.2,12.19h-7.82Zm5.59-13.46A4.94,4.94,0,0,0,116,52.65H108.8v8.84H116a4.94,4.94,0,0,0,3.43-1.23,4.4,4.4,0,0,0,0-6.38Z" fill="#fff"/><path d="M139.76,52.8H130.4v-6h25.53v6h-9.31v26h-6.86Z" fill="#fff"/><path d="M179.41,57.31v21.5h-6.82v-32h7l14.83,20.73V46.8h6.82v32h-6.58Z" fill="#fff"/><path d="M208.2,54.32a15.58,15.58,0,0,1,6-5.91,18.31,18.31,0,0,1,17.18,0,15.51,15.51,0,0,1,6,5.91,17.94,17.94,0,0,1,0,17.07,15.51,15.51,0,0,1-6,5.91,18.31,18.31,0,0,1-17.18,0,15.58,15.58,0,0,1-6-5.91,17.94,17.94,0,0,1,0-17.07Zm23.09,3.15a9,9,0,0,0-3.43-3.78,9.6,9.6,0,0,0-5.11-1.37,9.48,9.48,0,0,0-5.09,1.37,9.12,9.12,0,0,0-3.41,3.78,12.68,12.68,0,0,0,0,10.77A9.12,9.12,0,0,0,217.66,72a9.48,9.48,0,0,0,5.09,1.37A9.6,9.6,0,0,0,227.86,72a9,9,0,0,0,3.43-3.78,12.68,12.68,0,0,0,0-10.77Z" fill="#fff"/><path d="M262.2,56.83l-5.56,22h-7.25l-9.17-32h7.63l5.62,23.13,6.09-23.13h5.33l6.05,23.13,5.57-23.13h7.68l-9.12,32h-7.25Z" fill="#fff"/></g><g id="rec"><rect width="300" height="250" fill="none"/></g></g></svg>