<svg xmlns="http://www.w3.org/2000/svg" viewBox="0 0 160 600"><defs><style>.cls-1{fill:none;}.cls-2{fill:#e32d27;}.cls-3{fill:#fff;}</style></defs><g id="Layer_2" data-name="Layer 2"><g id="REC"><rect class="cls-1" width="160" height="600"/></g><g id="CTA"><path id="bg" class="cls-2" d="M127.22,310.55H33.62a11.17,11.17,0,0,1-11.34-11v-1.15a11.16,11.16,0,0,1,11.34-11h93.6a11.16,11.16,0,0,1,11.34,11v1.15a11.17,11.17,0,0,1-11.34,11"/><path class="cls-3" d="M52.26,303.26a5.67,5.67,0,0,1-2.24-.41,4.93,4.93,0,0,1-1.56-1.08l.92-1.27a4.37,4.37,0,0,0,1.23.91,3.64,3.64,0,0,0,1.72.39,2.79,2.79,0,0,0,.87-.11,1.7,1.7,0,0,0,.57-.29,1.18,1.18,0,0,0,.32-.42,1.12,1.12,0,0,0,.11-.47.84.84,0,0,0-.4-.74,3.65,3.65,0,0,0-1-.44c-.41-.13-.84-.24-1.31-.36a6.15,6.15,0,0,1-1.31-.46,2.83,2.83,0,0,1-1-.8,2.21,2.21,0,0,1-.4-1.37,2.45,2.45,0,0,1,.25-1.08,2.61,2.61,0,0,1,.69-.87,3.14,3.14,0,0,1,1.07-.58,4.38,4.38,0,0,1,1.4-.21,5.3,5.3,0,0,1,2,.34,4.47,4.47,0,0,1,1.52,1l-.92,1.21a3.69,3.69,0,0,0-1.27-.82,4.22,4.22,0,0,0-1.45-.26,1.84,1.84,0,0,0-1.14.33,1,1,0,0,0-.43.84.75.75,0,0,0,.4.67,4.6,4.6,0,0,0,1,.41l1.31.34a6.21,6.21,0,0,1,1.31.49,3,3,0,0,1,1,.84,2.27,2.27,0,0,1,.4,1.39,3,3,0,0,1-.21,1.11,2.57,2.57,0,0,1-.65.93,3.4,3.4,0,0,1-1.13.63A5.25,5.25,0,0,1,52.26,303.26Z"/><path class="cls-3" d="M61.91,303.09v-4.25a1.33,1.33,0,0,0-.36-1.09,1.61,1.61,0,0,0-1-.29,2,2,0,0,0-1,.28,2.39,2.39,0,0,0-.7.62v4.73H57.35v-9.34h1.47v3.49a3.1,3.1,0,0,1,.41-.39,2.72,2.72,0,0,1,.55-.35,2.83,2.83,0,0,1,.65-.25,3.19,3.19,0,0,1,.77-.09,2.19,2.19,0,0,1,1.63.55,2.12,2.12,0,0,1,.55,1.59v4.79Z"/><path class="cls-3" d="M68.35,303.26a3.59,3.59,0,0,1-1.46-.29,3.42,3.42,0,0,1-1.09-.77,3.21,3.21,0,0,1-.68-1.12,4.06,4.06,0,0,1,0-2.75,3.25,3.25,0,0,1,.68-1.13,3.39,3.39,0,0,1,1.09-.76,3.95,3.95,0,0,1,2.92,0,3.17,3.17,0,0,1,1.77,1.89,4.06,4.06,0,0,1,0,2.75,3.21,3.21,0,0,1-.68,1.12,3.31,3.31,0,0,1-1.09.77A3.59,3.59,0,0,1,68.35,303.26Zm0-1.3a1.74,1.74,0,0,0,.84-.19,1.81,1.81,0,0,0,.61-.48,2.19,2.19,0,0,0,.37-.73,3,3,0,0,0,.13-.86,3,3,0,0,0-.13-.85,2.23,2.23,0,0,0-.37-.72,2,2,0,0,0-.61-.49,2,2,0,0,0-1.67,0,2,2,0,0,0-1,1.21,3,3,0,0,0-.13.85,3,3,0,0,0,.13.86,2,2,0,0,0,.38.73,1.91,1.91,0,0,0,.61.48A1.75,1.75,0,0,0,68.35,302Z"/><path class="cls-3" d="M77,303.26a2.59,2.59,0,0,1-1.2-.29,2.9,2.9,0,0,1-1-.82v3.52H73.32v-9.34h1.47v.92a2.67,2.67,0,0,1,.94-.79,2.54,2.54,0,0,1,1.23-.3,2.92,2.92,0,0,1,1.2.24,2.7,2.7,0,0,1,1,.69,3.46,3.46,0,0,1,.62,1.12A4.53,4.53,0,0,1,80,299.7a4.63,4.63,0,0,1-.23,1.5,3.31,3.31,0,0,1-.62,1.11,2.61,2.61,0,0,1-1,.7A2.77,2.77,0,0,1,77,303.26Zm-.43-1.3a1.73,1.73,0,0,0,1.4-.63,2.5,2.5,0,0,0,.51-1.63,2.45,2.45,0,0,0-.51-1.61,1.73,1.73,0,0,0-1.4-.63,2.1,2.1,0,0,0-1,.26,2,2,0,0,0-.74.64V301a1.79,1.79,0,0,0,.31.37,2.16,2.16,0,0,0,.43.29,2.55,2.55,0,0,0,.48.2A2.4,2.4,0,0,0,76.53,302Z"/><path class="cls-3" d="M91.59,303.09l-4.87-6.68v6.68H85.08v-9.34h1.68l4.77,6.47v-6.47h1.64v9.34Z"/><path class="cls-3" d="M98.18,303.26a3.54,3.54,0,0,1-1.45-.29,3.21,3.21,0,0,1-1.09-.77,3.39,3.39,0,0,1-.69-1.12,4.06,4.06,0,0,1,0-2.75,3.44,3.44,0,0,1,.69-1.13,3.19,3.19,0,0,1,1.09-.76,3.54,3.54,0,0,1,1.45-.28,3.59,3.59,0,0,1,1.46.28,3.28,3.28,0,0,1,1.09.76,3.44,3.44,0,0,1,.69,1.13,4.06,4.06,0,0,1,0,2.75,3.39,3.39,0,0,1-.69,1.12,3.31,3.31,0,0,1-1.09.77A3.59,3.59,0,0,1,98.18,303.26Zm0-1.3a1.74,1.74,0,0,0,.84-.19,1.72,1.72,0,0,0,.61-.48,2,2,0,0,0,.37-.73,2.71,2.71,0,0,0,.13-.86,2.65,2.65,0,0,0-.13-.85,2.05,2.05,0,0,0-.37-.72,1.78,1.78,0,0,0-1.45-.67,1.8,1.8,0,0,0-.82.18,2,2,0,0,0-.62.49,2.26,2.26,0,0,0-.38.72,3,3,0,0,0-.12.85,3,3,0,0,0,.12.86,2.2,2.2,0,0,0,.38.73,1.85,1.85,0,0,0,.62.48A1.68,1.68,0,0,0,98.18,302Z"/><path class="cls-3" d="M109.06,303.09l-1.58-5-1.57,5h-1.54l-2.1-6.76h1.53l1.42,4.91,1.61-4.91h1.31l1.59,4.91,1.43-4.91h1.54l-2.1,6.76Z"/></g></g></svg>