<svg xmlns="http://www.w3.org/2000/svg" xmlns:xlink="http://www.w3.org/1999/xlink" viewBox="0 0 160.43 600.48"><defs><style>.cls-1{fill:none;}.cls-2{fill:#e52823;}.cls-3{fill:#e32d27;}.cls-4{clip-path:url(#clip-path);}.cls-5{clip-path:url(#clip-path-2);}.cls-6{fill:#fff;}</style><clipPath id="clip-path"><rect class="cls-1" x="19.99" y="329.98" width="102" height="25.83"/></clipPath><clipPath id="clip-path-2"><rect class="cls-1" x="19.99" y="329.98" width="102" height="25.83"/></clipPath></defs><g id="Layer_2" data-name="Layer 2"><g id="content"><rect x="0.43" y="0.48" width="160" height="600"/><path class="cls-2" d="M20.62,227.23v-13H27a4.57,4.57,0,0,1,1.59.26,3.44,3.44,0,0,1,1.16.71,3,3,0,0,1,.71,1.05,3.48,3.48,0,0,1,.24,1.29,3.31,3.31,0,0,1-.18,1.11,3,3,0,0,1-1.22,1.52,3.05,3.05,0,0,1-.86.35,2.57,2.57,0,0,1,1,.36,3.17,3.17,0,0,1,.8.71,3.55,3.55,0,0,1,.53,1,3.32,3.32,0,0,1,.2,1.13,3.75,3.75,0,0,1-.25,1.4,3.12,3.12,0,0,1-.72,1.13,3.25,3.25,0,0,1-1.19.74,4.75,4.75,0,0,1-1.62.26Zm5.94-7.66a1.84,1.84,0,0,0,1.35-.46,1.77,1.77,0,0,0,0-2.38,1.81,1.81,0,0,0-1.35-.47H22.9v3.31Zm.1,5.63a2,2,0,0,0,1.45-.47,1.7,1.7,0,0,0,.52-1.33,1.82,1.82,0,0,0-.5-1.27,1.93,1.93,0,0,0-1.47-.53H22.9v3.6Z"/><path class="cls-2" d="M39.56,227.23V226a4.94,4.94,0,0,1-1.35,1,4.14,4.14,0,0,1-2,.46A3.1,3.1,0,0,1,34,226.7a3,3,0,0,1-.76-2.22v-6.66h2v5.9a1.87,1.87,0,0,0,.51,1.51,2.16,2.16,0,0,0,1.4.42,2.62,2.62,0,0,0,1.41-.38,3.3,3.3,0,0,0,1-.84v-6.61h2v9.41Z"/><path class="cls-2" d="M48,231.05a6,6,0,0,1-2.11-.34,5.2,5.2,0,0,1-1.7-1.06l1-1.48a2.77,2.77,0,0,0,1.27.92,4.43,4.43,0,0,0,1.58.29,2.71,2.71,0,0,0,2-.68,2.57,2.57,0,0,0,.7-1.94v-1.09a5,5,0,0,1-1.36,1,4.11,4.11,0,0,1-2,.45,2.69,2.69,0,0,1-3-3v-6.35h2.05v5.59a1.84,1.84,0,0,0,.52,1.51,2.12,2.12,0,0,0,1.39.42,2.71,2.71,0,0,0,1.41-.38,3.35,3.35,0,0,0,1-.85v-6.29h2v8.94a4.56,4.56,0,0,1-.35,1.87,3.59,3.59,0,0,1-1,1.34,4.21,4.21,0,0,1-1.49.81A6.21,6.21,0,0,1,48,231.05Z"/><path class="cls-2" d="M62.76,227.23V217.17l-2.12,2.23L59.31,218l3.74-3.78h2v13Z"/><path class="cls-2" d="M70.29,226.49a3.76,3.76,0,0,1-.5,1.89,4.15,4.15,0,0,1-1.32,1.44l-.93-.76a2.72,2.72,0,0,0,.47-.35,4.47,4.47,0,0,0,.42-.45,3.77,3.77,0,0,0,.34-.51,1.58,1.58,0,0,0,.17-.52l-.13,0-.2,0a1.1,1.1,0,0,1-.82-.35,1.25,1.25,0,0,1-.33-.9,1.3,1.3,0,0,1,.38-.93,1.27,1.27,0,0,1,1-.39,1.41,1.41,0,0,1,1,.46A1.78,1.78,0,0,1,70.29,226.49Z"/><path class="cls-2" d="M81.4,231.05a7.07,7.07,0,0,1-2.15-.3,5.07,5.07,0,0,1-1.81-1.1l1-1.48a3.26,3.26,0,0,0,1.32.93,4.7,4.7,0,0,0,1.68.28,4.22,4.22,0,0,0,1-.13,2.36,2.36,0,0,0,.9-.44,2.24,2.24,0,0,0,.64-.81,2.75,2.75,0,0,0,.25-1.26v-1.07a4.25,4.25,0,0,1-1.32,1.15,3.38,3.38,0,0,1-1.7.43,4.36,4.36,0,0,1-1.67-.32,3.67,3.67,0,0,1-1.33-.94,4.2,4.2,0,0,1-.86-1.51,6.76,6.76,0,0,1,0-4.11,4.34,4.34,0,0,1,.86-1.52,3.66,3.66,0,0,1,1.32-.95,4.34,4.34,0,0,1,1.68-.32,3.69,3.69,0,0,1,1.67.39,3.88,3.88,0,0,1,1.35,1.15v-1.3h2v8.92a4.56,4.56,0,0,1-.43,2.11,3.49,3.49,0,0,1-1.12,1.33,4.39,4.39,0,0,1-1.56.68A7.75,7.75,0,0,1,81.4,231.05Zm.37-5.63a2.81,2.81,0,0,0,1.39-.37,3,3,0,0,0,1-.88v-3.53a2.89,2.89,0,0,0-1-.87,2.81,2.81,0,0,0-1.39-.37,2.45,2.45,0,0,0-2,.82,3.26,3.26,0,0,0-.72,2.2,3.18,3.18,0,0,0,.72,2.18A2.45,2.45,0,0,0,81.77,225.42Z"/><path class="cls-2" d="M93.25,227.47a5.36,5.36,0,0,1-2-.36,4.4,4.4,0,0,1-1.56-1,4.74,4.74,0,0,1-1-1.57,5.28,5.28,0,0,1-.37-2,5.4,5.4,0,0,1,.35-1.92,4.68,4.68,0,0,1,4.43-3A4.75,4.75,0,0,1,95,218,4.33,4.33,0,0,1,96.47,219a4.78,4.78,0,0,1,.92,1.62,6.16,6.16,0,0,1,.33,2.05v.51H90.46a3.06,3.06,0,0,0,.29,1,2.89,2.89,0,0,0,.6.83,2.63,2.63,0,0,0,.91.56,3.16,3.16,0,0,0,1.19.21,4.2,4.2,0,0,0,1.44-.27,3.69,3.69,0,0,0,1.25-.78l.93,1.34a4.64,4.64,0,0,1-1.71,1A6.2,6.2,0,0,1,93.25,227.47Zm2.5-5.74a3,3,0,0,0-.19-.84,2.37,2.37,0,0,0-.49-.8,2.59,2.59,0,0,0-.8-.6,2.87,2.87,0,0,0-1.19-.23,2.65,2.65,0,0,0-1.13.22,2.36,2.36,0,0,0-.81.59,2.57,2.57,0,0,0-.5.8,2.75,2.75,0,0,0-.2.86Z"/><path class="cls-2" d="M102.59,227.47a2.38,2.38,0,0,1-1.81-.63,2.46,2.46,0,0,1-.61-1.81v-5.44H98.61v-1.77h1.56v-2.58h2v2.58h1.91v1.77h-1.91v4.93a1.36,1.36,0,0,0,.22.81.76.76,0,0,0,.68.32,1.32,1.32,0,0,0,.53-.1,1.19,1.19,0,0,0,.36-.25l.49,1.56a2.26,2.26,0,0,1-.74.43A3.27,3.27,0,0,1,102.59,227.47Z"/><path class="cls-2" d="M24.83,248.25a4.87,4.87,0,0,1-2-.4,4.54,4.54,0,0,1-1.52-1.07,4.58,4.58,0,0,1-1-1.57,5.69,5.69,0,0,1,0-3.82,4.58,4.58,0,0,1,1-1.57,4.38,4.38,0,0,1,1.52-1.06,5.45,5.45,0,0,1,4.05,0,4.38,4.38,0,0,1,1.52,1.06,4.58,4.58,0,0,1,1,1.57,5.69,5.69,0,0,1,0,3.82,4.58,4.58,0,0,1-1,1.57,4.54,4.54,0,0,1-1.52,1.07A4.82,4.82,0,0,1,24.83,248.25Zm0-1.81a2.58,2.58,0,0,0,1.17-.26,2.43,2.43,0,0,0,.84-.68,3,3,0,0,0,.52-1,4.06,4.06,0,0,0,.18-1.2,3.9,3.9,0,0,0-.18-1.19,3.07,3.07,0,0,0-.52-1,2.55,2.55,0,0,0-.84-.68,2.58,2.58,0,0,0-1.17-.25,2.5,2.5,0,0,0-1.15.25,2.62,2.62,0,0,0-.86.68,2.91,2.91,0,0,0-.53,1,4.23,4.23,0,0,0-.17,1.19,4.4,4.4,0,0,0,.17,1.2,2.82,2.82,0,0,0,.53,1,2.57,2.57,0,0,0,2,.94Z"/><path class="cls-2" d="M38.12,248v-5.89a1.9,1.9,0,0,0-.51-1.53,2.16,2.16,0,0,0-1.4-.42,2.62,2.62,0,0,0-1.41.39,3.78,3.78,0,0,0-1,.86V248h-2V238.6h2v1.27a4.42,4.42,0,0,1,.58-.55,4.83,4.83,0,0,1,.77-.49,5,5,0,0,1,.92-.34,4.62,4.62,0,0,1,1.07-.12,2.71,2.71,0,0,1,3,3V248Z"/><path class="cls-2" d="M47.19,248.25a5.49,5.49,0,0,1-2-.35,4.36,4.36,0,0,1-1.56-1,4.71,4.71,0,0,1-1-1.57,5.51,5.51,0,0,1-.37-2,5.12,5.12,0,0,1,.36-1.92,4.59,4.59,0,0,1,1-1.57A4.7,4.7,0,0,1,47,238.37a4.56,4.56,0,0,1,1.91.38,4.07,4.07,0,0,1,1.46,1.06,4.62,4.62,0,0,1,.93,1.62,6.32,6.32,0,0,1,.32,2V244H44.4a3.17,3.17,0,0,0,.28,1,2.7,2.7,0,0,0,.61.82,2.77,2.77,0,0,0,.9.57,3.2,3.2,0,0,0,1.19.2,4.16,4.16,0,0,0,1.44-.27,3.32,3.32,0,0,0,1.25-.78l.94,1.35a4.82,4.82,0,0,1-1.72,1A6.34,6.34,0,0,1,47.19,248.25Zm2.49-5.73a2.7,2.7,0,0,0-.18-.85,2.65,2.65,0,0,0-.49-.8,2.57,2.57,0,0,0-.81-.59,3,3,0,0,0-2.32,0,2.54,2.54,0,0,0-.81.58,2.9,2.9,0,0,0-.5.8,2.72,2.72,0,0,0-.19.87Z"/><path class="cls-2" d="M63.31,248.25a6.77,6.77,0,0,1-2.85-.54,5.54,5.54,0,0,1-2-1.47l1.31-1.58a4.36,4.36,0,0,0,3.49,1.56,2.78,2.78,0,0,0,2-.66,2.16,2.16,0,0,0,.71-1.64,2.1,2.1,0,0,0-.7-1.67,2.77,2.77,0,0,0-1.91-.63,4.37,4.37,0,0,0-1.52.26,4.11,4.11,0,0,0-1.33.85l-1.62-.46V235H67.4v2H61.16v3.72a5.15,5.15,0,0,1,1.25-.78,4.23,4.23,0,0,1,1.7-.33,4.51,4.51,0,0,1,1.58.29,3.84,3.84,0,0,1,2.25,2.13,4.74,4.74,0,0,1,0,3.6,4.14,4.14,0,0,1-1,1.38,4.73,4.73,0,0,1-1.57.89A6.14,6.14,0,0,1,63.31,248.25Z"/><path class="cls-2" d="M75.1,248.25a4.58,4.58,0,0,1-2.37-.59,5,5,0,0,1-1.6-1.55A7,7,0,0,1,70.2,244a10,10,0,0,1,0-4.85,7,7,0,0,1,.93-2.16,4.91,4.91,0,0,1,1.6-1.54,4.58,4.58,0,0,1,2.37-.58,4.5,4.5,0,0,1,2.35.58,4.94,4.94,0,0,1,1.61,1.54A7.24,7.24,0,0,1,80,239.1,10,10,0,0,1,80,244a7.24,7.24,0,0,1-.93,2.16,5.07,5.07,0,0,1-1.61,1.55A4.5,4.5,0,0,1,75.1,248.25Zm0-2a2.28,2.28,0,0,0,1.34-.39,2.88,2.88,0,0,0,.89-1,5.32,5.32,0,0,0,.48-1.49,9.39,9.39,0,0,0,.16-1.79,10.26,10.26,0,0,0-.15-1.78,5,5,0,0,0-.49-1.49,2.75,2.75,0,0,0-.88-1,2.26,2.26,0,0,0-1.35-.38,2.23,2.23,0,0,0-1.34.38,2.77,2.77,0,0,0-.89,1,5.33,5.33,0,0,0-.5,1.49,10.7,10.7,0,0,0,0,3.57,5.33,5.33,0,0,0,.5,1.49,2.88,2.88,0,0,0,.89,1A2.24,2.24,0,0,0,75.1,246.22Z"/><path class="cls-2" d="M84.89,241.27a3.52,3.52,0,0,1-1.32-.24,3.12,3.12,0,0,1-1-.69,2.89,2.89,0,0,1-.66-1,3.3,3.3,0,0,1-.24-1.27,3.34,3.34,0,0,1,.24-1.27,3,3,0,0,1,.66-1,3.09,3.09,0,0,1,1-.68,3.75,3.75,0,0,1,2.64,0,2.85,2.85,0,0,1,1,.68,3.1,3.1,0,0,1,.65,1,3.34,3.34,0,0,1,.24,1.27,3.3,3.3,0,0,1-.24,1.27,3,3,0,0,1-.65,1,2.87,2.87,0,0,1-1,.69A3.52,3.52,0,0,1,84.89,241.27Zm0-1.3a1.64,1.64,0,0,0,1.25-.53,2,2,0,0,0,.48-1.4,2.07,2.07,0,0,0-.48-1.42,1.72,1.72,0,0,0-2.48,0,2.07,2.07,0,0,0-.49,1.42,2,2,0,0,0,.49,1.4A1.63,1.63,0,0,0,84.89,240ZM83.62,248l8.31-13h1.32l-8.32,13Zm8.27.23a3.52,3.52,0,0,1-1.32-.24,3,3,0,0,1-1-.68,2.89,2.89,0,0,1-.66-1,3.3,3.3,0,0,1-.24-1.27,3.38,3.38,0,0,1,.24-1.27,2.94,2.94,0,0,1,.66-1,3,3,0,0,1,1-.68,3.52,3.52,0,0,1,1.32-.24,3.43,3.43,0,0,1,1.31.24,3,3,0,0,1,1,.68,3.25,3.25,0,0,1,.66,1,3.37,3.37,0,0,1,.23,1.27,3.3,3.3,0,0,1-.23,1.27,3.2,3.2,0,0,1-.66,1,3,3,0,0,1-1,.68A3.43,3.43,0,0,1,91.89,248.25Zm0-1.31a1.65,1.65,0,0,0,1.25-.52,2,2,0,0,0,.48-1.39,2,2,0,0,0-.48-1.41,1.63,1.63,0,0,0-1.25-.54,1.6,1.6,0,0,0-1.25.54,2,2,0,0,0-.49,1.41,2,2,0,0,0,.49,1.39A1.62,1.62,0,0,0,91.89,246.94Z"/><path class="cls-2" d="M106.29,248.25a4.82,4.82,0,0,1-2-.4,4.54,4.54,0,0,1-1.52-1.07,4.58,4.58,0,0,1-1-1.57,5.69,5.69,0,0,1,0-3.82,4.58,4.58,0,0,1,1-1.57,4.38,4.38,0,0,1,1.52-1.06,5.45,5.45,0,0,1,4,0,4.38,4.38,0,0,1,1.52,1.06,4.58,4.58,0,0,1,1,1.57,5.69,5.69,0,0,1,0,3.82,4.58,4.58,0,0,1-1,1.57,4.54,4.54,0,0,1-1.52,1.07A4.87,4.87,0,0,1,106.29,248.25Zm0-1.81a2.52,2.52,0,0,0,1.17-.26,2.46,2.46,0,0,0,.85-.68,3,3,0,0,0,.52-1,4,4,0,0,0,.17-1.2,3.89,3.89,0,0,0-.17-1.19,3.07,3.07,0,0,0-.52-1,2.58,2.58,0,0,0-.85-.68,2.82,2.82,0,0,0-2.32,0,2.69,2.69,0,0,0-.85.68,2.91,2.91,0,0,0-.53,1,3.9,3.9,0,0,0-.18,1.19,4.06,4.06,0,0,0,.18,1.2,2.82,2.82,0,0,0,.53,1,2.56,2.56,0,0,0,.85.68A2.53,2.53,0,0,0,106.29,246.44Z"/><path class="cls-2" d="M113.72,248v-7.65h-1.56V238.6h1.56v-.53a3.26,3.26,0,0,1,.84-2.41,2.88,2.88,0,0,1,2.12-.84,3.49,3.49,0,0,1,1.66.35l-.45,1.54a1.49,1.49,0,0,0-.82-.22,1.21,1.21,0,0,0-1,.39,1.76,1.76,0,0,0-.34,1.19v.53h1.91v1.77h-1.91V248Z"/><path class="cls-2" d="M119.74,248v-7.65h-1.56V238.6h1.56v-.53a3.26,3.26,0,0,1,.84-2.41,2.89,2.89,0,0,1,2.13-.84,3.45,3.45,0,0,1,1.65.35l-.44,1.54a1.52,1.52,0,0,0-.82-.22,1.22,1.22,0,0,0-1,.39,1.82,1.82,0,0,0-.34,1.19v.53h1.91v1.77h-1.91V248Z"/><path class="cls-2" d="M27.19,268.8v-1.29a4.29,4.29,0,0,1-1.32,1.12,3.59,3.59,0,0,1-1.71.4,4.17,4.17,0,0,1-1.66-.33,3.55,3.55,0,0,1-1.33-1,4.71,4.71,0,0,1-.87-1.56,6.71,6.71,0,0,1-.31-2.09,6.52,6.52,0,0,1,.31-2,4.71,4.71,0,0,1,.87-1.56,3.76,3.76,0,0,1,1.32-1,4,4,0,0,1,1.67-.34,3.7,3.7,0,0,1,1.68.39,3.78,3.78,0,0,1,1.35,1.15v-1.31h2v9.42Zm-2.42-1.58a2.53,2.53,0,0,0,.71-.1,2.68,2.68,0,0,0,.68-.27,3.59,3.59,0,0,0,.59-.4,2.32,2.32,0,0,0,.44-.5v-3.72a3.3,3.3,0,0,0-.44-.49,3.63,3.63,0,0,0-.59-.41,3.71,3.71,0,0,0-.68-.27,3,3,0,0,0-.71-.1,2.45,2.45,0,0,0-1.11.24,2.41,2.41,0,0,0-.84.64,2.78,2.78,0,0,0-.54,1,4.47,4.47,0,0,0,0,2.51,2.87,2.87,0,0,0,.54,1,2.47,2.47,0,0,0,.84.66A2.59,2.59,0,0,0,24.77,267.22Z"/><path class="cls-2" d="M34.3,269a2.4,2.4,0,0,1-1.8-.62,2.47,2.47,0,0,1-.62-1.81V255.8h2.05v10.29a1.36,1.36,0,0,0,.22.81.79.79,0,0,0,.68.32,1.24,1.24,0,0,0,.54-.11.91.91,0,0,0,.37-.24l.49,1.56a2.26,2.26,0,0,1-.74.43A3.37,3.37,0,0,1,34.3,269Z"/><path class="cls-2" d="M39.88,269a2.41,2.41,0,0,1-1.81-.62,2.46,2.46,0,0,1-.61-1.81V255.8h2v10.29a1.36,1.36,0,0,0,.22.81.77.77,0,0,0,.67.32,1.26,1.26,0,0,0,.55-.11,1,1,0,0,0,.37-.24l.49,1.56a2.37,2.37,0,0,1-.74.43A3.41,3.41,0,0,1,39.88,269Z"/><path class="cls-2" d="M52.35,269a5,5,0,0,1-2-.37,4.49,4.49,0,0,1-1.53-1,4.64,4.64,0,0,1-1-1.57,5.6,5.6,0,0,1,0-3.95,4.9,4.9,0,0,1,1-1.56,4.64,4.64,0,0,1,1.53-1,5,5,0,0,1,2-.37,5.34,5.34,0,0,1,1.26.14,4,4,0,0,1,1,.37,3.38,3.38,0,0,1,.77.53,5,5,0,0,1,.59.64l-1.35,1.23a2.51,2.51,0,0,0-2.16-1.1,2.64,2.64,0,0,0-2.07.87,3.24,3.24,0,0,0-.78,2.25,3.62,3.62,0,0,0,.21,1.26,2.94,2.94,0,0,0,.58,1,2.65,2.65,0,0,0,2.06.89,2.51,2.51,0,0,0,2.16-1.13L56,267.36a4.7,4.7,0,0,1-1.37,1.17A4.32,4.32,0,0,1,52.35,269Z"/><path class="cls-2" d="M64.4,268.8v-1.29a4.07,4.07,0,0,1-1.32,1.12,3.58,3.58,0,0,1-1.7.4,4.22,4.22,0,0,1-1.67-.33,3.59,3.59,0,0,1-1.32-1,4.71,4.71,0,0,1-.87-1.56,6.42,6.42,0,0,1-.31-2.09,6.24,6.24,0,0,1,.31-2,4.71,4.71,0,0,1,.87-1.56,3.82,3.82,0,0,1,1.31-1,4,4,0,0,1,1.68-.34,3.7,3.7,0,0,1,1.68.39,3.84,3.84,0,0,1,1.34,1.15v-1.31h2v9.42ZM62,267.22a2.48,2.48,0,0,0,.71-.1,2.91,2.91,0,0,0,.69-.27,3.5,3.5,0,0,0,.58-.4,2.08,2.08,0,0,0,.44-.5v-3.72a2.82,2.82,0,0,0-.44-.49,3.54,3.54,0,0,0-.58-.41,4.12,4.12,0,0,0-.69-.27A2.9,2.9,0,0,0,62,261a2.51,2.51,0,0,0-1.11.24,2.61,2.61,0,0,0-.84.64,2.76,2.76,0,0,0-.53,1,4.24,4.24,0,0,0,0,2.51,2.85,2.85,0,0,0,.53,1,2.41,2.41,0,0,0,1.95.89Z"/><path class="cls-2" d="M72,269a2.4,2.4,0,0,1-1.82-.62,2.5,2.5,0,0,1-.6-1.81v-5.44H68v-1.78h1.56v-2.57h2v2.57h1.92v1.78H71.57v4.93a1.36,1.36,0,0,0,.23.81.77.77,0,0,0,.67.32,1.22,1.22,0,0,0,.54-.11,1,1,0,0,0,.36-.24l.49,1.56a2.31,2.31,0,0,1-.75.43A3.27,3.27,0,0,1,72,269Z"/><path class="cls-2" d="M82.77,269a2.41,2.41,0,0,1-1.81-.62,2.46,2.46,0,0,1-.61-1.81V255.8h2v10.29a1.36,1.36,0,0,0,.23.81.77.77,0,0,0,.67.32,1.26,1.26,0,0,0,.55-.11,1,1,0,0,0,.37-.24l.49,1.56a2.31,2.31,0,0,1-.75.43A3.31,3.31,0,0,1,82.77,269Z"/><path class="cls-2" d="M87,258.23a1.22,1.22,0,0,1-.9-.37,1.19,1.19,0,0,1-.37-.89A1.26,1.26,0,0,1,87,255.7a1.19,1.19,0,0,1,.89.37,1.22,1.22,0,0,1,.37.9A1.26,1.26,0,0,1,87,258.23Zm-1,10.57v-9.42h2v9.42Z"/><path class="cls-2" d="M93.47,269a2.42,2.42,0,0,1-1.82-.62,2.5,2.5,0,0,1-.6-1.81v-5.44H89.49v-1.78h1.56v-2.57h2v2.57H95v1.78H93.1v4.93a1.36,1.36,0,0,0,.22.81.78.78,0,0,0,.67.32,1.19,1.19,0,0,0,.54-.11,1,1,0,0,0,.36-.24l.49,1.56a2.26,2.26,0,0,1-.74.43A3.32,3.32,0,0,1,93.47,269Z"/><path class="cls-2" d="M99.69,269a2.42,2.42,0,0,1-1.82-.62,2.5,2.5,0,0,1-.6-1.81v-5.44H95.71v-1.78h1.56v-2.57h2v2.57h1.91v1.78H99.32v4.93a1.36,1.36,0,0,0,.22.81.77.77,0,0,0,.67.32,1.19,1.19,0,0,0,.54-.11,1,1,0,0,0,.36-.24l.49,1.56a2.37,2.37,0,0,1-.74.43A3.36,3.36,0,0,1,99.69,269Z"/><path class="cls-2" d="M107.43,269a5.28,5.28,0,0,1-2-.35,4.23,4.23,0,0,1-1.56-1,4.71,4.71,0,0,1-1-1.57,5.51,5.51,0,0,1-.37-2,5.4,5.4,0,0,1,.35-1.92,5,5,0,0,1,1-1.57,4.7,4.7,0,0,1,3.44-1.44,4.72,4.72,0,0,1,1.91.38,4.19,4.19,0,0,1,1.46,1.06,5,5,0,0,1,.93,1.62,6.43,6.43,0,0,1,.32,2.05v.51h-7.25a3,3,0,0,0,.28,1,2.74,2.74,0,0,0,.61.83,2.59,2.59,0,0,0,.9.56,3.19,3.19,0,0,0,1.19.21,4.16,4.16,0,0,0,1.44-.27,3.59,3.59,0,0,0,1.25-.78l.94,1.34a4.68,4.68,0,0,1-1.72,1A6.09,6.09,0,0,1,107.43,269Zm2.49-5.73a2.64,2.64,0,0,0-.18-.84,2.54,2.54,0,0,0-.49-.8,2.76,2.76,0,0,0-.81-.6,2.84,2.84,0,0,0-1.19-.23,2.65,2.65,0,0,0-1.13.22,2.46,2.46,0,0,0-.81.59,2.76,2.76,0,0,0-.5.8,2.72,2.72,0,0,0-.19.86Z"/><path class="cls-2" d="M113.92,268.8v-9.42h2v1.37a4.66,4.66,0,0,1,1.35-1.14,3.33,3.33,0,0,1,1.72-.46v2a3.06,3.06,0,0,0-.63-.06,2.45,2.45,0,0,0-.69.1,3,3,0,0,0-.7.27,3,3,0,0,0-.62.41,2.4,2.4,0,0,0-.43.49v6.41Z"/><path class="cls-2" d="M120.1,269a1.32,1.32,0,0,1-1-.41,1.35,1.35,0,0,1-.4-1,1.26,1.26,0,0,1,.4-.94,1.31,1.31,0,0,1,1-.4,1.29,1.29,0,0,1,1,.4,1.26,1.26,0,0,1,.4.94,1.35,1.35,0,0,1-.4,1A1.3,1.3,0,0,1,120.1,269Z"/><path class="cls-3" d="M1.92,600c-.07-4.93,0-7,0-10.76.67-48.09,35.12-80.7,78.44-80.7s78.6,36.13,78.6,80.7c0,3.65-.08,6.83,0,10.76"/><g id="white_logo" data-name="white logo"><g class="cls-4"><g class="cls-5"><path class="cls-6" d="M31.53,334.07c15.36-4.7,23.12,7.07,23.12,7.07s-4.87-16.42-23.12-7.07"/><path class="cls-6" d="M61.23,334.67a5,5,0,0,1,0-.55,11.46,11.46,0,0,0-6.06,8.81s2.09-4.86,7-6.33a3,3,0,0,1-.94-1.93"/><path class="cls-6" d="M41.63,341.53s0,2.32,0,3.5c-.59,0-3.14-.17-4.26-.21,0,.63,0,1.27,0,1.9,1.34,0,2.74.19,4.08.17,0,1.13,0,2.1,0,3.22-1.34,0-2.68-.1-4-.13l0,2c1.45,0,2.89.15,4.34.13,0-.05,0,3.43,0,3.43-2.86,0-6.24-.22-9.45-.49l.22-14.28c1.35.16,5.54.6,9.19.71"/><path class="cls-6" d="M42.85,341.56l-.06,3.73c1.35.07,2.56.07,2.56.07v10.35a31.73,31.73,0,0,0,5.15-.07l-.06-10.25s2.28-.1,2.64-.13c0-1.37,0-2.44,0-3.81a90.74,90.74,0,0,1-10.17.11"/><path class="cls-6" d="M111.77,339.29v4.33c.87.05,1.86.22,2.73.3,0,3.6-.09,6.34-.09,9.95,2.43.29,4.15.57,4.82.69,0-3.61.14-6.45.14-10.06,0,0,2.57.4,2.62.44v-4.45a78.85,78.85,0,0,0-10.22-1.2"/><path class="cls-6" d="M25,346.25l-.45-.05,0-2.93.43.05a1.48,1.48,0,0,1,1.49,1.57c0,1.21-.76,1.44-1.5,1.36m1.13-6.9L20,338.24l0,15c1.57.31,3,.57,4.53.74l0-4.33,1.65.18c2.65.25,5.32-.75,5.36-5.09,0-3.84-2.53-5-5.37-5.37"/><path class="cls-6" d="M77.17,353.27c.68-1.79,1.37-3.46,2-5.24.11,1.71.18,3.25.29,5,1.7-.19,3.08-.29,4.8-.4-.45-4.55-.83-9.43-1.28-14-1.46.12-2.93.26-4.4.4-.82,2.14-1.65,4.76-2.47,6.9-.8-2-1.59-4.32-2.39-6.3-1.48.21-4.13.67-4.4.68-.51,4.63-1.09,9.79-1.6,14.42,1.17-.2,4-.65,4.89-.77.13-1.73.26-3.58.4-5.31l2,4.95,2.13-.32"/><path class="cls-6" d="M104.3,345.42l-.45,0c0-1,0-1.93,0-2.9l.43,0a1.46,1.46,0,0,1,1.5,1.53,1.25,1.25,0,0,1-1.52,1.37m4.25,3.08c1.31-.59,2.25-1.85,2.29-4.36,0-3.79-2.63-5.41-5.34-5.61-2-.17-4.1-.27-6.15-.33-.07,4.81-.09,9.21-.16,14,1.54,0,3.22.16,4.56.27,0-1.35,0-2.36.06-3.71.87,1.41,1.59,2.58,2.46,4,1.89.17,3.82.41,5.71.69-1.18-1.76-2.25-3.27-3.43-5"/><path class="cls-6" d="M90.65,347.57l.95-3.65c.37,1.2.73,2.4,1.1,3.6a19.4,19.4,0,0,1-2,.05M94,338.1c-1.82,0-3.31,0-4.87.1-1.25,4.66-2.73,9.65-4,14.34,1.39,0,2.81-.12,4.2-.12.13-.5.27-1.07.4-1.56l2.13-.05s1.88-.06,1.88-.06c0,.18.22.67.47,1.48,1.39,0,2.78,0,4.18,0-1.51-4.94-3-9.69-4.41-14.17"/><path class="cls-6" d="M54.66,354.38a12.53,12.53,0,0,0,5.65,1.44c3.2,0,6.55-1.92,6.62-5.51,0-2.55-1.57-3.76-3.83-4.27l-1.21-.27c-.42-.1-1.08-.18-1.07-.74s.7-.8,1.17-.8a8.68,8.68,0,0,1,3.27.69l1.36-3.6A10.6,10.6,0,0,0,62,340.21c-3.22,0-6.46,2-6.53,5.51,0,2.36,1.7,3.65,3.79,4l1.07.2c.49.1,1.2.16,1.18.84s-.85.76-1.37.76a6.36,6.36,0,0,1-3.68-1.22c-.55,1.26-1.21,2.8-1.76,4.05"/><path class="cls-6" d="M66.23,330a3.61,3.61,0,1,0,3.56,3.65A3.61,3.61,0,0,0,66.23,330m1.31,1.33a4.33,4.33,0,0,0-3.87,2.26s0,0,0,.06a2.65,2.65,0,0,1,.09-1,2.45,2.45,0,0,1,3-1.75,2.31,2.31,0,0,1,.85.45l0,0"/></g></g></g><path class="cls-6" d="M21.7,21.82H35a8.31,8.31,0,0,1,4,.89,6.24,6.24,0,0,1,2.49,2.36,6.45,6.45,0,0,1,.83,3.21,6,6,0,0,1-1.25,3.88A5.31,5.31,0,0,1,38,34.1a5.25,5.25,0,0,1,3.46,2.09,6.49,6.49,0,0,1,1.41,4.14,6.65,6.65,0,0,1-1.94,4.9,7.34,7.34,0,0,1-5.43,1.94H21.7ZM33.86,32A3,3,0,0,0,36,31.23a2.73,2.73,0,0,0,.79-2,2.66,2.66,0,0,0-.81-2,3,3,0,0,0-2.15-.8H27.1V32Zm.19,10.56a3.34,3.34,0,0,0,2.39-.82,3.05,3.05,0,0,0,0-4.29,3.27,3.27,0,0,0-2.39-.86H27.1v6Z"/><path class="cls-6" d="M48.09,46.39a5,5,0,0,1-1.31-3.75V21.82h4.83V41.35a2.28,2.28,0,0,0,.45,1.45,1.49,1.49,0,0,0,1.22.57,3.21,3.21,0,0,0,1-.15,1.52,1.52,0,0,0,.64-.38l1,3.64a5.85,5.85,0,0,1-4,1.18A5.33,5.33,0,0,1,48.09,46.39Z"/><path class="cls-6" d="M70.72,44.81a7.39,7.39,0,0,1-2.53,2.11,6.87,6.87,0,0,1-3.13.74,7.83,7.83,0,0,1-4.18-1.14A7.73,7.73,0,0,1,58,43.21a11.82,11.82,0,0,1-1-5.18,11.7,11.7,0,0,1,1-5.12,7.93,7.93,0,0,1,2.89-3.37,7.6,7.6,0,0,1,4.2-1.18,7,7,0,0,1,3.11.72,7.2,7.2,0,0,1,2.55,2.09V28.81h4.86V47.17H70.72Zm0-10a4.57,4.57,0,0,0-1.79-1.51,5.31,5.31,0,0,0-2.39-.59,4.23,4.23,0,0,0-3.34,1.47A5.61,5.61,0,0,0,61.9,38a5.61,5.61,0,0,0,1.3,3.85,4.22,4.22,0,0,0,3.34,1.49,5.31,5.31,0,0,0,2.39-.59,4.57,4.57,0,0,0,1.79-1.51Z"/><path class="cls-6" d="M80.45,33a8.89,8.89,0,0,1,3.46-3.42,10,10,0,0,1,5-1.24,9.64,9.64,0,0,1,4.41.93,7.65,7.65,0,0,1,2.85,2.37l-3.15,3a4.38,4.38,0,0,0-3.88-2,4.7,4.7,0,0,0-3.59,1.47A5.39,5.39,0,0,0,84.17,38a5.45,5.45,0,0,0,1.39,3.89,4.68,4.68,0,0,0,3.59,1.49,4.58,4.58,0,0,0,2.2-.52A4.68,4.68,0,0,0,93,41.39l3.15,2.93a7.88,7.88,0,0,1-2.83,2.39,9.45,9.45,0,0,1-4.43.95,10,10,0,0,1-5-1.24A8.89,8.89,0,0,1,80.45,43a10.51,10.51,0,0,1,0-10Z"/><path class="cls-6" d="M106.36,40.1l-2.2,2.36v4.71H99.33V21.82h4.83V37l7-8.17H117l-7.26,8.33,7.49,10h-6Z"/><path class="cls-6" d="M21.7,59.82H39.64v4.64H27.1V70H39.37V74.6H27.1V85.17H21.7Z"/><path class="cls-6" d="M43.28,66.81h4.83v2.51a8.22,8.22,0,0,1,2.58-2.11A6.88,6.88,0,0,1,54,66.36v4.71a6.16,6.16,0,0,0-1.33-.15,6.28,6.28,0,0,0-2.58.61A4.32,4.32,0,0,0,48.11,73V85.17H43.28Z"/><path class="cls-6" d="M57.32,63.26a2.77,2.77,0,0,1-.85-2,2.92,2.92,0,0,1,2.89-2.89,2.89,2.89,0,1,1-2,4.92ZM57,66.81h4.83V85.17H57Z"/><path class="cls-6" d="M79.19,82.81a7.45,7.45,0,0,1-2.52,2.11,6.91,6.91,0,0,1-3.14.74,7.86,7.86,0,0,1-4.18-1.14,7.73,7.73,0,0,1-2.91-3.31,12,12,0,0,1-1-5.18,11.85,11.85,0,0,1,1-5.12,7.93,7.93,0,0,1,2.89-3.37,7.6,7.6,0,0,1,4.2-1.18,7.06,7.06,0,0,1,3.12.72,7.17,7.17,0,0,1,2.54,2.09V59.82h4.87V85.17H79.19Zm0-10.06a4.54,4.54,0,0,0-1.78-1.51,5.38,5.38,0,0,0-2.4-.59,4.23,4.23,0,0,0-3.34,1.49A5.73,5.73,0,0,0,70.38,76a5.65,5.65,0,0,0,1.29,3.85A4.23,4.23,0,0,0,75,81.37a5.38,5.38,0,0,0,2.4-.59,4.54,4.54,0,0,0,1.78-1.51Z"/><path class="cls-6" d="M101.46,82.81a7.39,7.39,0,0,1-2.53,2.11,6.87,6.87,0,0,1-3.13.74,7.83,7.83,0,0,1-4.18-1.14,7.73,7.73,0,0,1-2.91-3.31,12,12,0,0,1-1-5.18,11.85,11.85,0,0,1,1-5.12,7.93,7.93,0,0,1,2.89-3.37,7.6,7.6,0,0,1,4.2-1.18,7.06,7.06,0,0,1,3.12.72,7.25,7.25,0,0,1,2.54,2.09V66.81h4.87V85.17h-4.87Zm0-10a4.54,4.54,0,0,0-1.78-1.51,5.38,5.38,0,0,0-2.4-.59,4.23,4.23,0,0,0-3.34,1.47,6.42,6.42,0,0,0,0,7.72,4.22,4.22,0,0,0,3.34,1.49,5.38,5.38,0,0,0,2.4-.59,4.54,4.54,0,0,0,1.78-1.51Z"/><path class="cls-6" d="M113.05,86.38a5.84,5.84,0,0,0,2.43,1.71,8.54,8.54,0,0,0,3.08.57,5.12,5.12,0,0,0,3.65-1.21A4.58,4.58,0,0,0,123.5,84v-1.9A8.65,8.65,0,0,1,117,84.83a5.94,5.94,0,0,1-4.44-1.52,5.86,5.86,0,0,1-1.49-4.26V66.81h4.83V77.15a3.34,3.34,0,0,0,.87,2.6,3.66,3.66,0,0,0,2.51.78,4.87,4.87,0,0,0,2.4-.61,5.55,5.55,0,0,0,1.78-1.48V66.81h4.83V83.72a8.3,8.3,0,0,1-2.64,6.56,10.37,10.37,0,0,1-7.13,2.34,11.21,11.21,0,0,1-7.67-2.74Z"/><path class="cls-6" d="M34.2,120.81a7.45,7.45,0,0,1-2.52,2.11,6.94,6.94,0,0,1-3.14.74,7.83,7.83,0,0,1-4.18-1.14,7.73,7.73,0,0,1-2.91-3.31,12,12,0,0,1-1-5.18,11.85,11.85,0,0,1,1-5.12,7.93,7.93,0,0,1,2.89-3.37,7.6,7.6,0,0,1,4.2-1.18,7.06,7.06,0,0,1,3.12.72,7.25,7.25,0,0,1,2.54,2.09V97.82h4.87v25.35H34.2Zm0-10.06a4.54,4.54,0,0,0-1.78-1.51,5.38,5.38,0,0,0-2.4-.59,4.22,4.22,0,0,0-3.34,1.49A5.73,5.73,0,0,0,25.39,114a5.65,5.65,0,0,0,1.29,3.85A4.22,4.22,0,0,0,30,119.37a5.38,5.38,0,0,0,2.4-.59,4.54,4.54,0,0,0,1.78-1.51Z"/><path class="cls-6" d="M43.89,109.14a9.28,9.28,0,0,1,3.38-3.49,9.42,9.42,0,0,1,4.91-1.29A9,9,0,0,1,57,105.63a8.58,8.58,0,0,1,3.25,3.57,11.48,11.48,0,0,1,1.16,5.27v1.06H47.73a4.74,4.74,0,0,0,1.63,3.07A5.4,5.4,0,0,0,53,119.82a7.72,7.72,0,0,0,2.68-.49A6.23,6.23,0,0,0,57.91,118L60,121.12A9.16,9.16,0,0,1,56.7,123a13.46,13.46,0,0,1-4.22.66,10.49,10.49,0,0,1-5-1.2A8.81,8.81,0,0,1,44,119.07a10.56,10.56,0,0,1-.06-9.93Zm5.09.29a5,5,0,0,0-1.33,2.83H56.7a4.66,4.66,0,0,0-1.24-2.81,4.14,4.14,0,0,0-3.28-1.25A4.15,4.15,0,0,0,49,109.43Z"/><path class="cls-6" d="M77.48,120.81A7.45,7.45,0,0,1,75,122.92a6.91,6.91,0,0,1-3.14.74,7.86,7.86,0,0,1-4.18-1.14,7.65,7.65,0,0,1-2.9-3.31,11.82,11.82,0,0,1-1-5.18,11.7,11.7,0,0,1,1-5.12,7.84,7.84,0,0,1,2.88-3.37,7.6,7.6,0,0,1,4.2-1.18,7.06,7.06,0,0,1,3.12.72,7.17,7.17,0,0,1,2.54,2.09v-2.36h4.87v18.36H77.48Zm0-10a4.54,4.54,0,0,0-1.78-1.51,5.38,5.38,0,0,0-2.4-.59A4.25,4.25,0,0,0,70,110.16a6.42,6.42,0,0,0,0,7.72,4.23,4.23,0,0,0,3.34,1.49,5.38,5.38,0,0,0,2.4-.59,4.54,4.54,0,0,0,1.78-1.51Z"/><path class="cls-6" d="M88.45,122.39a5,5,0,0,1-1.31-3.75V97.82H92v19.53a2.23,2.23,0,0,0,.46,1.45,1.47,1.47,0,0,0,1.21.57,3.12,3.12,0,0,0,1-.15,1.5,1.5,0,0,0,.65-.38l1,3.64a5.82,5.82,0,0,1-4,1.18A5.31,5.31,0,0,1,88.45,122.39Z"/><path class="cls-6" d="M99,117.43a9.84,9.84,0,0,0,2.89,1.75,9.15,9.15,0,0,0,3.46.76,4.34,4.34,0,0,0,2.3-.5,1.55,1.55,0,0,0,.78-1.38,1.45,1.45,0,0,0-.91-1.34,11.91,11.91,0,0,0-2.78-.85A27.62,27.62,0,0,1,101,115a6,6,0,0,1-2.5-1.65,4.53,4.53,0,0,1-1.07-3.18,5.1,5.1,0,0,1,.89-2.88,6.09,6.09,0,0,1,2.61-2.11,9.63,9.63,0,0,1,4-.78,11.54,11.54,0,0,1,7.41,2.51l-1.94,3.3a6.88,6.88,0,0,0-2.34-1.52A8.08,8.08,0,0,0,105,108a4.23,4.23,0,0,0-2.11.46,1.4,1.4,0,0,0-.77,1.25A1.27,1.27,0,0,0,103,111a12.67,12.67,0,0,0,2.64.78,25.65,25.65,0,0,1,3.69,1,6.27,6.27,0,0,1,2.58,1.76,4.73,4.73,0,0,1,1.1,3.31,5.22,5.22,0,0,1-.93,3,6,6,0,0,1-2.73,2.12,11,11,0,0,1-4.28.76,13.8,13.8,0,0,1-4.58-.76,10.22,10.22,0,0,1-3.63-2.09Z"/><path class="cls-6" d="M22.92,153.53A11.21,11.21,0,0,0,26.43,156,10.79,10.79,0,0,0,31,157a5.46,5.46,0,0,0,3.25-.84,2.47,2.47,0,0,0,1.16-2,2.13,2.13,0,0,0-1.25-2,17.37,17.37,0,0,0-3.88-1.28,41.75,41.75,0,0,1-4.83-1.37,8,8,0,0,1-3.24-2.23,6,6,0,0,1-1.39-4.17A6.75,6.75,0,0,1,22,139.18a7.94,7.94,0,0,1,3.36-2.77,12,12,0,0,1,5.07-1,14,14,0,0,1,9.88,3.54l-3,3.95a10.13,10.13,0,0,0-3.4-2.07,11.13,11.13,0,0,0-3.86-.7,4.6,4.6,0,0,0-2.75.7,2.24,2.24,0,0,0-1,1.9,1.82,1.82,0,0,0,1.18,1.74,21.65,21.65,0,0,0,3.87,1.2,36.31,36.31,0,0,1,4.81,1.39,8.56,8.56,0,0,1,3.31,2.31,6,6,0,0,1,1.38,4.15,7.41,7.41,0,0,1-2.6,5.9q-2.61,2.25-7.54,2.25-6.74,0-10.76-4Z"/><path class="cls-6" d="M50.09,140.57H42.68v-4.75H62.89v4.75H55.52v20.6H50.09Z"/><path class="cls-6" d="M80.07,156.8H68.74l-1.59,4.37H61.22L71,135.82h6.77l9.76,25.35H81.66Zm-9.88-4.68h8.4L74.41,140.5Z"/><path class="cls-6" d="M99.26,152.09h-4v9.08h-5.4V135.82h11.86a9.34,9.34,0,0,1,4.52,1.05,7.14,7.14,0,0,1,3,2.9,8.56,8.56,0,0,1,1,4.22,7.64,7.64,0,0,1-1.62,5.06,7.08,7.08,0,0,1-3.93,2.47l5.7,9.65h-6.19Zm4.43-10.66a3.93,3.93,0,0,0-2.72-1H95.31v7H101a3.93,3.93,0,0,0,2.72-1,3.25,3.25,0,0,0,1.08-2.53A3.21,3.21,0,0,0,103.69,141.43Z"/><path class="cls-6" d="M119.82,140.57h-7.41v-4.75h20.21v4.75h-7.37v20.6h-5.43Z"/><path class="cls-6" d="M27.1,182.14v17H21.7V173.82h5.55L39,190.24V173.82h5.4v25.35H39.18Z"/><path class="cls-6" d="M49.9,179.78a12.23,12.23,0,0,1,4.73-4.68,14.45,14.45,0,0,1,13.6,0A12.29,12.29,0,0,1,73,179.78a14.2,14.2,0,0,1,0,13.51A12.29,12.29,0,0,1,68.23,198a14.53,14.53,0,0,1-13.6,0,12.23,12.23,0,0,1-4.73-4.68,14.2,14.2,0,0,1,0-13.51Zm18.27,2.49a7.13,7.13,0,0,0-2.71-3,7.54,7.54,0,0,0-4-1.09,7.44,7.44,0,0,0-4,1.09,7.31,7.31,0,0,0-2.7,3,10,10,0,0,0,0,8.53,7.31,7.31,0,0,0,2.7,3,7.52,7.52,0,0,0,4,1.08,7.62,7.62,0,0,0,4-1.08,7.13,7.13,0,0,0,2.71-3,10,10,0,0,0,0-8.53Z"/><path class="cls-6" d="M92.65,181.76l-4.41,17.41H82.5l-7.26-25.35h6l4.45,18.32,4.83-18.32h4.21l4.79,18.32L104,173.82h6.08l-7.22,25.35H97.09Z"/></g><g id="REC"><rect class="cls-1" width="160" height="600"/></g></g></svg>