<svg xmlns="http://www.w3.org/2000/svg" viewBox="0 0 300 250"><title>sub</title><g id="Layer_2" data-name="Layer 2"><g id="rec"><rect width="300" height="250" fill="none"/></g><g id="sub"><path d="M19.42,103.71a6,6,0,0,1-2.49-.47A4.87,4.87,0,0,1,15.22,102l1.14-1.38a3.78,3.78,0,0,0,3,1.36,2.41,2.41,0,0,0,1.71-.58,1.87,1.87,0,0,0,.62-1.42,1.9,1.9,0,0,0-.61-1.47,2.45,2.45,0,0,0-1.67-.54,3.83,3.83,0,0,0-1.33.23A3.47,3.47,0,0,0,17,98.9l-1.41-.41V92.17H23v1.77H17.55v3.24a4,4,0,0,1,1.08-.68,3.76,3.76,0,0,1,1.48-.29,4,4,0,0,1,1.38.25,3.36,3.36,0,0,1,1.16.71,3.49,3.49,0,0,1,.8,1.15,3.79,3.79,0,0,1,.3,1.55,3.61,3.61,0,0,1-1.21,2.8,4.07,4.07,0,0,1-1.37.77A5.49,5.49,0,0,1,19.42,103.71Z" fill="#e52823"/><path d="M29.7,103.71a3.93,3.93,0,0,1-2.07-.52,4.2,4.2,0,0,1-1.4-1.35,6.26,6.26,0,0,1-.81-1.88,8.73,8.73,0,0,1,0-4.23,6.37,6.37,0,0,1,.81-1.88,4.27,4.27,0,0,1,1.4-1.34A4,4,0,0,1,29.7,92a4,4,0,0,1,2.05.51,4.27,4.27,0,0,1,1.4,1.34A6.37,6.37,0,0,1,34,95.73,8.73,8.73,0,0,1,34,100a6.26,6.26,0,0,1-.81,1.88,4.2,4.2,0,0,1-1.4,1.35A3.86,3.86,0,0,1,29.7,103.71Zm0-1.77a1.94,1.94,0,0,0,1.16-.34,2.28,2.28,0,0,0,.78-.9,4.73,4.73,0,0,0,.42-1.3,9,9,0,0,0,0-3.11,4.41,4.41,0,0,0-.42-1.3,2.5,2.5,0,0,0-.78-.89,2,2,0,0,0-1.17-.33,2,2,0,0,0-1.17.33,2.5,2.5,0,0,0-.78.89,4.73,4.73,0,0,0-.43,1.3,8.71,8.71,0,0,0,0,3.11,4.73,4.73,0,0,0,.43,1.3,2.45,2.45,0,0,0,.78.9A1.93,1.93,0,0,0,29.7,101.94Z" fill="#e52823"/><path d="M38.23,97.62a3,3,0,0,1-1.14-.21,2.53,2.53,0,0,1-1.47-1.49,2.84,2.84,0,0,1-.21-1.1,2.89,2.89,0,0,1,.21-1.11,2.6,2.6,0,0,1,.57-.91,2.66,2.66,0,0,1,.9-.59A3,3,0,0,1,38.23,92a3.11,3.11,0,0,1,1.16.21,2.52,2.52,0,0,1,.89.59,2.6,2.6,0,0,1,.57.91,2.89,2.89,0,0,1,.21,1.11,2.84,2.84,0,0,1-.21,1.1,2.65,2.65,0,0,1-.57.9,2.52,2.52,0,0,1-.89.59A3.11,3.11,0,0,1,38.23,97.62Zm0-1.13A1.4,1.4,0,0,0,39.32,96a1.72,1.72,0,0,0,.43-1.21,1.81,1.81,0,0,0-.43-1.24,1.48,1.48,0,0,0-2.16,0,1.81,1.81,0,0,0-.42,1.24A1.71,1.71,0,0,0,37.16,96,1.4,1.4,0,0,0,38.23,96.49Zm-1.1,7,7.24-11.34h1.16l-7.26,11.35Zm7.21.2a3.06,3.06,0,0,1-1.15-.21,2.61,2.61,0,0,1-.89-.59,2.74,2.74,0,0,1-.58-.89,2.88,2.88,0,0,1-.2-1.11,3,3,0,0,1,.2-1.11,2.54,2.54,0,0,1,.58-.89,2.5,2.5,0,0,1,.89-.6,3.06,3.06,0,0,1,1.15-.21,3,3,0,0,1,1.14.21,2.54,2.54,0,0,1,.9.6,2.69,2.69,0,0,1,.58.89,3.17,3.17,0,0,1,.2,1.11A3.08,3.08,0,0,1,47,102a2.91,2.91,0,0,1-.58.89,2.66,2.66,0,0,1-.9.59A3,3,0,0,1,44.34,103.71Zm0-1.14a1.39,1.39,0,0,0,1.08-.46,1.67,1.67,0,0,0,.43-1.2,1.75,1.75,0,0,0-.43-1.24,1.39,1.39,0,0,0-1.08-.46,1.41,1.41,0,0,0-1.09.46,1.8,1.8,0,0,0-.43,1.24,1.71,1.71,0,0,0,.43,1.2A1.41,1.41,0,0,0,44.34,102.57Z" fill="#e52823"/><path d="M56.9,103.71a4.33,4.33,0,0,1-1.77-.35,3.94,3.94,0,0,1-1.32-.93,4.08,4.08,0,0,1-.84-1.37,4.84,4.84,0,0,1-.29-1.67A4.79,4.79,0,0,1,53,97.73a4.08,4.08,0,0,1,.84-1.37,3.94,3.94,0,0,1,1.32-.93,4.78,4.78,0,0,1,3.54,0,3.94,3.94,0,0,1,1.32.93,4.08,4.08,0,0,1,.84,1.37,4.79,4.79,0,0,1,.29,1.66,4.84,4.84,0,0,1-.29,1.67,4.08,4.08,0,0,1-.84,1.37,3.94,3.94,0,0,1-1.32.93A4.33,4.33,0,0,1,56.9,103.71Zm0-1.58a2.25,2.25,0,0,0,1-.22,2.28,2.28,0,0,0,.74-.6,2.57,2.57,0,0,0,.45-.87,3.65,3.65,0,0,0,.15-1,3.47,3.47,0,0,0-.15-1,2.57,2.57,0,0,0-.45-.87,2.28,2.28,0,0,0-.74-.6,2.39,2.39,0,0,0-1-.22,2.3,2.3,0,0,0-1,.22,2.21,2.21,0,0,0-.75.6,2.42,2.42,0,0,0-.46.87,3.47,3.47,0,0,0-.15,1,3.65,3.65,0,0,0,.15,1,2.42,2.42,0,0,0,.46.87,2.21,2.21,0,0,0,.75.6A2.16,2.16,0,0,0,56.9,102.13Z" fill="#e52823"/><path d="M63.38,103.51V96.84H62V95.3h1.36v-.46a2.85,2.85,0,0,1,.73-2.11A2.48,2.48,0,0,1,66,92a3.09,3.09,0,0,1,1.45.3L67,93.65a1.23,1.23,0,0,0-.71-.19,1.05,1.05,0,0,0-.84.34,1.54,1.54,0,0,0-.3,1v.46h1.67v1.54H65.16v6.67Z" fill="#e52823"/><path d="M68.63,103.51V96.84H67.27V95.3h1.36v-.46a2.85,2.85,0,0,1,.73-2.11A2.51,2.51,0,0,1,71.21,92a3.09,3.09,0,0,1,1.45.3l-.39,1.35a1.27,1.27,0,0,0-.72-.19,1.05,1.05,0,0,0-.84.34,1.54,1.54,0,0,0-.3,1v.46h1.67v1.54H70.41v6.67Z" fill="#e52823"/><path d="M80.65,103.71a5.66,5.66,0,0,1-2-.33,4.32,4.32,0,0,1-1.55-1l.81-1.28a4,4,0,0,0,.53.43,4.37,4.37,0,0,0,.68.36,4.2,4.2,0,0,0,.78.26,3.55,3.55,0,0,0,.79.09,2.05,2.05,0,0,0,1.22-.3.93.93,0,0,0,.41-.79.66.66,0,0,0-.37-.61,3.87,3.87,0,0,0-.92-.34L79.87,100a5.14,5.14,0,0,1-1.2-.41,2.55,2.55,0,0,1-.92-.73,2,2,0,0,1-.37-1.26,2.11,2.11,0,0,1,.22-1,2.22,2.22,0,0,1,.62-.79,3.11,3.11,0,0,1,1-.53,4.46,4.46,0,0,1,1.38-.2,5,5,0,0,1,1.85.32,4.48,4.48,0,0,1,1.33.82L83,97.49a2.91,2.91,0,0,0-1-.7,3.4,3.4,0,0,0-1.42-.29,1.9,1.9,0,0,0-1.11.29.86.86,0,0,0-.4.73.59.59,0,0,0,.37.55,4,4,0,0,0,.91.31l1.2.27a5.18,5.18,0,0,1,1.2.43,2.52,2.52,0,0,1,.92.76,2.15,2.15,0,0,1,.36,1.3,2.31,2.31,0,0,1-.22,1,2.14,2.14,0,0,1-.65.82,3.25,3.25,0,0,1-1.07.53A4.75,4.75,0,0,1,80.65,103.71Z" fill="#e52823"/><path d="M89.66,103.71a4.63,4.63,0,0,1-1.73-.31,3.87,3.87,0,0,1-1.36-.87,4.16,4.16,0,0,1-.89-1.37,4.57,4.57,0,0,1-.32-1.77,4.62,4.62,0,0,1,.3-1.67,4,4,0,0,1,2.18-2.29,4,4,0,0,1,1.68-.34,4.11,4.11,0,0,1,1.67.33,3.58,3.58,0,0,1,1.27.93,4.27,4.27,0,0,1,.81,1.41,5.38,5.38,0,0,1,.28,1.79V100H87.23a2.57,2.57,0,0,0,.24.86,2.4,2.4,0,0,0,.53.73,2.35,2.35,0,0,0,.79.49,2.84,2.84,0,0,0,1,.18,3.64,3.64,0,0,0,1.26-.24,3,3,0,0,0,1.08-.68L93,102.5a4.07,4.07,0,0,1-1.5.9A5.29,5.29,0,0,1,89.66,103.71Zm2.17-5a2.29,2.29,0,0,0-.16-.74,2.24,2.24,0,0,0-.42-.69,2.11,2.11,0,0,0-.71-.52,2.59,2.59,0,0,0-2,0,2.19,2.19,0,0,0-.71.51,2.4,2.4,0,0,0-.43.7,2.26,2.26,0,0,0-.17.75Z" fill="#e52823"/><path d="M97.43,103.71a2.15,2.15,0,0,1-1.58-.54,2.2,2.2,0,0,1-.53-1.58V92.17H97.1v9a1.22,1.22,0,0,0,.2.71.66.66,0,0,0,.59.28,1.23,1.23,0,0,0,.47-.09.85.85,0,0,0,.32-.22l.43,1.36a1.83,1.83,0,0,1-.65.38A3,3,0,0,1,97.43,103.71Z" fill="#e52823"/><path d="M104,103.71a4.67,4.67,0,0,1-1.73-.31,3.87,3.87,0,0,1-1.36-.87,4.16,4.16,0,0,1-.89-1.37,4.57,4.57,0,0,1-.32-1.77,4.62,4.62,0,0,1,.3-1.67,4,4,0,0,1,2.18-2.29,4,4,0,0,1,1.68-.34,4.11,4.11,0,0,1,1.67.33,3.58,3.58,0,0,1,1.27.93,4.27,4.27,0,0,1,.81,1.41,5.38,5.38,0,0,1,.28,1.79V100h-6.32a2.57,2.57,0,0,0,.24.86,2.4,2.4,0,0,0,.53.73,2.45,2.45,0,0,0,.79.49,2.84,2.84,0,0,0,1,.18,3.6,3.6,0,0,0,1.26-.24,3,3,0,0,0,1.08-.68l.82,1.17a4.07,4.07,0,0,1-1.5.9A5.29,5.29,0,0,1,104,103.71Zm2.17-5A2.29,2.29,0,0,0,106,98a2.07,2.07,0,0,0-.42-.69,2.11,2.11,0,0,0-.71-.52,2.31,2.31,0,0,0-1-.21,2.33,2.33,0,0,0-1,.2,2.19,2.19,0,0,0-.71.51,2.4,2.4,0,0,0-.43.7,2.26,2.26,0,0,0-.17.75Z" fill="#e52823"/><path d="M113.39,103.71a4.53,4.53,0,0,1-1.71-.32,4,4,0,0,1-2.21-2.27,4.63,4.63,0,0,1-.31-1.73,4.52,4.52,0,0,1,.31-1.71,3.94,3.94,0,0,1,.88-1.36,4,4,0,0,1,1.33-.91,4.53,4.53,0,0,1,1.71-.32,4.63,4.63,0,0,1,1.1.12,4,4,0,0,1,.86.32A3.46,3.46,0,0,1,116,96a3.7,3.7,0,0,1,.51.55l-1.17,1.07a2.19,2.19,0,0,0-1.89-1,2.31,2.31,0,0,0-1.8.76,2.83,2.83,0,0,0-.68,2,3.25,3.25,0,0,0,.18,1.1,2.7,2.7,0,0,0,.51.87,2.46,2.46,0,0,0,.78.57,2.53,2.53,0,0,0,1,.2,2.18,2.18,0,0,0,1.89-1l1.17,1.11a4.17,4.17,0,0,1-1.19,1A3.83,3.83,0,0,1,113.39,103.71Z" fill="#e52823"/><path d="M120.6,103.71a2.1,2.1,0,0,1-1.58-.54,2.16,2.16,0,0,1-.53-1.58V96.84h-1.36V95.3h1.36V93.05h1.78V95.3h1.67v1.54h-1.67v4.3a1.22,1.22,0,0,0,.2.71.66.66,0,0,0,.59.28,1.14,1.14,0,0,0,.46-.09.94.94,0,0,0,.32-.22l.42,1.36a1.87,1.87,0,0,1-.64.38A3,3,0,0,1,120.6,103.71Z" fill="#e52823"/><path d="M130.68,103.51V93.94h-3.44V92.17h8.86v1.77h-3.43v9.57Z" fill="#e52823"/><path d="M139.67,103.71a4.33,4.33,0,0,1-1.77-.35,3.94,3.94,0,0,1-1.32-.93,4.08,4.08,0,0,1-.84-1.37,4.84,4.84,0,0,1-.29-1.67,4.79,4.79,0,0,1,.29-1.66,4.08,4.08,0,0,1,.84-1.37,3.94,3.94,0,0,1,1.32-.93,4.78,4.78,0,0,1,3.54,0,3.94,3.94,0,0,1,1.32.93,4.08,4.08,0,0,1,.84,1.37,4.79,4.79,0,0,1,.29,1.66,4.84,4.84,0,0,1-.29,1.67,4.08,4.08,0,0,1-.84,1.37,3.94,3.94,0,0,1-1.32.93A4.33,4.33,0,0,1,139.67,103.71Zm0-1.58a2.22,2.22,0,0,0,1-.22,2.28,2.28,0,0,0,.74-.6,2.57,2.57,0,0,0,.45-.87,3.65,3.65,0,0,0,.15-1,3.47,3.47,0,0,0-.15-1,2.57,2.57,0,0,0-.45-.87,2.28,2.28,0,0,0-.74-.6,2.35,2.35,0,0,0-1-.22,2.3,2.3,0,0,0-1,.22,2.21,2.21,0,0,0-.75.6,2.42,2.42,0,0,0-.46.87,3.47,3.47,0,0,0-.15,1,3.65,3.65,0,0,0,.15,1,2.42,2.42,0,0,0,.46.87,2.21,2.21,0,0,0,.75.6A2.16,2.16,0,0,0,139.67,102.13Z" fill="#e52823"/><path d="M150.12,103.71a3.14,3.14,0,0,1-1.45-.35,3.57,3.57,0,0,1-1.18-1v4.26h-1.78V95.3h1.78v1.12a3.43,3.43,0,0,1,1.14-1,3.13,3.13,0,0,1,1.49-.36,3.71,3.71,0,0,1,1.47.29,3.13,3.13,0,0,1,1.14.84,3.86,3.86,0,0,1,.76,1.35,6.27,6.27,0,0,1,0,3.64,3.86,3.86,0,0,1-.76,1.35,3.28,3.28,0,0,1-1.14.85A3.54,3.54,0,0,1,150.12,103.71Zm-.52-1.58a2.1,2.1,0,0,0,1.7-.77,3.38,3.38,0,0,0,0-3.93,2.09,2.09,0,0,0-1.7-.76,2.56,2.56,0,0,0-1.22.32,2.34,2.34,0,0,0-.89.77V101a2.22,2.22,0,0,0,.38.44,3.61,3.61,0,0,0,.51.36,2.57,2.57,0,0,0,.6.23A2.21,2.21,0,0,0,149.6,102.13Z" fill="#e52823"/><path d="M160,103.51V92.17h5a4,4,0,0,1,1.57.28,3.38,3.38,0,0,1,1.17.76,3.18,3.18,0,0,1,.71,1.13,3.93,3.93,0,0,1,.24,1.38,3.65,3.65,0,0,1-.25,1.36,3.23,3.23,0,0,1-.71,1.13,3.41,3.41,0,0,1-1.16.77,4.23,4.23,0,0,1-1.57.28h-3v4.25Zm4.73-6A2,2,0,0,0,166.1,97a1.67,1.67,0,0,0,.53-1.29,1.7,1.7,0,0,0-.53-1.3,2,2,0,0,0-1.39-.48H162v3.55Z" fill="#e52823"/><path d="M175.81,103.51v-1.13a3.45,3.45,0,0,1-1.15,1,3.06,3.06,0,0,1-1.48.36,3.69,3.69,0,0,1-1.46-.29,3,3,0,0,1-1.15-.85,3.91,3.91,0,0,1-.76-1.36,5.66,5.66,0,0,1-.27-1.82,5.54,5.54,0,0,1,.27-1.78,3.82,3.82,0,0,1,.76-1.36,3.19,3.19,0,0,1,1.14-.86,3.54,3.54,0,0,1,1.47-.3,3.2,3.2,0,0,1,1.46.34,3.37,3.37,0,0,1,1.17,1V95.3h1.79v8.21Zm-2.11-1.38a2.21,2.21,0,0,0,.62-.09,2.57,2.57,0,0,0,.6-.23,3.26,3.26,0,0,0,.51-.35,2,2,0,0,0,.38-.44V97.78a2.5,2.5,0,0,0-.38-.43,2.7,2.7,0,0,0-.51-.35,2.7,2.7,0,0,0-1.22-.33,2.19,2.19,0,0,0-1.7.77,2.37,2.37,0,0,0-.46.86,3.46,3.46,0,0,0-.17,1.09,3.52,3.52,0,0,0,.17,1.1,2.59,2.59,0,0,0,.46.87,2.37,2.37,0,0,0,.73.57A2.34,2.34,0,0,0,173.7,102.13Z" fill="#e52823"/><path d="M187.08,103.51l-1.92-6-1.9,6h-1.87l-2.55-8.21h1.85l1.73,6,2-6H186l1.94,6,1.73-6h1.87L189,103.51Z" fill="#e52823"/><path d="M196.14,93.24a2,2,0,0,1-.17.81,2.23,2.23,0,0,1-.44.67,1.93,1.93,0,0,1-.67.45,2.08,2.08,0,0,1-.82.17,2,2,0,0,1-.82-.17,1.93,1.93,0,0,1-.67-.45,2.08,2.08,0,0,1-.45-.67,2,2,0,0,1-.17-.81,2.12,2.12,0,0,1,.17-.83,2,2,0,0,1,.45-.66,2.08,2.08,0,0,1,.67-.45,2,2,0,0,1,.82-.16,2.07,2.07,0,0,1,1.49.61,2.18,2.18,0,0,1,.44.66A2.12,2.12,0,0,1,196.14,93.24Zm-.3,0a1.87,1.87,0,0,0-.14-.71,1.74,1.74,0,0,0-.39-.58,1.84,1.84,0,0,0-.57-.38,1.87,1.87,0,0,0-.71-.14,1.78,1.78,0,0,0-.7.14,1.73,1.73,0,0,0-.57.38,1.74,1.74,0,0,0-.39.58,1.87,1.87,0,0,0-.14.71,1.81,1.81,0,0,0,.14.69,1.61,1.61,0,0,0,.39.57,1.92,1.92,0,0,0,.57.39,1.78,1.78,0,0,0,.7.14,1.87,1.87,0,0,0,.71-.14,2.06,2.06,0,0,0,.57-.39,1.61,1.61,0,0,0,.39-.57A1.81,1.81,0,0,0,195.84,93.24Zm-1.23,1.21-.62-1h-.43v1h-.33V92h1a.77.77,0,0,1,.54.2.65.65,0,0,1,.24.53.71.71,0,0,1-.08.34.79.79,0,0,1-.18.22.57.57,0,0,1-.21.12l-.16,0,.65,1Zm0-1.68a.42.42,0,0,0-.14-.32.45.45,0,0,0-.3-.13h-.65v.88h.65a.44.44,0,0,0,.3-.12A.4.4,0,0,0,194.65,92.77Z" fill="#e52823"/><path d="M207.8,103.51v-1.13a3.42,3.42,0,0,1-1.14,1,3.13,3.13,0,0,1-1.49.36,3.64,3.64,0,0,1-1.45-.29,3,3,0,0,1-1.16-.85,4.07,4.07,0,0,1-.76-1.36,5.66,5.66,0,0,1-.27-1.82,5.54,5.54,0,0,1,.27-1.78,4,4,0,0,1,.76-1.36,3.22,3.22,0,0,1,1.15-.86,3.5,3.5,0,0,1,1.46-.3,3.17,3.17,0,0,1,1.46.34,3.28,3.28,0,0,1,1.17,1V92.17h1.79v11.34Zm-2.1-1.38a2.27,2.27,0,0,0,.62-.09,2.49,2.49,0,0,0,.59-.23,3.26,3.26,0,0,0,.51-.35,2,2,0,0,0,.38-.44V97.78a2.5,2.5,0,0,0-.38-.43,2.7,2.7,0,0,0-.51-.35,2.15,2.15,0,0,0-.59-.24,2.27,2.27,0,0,0-.62-.09,2.13,2.13,0,0,0-1,.21,2,2,0,0,0-.73.56,2.38,2.38,0,0,0-.47.86,3.46,3.46,0,0,0-.16,1.09,3.52,3.52,0,0,0,.16,1.1,2.61,2.61,0,0,0,.47.87,2.16,2.16,0,0,0,.73.57A2.27,2.27,0,0,0,205.7,102.13Z" fill="#e52823"/><path d="M215.62,103.71a4.32,4.32,0,0,1-1.76-.35,3.88,3.88,0,0,1-1.33-.93,4.06,4.06,0,0,1-.83-1.37,4.62,4.62,0,0,1-.29-1.67,4.57,4.57,0,0,1,.29-1.66,4.06,4.06,0,0,1,.83-1.37,3.88,3.88,0,0,1,1.33-.93,4.75,4.75,0,0,1,3.53,0,4,4,0,0,1,1.33.93,4.06,4.06,0,0,1,.83,1.37,4.79,4.79,0,0,1,.29,1.66,4.84,4.84,0,0,1-.29,1.67,4.06,4.06,0,0,1-.83,1.37,4,4,0,0,1-1.33.93A4.33,4.33,0,0,1,215.62,103.71Zm0-1.58a2.19,2.19,0,0,0,1-.22,2.09,2.09,0,0,0,.74-.6,2.57,2.57,0,0,0,.45-.87,3.34,3.34,0,0,0,.16-1,3.17,3.17,0,0,0-.16-1,2.57,2.57,0,0,0-.45-.87,2.09,2.09,0,0,0-.74-.6,2.43,2.43,0,0,0-2,0,2.43,2.43,0,0,0-.75.6,2.78,2.78,0,0,0-.46.87,3.47,3.47,0,0,0-.15,1,3.65,3.65,0,0,0,.15,1,2.78,2.78,0,0,0,.46.87,2.43,2.43,0,0,0,.75.6A2.19,2.19,0,0,0,215.62,102.13Z" fill="#e52823"/><path d="M225,106.84a5.9,5.9,0,0,1-1.87-.27,4.15,4.15,0,0,1-1.58-1l.83-1.29a2.85,2.85,0,0,0,1.16.82,4.14,4.14,0,0,0,1.46.24,3.7,3.7,0,0,0,.87-.11,2.34,2.34,0,0,0,.79-.39,2.06,2.06,0,0,0,.56-.7,2.54,2.54,0,0,0,.21-1.1v-.93a3.66,3.66,0,0,1-1.15,1,3,3,0,0,1-1.49.37,3.67,3.67,0,0,1-1.45-.28,3.25,3.25,0,0,1-1.16-.81,3.86,3.86,0,0,1-.75-1.32,6.1,6.1,0,0,1,0-3.59,3.86,3.86,0,0,1,.75-1.32,3.23,3.23,0,0,1,1.15-.83,3.84,3.84,0,0,1,1.46-.28,3.21,3.21,0,0,1,1.47.34,3.37,3.37,0,0,1,1.17,1V95.3h1.78v7.78a4,4,0,0,1-.37,1.84,3.16,3.16,0,0,1-1,1.15,3.72,3.72,0,0,1-1.36.6A7,7,0,0,1,225,106.84Zm.32-4.91a2.46,2.46,0,0,0,1.22-.33,2.5,2.5,0,0,0,.89-.76V97.76a2.5,2.5,0,0,0-.89-.76,2.46,2.46,0,0,0-1.22-.33,2.12,2.12,0,0,0-1.7.73,3.2,3.2,0,0,0,0,3.81A2.15,2.15,0,0,0,225.33,101.93Z" fill="#e52823"/><path d="M238.4,103.71a2.12,2.12,0,0,1-1.58-.54,2.2,2.2,0,0,1-.52-1.58V96.84h-1.36V95.3h1.36V93.05h1.78V95.3h1.67v1.54h-1.67v4.3a1.22,1.22,0,0,0,.2.71.65.65,0,0,0,.58.28,1.19,1.19,0,0,0,.47-.09.88.88,0,0,0,.31-.22l.43,1.36a1.83,1.83,0,0,1-.65.38A3,3,0,0,1,238.4,103.71Z" fill="#e52823"/><path d="M245.07,103.71a4.33,4.33,0,0,1-1.77-.35,3.91,3.91,0,0,1-2.16-2.3,4.84,4.84,0,0,1-.29-1.67,4.79,4.79,0,0,1,.29-1.66,3.91,3.91,0,0,1,2.16-2.3,4.33,4.33,0,0,1,1.77-.34,4.4,4.4,0,0,1,1.77.34,3.94,3.94,0,0,1,1.32.93,4.06,4.06,0,0,1,.83,1.37,4.57,4.57,0,0,1,.29,1.66,4.62,4.62,0,0,1-.29,1.67,4.06,4.06,0,0,1-.83,1.37,3.94,3.94,0,0,1-1.32.93A4.4,4.4,0,0,1,245.07,103.71Zm0-1.58a2.25,2.25,0,0,0,1-.22,2.28,2.28,0,0,0,.74-.6,2.57,2.57,0,0,0,.45-.87,3.65,3.65,0,0,0,.15-1,3.47,3.47,0,0,0-.15-1,2.57,2.57,0,0,0-.45-.87,2.28,2.28,0,0,0-.74-.6,2.39,2.39,0,0,0-1-.22,2.34,2.34,0,0,0-1,.22,2.28,2.28,0,0,0-.74.6,2.42,2.42,0,0,0-.46.87,3.47,3.47,0,0,0-.16,1,3.66,3.66,0,0,0,.16,1,2.42,2.42,0,0,0,.46.87,2.28,2.28,0,0,0,.74.6A2.21,2.21,0,0,0,245.07,102.13Z" fill="#e52823"/><path d="M254.33,106.84a5.16,5.16,0,0,1-1.83-.3,4.39,4.39,0,0,1-1.48-.93l.83-1.29a2.36,2.36,0,0,0,1.11.81,4,4,0,0,0,1.37.25,2.36,2.36,0,0,0,1.7-.59,2.23,2.23,0,0,0,.61-1.69v-.95a4.19,4.19,0,0,1-1.18.89,3.48,3.48,0,0,1-1.71.4,2.69,2.69,0,0,1-2-.67,2.6,2.6,0,0,1-.67-1.93V95.3h1.79v4.87a1.61,1.61,0,0,0,.45,1.32,1.82,1.82,0,0,0,1.21.37,2.37,2.37,0,0,0,1.24-.33,3.14,3.14,0,0,0,.85-.74V95.3h1.79v7.8a3.94,3.94,0,0,1-.31,1.62,3.19,3.19,0,0,1-.86,1.18,3.7,3.7,0,0,1-1.3.7A5.26,5.26,0,0,1,254.33,106.84Z" fill="#e52823"/><path d="M263.56,103.71a5.7,5.7,0,0,1-2-.33,4.32,4.32,0,0,1-1.55-1l.82-1.28a3.41,3.41,0,0,0,.53.43,4,4,0,0,0,.68.36,4.1,4.1,0,0,0,.77.26,3.61,3.61,0,0,0,.79.09,2.05,2.05,0,0,0,1.22-.3.9.9,0,0,0,.41-.79.66.66,0,0,0-.36-.61,4,4,0,0,0-.92-.34l-1.2-.27a5.14,5.14,0,0,1-1.2-.41,2.64,2.64,0,0,1-.92-.73,2,2,0,0,1-.36-1.26,2.24,2.24,0,0,1,.21-1,2.34,2.34,0,0,1,.62-.79,3.11,3.11,0,0,1,1-.53,4.57,4.57,0,0,1,1.39-.2,4.92,4.92,0,0,1,1.84.32,4.67,4.67,0,0,1,1.34.82L266,97.49a3.12,3.12,0,0,0-1-.7,3.47,3.47,0,0,0-1.42-.29,1.86,1.86,0,0,0-1.11.29.86.86,0,0,0-.4.73.6.6,0,0,0,.36.55,3.94,3.94,0,0,0,.92.31l1.2.27a5.18,5.18,0,0,1,1.2.43,2.58,2.58,0,0,1,.91.76,2.09,2.09,0,0,1,.37,1.3,2.31,2.31,0,0,1-.22,1,2.26,2.26,0,0,1-.66.82,3.06,3.06,0,0,1-1.07.53A4.67,4.67,0,0,1,263.56,103.71Z" fill="#e52823"/></g></g></svg>