<svg xmlns="http://www.w3.org/2000/svg" xmlns:xlink="http://www.w3.org/1999/xlink" viewBox="0 0 300.04 250"><defs><clipPath id="clip-path" transform="translate(-0.5)"><rect y="135.2" width="135.92" height="105.03" fill="none"/></clipPath></defs><g id="Layer_2" data-name="Layer 2"><g id="Layer_1-2" data-name="Layer 1"><g id="Layer_1-3" data-name="Layer 1"><rect width="300" height="250"/></g><path d="M300.54,219.56c-14.19-27.25-44.59-46.09-79.71-46.09-47.12,0-84.88,30.6-87.88,76.23H300.54Z" transform="translate(-0.5)" fill="#e52823"/><g id="Content"><g clip-path="url(#clip-path)"><g clip-path="url(#clip-path)"><path d="M32.65,176.24c13.79-4.21,20.75,6.35,20.75,6.35S49,167.85,32.65,176.24" transform="translate(-0.5)" fill="#fff"/><path d="M59.3,176.79c0-.06,0-.44,0-.5a10.3,10.3,0,0,0-5.44,7.91,11,11,0,0,1,6.29-5.69,2.66,2.66,0,0,1-.85-1.72" transform="translate(-0.5)" fill="#fff"/><path d="M41.71,182.94s0,2.09,0,3.14c-.53,0-2.82-.15-3.83-.18,0,.56,0,1.14,0,1.7,1.21,0,2.46.17,3.66.16,0,1,0,1.88,0,2.89-1.2,0-2.41-.1-3.61-.12,0,.61,0,1.23,0,1.84,1.3,0,2.6.13,3.89.12,0-.05,0,3.07,0,3.07-2.57,0-5.61-.2-8.49-.44l.2-12.82c1.21.15,5,.55,8.25.64" transform="translate(-0.5)" fill="#fff"/><path d="M42.81,183l-.05,3.35c1.21.06,2.29.06,2.29.06v9.29a28.71,28.71,0,0,0,4.63-.06l-.06-9.2,2.37-.12c0-1.23,0-2.19,0-3.42a79.39,79.39,0,0,1-9.13.1" transform="translate(-0.5)" fill="#fff"/><path d="M104.68,180.93c0,1.33,0,2.56,0,3.89.78,0,1.67.2,2.46.27,0,3.23-.08,5.69-.09,8.92,2.18.27,3.73.52,4.33.63,0-3.24.13-5.8.13-9,0,0,2.31.35,2.35.39v-4a71.61,71.61,0,0,0-9.17-1.08" transform="translate(-0.5)" fill="#fff"/><path d="M27.81,181l-5.49-1,0,13.45c1.4.27,2.69.51,4.06.66l0-3.89c.49.06,1,.12,1.49.16,2.38.23,4.78-.67,4.81-4.56,0-3.45-2.27-4.45-4.82-4.83m-1,6.2-.41,0c0-.88,0-1.76,0-2.64l.39,0A1.34,1.34,0,0,1,28.14,186c0,1.09-.68,1.3-1.34,1.23" transform="translate(-0.5)" fill="#fff"/><path d="M73.62,193.48c.61-1.61,1.22-3.1,1.84-4.7.1,1.53.16,2.92.25,4.45,1.54-.17,2.77-.26,4.31-.36-.4-4.08-.74-8.46-1.14-12.54-1.32.11-2.64.23-3.95.36-.74,1.92-1.48,4.27-2.22,6.2-.72-1.79-1.43-3.88-2.14-5.67-1.34.19-3.72.61-4,.61-.46,4.17-1,8.79-1.43,13,1-.19,3.61-.6,4.39-.7.12-1.55.23-3.21.35-4.77l1.78,4.45c.34,0,1.52-.23,1.92-.29" transform="translate(-0.5)" fill="#fff"/><path d="M101.79,189.2c1.17-.53,2-1.67,2-3.92,0-3.4-2.36-4.85-4.79-5q-2.76-.23-5.52-.3c-.06,4.32-.09,8.27-.14,12.59,1.37,0,2.88.15,4.09.25,0-1.22,0-2.12,0-3.34l2.21,3.61c1.7.15,3.43.37,5.12.62-1.06-1.59-2-2.94-3.07-4.48M98,186.43l-.4,0,0-2.6.39,0a1.3,1.3,0,0,1,1.34,1.37A1.12,1.12,0,0,1,98,186.43" transform="translate(-0.5)" fill="#fff"/><path d="M88.72,179.86c-1.64,0-3,0-4.37.09-1.13,4.19-2.46,8.67-3.58,12.87,1.25,0,2.52-.1,3.77-.11.11-.44.25-1,.36-1.39l1.91,0s1.69-.05,1.69-.05c0,.16.2.6.42,1.33,1.25,0,2.5,0,3.75,0-1.35-4.43-2.72-8.7-4-12.72m-3,8.5c.29-1.07.58-2.2.86-3.27l1,3.23a15.8,15.8,0,0,1-1.85,0" transform="translate(-0.5)" fill="#fff"/><path d="M112.35,193.44a.69.69,0,0,1,0,1.38.69.69,0,0,1,0-1.38Zm0,.11a.58.58,0,0,0,0,1.16.58.58,0,0,0,0-1.16Zm-.13,1h-.12v-.77l.22,0a.46.46,0,0,1,.24.06.19.19,0,0,1,.07.16.18.18,0,0,1-.15.18h0c.06,0,.11.07.12.19a.86.86,0,0,0,.05.19h-.12a.68.68,0,0,1-.06-.2c0-.1-.06-.13-.16-.13h-.09Zm0-.43h.09c.1,0,.19,0,.19-.13s0-.13-.19-.13h-.09Z" transform="translate(-0.5)" fill="#fff"/><path d="M53.4,194.48a11.46,11.46,0,0,0,5.08,1.29c2.88,0,5.88-1.72,6-4.94,0-2.29-1.41-3.38-3.45-3.84l-1.08-.24c-.37-.09-1-.16-1-.67s.63-.71,1.05-.71a7.52,7.52,0,0,1,2.93.62l1.23-3.24a9.77,9.77,0,0,0-4.19-1c-2.89,0-5.79,1.75-5.86,5,0,2.11,1.52,3.27,3.4,3.61l1,.18c.44.09,1.08.15,1.06.76s-.76.67-1.23.67a5.65,5.65,0,0,1-3.3-1.09c-.5,1.13-1.09,2.52-1.59,3.64" transform="translate(-0.5)" fill="#fff"/><path d="M63.8,172.57A3.24,3.24,0,1,0,67,175.85a3.24,3.24,0,0,0-3.19-3.28m1.17,1.2a3.86,3.86,0,0,0-3.47,2,.07.07,0,0,0,0,0,2.32,2.32,0,0,1,.08-.9,2.2,2.2,0,0,1,2.69-1.57,2,2,0,0,1,.76.41l0,0" transform="translate(-0.5)" fill="#fff"/></g></g></g><path d="M15.27,13.47H26.5a6.92,6.92,0,0,1,3.34.75,5.18,5.18,0,0,1,2.1,2,5.33,5.33,0,0,1,.7,2.7,5,5,0,0,1-1.05,3.26A4.47,4.47,0,0,1,29,23.81a4.42,4.42,0,0,1,2.92,1.76,5.45,5.45,0,0,1,1.18,3.48,5.58,5.58,0,0,1-1.63,4.13,6.18,6.18,0,0,1-4.58,1.63H15.27Zm10.24,8.58a2.48,2.48,0,0,0,1.82-.66A2.28,2.28,0,0,0,28,19.68,2.24,2.24,0,0,0,27.32,18a2.53,2.53,0,0,0-1.81-.67h-5.7v4.71Zm.16,8.89a2.82,2.82,0,0,0,2-.69,2.57,2.57,0,0,0,0-3.61,2.75,2.75,0,0,0-2-.72H19.81v5Z" transform="translate(-0.5)" fill="#fff"/><path d="M37.49,34.16A4.24,4.24,0,0,1,36.39,31V13.47h4.06V29.92a1.85,1.85,0,0,0,.39,1.21,1.23,1.23,0,0,0,1,.48,2.73,2.73,0,0,0,.83-.12,1.33,1.33,0,0,0,.55-.32l.86,3.07a5,5,0,0,1-3.36,1A4.51,4.51,0,0,1,37.49,34.16Z" transform="translate(-0.5)" fill="#fff"/><path d="M56.55,32.83a6.35,6.35,0,0,1-2.13,1.78,5.83,5.83,0,0,1-2.64.62,6.6,6.6,0,0,1-3.52-1,6.44,6.44,0,0,1-2.45-2.79,9.92,9.92,0,0,1-.88-4.36,9.84,9.84,0,0,1,.88-4.31A6.73,6.73,0,0,1,48.24,20a6.47,6.47,0,0,1,3.54-1,6,6,0,0,1,2.62.61,6.06,6.06,0,0,1,2.15,1.76v-2h4.09V34.81H56.55Zm0-8.44A3.83,3.83,0,0,0,55,23.12a4.46,4.46,0,0,0-2-.5,3.61,3.61,0,0,0-2.82,1.24,4.77,4.77,0,0,0-1.09,3.26,4.77,4.77,0,0,0,1.09,3.24A3.56,3.56,0,0,0,53,31.61a4.44,4.44,0,0,0,2-.49,3.83,3.83,0,0,0,1.51-1.27Z" transform="translate(-0.5)" fill="#fff"/><path d="M64.74,22.9A7.46,7.46,0,0,1,67.65,20,8.45,8.45,0,0,1,71.88,19a8.13,8.13,0,0,1,3.71.79,6.54,6.54,0,0,1,2.4,2l-2.66,2.49a3.7,3.7,0,0,0-3.26-1.66,4,4,0,0,0-3,1.24,4.53,4.53,0,0,0-1.16,3.26A4.58,4.58,0,0,0,69,30.36,4.08,4.08,0,0,0,75.33,30L78,32.41a6.54,6.54,0,0,1-2.39,2,7.93,7.93,0,0,1-3.72.8,8.55,8.55,0,0,1-4.23-1,7.55,7.55,0,0,1-2.91-2.89,8.85,8.85,0,0,1,0-8.4Z" transform="translate(-0.5)" fill="#fff"/><path d="M86.56,28.86l-1.85,2v4H80.64V13.47h4.07V26.24l5.85-6.88h5l-6.12,7,6.31,8.44H90.66Z" transform="translate(-0.5)" fill="#fff"/><path d="M106.05,13.47h15.1v3.9H110.59V22h10.34v3.91H110.59v8.89h-4.54Z" transform="translate(-0.5)" fill="#fff"/><path d="M124.23,19.36h4.06v2.11a6.91,6.91,0,0,1,2.18-1.78,5.73,5.73,0,0,1,2.75-.72v4a5.5,5.5,0,0,0-1.12-.13,5.45,5.45,0,0,0-2.18.52,3.62,3.62,0,0,0-1.63,1.25V34.81h-4.06Z" transform="translate(-0.5)" fill="#fff"/><path d="M136.05,16.37a2.41,2.41,0,1,1,1.71.72A2.34,2.34,0,0,1,136.05,16.37Zm-.3,3h4.06V34.81h-4.06Z" transform="translate(-0.5)" fill="#fff"/><path d="M154.47,32.83a6.35,6.35,0,0,1-2.13,1.78,5.83,5.83,0,0,1-2.64.62,6.6,6.6,0,0,1-3.52-1,6.44,6.44,0,0,1-2.45-2.79,9.92,9.92,0,0,1-.88-4.36,9.84,9.84,0,0,1,.88-4.31A6.73,6.73,0,0,1,146.16,20a6.47,6.47,0,0,1,3.54-1,6,6,0,0,1,2.62.61,6.14,6.14,0,0,1,2.15,1.76V13.47h4.09V34.81h-4.09Zm0-8.47A3.75,3.75,0,0,0,153,23.09a4.46,4.46,0,0,0-2-.5,3.57,3.57,0,0,0-2.82,1.25A4.81,4.81,0,0,0,147,27.12a4.72,4.72,0,0,0,1.09,3.24A3.54,3.54,0,0,0,151,31.61a4.44,4.44,0,0,0,2-.49,3.83,3.83,0,0,0,1.51-1.27Z" transform="translate(-0.5)" fill="#fff"/><path d="M173.22,32.83a6.35,6.35,0,0,1-2.13,1.78,5.83,5.83,0,0,1-2.64.62,6.62,6.62,0,0,1-3.52-1,6.44,6.44,0,0,1-2.45-2.79,10.06,10.06,0,0,1-.88-4.36,10,10,0,0,1,.88-4.31A6.73,6.73,0,0,1,164.91,20a6.47,6.47,0,0,1,3.54-1,6,6,0,0,1,2.62.61,6.06,6.06,0,0,1,2.15,1.76v-2h4.09V34.81h-4.09Zm0-8.44a3.76,3.76,0,0,0-1.51-1.27,4.46,4.46,0,0,0-2-.5,3.61,3.61,0,0,0-2.82,1.24,4.77,4.77,0,0,0-1.09,3.26,4.77,4.77,0,0,0,1.09,3.24,3.56,3.56,0,0,0,2.82,1.25,4.44,4.44,0,0,0,2-.49,3.76,3.76,0,0,0,1.51-1.27Z" transform="translate(-0.5)" fill="#fff"/><path d="M183,35.84A4.83,4.83,0,0,0,185,37.28a7.13,7.13,0,0,0,2.59.48,4.29,4.29,0,0,0,3.07-1,3.82,3.82,0,0,0,1.09-2.94v-1.6a7.23,7.23,0,0,1-2.29,1.66,7.14,7.14,0,0,1-3.15.68,5,5,0,0,1-3.75-1.28,4.94,4.94,0,0,1-1.24-3.59V19.36h4.06v8.7a2.79,2.79,0,0,0,.74,2.19,3,3,0,0,0,2.11.66,4.09,4.09,0,0,0,2-.51,4.93,4.93,0,0,0,1.51-1.25V19.36h4.06V33.6a7,7,0,0,1-2.22,5.52,8.73,8.73,0,0,1-6,2,9.45,9.45,0,0,1-6.47-2.31Z" transform="translate(-0.5)" fill="#fff"/><path d="M218.69,32.83a6.35,6.35,0,0,1-2.13,1.78,5.83,5.83,0,0,1-2.64.62,6.62,6.62,0,0,1-3.52-1A6.51,6.51,0,0,1,208,31.48a10.06,10.06,0,0,1-.88-4.36,10,10,0,0,1,.88-4.31A6.68,6.68,0,0,1,210.39,20a6.42,6.42,0,0,1,3.53-1,6,6,0,0,1,2.63.61,6.11,6.11,0,0,1,2.14,1.76V13.47h4.1V34.81h-4.1Zm0-8.47a3.72,3.72,0,0,0-1.5-1.27,4.53,4.53,0,0,0-2-.5,3.59,3.59,0,0,0-2.82,1.25,4.86,4.86,0,0,0-1.08,3.28,4.77,4.77,0,0,0,1.08,3.24,3.56,3.56,0,0,0,2.82,1.25,4.52,4.52,0,0,0,2-.49,3.8,3.8,0,0,0,1.5-1.27Z" transform="translate(-0.5)" fill="#fff"/><path d="M226.85,23a7.64,7.64,0,0,1,2.85-2.93,7.85,7.85,0,0,1,4.13-1.1,7.57,7.57,0,0,1,4,1.08,7.22,7.22,0,0,1,2.73,3,9.77,9.77,0,0,1,1,4.44v.89H230.08A4,4,0,0,0,231.46,31a4.54,4.54,0,0,0,3.07,1,6.49,6.49,0,0,0,2.26-.42,5.24,5.24,0,0,0,1.87-1.12l1.79,2.63a7.71,7.71,0,0,1-2.82,1.58,11.32,11.32,0,0,1-3.55.56,8.83,8.83,0,0,1-4.22-1,7.32,7.32,0,0,1-3-2.85,8.32,8.32,0,0,1-1.07-4.28A8.3,8.3,0,0,1,226.85,23Zm4.29.25A4.1,4.1,0,0,0,230,25.63h7.61a3.92,3.92,0,0,0-1-2.37,3.52,3.52,0,0,0-2.76-1.05A3.45,3.45,0,0,0,231.14,23.25Z" transform="translate(-0.5)" fill="#fff"/><path d="M255.14,32.83A6.35,6.35,0,0,1,253,34.61a5.83,5.83,0,0,1-2.64.62,6.6,6.6,0,0,1-3.52-1,6.44,6.44,0,0,1-2.45-2.79,9.92,9.92,0,0,1-.88-4.36,9.84,9.84,0,0,1,.88-4.31A6.73,6.73,0,0,1,246.83,20a6.47,6.47,0,0,1,3.54-1,6,6,0,0,1,2.62.61,6.06,6.06,0,0,1,2.15,1.76v-2h4.09V34.81h-4.09Zm0-8.44a3.76,3.76,0,0,0-1.51-1.27,4.46,4.46,0,0,0-2-.5,3.61,3.61,0,0,0-2.82,1.24,4.77,4.77,0,0,0-1.09,3.26,4.77,4.77,0,0,0,1.09,3.24,3.56,3.56,0,0,0,2.82,1.25,4.44,4.44,0,0,0,2-.49,3.76,3.76,0,0,0,1.51-1.27Z" transform="translate(-0.5)" fill="#fff"/><path d="M264.37,34.16a4.2,4.2,0,0,1-1.1-3.16V13.47h4.06V29.92a1.9,1.9,0,0,0,.38,1.21,1.26,1.26,0,0,0,1,.48,2.78,2.78,0,0,0,.83-.12,1.22,1.22,0,0,0,.54-.32l.87,3.07a5,5,0,0,1-3.36,1A4.51,4.51,0,0,1,264.37,34.16Z" transform="translate(-0.5)" fill="#fff"/><path d="M273.22,30a7.87,7.87,0,0,0,2.43,1.47,7.48,7.48,0,0,0,2.91.64,3.65,3.65,0,0,0,1.94-.42,1.31,1.31,0,0,0,.65-1.16,1.22,1.22,0,0,0-.76-1.13,10.33,10.33,0,0,0-2.34-.71A21.64,21.64,0,0,1,275,27.9a5,5,0,0,1-2.11-1.39,3.78,3.78,0,0,1-.9-2.67,4.25,4.25,0,0,1,.75-2.43,5.09,5.09,0,0,1,2.19-1.78,8.09,8.09,0,0,1,3.4-.66,9.76,9.76,0,0,1,6.24,2.12l-1.64,2.78a5.7,5.7,0,0,0-2-1.28,6.82,6.82,0,0,0-2.61-.51,3.59,3.59,0,0,0-1.78.38,1.17,1.17,0,0,0-.65,1.06,1.08,1.08,0,0,0,.72,1,11.19,11.19,0,0,0,2.22.65A21,21,0,0,1,282,26a5.34,5.34,0,0,1,2.18,1.47,4,4,0,0,1,.93,2.79,4.36,4.36,0,0,1-.79,2.56,5.12,5.12,0,0,1-2.3,1.78,9.16,9.16,0,0,1-3.6.64,11.62,11.62,0,0,1-3.86-.64,8.65,8.65,0,0,1-3.05-1.76Z" transform="translate(-0.5)" fill="#fff"/><path d="M17.86,69.17a14.31,14.31,0,0,0,4.44,3.12A13.6,13.6,0,0,0,28,73.49a6.87,6.87,0,0,0,4.1-1.07,3.07,3.07,0,0,0,1.46-2.56A2.66,2.66,0,0,0,32,67.38a20.81,20.81,0,0,0-4.9-1.62A54.69,54.69,0,0,1,21,64a10.25,10.25,0,0,1-4.11-2.82,7.62,7.62,0,0,1-1.75-5.27A8.65,8.65,0,0,1,16.66,51a10.06,10.06,0,0,1,4.25-3.48,15.12,15.12,0,0,1,6.41-1.28q7.62,0,12.48,4.46l-3.8,5a12.53,12.53,0,0,0-4.29-2.62,14.14,14.14,0,0,0-4.87-.89,5.77,5.77,0,0,0-3.48.9,2.8,2.8,0,0,0-1.23,2.39,2.31,2.31,0,0,0,1.49,2.2,28.67,28.67,0,0,0,4.9,1.52A43.73,43.73,0,0,1,34.59,61a10.52,10.52,0,0,1,4.17,2.91,7.58,7.58,0,0,1,1.76,5.24,9.38,9.38,0,0,1-3.29,7.46q-3.28,2.84-9.53,2.84-8.49,0-13.58-5.09Z" transform="translate(-0.5)" fill="#fff"/><path d="M52.18,52.8H42.82v-6H68.36v6H59v26H52.18Z" transform="translate(-0.5)" fill="#fff"/><path d="M90.05,73.29H75.75l-2,5.52H66.24l12.39-32h8.54l12.34,32H92.07Zm-12.48-5.9H88.18L82.9,52.7Z" transform="translate(-0.5)" fill="#fff"/><path d="M114.29,67.34h-5V78.81h-6.82v-32h15a11.83,11.83,0,0,1,5.71,1.32,9.15,9.15,0,0,1,3.75,3.67,10.89,10.89,0,0,1,1.29,5.33,9.63,9.63,0,0,1-2,6.38,9,9,0,0,1-5,3.12l7.2,12.19h-7.82Zm5.59-13.46a4.93,4.93,0,0,0-3.43-1.23H109.3v8.84h7.15a4.93,4.93,0,0,0,3.43-1.23,4.4,4.4,0,0,0,0-6.38Z" transform="translate(-0.5)" fill="#fff"/><path d="M140.26,52.8H130.9v-6h25.54v6h-9.32v26h-6.86Z" transform="translate(-0.5)" fill="#fff"/><path d="M179.91,57.31v21.5h-6.82v-32h7l14.83,20.73V46.8h6.82v32h-6.58Z" transform="translate(-0.5)" fill="#fff"/><path d="M208.71,54.32a15.55,15.55,0,0,1,6-5.91,18.33,18.33,0,0,1,17.19,0,15.55,15.55,0,0,1,6,5.91,17.94,17.94,0,0,1,0,17.07,15.55,15.55,0,0,1-6,5.91,18.33,18.33,0,0,1-17.19,0,15.55,15.55,0,0,1-6-5.91,17.94,17.94,0,0,1,0-17.07Zm23.09,3.15a9.06,9.06,0,0,0-3.44-3.78,10.18,10.18,0,0,0-10.2,0,9.12,9.12,0,0,0-3.41,3.78,12.78,12.78,0,0,0,0,10.77A9.12,9.12,0,0,0,218.16,72a10.18,10.18,0,0,0,10.2,0,9.06,9.06,0,0,0,3.44-3.78,12.68,12.68,0,0,0,0-10.77Z" transform="translate(-0.5)" fill="#fff"/><path d="M262.71,56.83l-5.57,22h-7.25l-9.17-32h7.64L254,69.93l6.1-23.13h5.33l6,23.13L277,46.8h7.68l-9.12,32h-7.25Z" transform="translate(-0.5)" fill="#fff"/></g><g id="rec"><rect width="300" height="250" fill="none"/></g></g></svg>