<svg xmlns="http://www.w3.org/2000/svg" viewBox="0 0 300 250"><g id="Layer_2" data-name="Layer 2"><g id="rec"><rect width="300" height="250" fill="none"/></g><g id="sbhd"><path d="M18.48,103.63V92.93H14.64V91h9.9v2H20.7v10.7Z" fill="#e52823"/><path d="M28.53,103.86a4.79,4.79,0,0,1-2-.39,4.42,4.42,0,0,1-1.48-1,4.25,4.25,0,0,1-.93-1.53,5.41,5.41,0,0,1,0-3.72,4.4,4.4,0,0,1,2.41-2.57,5.32,5.32,0,0,1,3.95,0,4.4,4.4,0,0,1,2.41,2.57,5.41,5.41,0,0,1,0,3.72,4.25,4.25,0,0,1-.93,1.53,4.42,4.42,0,0,1-1.48,1A4.78,4.78,0,0,1,28.53,103.86Zm0-1.77a2.45,2.45,0,0,0,1.14-.25,2.3,2.3,0,0,0,.82-.66,3.15,3.15,0,0,0,.51-1,4.08,4.08,0,0,0,0-2.33,3.09,3.09,0,0,0-.51-1,2.3,2.3,0,0,0-.82-.66,2.7,2.7,0,0,0-2.27,0,2.53,2.53,0,0,0-.83.66,2.73,2.73,0,0,0-.51,1,3.86,3.86,0,0,0,0,2.33,2.78,2.78,0,0,0,.51,1,2.53,2.53,0,0,0,.83.66A2.44,2.44,0,0,0,28.53,102.09Z" fill="#e52823"/><path d="M40.21,103.86a3.46,3.46,0,0,1-1.62-.39,4.08,4.08,0,0,1-1.32-1.11v4.76h-2V94.45h2v1.26a3.71,3.71,0,0,1,1.27-1.09,3.58,3.58,0,0,1,1.67-.4,3.92,3.92,0,0,1,1.63.33,3.52,3.52,0,0,1,1.29.94A4.32,4.32,0,0,1,44,97a6.8,6.8,0,0,1,0,4.06,4.32,4.32,0,0,1-.84,1.51,3.55,3.55,0,0,1-1.29,1A3.78,3.78,0,0,1,40.21,103.86Zm-.59-1.77a2.33,2.33,0,0,0,1.9-.86,3.79,3.79,0,0,0,0-4.39,2.33,2.33,0,0,0-1.9-.85,2.9,2.9,0,0,0-1.36.35,2.65,2.65,0,0,0-1,.87v3.63a2.38,2.38,0,0,0,.42.49,3.41,3.41,0,0,0,.57.4,3.61,3.61,0,0,0,.67.27A2.72,2.72,0,0,0,39.62,102.09Z" fill="#e52823"/><path d="M51.23,103.63V91h5.59a4.59,4.59,0,0,1,1.75.31,3.86,3.86,0,0,1,1.31.85,3.57,3.57,0,0,1,.79,1.27,4.34,4.34,0,0,1,.27,1.54,4.1,4.1,0,0,1-.28,1.52,3.6,3.6,0,0,1-2.09,2.12,4.79,4.79,0,0,1-1.75.31H53.45v4.75Zm5.28-6.73a2.26,2.26,0,0,0,1.55-.53,2,2,0,0,0,0-2.89,2.18,2.18,0,0,0-1.55-.55H53.45v4Z" fill="#e52823"/><path d="M68.92,103.63v-1.25a4.15,4.15,0,0,1-1.28,1.08,3.58,3.58,0,0,1-1.67.4,4,4,0,0,1-1.62-.33,3.44,3.44,0,0,1-1.29-1,4.56,4.56,0,0,1-.85-1.52,6.33,6.33,0,0,1-.3-2,6.21,6.21,0,0,1,.3-2,4.56,4.56,0,0,1,.85-1.52,3.63,3.63,0,0,1,1.28-1A3.81,3.81,0,0,1,66,94.22a3.66,3.66,0,0,1,1.64.38,3.79,3.79,0,0,1,1.31,1.13V94.45h2v9.18Zm-2.36-1.54a2.86,2.86,0,0,0,.7-.09,3.81,3.81,0,0,0,.66-.27,3.37,3.37,0,0,0,.57-.39,2.19,2.19,0,0,0,.43-.49V97.23a2.39,2.39,0,0,0-.43-.48,3.41,3.41,0,0,0-.57-.4,3.12,3.12,0,0,0-.66-.26,2.47,2.47,0,0,0-.7-.1,2.52,2.52,0,0,0-1.08.23,2.4,2.4,0,0,0-.82.63,2.76,2.76,0,0,0-.52,1A4,4,0,0,0,64,99a4.06,4.06,0,0,0,.18,1.23,3.11,3.11,0,0,0,.52,1,2.4,2.4,0,0,0,.82.63A2.52,2.52,0,0,0,66.56,102.09Z" fill="#e52823"/><path d="M81.52,103.63,79.37,96.9l-2.13,6.73H75.15L72.3,94.45h2.07l1.94,6.67,2.19-6.67h1.76l2.17,6.67,1.94-6.67h2.09l-2.85,9.18Z" fill="#e52823"/><path d="M91.64,92.15a2.28,2.28,0,0,1-.19.91,2.15,2.15,0,0,1-.5.75,2.25,2.25,0,0,1-1.66.69,2.36,2.36,0,0,1-.92-.18,2.39,2.39,0,0,1-.74-.51,2.17,2.17,0,0,1-.51-.75,2.27,2.27,0,0,1-.18-.91,2.39,2.39,0,0,1,.18-.92,2.17,2.17,0,0,1,.51-.75,2.33,2.33,0,0,1,.74-.49,2.2,2.2,0,0,1,.92-.19,2.23,2.23,0,0,1,.92.19,2.33,2.33,0,0,1,.74.49,2.15,2.15,0,0,1,.5.75A2.4,2.4,0,0,1,91.64,92.15Zm-.34,0a2.09,2.09,0,0,0-.15-.79,1.92,1.92,0,0,0-.44-.64,2,2,0,0,0-.64-.43,2.06,2.06,0,0,0-.79-.16,2,2,0,0,0-1.42.59,1.76,1.76,0,0,0-.43.64,2,2,0,0,0,0,1.57,1.81,1.81,0,0,0,.43.63,2.21,2.21,0,0,0,.64.44,2,2,0,0,0,.78.16,2.06,2.06,0,0,0,.79-.16,2.21,2.21,0,0,0,.64-.44,2,2,0,0,0,.44-.63A2.08,2.08,0,0,0,91.3,92.15ZM89.93,93.5l-.7-1.06h-.47V93.5h-.37V90.81h1.1a.9.9,0,0,1,.61.22.76.76,0,0,1,.26.6.89.89,0,0,1-.08.38,1,1,0,0,1-.21.25.76.76,0,0,1-.23.13.54.54,0,0,1-.18,0l.72,1.07Zm0-1.87a.46.46,0,0,0-.15-.36.51.51,0,0,0-.33-.14h-.73v1h.73a.51.51,0,0,0,.33-.14A.42.42,0,0,0,90,91.63Z" fill="#e52823"/><path d="M101.37,103.86a6.47,6.47,0,0,1-2.2-.37,4.88,4.88,0,0,1-1.73-1.08l.91-1.42a3.69,3.69,0,0,0,.59.47,5,5,0,0,0,.76.41,5.44,5.44,0,0,0,.86.29,3.92,3.92,0,0,0,.89.1,2.31,2.31,0,0,0,1.36-.33,1,1,0,0,0,.46-.89.74.74,0,0,0-.41-.68,4.12,4.12,0,0,0-1-.38l-1.34-.3a5.72,5.72,0,0,1-1.34-.46,2.86,2.86,0,0,1-1-.82,2.2,2.2,0,0,1-.41-1.4A2.51,2.51,0,0,1,98,95.92a2.64,2.64,0,0,1,.69-.88,3.57,3.57,0,0,1,1.13-.6,5.22,5.22,0,0,1,1.55-.22,5.38,5.38,0,0,1,2.06.36,5.28,5.28,0,0,1,1.5.92l-.84,1.4a3.64,3.64,0,0,0-1.13-.78,3.89,3.89,0,0,0-1.59-.32,2.13,2.13,0,0,0-1.24.32,1,1,0,0,0-.45.82.66.66,0,0,0,.41.61,4.11,4.11,0,0,0,1,.35l1.34.3a5.93,5.93,0,0,1,1.34.48,2.91,2.91,0,0,1,1,.85,2.41,2.41,0,0,1,.41,1.46,2.63,2.63,0,0,1-.25,1.14,2.46,2.46,0,0,1-.73.91,3.75,3.75,0,0,1-1.2.6A5.76,5.76,0,0,1,101.37,103.86Z" fill="#e52823"/><path d="M118.45,103.63v-6a1.91,1.91,0,0,0-.35-1.19,1.36,1.36,0,0,0-1.17-.46,2.23,2.23,0,0,0-1.24.38,3,3,0,0,0-.89.84v6.42h-2v-6a2,2,0,0,0-.34-1.19,1.35,1.35,0,0,0-1.16-.46,2.14,2.14,0,0,0-1.24.39,3.78,3.78,0,0,0-.89.83v6.42h-2V94.45h2v1.24a3,3,0,0,1,.44-.47,3.25,3.25,0,0,1,.68-.47,4.84,4.84,0,0,1,.87-.37,3.1,3.1,0,0,1,1-.16,2.67,2.67,0,0,1,1.65.47,2.29,2.29,0,0,1,.86,1.21,3,3,0,0,1,.5-.61,3.37,3.37,0,0,1,.73-.54,3.56,3.56,0,0,1,.89-.38,3.32,3.32,0,0,1,1-.15,2.63,2.63,0,0,1,1.94.69,2.78,2.78,0,0,1,.7,2.09v6.63Z" fill="#e52823"/><path d="M129.49,103.63v-1.25a4,4,0,0,1-1.28,1.08,3.57,3.57,0,0,1-1.66.4,4,4,0,0,1-1.63-.33,3.44,3.44,0,0,1-1.29-1,4.56,4.56,0,0,1-.85-1.52,6.33,6.33,0,0,1-.3-2,6.21,6.21,0,0,1,.3-2,4.56,4.56,0,0,1,.85-1.52,3.63,3.63,0,0,1,1.28-1,3.85,3.85,0,0,1,1.64-.34,3.65,3.65,0,0,1,1.63.38,3.7,3.7,0,0,1,1.31,1.13V94.45h2v9.18Zm-2.36-1.54a2.86,2.86,0,0,0,.7-.09,3.81,3.81,0,0,0,.66-.27,3.37,3.37,0,0,0,.57-.39,2.19,2.19,0,0,0,.43-.49V97.23a2.39,2.39,0,0,0-.43-.48,3.41,3.41,0,0,0-.57-.4,3.12,3.12,0,0,0-.66-.26,2.47,2.47,0,0,0-.7-.1,2.52,2.52,0,0,0-1.08.23,2.4,2.4,0,0,0-.82.63,2.76,2.76,0,0,0-.52,1,4,4,0,0,0-.18,1.22,4.06,4.06,0,0,0,.18,1.23,3.11,3.11,0,0,0,.52,1,2.4,2.4,0,0,0,.82.63A2.52,2.52,0,0,0,127.13,102.09Z" fill="#e52823"/><path d="M136.43,103.86a2.38,2.38,0,0,1-1.76-.61,2.43,2.43,0,0,1-.6-1.77V91h2v10a1.41,1.41,0,0,0,.22.79.76.76,0,0,0,.66.31,1.32,1.32,0,0,0,.53-.1.87.87,0,0,0,.36-.24l.48,1.52a2.38,2.38,0,0,1-.73.42A3.4,3.4,0,0,1,136.43,103.86Z" fill="#e52823"/><path d="M141.86,103.86a2.39,2.39,0,0,1-1.76-.61,2.43,2.43,0,0,1-.6-1.77V91h2v10a1.34,1.34,0,0,0,.22.79.73.73,0,0,0,.65.31,1.32,1.32,0,0,0,.53-.1,1,1,0,0,0,.37-.24l.47,1.52a2.44,2.44,0,0,1-.72.42A3.47,3.47,0,0,1,141.86,103.86Z" fill="#e52823"/><path d="M19.58,124.86a4.89,4.89,0,0,1-1.91-.36,4.32,4.32,0,0,1-1.49-1,4.51,4.51,0,0,1-1-1.53,5.06,5.06,0,0,1-.35-1.93,5,5,0,0,1,.35-1.92,4.57,4.57,0,0,1,1-1.52,4.46,4.46,0,0,1,1.49-1,4.89,4.89,0,0,1,1.91-.36,5.05,5.05,0,0,1,1.22.14,4.25,4.25,0,0,1,1,.36,3.22,3.22,0,0,1,.75.52,4.11,4.11,0,0,1,.57.62l-1.31,1.19A2.47,2.47,0,0,0,19.67,117a2.55,2.55,0,0,0-2,.85A3.12,3.12,0,0,0,16.9,120a3.53,3.53,0,0,0,.2,1.23,2.86,2.86,0,0,0,.57,1,2.59,2.59,0,0,0,.87.63,2.75,2.75,0,0,0,1.13.23,2.46,2.46,0,0,0,2.11-1.1l1.31,1.23a4.57,4.57,0,0,1-1.33,1.14A4.24,4.24,0,0,1,19.58,124.86Z" fill="#e52823"/><path d="M31.05,124.63v-1.22a4.86,4.86,0,0,1-1.32,1,3.93,3.93,0,0,1-1.91.45,2.62,2.62,0,0,1-3-2.91v-6.5h2v5.76a1.79,1.79,0,0,0,.51,1.47,2.1,2.1,0,0,0,1.36.41,2.58,2.58,0,0,0,1.37-.37,3.31,3.31,0,0,0,1-.83v-6.44h2v9.18Z" fill="#e52823"/><path d="M42.09,124.63v-1.25a4,4,0,0,1-1.28,1.08,3.57,3.57,0,0,1-1.66.4,4,4,0,0,1-1.63-.33,3.44,3.44,0,0,1-1.29-1,4.56,4.56,0,0,1-.85-1.52,6.33,6.33,0,0,1-.3-2,6.21,6.21,0,0,1,.3-2,4.56,4.56,0,0,1,.85-1.52,3.63,3.63,0,0,1,1.28-1,3.85,3.85,0,0,1,1.64-.34,3.65,3.65,0,0,1,1.63.38,3.7,3.7,0,0,1,1.31,1.13V112h2v12.67Zm-2.35-1.54a2.84,2.84,0,0,0,.69-.09,3.51,3.51,0,0,0,.66-.27,3.37,3.37,0,0,0,.57-.39,2,2,0,0,0,.43-.49v-3.62a2.12,2.12,0,0,0-.43-.48,3.41,3.41,0,0,0-.57-.4,2.93,2.93,0,0,0-.66-.26,2.45,2.45,0,0,0-.69-.1,2.53,2.53,0,0,0-1.09.23,2.37,2.37,0,0,0-.81.63,2.62,2.62,0,0,0-.53,1,4,4,0,0,0-.18,1.22,4.06,4.06,0,0,0,.18,1.23,2.94,2.94,0,0,0,.53,1,2.37,2.37,0,0,0,.81.63A2.53,2.53,0,0,0,39.74,123.09Z" fill="#e52823"/><path d="M53.13,124.63v-1.25a4,4,0,0,1-1.28,1.08,3.57,3.57,0,0,1-1.66.4,4,4,0,0,1-1.63-.33,3.44,3.44,0,0,1-1.29-1,4.56,4.56,0,0,1-.85-1.52,6.33,6.33,0,0,1-.3-2,6.21,6.21,0,0,1,.3-2,4.56,4.56,0,0,1,.85-1.52,3.63,3.63,0,0,1,1.28-1,3.85,3.85,0,0,1,1.64-.34,3.65,3.65,0,0,1,1.63.38,3.7,3.7,0,0,1,1.31,1.13V112h2v12.67Zm-2.36-1.54a2.86,2.86,0,0,0,.7-.09,3.81,3.81,0,0,0,.66-.27,3.37,3.37,0,0,0,.57-.39,2.19,2.19,0,0,0,.43-.49v-3.62a2.39,2.39,0,0,0-.43-.48,3.41,3.41,0,0,0-.57-.4,3.12,3.12,0,0,0-.66-.26,2.47,2.47,0,0,0-.7-.1,2.52,2.52,0,0,0-1.08.23,2.37,2.37,0,0,0-.81.63,2.62,2.62,0,0,0-.53,1,4,4,0,0,0-.18,1.22,4.06,4.06,0,0,0,.18,1.23,2.94,2.94,0,0,0,.53,1,2.37,2.37,0,0,0,.81.63A2.52,2.52,0,0,0,50.77,123.09Z" fill="#e52823"/><path d="M60.07,124.86a2.38,2.38,0,0,1-1.76-.61,2.43,2.43,0,0,1-.6-1.77V112h2v10a1.41,1.41,0,0,0,.21.79.76.76,0,0,0,.66.31,1.32,1.32,0,0,0,.53-.1.87.87,0,0,0,.36-.24l.48,1.52a2.44,2.44,0,0,1-.72.42A3.51,3.51,0,0,1,60.07,124.86Z" fill="#e52823"/><path d="M67.4,124.86a5.47,5.47,0,0,1-1.93-.34,4.47,4.47,0,0,1-1.52-1A4.72,4.72,0,0,1,63,122a5.29,5.29,0,0,1-.36-2,5.09,5.09,0,0,1,.35-1.87,4.44,4.44,0,0,1,1-1.53,4.85,4.85,0,0,1,1.48-1,4.61,4.61,0,0,1,1.88-.38,4.68,4.68,0,0,1,1.86.37,4.25,4.25,0,0,1,1.43,1,4.62,4.62,0,0,1,.9,1.58,6,6,0,0,1,.31,2v.5H64.68a3,3,0,0,0,.28,1,2.56,2.56,0,0,0,.59.8,2.48,2.48,0,0,0,.88.55,3,3,0,0,0,1.16.2A4.26,4.26,0,0,0,69,123a3.33,3.33,0,0,0,1.21-.76l.91,1.31a4.62,4.62,0,0,1-1.67,1A6.3,6.3,0,0,1,67.4,124.86Zm2.43-5.59a2.59,2.59,0,0,0-.18-.83,2.43,2.43,0,0,0-1.26-1.35,2.55,2.55,0,0,0-1.16-.23,2.51,2.51,0,0,0-1.1.22,2.2,2.2,0,0,0-.79.57,2.64,2.64,0,0,0-.49.78,2.83,2.83,0,0,0-.19.84Z" fill="#e52823"/><path d="M73.73,124.63v-9.18h2v1.33A4.71,4.71,0,0,1,77,115.67a3.31,3.31,0,0,1,1.68-.45v2a2.8,2.8,0,0,0-.61-.06,2.38,2.38,0,0,0-.68.1,3.52,3.52,0,0,0-.68.26,3.68,3.68,0,0,0-.6.4,1.86,1.86,0,0,0-.42.48v6.25Z" fill="#e52823"/><path d="M85.22,124.63V112h2v4.77a3.57,3.57,0,0,1,1.32-1.13,3.64,3.64,0,0,1,1.62-.38,3.93,3.93,0,0,1,1.65.34,3.58,3.58,0,0,1,1.29,1,4.37,4.37,0,0,1,.84,1.52,5.94,5.94,0,0,1,.31,2,6.06,6.06,0,0,1-.31,2,4.23,4.23,0,0,1-.85,1.52,3.56,3.56,0,0,1-1.3,1,4,4,0,0,1-1.63.33,3.59,3.59,0,0,1-1.65-.4,4,4,0,0,1-1.29-1.08v1.25Zm2-2.76a2.65,2.65,0,0,0,1,.87,3,3,0,0,0,1.38.35,2.3,2.3,0,0,0,1.89-.86,3.37,3.37,0,0,0,.7-2.2,4,4,0,0,0-.18-1.22,2.78,2.78,0,0,0-.53-1,2.47,2.47,0,0,0-.81-.63,2.5,2.5,0,0,0-1.07-.23,2.84,2.84,0,0,0-1.38.36,2.67,2.67,0,0,0-1,.88Z" fill="#e52823"/><path d="M100.52,124.86a5.47,5.47,0,0,1-1.93-.34,4.38,4.38,0,0,1-1.52-1,4.56,4.56,0,0,1-1-1.53,5.29,5.29,0,0,1-.36-2,5.09,5.09,0,0,1,.34-1.87,4.62,4.62,0,0,1,1-1.53,4.69,4.69,0,0,1,1.47-1,4.64,4.64,0,0,1,1.88-.38,4.69,4.69,0,0,1,1.87.37,4.21,4.21,0,0,1,1.42,1,4.47,4.47,0,0,1,.9,1.58,6,6,0,0,1,.32,2v.5H97.8a3,3,0,0,0,.28,1,2.69,2.69,0,0,0,.58.8,2.62,2.62,0,0,0,.89.55,3,3,0,0,0,1.16.2,4.21,4.21,0,0,0,1.4-.26,3.37,3.37,0,0,0,1.22-.76l.91,1.31a4.79,4.79,0,0,1-1.67,1A6.34,6.34,0,0,1,100.52,124.86Zm2.43-5.59a2.59,2.59,0,0,0-.18-.83,2.49,2.49,0,0,0-.48-.77,2.35,2.35,0,0,0-.79-.58,2.51,2.51,0,0,0-1.15-.23,2.59,2.59,0,0,0-1.11.22,2.16,2.16,0,0,0-.78.57,2.45,2.45,0,0,0-.49.78,2.55,2.55,0,0,0-.19.84Z" fill="#e52823"/><path d="M113.3,124.63v-1.25a4,4,0,0,1-1.28,1.08,3.54,3.54,0,0,1-1.66.4,4,4,0,0,1-1.63-.33,3.44,3.44,0,0,1-1.29-1,4.37,4.37,0,0,1-.84-1.52,6.06,6.06,0,0,1-.31-2,5.94,5.94,0,0,1,.31-2,4.37,4.37,0,0,1,.84-1.52,3.63,3.63,0,0,1,1.28-1,3.85,3.85,0,0,1,1.64-.34,3.56,3.56,0,0,1,2.94,1.51V112h2v12.67ZM111,123.09a2.72,2.72,0,0,0,.69-.09,3.61,3.61,0,0,0,.67-.27,3.37,3.37,0,0,0,.57-.39,2.14,2.14,0,0,0,.42-.49v-3.62a2.33,2.33,0,0,0-.42-.48,3.41,3.41,0,0,0-.57-.4,3,3,0,0,0-.67-.26,2.35,2.35,0,0,0-.69-.1,2.53,2.53,0,0,0-1.09.23,2.47,2.47,0,0,0-.81.63,2.61,2.61,0,0,0-.52,1,3.67,3.67,0,0,0-.19,1.22,3.78,3.78,0,0,0,.19,1.23,2.92,2.92,0,0,0,.52,1,2.47,2.47,0,0,0,.81.63A2.53,2.53,0,0,0,111,123.09Z" fill="#e52823"/><path d="M121,124.86a6.53,6.53,0,0,1-2.21-.37,4.88,4.88,0,0,1-1.73-1.08L118,122a4.08,4.08,0,0,0,.58.47,5.48,5.48,0,0,0,.76.41,5.22,5.22,0,0,0,.87.29,3.83,3.83,0,0,0,.88.1,2.33,2.33,0,0,0,1.37-.33,1.06,1.06,0,0,0,.46-.89.74.74,0,0,0-.41-.68,4.21,4.21,0,0,0-1-.38l-1.34-.3a5.72,5.72,0,0,1-1.34-.46,2.83,2.83,0,0,1-1-.82,2.14,2.14,0,0,1-.41-1.4,2.51,2.51,0,0,1,.93-2,3.46,3.46,0,0,1,1.13-.6,5.22,5.22,0,0,1,1.55-.22,5.45,5.45,0,0,1,2.06.36,5.09,5.09,0,0,1,1.49.92l-.83,1.4a3.64,3.64,0,0,0-1.13-.78,3.93,3.93,0,0,0-1.59-.32,2.16,2.16,0,0,0-1.25.32,1,1,0,0,0-.44.82.65.65,0,0,0,.41.61,4.17,4.17,0,0,0,1,.35l1.34.3a5.76,5.76,0,0,1,1.34.48,3,3,0,0,1,1,.85,2.41,2.41,0,0,1,.41,1.46,2.79,2.79,0,0,1-.25,1.14,2.56,2.56,0,0,1-.73.91,3.85,3.85,0,0,1-1.2.6A5.76,5.76,0,0,1,121,124.86Z" fill="#e52823"/><path d="M135.57,124.82a7.24,7.24,0,0,1-2.57-.64,6.37,6.37,0,0,1-1.86-1.32l1.26-1.73a5.7,5.7,0,0,0,1.34,1.08,5,5,0,0,0,1.83.63v-3.69c-.49-.13-1-.27-1.45-.44a4.82,4.82,0,0,1-1.28-.65,3.4,3.4,0,0,1-.93-1,3.15,3.15,0,0,1-.35-1.55,3.29,3.29,0,0,1,.29-1.36,3.62,3.62,0,0,1,.8-1.14,4.19,4.19,0,0,1,1.27-.81,5.87,5.87,0,0,1,1.65-.39V110h1.52v1.76a7.12,7.12,0,0,1,2.12.57,6.1,6.1,0,0,1,1.7,1.16l-1.25,1.66a4.62,4.62,0,0,0-1.21-.88,6.09,6.09,0,0,0-1.36-.47v3.28c.5.13,1,.28,1.48.45a4.84,4.84,0,0,1,1.32.68,3.4,3.4,0,0,1,1,1.08,3.12,3.12,0,0,1,.37,1.59,4,4,0,0,1-.24,1.39,3.78,3.78,0,0,1-.75,1.2,4.06,4.06,0,0,1-1.29.87,5.65,5.65,0,0,1-1.84.44v1.71h-1.52Zm-1.73-9.5a1,1,0,0,0,.49.87,4.35,4.35,0,0,0,1.24.55v-3a2.26,2.26,0,0,0-1.26.51A1.36,1.36,0,0,0,133.84,115.32Zm5.09,5.81a1.11,1.11,0,0,0-.52-1,4.76,4.76,0,0,0-1.32-.6v3.3a2.28,2.28,0,0,0,1.42-.65A1.64,1.64,0,0,0,138.93,121.13Z" fill="#e52823"/><path d="M144.25,124.63l4.79-10.7h-6.57v-2h9.14v1.54l-4.9,11.13Z" fill="#e52823"/><path d="M152.6,124.84a1.25,1.25,0,0,1-.94-.4,1.31,1.31,0,0,1-.39-1,1.25,1.25,0,0,1,.39-.92,1.28,1.28,0,0,1,.94-.39,1.29,1.29,0,0,1,.94.39,1.25,1.25,0,0,1,.39.92,1.31,1.31,0,0,1-.39,1A1.26,1.26,0,0,1,152.6,124.84Z" fill="#e52823"/><path d="M160,124.84a5.25,5.25,0,0,1-2.1-.39,5.09,5.09,0,0,1-1.55-1l1-1.69a3.76,3.76,0,0,0,1.1.83,3.5,3.5,0,0,0,1.51.29,3,3,0,0,0,1.49-.36,3.16,3.16,0,0,0,1-1,4,4,0,0,0,.61-1.34,6.06,6.06,0,0,0,.2-1.53v-.18a1.1,1.1,0,0,0,0-.18,3,3,0,0,1-.56.64,4.69,4.69,0,0,1-.79.57,4.63,4.63,0,0,1-1,.41,3.88,3.88,0,0,1-1.09.15,5.09,5.09,0,0,1-1.62-.26,3.75,3.75,0,0,1-1.35-.77,3.53,3.53,0,0,1-.92-1.28,4.31,4.31,0,0,1-.35-1.78,4.18,4.18,0,0,1,1.28-3,4.21,4.21,0,0,1,1.47-.91,5.39,5.39,0,0,1,1.93-.33,5,5,0,0,1,2.38.52,4.48,4.48,0,0,1,1.63,1.42,6.61,6.61,0,0,1,.92,2.09,10.76,10.76,0,0,1,.29,2.5,8.92,8.92,0,0,1-.36,2.57,6.1,6.1,0,0,1-1.06,2.08,5,5,0,0,1-1.75,1.39A5.31,5.31,0,0,1,160,124.84Zm.53-6.65a3.18,3.18,0,0,0,1.55-.41,3.85,3.85,0,0,0,1.22-1.09,4.86,4.86,0,0,0-.23-1,3.09,3.09,0,0,0-.5-1,2.62,2.62,0,0,0-.84-.7,2.58,2.58,0,0,0-1.26-.28,2.88,2.88,0,0,0-1.1.2,2.7,2.7,0,0,0-.8.52,1.9,1.9,0,0,0-.48.71,2,2,0,0,0-.16.78,2.39,2.39,0,0,0,.2,1,1.91,1.91,0,0,0,.58.71,2.29,2.29,0,0,0,.83.4A3.64,3.64,0,0,0,160.52,118.19Z" fill="#e52823"/><path d="M171.41,124.84a5.25,5.25,0,0,1-2.1-.39,5,5,0,0,1-1.55-1l1-1.69a3.76,3.76,0,0,0,1.1.83,3.47,3.47,0,0,0,1.51.29,3,3,0,0,0,1.49-.36,3.16,3.16,0,0,0,1-1,4.21,4.21,0,0,0,.61-1.34,6.06,6.06,0,0,0,.2-1.53v-.18a1.1,1.1,0,0,0,0-.18,3.25,3.25,0,0,1-.56.64,4.69,4.69,0,0,1-.79.57,4.63,4.63,0,0,1-1,.41,3.93,3.93,0,0,1-1.09.15,5.09,5.09,0,0,1-1.62-.26,3.75,3.75,0,0,1-1.35-.77,3.68,3.68,0,0,1-.93-1.28,4.48,4.48,0,0,1-.34-1.78,4.18,4.18,0,0,1,1.28-3,4.21,4.21,0,0,1,1.47-.91,5.35,5.35,0,0,1,1.93-.33,5,5,0,0,1,2.38.52,4.48,4.48,0,0,1,1.63,1.42,6.61,6.61,0,0,1,.92,2.09,10.76,10.76,0,0,1,.29,2.5,8.92,8.92,0,0,1-.36,2.57,6.1,6.1,0,0,1-1.06,2.08,5,5,0,0,1-1.75,1.39A5.31,5.31,0,0,1,171.41,124.84Zm.53-6.65a3.18,3.18,0,0,0,1.55-.41,3.85,3.85,0,0,0,1.22-1.09,4.86,4.86,0,0,0-.23-1,3.09,3.09,0,0,0-.5-1,2.56,2.56,0,0,0-.85-.7,2.51,2.51,0,0,0-1.25-.28,2.88,2.88,0,0,0-1.1.2,2.7,2.7,0,0,0-.8.52,1.9,1.9,0,0,0-.48.71,2,2,0,0,0-.17.78,2.25,2.25,0,0,0,.21,1,2,2,0,0,0,.57.71,2.34,2.34,0,0,0,.84.4A3.64,3.64,0,0,0,171.94,118.19Z" fill="#e52823"/></g></g></svg>