<svg xmlns="http://www.w3.org/2000/svg" viewBox="0 0 300 250"><g id="Layer_2" data-name="Layer 2"><g id="rec"><rect width="300" height="250" fill="none"/></g><g id="CTA"><path id="bg" d="M114.16,137.5h-88a10.45,10.45,0,0,1-10.66-10.23V126.2A10.45,10.45,0,0,1,26.14,116h88a10.45,10.45,0,0,1,10.66,10.23v1.07a10.45,10.45,0,0,1-10.66,10.23" fill="#e52823"/><path d="M44.1,131.48A5.22,5.22,0,0,1,42,131.1a4.77,4.77,0,0,1-1.45-1l.86-1.18a4,4,0,0,0,1.13.84,3.43,3.43,0,0,0,1.6.36,2.69,2.69,0,0,0,.8-.1,1.55,1.55,0,0,0,.53-.27,1.14,1.14,0,0,0,.3-.39,1.07,1.07,0,0,0,.09-.43.78.78,0,0,0-.36-.69,3.58,3.58,0,0,0-.94-.41c-.37-.11-.78-.22-1.21-.32a6.66,6.66,0,0,1-1.21-.43,2.45,2.45,0,0,1-.93-.75,2,2,0,0,1-.37-1.26,2.22,2.22,0,0,1,.22-1,2.64,2.64,0,0,1,.64-.81,2.76,2.76,0,0,1,1-.53,4.08,4.08,0,0,1,1.3-.2,5,5,0,0,1,1.82.32,4.11,4.11,0,0,1,1.4.9l-.85,1.13a3.19,3.19,0,0,0-1.18-.76,3.83,3.83,0,0,0-1.34-.24,1.68,1.68,0,0,0-1,.3.91.91,0,0,0-.4.77.71.71,0,0,0,.37.63,4.09,4.09,0,0,0,.93.37l1.22.32a6,6,0,0,1,1.21.45,2.94,2.94,0,0,1,.93.78,2,2,0,0,1,.37,1.29,2.78,2.78,0,0,1-.2,1,2.17,2.17,0,0,1-.6.85,3,3,0,0,1-1,.59A4.76,4.76,0,0,1,44.1,131.48Z" fill="#fff"/><path d="M53,131.32v-3.93a1.25,1.25,0,0,0-.33-1,1.52,1.52,0,0,0-.92-.26,1.73,1.73,0,0,0-1,.26,2.3,2.3,0,0,0-.65.57v4.37H48.8v-8.64h1.36v3.23a2.66,2.66,0,0,1,.38-.36,3.2,3.2,0,0,1,.51-.33,2.75,2.75,0,0,1,.61-.22,2.63,2.63,0,0,1,.7-.09,2.05,2.05,0,0,1,1.52.51,2,2,0,0,1,.5,1.47v4.43Z" fill="#fff"/><path d="M59,131.48a3.18,3.18,0,0,1-1.34-.27,3,3,0,0,1-1-.71,3.22,3.22,0,0,1-.63-1,3.78,3.78,0,0,1,0-2.54,3.12,3.12,0,0,1,.63-1,3,3,0,0,1,1-.71,3.34,3.34,0,0,1,1.34-.26,3.42,3.42,0,0,1,1.35.26,2.93,2.93,0,0,1,1,.71,2.82,2.82,0,0,1,.63,1,3.62,3.62,0,0,1,0,2.54,3,3,0,0,1-1.64,1.75A3.25,3.25,0,0,1,59,131.48Zm0-1.2a1.73,1.73,0,0,0,.78-.17,1.8,1.8,0,0,0,.56-.46,2.08,2.08,0,0,0,.35-.66,3,3,0,0,0,.11-.8,2.9,2.9,0,0,0-.11-.79,2.08,2.08,0,0,0-.35-.66,1.8,1.8,0,0,0-.56-.46,1.73,1.73,0,0,0-.78-.16,1.7,1.7,0,0,0-.76.16,1.73,1.73,0,0,0-.57.46,1.9,1.9,0,0,0-.35.66,2.56,2.56,0,0,0-.12.79,2.67,2.67,0,0,0,.12.8,1.9,1.9,0,0,0,.35.66,1.73,1.73,0,0,0,.57.46A1.7,1.7,0,0,0,59,130.28Z" fill="#fff"/><path d="M67,131.48a2.34,2.34,0,0,1-1.11-.27,2.66,2.66,0,0,1-.9-.75v3.25H63.58v-8.64h1.36v.85a2.6,2.6,0,0,1,.87-.74,2.43,2.43,0,0,1,1.14-.27,2.82,2.82,0,0,1,1.11.22,2.53,2.53,0,0,1,.88.64,3,3,0,0,1,.57,1,4.71,4.71,0,0,1,0,2.78,3,3,0,0,1-.57,1,2.53,2.53,0,0,1-.88.64A2.65,2.65,0,0,1,67,131.48Zm-.4-1.2a1.59,1.59,0,0,0,1.29-.59,2.58,2.58,0,0,0,0-3,1.6,1.6,0,0,0-1.29-.57,2,2,0,0,0-.93.24,1.8,1.8,0,0,0-.68.59v2.47a2.28,2.28,0,0,0,.29.34,2.7,2.7,0,0,0,.39.27,1.83,1.83,0,0,0,.46.18A1.91,1.91,0,0,0,66.55,130.28Z" fill="#fff"/><path d="M80.49,131.32,76,125.14v6.18H74.46v-8.64H76l4.42,6v-6H82v8.64Z" fill="#fff"/><path d="M86.59,131.48a3.25,3.25,0,0,1-1.35-.27,3,3,0,0,1-1.64-1.75,3.78,3.78,0,0,1,0-2.54,3,3,0,0,1,.63-1,3,3,0,0,1,1-.71,3.63,3.63,0,0,1,2.7,0,3,3,0,0,1,1,.71,3,3,0,0,1,.63,1,3.78,3.78,0,0,1,0,2.54,3,3,0,0,1-1.64,1.75A3.25,3.25,0,0,1,86.59,131.48Zm0-1.2a1.62,1.62,0,0,0,1.34-.63,1.88,1.88,0,0,0,.34-.66,2.67,2.67,0,0,0,.12-.8,2.56,2.56,0,0,0-.12-.79,1.88,1.88,0,0,0-.34-.66,1.58,1.58,0,0,0-1.34-.62,1.67,1.67,0,0,0-.76.16,1.73,1.73,0,0,0-.57.46,1.75,1.75,0,0,0-.35.66,2.56,2.56,0,0,0-.12.79,2.67,2.67,0,0,0,.12.8,1.75,1.75,0,0,0,.35.66,1.73,1.73,0,0,0,.57.46A1.67,1.67,0,0,0,86.59,130.28Z" fill="#fff"/><path d="M96.66,131.32l-1.47-4.58-1.45,4.58H92.32l-1.95-6.25h1.41l1.33,4.54,1.49-4.54h1.2l1.48,4.54,1.32-4.54H100l-1.94,6.25Z" fill="#fff"/></g></g></svg>