<svg xmlns="http://www.w3.org/2000/svg" viewBox="0 0 160 600"><title>CTA 160X600</title><g id="Layer_2" data-name="Layer 2"><g id="REC"><rect width="160" height="600" fill="none"/></g><g id="CTA"><path id="bg" d="M121.15,310.55H27.56a11.17,11.17,0,0,1-11.35-11v-1.15a11.16,11.16,0,0,1,11.35-11h93.59a11.16,11.16,0,0,1,11.35,11v1.15a11.17,11.17,0,0,1-11.35,11" fill="#e32d27"/><path d="M46,303.26a5.63,5.63,0,0,1-2.24-.41,5,5,0,0,1-1.57-1.08l.93-1.27a4.18,4.18,0,0,0,1.22.91,3.71,3.71,0,0,0,1.73.39,2.72,2.72,0,0,0,.86-.11,1.66,1.66,0,0,0,.58-.29,1.18,1.18,0,0,0,.32-.42,1.1,1.1,0,0,0,.1-.47.82.82,0,0,0-.4-.74,3.58,3.58,0,0,0-1-.44c-.41-.13-.85-.24-1.31-.36a6,6,0,0,1-1.31-.46,2.74,2.74,0,0,1-1-.8,2.15,2.15,0,0,1-.4-1.37,2.32,2.32,0,0,1,.25-1.08,2.71,2.71,0,0,1,.68-.87,3.23,3.23,0,0,1,1.07-.58,4.42,4.42,0,0,1,1.4-.21,5.32,5.32,0,0,1,2,.34,4.57,4.57,0,0,1,1.52,1l-.92,1.21a3.69,3.69,0,0,0-1.27-.82,4.27,4.27,0,0,0-1.45-.26,1.8,1.8,0,0,0-1.14.33,1,1,0,0,0-.43.84.74.74,0,0,0,.4.67,4.4,4.4,0,0,0,1,.41l1.31.34a6.42,6.42,0,0,1,1.31.49,2.92,2.92,0,0,1,1,.84,2.21,2.21,0,0,1,.4,1.39,3,3,0,0,1-.21,1.11,2.46,2.46,0,0,1-.65.93,3.35,3.35,0,0,1-1.12.63A5.25,5.25,0,0,1,46,303.26Z" fill="#fff"/><path d="M55.69,303.09v-4.25a1.3,1.3,0,0,0-.37-1.09,1.56,1.56,0,0,0-1-.29,2,2,0,0,0-1,.28,2.57,2.57,0,0,0-.71.62v4.73H51.12v-9.34h1.47v3.49a3.22,3.22,0,0,1,.42-.39,3,3,0,0,1,.54-.35,2.74,2.74,0,0,1,.66-.25,3.1,3.1,0,0,1,.76-.09,2.2,2.2,0,0,1,1.64.55,2.12,2.12,0,0,1,.55,1.59v4.79Z" fill="#fff"/><path d="M62.13,303.26a3.59,3.59,0,0,1-1.46-.29,3.31,3.31,0,0,1-1.09-.77,3.39,3.39,0,0,1-.69-1.12,4.23,4.23,0,0,1,0-2.75,3.44,3.44,0,0,1,.69-1.13,3.28,3.28,0,0,1,1.09-.76,3.59,3.59,0,0,1,1.46-.28,3.54,3.54,0,0,1,1.45.28,3.33,3.33,0,0,1,1.1.76,3.59,3.59,0,0,1,.68,1.13,4.06,4.06,0,0,1,0,2.75,3.54,3.54,0,0,1-.68,1.12,3.35,3.35,0,0,1-1.1.77A3.54,3.54,0,0,1,62.13,303.26Zm0-1.3a1.79,1.79,0,0,0,.84-.19,1.91,1.91,0,0,0,.61-.48,2.39,2.39,0,0,0,.37-.73,3,3,0,0,0,.12-.86,3,3,0,0,0-.12-.85,2.45,2.45,0,0,0-.37-.72,2.09,2.09,0,0,0-.61-.49,1.92,1.92,0,0,0-.84-.18,1.84,1.84,0,0,0-.83.18,2,2,0,0,0-.61.49,2.07,2.07,0,0,0-.38.72,2.65,2.65,0,0,0-.13.85,2.71,2.71,0,0,0,.13.86,2,2,0,0,0,.38.73,1.81,1.81,0,0,0,.61.48A1.72,1.72,0,0,0,62.13,302Z" fill="#fff"/><path d="M70.74,303.26a2.59,2.59,0,0,1-1.2-.29,2.9,2.9,0,0,1-1-.82v3.52H67.1v-9.34h1.47v.92a2.73,2.73,0,0,1,.93-.79,2.61,2.61,0,0,1,1.24-.3,2.92,2.92,0,0,1,1.2.24,2.7,2.7,0,0,1,1,.69,3.46,3.46,0,0,1,.62,1.12,4.54,4.54,0,0,1,.22,1.49,4.64,4.64,0,0,1-.22,1.5,3.31,3.31,0,0,1-.62,1.11,2.61,2.61,0,0,1-1,.7A2.77,2.77,0,0,1,70.74,303.26ZM70.3,302a1.71,1.71,0,0,0,1.4-.63,2.45,2.45,0,0,0,.52-1.63,2.4,2.4,0,0,0-.52-1.61,1.71,1.71,0,0,0-1.4-.63,2.13,2.13,0,0,0-1,.26,1.92,1.92,0,0,0-.73.64V301a1.79,1.79,0,0,0,.31.37,2.42,2.42,0,0,0,.42.29,3,3,0,0,0,.49.2A2.31,2.31,0,0,0,70.3,302Z" fill="#fff"/><path d="M85.37,303.09l-4.88-6.68v6.68H78.86v-9.34h1.68l4.77,6.47v-6.47H87v9.34Z" fill="#fff"/><path d="M92,303.26A3.59,3.59,0,0,1,90.5,303a3.31,3.31,0,0,1-1.09-.77,3.21,3.21,0,0,1-.68-1.12,4.06,4.06,0,0,1,0-2.75,3.17,3.17,0,0,1,1.77-1.89,3.95,3.95,0,0,1,2.92,0,3.17,3.17,0,0,1,1.77,1.89,4.06,4.06,0,0,1,0,2.75,3.21,3.21,0,0,1-.68,1.12,3.31,3.31,0,0,1-1.09.77A3.59,3.59,0,0,1,92,303.26Zm0-1.3a1.74,1.74,0,0,0,.84-.19,1.81,1.81,0,0,0,.61-.48,2.19,2.19,0,0,0,.37-.73,3,3,0,0,0,.13-.86,3,3,0,0,0-.13-.85,2.23,2.23,0,0,0-.37-.72,2,2,0,0,0-.61-.49,2,2,0,0,0-1.67,0,2,2,0,0,0-1,1.21,3,3,0,0,0-.13.85,3,3,0,0,0,.13.86,2,2,0,0,0,.38.73,1.91,1.91,0,0,0,.61.48A1.75,1.75,0,0,0,92,302Z" fill="#fff"/><path d="M102.84,303.09l-1.58-5-1.57,5H98.15l-2.1-6.76h1.52L99,301.24l1.61-4.91h1.3l1.6,4.91,1.43-4.91h1.54l-2.1,6.76Z" fill="#fff"/></g></g></svg>