<svg xmlns="http://www.w3.org/2000/svg" viewBox="0 0 160 600"><defs><style>.cls-1{fill:none;}.cls-2{fill:#e52823;}</style></defs><g id="Layer_2" data-name="Layer 2"><g id="rec"><rect class="cls-1" width="160" height="600"/></g><g id="SUBHD"><path class="cls-2" d="M18.86,226a7,7,0,0,1-2.88-.54,6.16,6.16,0,0,1-2-1.37l1.19-1.64a5.9,5.9,0,0,0,1.57,1.17,4.73,4.73,0,0,0,2.23.5,3.55,3.55,0,0,0,1.1-.14,2.05,2.05,0,0,0,.74-.38,1.41,1.41,0,0,0,.42-.53,1.44,1.44,0,0,0,.13-.6,1.1,1.1,0,0,0-.51-1,4.93,4.93,0,0,0-1.3-.56q-.78-.24-1.68-.45a8.15,8.15,0,0,1-1.68-.6,3.48,3.48,0,0,1-1.3-1,2.79,2.79,0,0,1-.51-1.76,3.08,3.08,0,0,1,.31-1.39,3.53,3.53,0,0,1,.88-1.12,4.14,4.14,0,0,1,1.38-.74,5.67,5.67,0,0,1,1.8-.27,6.75,6.75,0,0,1,2.53.44,5.68,5.68,0,0,1,1.95,1.25L22,216.79a4.47,4.47,0,0,0-1.63-1,5.46,5.46,0,0,0-1.87-.33,2.39,2.39,0,0,0-1.46.41,1.29,1.29,0,0,0-.55,1.08,1,1,0,0,0,.51.87,5.57,5.57,0,0,0,1.3.52l1.68.44a7.67,7.67,0,0,1,1.68.63,3.8,3.8,0,0,1,1.3,1.08,2.9,2.9,0,0,1,.51,1.79,3.83,3.83,0,0,1-.27,1.43,3.16,3.16,0,0,1-.84,1.19,4.08,4.08,0,0,1-1.44.81A6.54,6.54,0,0,1,18.86,226Z"/><path class="cls-2" d="M29.41,226a5,5,0,0,1-1.83-.33,3.89,3.89,0,0,1-1.44-.93,4.35,4.35,0,0,1-.95-1.44,5.16,5.16,0,0,1-.34-1.88,4.8,4.8,0,0,1,.33-1.77,4.23,4.23,0,0,1,.9-1.45,4.36,4.36,0,0,1,3.18-1.33,4.4,4.4,0,0,1,1.77.35,4,4,0,0,1,1.35,1,4.41,4.41,0,0,1,.85,1.5,5.68,5.68,0,0,1,.3,1.89V222h-6.7a2.86,2.86,0,0,0,.26.92,2.82,2.82,0,0,0,.56.77,2.54,2.54,0,0,0,.84.52,3.13,3.13,0,0,0,1.1.19,4,4,0,0,0,1.33-.25,3.21,3.21,0,0,0,1.15-.72l.86,1.24a4.28,4.28,0,0,1-1.58.95A5.69,5.69,0,0,1,29.41,226Zm2.3-5.3a2.55,2.55,0,0,0-.17-.78,2.26,2.26,0,0,0-.45-.74,2.51,2.51,0,0,0-.75-.55,2.57,2.57,0,0,0-1.1-.21,2.61,2.61,0,0,0-1,.2,2.33,2.33,0,0,0-.75.54,2.61,2.61,0,0,0-.46.74,3,3,0,0,0-.18.8Z"/><path class="cls-2" d="M37.63,226a2.23,2.23,0,0,1-1.66-.58,2.27,2.27,0,0,1-.57-1.67v-10h1.89v9.51a1.22,1.22,0,0,0,.21.74.69.69,0,0,0,.62.3,1.18,1.18,0,0,0,.5-.1A.83.83,0,0,0,39,224l.45,1.44a1.9,1.9,0,0,1-.68.39A3.1,3.1,0,0,1,37.63,226Z"/><path class="cls-2" d="M44.58,226a5,5,0,0,1-1.83-.33,3.89,3.89,0,0,1-1.44-.93,4.33,4.33,0,0,1-.94-1.44,5,5,0,0,1-.34-1.88,4.79,4.79,0,0,1,.32-1.77,4.41,4.41,0,0,1,.91-1.45,4.29,4.29,0,0,1,1.39-1,4.62,4.62,0,0,1,3.55,0,3.79,3.79,0,0,1,1.35,1,4.25,4.25,0,0,1,.85,1.5,5.68,5.68,0,0,1,.3,1.89V222H42a2.63,2.63,0,0,0,.26.92,2.59,2.59,0,0,0,.55.77,2.76,2.76,0,0,0,.84.52,3.17,3.17,0,0,0,1.1.19,4,4,0,0,0,1.33-.25,3.13,3.13,0,0,0,1.15-.72l.87,1.24a4.32,4.32,0,0,1-1.59.95A5.69,5.69,0,0,1,44.58,226Zm2.3-5.3a2.55,2.55,0,0,0-.17-.78,2.26,2.26,0,0,0-.45-.74,2.47,2.47,0,0,0-.74-.55,2.92,2.92,0,0,0-2.15,0,2.18,2.18,0,0,0-.74.54,2.61,2.61,0,0,0-.46.74,2.37,2.37,0,0,0-.18.8Z"/><path class="cls-2" d="M54.53,226a4.64,4.64,0,0,1-1.81-.35,4.13,4.13,0,0,1-1.41-1,4.63,4.63,0,0,1-.93-1.45,5,5,0,0,1-.33-1.83,4.82,4.82,0,0,1,.33-1.81,4.47,4.47,0,0,1,.93-1.44,4.3,4.3,0,0,1,1.41-1,4.63,4.63,0,0,1,1.81-.34,4.52,4.52,0,0,1,1.16.13,3.7,3.7,0,0,1,1.63.83,3.7,3.7,0,0,1,.54.59l-1.24,1.13a2.32,2.32,0,0,0-2-1,2.44,2.44,0,0,0-1.9.8,3,3,0,0,0-.72,2.08,3.57,3.57,0,0,0,.18,1.16,2.7,2.7,0,0,0,.54.92,2.63,2.63,0,0,0,.83.61,2.65,2.65,0,0,0,1.07.21,2.33,2.33,0,0,0,2-1l1.24,1.17a4.22,4.22,0,0,1-1.26,1.08A4,4,0,0,1,54.53,226Z"/><path class="cls-2" d="M62.17,226a2.25,2.25,0,0,1-1.68-.58,2.31,2.31,0,0,1-.56-1.67v-5H58.49v-1.63h1.44v-2.38h1.89v2.38h1.77v1.63H61.82v4.56A1.22,1.22,0,0,0,62,224a.71.71,0,0,0,.62.3,1.18,1.18,0,0,0,.5-.1.86.86,0,0,0,.33-.22l.45,1.44a2.1,2.1,0,0,1-.68.39A3.06,3.06,0,0,1,62.17,226Z"/><path class="cls-2" d="M73.67,226a6.18,6.18,0,0,1-2.76-.57A5,5,0,0,1,69.13,224l1.15-1.38a4.07,4.07,0,0,0,1.46,1.07,4.55,4.55,0,0,0,1.86.38,2.94,2.94,0,0,0,1.84-.5,1.6,1.6,0,0,0,.66-1.33,1.41,1.41,0,0,0-.69-1.31,3.91,3.91,0,0,0-2-.4h-.8l-.56,0v-1.92h1.36a5.06,5.06,0,0,0,1-.09,2.64,2.64,0,0,0,.79-.29,1.63,1.63,0,0,0,.52-.49,1.37,1.37,0,0,0,.19-.71,1.4,1.4,0,0,0-.19-.72,1.52,1.52,0,0,0-.52-.52,2.61,2.61,0,0,0-.78-.32,4,4,0,0,0-.94-.1,4.19,4.19,0,0,0-3.12,1.33l-1.08-1.32a5.62,5.62,0,0,1,1.79-1.36,6,6,0,0,1,2.6-.53,6.49,6.49,0,0,1,1.77.23,4.18,4.18,0,0,1,1.36.64,2.9,2.9,0,0,1,.88,1,2.86,2.86,0,0,1,.32,1.35,2.39,2.39,0,0,1-.24,1.09,2.76,2.76,0,0,1-.6.82,3.6,3.6,0,0,1-1.76.84,3.84,3.84,0,0,1,.92.25,3.2,3.2,0,0,1,.91.56,3,3,0,0,1,.69.88,2.65,2.65,0,0,1,.27,1.23,3.18,3.18,0,0,1-.31,1.42A3.29,3.29,0,0,1,77,225a4.2,4.2,0,0,1-1.43.73A6.14,6.14,0,0,1,73.67,226Z"/><path class="cls-2" d="M88.84,226a4.62,4.62,0,0,1-1.87-.37,4.32,4.32,0,0,1-1.4-1,4.4,4.4,0,0,1-.89-1.45,5.34,5.34,0,0,1,0-3.53,4.3,4.3,0,0,1,.89-1.45,4.15,4.15,0,0,1,1.4-1,5,5,0,0,1,3.74,0,4.3,4.3,0,0,1,1.41,1,4.44,4.44,0,0,1,.88,1.45,5.34,5.34,0,0,1,0,3.53,4.55,4.55,0,0,1-.88,1.45,4.48,4.48,0,0,1-1.41,1A4.62,4.62,0,0,1,88.84,226Zm0-1.68a2.45,2.45,0,0,0,1.08-.23,2.41,2.41,0,0,0,.78-.63,2.93,2.93,0,0,0,.48-.93,3.68,3.68,0,0,0,.16-1.11,3.55,3.55,0,0,0-.16-1.09,2.78,2.78,0,0,0-.48-.92,2.17,2.17,0,0,0-.78-.63,2.32,2.32,0,0,0-1.08-.24,2.3,2.3,0,0,0-1.06.24,2.21,2.21,0,0,0-.79.63,2.62,2.62,0,0,0-.49.92,3.55,3.55,0,0,0-.16,1.09,3.68,3.68,0,0,0,.16,1.11,2.76,2.76,0,0,0,.49.93,2.3,2.3,0,0,0,1.85.86Z"/><path class="cls-2" d="M94.85,225.74V224.3l4.29-5.62H94.85v-1.63h6.82v1.36l-4.35,5.67h4.43v1.66Z"/><path class="cls-2" d="M104.79,225.94a1.19,1.19,0,0,1-.89-.38,1.22,1.22,0,0,1-.37-.9,1.16,1.16,0,0,1,.37-.87,1.19,1.19,0,0,1,.89-.37,1.2,1.2,0,0,1,.89.37,1.16,1.16,0,0,1,.37.87,1.22,1.22,0,0,1-.37.9A1.21,1.21,0,0,1,104.79,225.94Z"/><path class="cls-2" d="M18.64,246a4.64,4.64,0,0,1-1.81-.35,4.13,4.13,0,0,1-1.41-1,4.3,4.3,0,0,1-.93-1.45,5,5,0,0,1-.33-1.83,4.82,4.82,0,0,1,.33-1.81,4.16,4.16,0,0,1,.93-1.44,4.3,4.3,0,0,1,1.41-1,4.63,4.63,0,0,1,1.81-.34,4.57,4.57,0,0,1,1.16.13,3.58,3.58,0,0,1,.92.34,3.42,3.42,0,0,1,.71.49,3.7,3.7,0,0,1,.54.59l-1.24,1.13a2.33,2.33,0,0,0-2-1,2.46,2.46,0,0,0-1.91.8,3,3,0,0,0-.72,2.08,3.57,3.57,0,0,0,.19,1.16,2.7,2.7,0,0,0,.54.92,2.63,2.63,0,0,0,.83.61,2.65,2.65,0,0,0,1.07.21,2.33,2.33,0,0,0,2-1L22,244.41a4.22,4.22,0,0,1-1.26,1.08A4.07,4.07,0,0,1,18.64,246Z"/><path class="cls-2" d="M29.77,245.74v-1.19a3.88,3.88,0,0,1-1.22,1A3.31,3.31,0,0,1,27,246a3.88,3.88,0,0,1-1.54-.31,3.22,3.22,0,0,1-1.23-.9,4.37,4.37,0,0,1-.8-1.44,6,6,0,0,1-.29-1.93,6,6,0,0,1,.29-1.89,4.37,4.37,0,0,1,.8-1.44,3.52,3.52,0,0,1,1.22-.91,3.9,3.9,0,0,1,1.55-.31,3.39,3.39,0,0,1,1.54.36,3.5,3.5,0,0,1,1.25,1.06v-1.2h1.89v8.69Zm-2.24-1.46a2.5,2.5,0,0,0,.66-.09,2.85,2.85,0,0,0,.63-.25,3,3,0,0,0,.54-.37,2.22,2.22,0,0,0,.41-.46v-3.44a3.34,3.34,0,0,0-.41-.45,2.58,2.58,0,0,0-.54-.37,2.89,2.89,0,0,0-.63-.26,2.5,2.5,0,0,0-.66-.09,2.34,2.34,0,0,0-1.8.81,2.75,2.75,0,0,0-.49.91,3.62,3.62,0,0,0-.17,1.16,3.58,3.58,0,0,0,.17,1.16,2.61,2.61,0,0,0,.49.92,2.43,2.43,0,0,0,.78.61A2.38,2.38,0,0,0,27.53,244.28Z"/><path class="cls-2" d="M36.73,246a2.24,2.24,0,0,1-1.67-.58,2.31,2.31,0,0,1-.56-1.67v-5H33.06v-1.63H34.5v-2.38h1.89v2.38h1.76v1.63H36.39v4.56a1.22,1.22,0,0,0,.21.74.69.69,0,0,0,.62.3,1.13,1.13,0,0,0,.49-.1,1,1,0,0,0,.34-.22l.45,1.44a2,2,0,0,1-.69.39A3.06,3.06,0,0,1,36.73,246Z"/><path class="cls-2" d="M45,245.74v-7.06H43.52v-1.63H45v-.49a3,3,0,0,1,.77-2.23,2.65,2.65,0,0,1,2-.78,3.1,3.1,0,0,1,1.53.33l-.41,1.42a1.39,1.39,0,0,0-.76-.2,1.12,1.12,0,0,0-.89.36,1.64,1.64,0,0,0-.31,1.1v.49h1.76v1.63H46.85v7.06Z"/><path class="cls-2" d="M54,246a4.66,4.66,0,0,1-1.87-.37,4.32,4.32,0,0,1-1.4-1,4.21,4.21,0,0,1-.88-1.45,5.18,5.18,0,0,1,0-3.53,4.14,4.14,0,0,1,2.28-2.43,4.65,4.65,0,0,1,1.87-.36,4.7,4.7,0,0,1,1.88.36,4.15,4.15,0,0,1,1.4,1,4.28,4.28,0,0,1,.88,1.45,5.18,5.18,0,0,1,0,3.53,4.37,4.37,0,0,1-.88,1.45,4.32,4.32,0,0,1-1.4,1A4.71,4.71,0,0,1,54,246Zm0-1.68a2.45,2.45,0,0,0,1.08-.23,2.35,2.35,0,0,0,.79-.63,2.72,2.72,0,0,0,.47-.93,3.68,3.68,0,0,0,.17-1.11,3.55,3.55,0,0,0-.17-1.09,2.59,2.59,0,0,0-.47-.92,2.13,2.13,0,0,0-.79-.63A2.32,2.32,0,0,0,54,238.5a2.35,2.35,0,0,0-1.85.87,2.62,2.62,0,0,0-.49.92,3.88,3.88,0,0,0-.16,1.09,4,4,0,0,0,.16,1.11,2.76,2.76,0,0,0,.49.93,2.56,2.56,0,0,0,.79.63A2.43,2.43,0,0,0,54,244.28Z"/><path class="cls-2" d="M64.33,246a4.71,4.71,0,0,1-1.88-.37,4.32,4.32,0,0,1-1.4-1,4.37,4.37,0,0,1-.88-1.45,5.18,5.18,0,0,1,0-3.53,4.28,4.28,0,0,1,.88-1.45,4.15,4.15,0,0,1,1.4-1,4.7,4.7,0,0,1,1.88-.36,4.65,4.65,0,0,1,1.87.36,4.14,4.14,0,0,1,2.28,2.43,5.18,5.18,0,0,1,0,3.53,4.21,4.21,0,0,1-.88,1.45,4.32,4.32,0,0,1-1.4,1A4.66,4.66,0,0,1,64.33,246Zm0-1.68a2.52,2.52,0,0,0,1.08-.23,2.41,2.41,0,0,0,.78-.63,2.93,2.93,0,0,0,.48-.93,4,4,0,0,0,.16-1.11,3.88,3.88,0,0,0-.16-1.09,2.78,2.78,0,0,0-.48-.92,2.17,2.17,0,0,0-.78-.63,2.38,2.38,0,0,0-1.08-.24,2.34,2.34,0,0,0-1.07.24,2.3,2.3,0,0,0-.79.63,2.6,2.6,0,0,0-.48.92,3.55,3.55,0,0,0-.17,1.09,3.68,3.68,0,0,0,.17,1.11,2.74,2.74,0,0,0,.48.93,2.56,2.56,0,0,0,.79.63A2.47,2.47,0,0,0,64.33,244.28Z"/><path class="cls-2" d="M76.84,245.74v-1.19a3.88,3.88,0,0,1-1.22,1,3.31,3.31,0,0,1-1.57.38,3.88,3.88,0,0,1-1.54-.31,3.22,3.22,0,0,1-1.23-.9,4.37,4.37,0,0,1-.8-1.44,6,6,0,0,1-.29-1.93,6,6,0,0,1,.29-1.89,4.37,4.37,0,0,1,.8-1.44,3.52,3.52,0,0,1,1.22-.91,3.9,3.9,0,0,1,1.55-.31,3.39,3.39,0,0,1,1.54.36,3.5,3.5,0,0,1,1.25,1.06v-4.52h1.89v12Zm-2.24-1.46a2.5,2.5,0,0,0,.66-.09,2.85,2.85,0,0,0,.63-.25,3,3,0,0,0,.54-.37,2.22,2.22,0,0,0,.41-.46v-3.44a3.34,3.34,0,0,0-.41-.45,2.58,2.58,0,0,0-.54-.37,2.89,2.89,0,0,0-.63-.26,2.5,2.5,0,0,0-.66-.09,2.34,2.34,0,0,0-1.8.81,2.75,2.75,0,0,0-.49.91,3.62,3.62,0,0,0-.17,1.16,3.58,3.58,0,0,0,.17,1.16,2.61,2.61,0,0,0,.49.92,2.43,2.43,0,0,0,.78.61A2.38,2.38,0,0,0,74.6,244.28Z"/><path class="cls-2" d="M18.64,266a4.64,4.64,0,0,1-1.81-.35,4.13,4.13,0,0,1-1.41-.95,4.3,4.3,0,0,1-.93-1.45,5,5,0,0,1-.33-1.83,4.82,4.82,0,0,1,.33-1.81,4.16,4.16,0,0,1,.93-1.44,4.3,4.3,0,0,1,1.41-1,4.63,4.63,0,0,1,1.81-.34,4.57,4.57,0,0,1,1.16.13,3.58,3.58,0,0,1,.92.34,3.42,3.42,0,0,1,.71.49,3.7,3.7,0,0,1,.54.59l-1.24,1.13a2.33,2.33,0,0,0-2-1,2.46,2.46,0,0,0-1.91.8,3,3,0,0,0-.72,2.08,3.57,3.57,0,0,0,.19,1.16,2.7,2.7,0,0,0,.54.92,2.63,2.63,0,0,0,.83.61,2.65,2.65,0,0,0,1.07.21,2.33,2.33,0,0,0,2-1L22,264.41a4.22,4.22,0,0,1-1.26,1.08A4.07,4.07,0,0,1,18.64,266Z"/><path class="cls-2" d="M29.77,265.74v-1.19a3.88,3.88,0,0,1-1.22,1A3.31,3.31,0,0,1,27,266a3.88,3.88,0,0,1-1.54-.31,3.22,3.22,0,0,1-1.23-.9,4.37,4.37,0,0,1-.8-1.44,6,6,0,0,1-.29-1.93,6,6,0,0,1,.29-1.89,4.37,4.37,0,0,1,.8-1.44,3.52,3.52,0,0,1,1.22-.91,3.9,3.9,0,0,1,1.55-.31,3.39,3.39,0,0,1,1.54.36,3.5,3.5,0,0,1,1.25,1.06v-1.2h1.89v8.69Zm-2.24-1.46a2.5,2.5,0,0,0,.66-.09,2.85,2.85,0,0,0,.63-.25,3,3,0,0,0,.54-.37,2.22,2.22,0,0,0,.41-.46v-3.44a3.34,3.34,0,0,0-.41-.45,2.58,2.58,0,0,0-.54-.37,2.89,2.89,0,0,0-.63-.26,2.5,2.5,0,0,0-.66-.09,2.34,2.34,0,0,0-1.8.81,2.75,2.75,0,0,0-.49.91,3.62,3.62,0,0,0-.17,1.16,3.58,3.58,0,0,0,.17,1.16,2.61,2.61,0,0,0,.49.92,2.43,2.43,0,0,0,.78.61A2.38,2.38,0,0,0,27.53,264.28Z"/><path class="cls-2" d="M40,265.74V260.3a1.74,1.74,0,0,0-.48-1.41,2,2,0,0,0-1.28-.39,2.46,2.46,0,0,0-1.31.36,3.54,3.54,0,0,0-.93.8v6.08H34.1v-8.69H36v1.17a4.33,4.33,0,0,1,.53-.51,3.67,3.67,0,0,1,.72-.45,3.72,3.72,0,0,1,.85-.31,3.87,3.87,0,0,1,1-.12,2.5,2.5,0,0,1,2.81,2.79v6.12Z"/><path class="cls-2" d="M47.32,266a5.84,5.84,0,0,1-2.09-.36,4.58,4.58,0,0,1-1.64-1l.86-1.35a5.49,5.49,0,0,0,.56.45,4.89,4.89,0,0,0,.72.38,3.94,3.94,0,0,0,.82.27,3.44,3.44,0,0,0,.84.1,2.17,2.17,0,0,0,1.29-.31,1,1,0,0,0,.44-.84.7.7,0,0,0-.39-.65,4.3,4.3,0,0,0-1-.36L46.49,262a5.15,5.15,0,0,1-1.27-.44,2.74,2.74,0,0,1-1-.77,2.07,2.07,0,0,1-.39-1.33,2.37,2.37,0,0,1,.22-1,2.41,2.41,0,0,1,.66-.84,3.11,3.11,0,0,1,1.07-.56,4.74,4.74,0,0,1,1.47-.21,5.11,5.11,0,0,1,1.95.34,4.87,4.87,0,0,1,1.42.87l-.8,1.33a3.12,3.12,0,0,0-1.07-.74,3.66,3.66,0,0,0-1.5-.31,2,2,0,0,0-1.18.31.91.91,0,0,0-.42.77.62.62,0,0,0,.38.58,4.48,4.48,0,0,0,1,.33l1.27.29a5.24,5.24,0,0,1,1.26.45,2.86,2.86,0,0,1,1,.81,2.28,2.28,0,0,1,.38,1.38,2.39,2.39,0,0,1-.92,1.94,3.58,3.58,0,0,1-1.14.57A5.24,5.24,0,0,1,47.32,266Z"/><path class="cls-2" d="M61,265.94a5.12,5.12,0,0,1-2-.37,4.87,4.87,0,0,1-1.46-1l1-1.61a3.68,3.68,0,0,0,1,.79,3.31,3.31,0,0,0,1.43.28,2.78,2.78,0,0,0,1.41-.35,2.68,2.68,0,0,0,1-.9,4,4,0,0,0,.58-1.27,5.37,5.37,0,0,0,.19-1.44v-.18a1.11,1.11,0,0,0,0-.17,2.93,2.93,0,0,1-.53.61,5.56,5.56,0,0,1-.75.54,3.71,3.71,0,0,1-.91.38,3.52,3.52,0,0,1-1,.15,4.65,4.65,0,0,1-1.54-.25,3.41,3.41,0,0,1-2.15-1.94,4.06,4.06,0,0,1-.32-1.68,3.9,3.9,0,0,1,1.2-2.86,4.19,4.19,0,0,1,1.4-.86,5,5,0,0,1,1.82-.31,4.8,4.8,0,0,1,2.26.49,4.19,4.19,0,0,1,1.54,1.35,5.74,5.74,0,0,1,.87,2,9.62,9.62,0,0,1,.28,2.37,8.35,8.35,0,0,1-.34,2.43,5.83,5.83,0,0,1-1,2,4.64,4.64,0,0,1-1.65,1.32A5.08,5.08,0,0,1,61,265.94Zm.5-6.3a2.94,2.94,0,0,0,1.47-.39,3.58,3.58,0,0,0,1.16-1,5,5,0,0,0-.21-1,3,3,0,0,0-.48-.9,2.46,2.46,0,0,0-.8-.66,2.52,2.52,0,0,0-1.19-.26,2.57,2.57,0,0,0-1,.19,2.35,2.35,0,0,0-.76.48,2,2,0,0,0-.46.68,2,2,0,0,0-.15.74,2.06,2.06,0,0,0,.2,1,1.75,1.75,0,0,0,.54.66,2.09,2.09,0,0,0,.79.39A3.22,3.22,0,0,0,61.53,259.64Z"/><path class="cls-2" d="M71.85,265.94a4.82,4.82,0,0,1-3.46-1.33l1-1.61a3.54,3.54,0,0,0,1,.79,3.31,3.31,0,0,0,1.43.28,2.78,2.78,0,0,0,1.41-.35,2.85,2.85,0,0,0,1-.9,4,4,0,0,0,.58-1.27,5.81,5.81,0,0,0,.19-1.44v-.18a1.11,1.11,0,0,0,0-.17,2.93,2.93,0,0,1-.53.61,5.56,5.56,0,0,1-.75.54,3.88,3.88,0,0,1-.91.38,3.52,3.52,0,0,1-1,.15,4.61,4.61,0,0,1-1.54-.25,3.66,3.66,0,0,1-1.28-.72,3.39,3.39,0,0,1-.87-1.22,4.06,4.06,0,0,1-.33-1.68,4,4,0,0,1,.32-1.57,3.83,3.83,0,0,1,.89-1.29,4.24,4.24,0,0,1,1.39-.86,5.09,5.09,0,0,1,1.83-.31,4.8,4.8,0,0,1,2.26.49A4.27,4.27,0,0,1,76,255.38a5.74,5.74,0,0,1,.87,2,9.62,9.62,0,0,1,.28,2.37,8.35,8.35,0,0,1-.34,2.43,6,6,0,0,1-1,2,4.73,4.73,0,0,1-1.65,1.32A5.1,5.1,0,0,1,71.85,265.94Zm.5-6.3a2.94,2.94,0,0,0,1.47-.39,3.58,3.58,0,0,0,1.16-1,5,5,0,0,0-.22-1,2.77,2.77,0,0,0-.47-.9,2.46,2.46,0,0,0-.8-.66,2.55,2.55,0,0,0-1.19-.26,2.62,2.62,0,0,0-1,.19,2.2,2.2,0,0,0-.75.48,1.91,1.91,0,0,0-.46.68,2,2,0,0,0-.15.74,2.19,2.19,0,0,0,.19,1,2,2,0,0,0,.54.66,2.21,2.21,0,0,0,.8.39A3.22,3.22,0,0,0,72.35,259.64Z"/><path class="cls-2" d="M82.31,265.9a4.19,4.19,0,0,1-1.53-.51,4.13,4.13,0,0,1-1.17-1,4.42,4.42,0,0,1-.76-1.36,5,5,0,0,1-.27-1.67,4.91,4.91,0,0,1,.27-1.64,4.3,4.3,0,0,1,.76-1.36,3.83,3.83,0,0,1,1.17-1,4.4,4.4,0,0,1,1.53-.52v-1.31h1.4v1.3a3.78,3.78,0,0,1,1.63.54,4.28,4.28,0,0,1,1,1l-1.24,1.13a2.39,2.39,0,0,0-1.44-.95v5.67a2.33,2.33,0,0,0,1.44-1l1.24,1.17a4.42,4.42,0,0,1-1,.95,3.66,3.66,0,0,1-1.63.56v1.62h-1.4Zm-1.79-4.52a3.22,3.22,0,0,0,.48,1.78,2.34,2.34,0,0,0,1.31,1v-5.53a2.38,2.38,0,0,0-1.31,1A3.1,3.1,0,0,0,80.52,261.38Z"/><path class="cls-2" d="M96.74,266a4.87,4.87,0,0,1-1.82-.33,3.89,3.89,0,0,1-1.44-.93,4.21,4.21,0,0,1-1-1.44,5.21,5.21,0,0,1,0-3.65,4.41,4.41,0,0,1,.91-1.45,4.51,4.51,0,0,1,4.94-1,3.79,3.79,0,0,1,1.35,1,4.43,4.43,0,0,1,.86,1.5,5.68,5.68,0,0,1,.29,1.89V262H94.17A2.71,2.71,0,0,0,95,263.7a2.6,2.6,0,0,0,.83.52,3.17,3.17,0,0,0,1.1.19,4,4,0,0,0,1.33-.25,3.26,3.26,0,0,0,1.16-.72l.86,1.24a4.28,4.28,0,0,1-1.58.95A5.75,5.75,0,0,1,96.74,266Zm2.31-5.3a2.88,2.88,0,0,0-.17-.78,2.67,2.67,0,0,0-.45-.74,2.51,2.51,0,0,0-.75-.55,2.6,2.6,0,0,0-1.1-.21,2.57,2.57,0,0,0-1,.2,2.33,2.33,0,0,0-.75.54,2.61,2.61,0,0,0-.46.74,2.37,2.37,0,0,0-.18.8Z"/><path class="cls-2" d="M108.86,265.74v-1.19a3.77,3.77,0,0,1-1.22,1,3.31,3.31,0,0,1-1.57.38,3.88,3.88,0,0,1-1.54-.31,3.3,3.3,0,0,1-1.23-.9,4.37,4.37,0,0,1-.8-1.44,6,6,0,0,1-.29-1.93,6,6,0,0,1,.29-1.89,4.37,4.37,0,0,1,.8-1.44,3.61,3.61,0,0,1,1.22-.91,3.9,3.9,0,0,1,1.55-.31,3.39,3.39,0,0,1,1.54.36,3.5,3.5,0,0,1,1.25,1.06v-1.2h1.89v8.69Zm-2.24-1.46a2.5,2.5,0,0,0,.66-.09,2.85,2.85,0,0,0,.63-.25,3,3,0,0,0,.54-.37,2.22,2.22,0,0,0,.41-.46v-3.44a3.34,3.34,0,0,0-.41-.45,2.58,2.58,0,0,0-.54-.37,2.89,2.89,0,0,0-.63-.26,2.5,2.5,0,0,0-.66-.09,2.34,2.34,0,0,0-1.8.81,2.75,2.75,0,0,0-.49.91,3.62,3.62,0,0,0-.17,1.16,3.58,3.58,0,0,0,.17,1.16,2.61,2.61,0,0,0,.49.92,2.43,2.43,0,0,0,.78.61A2.38,2.38,0,0,0,106.62,264.28Z"/><path class="cls-2" d="M114.18,265.94a1.23,1.23,0,0,1-.89-.38,1.26,1.26,0,0,1-.37-.9,1.19,1.19,0,0,1,.37-.87,1.27,1.27,0,0,1,1.79,0,1.19,1.19,0,0,1,.36.87,1.25,1.25,0,0,1-.36.9A1.23,1.23,0,0,1,114.18,265.94Z"/></g></g></svg>