<svg xmlns="http://www.w3.org/2000/svg" viewBox="0 0 300 601"><g id="Layer_2" data-name="Layer 2"><g id="REC"><rect y="1" width="300" height="600" fill="none"/><rect width="300" height="600" fill="none"/></g><g id="sbhd"><path d="M32.43,139l-1.22-3.23H23.56L22.33,139H19l6.55-16.68h3.65L35.76,139Zm-5.05-13.78-3,8h6Z" fill="#e52823"/><path d="M40.58,139.25a3.13,3.13,0,0,1-2.31-.8,3.22,3.22,0,0,1-.79-2.33V122.27h2.63v13.2a1.71,1.71,0,0,0,.29,1,1,1,0,0,0,.86.41,1.82,1.82,0,0,0,.7-.13,1.37,1.37,0,0,0,.47-.32l.63,2a2.87,2.87,0,0,1-1,.55A4.4,4.4,0,0,1,40.58,139.25Z" fill="#e52823"/><path d="M47.73,139.25a3.13,3.13,0,0,1-2.31-.8,3.22,3.22,0,0,1-.79-2.33V122.27h2.63v13.2a1.77,1.77,0,0,0,.28,1,1,1,0,0,0,.87.41,1.82,1.82,0,0,0,.7-.13,1.37,1.37,0,0,0,.47-.32l.63,2a2.87,2.87,0,0,1-1,.55A4.4,4.4,0,0,1,47.73,139.25Z" fill="#e52823"/><path d="M66.73,139V137.3A5.13,5.13,0,0,1,65,138.72a4.54,4.54,0,0,1-2.18.53,5.25,5.25,0,0,1-2.14-.43,4.56,4.56,0,0,1-1.7-1.25,5.7,5.7,0,0,1-1.11-2,9,9,0,0,1,0-5.3,5.79,5.79,0,0,1,1.11-2A4.75,4.75,0,0,1,60.71,127a5.2,5.2,0,0,1,2.15-.44,4.82,4.82,0,0,1,2.15.5,4.93,4.93,0,0,1,1.72,1.48v-6.28h2.63V139Zm-3.1-2a3.56,3.56,0,0,0,.91-.12,4.49,4.49,0,0,0,.88-.35,4.94,4.94,0,0,0,.75-.51,3.34,3.34,0,0,0,.56-.64v-4.78a4,4,0,0,0-.56-.62,4.41,4.41,0,0,0-.75-.53,4.49,4.49,0,0,0-.88-.35,3.56,3.56,0,0,0-.91-.12,3.21,3.21,0,0,0-2.5,1.12,3.61,3.61,0,0,0-.69,1.27,5.75,5.75,0,0,0,0,3.22,3.84,3.84,0,0,0,.69,1.28,3.26,3.26,0,0,0,1.08.83A3.22,3.22,0,0,0,63.63,136.92Z" fill="#e52823"/><path d="M78.23,139.25a6.38,6.38,0,0,1-2.6-.51,6.1,6.1,0,0,1-1.95-1.38,6,6,0,0,1-1.22-2A6.9,6.9,0,0,1,72,132.9a6.83,6.83,0,0,1,.43-2.45,5.86,5.86,0,0,1,1.22-2,5.92,5.92,0,0,1,1.95-1.37,6.55,6.55,0,0,1,2.6-.5,6.48,6.48,0,0,1,2.6.5,5.72,5.72,0,0,1,2,1.37,5.89,5.89,0,0,1,1.23,2,7,7,0,0,1,.42,2.45,7.13,7.13,0,0,1-.42,2.45,6,6,0,0,1-1.23,2,5.89,5.89,0,0,1-2,1.38A6.32,6.32,0,0,1,78.23,139.25Zm0-2.33a3.38,3.38,0,0,0,1.5-.32,3.14,3.14,0,0,0,1.09-.88,3.79,3.79,0,0,0,.66-1.28,5.32,5.32,0,0,0,.23-1.54,5.15,5.15,0,0,0-.23-1.53,3.83,3.83,0,0,0-.66-1.27,3.14,3.14,0,0,0-1.09-.88,3.38,3.38,0,0,0-1.5-.32,3.31,3.31,0,0,0-1.47.32,3.27,3.27,0,0,0-1.1.88,3.7,3.7,0,0,0-.68,1.27,5.15,5.15,0,0,0-.22,1.53,5.31,5.31,0,0,0,.22,1.54,3.65,3.65,0,0,0,.68,1.28,3.27,3.27,0,0,0,1.1.88A3.31,3.31,0,0,0,78.23,136.92Z" fill="#e52823"/><path d="M95.26,139v-1.6a6.6,6.6,0,0,1-1.74,1.31,5.23,5.23,0,0,1-2.51.59,4,4,0,0,1-2.93-1,3.87,3.87,0,0,1-1-2.84v-8.55h2.62v7.58a2.4,2.4,0,0,0,.66,1.94,2.82,2.82,0,0,0,1.79.53,3.47,3.47,0,0,0,1.81-.48,4.35,4.35,0,0,0,1.27-1.09v-8.48h2.62V139Z" fill="#e52823"/><path d="M101.28,139V122.27h2.63v6.28a4.72,4.72,0,0,1,3.87-2,5.28,5.28,0,0,1,2.16.44,4.7,4.7,0,0,1,1.7,1.26,6,6,0,0,1,1.12,2,9,9,0,0,1,0,5.3,5.9,5.9,0,0,1-1.13,2,4.67,4.67,0,0,1-1.71,1.25,5.25,5.25,0,0,1-2.14.43,4.58,4.58,0,0,1-2.17-.53,5.07,5.07,0,0,1-1.7-1.42V139Zm2.63-3.63a3.52,3.52,0,0,0,1.31,1.14,3.75,3.75,0,0,0,1.81.46,3,3,0,0,0,2.49-1.12,4.45,4.45,0,0,0,.91-2.9,5.13,5.13,0,0,0-.24-1.61,3.44,3.44,0,0,0-.68-1.27,3.23,3.23,0,0,0-1.08-.82,3.19,3.19,0,0,0-1.4-.3,3.76,3.76,0,0,0-1.81.47,3.63,3.63,0,0,0-1.31,1.15Z" fill="#e52823"/><path d="M118.91,139.25a3.14,3.14,0,0,1-2.32-.8,3.22,3.22,0,0,1-.78-2.33V122.27h2.62v13.2a1.77,1.77,0,0,0,.29,1,1,1,0,0,0,.86.41,1.82,1.82,0,0,0,.7-.13,1.33,1.33,0,0,0,.48-.32l.62,2a2.77,2.77,0,0,1-.95.55A4.38,4.38,0,0,1,118.91,139.25Z" fill="#e52823"/><path d="M128.56,139.25a7,7,0,0,1-2.54-.45,5.65,5.65,0,0,1-2-1.29,5.88,5.88,0,0,1-1.31-2,6.84,6.84,0,0,1-.48-2.6,6.72,6.72,0,0,1,.45-2.46,6.06,6.06,0,0,1,1.26-2,6.37,6.37,0,0,1,1.94-1.35,6.39,6.39,0,0,1,4.93,0,5.53,5.53,0,0,1,1.87,1.36,6.18,6.18,0,0,1,1.19,2.08,8.13,8.13,0,0,1,.41,2.62v.65H125a4,4,0,0,0,.36,1.28,3.68,3.68,0,0,0,.78,1.06,3.52,3.52,0,0,0,1.16.73,4.3,4.3,0,0,0,1.53.26,5.44,5.44,0,0,0,1.85-.35,4.58,4.58,0,0,0,1.6-1l1.2,1.72a6.07,6.07,0,0,1-2.2,1.33A8.05,8.05,0,0,1,128.56,139.25Zm3.2-7.35a3.77,3.77,0,0,0-.24-1.09,3.1,3.1,0,0,0-.63-1,3.24,3.24,0,0,0-1-.77,3.54,3.54,0,0,0-1.53-.3,3.47,3.47,0,0,0-1.45.29,3.09,3.09,0,0,0-1,.75,3.52,3.52,0,0,0-.63,1,3.18,3.18,0,0,0-.25,1.11Z" fill="#e52823"/><path d="M153.88,139l-2.82-8.85-2.8,8.85h-2.75l-3.75-12.08h2.72l2.55,8.78,2.88-8.78h2.32l2.85,8.78,2.55-8.78h2.75L156.63,139Z" fill="#e52823"/><path d="M163.53,125.4a1.56,1.56,0,0,1-1.15-.48,1.64,1.64,0,0,1,0-2.3,1.64,1.64,0,0,1,2.3,0,1.56,1.56,0,0,1,.48,1.15,1.55,1.55,0,0,1-.48,1.15A1.56,1.56,0,0,1,163.53,125.4ZM162.21,139V126.87h2.62V139Z" fill="#e52823"/><path d="M176.73,139V137.3a5.24,5.24,0,0,1-1.69,1.42,4.56,4.56,0,0,1-2.18.53,5.25,5.25,0,0,1-2.14-.43,4.56,4.56,0,0,1-1.7-1.25,5.7,5.7,0,0,1-1.11-2,9,9,0,0,1,0-5.3,5.79,5.79,0,0,1,1.11-2,4.75,4.75,0,0,1,1.69-1.26,5.2,5.2,0,0,1,2.15-.44,4.82,4.82,0,0,1,2.15.5,4.93,4.93,0,0,1,1.72,1.48v-6.28h2.63V139Zm-3.1-2a3.61,3.61,0,0,0,.91-.12,4.49,4.49,0,0,0,.88-.35,4.94,4.94,0,0,0,.75-.51,3.34,3.34,0,0,0,.56-.64v-4.78a4,4,0,0,0-.56-.62,4.41,4.41,0,0,0-.75-.53,4.49,4.49,0,0,0-.88-.35,3.61,3.61,0,0,0-.91-.12,3.21,3.21,0,0,0-2.5,1.12,3.61,3.61,0,0,0-.69,1.27,5.75,5.75,0,0,0,0,3.22,3.84,3.84,0,0,0,.69,1.28,3.26,3.26,0,0,0,1.08.83A3.22,3.22,0,0,0,173.63,136.92Z" fill="#e52823"/><path d="M188.36,139.25a7,7,0,0,1-2.54-.45,5.65,5.65,0,0,1-2-1.29,5.88,5.88,0,0,1-1.31-2,6.84,6.84,0,0,1-.48-2.6,6.72,6.72,0,0,1,.45-2.46,6.06,6.06,0,0,1,1.26-2,6.25,6.25,0,0,1,1.94-1.35,6.39,6.39,0,0,1,4.93,0,5.53,5.53,0,0,1,1.87,1.36,6.18,6.18,0,0,1,1.19,2.08,8.13,8.13,0,0,1,.41,2.62v.65h-9.3a4,4,0,0,0,.36,1.28,3.61,3.61,0,0,0,1.94,1.79,4.3,4.3,0,0,0,1.53.26,5.44,5.44,0,0,0,1.85-.35,4.58,4.58,0,0,0,1.6-1l1.2,1.72a6.07,6.07,0,0,1-2.2,1.33A8.05,8.05,0,0,1,188.36,139.25Zm3.2-7.35a3.77,3.77,0,0,0-.24-1.09,3.1,3.1,0,0,0-.63-1,3.24,3.24,0,0,0-1-.77,3.54,3.54,0,0,0-1.53-.3,3.47,3.47,0,0,0-1.45.29,3.09,3.09,0,0,0-1,.75,3.52,3.52,0,0,0-.63,1,3.18,3.18,0,0,0-.25,1.11Z" fill="#e52823"/><path d="M208.63,139.25a6.38,6.38,0,0,1-2.51-.48,5.79,5.79,0,0,1-2-1.32,6,6,0,0,1-1.29-2,6.83,6.83,0,0,1-.46-2.54,6.7,6.7,0,0,1,.46-2.53,6.09,6.09,0,0,1,1.29-2,5.79,5.79,0,0,1,2-1.32,6.38,6.38,0,0,1,2.51-.48,6.55,6.55,0,0,1,1.61.18,5.23,5.23,0,0,1,1.28.47,4.76,4.76,0,0,1,1,.69,5.63,5.63,0,0,1,.75.81l-1.72,1.58a3.21,3.21,0,0,0-2.78-1.4A3.41,3.41,0,0,0,206.1,130a4.18,4.18,0,0,0-1,2.89,4.65,4.65,0,0,0,.27,1.61,3.64,3.64,0,0,0,.75,1.28,3.47,3.47,0,0,0,2.63,1.13,3.22,3.22,0,0,0,2.78-1.45l1.72,1.63a6.09,6.09,0,0,1-1.75,1.5A5.62,5.62,0,0,1,208.63,139.25Z" fill="#e52823"/><path d="M224.08,139V137.3a5.24,5.24,0,0,1-1.69,1.42,4.59,4.59,0,0,1-2.18.53,5.25,5.25,0,0,1-2.14-.43,4.56,4.56,0,0,1-1.7-1.25,5.88,5.88,0,0,1-1.12-2,9,9,0,0,1,0-5.3,6,6,0,0,1,1.12-2,4.71,4.71,0,0,1,1.68-1.26,5.28,5.28,0,0,1,2.16-.44,4.74,4.74,0,0,1,2.14.5,4.88,4.88,0,0,1,1.73,1.48v-1.68h2.63V139Zm-3.1-2a3.61,3.61,0,0,0,.91-.12,4.49,4.49,0,0,0,.88-.35,4.94,4.94,0,0,0,.75-.51,3.34,3.34,0,0,0,.56-.64v-4.78a4,4,0,0,0-.56-.62,4.41,4.41,0,0,0-.75-.53,4.49,4.49,0,0,0-.88-.35,3.61,3.61,0,0,0-.91-.12,3.17,3.17,0,0,0-2.5,1.12,3.61,3.61,0,0,0-.69,1.27,5.52,5.52,0,0,0,0,3.22,3.84,3.84,0,0,0,.69,1.28,3.13,3.13,0,0,0,2.5,1.13Z" fill="#e52823"/><path d="M233.75,139.25a3.11,3.11,0,0,1-2.32-.8,3.22,3.22,0,0,1-.78-2.33v-7h-2v-2.28h2v-3.3h2.63v3.3h2.45v2.28h-2.45v6.32a1.77,1.77,0,0,0,.29,1,1,1,0,0,0,.86.41,1.73,1.73,0,0,0,.69-.13,1.32,1.32,0,0,0,.46-.32l.62,2a2.77,2.77,0,0,1-.95.55A4.3,4.3,0,0,1,233.75,139.25Z" fill="#e52823"/><path d="M24.81,164.05a8.21,8.21,0,0,1-2.9-.49,6.55,6.55,0,0,1-2.28-1.41l1.2-1.88a5.1,5.1,0,0,0,.78.63,6.3,6.3,0,0,0,1,.54,6.91,6.91,0,0,0,1.14.37,5.11,5.11,0,0,0,1.16.14,3.06,3.06,0,0,0,1.8-.44,1.37,1.37,0,0,0,.6-1.16,1,1,0,0,0-.54-.9,5.38,5.38,0,0,0-1.35-.5c-.54-.14-1.13-.27-1.76-.4a7.93,7.93,0,0,1-1.76-.6,3.8,3.8,0,0,1-1.35-1.08A2.87,2.87,0,0,1,20,155a3.23,3.23,0,0,1,.31-1.41,3.37,3.37,0,0,1,.91-1.16,4.31,4.31,0,0,1,1.49-.79,6.65,6.65,0,0,1,2-.29,7.05,7.05,0,0,1,2.71.48,6.24,6.24,0,0,1,2,1.2l-1.1,1.85a4.57,4.57,0,0,0-1.48-1,5.1,5.1,0,0,0-2.09-.42,2.78,2.78,0,0,0-1.64.42,1.3,1.3,0,0,0-.59,1.08.87.87,0,0,0,.54.8,6.41,6.41,0,0,0,1.35.46l1.76.4a7.72,7.72,0,0,1,1.77.62,4,4,0,0,1,1.35,1.13,3.14,3.14,0,0,1,.53,1.91,3.57,3.57,0,0,1-.32,1.5,3.28,3.28,0,0,1-1,1.2,4.68,4.68,0,0,1-1.58.79A7.43,7.43,0,0,1,24.81,164.05Z" fill="#e52823"/><path d="M38,164.05a6.35,6.35,0,0,1-2.51-.48,5.84,5.84,0,0,1-2-1.32,6,6,0,0,1-1.28-2,7,7,0,0,1,0-5.06,6.06,6.06,0,0,1,1.28-2,5.84,5.84,0,0,1,2-1.32,6.35,6.35,0,0,1,2.51-.48,6.55,6.55,0,0,1,1.61.18,5.23,5.23,0,0,1,1.28.47,4.76,4.76,0,0,1,1,.69,5.63,5.63,0,0,1,.75.81l-1.72,1.58a3.21,3.21,0,0,0-2.78-1.4,3.4,3.4,0,0,0-2.65,1.11,4.18,4.18,0,0,0-1,2.89,4.65,4.65,0,0,0,.27,1.61,3.51,3.51,0,0,0,.75,1.27,3.32,3.32,0,0,0,1.15.84,3.53,3.53,0,0,0,1.48.3,3.23,3.23,0,0,0,2.78-1.45l1.72,1.63a6.09,6.09,0,0,1-1.75,1.5A5.62,5.62,0,0,1,38,164.05Z" fill="#e52823"/><path d="M44.91,163.75V151.67h2.62v1.75A6,6,0,0,1,49.26,152a4.34,4.34,0,0,1,2.2-.59V154a3.91,3.91,0,0,0-.8-.07,3.52,3.52,0,0,0-.89.12,4.93,4.93,0,0,0-.9.35,4.36,4.36,0,0,0-.79.53,3.1,3.1,0,0,0-.55.62v8.23Z" fill="#e52823"/><path d="M62.08,163.75V162.1a5.2,5.2,0,0,1-1.68,1.42,4.6,4.6,0,0,1-2.19.53,5.25,5.25,0,0,1-2.14-.43,4.56,4.56,0,0,1-1.7-1.25,5.86,5.86,0,0,1-1.11-2,9,9,0,0,1,0-5.3,6,6,0,0,1,1.11-2,4.75,4.75,0,0,1,1.69-1.26,5.2,5.2,0,0,1,2.15-.44,4.82,4.82,0,0,1,2.15.5,4.93,4.93,0,0,1,1.72,1.48v-1.68h2.63v12.08Zm-3.1-2a3.69,3.69,0,0,0,.92-.12,4.66,4.66,0,0,0,.87-.35,4.36,4.36,0,0,0,.75-.52,3,3,0,0,0,.56-.63v-4.78a4,4,0,0,0-.56-.62,4.41,4.41,0,0,0-.75-.53,4.66,4.66,0,0,0-.87-.35,3.69,3.69,0,0,0-.92-.12,3.21,3.21,0,0,0-2.5,1.12,3.65,3.65,0,0,0-.69,1.26,5.56,5.56,0,0,0-.23,1.62,5.49,5.49,0,0,0,.23,1.61,3.7,3.7,0,0,0,.69,1.27,3.16,3.16,0,0,0,1.08.84A3.22,3.22,0,0,0,59,161.72Z" fill="#e52823"/><path d="M71.76,164.05a3.12,3.12,0,0,1-2.33-.8,3.26,3.26,0,0,1-.77-2.33v-7h-2v-2.28h2v-3.3h2.62v3.3h2.45V154H71.28v6.32a1.77,1.77,0,0,0,.29,1,1,1,0,0,0,.86.41,1.58,1.58,0,0,0,.69-.14,1.19,1.19,0,0,0,.46-.31l.63,2a2.87,2.87,0,0,1-.95.55A4.3,4.3,0,0,1,71.76,164.05Z" fill="#e52823"/><path d="M81.58,164.05a6.42,6.42,0,0,1-2.51-.48,5.79,5.79,0,0,1-2-1.32,6.13,6.13,0,0,1-1.29-2,7.19,7.19,0,0,1,0-5.06,6.25,6.25,0,0,1,1.29-2,5.79,5.79,0,0,1,2-1.32,6.42,6.42,0,0,1,2.51-.48,6.55,6.55,0,0,1,1.61.18,5.23,5.23,0,0,1,1.28.47,5.13,5.13,0,0,1,1,.69,7.06,7.06,0,0,1,.75.81l-1.73,1.58a3.2,3.2,0,0,0-2.77-1.4,3.38,3.38,0,0,0-2.65,1.11,4.13,4.13,0,0,0-1,2.89,4.65,4.65,0,0,0,.26,1.61,3.51,3.51,0,0,0,.75,1.27,3.42,3.42,0,0,0,1.15.84,3.57,3.57,0,0,0,1.49.3,3.21,3.21,0,0,0,2.77-1.45l1.73,1.63a6.37,6.37,0,0,1-1.75,1.5A5.66,5.66,0,0,1,81.58,164.05Z" fill="#e52823"/><path d="M96.71,163.75v-7.6a2.38,2.38,0,0,0-.65-1.94,2.83,2.83,0,0,0-1.78-.51,3.41,3.41,0,0,0-1.84.5,4.45,4.45,0,0,0-1.26,1.1v8.45H88.56V147.07h2.62v6.23a5,5,0,0,1,.74-.7,6,6,0,0,1,1-.63,5.32,5.32,0,0,1,1.18-.43,5.39,5.39,0,0,1,1.36-.17,4,4,0,0,1,2.93,1,3.86,3.86,0,0,1,1,2.85v8.55Z" fill="#e52823"/><path d="M114.68,164.05a6.38,6.38,0,0,1-2.51-.48,5.79,5.79,0,0,1-2-1.32,6.13,6.13,0,0,1-1.29-2,7.19,7.19,0,0,1,0-5.06,6.25,6.25,0,0,1,1.29-2,5.79,5.79,0,0,1,2-1.32,6.38,6.38,0,0,1,2.51-.48,6.55,6.55,0,0,1,1.61.18,5.23,5.23,0,0,1,1.28.47,5.13,5.13,0,0,1,1,.69,7.06,7.06,0,0,1,.75.81l-1.73,1.58a3.2,3.2,0,0,0-2.77-1.4,3.38,3.38,0,0,0-2.65,1.11,4.13,4.13,0,0,0-1,2.89,4.65,4.65,0,0,0,.26,1.61,3.51,3.51,0,0,0,.75,1.27,3.42,3.42,0,0,0,1.15.84,3.57,3.57,0,0,0,1.49.3,3.21,3.21,0,0,0,2.77-1.45l1.73,1.63a6.37,6.37,0,0,1-1.75,1.5A5.69,5.69,0,0,1,114.68,164.05Z" fill="#e52823"/><path d="M127.11,164.05a6.32,6.32,0,0,1-2.6-.51,6,6,0,0,1-2-1.38,5.92,5.92,0,0,1-1.23-2,7.13,7.13,0,0,1-.42-2.45,7,7,0,0,1,.42-2.45,5.76,5.76,0,0,1,3.18-3.38,6.48,6.48,0,0,1,2.6-.5,6.55,6.55,0,0,1,2.6.5,5.7,5.7,0,0,1,3.17,3.38,7,7,0,0,1,.43,2.45,7.13,7.13,0,0,1-.43,2.45,6.06,6.06,0,0,1-1.22,2,6.26,6.26,0,0,1-1.95,1.38A6.38,6.38,0,0,1,127.11,164.05Zm0-2.33a3.44,3.44,0,0,0,1.5-.32,3.2,3.2,0,0,0,1.08-.88,3.76,3.76,0,0,0,.67-1.29,5.43,5.43,0,0,0,0-3.06,3.85,3.85,0,0,0-.67-1.27,3.2,3.2,0,0,0-1.08-.88,3.44,3.44,0,0,0-1.5-.32,3.19,3.19,0,0,0-2.58,1.2,3.68,3.68,0,0,0-.67,1.27,5.2,5.2,0,0,0,0,3.06,3.6,3.6,0,0,0,.67,1.29,3.19,3.19,0,0,0,2.58,1.2Z" fill="#e52823"/><path d="M136,163.75V151.67h2.63v1.75a6,6,0,0,1,1.72-1.46,4.37,4.37,0,0,1,2.2-.59V154a3.84,3.84,0,0,0-.8-.07,3.58,3.58,0,0,0-.89.12,4.93,4.93,0,0,0-.9.35,4,4,0,0,0-.78.53,2.58,2.58,0,0,0-.55.62v8.23Z" fill="#e52823"/><path d="M144.66,163.75V151.67h2.62v1.75A6.1,6.1,0,0,1,149,152a4.41,4.41,0,0,1,2.21-.59V154a3.91,3.91,0,0,0-.8-.07,3.52,3.52,0,0,0-.89.12,4.93,4.93,0,0,0-.9.35,4,4,0,0,0-.79.53,2.82,2.82,0,0,0-.55.62v8.23Z" fill="#e52823"/><path d="M161.48,163.75v-1.6a6.29,6.29,0,0,1-1.74,1.31,5.2,5.2,0,0,1-2.51.59,4,4,0,0,1-2.93-1,3.91,3.91,0,0,1-1-2.84v-8.55H156v7.58a2.4,2.4,0,0,0,.66,1.94,2.81,2.81,0,0,0,1.79.53,3.41,3.41,0,0,0,1.81-.49,4.26,4.26,0,0,0,1.26-1.08v-8.48h2.63v12.08Z" fill="#e52823"/><path d="M172.43,168.65a8.91,8.91,0,0,1-2.75-.39,6.48,6.48,0,0,1-2.33-1.41l1.23-1.9a4.35,4.35,0,0,0,1.7,1.2,6.25,6.25,0,0,0,2.15.35,5.19,5.19,0,0,0,1.29-.17,2.94,2.94,0,0,0,1.15-.56,2.86,2.86,0,0,0,.82-1,3.61,3.61,0,0,0,.31-1.61v-1.37a5.25,5.25,0,0,1-1.68,1.47,4.4,4.4,0,0,1-2.19.55,5.41,5.41,0,0,1-2.14-.41,4.74,4.74,0,0,1-1.7-1.2,5.64,5.64,0,0,1-1.11-1.94,7.94,7.94,0,0,1-.4-2.65,7.84,7.84,0,0,1,.4-2.62,5.78,5.78,0,0,1,1.11-1.95,4.58,4.58,0,0,1,1.69-1.21,5.39,5.39,0,0,1,2.15-.42,4.78,4.78,0,0,1,2.15.5,4.85,4.85,0,0,1,1.72,1.48v-1.68h2.63v11.45a5.82,5.82,0,0,1-.55,2.7,4.56,4.56,0,0,1-1.44,1.7,5.56,5.56,0,0,1-2,.88A10.47,10.47,0,0,1,172.43,168.65Zm.48-7.23a3.7,3.7,0,0,0,1.78-.47,3.6,3.6,0,0,0,1.31-1.13V155.3a3.6,3.6,0,0,0-1.31-1.13,3.7,3.7,0,0,0-1.78-.47,3.12,3.12,0,0,0-2.5,1.06,4.12,4.12,0,0,0-.93,2.81,4.06,4.06,0,0,0,.93,2.8A3.14,3.14,0,0,0,172.91,161.42Z" fill="#e52823"/><path d="M190.53,163.75V162.1a5.24,5.24,0,0,1-1.69,1.42,4.56,4.56,0,0,1-2.18.53,5.25,5.25,0,0,1-2.14-.43,4.56,4.56,0,0,1-1.7-1.25,5.7,5.7,0,0,1-1.11-2,8.77,8.77,0,0,1,0-5.3,5.79,5.79,0,0,1,1.11-2,4.71,4.71,0,0,1,1.68-1.26,5.28,5.28,0,0,1,2.16-.44,4.74,4.74,0,0,1,2.14.5,4.88,4.88,0,0,1,1.73,1.48v-1.68h2.63v12.08Zm-3.1-2a3.61,3.61,0,0,0,.91-.12,4.49,4.49,0,0,0,.88-.35,4.36,4.36,0,0,0,.75-.52,3,3,0,0,0,.56-.63v-4.78a4,4,0,0,0-.56-.62,4.41,4.41,0,0,0-.75-.53,4.49,4.49,0,0,0-.88-.35,3.61,3.61,0,0,0-.91-.12,3.17,3.17,0,0,0-2.5,1.12,3.65,3.65,0,0,0-.69,1.26,5.24,5.24,0,0,0-.24,1.62,5.18,5.18,0,0,0,.24,1.61,3.7,3.7,0,0,0,.69,1.27,3.22,3.22,0,0,0,1.07.84A3.3,3.3,0,0,0,187.43,161.72Z" fill="#e52823"/><path d="M200.21,164.05a3.12,3.12,0,0,1-2.33-.8,3.22,3.22,0,0,1-.78-2.33v-7h-2v-2.28h2v-3.3h2.63v3.3h2.45V154h-2.45v6.32a1.77,1.77,0,0,0,.29,1,1,1,0,0,0,.86.41,1.58,1.58,0,0,0,.69-.14,1.19,1.19,0,0,0,.46-.31l.62,2a2.81,2.81,0,0,1-.94.55A4.38,4.38,0,0,1,200.21,164.05Z" fill="#e52823"/><path d="M210.13,164.05a7,7,0,0,1-2.54-.45,5.74,5.74,0,0,1-2-1.29,6,6,0,0,1-1.31-2,7.14,7.14,0,0,1,0-5.07,6,6,0,0,1,1.27-2,6.21,6.21,0,0,1,1.93-1.35,6.39,6.39,0,0,1,4.93,0,5.44,5.44,0,0,1,1.87,1.36,6,6,0,0,1,1.19,2.08,7.87,7.87,0,0,1,.41,2.62v.65h-9.3a3.78,3.78,0,0,0,.37,1.28,3.54,3.54,0,0,0,1.93,1.79,4.3,4.3,0,0,0,1.53.26,5.4,5.4,0,0,0,1.85-.35,4.49,4.49,0,0,0,1.6-1l1.2,1.72a6.07,6.07,0,0,1-2.2,1.33A8.05,8.05,0,0,1,210.13,164.05Zm3.2-7.35a3.7,3.7,0,0,0-.24-1.09,3.29,3.29,0,0,0-.62-1,3.41,3.41,0,0,0-1-.76,3.54,3.54,0,0,0-1.53-.3,3.47,3.47,0,0,0-1.45.29,3,3,0,0,0-1,.75,3.43,3.43,0,0,0-.64,1,3.54,3.54,0,0,0-.25,1.12Z" fill="#e52823"/><path d="M222.6,164.05a8.25,8.25,0,0,1-2.9-.49,6.5,6.5,0,0,1-2.27-1.41l1.2-1.88a5,5,0,0,0,.77.63,6.77,6.77,0,0,0,1,.54,7.58,7.58,0,0,0,1.14.37,5.18,5.18,0,0,0,1.16.14,3.06,3.06,0,0,0,1.8-.44,1.37,1.37,0,0,0,.6-1.16,1,1,0,0,0-.53-.9,5.38,5.38,0,0,0-1.35-.5c-.55-.14-1.13-.27-1.77-.4a8.1,8.1,0,0,1-1.76-.6,4,4,0,0,1-1.35-1.08,2.87,2.87,0,0,1-.54-1.85,3.24,3.24,0,0,1,.32-1.41,3.37,3.37,0,0,1,.91-1.16,4.22,4.22,0,0,1,1.49-.79,6.63,6.63,0,0,1,2-.29,7.1,7.1,0,0,1,2.72.48,6.36,6.36,0,0,1,2,1.2l-1.1,1.85a4.62,4.62,0,0,0-1.49-1,5,5,0,0,0-2.09-.42,2.75,2.75,0,0,0-1.63.42,1.27,1.27,0,0,0-.59,1.08.87.87,0,0,0,.54.8,6,6,0,0,0,1.35.46l1.76.4a7.64,7.64,0,0,1,1.76.62,4,4,0,0,1,1.35,1.13,3.07,3.07,0,0,1,.54,1.91,3.43,3.43,0,0,1-.33,1.5,3.08,3.08,0,0,1-1,1.2,4.63,4.63,0,0,1-1.57.79A7.5,7.5,0,0,1,222.6,164.05Z" fill="#e52823"/><path d="M233.5,162.8a4.88,4.88,0,0,1-.63,2.42,5.56,5.56,0,0,1-1.69,1.85l-1.2-1a3.91,3.91,0,0,0,.6-.45,6.1,6.1,0,0,0,.55-.59,3.79,3.79,0,0,0,.42-.65,2,2,0,0,0,.23-.66l-.18.05-.25,0a1.41,1.41,0,0,1-1-.45,1.61,1.61,0,0,1-.42-1.15,1.66,1.66,0,0,1,.49-1.2,1.63,1.63,0,0,1,1.21-.5,1.84,1.84,0,0,1,1.35.59A2.32,2.32,0,0,1,233.5,162.8Z" fill="#e52823"/><path d="M20.21,188.55v-2.33q2.41-1.82,4.14-3.2a34,34,0,0,0,2.8-2.46,9.07,9.07,0,0,0,1.58-2,3.67,3.67,0,0,0,.5-1.81,2.23,2.23,0,0,0-.95-1.91,2.92,2.92,0,0,0-1-.47,4.28,4.28,0,0,0-1.13-.15,5.83,5.83,0,0,0-2.58.54,6.1,6.1,0,0,0-1.92,1.44L20,174.3a6.86,6.86,0,0,1,2.77-2,8.82,8.82,0,0,1,3.41-.67,8,8,0,0,1,2.3.34,5.64,5.64,0,0,1,1.92,1,4.56,4.56,0,0,1,1.8,3.79,5.33,5.33,0,0,1-.51,2.27,10.19,10.19,0,0,1-1.46,2.22,21.45,21.45,0,0,1-2.29,2.28c-.89.78-1.9,1.59-3,2.44h7.37v2.6Z" fill="#e52823"/><path d="M42.63,188.55v-9.8h-2v-2.28h2v-.67a4.17,4.17,0,0,1,1.08-3.1,3.66,3.66,0,0,1,2.72-1.08,4.43,4.43,0,0,1,2.13.45l-.58,2a1.83,1.83,0,0,0-1-.28,1.59,1.59,0,0,0-1.24.5,2.29,2.29,0,0,0-.43,1.53v.67h2.45v2.28H45.26v9.8Z" fill="#e52823"/><path d="M55.18,188.85a6.35,6.35,0,0,1-2.6-.51A5.83,5.83,0,0,1,49.41,185,6.9,6.9,0,0,1,49,182.5a6.83,6.83,0,0,1,.43-2.45,5.78,5.78,0,0,1,3.17-3.38,7,7,0,0,1,5.2,0A5.72,5.72,0,0,1,59.73,178a5.89,5.89,0,0,1,1.23,2,7,7,0,0,1,.42,2.45A7.13,7.13,0,0,1,61,185a6,6,0,0,1-1.23,2,5.89,5.89,0,0,1-1.95,1.38A6.32,6.32,0,0,1,55.18,188.85Zm0-2.33a3.38,3.38,0,0,0,1.5-.32,3.14,3.14,0,0,0,1.09-.88,3.79,3.79,0,0,0,.66-1.28,5.32,5.32,0,0,0,.23-1.54,5.15,5.15,0,0,0-.23-1.53,3.83,3.83,0,0,0-.66-1.27,3.14,3.14,0,0,0-1.09-.88,3.38,3.38,0,0,0-1.5-.32,3.31,3.31,0,0,0-1.47.32,3.27,3.27,0,0,0-1.1.88,3.7,3.7,0,0,0-.68,1.27,5.15,5.15,0,0,0-.22,1.53,5.31,5.31,0,0,0,.22,1.54,3.65,3.65,0,0,0,.68,1.28,3.27,3.27,0,0,0,1.1.88A3.31,3.31,0,0,0,55.18,186.52Z" fill="#e52823"/><path d="M64.06,188.55V176.47h2.62v1.75a6,6,0,0,1,1.73-1.46,4.34,4.34,0,0,1,2.2-.59v2.6a3.91,3.91,0,0,0-.8-.07,3.52,3.52,0,0,0-.89.12,4.93,4.93,0,0,0-.9.35,4,4,0,0,0-.79.53,2.82,2.82,0,0,0-.55.62v8.23Z" fill="#e52823"/><path d="M84.21,188.8a9.48,9.48,0,0,1-3.39-.84,8.48,8.48,0,0,1-2.44-1.74L80,184a7.72,7.72,0,0,0,1.76,1.41,6.56,6.56,0,0,0,2.42.84v-4.86c-.65-.17-1.29-.36-1.92-.58a6.34,6.34,0,0,1-1.68-.86,4.27,4.27,0,0,1-1.22-1.35,4.1,4.1,0,0,1-.46-2,4.32,4.32,0,0,1,.38-1.79,4.57,4.57,0,0,1,1.06-1.49A5.52,5.52,0,0,1,82,172.16a7,7,0,0,1,2.18-.51v-2.3h2v2.32a9.41,9.41,0,0,1,2.78.75A7.88,7.88,0,0,1,91.23,174l-1.65,2.17A6.08,6.08,0,0,0,88,175a7.68,7.68,0,0,0-1.78-.62v4.32c.65.17,1.3.37,2,.59a6.75,6.75,0,0,1,1.73.9,4.57,4.57,0,0,1,1.25,1.41,4.13,4.13,0,0,1,.49,2.1,5.38,5.38,0,0,1-.32,1.83,4.64,4.64,0,0,1-1,1.57,5.1,5.1,0,0,1-1.69,1.15,7.89,7.89,0,0,1-2.42.58v2.25h-2Zm-2.28-12.5a1.32,1.32,0,0,0,.64,1.15,6.15,6.15,0,0,0,1.64.72v-3.92a3,3,0,0,0-1.67.67A1.78,1.78,0,0,0,81.93,176.3Zm6.7,7.65a1.47,1.47,0,0,0-.69-1.31,6.33,6.33,0,0,0-1.73-.79v4.35a3,3,0,0,0,1.86-.86A2.17,2.17,0,0,0,88.63,184Z" fill="#e52823"/><path d="M100.21,188.85a8.68,8.68,0,0,1-3.65-.69A7.25,7.25,0,0,1,94,186.27l1.68-2a5.58,5.58,0,0,0,4.47,2,3.56,3.56,0,0,0,2.51-.85,2.77,2.77,0,0,0,.92-2.1,2.73,2.73,0,0,0-.9-2.15,3.53,3.53,0,0,0-2.45-.8,5.4,5.4,0,0,0-2,.34,5,5,0,0,0-1.7,1.08l-2.08-.6v-9.3h10.93v2.6h-8v4.78a5.41,5.41,0,0,1,1.6-1,5.26,5.26,0,0,1,2.17-.43,5.62,5.62,0,0,1,2,.37,5,5,0,0,1,2.88,2.73,5.52,5.52,0,0,1,.44,2.28,5.72,5.72,0,0,1-.47,2.34,5.27,5.27,0,0,1-1.32,1.77,6,6,0,0,1-2,1.14A8.1,8.1,0,0,1,100.21,188.85Z" fill="#e52823"/></g></g></svg>