<svg xmlns="http://www.w3.org/2000/svg" viewBox="0 0 728 90"><g id="Layer_2" data-name="Layer 2"><g id="REC"><rect width="728" height="90" fill="none"/></g><g id="sbhd"><path d="M276.6,30.49V20.92h-3.44V19.15H282v1.77h-3.43v9.57Z" fill="#e52823"/><path d="M285.59,30.69a4.18,4.18,0,0,1-1.77-.35,3.94,3.94,0,0,1-1.32-.93,4.08,4.08,0,0,1-.84-1.37,5.09,5.09,0,0,1,0-3.33,4.08,4.08,0,0,1,.84-1.37,3.94,3.94,0,0,1,1.32-.93,4.78,4.78,0,0,1,3.54,0,3.91,3.91,0,0,1,2.16,2.3,4.92,4.92,0,0,1,0,3.33,3.91,3.91,0,0,1-2.16,2.3A4.18,4.18,0,0,1,285.59,30.69Zm0-1.58a2.19,2.19,0,0,0,1-.22,2.27,2.27,0,0,0,.74-.59,2.62,2.62,0,0,0,.45-.88,3.6,3.6,0,0,0,.15-1.05,3.52,3.52,0,0,0-.15-1,2.57,2.57,0,0,0-.45-.87,2,2,0,0,0-.74-.59,2.19,2.19,0,0,0-1-.23,2.17,2.17,0,0,0-1,.23,2.07,2.07,0,0,0-.75.59,2.59,2.59,0,0,0-.46.87,3.52,3.52,0,0,0-.15,1,3.6,3.6,0,0,0,.15,1.05,2.64,2.64,0,0,0,.46.88,2.31,2.31,0,0,0,.75.59A2.16,2.16,0,0,0,285.59,29.11Z" fill="#e52823"/><path d="M296.05,30.69a3,3,0,0,1-1.46-.35,3.57,3.57,0,0,1-1.18-1v4.27h-1.78V22.28h1.78V23.4a3.43,3.43,0,0,1,1.14-1,3.14,3.14,0,0,1,1.5-.36,3.66,3.66,0,0,1,1.46.29,3.52,3.52,0,0,1,1.15.84,4,4,0,0,1,.75,1.36,5.6,5.6,0,0,1,.27,1.81,5.66,5.66,0,0,1-.27,1.82,3.82,3.82,0,0,1-.75,1.35,3.44,3.44,0,0,1-1.15.86A3.66,3.66,0,0,1,296.05,30.69Zm-.53-1.58a2.09,2.09,0,0,0,1.7-.76,3,3,0,0,0,.63-2,3,3,0,0,0-.63-2,2.12,2.12,0,0,0-1.7-.76,2.56,2.56,0,0,0-1.22.32,2.43,2.43,0,0,0-.89.77V28a2,2,0,0,0,.38.44,3,3,0,0,0,.51.36,3.13,3.13,0,0,0,.6.24A2.64,2.64,0,0,0,295.52,29.11Z" fill="#e52823"/><path d="M305.91,30.49V19.15h5a4.12,4.12,0,0,1,1.58.28,3.59,3.59,0,0,1,1.16.76,3,3,0,0,1,.71,1.14,3.91,3.91,0,0,1,.24,1.37,3.85,3.85,0,0,1-.24,1.36,3.41,3.41,0,0,1-.72,1.13,3.32,3.32,0,0,1-1.15.77,4.12,4.12,0,0,1-1.58.28h-3v4.25Zm4.72-6A2,2,0,0,0,312,24a1.83,1.83,0,0,0,0-2.58,2,2,0,0,0-1.39-.49h-2.74v3.55Z" fill="#e52823"/><path d="M321.73,30.49V29.37a3.59,3.59,0,0,1-1.15,1,3.17,3.17,0,0,1-1.48.35,3.56,3.56,0,0,1-1.46-.29,3.08,3.08,0,0,1-1.15-.85,4,4,0,0,1-.76-1.36,5.66,5.66,0,0,1-.27-1.82,5.54,5.54,0,0,1,.27-1.78,4.07,4.07,0,0,1,.76-1.36,3.25,3.25,0,0,1,1.15-.86,3.47,3.47,0,0,1,1.46-.3,3.18,3.18,0,0,1,2.63,1.35V22.28h1.79v8.21Zm-2.11-1.38a2.72,2.72,0,0,0,.63-.08,3.32,3.32,0,0,0,.59-.24,2.7,2.7,0,0,0,.51-.35,1.92,1.92,0,0,0,.38-.43V24.76a2.5,2.5,0,0,0-.38-.43,2.7,2.7,0,0,0-.51-.35,3.32,3.32,0,0,0-.59-.24,2.28,2.28,0,0,0-.63-.09,2.23,2.23,0,0,0-1.7.77,2.37,2.37,0,0,0-.46.86,3.83,3.83,0,0,0,0,2.19,2.5,2.5,0,0,0,.46.87,2.3,2.3,0,0,0,.74.57A2.26,2.26,0,0,0,319.62,29.11Z" fill="#e52823"/><path d="M333,30.49l-1.92-6-1.9,6h-1.87l-2.55-8.21h1.85l1.74,6,1.95-6h1.58l1.94,6,1.73-6h1.87l-2.55,8.21Z" fill="#e52823"/><path d="M342.06,20.22a2.08,2.08,0,0,1-.17.82,2.29,2.29,0,0,1-.44.67,2.07,2.07,0,0,1-1.49.61,2,2,0,0,1-.82-.16,2.08,2.08,0,0,1-.67-.45A2.32,2.32,0,0,1,338,21a2.08,2.08,0,0,1-.17-.82,2,2,0,0,1,.17-.82,2.09,2.09,0,0,1,1.12-1.12,2,2,0,0,1,.82-.16,2,2,0,0,1,1.93,1.28A2,2,0,0,1,342.06,20.22Zm-.3,0a1.87,1.87,0,0,0-.14-.71,1.61,1.61,0,0,0-.39-.57,1.75,1.75,0,0,0-.57-.39,1.87,1.87,0,0,0-.71-.14,1.82,1.82,0,0,0-.7.14,1.86,1.86,0,0,0-.57.39,1.61,1.61,0,0,0-.39.57,1.87,1.87,0,0,0-.14.71,1.81,1.81,0,0,0,.14.69,1.61,1.61,0,0,0,.39.57,2.06,2.06,0,0,0,.57.39,1.82,1.82,0,0,0,.7.14,1.87,1.87,0,0,0,.71-.14,1.92,1.92,0,0,0,.57-.39,1.61,1.61,0,0,0,.39-.57A1.81,1.81,0,0,0,341.76,20.22Zm-1.23,1.21-.62-.95h-.43v.95h-.33V19h1a.8.8,0,0,1,.54.2.65.65,0,0,1,.24.53.71.71,0,0,1-.08.34.67.67,0,0,1-.18.22.57.57,0,0,1-.21.12.41.41,0,0,1-.16,0l.65,1Zm0-1.68a.42.42,0,0,0-.14-.32.44.44,0,0,0-.3-.12h-.65v.87h.65a.44.44,0,0,0,.3-.12A.4.4,0,0,0,340.57,19.75Z" fill="#e52823"/><path d="M276.67,51.69a5.71,5.71,0,0,1-2-.33,4.28,4.28,0,0,1-1.54-1l.81-1.27a4.91,4.91,0,0,0,.53.42,4,4,0,0,0,.68.37,5.32,5.32,0,0,0,.77.25,3.61,3.61,0,0,0,.79.09A2.07,2.07,0,0,0,278,50a1,1,0,0,0,.41-.79.68.68,0,0,0-.37-.62,4.36,4.36,0,0,0-.92-.34l-1.2-.27a4.52,4.52,0,0,1-1.19-.41,2.55,2.55,0,0,1-.92-.73,1.9,1.9,0,0,1-.37-1.25,2.32,2.32,0,0,1,.21-1,2.47,2.47,0,0,1,.62-.79,3.17,3.17,0,0,1,1-.53,4.46,4.46,0,0,1,1.38-.2,4.81,4.81,0,0,1,1.85.33,4.38,4.38,0,0,1,1.33.81l-.75,1.26a3.16,3.16,0,0,0-1-.7,3.43,3.43,0,0,0-1.42-.29,1.88,1.88,0,0,0-1.11.29.88.88,0,0,0-.4.73.6.6,0,0,0,.36.55,4.11,4.11,0,0,0,.92.31l1.2.27a5.18,5.18,0,0,1,1.2.43,2.64,2.64,0,0,1,.92.77,2.11,2.11,0,0,1,.36,1.3,2.37,2.37,0,0,1-.22,1,2.2,2.2,0,0,1-.65.81,3.26,3.26,0,0,1-1.07.54A5.09,5.09,0,0,1,276.67,51.69Z" fill="#e52823"/><path d="M292,51.49V46.13a1.7,1.7,0,0,0-.32-1.07,1.23,1.23,0,0,0-1-.41,2,2,0,0,0-1.11.34,2.72,2.72,0,0,0-.79.75v5.75H286.9V46.13a1.7,1.7,0,0,0-.31-1.07,1.21,1.21,0,0,0-1-.41,2,2,0,0,0-1.11.35,3.61,3.61,0,0,0-.8.74v5.75h-1.78V43.28h1.78v1.1A2.84,2.84,0,0,1,284,44a3,3,0,0,1,.62-.43,4,4,0,0,1,.78-.33,2.93,2.93,0,0,1,.9-.14,2.43,2.43,0,0,1,1.48.42,2.07,2.07,0,0,1,.76,1.08A3.58,3.58,0,0,1,289,44a3.17,3.17,0,0,1,.65-.49,3.85,3.85,0,0,1,.8-.34,3.3,3.3,0,0,1,.89-.13,2.36,2.36,0,0,1,1.74.62,2.48,2.48,0,0,1,.62,1.87v5.93Z" fill="#e52823"/><path d="M301.83,51.49V50.37a3.7,3.7,0,0,1-1.15,1,3.21,3.21,0,0,1-1.49.35,3.51,3.51,0,0,1-1.45-.29,3,3,0,0,1-1.16-.85,4,4,0,0,1-.75-1.36,5.37,5.37,0,0,1-.28-1.81,5.3,5.3,0,0,1,.28-1.79,4.06,4.06,0,0,1,.75-1.36,3.34,3.34,0,0,1,1.15-.86,3.5,3.5,0,0,1,1.46-.3,3.3,3.3,0,0,1,1.46.34,3.24,3.24,0,0,1,1.18,1V43.28h1.78v8.21Zm-2.11-1.38a2.7,2.7,0,0,0,.62-.08,2.81,2.81,0,0,0,.59-.24,2.7,2.7,0,0,0,.51-.35,2,2,0,0,0,.39-.43V45.76a2.57,2.57,0,0,0-.39-.43,2.7,2.7,0,0,0-.51-.35,2.81,2.81,0,0,0-.59-.24,2.27,2.27,0,0,0-.62-.09,2.16,2.16,0,0,0-1,.21,2.1,2.1,0,0,0-.73.56,2.38,2.38,0,0,0-.47.86,3.83,3.83,0,0,0,0,2.19,2.52,2.52,0,0,0,.47.87,2.26,2.26,0,0,0,.73.57A2.3,2.3,0,0,0,299.72,50.11Z" fill="#e52823"/><path d="M308,51.69a2.12,2.12,0,0,1-1.57-.54,2.15,2.15,0,0,1-.54-1.58V40.15h1.79v9a1.2,1.2,0,0,0,.19.7.67.67,0,0,0,.59.28A1.28,1.28,0,0,0,309,50a1,1,0,0,0,.32-.21l.42,1.36a1.93,1.93,0,0,1-.64.37A3.05,3.05,0,0,1,308,51.69Z" fill="#e52823"/><path d="M312.89,51.69a2.12,2.12,0,0,1-1.57-.54,2.15,2.15,0,0,1-.54-1.58V40.15h1.79v9a1.14,1.14,0,0,0,.2.7.65.65,0,0,0,.58.28,1.28,1.28,0,0,0,.48-.09.93.93,0,0,0,.32-.21l.43,1.36a2.1,2.1,0,0,1-.65.37A3.05,3.05,0,0,1,312.89,51.69Z" fill="#e52823"/><path d="M323.77,51.69a4.53,4.53,0,0,1-1.71-.32,4.11,4.11,0,0,1-1.33-.9,4.24,4.24,0,0,1-.88-1.37,4.61,4.61,0,0,1-.31-1.72,4.54,4.54,0,0,1,.31-1.72,4.2,4.2,0,0,1,.88-1.36,3.82,3.82,0,0,1,1.33-.9,4.34,4.34,0,0,1,1.71-.33,4.57,4.57,0,0,1,1.1.12,3.74,3.74,0,0,1,.87.33,3.6,3.6,0,0,1,.67.46,4.45,4.45,0,0,1,.51.56l-1.18,1.07a2.17,2.17,0,0,0-1.88-1,2.31,2.31,0,0,0-1.8.76,2.81,2.81,0,0,0-.68,2,3.46,3.46,0,0,0,.17,1.09,2.4,2.4,0,0,0,1.3,1.44,2.49,2.49,0,0,0,1,.2,2.19,2.19,0,0,0,1.88-1l1.18,1.1a4,4,0,0,1-1.19,1A3.87,3.87,0,0,1,323.77,51.69Z" fill="#e52823"/><path d="M334,51.49V50.4a4.15,4.15,0,0,1-1.18.89,3.48,3.48,0,0,1-1.71.4,2.68,2.68,0,0,1-2-.67,2.64,2.64,0,0,1-.66-1.93V43.28h1.78v5.15a1.64,1.64,0,0,0,.45,1.32,1.91,1.91,0,0,0,1.22.36,2.36,2.36,0,0,0,1.23-.33A2.9,2.9,0,0,0,334,49V43.28h1.79v8.21Z" fill="#e52823"/><path d="M343.92,51.49V50.37a3.7,3.7,0,0,1-1.15,1,3.21,3.21,0,0,1-1.49.35,3.51,3.51,0,0,1-1.45-.29,3.12,3.12,0,0,1-1.16-.85,4,4,0,0,1-.75-1.36,5.37,5.37,0,0,1-.28-1.81,5.3,5.3,0,0,1,.28-1.79,4.06,4.06,0,0,1,.75-1.36,3.44,3.44,0,0,1,1.15-.86,3.5,3.5,0,0,1,1.46-.3,3.3,3.3,0,0,1,1.46.34,3.24,3.24,0,0,1,1.18,1V40.15h1.78V51.49Zm-2.11-1.38a2.7,2.7,0,0,0,.62-.08,2.81,2.81,0,0,0,.59-.24,2.7,2.7,0,0,0,.51-.35,2,2,0,0,0,.39-.43V45.76a2.57,2.57,0,0,0-.39-.43A2.7,2.7,0,0,0,343,45a2.81,2.81,0,0,0-.59-.24,2.27,2.27,0,0,0-.62-.09,2.16,2.16,0,0,0-1,.21,2.1,2.1,0,0,0-.73.56,2.38,2.38,0,0,0-.47.86,3.83,3.83,0,0,0,0,2.19,2.52,2.52,0,0,0,.47.87,2.26,2.26,0,0,0,.73.57A2.3,2.3,0,0,0,341.81,50.11Z" fill="#e52823"/><path d="M353.79,51.49V50.37a3.66,3.66,0,0,1-1.14,1,3.24,3.24,0,0,1-1.49.35,3.48,3.48,0,0,1-1.45-.29,3,3,0,0,1-1.16-.85,4,4,0,0,1-.76-1.36,5.64,5.64,0,0,1-.27-1.81,5.56,5.56,0,0,1,.27-1.79,4.07,4.07,0,0,1,.76-1.36,3.25,3.25,0,0,1,1.15-.86,3.5,3.5,0,0,1,1.46-.3,3.18,3.18,0,0,1,2.63,1.35V40.15h1.79V51.49Zm-2.1-1.38a2.7,2.7,0,0,0,.62-.08,3,3,0,0,0,.59-.24,2.7,2.7,0,0,0,.51-.35,1.92,1.92,0,0,0,.38-.43V45.76a2.5,2.5,0,0,0-.38-.43,2.7,2.7,0,0,0-.51-.35,3,3,0,0,0-.59-.24,2.27,2.27,0,0,0-.62-.09,2.13,2.13,0,0,0-1,.21,2,2,0,0,0-.73.56,2.38,2.38,0,0,0-.47.86,3.83,3.83,0,0,0,0,2.19,2.52,2.52,0,0,0,.47.87,2.16,2.16,0,0,0,.73.57A2.27,2.27,0,0,0,351.69,50.11Z" fill="#e52823"/><path d="M360,51.69a2.11,2.11,0,0,1-1.57-.54,2.15,2.15,0,0,1-.54-1.58V40.15h1.79v9a1.2,1.2,0,0,0,.19.7.67.67,0,0,0,.59.28,1.19,1.19,0,0,0,.47-.09,1,1,0,0,0,.33-.21l.42,1.36a2,2,0,0,1-.64.37A3.09,3.09,0,0,1,360,51.69Z" fill="#e52823"/><path d="M366.56,51.69a4.87,4.87,0,0,1-1.73-.3,3.9,3.9,0,0,1-1.35-.88,4.08,4.08,0,0,1-.9-1.37,4.75,4.75,0,0,1-.32-1.76,4.52,4.52,0,0,1,.31-1.68,4.17,4.17,0,0,1,.85-1.37,4.29,4.29,0,0,1,1.32-.92,4.2,4.2,0,0,1,1.68-.34,4.08,4.08,0,0,1,1.67.33,3.84,3.84,0,0,1,1.28.93,4.08,4.08,0,0,1,.8,1.41,5.42,5.42,0,0,1,.28,1.79V48h-6.32a2.64,2.64,0,0,0,.25.87,2.34,2.34,0,0,0,1.31,1.21,2.87,2.87,0,0,0,1,.18A3.6,3.6,0,0,0,368,50a3,3,0,0,0,1.09-.68l.81,1.18a4.4,4.4,0,0,1-1.49.9A5.59,5.59,0,0,1,366.56,51.69Zm2.18-5a2.67,2.67,0,0,0-.16-.74,2.28,2.28,0,0,0-.43-.69,2.25,2.25,0,0,0-.71-.52,2.28,2.28,0,0,0-1-.2,2.36,2.36,0,0,0-1,.19,2,2,0,0,0-.7.51,2.24,2.24,0,0,0-.44.7,2.32,2.32,0,0,0-.17.75Z" fill="#e52823"/><path d="M372.22,51.49V43.28H374v1.19a3.93,3.93,0,0,1,1.17-1,3,3,0,0,1,1.5-.4v1.77a3,3,0,0,0-.55-.05,2.18,2.18,0,0,0-.6.09,2.64,2.64,0,0,0-.61.23,3,3,0,0,0-.54.36,1.81,1.81,0,0,0-.37.43v5.59Z" fill="#e52823"/><path d="M273.84,72.49V61.15h1.79v4.27a3.24,3.24,0,0,1,1.18-1,3.32,3.32,0,0,1,1.45-.34,3.51,3.51,0,0,1,1.47.3,3.29,3.29,0,0,1,1.16.86,4.07,4.07,0,0,1,.76,1.36,5.56,5.56,0,0,1,.27,1.79,5.64,5.64,0,0,1-.27,1.81,3.83,3.83,0,0,1-.77,1.36,3.12,3.12,0,0,1-1.16.85,3.53,3.53,0,0,1-1.46.29,3.19,3.19,0,0,1-1.47-.35,3.63,3.63,0,0,1-1.16-1v1.12ZM275.63,70a2.36,2.36,0,0,0,.89.78,2.55,2.55,0,0,0,1.23.31,2.07,2.07,0,0,0,1.7-.76,3.05,3.05,0,0,0,.62-2,3.48,3.48,0,0,0-.17-1.1,2.37,2.37,0,0,0-.46-.86,2.18,2.18,0,0,0-1.69-.77,2.47,2.47,0,0,0-1.23.33,2.36,2.36,0,0,0-.89.78Z" fill="#e52823"/><path d="M287.53,72.69a4.87,4.87,0,0,1-1.73-.3,3.9,3.9,0,0,1-2.25-2.25,4.93,4.93,0,0,1,0-3.44,4.19,4.19,0,0,1,.86-1.37,4.29,4.29,0,0,1,1.32-.92,4.2,4.2,0,0,1,1.68-.34,4,4,0,0,1,1.67.34,3.55,3.55,0,0,1,1.27.92,4.1,4.1,0,0,1,.81,1.41,5.42,5.42,0,0,1,.28,1.79V69H285.1a2.62,2.62,0,0,0,.24.87,2.49,2.49,0,0,0,.53.72,2.45,2.45,0,0,0,.79.49,2.84,2.84,0,0,0,1,.18A3.6,3.6,0,0,0,289,71a2.85,2.85,0,0,0,1.08-.68l.82,1.18a4.35,4.35,0,0,1-1.5.9A5.53,5.53,0,0,1,287.53,72.69Zm2.18-5a2.56,2.56,0,0,0-.17-.73,2,2,0,0,0-.42-.7,2.25,2.25,0,0,0-.71-.52,2.71,2.71,0,0,0-2,0,2.19,2.19,0,0,0-.71.51,2.4,2.4,0,0,0-.43.7,2.32,2.32,0,0,0-.17.75Z" fill="#e52823"/><path d="M299,72.49V71.37a3.7,3.7,0,0,1-1.15,1,3.21,3.21,0,0,1-1.49.35,3.51,3.51,0,0,1-1.45-.29,3,3,0,0,1-1.15-.85,3.82,3.82,0,0,1-.76-1.36,5.64,5.64,0,0,1-.27-1.81,5.56,5.56,0,0,1,.27-1.79,3.91,3.91,0,0,1,.76-1.36,3.31,3.31,0,0,1,1.14-.86,3.5,3.5,0,0,1,1.46-.3,3.34,3.34,0,0,1,1.47.34,3.29,3.29,0,0,1,1.17,1V61.15h1.78V72.49Zm-2.11-1.38a2.64,2.64,0,0,0,.62-.08,3.13,3.13,0,0,0,.6-.24,3.54,3.54,0,0,0,.51-.35A1.92,1.92,0,0,0,299,70V66.76a2.5,2.5,0,0,0-.38-.43,3.54,3.54,0,0,0-.51-.35,3.13,3.13,0,0,0-.6-.24,2.21,2.21,0,0,0-.62-.09,2.19,2.19,0,0,0-1.7.77,2.54,2.54,0,0,0-.47.86,3.83,3.83,0,0,0,0,2.19,2.69,2.69,0,0,0,.47.87,2.37,2.37,0,0,0,.73.57A2.34,2.34,0,0,0,296.86,71.11Z" fill="#e52823"/><path d="M305.89,72.69a5.66,5.66,0,0,1-2-.33,4.32,4.32,0,0,1-1.55-1l.82-1.27a4,4,0,0,0,.52.42,4.4,4.4,0,0,0,.68.37,5.07,5.07,0,0,0,.78.25,3.55,3.55,0,0,0,.79.09,2.06,2.06,0,0,0,1.22-.29,1,1,0,0,0,.41-.79.66.66,0,0,0-.37-.62,4.47,4.47,0,0,0-.91-.34l-1.2-.27a4.72,4.72,0,0,1-1.2-.41,2.55,2.55,0,0,1-.92-.73,2,2,0,0,1-.37-1.25,2.28,2.28,0,0,1,.84-1.76,3.11,3.11,0,0,1,1-.53,4.46,4.46,0,0,1,1.38-.2,4.78,4.78,0,0,1,1.85.33,4.26,4.26,0,0,1,1.33.81l-.74,1.26a3.21,3.21,0,0,0-1-.7,3.4,3.4,0,0,0-1.42-.29,1.9,1.9,0,0,0-1.11.29.88.88,0,0,0-.4.73.59.59,0,0,0,.37.55,4,4,0,0,0,.91.31l1.2.27a5.18,5.18,0,0,1,1.2.43,2.55,2.55,0,0,1,.92.77,2.11,2.11,0,0,1,.37,1.3,2.38,2.38,0,0,1-.23,1,2.11,2.11,0,0,1-.65.81,3.26,3.26,0,0,1-1.07.54A5.09,5.09,0,0,1,305.89,72.69Z" fill="#e52823"/><path d="M318.89,72.66a6.53,6.53,0,0,1-2.3-.57,6,6,0,0,1-1.66-1.18l1.12-1.55a5.38,5.38,0,0,0,1.2,1,4.38,4.38,0,0,0,1.64.57v-3.3c-.44-.12-.87-.25-1.3-.39a4.73,4.73,0,0,1-1.14-.59,2.93,2.93,0,0,1-.83-.92,2.78,2.78,0,0,1-.31-1.39,3,3,0,0,1,.25-1.22,3.23,3.23,0,0,1,.72-1,3.64,3.64,0,0,1,1.13-.72,4.65,4.65,0,0,1,1.48-.35V59.43h1.36V61a6.33,6.33,0,0,1,1.9.51,5.33,5.33,0,0,1,1.52,1L322.55,64a4,4,0,0,0-1.08-.78,5.37,5.37,0,0,0-1.22-.43v2.94c.45.12.89.25,1.33.4a4.41,4.41,0,0,1,1.18.62,2.92,2.92,0,0,1,.85,1,2.81,2.81,0,0,1,.33,1.42,3.45,3.45,0,0,1-.22,1.24,3.21,3.21,0,0,1-.67,1.08,3.64,3.64,0,0,1-1.15.78,5.41,5.41,0,0,1-1.65.39v1.53h-1.36Zm-1.54-8.5a.88.88,0,0,0,.43.78,4.11,4.11,0,0,0,1.11.49V62.76a2,2,0,0,0-1.13.46A1.19,1.19,0,0,0,317.35,64.16Zm4.55,5.2a1,1,0,0,0-.47-.89,4.48,4.48,0,0,0-1.18-.54v3a2,2,0,0,0,1.27-.59A1.45,1.45,0,0,0,321.9,69.36Z" fill="#e52823"/><path d="M326.66,72.49,331,62.92h-5.89V61.15h8.18v1.38l-4.38,10Z" fill="#e52823"/><path d="M334.13,72.68a1.16,1.16,0,0,1-.85-.36,1.18,1.18,0,0,1-.34-.85,1.15,1.15,0,0,1,.34-.83,1.22,1.22,0,0,1,1.69,0,1.16,1.16,0,0,1,.35.83,1.19,1.19,0,0,1-.35.85A1.15,1.15,0,0,1,334.13,72.68Z" fill="#e52823"/><path d="M340.74,72.68a4.74,4.74,0,0,1-1.88-.35,4.85,4.85,0,0,1-1.39-.91l.94-1.52a3.13,3.13,0,0,0,1,.74,3,3,0,0,0,1.35.27,2.6,2.6,0,0,0,1.33-.33,2.73,2.73,0,0,0,.94-.85,3.91,3.91,0,0,0,.54-1.19,5.31,5.31,0,0,0,.18-1.37V67a1.11,1.11,0,0,0,0-.17,2.38,2.38,0,0,1-.5.57,4.06,4.06,0,0,1-.7.51,3.65,3.65,0,0,1-1.84.51,4.63,4.63,0,0,1-1.45-.23,3.7,3.7,0,0,1-1.21-.69,3.22,3.22,0,0,1-.82-1.15,3.79,3.79,0,0,1-.31-1.59,3.73,3.73,0,0,1,.3-1.48,3.66,3.66,0,0,1,.84-1.21,3.84,3.84,0,0,1,1.32-.82,4.7,4.7,0,0,1,1.72-.3,4.53,4.53,0,0,1,2.13.47,4,4,0,0,1,1.46,1.28,5.48,5.48,0,0,1,.82,1.87,9,9,0,0,1,.27,2.23,7.8,7.8,0,0,1-.33,2.3,5.46,5.46,0,0,1-1,1.86,4.66,4.66,0,0,1-1.56,1.25A5,5,0,0,1,340.74,72.68Zm.47-6a2.86,2.86,0,0,0,1.39-.37,3.33,3.33,0,0,0,1.1-1,5.28,5.28,0,0,0-.21-.92,2.57,2.57,0,0,0-.45-.85,2.24,2.24,0,0,0-1.88-.88,2.48,2.48,0,0,0-1,.18,2.28,2.28,0,0,0-.72.46A1.85,1.85,0,0,0,339,64a1.74,1.74,0,0,0-.14.69,2.11,2.11,0,0,0,.18.91,1.77,1.77,0,0,0,.51.63,2.19,2.19,0,0,0,.75.37A3.22,3.22,0,0,0,341.21,66.73Z" fill="#e52823"/><path d="M351,72.68a4.71,4.71,0,0,1-1.88-.35,4.85,4.85,0,0,1-1.39-.91l.94-1.52a3.21,3.21,0,0,0,1,.74,3,3,0,0,0,1.36.27,2.67,2.67,0,0,0,2.26-1.18,3.71,3.71,0,0,0,.55-1.19,5.31,5.31,0,0,0,.18-1.37V67a1.11,1.11,0,0,0,0-.17,2.38,2.38,0,0,1-.5.57,4.14,4.14,0,0,1-.71.51,3.33,3.33,0,0,1-.86.37,3.45,3.45,0,0,1-1,.14,4.7,4.7,0,0,1-1.46-.23,3.56,3.56,0,0,1-1.2-.69,3.37,3.37,0,0,1-.83-1.15,4,4,0,0,1-.3-1.59,3.9,3.9,0,0,1,.29-1.48,3.66,3.66,0,0,1,.84-1.21,4,4,0,0,1,1.32-.82,4.76,4.76,0,0,1,1.73-.3,4.53,4.53,0,0,1,2.13.47,4,4,0,0,1,1.46,1.28,5.68,5.68,0,0,1,.82,1.87,9,9,0,0,1,.26,2.23,7.8,7.8,0,0,1-.32,2.3,5.64,5.64,0,0,1-.95,1.86,4.6,4.6,0,0,1-1.57,1.25A4.89,4.89,0,0,1,351,72.68Zm.47-6a2.86,2.86,0,0,0,1.39-.37,3.3,3.3,0,0,0,1.09-1,4.47,4.47,0,0,0-.2-.92,2.57,2.57,0,0,0-.45-.85,2.23,2.23,0,0,0-.76-.63,2.26,2.26,0,0,0-1.12-.25,2.57,2.57,0,0,0-1,.18,2.23,2.23,0,0,0-.71.46,1.72,1.72,0,0,0-.43.64,1.75,1.75,0,0,0-.15.69,2,2,0,0,0,.19.91,1.58,1.58,0,0,0,.51.63,2,2,0,0,0,.75.37A3.17,3.17,0,0,0,351.43,66.73Z" fill="#e52823"/></g></g></svg>