<svg xmlns="http://www.w3.org/2000/svg" viewBox="0 0 160 600"><g id="Layer_2" data-name="Layer 2"><g id="rec"><rect width="160" height="600" fill="none"/></g><g id="sbhd"><path d="M12.62,228.65V217.31H18.2a3.91,3.91,0,0,1,1.38.23,3,3,0,0,1,1,.62,2.77,2.77,0,0,1,.62.92,3,3,0,0,1,.21,1.12,3,3,0,0,1-.16,1,2.76,2.76,0,0,1-.44.77,2.55,2.55,0,0,1-.63.55,2.06,2.06,0,0,1-.74.3,2.2,2.2,0,0,1,.85.32,2.58,2.58,0,0,1,.7.62,2.81,2.81,0,0,1,.47.85,3,3,0,0,1,.17,1,3.53,3.53,0,0,1-.21,1.23,2.63,2.63,0,0,1-.63,1,2.83,2.83,0,0,1-1,.65,4.15,4.15,0,0,1-1.42.23ZM17.81,222a1.58,1.58,0,0,0,1.17-.4,1.42,1.42,0,0,0,.41-1,1.43,1.43,0,0,0-.41-1,1.59,1.59,0,0,0-1.17-.41h-3.2V222Zm.08,4.91a1.78,1.78,0,0,0,1.27-.41,1.5,1.5,0,0,0,.45-1.16,1.61,1.61,0,0,0-.43-1.11,1.68,1.68,0,0,0-1.29-.46H14.61v3.14Z" fill="#e52823"/><path d="M25.71,228.86a1.91,1.91,0,0,1-2.11-2.13v-9.42h1.79v9a1.18,1.18,0,0,0,.19.7.67.67,0,0,0,.59.28,1.28,1.28,0,0,0,.48-.09A.89.89,0,0,0,27,227l.42,1.36a1.77,1.77,0,0,1-.64.37A3,3,0,0,1,25.71,228.86Z" fill="#e52823"/><path d="M34,228.65v-1.09a4.52,4.52,0,0,1-1.18.9,3.66,3.66,0,0,1-1.71.4,2.66,2.66,0,0,1-2-.68,2.63,2.63,0,0,1-.66-1.93v-5.81h1.78v5.15a1.61,1.61,0,0,0,.45,1.32,1.91,1.91,0,0,0,1.22.36,2.36,2.36,0,0,0,1.23-.33,2.88,2.88,0,0,0,.86-.74v-5.76h1.78v8.21Z" fill="#e52823"/><path d="M41.91,228.86a4.78,4.78,0,0,1-1.72-.31,3.8,3.8,0,0,1-1.36-.88,4.14,4.14,0,0,1-.9-1.36,4.84,4.84,0,0,1-.32-1.77,4.52,4.52,0,0,1,.31-1.68,4.13,4.13,0,0,1,.86-1.37,4,4,0,0,1,1.31-.91,4.36,4.36,0,0,1,3.35,0,3.71,3.71,0,0,1,1.28.92,4.21,4.21,0,0,1,.81,1.42,5.58,5.58,0,0,1,.28,1.78v.44H39.48a2.82,2.82,0,0,0,.25.87,2.32,2.32,0,0,0,.53.72,2.2,2.2,0,0,0,.79.49,2.78,2.78,0,0,0,1,.18,3.82,3.82,0,0,0,1.26-.23,3.1,3.1,0,0,0,1.09-.68l.81,1.17a4,4,0,0,1-1.49.9A5.59,5.59,0,0,1,41.91,228.86Zm2.18-5a2.52,2.52,0,0,0-.16-.74,2.24,2.24,0,0,0-1.13-1.22,2.5,2.5,0,0,0-1-.2,2.4,2.4,0,0,0-1,.19,2.15,2.15,0,0,0-.7.51,2.58,2.58,0,0,0-.44.7,2.68,2.68,0,0,0-.17.76Z" fill="#e52823"/><path d="M52,228.65V217.31h5.58a3.91,3.91,0,0,1,1.38.23,2.92,2.92,0,0,1,1,.62,2.5,2.5,0,0,1,.62.92,3,3,0,0,1,.22,1.12,2.78,2.78,0,0,1-.17,1,2.51,2.51,0,0,1-.43.77,2.55,2.55,0,0,1-.63.55,2.19,2.19,0,0,1-.75.3,2.18,2.18,0,0,1,.86.32,2.58,2.58,0,0,1,.7.62,3,3,0,0,1,.64,1.84,3.32,3.32,0,0,1-.22,1.23,2.73,2.73,0,0,1-.62,1,2.83,2.83,0,0,1-1,.65,4.19,4.19,0,0,1-1.42.23ZM57.2,222a1.6,1.6,0,0,0,1.17-.4,1.42,1.42,0,0,0,.41-1,1.43,1.43,0,0,0-.41-1,1.6,1.6,0,0,0-1.17-.41H54V222Zm.08,4.91a1.8,1.8,0,0,0,1.27-.41,1.5,1.5,0,0,0,.45-1.16,1.57,1.57,0,0,0-.44-1.11,1.66,1.66,0,0,0-1.28-.46H54v3.14Z" fill="#e52823"/><path d="M68.53,228.65v-1.09a4.21,4.21,0,0,1-1.18.9,3.6,3.6,0,0,1-1.71.4,2.69,2.69,0,0,1-2-.68,2.63,2.63,0,0,1-.66-1.93v-5.81h1.79v5.15a1.61,1.61,0,0,0,.45,1.32,1.88,1.88,0,0,0,1.21.36,2.37,2.37,0,0,0,1.24-.33,2.84,2.84,0,0,0,.85-.74v-5.76h1.79v8.21Z" fill="#e52823"/><path d="M73.07,228.65V222H71.71v-1.55h1.36V220a2.89,2.89,0,0,1,.73-2.11,2.56,2.56,0,0,1,1.86-.73,2.9,2.9,0,0,1,1.44.31l-.39,1.34a1.32,1.32,0,0,0-.71-.19,1.05,1.05,0,0,0-.84.34,1.56,1.56,0,0,0-.3,1v.46h1.66V222H74.86v6.66Z" fill="#e52823"/><path d="M78.33,228.65V222H77v-1.55h1.36V220a2.85,2.85,0,0,1,.73-2.11,2.52,2.52,0,0,1,1.85-.73,2.9,2.9,0,0,1,1.44.31L82,218.79a1.32,1.32,0,0,0-.71-.19,1.08,1.08,0,0,0-.84.34,1.56,1.56,0,0,0-.3,1v.46h1.67V222H80.11v6.66Z" fill="#e52823"/><path d="M88.92,228.65v-1.12a3.57,3.57,0,0,1-1.15,1,3.1,3.1,0,0,1-1.49.36,3.68,3.68,0,0,1-1.45-.29,3.26,3.26,0,0,1-1.16-.85,4.16,4.16,0,0,1-.75-1.36,5.43,5.43,0,0,1-.28-1.82,5.34,5.34,0,0,1,.28-1.79,4.16,4.16,0,0,1,.75-1.36,3.34,3.34,0,0,1,1.15-.86,3.66,3.66,0,0,1,1.46-.29,3.17,3.17,0,0,1,1.46.34,3.21,3.21,0,0,1,1.18,1v-1.14H90.7v8.21Zm-2.11-1.38a2.25,2.25,0,0,0,.62-.08A2.81,2.81,0,0,0,88,227a2.7,2.7,0,0,0,.51-.35,2,2,0,0,0,.39-.43v-3.25a2.53,2.53,0,0,0-.39-.42,2.34,2.34,0,0,0-.51-.36,2.81,2.81,0,0,0-.59-.24,2.7,2.7,0,0,0-.62-.08,2.3,2.3,0,0,0-1,.2,2.23,2.23,0,0,0-.73.56,2.47,2.47,0,0,0-.47.86,3.52,3.52,0,0,0-.16,1.1,3.46,3.46,0,0,0,.16,1.09,2.43,2.43,0,0,0,.47.87,2.26,2.26,0,0,0,.73.57A2.16,2.16,0,0,0,86.81,227.27Z" fill="#e52823"/><path d="M95.12,228.86A1.91,1.91,0,0,1,93,226.73v-9.42H94.8v9a1.18,1.18,0,0,0,.19.7.67.67,0,0,0,.59.28,1.28,1.28,0,0,0,.48-.09.89.89,0,0,0,.32-.21l.42,1.36a1.77,1.77,0,0,1-.64.37A3,3,0,0,1,95.12,228.86Z" fill="#e52823"/><path d="M101.6,228.86a4.33,4.33,0,0,1-1.77-.35,4.27,4.27,0,0,1-1.33-.94,4.06,4.06,0,0,1-.83-1.37,4.79,4.79,0,0,1-.29-1.66,4.84,4.84,0,0,1,.29-1.67,4.06,4.06,0,0,1,.83-1.37,3.91,3.91,0,0,1,1.33-.92,4.78,4.78,0,0,1,3.54,0,3.78,3.78,0,0,1,1.32.92,4.25,4.25,0,0,1,.84,1.37,4.84,4.84,0,0,1,.28,1.67,4.78,4.78,0,0,1-.28,1.66,4.25,4.25,0,0,1-.84,1.37,4.11,4.11,0,0,1-1.32.94A4.37,4.37,0,0,1,101.6,228.86Zm0-1.59a2.25,2.25,0,0,0,1-.22,2.13,2.13,0,0,0,.74-.59,2.53,2.53,0,0,0,.45-.88,3.58,3.58,0,0,0,.15-1,3.53,3.53,0,0,0-.15-1,2.57,2.57,0,0,0-.45-.87,2.18,2.18,0,0,0-1.76-.81,2.14,2.14,0,0,0-1,.22,2.19,2.19,0,0,0-.75.59,2.42,2.42,0,0,0-.46.87,3.53,3.53,0,0,0-.15,1,3.58,3.58,0,0,0,.15,1,2.39,2.39,0,0,0,.46.88,2.07,2.07,0,0,0,.75.59A2.14,2.14,0,0,0,101.6,227.27Z" fill="#e52823"/><path d="M111,218.38a2.08,2.08,0,0,1-.17.82,2.16,2.16,0,0,1-.44.67,2.07,2.07,0,0,1-1.49.61,2,2,0,0,1-.82-.16,2.08,2.08,0,0,1-.67-.45,2.19,2.19,0,0,1-.45-.67,2.1,2.1,0,0,1,1.12-2.76,2,2,0,0,1,.82-.16,2.11,2.11,0,0,1,2.1,2.1Zm-.3,0a1.87,1.87,0,0,0-.14-.71,1.61,1.61,0,0,0-.39-.57,1.77,1.77,0,0,0-.58-.38,1.82,1.82,0,0,0-1.4,0,1.73,1.73,0,0,0-.57.38,1.61,1.61,0,0,0-.39.57,1.87,1.87,0,0,0-.14.71,1.76,1.76,0,0,0,.53,1.27,1.73,1.73,0,0,0,.57.38,1.71,1.71,0,0,0,1.4,0,1.77,1.77,0,0,0,.58-.38,1.76,1.76,0,0,0,.53-1.27Zm-1.23,1.21-.63-1h-.42v1h-.33v-2.41h1a.82.82,0,0,1,.54.2.66.66,0,0,1,.24.54.67.67,0,0,1-.08.33.63.63,0,0,1-.39.34.45.45,0,0,1-.16,0l.65,1Zm0-1.67a.44.44,0,0,0-.44-.45h-.65v.87h.65a.44.44,0,0,0,.3-.12A.39.39,0,0,0,109.54,217.92Z" fill="#e52823"/><path d="M12.49,249.65V238.31h2v9.57h5v1.77Z" fill="#e52823"/><path d="M22.07,240.44a1.11,1.11,0,0,1-1.1-1.11,1.11,1.11,0,1,1,2.21,0,1.11,1.11,0,0,1-1.11,1.11Zm-.9,9.21v-8.21H23v8.21Z" fill="#e52823"/><path d="M25.71,249.65V243H24.35v-1.55h1.36V241a2.89,2.89,0,0,1,.73-2.11,2.56,2.56,0,0,1,1.86-.73,2.9,2.9,0,0,1,1.44.31l-.39,1.34a1.32,1.32,0,0,0-.71-.19,1.05,1.05,0,0,0-.84.34,1.56,1.56,0,0,0-.3,1v.46h1.66V243H27.5v6.66Z" fill="#e52823"/><path d="M34.33,249.86a4.78,4.78,0,0,1-1.72-.31,3.8,3.8,0,0,1-1.36-.88,4.14,4.14,0,0,1-.9-1.36,4.84,4.84,0,0,1-.32-1.77,4.52,4.52,0,0,1,.31-1.68,4.13,4.13,0,0,1,.86-1.37,4,4,0,0,1,1.31-.91,4.36,4.36,0,0,1,3.35,0,3.81,3.81,0,0,1,1.28.92,4,4,0,0,1,.8,1.42,5.32,5.32,0,0,1,.28,1.78v.44H31.9a2.57,2.57,0,0,0,.25.87,2.45,2.45,0,0,0,.52.72,2.29,2.29,0,0,0,.79.49,2.87,2.87,0,0,0,1,.18,3.82,3.82,0,0,0,1.26-.23,3.1,3.1,0,0,0,1.09-.68l.81,1.17a4,4,0,0,1-1.49.9A5.59,5.59,0,0,1,34.33,249.86Zm2.18-5a2.52,2.52,0,0,0-.16-.74,2.21,2.21,0,0,0-.43-.7,2.33,2.33,0,0,0-.7-.52,2.5,2.5,0,0,0-1-.2,2.36,2.36,0,0,0-1,.19,2,2,0,0,0-.7.51,2.58,2.58,0,0,0-.44.7,2.37,2.37,0,0,0-.17.76Z" fill="#e52823"/><path d="M44.43,249.65V238.31h5a4.27,4.27,0,0,1,1.57.28,3.27,3.27,0,0,1,1.16.77,3.12,3.12,0,0,1,.72,1.13,4,4,0,0,1,0,2.74A3.19,3.19,0,0,1,51,245.12a4.07,4.07,0,0,1-1.57.28h-3v4.25Zm4.73-6a2,2,0,0,0,1.38-.48,1.63,1.63,0,0,0,.54-1.28,1.66,1.66,0,0,0-.54-1.3,2,2,0,0,0-1.38-.49H46.42v3.55Z" fill="#e52823"/><path d="M54.73,249.65v-8.21h1.79v1.19a3.76,3.76,0,0,1,1.17-1,2.9,2.9,0,0,1,1.49-.4V243a2.76,2.76,0,0,0-.54-.05,2.18,2.18,0,0,0-.6.09,2.67,2.67,0,0,0-.61.24,3,3,0,0,0-.54.35,1.81,1.81,0,0,0-.37.43v5.59Z" fill="#e52823"/><path d="M64.35,249.86a4.4,4.4,0,0,1-1.77-.35,4.11,4.11,0,0,1-1.32-.94,4.06,4.06,0,0,1-.83-1.37,4.57,4.57,0,0,1-.29-1.66,4.62,4.62,0,0,1,.29-1.67,4.06,4.06,0,0,1,.83-1.37,3.78,3.78,0,0,1,1.32-.92,4.4,4.4,0,0,1,1.77-.34,4.33,4.33,0,0,1,1.77.34,3.91,3.91,0,0,1,1.33.92,4.06,4.06,0,0,1,.83,1.37,4.84,4.84,0,0,1,.29,1.67,4.79,4.79,0,0,1-.29,1.66,4.06,4.06,0,0,1-.83,1.37,4.27,4.27,0,0,1-1.33.94A4.33,4.33,0,0,1,64.35,249.86Zm0-1.59a2.19,2.19,0,0,0,1-.22,2,2,0,0,0,.74-.59,2.53,2.53,0,0,0,.45-.88,3.59,3.59,0,0,0,.16-1,3.54,3.54,0,0,0-.16-1,2.57,2.57,0,0,0-.45-.87,2.15,2.15,0,0,0-.74-.59,2.19,2.19,0,0,0-1-.22,2.16,2.16,0,0,0-1,.22,2.29,2.29,0,0,0-.75.59,2.59,2.59,0,0,0-.46.87,3.53,3.53,0,0,0-.15,1,3.58,3.58,0,0,0,.15,1,2.54,2.54,0,0,0,.46.88,2.22,2.22,0,0,0,1.75.81Z" fill="#e52823"/><path d="M72.87,249.86a2.12,2.12,0,0,1-1.58-.55,2.19,2.19,0,0,1-.53-1.58V243H69.4v-1.55h1.36V239.2h1.79v2.24h1.66V243H72.55v4.3a1.18,1.18,0,0,0,.19.7.67.67,0,0,0,.59.28,1.23,1.23,0,0,0,.47-.09.84.84,0,0,0,.31-.21l.43,1.36a1.91,1.91,0,0,1-.65.37A3,3,0,0,1,72.87,249.86Z" fill="#e52823"/><path d="M79.62,249.86a4.88,4.88,0,0,1-1.73-.31,3.89,3.89,0,0,1-1.36-.88,4.12,4.12,0,0,1-.89-1.36,4.84,4.84,0,0,1-.32-1.77,4.72,4.72,0,0,1,.3-1.68,4.3,4.3,0,0,1,.86-1.37,4.1,4.1,0,0,1,1.32-.91,4,4,0,0,1,1.68-.34,4.11,4.11,0,0,1,1.67.33,3.67,3.67,0,0,1,1.27.92,4.05,4.05,0,0,1,.81,1.42,5.32,5.32,0,0,1,.28,1.78v.44H77.19a2.56,2.56,0,0,0,.24.87,2.49,2.49,0,0,0,.53.72,2.29,2.29,0,0,0,.79.49,2.84,2.84,0,0,0,1,.18,3.82,3.82,0,0,0,1.26-.23,3,3,0,0,0,1.08-.68l.82,1.17a4.07,4.07,0,0,1-1.5.9A5.54,5.54,0,0,1,79.62,249.86Zm2.17-5a2.24,2.24,0,0,0-.16-.74,2,2,0,0,0-.42-.7,2.25,2.25,0,0,0-.71-.52,2.46,2.46,0,0,0-1-.2,2.33,2.33,0,0,0-1,.19,2.19,2.19,0,0,0-.71.51,2.54,2.54,0,0,0-.43.7,2.37,2.37,0,0,0-.17.76Z" fill="#e52823"/><path d="M89,249.86a4.34,4.34,0,0,1-1.71-.33,3.73,3.73,0,0,1-1.33-.9,4,4,0,0,1-.88-1.37,4.93,4.93,0,0,1,0-3.44,4.14,4.14,0,0,1,.88-1.36,3.86,3.86,0,0,1,1.33-.9,4.34,4.34,0,0,1,1.71-.32,4.63,4.63,0,0,1,1.1.12,3.13,3.13,0,0,1,.86.32,2.77,2.77,0,0,1,.67.47,3.26,3.26,0,0,1,.51.55L91,243.77a2.17,2.17,0,0,0-1.89-1,2.33,2.33,0,0,0-1.8.75,2.86,2.86,0,0,0-.68,2,3.2,3.2,0,0,0,.18,1.09,2.5,2.5,0,0,0,.51.87,2.46,2.46,0,0,0,.78.57,2.37,2.37,0,0,0,1,.2,2.17,2.17,0,0,0,1.89-1l1.17,1.1a3.88,3.88,0,0,1-1.19,1A3.73,3.73,0,0,1,89,249.86Z" fill="#e52823"/><path d="M96.23,249.86a2.1,2.1,0,0,1-1.58-.55,2.14,2.14,0,0,1-.53-1.58V243H92.76v-1.55h1.36V239.2H95.9v2.24h1.67V243H95.9v4.3a1.18,1.18,0,0,0,.2.7.67.67,0,0,0,.59.28,1.14,1.14,0,0,0,.46-.09.89.89,0,0,0,.32-.21l.42,1.36a1.86,1.86,0,0,1-.64.37A3,3,0,0,1,96.23,249.86Z" fill="#e52823"/><path d="M100.07,240.44A1.13,1.13,0,0,1,99,239.33a1.11,1.11,0,0,1,1.11-1.1,1.08,1.08,0,0,1,.78.32,1.06,1.06,0,0,1,.32.78,1,1,0,0,1-.32.78A1.05,1.05,0,0,1,100.07,240.44Zm-.9,9.21v-8.21H101v8.21Z" fill="#e52823"/><path d="M107,249.86a4.33,4.33,0,0,1-1.77-.35,4.27,4.27,0,0,1-1.33-.94,4.06,4.06,0,0,1-.83-1.37,4.79,4.79,0,0,1-.29-1.66,4.84,4.84,0,0,1,.29-1.67,4.06,4.06,0,0,1,.83-1.37,3.91,3.91,0,0,1,1.33-.92,4.78,4.78,0,0,1,3.54,0,3.78,3.78,0,0,1,1.32.92,4.08,4.08,0,0,1,.84,1.37,4.84,4.84,0,0,1,.28,1.67,4.78,4.78,0,0,1-.28,1.66,4,4,0,0,1-2.16,2.31A4.37,4.37,0,0,1,107,249.86Zm0-1.59a2.25,2.25,0,0,0,1-.22,2.13,2.13,0,0,0,.74-.59,2.53,2.53,0,0,0,.45-.88,3.58,3.58,0,0,0,.15-1,3.53,3.53,0,0,0-.15-1,2.57,2.57,0,0,0-.45-.87,2.18,2.18,0,0,0-1.76-.81,2.14,2.14,0,0,0-1,.22,2.19,2.19,0,0,0-.75.59,2.42,2.42,0,0,0-.46.87,3.54,3.54,0,0,0-.16,1,3.59,3.59,0,0,0,.16,1,2.39,2.39,0,0,0,.46.88,2.07,2.07,0,0,0,.75.59A2.14,2.14,0,0,0,107,248.27Z" fill="#e52823"/><path d="M118.58,249.65v-5.13a1.66,1.66,0,0,0-.45-1.34,1.88,1.88,0,0,0-1.21-.36,2.29,2.29,0,0,0-1.24.34,3.09,3.09,0,0,0-.87.75v5.74H113v-8.21h1.79v1.11a3.3,3.3,0,0,1,.5-.48,3.66,3.66,0,0,1,1.48-.72,3.46,3.46,0,0,1,.92-.11,2.37,2.37,0,0,1,2.66,2.63v5.78Z" fill="#e52823"/><path d="M12.62,270.65V259.31h7.77v1.77H14.61V264h5.66v1.77H14.61v4.91Z" fill="#e52823"/><path d="M25.87,270.86a4.33,4.33,0,0,1-1.77-.35,4.15,4.15,0,0,1-1.33-.94,4.06,4.06,0,0,1-.83-1.37,4.79,4.79,0,0,1-.29-1.66,4.84,4.84,0,0,1,.29-1.67,4.06,4.06,0,0,1,.83-1.37,3.82,3.82,0,0,1,1.33-.92,4.75,4.75,0,0,1,3.53,0,3.82,3.82,0,0,1,1.33.92,4.06,4.06,0,0,1,.83,1.37,4.84,4.84,0,0,1,.29,1.67,4.79,4.79,0,0,1-.29,1.66,4.06,4.06,0,0,1-.83,1.37,4.15,4.15,0,0,1-1.33.94A4.32,4.32,0,0,1,25.87,270.86Zm0-1.59a2.25,2.25,0,0,0,1-.22,2,2,0,0,0,.73-.59,2.73,2.73,0,0,0,.46-.88,3.58,3.58,0,0,0,.15-1,3.53,3.53,0,0,0-.15-1,2.78,2.78,0,0,0-.46-.87,2.11,2.11,0,0,0-.73-.59,2.25,2.25,0,0,0-1-.22,2.21,2.21,0,0,0-1,.22,2.39,2.39,0,0,0-.75.59,2.57,2.57,0,0,0-.45.87,3.24,3.24,0,0,0-.16,1,3.28,3.28,0,0,0,.16,1,2.53,2.53,0,0,0,.45.88,2.26,2.26,0,0,0,.75.59A2.21,2.21,0,0,0,25.87,269.27Z" fill="#e52823"/><path d="M31.9,270.65v-8.21h1.78v1.19a3.92,3.92,0,0,1,1.18-1,2.9,2.9,0,0,1,1.49-.4V264a2.84,2.84,0,0,0-.54-.05,2.18,2.18,0,0,0-.6.09,2.94,2.94,0,0,0-.62.24,3.24,3.24,0,0,0-.53.35,2.13,2.13,0,0,0-.38.43v5.59Z" fill="#e52823"/><path d="M47.88,270.65V265.3a1.74,1.74,0,0,0-.31-1.07,1.22,1.22,0,0,0-1-.41,1.94,1.94,0,0,0-1.11.34,2.49,2.49,0,0,0-.79.75v5.74H42.83V265.3a1.68,1.68,0,0,0-.31-1.07,1.18,1.18,0,0,0-1-.41,1.87,1.87,0,0,0-1.11.35,3.39,3.39,0,0,0-.8.74v5.74H37.8v-8.21h1.78v1.11a2.42,2.42,0,0,1,.39-.42,3.37,3.37,0,0,1,.62-.43,4.57,4.57,0,0,1,.78-.33,2.92,2.92,0,0,1,.9-.13,2.49,2.49,0,0,1,1.48.41,2.07,2.07,0,0,1,.76,1.08,3.58,3.58,0,0,1,.45-.54,4.09,4.09,0,0,1,.65-.49,3.85,3.85,0,0,1,.8-.34,3.35,3.35,0,0,1,.89-.12,2.35,2.35,0,0,1,1.74.61,2.5,2.5,0,0,1,.62,1.87v5.93Z" fill="#e52823"/><path d="M57.52,270.65v-1.09a4.52,4.52,0,0,1-1.18.9,3.63,3.63,0,0,1-1.71.4,2.66,2.66,0,0,1-2-.68,2.63,2.63,0,0,1-.66-1.93v-5.81h1.78v5.15a1.61,1.61,0,0,0,.45,1.32,1.91,1.91,0,0,0,1.22.36,2.36,2.36,0,0,0,1.23-.33,2.76,2.76,0,0,0,.86-.74v-5.76H59.3v8.21Z" fill="#e52823"/><path d="M63.72,270.86a1.89,1.89,0,0,1-2.1-2.13v-9.42H63.4v9a1.18,1.18,0,0,0,.2.7.65.65,0,0,0,.58.28,1.28,1.28,0,0,0,.48-.09A.81.81,0,0,0,65,269l.43,1.36a1.91,1.91,0,0,1-.65.37A3,3,0,0,1,63.72,270.86Z" fill="#e52823"/><path d="M72.26,270.65v-1.12a3.57,3.57,0,0,1-1.15,1,3.1,3.1,0,0,1-1.49.36,3.68,3.68,0,0,1-1.45-.29,3.35,3.35,0,0,1-1.16-.85,4.16,4.16,0,0,1-.75-1.36,5.7,5.7,0,0,1-.28-1.82,5.6,5.6,0,0,1,.28-1.79,4.16,4.16,0,0,1,.75-1.36,3.44,3.44,0,0,1,1.15-.86,3.66,3.66,0,0,1,1.46-.29,3.17,3.17,0,0,1,1.46.34,3.21,3.21,0,0,1,1.18,1v-1.14H74v8.21Zm-2.11-1.38a2.25,2.25,0,0,0,.62-.08,3.13,3.13,0,0,0,.6-.24,3.54,3.54,0,0,0,.51-.35,1.92,1.92,0,0,0,.38-.43v-3.25a2.45,2.45,0,0,0-.38-.42,3,3,0,0,0-.51-.36,3.13,3.13,0,0,0-.6-.24,2.7,2.7,0,0,0-.62-.08,2.3,2.3,0,0,0-1,.2,2.23,2.23,0,0,0-.73.56,2.64,2.64,0,0,0-.47.86,3.52,3.52,0,0,0-.16,1.1,3.46,3.46,0,0,0,.16,1.09,2.59,2.59,0,0,0,.47.87,2.26,2.26,0,0,0,.73.57A2.16,2.16,0,0,0,70.15,269.27Z" fill="#e52823"/><path d="M78.56,270a3.27,3.27,0,0,1-.43,1.64A3.76,3.76,0,0,1,77,272.91l-.81-.66a2.6,2.6,0,0,0,.41-.31,2.83,2.83,0,0,0,.37-.4,3,3,0,0,0,.29-.44,1.33,1.33,0,0,0,.15-.45l-.12,0H77.1a.94.94,0,0,1-.71-.3,1.19,1.19,0,0,1,0-1.6,1.1,1.1,0,0,1,.83-.34,1.21,1.21,0,0,1,.91.4A1.57,1.57,0,0,1,78.56,270Z" fill="#e52823"/><path d="M88.44,270.86a5.8,5.8,0,0,1-2.6-.54,4.74,4.74,0,0,1-1.68-1.3l1.09-1.31a3.68,3.68,0,0,0,1.37,1,4.23,4.23,0,0,0,1.75.37,2.82,2.82,0,0,0,1.75-.48,1.51,1.51,0,0,0,.62-1.26,1.34,1.34,0,0,0-.65-1.23,3.76,3.76,0,0,0-1.87-.38h-.76l-.53,0V264h1.29a5.49,5.49,0,0,0,.94-.08,2.41,2.41,0,0,0,.73-.27,1.51,1.51,0,0,0,.5-.47,1.22,1.22,0,0,0,.18-.67,1.28,1.28,0,0,0-.18-.68,1.47,1.47,0,0,0-.5-.49,2.43,2.43,0,0,0-.73-.3,3.57,3.57,0,0,0-.89-.1,4,4,0,0,0-2.94,1.26l-1-1.24A5.27,5.27,0,0,1,86,259.64a5.65,5.65,0,0,1,2.46-.5,6.13,6.13,0,0,1,1.66.21,4.28,4.28,0,0,1,1.29.61,2.7,2.7,0,0,1,.83,1,2.65,2.65,0,0,1,.3,1.27,2.4,2.4,0,0,1-.22,1,2.75,2.75,0,0,1-.57.77,3.31,3.31,0,0,1-.79.53,3.93,3.93,0,0,1-.87.27A3.17,3.17,0,0,1,91,265a3.35,3.35,0,0,1,.86.52,2.86,2.86,0,0,1,.65.84,2.48,2.48,0,0,1,.26,1.16,3,3,0,0,1-.3,1.33,3.19,3.19,0,0,1-.86,1.05,4.4,4.4,0,0,1-1.35.69A6.12,6.12,0,0,1,88.44,270.86Z" fill="#e52823"/><path d="M98.9,270.86a4.58,4.58,0,0,1-2.15-.47,4,4,0,0,1-1.44-1.28,5.79,5.79,0,0,1-.83-1.87,9.63,9.63,0,0,1-.26-2.25,8,8,0,0,1,.32-2.29,5.71,5.71,0,0,1,1-1.85,4.54,4.54,0,0,1,1.56-1.25,5.28,5.28,0,0,1,4-.12,4.49,4.49,0,0,1,1.39.92l-.92,1.5a3.58,3.58,0,0,0-1-.73,3.15,3.15,0,0,0-1.35-.26,2.58,2.58,0,0,0-1.28.31A2.92,2.92,0,0,0,97,262a3.77,3.77,0,0,0-.58,1.19,5.2,5.2,0,0,0-.19,1.43V265a3.36,3.36,0,0,1,.52-.57,4.86,4.86,0,0,1,.7-.51,4.46,4.46,0,0,1,.86-.37,3.1,3.1,0,0,1,1-.14,4.36,4.36,0,0,1,1.45.23,3.6,3.6,0,0,1,1.22.7,3.24,3.24,0,0,1,.83,1.15,3.79,3.79,0,0,1,.31,1.59,3.73,3.73,0,0,1-.3,1.48,3.66,3.66,0,0,1-.84,1.21,3.84,3.84,0,0,1-1.32.82A4.7,4.7,0,0,1,98.9,270.86Zm-.12-1.77a2.48,2.48,0,0,0,1-.18,2.3,2.3,0,0,0,.72-.47,2,2,0,0,0,.43-.64,1.69,1.69,0,0,0,.14-.68,2.08,2.08,0,0,0-.18-.91,1.77,1.77,0,0,0-.51-.63,2.15,2.15,0,0,0-.74-.37,3.17,3.17,0,0,0-.88-.12,2.88,2.88,0,0,0-1.39.36,3.08,3.08,0,0,0-1.09,1,3.94,3.94,0,0,0,.19.93,2.46,2.46,0,0,0,.46.86,2.33,2.33,0,0,0,.76.63A2.28,2.28,0,0,0,98.78,269.09Z" fill="#e52823"/><path d="M111.37,270.86a1.89,1.89,0,0,1-2.1-2.13v-9.42h1.78v9a1.18,1.18,0,0,0,.2.7.65.65,0,0,0,.58.28,1.28,1.28,0,0,0,.48-.09.81.81,0,0,0,.32-.21l.43,1.36a1.91,1.91,0,0,1-.65.37A3,3,0,0,1,111.37,270.86Z" fill="#e52823"/><path d="M114.13,270.65V259.31h1.78v4.27a3.24,3.24,0,0,1,2.64-1.34,3.74,3.74,0,0,1,1.47.29,3.25,3.25,0,0,1,1.15.86,4,4,0,0,1,.76,1.36,5.61,5.61,0,0,1,.27,1.79,5.71,5.71,0,0,1-.27,1.82,4.17,4.17,0,0,1-.76,1.36,3.39,3.39,0,0,1-1.17.85,3.68,3.68,0,0,1-1.45.29,3.09,3.09,0,0,1-1.48-.36,3.6,3.6,0,0,1-1.16-1v1.12Zm1.78-2.46a2.51,2.51,0,0,0,.89.77,2.62,2.62,0,0,0,1.24.31,2.06,2.06,0,0,0,1.69-.76,3.05,3.05,0,0,0,.62-2,3.52,3.52,0,0,0-.16-1.1,2.64,2.64,0,0,0-.47-.86,2.13,2.13,0,0,0-1.68-.76,2.66,2.66,0,0,0-2.13,1.1Z" fill="#e52823"/><path d="M126.83,270.86a5.71,5.71,0,0,1-2-.34,4.28,4.28,0,0,1-1.54-1l.81-1.27a3.27,3.27,0,0,0,.53.42,4,4,0,0,0,.68.37,4.32,4.32,0,0,0,.77.25,3.11,3.11,0,0,0,.79.1,2.06,2.06,0,0,0,1.23-.3.94.94,0,0,0,.41-.79.66.66,0,0,0-.37-.61,3.48,3.48,0,0,0-.92-.34l-1.2-.27a5.38,5.38,0,0,1-1.19-.41,2.66,2.66,0,0,1-.92-.73,2,2,0,0,1-.37-1.26,2.11,2.11,0,0,1,.22-1,2.14,2.14,0,0,1,.62-.79,2.86,2.86,0,0,1,1-.54,4.47,4.47,0,0,1,1.38-.19,4.81,4.81,0,0,1,1.85.32,4.4,4.4,0,0,1,1.33.82l-.75,1.25a3,3,0,0,0-1-.69,3.28,3.28,0,0,0-1.42-.29,1.83,1.83,0,0,0-1.11.29.85.85,0,0,0-.4.73.58.58,0,0,0,.36.54,4.27,4.27,0,0,0,.92.32l1.2.27a5.16,5.16,0,0,1,1.2.42,2.75,2.75,0,0,1,.92.77,2.11,2.11,0,0,1,.36,1.3,2.37,2.37,0,0,1-.22,1,2.13,2.13,0,0,1-.65.81,3.26,3.26,0,0,1-1.07.54A5.07,5.07,0,0,1,126.83,270.86Z" fill="#e52823"/><path d="M16,291.82a6.59,6.59,0,0,1-2.31-.57A5.79,5.79,0,0,1,12,290.07l1.12-1.55a5.11,5.11,0,0,0,1.2,1,4.38,4.38,0,0,0,1.64.57v-3.3c-.44-.11-.88-.24-1.3-.39a4.62,4.62,0,0,1-1.15-.59,2.68,2.68,0,0,1-1.14-2.31,2.92,2.92,0,0,1,.26-1.21,3.27,3.27,0,0,1,.72-1,3.91,3.91,0,0,1,1.13-.72,4.53,4.53,0,0,1,1.48-.35V278.6h1.36v1.58a6.26,6.26,0,0,1,1.89.51,5.35,5.35,0,0,1,1.53,1l-1.13,1.48a4,4,0,0,0-1.08-.78,5.26,5.26,0,0,0-1.21-.42v2.94a13.26,13.26,0,0,1,1.32.4,4.18,4.18,0,0,1,1.19.61,3.16,3.16,0,0,1,.85,1,2.83,2.83,0,0,1,.33,1.43,3.72,3.72,0,0,1-.22,1.24,3.14,3.14,0,0,1-.68,1.07,3.39,3.39,0,0,1-1.14.78,5.55,5.55,0,0,1-1.65.39v1.53H16Zm-1.55-8.5a.9.9,0,0,0,.43.78,4,4,0,0,0,1.12.5v-2.67a1.94,1.94,0,0,0-1.13.46A1.2,1.2,0,0,0,14.44,283.32Zm4.56,5.2a1,1,0,0,0-.47-.89,4.31,4.31,0,0,0-1.18-.53v2.95a2,2,0,0,0,1.27-.58A1.48,1.48,0,0,0,19,288.52Z" fill="#e52823"/><path d="M26.87,291.86a5.93,5.93,0,0,1-2.48-.47,4.82,4.82,0,0,1-1.72-1.29l1.14-1.37a3.81,3.81,0,0,0,3,1.36,2.38,2.38,0,0,0,1.71-.58,1.89,1.89,0,0,0,.62-1.43,1.85,1.85,0,0,0-.61-1.46,2.43,2.43,0,0,0-1.67-.54,3.77,3.77,0,0,0-1.32.22,3.56,3.56,0,0,0-1.16.74l-1.41-.4v-6.33h7.43v1.77H25v3.25a3.7,3.7,0,0,1,1.09-.68,3.52,3.52,0,0,1,1.48-.29,4,4,0,0,1,1.37.24,3.7,3.7,0,0,1,1.17.72,3.43,3.43,0,0,1,.8,1.15A4,4,0,0,1,31.2,288a3.7,3.7,0,0,1-.32,1.59,3.59,3.59,0,0,1-.89,1.21,4.07,4.07,0,0,1-1.37.77A5.44,5.44,0,0,1,26.87,291.86Z" fill="#e52823"/><path d="M37.29,291.86a4.54,4.54,0,0,1-2.14-.47,4.06,4.06,0,0,1-1.45-1.28,5.57,5.57,0,0,1-.82-1.87,9.13,9.13,0,0,1-.27-2.25,7.68,7.68,0,0,1,.33-2.29,5.5,5.5,0,0,1,1-1.85,4.54,4.54,0,0,1,1.56-1.25,5,5,0,0,1,2.16-.46,4.86,4.86,0,0,1,1.86.34,4.49,4.49,0,0,1,1.39.92l-.92,1.5a3.43,3.43,0,0,0-1-.73,3.09,3.09,0,0,0-1.35-.26,2.54,2.54,0,0,0-1.27.31,2.85,2.85,0,0,0-1,.81,3.75,3.75,0,0,0-.57,1.19,5.2,5.2,0,0,0-.2,1.43V286a3.84,3.84,0,0,1,.52-.57,5.49,5.49,0,0,1,.7-.51,4.46,4.46,0,0,1,.86-.37,3.1,3.1,0,0,1,1-.14,4.42,4.42,0,0,1,1.46.23,3.56,3.56,0,0,1,1.21.7,3.39,3.39,0,0,1,.84,1.15,4,4,0,0,1,.3,1.59,3.73,3.73,0,0,1-.3,1.48,3.51,3.51,0,0,1-.84,1.21,3.84,3.84,0,0,1-1.32.82A4.7,4.7,0,0,1,37.29,291.86Zm-.12-1.77a2.57,2.57,0,0,0,1-.18,2.25,2.25,0,0,0,.71-.47,1.81,1.81,0,0,0,.43-.64,1.71,1.71,0,0,0,.15-.68,1.94,1.94,0,0,0-.19-.91,1.58,1.58,0,0,0-.51-.63,2.06,2.06,0,0,0-.74-.37,3.15,3.15,0,0,0-.87-.12,2.89,2.89,0,0,0-1.4.36,3.17,3.17,0,0,0-1.09,1,4.52,4.52,0,0,0,.19.93,2.64,2.64,0,0,0,.46.86,2.27,2.27,0,0,0,.77.63A2.21,2.21,0,0,0,37.17,290.09Z" fill="#e52823"/><path d="M44.21,291.84a1.12,1.12,0,0,1-.84-.36,1.15,1.15,0,0,1-.35-.85,1.08,1.08,0,0,1,.35-.82,1.19,1.19,0,0,1,2,.82,1.19,1.19,0,0,1-.35.85A1.12,1.12,0,0,1,44.21,291.84Z" fill="#e52823"/><path d="M50.82,291.84a4.78,4.78,0,0,1-1.88-.35,4.48,4.48,0,0,1-1.38-.91l.93-1.51a3.62,3.62,0,0,0,1,.74,3.15,3.15,0,0,0,1.35.26,2.74,2.74,0,0,0,1.34-.32,2.92,2.92,0,0,0,.93-.85,3.86,3.86,0,0,0,.54-1.2,5.26,5.26,0,0,0,.18-1.37v-.16a.86.86,0,0,0,0-.16,3.27,3.27,0,0,1-.51.57,5.49,5.49,0,0,1-.7.51,3.89,3.89,0,0,1-.86.36,3.52,3.52,0,0,1-1,.14,4.63,4.63,0,0,1-1.45-.23,3.38,3.38,0,0,1-1.21-.69,3.34,3.34,0,0,1-.82-1.15,3.79,3.79,0,0,1-.31-1.59,3.73,3.73,0,0,1,.3-1.48,3.66,3.66,0,0,1,.84-1.21,3.84,3.84,0,0,1,1.32-.82,4.7,4.7,0,0,1,1.72-.29,4.6,4.6,0,0,1,2.14.46,4,4,0,0,1,1.45,1.28,5.57,5.57,0,0,1,.82,1.87,9,9,0,0,1,.27,2.23,8.14,8.14,0,0,1-.32,2.3,5.66,5.66,0,0,1-1,1.86A4.54,4.54,0,0,1,53,291.38,4.77,4.77,0,0,1,50.82,291.84Zm.48-5.95a2.72,2.72,0,0,0,1.38-.37,3.41,3.41,0,0,0,1.1-1,4.45,4.45,0,0,0-.21-.93,2.67,2.67,0,0,0-.45-.85,2.2,2.2,0,0,0-.75-.63,2.41,2.41,0,0,0-1.12-.25,2.5,2.5,0,0,0-1,.18,2.23,2.23,0,0,0-.71.46,1.84,1.84,0,0,0-.44.64,2,2,0,0,0-.14.7,2.06,2.06,0,0,0,.18.9,1.77,1.77,0,0,0,.51.63,2.19,2.19,0,0,0,.75.37A3.3,3.3,0,0,0,51.3,285.89Z" fill="#e52823"/><path d="M61,291.84a4.74,4.74,0,0,1-1.88-.35,4.65,4.65,0,0,1-1.39-.91l.94-1.51a3.47,3.47,0,0,0,1,.74,3.09,3.09,0,0,0,1.35.26,2.7,2.7,0,0,0,1.33-.32,3,3,0,0,0,.94-.85,3.86,3.86,0,0,0,.54-1.2,5.26,5.26,0,0,0,.18-1.37v-.16a.88.88,0,0,0,0-.16,2.84,2.84,0,0,1-.5.57,5.49,5.49,0,0,1-.7.51,4.11,4.11,0,0,1-.86.36,3.52,3.52,0,0,1-1,.14,4.59,4.59,0,0,1-1.45-.23,3.3,3.3,0,0,1-1.21-.69,3.37,3.37,0,0,1-.83-1.15,4,4,0,0,1-.3-1.59,3.73,3.73,0,0,1,.3-1.48,3.38,3.38,0,0,1,.84-1.21,3.84,3.84,0,0,1,1.32-.82,4.7,4.7,0,0,1,1.72-.29,4.53,4.53,0,0,1,2.13.46A4,4,0,0,1,65,281.87a5.57,5.57,0,0,1,.82,1.87A9,9,0,0,1,66,286a7.8,7.8,0,0,1-.33,2.3,5.46,5.46,0,0,1-.95,1.86,4.54,4.54,0,0,1-1.56,1.25A4.83,4.83,0,0,1,61,291.84Zm.47-5.95a2.76,2.76,0,0,0,1.39-.37,3.41,3.41,0,0,0,1.1-1,5.19,5.19,0,0,0-.21-.93,2.67,2.67,0,0,0-.45-.85,2.23,2.23,0,0,0-.76-.63,2.38,2.38,0,0,0-1.12-.25,2.48,2.48,0,0,0-1,.18,2.17,2.17,0,0,0-.72.46,2,2,0,0,0-.43.64,1.8,1.8,0,0,0-.15.7,2.06,2.06,0,0,0,.19.9,1.77,1.77,0,0,0,.51.63,2.19,2.19,0,0,0,.75.37A3.22,3.22,0,0,0,61.51,285.89Z" fill="#e52823"/></g></g></svg>