<svg xmlns="http://www.w3.org/2000/svg" viewBox="0 0 728 90"><g id="Layer_2" data-name="Layer 2"><g id="REC"><rect width="728" height="90" fill="none"/></g><g id="sbhd"><path d="M284.72,41.56a7.23,7.23,0,0,1-3.06-.58,6.12,6.12,0,0,1-2.13-1.58l1.41-1.7a4.7,4.7,0,0,0,3.76,1.68,3,3,0,0,0,2.11-.72,2.46,2.46,0,0,0,0-3.57,3,3,0,0,0-2.06-.67,4.58,4.58,0,0,0-1.63.28,4.3,4.3,0,0,0-1.43.92L280,35.11V27.3h9.18v2.18h-6.72v4a4.79,4.79,0,0,1,3.17-1.2,4.87,4.87,0,0,1,1.7.3,4.16,4.16,0,0,1,2.43,2.3,5.08,5.08,0,0,1,0,3.88,4.54,4.54,0,0,1-1.11,1.49,4.8,4.8,0,0,1-1.69.95A6.44,6.44,0,0,1,284.72,41.56Z" fill="#e52823"/><path d="M297.43,41.56a4.84,4.84,0,0,1-2.56-.64,5.41,5.41,0,0,1-1.73-1.67,7.69,7.69,0,0,1-1-2.32,10.84,10.84,0,0,1,0-5.23,7.69,7.69,0,0,1,1-2.32,5.28,5.28,0,0,1,1.73-1.66,4.93,4.93,0,0,1,2.56-.63,4.87,4.87,0,0,1,2.53.63,5.28,5.28,0,0,1,1.73,1.66,7.69,7.69,0,0,1,1,2.32,10.84,10.84,0,0,1,0,5.23,7.69,7.69,0,0,1-1,2.32A5.41,5.41,0,0,1,300,40.92,4.78,4.78,0,0,1,297.43,41.56Zm0-2.18a2.39,2.39,0,0,0,1.43-.42,3.08,3.08,0,0,0,1-1.12,6,6,0,0,0,.53-1.6,10.85,10.85,0,0,0,.16-1.93,11.86,11.86,0,0,0-.15-1.92,5.28,5.28,0,0,0-.53-1.6,3,3,0,0,0-.95-1.11,2.53,2.53,0,0,0-1.45-.41,2.48,2.48,0,0,0-1.45.41,3.06,3.06,0,0,0-1,1.11,5.57,5.57,0,0,0-.53,1.6,11,11,0,0,0,0,3.85,5.68,5.68,0,0,0,.53,1.6A3.18,3.18,0,0,0,296,39,2.41,2.41,0,0,0,297.43,39.38Z" fill="#e52823"/><path d="M308,34a3.82,3.82,0,0,1-1.42-.26,3.23,3.23,0,0,1-1.1-.74,3.28,3.28,0,0,1-.72-1.1,3.78,3.78,0,0,1-.25-1.36,3.93,3.93,0,0,1,.25-1.38,3.31,3.31,0,0,1,1.82-1.85,3.82,3.82,0,0,1,1.42-.26,3.91,3.91,0,0,1,1.43.26,3.14,3.14,0,0,1,1.1.74,3.33,3.33,0,0,1,.7,1.11,3.72,3.72,0,0,1,.25,1.38,3.58,3.58,0,0,1-.25,1.36,3.39,3.39,0,0,1-.7,1.1,3.14,3.14,0,0,1-1.1.74A3.91,3.91,0,0,1,308,34Zm0-1.41a1.75,1.75,0,0,0,1.34-.57,2.1,2.1,0,0,0,.53-1.49,2.17,2.17,0,0,0-.53-1.53,1.83,1.83,0,0,0-2.67,0,2.17,2.17,0,0,0-.52,1.53,2.1,2.1,0,0,0,.52,1.49A1.74,1.74,0,0,0,308,32.63Zm-1.37,8.68,8.95-14H317l-9,14Zm8.91.25a3.82,3.82,0,0,1-1.42-.26,3.14,3.14,0,0,1-1.1-.74,3.34,3.34,0,0,1-.72-1.09A3.63,3.63,0,0,1,312,38.1a3.7,3.7,0,0,1,.25-1.37,3.43,3.43,0,0,1,.72-1.11,3.26,3.26,0,0,1,1.1-.73,3.82,3.82,0,0,1,1.42-.26,3.77,3.77,0,0,1,1.41.26,3.4,3.4,0,0,1,1.11.73,3.57,3.57,0,0,1,.71,1.11A3.7,3.7,0,0,1,319,38.1a3.63,3.63,0,0,1-.25,1.37,3.48,3.48,0,0,1-.71,1.09,3.27,3.27,0,0,1-1.11.74A3.77,3.77,0,0,1,315.51,41.56Zm0-1.41a1.75,1.75,0,0,0,1.34-.57,2.09,2.09,0,0,0,.53-1.49,2.18,2.18,0,0,0-.53-1.52,1.85,1.85,0,0,0-2.69,0,2.18,2.18,0,0,0-.52,1.52,2.08,2.08,0,0,0,.52,1.49A1.75,1.75,0,0,0,315.51,40.15Z" fill="#e52823"/><path d="M331,41.56a5.28,5.28,0,0,1-2.19-.43A5,5,0,0,1,327.2,40a5.08,5.08,0,0,1-1-1.69,6.21,6.21,0,0,1,0-4.11,5.08,5.08,0,0,1,1-1.69,4.81,4.81,0,0,1,1.64-1.15,5.89,5.89,0,0,1,4.37,0,4.81,4.81,0,0,1,1.64,1.15,4.92,4.92,0,0,1,1,1.69,6.21,6.21,0,0,1,0,4.11,4.92,4.92,0,0,1-1,1.69,5,5,0,0,1-1.64,1.16A5.24,5.24,0,0,1,331,41.56Zm0-2a2.71,2.71,0,0,0,2.17-1,3.46,3.46,0,0,0,.56-1.08,4.67,4.67,0,0,0,.18-1.29,4.57,4.57,0,0,0-.18-1.29,3.52,3.52,0,0,0-.56-1.07,2.66,2.66,0,0,0-2.17-1,2.73,2.73,0,0,0-1.24.27,2.8,2.8,0,0,0-.93.73,3.13,3.13,0,0,0-.56,1.07,4.24,4.24,0,0,0-.19,1.29,4.33,4.33,0,0,0,.19,1.29,3.09,3.09,0,0,0,.56,1.08,2.67,2.67,0,0,0,.93.73A2.61,2.61,0,0,0,331,39.61Z" fill="#e52823"/><path d="M339,41.31V33.08h-1.68V31.16H339V30.6a3.55,3.55,0,0,1,.9-2.61,3.1,3.1,0,0,1,2.29-.9,3.7,3.7,0,0,1,1.78.38l-.48,1.66a1.54,1.54,0,0,0-.88-.23,1.3,1.3,0,0,0-1,.42,1.86,1.86,0,0,0-.37,1.28v.56h2.06v1.92h-2.06v8.23Z" fill="#e52823"/><path d="M345.52,41.31V33.08h-1.69V31.16h1.69V30.6a3.55,3.55,0,0,1,.9-2.61,3.1,3.1,0,0,1,2.29-.9,3.73,3.73,0,0,1,1.78.38L350,29.13a1.54,1.54,0,0,0-.88-.23,1.3,1.3,0,0,0-1,.42,1.86,1.86,0,0,0-.37,1.28v.56h2.06v1.92h-2.06v8.23Z" fill="#e52823"/><path d="M364,41.31V39.92a4.53,4.53,0,0,1-1.42,1.2,3.93,3.93,0,0,1-1.84.44A4.44,4.44,0,0,1,359,41.2a3.91,3.91,0,0,1-1.43-1.05,5.06,5.06,0,0,1-.94-1.68,7.08,7.08,0,0,1-.33-2.24A6.93,6.93,0,0,1,356.6,34a5.06,5.06,0,0,1,.94-1.68A4,4,0,0,1,359,31.28a4.31,4.31,0,0,1,1.81-.37,4,4,0,0,1,1.81.42A4.06,4.06,0,0,1,364,32.57V31.16h2.2V41.31Zm-2.61-1.7a3,3,0,0,0,.77-.11,3.58,3.58,0,0,0,.73-.29,4.11,4.11,0,0,0,.63-.43,2.45,2.45,0,0,0,.48-.54v-4a2.9,2.9,0,0,0-.48-.52,3.23,3.23,0,0,0-1.36-.74,3,3,0,0,0-.77-.1,2.71,2.71,0,0,0-1.2.25,2.78,2.78,0,0,0-.9.69,3.18,3.18,0,0,0-.58,1.06,4.51,4.51,0,0,0-.2,1.36,4.45,4.45,0,0,0,.2,1.35,3.34,3.34,0,0,0,.58,1.07,2.55,2.55,0,0,0,.9.7A2.71,2.71,0,0,0,361.41,39.61Z" fill="#e52823"/><path d="M371.68,41.56a2.64,2.64,0,0,1-1.94-.67,2.69,2.69,0,0,1-.66-2V27.3h2.2V38.39a1.49,1.49,0,0,0,.24.87.84.84,0,0,0,.73.35,1.48,1.48,0,0,0,.59-.12,1,1,0,0,0,.39-.26l.53,1.68a2.52,2.52,0,0,1-.8.46A3.56,3.56,0,0,1,371.68,41.56Z" fill="#e52823"/><path d="M377.69,41.56a2.65,2.65,0,0,1-1.95-.67,2.69,2.69,0,0,1-.66-2V27.3h2.21V38.39a1.49,1.49,0,0,0,.24.87.82.82,0,0,0,.72.35,1.45,1.45,0,0,0,.59-.12,1.06,1.06,0,0,0,.4-.26l.53,1.68a2.63,2.63,0,0,1-.8.46A3.64,3.64,0,0,1,377.69,41.56Z" fill="#e52823"/><path d="M279.77,62.11V52H282v1.47a5.07,5.07,0,0,1,1.45-1.22,3.64,3.64,0,0,1,1.85-.5V53.9a2.76,2.76,0,0,0-.67-.07,2.9,2.9,0,0,0-.75.11,4.4,4.4,0,0,0-.76.29,3.79,3.79,0,0,0-.66.44,2.46,2.46,0,0,0-.46.53v6.91Z" fill="#e52823"/><path d="M291.65,62.36a5.24,5.24,0,0,1-2.18-.43,4.88,4.88,0,0,1-1.64-1.16,4.92,4.92,0,0,1-1-1.69,6,6,0,0,1,0-4.11,4.92,4.92,0,0,1,1-1.69,4.72,4.72,0,0,1,1.64-1.15,5.87,5.87,0,0,1,4.36,0,4.72,4.72,0,0,1,1.64,1.15,4.92,4.92,0,0,1,1,1.69,6,6,0,0,1,0,4.11,4.92,4.92,0,0,1-1,1.69,4.88,4.88,0,0,1-1.64,1.16A5.24,5.24,0,0,1,291.65,62.36Zm0-2a2.66,2.66,0,0,0,1.26-.28,2.6,2.6,0,0,0,.91-.73,3.26,3.26,0,0,0,.56-1.08,4.33,4.33,0,0,0,.19-1.29,4.24,4.24,0,0,0-.19-1.29,3.31,3.31,0,0,0-.56-1.07,2.72,2.72,0,0,0-.91-.73,3,3,0,0,0-2.5,0,2.86,2.86,0,0,0-.92.73,3.33,3.33,0,0,0-.57,1.07,4.24,4.24,0,0,0-.19,1.29,4.33,4.33,0,0,0,.19,1.29,3.28,3.28,0,0,0,.57,1.08,2.73,2.73,0,0,0,.92.73A2.66,2.66,0,0,0,291.65,60.41Z" fill="#e52823"/><path d="M304.57,62.36a3.8,3.8,0,0,1-1.8-.43,4.59,4.59,0,0,1-1.46-1.23V66h-2.2V52h2.2v1.39a4.3,4.3,0,0,1,1.41-1.2,4,4,0,0,1,1.85-.44,4.42,4.42,0,0,1,1.8.36,3.93,3.93,0,0,1,1.42,1,4.74,4.74,0,0,1,.93,1.67,7.58,7.58,0,0,1,0,4.49,4.74,4.74,0,0,1-.93,1.67A4,4,0,0,1,306.37,62,4.26,4.26,0,0,1,304.57,62.36Zm-.66-2a2.56,2.56,0,0,0,2.1-.95,3.69,3.69,0,0,0,.78-2.43A3.65,3.65,0,0,0,306,54.6a2.57,2.57,0,0,0-2.1-.93,3.15,3.15,0,0,0-1.5.38,3,3,0,0,0-1.1,1v4a2.69,2.69,0,0,0,.47.55,4.15,4.15,0,0,0,.63.44,3.67,3.67,0,0,0,.74.29A2.91,2.91,0,0,0,303.91,60.41Z" fill="#e52823"/><path d="M316,62.36a5.89,5.89,0,0,1-2.13-.38,4.76,4.76,0,0,1-1.68-1.08,5.07,5.07,0,0,1-1.11-1.69,5.91,5.91,0,0,1-.39-2.18A5.71,5.71,0,0,1,311,55a5.22,5.22,0,0,1,1.06-1.69,5.25,5.25,0,0,1,5.77-1.15,4.5,4.5,0,0,1,1.57,1.15,5,5,0,0,1,1,1.74,6.77,6.77,0,0,1,.35,2.2v.55H313a3.21,3.21,0,0,0,.3,1.07,3,3,0,0,0,.65.89,2.8,2.8,0,0,0,1,.61,3.44,3.44,0,0,0,1.28.22,4.37,4.37,0,0,0,1.55-.29,3.86,3.86,0,0,0,1.35-.84l1,1.45A5,5,0,0,1,318.24,62,6.84,6.84,0,0,1,316,62.36Zm2.69-6.17a3.18,3.18,0,0,0-.2-.92,2.86,2.86,0,0,0-.53-.86,2.73,2.73,0,0,0-.87-.64,3.31,3.31,0,0,0-2.5,0,2.57,2.57,0,0,0-.87.63,3.11,3.11,0,0,0-.54.86,3.26,3.26,0,0,0-.21.94Z" fill="#e52823"/><path d="M331.45,62.36a2.66,2.66,0,0,1-2-.67,2.73,2.73,0,0,1-.65-2V53.88h-1.68V52h1.68V49.19h2.21V52h2.05v1.92h-2.05v5.31a1.49,1.49,0,0,0,.24.87.82.82,0,0,0,.72.35,1.4,1.4,0,0,0,.58-.12A1.2,1.2,0,0,0,333,60l.52,1.68a2.46,2.46,0,0,1-.79.46A3.56,3.56,0,0,1,331.45,62.36Z" fill="#e52823"/><path d="M339.68,62.36a5.28,5.28,0,0,1-2.19-.43,5,5,0,0,1-1.64-1.16,4.9,4.9,0,0,1-1-1.69,6,6,0,0,1,0-4.11,4.9,4.9,0,0,1,1-1.69,4.81,4.81,0,0,1,1.64-1.15,5.89,5.89,0,0,1,4.37,0,4.81,4.81,0,0,1,1.64,1.15,4.92,4.92,0,0,1,1,1.69,6.21,6.21,0,0,1,0,4.11,4.92,4.92,0,0,1-1,1.69,5,5,0,0,1-1.64,1.16A5.24,5.24,0,0,1,339.68,62.36Zm0-2a2.72,2.72,0,0,0,1.26-.28,2.6,2.6,0,0,0,.91-.73,3.26,3.26,0,0,0,.56-1.08A4.68,4.68,0,0,0,342.6,57a4.57,4.57,0,0,0-.19-1.29,3.31,3.31,0,0,0-.56-1.07,2.72,2.72,0,0,0-.91-.73,2.84,2.84,0,0,0-1.26-.27,2.73,2.73,0,0,0-1.24.27,2.9,2.9,0,0,0-.93.73,3.13,3.13,0,0,0-.56,1.07,4.24,4.24,0,0,0-.19,1.29,4.33,4.33,0,0,0,.19,1.29,3.09,3.09,0,0,0,.56,1.08,2.77,2.77,0,0,0,.93.73A2.61,2.61,0,0,0,339.68,60.41Z" fill="#e52823"/><path d="M351.12,66.22a6.63,6.63,0,0,1-2.27-.36A5.64,5.64,0,0,1,347,64.71l1-1.59a3,3,0,0,0,1.36,1,4.7,4.7,0,0,0,1.7.31,2.87,2.87,0,0,0,2.1-.73A2.74,2.74,0,0,0,354,61.6V60.43a5.58,5.58,0,0,1-1.46,1.1,4.35,4.35,0,0,1-2.11.49,3.3,3.3,0,0,1-2.46-.83,3.21,3.21,0,0,1-.82-2.38V52h2.21v6a2,2,0,0,0,.55,1.63,2.31,2.31,0,0,0,1.5.45,3,3,0,0,0,1.53-.41,3.72,3.72,0,0,0,1.06-.91V52h2.2V61.6a4.87,4.87,0,0,1-.38,2,3.87,3.87,0,0,1-1.06,1.45,4.76,4.76,0,0,1-1.6.87A6.85,6.85,0,0,1,351.12,66.22Z" fill="#e52823"/><path d="M362.52,62.36a7,7,0,0,1-2.43-.41,5.28,5.28,0,0,1-1.91-1.19l1-1.57a4,4,0,0,0,.65.52,5.55,5.55,0,0,0,.84.46,5.87,5.87,0,0,0,.95.31,4.15,4.15,0,0,0,1,.11,2.61,2.61,0,0,0,1.51-.36,1.14,1.14,0,0,0,.5-1,.8.8,0,0,0-.45-.75,4.46,4.46,0,0,0-1.13-.42c-.46-.12-1-.23-1.48-.34a6.29,6.29,0,0,1-1.48-.5,3.31,3.31,0,0,1-1.14-.91,2.42,2.42,0,0,1-.45-1.55,2.83,2.83,0,0,1,.26-1.19,3,3,0,0,1,.77-1,3.72,3.72,0,0,1,1.25-.67,5.61,5.61,0,0,1,1.71-.24,6.11,6.11,0,0,1,2.28.4,5.61,5.61,0,0,1,1.65,1l-.92,1.55a4,4,0,0,0-1.25-.86,4.19,4.19,0,0,0-1.76-.35,2.28,2.28,0,0,0-1.37.35,1.08,1.08,0,0,0-.5.9.74.74,0,0,0,.45.68,5.58,5.58,0,0,0,1.14.39l1.48.33a6.5,6.5,0,0,1,1.48.53,3.22,3.22,0,0,1,1.13.94,2.63,2.63,0,0,1,.46,1.61,3,3,0,0,1-.28,1.26,2.71,2.71,0,0,1-.81,1,3.89,3.89,0,0,1-1.32.66A6.22,6.22,0,0,1,362.52,62.36Z" fill="#e52823"/></g></g></svg>