<svg xmlns="http://www.w3.org/2000/svg" viewBox="0 0 160 600"><g id="Layer_2" data-name="Layer 2"><g id="rec"><rect width="160" height="600" fill="none"/></g><g id="sub"><path d="M22.43,232.63a6.27,6.27,0,0,1-2.63-.49A5.28,5.28,0,0,1,18,230.78l1.21-1.46a4,4,0,0,0,3.22,1.44,2.59,2.59,0,0,0,1.81-.61,2.14,2.14,0,0,0,0-3.06,2.55,2.55,0,0,0-1.77-.58,4,4,0,0,0-1.4.24,4,4,0,0,0-1.23.79l-1.49-.43v-6.7h7.87v1.87H20.45v3.44A3.9,3.9,0,0,1,21.6,225a3.78,3.78,0,0,1,1.56-.31,4.19,4.19,0,0,1,1.46.26,3.84,3.84,0,0,1,1.24.76,3.75,3.75,0,0,1,.84,1.21,4.1,4.1,0,0,1,.32,1.64,4.14,4.14,0,0,1-.34,1.69,3.85,3.85,0,0,1-.95,1.27,4,4,0,0,1-1.45.82A5.48,5.48,0,0,1,22.43,232.63Z" fill="#e52823"/><path d="M33.32,232.63a4.12,4.12,0,0,1-2.19-.55,4.53,4.53,0,0,1-1.49-1.43,6.72,6.72,0,0,1-.85-2,9.1,9.1,0,0,1,0-4.48,6.72,6.72,0,0,1,.85-2,4.5,4.5,0,0,1,1.49-1.42,4.67,4.67,0,0,1,4.36,0A4.47,4.47,0,0,1,37,222.19a6.74,6.74,0,0,1,.86,2,9.43,9.43,0,0,1,0,4.48,6.74,6.74,0,0,1-.86,2,4.5,4.5,0,0,1-1.48,1.43A4.09,4.09,0,0,1,33.32,232.63Zm0-1.87a2.08,2.08,0,0,0,1.23-.36,2.71,2.71,0,0,0,.82-1,5.32,5.32,0,0,0,.45-1.38,9.66,9.66,0,0,0,.14-1.65,9.76,9.76,0,0,0-.13-1.65,4.5,4.5,0,0,0-.45-1.37,2.72,2.72,0,0,0-.82-1,2.39,2.39,0,0,0-2.49,0,2.7,2.7,0,0,0-.81,1,4.51,4.51,0,0,0-.46,1.37,9.15,9.15,0,0,0,0,3.3,4.67,4.67,0,0,0,.46,1.38,2.79,2.79,0,0,0,.81,1A2.1,2.1,0,0,0,33.32,230.76Z" fill="#e52823"/><path d="M42.35,226.19a3.14,3.14,0,0,1-1.21-.23,2.78,2.78,0,0,1-1.56-1.57,3.2,3.2,0,0,1-.22-1.17,3.26,3.26,0,0,1,.22-1.18,2.74,2.74,0,0,1,1.56-1.59,3.14,3.14,0,0,1,1.21-.22,3.28,3.28,0,0,1,1.23.22,2.68,2.68,0,0,1,.94.63,2.79,2.79,0,0,1,.6,1,3.06,3.06,0,0,1,.22,1.18,3,3,0,0,1-.22,1.17,2.8,2.8,0,0,1-.6.94,2.68,2.68,0,0,1-.94.63A3.28,3.28,0,0,1,42.35,226.19Zm0-1.21a1.48,1.48,0,0,0,1.15-.49,1.8,1.8,0,0,0,.45-1.28,1.88,1.88,0,0,0-.45-1.31,1.55,1.55,0,0,0-2.28,0,1.88,1.88,0,0,0-.45,1.31,1.8,1.8,0,0,0,.45,1.28A1.46,1.46,0,0,0,42.35,225Zm-1.17,7.44,7.67-12h1.22l-7.68,12Zm7.63.21a3.18,3.18,0,0,1-1.21-.22,2.82,2.82,0,0,1-1-.63,3,3,0,0,1-.61-.94,3.36,3.36,0,0,1,0-2.34,3,3,0,0,1,.61-1,2.79,2.79,0,0,1,1-.62,3.32,3.32,0,0,1,2.43,0,2.66,2.66,0,0,1,.94.62,2.84,2.84,0,0,1,.62,1,3.36,3.36,0,0,1,0,2.34,2.85,2.85,0,0,1-.62.94,2.68,2.68,0,0,1-.94.63A3.19,3.19,0,0,1,48.81,232.63Zm0-1.21a1.52,1.52,0,0,0,1.16-.48,1.8,1.8,0,0,0,.45-1.28,1.85,1.85,0,0,0-.45-1.3,1.58,1.58,0,0,0-2.31,0,1.85,1.85,0,0,0-.45,1.3,1.8,1.8,0,0,0,.45,1.28A1.52,1.52,0,0,0,48.81,231.42Z" fill="#e52823"/><path d="M62.12,232.63a4.54,4.54,0,0,1-1.88-.37,4,4,0,0,1-1.4-1,4.18,4.18,0,0,1-.88-1.45,4.9,4.9,0,0,1-.31-1.76,5,5,0,0,1,.31-1.77,4.23,4.23,0,0,1,.88-1.44,4,4,0,0,1,1.4-1,4.71,4.71,0,0,1,1.88-.37,4.66,4.66,0,0,1,1.87.37,4,4,0,0,1,1.4,1,4.08,4.08,0,0,1,.88,1.44,5,5,0,0,1,.31,1.77,4.9,4.9,0,0,1-.31,1.76A4.19,4.19,0,0,1,64,232.26,4.49,4.49,0,0,1,62.12,232.63Zm0-1.67a2.38,2.38,0,0,0,1.08-.24,2.17,2.17,0,0,0,.78-.63,2.78,2.78,0,0,0,.48-.92,4.14,4.14,0,0,0,.16-1.11,4,4,0,0,0-.16-1.1A2.88,2.88,0,0,0,64,226a2.41,2.41,0,0,0-.78-.63,2.52,2.52,0,0,0-1.08-.23,2.47,2.47,0,0,0-1.07.23,2.56,2.56,0,0,0-.79.63,2.69,2.69,0,0,0-.48.92,3.62,3.62,0,0,0-.17,1.1,3.78,3.78,0,0,0,.17,1.11,2.6,2.6,0,0,0,.48.92,2.3,2.3,0,0,0,.79.63A2.34,2.34,0,0,0,62.12,231Z" fill="#e52823"/><path d="M69,232.42v-7.06H67.53v-1.64H69v-.48a3,3,0,0,1,.78-2.24,2.67,2.67,0,0,1,2-.77,3.28,3.28,0,0,1,1.53.32L72.83,222a1.41,1.41,0,0,0-.76-.19,1.12,1.12,0,0,0-.89.36,1.62,1.62,0,0,0-.32,1.1v.48h1.77v1.64H70.86v7.06Z" fill="#e52823"/><path d="M74.54,232.42v-7.06H73.1v-1.64h1.44v-.48a3,3,0,0,1,.77-2.24,2.68,2.68,0,0,1,2-.77,3.22,3.22,0,0,1,1.53.32L78.39,222a1.41,1.41,0,0,0-.76-.19,1.12,1.12,0,0,0-.89.36,1.62,1.62,0,0,0-.31,1.1v.48h1.76v1.64H76.43v7.06Z" fill="#e52823"/><path d="M90.39,232.42v-1.19a3.71,3.71,0,0,1-1.21,1,3.35,3.35,0,0,1-1.58.38,3.87,3.87,0,0,1-1.53-.3,3.35,3.35,0,0,1-1.23-.91A4.22,4.22,0,0,1,84,230a6.07,6.07,0,0,1-.29-1.93,5.86,5.86,0,0,1,.29-1.89,4.37,4.37,0,0,1,.8-1.44,3.4,3.4,0,0,1,1.22-.91,3.69,3.69,0,0,1,1.54-.32,3.44,3.44,0,0,1,2.79,1.43v-1.21h1.89v8.7ZM88.16,231a2.5,2.5,0,0,0,.66-.09,3.45,3.45,0,0,0,.63-.25,3.66,3.66,0,0,0,.54-.37,1.92,1.92,0,0,0,.4-.46v-3.44a2.09,2.09,0,0,0-.4-.45,2.62,2.62,0,0,0-.54-.38,2.85,2.85,0,0,0-.63-.25,2.5,2.5,0,0,0-.66-.09,2.25,2.25,0,0,0-1,.22,2.37,2.37,0,0,0-.78.59,2.56,2.56,0,0,0-.49.91,4,4,0,0,0,0,2.32,2.8,2.8,0,0,0,.49.92,2.27,2.27,0,0,0,.78.6A2.39,2.39,0,0,0,88.16,231Z" fill="#e52823"/><path d="M97,232.63a2.21,2.21,0,0,1-1.66-.58,2.27,2.27,0,0,1-.57-1.67v-10h1.89v9.5a1.28,1.28,0,0,0,.21.75.7.7,0,0,0,.62.3,1.35,1.35,0,0,0,.5-.1,1,1,0,0,0,.35-.23l.45,1.44a2.06,2.06,0,0,1-.69.4A3.12,3.12,0,0,1,97,232.63Z" fill="#e52823"/><path d="M102.11,232.63a2.21,2.21,0,0,1-1.66-.58,2.27,2.27,0,0,1-.57-1.67v-10h1.89v9.5a1.28,1.28,0,0,0,.21.75.7.7,0,0,0,.62.3,1.35,1.35,0,0,0,.5-.1.84.84,0,0,0,.34-.23l.45,1.44a1.91,1.91,0,0,1-.68.4A3.12,3.12,0,0,1,102.11,232.63Z" fill="#e52823"/><path d="M24.3,254v-1.18a3.74,3.74,0,0,1-1.22,1,3.31,3.31,0,0,1-1.57.38,3.75,3.75,0,0,1-1.54-.31,3.26,3.26,0,0,1-1.22-.9,4,4,0,0,1-.8-1.44,5.7,5.7,0,0,1-.29-1.92,5.6,5.6,0,0,1,.29-1.89,4.1,4.1,0,0,1,.8-1.44,3.37,3.37,0,0,1,1.21-.91,3.74,3.74,0,0,1,1.55-.32,3.43,3.43,0,0,1,1.55.36,3.6,3.6,0,0,1,1.24,1.07V242h1.89v12Zm-2.23-1.45a2.48,2.48,0,0,0,.65-.09,2.53,2.53,0,0,0,.63-.26,3,3,0,0,0,.54-.36,2.19,2.19,0,0,0,.41-.46V248a2.15,2.15,0,0,0-.41-.45,2.62,2.62,0,0,0-.54-.38,2.51,2.51,0,0,0-.63-.25,2.48,2.48,0,0,0-.65-.09,2.26,2.26,0,0,0-1,.22,2.23,2.23,0,0,0-.77.59,2.58,2.58,0,0,0-.5.91,4,4,0,0,0,0,2.32,2.82,2.82,0,0,0,.5.92,2.15,2.15,0,0,0,.77.6A2.4,2.4,0,0,0,22.07,252.56Z" fill="#e52823"/><path d="M32.58,254.23a4.46,4.46,0,0,1-1.87-.37,4.08,4.08,0,0,1-1.41-1,4.28,4.28,0,0,1-.88-1.45,5.12,5.12,0,0,1-.3-1.76,5.22,5.22,0,0,1,.3-1.77,4.19,4.19,0,0,1,2.29-2.43,5,5,0,0,1,3.74,0,4.18,4.18,0,0,1,1.4,1,4.26,4.26,0,0,1,.89,1.44,5.22,5.22,0,0,1,.3,1.77,5.12,5.12,0,0,1-.3,1.76,4.3,4.3,0,0,1-.89,1.45,4,4,0,0,1-1.4,1A4.49,4.49,0,0,1,32.58,254.23Zm0-1.67a2.32,2.32,0,0,0,1.08-.24,2.17,2.17,0,0,0,.78-.63,2.78,2.78,0,0,0,.48-.92,3.77,3.77,0,0,0,.16-1.11,3.61,3.61,0,0,0-.16-1.1,2.88,2.88,0,0,0-.48-.92,2.41,2.41,0,0,0-.78-.63,2.45,2.45,0,0,0-1.08-.23,2.39,2.39,0,0,0-1.06.23,2.49,2.49,0,0,0-.8.63,2.88,2.88,0,0,0-.48.92,3.61,3.61,0,0,0-.16,1.1,3.77,3.77,0,0,0,.16,1.11,2.78,2.78,0,0,0,.48.92,2.24,2.24,0,0,0,.8.63A2.27,2.27,0,0,0,32.58,252.56Z" fill="#e52823"/><path d="M42.51,257.54a6.36,6.36,0,0,1-2-.28,4.56,4.56,0,0,1-1.67-1l.88-1.37a3,3,0,0,0,1.23.86,4.36,4.36,0,0,0,1.54.26,3.59,3.59,0,0,0,.93-.12,2.31,2.31,0,0,0,.83-.41,2.06,2.06,0,0,0,.59-.74,2.68,2.68,0,0,0,.23-1.17v-1a3.9,3.9,0,0,1-1.22,1.07,3.21,3.21,0,0,1-1.57.39,4.1,4.1,0,0,1-1.54-.29,3.41,3.41,0,0,1-1.22-.87,3.87,3.87,0,0,1-.8-1.39,5.64,5.64,0,0,1-.29-1.91,5.52,5.52,0,0,1,.29-1.89,4.05,4.05,0,0,1,.8-1.41,3.38,3.38,0,0,1,1.21-.87,3.9,3.9,0,0,1,1.55-.3,3.43,3.43,0,0,1,1.55.36,3.6,3.6,0,0,1,1.24,1.07v-1.21H47v8.24a4.21,4.21,0,0,1-.4,1.95,3.34,3.34,0,0,1-1,1.22,4.06,4.06,0,0,1-1.44.63A7.34,7.34,0,0,1,42.51,257.54Zm.35-5.2a2.58,2.58,0,0,0,1.28-.34,2.75,2.75,0,0,0,1-.81v-3.26a2.75,2.75,0,0,0-1-.81,2.58,2.58,0,0,0-1.28-.34,2.25,2.25,0,0,0-1.8.76,3,3,0,0,0-.67,2,2.89,2.89,0,0,0,.67,2A2.25,2.25,0,0,0,42.86,252.34Z" fill="#e52823"/><path d="M54.07,254V242H56v4.52a3.63,3.63,0,0,1,1.25-1.07,3.45,3.45,0,0,1,1.54-.36,3.85,3.85,0,0,1,1.56.32,3.4,3.4,0,0,1,1.22.91,4.27,4.27,0,0,1,.8,1.44,5.86,5.86,0,0,1,.29,1.89,6,6,0,0,1-.29,1.92,4,4,0,0,1-.81,1.44,3.38,3.38,0,0,1-1.23.9,3.75,3.75,0,0,1-1.54.31,3.37,3.37,0,0,1-1.57-.38,3.74,3.74,0,0,1-1.22-1V254ZM56,251.4a2.49,2.49,0,0,0,.95.82,2.6,2.6,0,0,0,1.3.34,2.18,2.18,0,0,0,1.79-.81,3.21,3.21,0,0,0,.66-2.09,3.87,3.87,0,0,0-.17-1.16,2.58,2.58,0,0,0-.5-.91,2.3,2.3,0,0,0-1.78-.81,2.6,2.6,0,0,0-1.3.34A2.69,2.69,0,0,0,56,248Z" fill="#e52823"/><path d="M68.56,254.23a5.17,5.17,0,0,1-1.83-.32,4.11,4.11,0,0,1-2.38-2.38,4.9,4.9,0,0,1-.34-1.87,5,5,0,0,1,.32-1.77,4.31,4.31,0,0,1,.91-1.45,4.52,4.52,0,0,1,1.4-1,4.32,4.32,0,0,1,1.78-.36,4.23,4.23,0,0,1,1.76.36,3.79,3.79,0,0,1,1.35,1,4.38,4.38,0,0,1,.86,1.49,6,6,0,0,1,.29,1.89v.47H66a2.69,2.69,0,0,0,.26.92,2.57,2.57,0,0,0,1.39,1.28,3,3,0,0,0,1.1.19,3.76,3.76,0,0,0,1.33-.25,3.13,3.13,0,0,0,1.15-.72l.87,1.24a4.53,4.53,0,0,1-1.58,1A6,6,0,0,1,68.56,254.23Zm2.31-5.29a2.58,2.58,0,0,0-.18-.78,2.26,2.26,0,0,0-.45-.74,2.2,2.2,0,0,0-.74-.55,2.8,2.8,0,0,0-2.15,0,2.29,2.29,0,0,0-.74.54,2.48,2.48,0,0,0-.46.74,2.31,2.31,0,0,0-.18.8Z" fill="#e52823"/><path d="M80.68,254v-1.18a3.85,3.85,0,0,1-1.22,1,3.31,3.31,0,0,1-1.57.38,3.72,3.72,0,0,1-1.54-.31,3.22,3.22,0,0,1-1.23-.9,4.17,4.17,0,0,1-.8-1.44,6,6,0,0,1-.29-1.92,5.86,5.86,0,0,1,.29-1.89,4.27,4.27,0,0,1,.8-1.44,3.4,3.4,0,0,1,1.22-.91,3.7,3.7,0,0,1,1.55-.32,3.39,3.39,0,0,1,1.54.36,3.63,3.63,0,0,1,1.25,1.07V242h1.88v12Zm-2.24-1.45a2.5,2.5,0,0,0,.66-.09,2.89,2.89,0,0,0,.63-.26,3,3,0,0,0,.54-.36,2.51,2.51,0,0,0,.41-.46V248a2.46,2.46,0,0,0-.41-.45,2.62,2.62,0,0,0-.54-.38,2.85,2.85,0,0,0-.63-.25,2.5,2.5,0,0,0-.66-.09,2.25,2.25,0,0,0-1,.22,2.37,2.37,0,0,0-.78.59,2.56,2.56,0,0,0-.49.91,4,4,0,0,0,0,2.32,2.8,2.8,0,0,0,.49.92,2.27,2.27,0,0,0,.78.6A2.39,2.39,0,0,0,78.44,252.56Z" fill="#e52823"/><path d="M88,254.23a6.11,6.11,0,0,1-2.09-.35,4.55,4.55,0,0,1-1.64-1l.87-1.35a2.9,2.9,0,0,0,.56.45,3.51,3.51,0,0,0,.72.39,5.25,5.25,0,0,0,.82.27,3.42,3.42,0,0,0,.83.1,2.2,2.2,0,0,0,1.3-.32,1,1,0,0,0,.43-.83.69.69,0,0,0-.39-.65,3.73,3.73,0,0,0-1-.36c-.39-.1-.81-.19-1.27-.29a5.75,5.75,0,0,1-1.27-.43,2.75,2.75,0,0,1-1-.78,2,2,0,0,1-.39-1.33,2.3,2.3,0,0,1,.23-1,2.41,2.41,0,0,1,.66-.84,3.11,3.11,0,0,1,1.07-.57A4.63,4.63,0,0,1,88,245.1a5.12,5.12,0,0,1,2,.35,4.47,4.47,0,0,1,1.41.86l-.79,1.33a3.37,3.37,0,0,0-1.07-.74,3.67,3.67,0,0,0-1.51-.3,2,2,0,0,0-1.17.3.93.93,0,0,0-.43.78.61.61,0,0,0,.39.57,3.9,3.9,0,0,0,1,.34l1.27.29a5.16,5.16,0,0,1,1.27.45,2.62,2.62,0,0,1,1,.81,2.21,2.21,0,0,1,.39,1.37,2.44,2.44,0,0,1-.24,1.08,2.23,2.23,0,0,1-.69.87,3.23,3.23,0,0,1-1.13.56A5.26,5.26,0,0,1,88,254.23Z" fill="#e52823"/></g></g></svg>