<svg xmlns="http://www.w3.org/2000/svg" viewBox="0 0 160 600"><title>CTA</title><g id="Layer_2" data-name="Layer 2"><g id="rec"><rect width="160" height="600" fill="none"/></g><g id="CTA"><path id="bg" d="M116.42,315.56H23a11.16,11.16,0,0,1-11.32-11v-1.14a11.16,11.16,0,0,1,11.32-11h93.38a11.16,11.16,0,0,1,11.31,11v1.14a11.16,11.16,0,0,1-11.31,11" fill="#e52823"/><path d="M41.59,308.74a5.43,5.43,0,0,1-2.24-.41,4.69,4.69,0,0,1-1.57-1.07l.93-1.27a4.37,4.37,0,0,0,1.22.91,3.71,3.71,0,0,0,1.73.39,3.1,3.1,0,0,0,.86-.11,1.69,1.69,0,0,0,.57-.3,1,1,0,0,0,.32-.41,1.12,1.12,0,0,0,.11-.47.85.85,0,0,0-.4-.75,4,4,0,0,0-1-.44c-.4-.12-.84-.24-1.31-.35a6.06,6.06,0,0,1-1.3-.46,2.74,2.74,0,0,1-1-.8,2.15,2.15,0,0,1-.4-1.37,2.32,2.32,0,0,1,.25-1.08,2.71,2.71,0,0,1,.68-.87,3.14,3.14,0,0,1,1.07-.58,4.42,4.42,0,0,1,1.4-.21,5.36,5.36,0,0,1,2,.34,4.43,4.43,0,0,1,1.51,1l-.92,1.21a3.51,3.51,0,0,0-1.27-.82,4.2,4.2,0,0,0-1.44-.25,1.8,1.8,0,0,0-1.14.32,1,1,0,0,0-.43.84.74.74,0,0,0,.4.67,3.86,3.86,0,0,0,1,.4c.4.12.84.23,1.3.35a5.54,5.54,0,0,1,1.31.49,3,3,0,0,1,1,.84,2.21,2.21,0,0,1,.4,1.39A3,3,0,0,1,45,307a2.46,2.46,0,0,1-.65.92,3.08,3.08,0,0,1-1.13.63A5,5,0,0,1,41.59,308.74Z" fill="#fff"/><path d="M51.23,308.58v-4.26a1.32,1.32,0,0,0-.36-1.08,1.61,1.61,0,0,0-1-.29,2,2,0,0,0-1,.28,2.39,2.39,0,0,0-.7.62v4.73H46.67v-9.34h1.47v3.49a3.1,3.1,0,0,1,.41-.39,2.72,2.72,0,0,1,.55-.35,2.66,2.66,0,0,1,.65-.25,3.13,3.13,0,0,1,.77-.09,2.19,2.19,0,0,1,1.63.55,2.12,2.12,0,0,1,.55,1.59v4.79Z" fill="#fff"/><path d="M57.66,308.74a3.54,3.54,0,0,1-1.45-.28,3.28,3.28,0,0,1-1.78-1.9,4.2,4.2,0,0,1,0-2.74,3.34,3.34,0,0,1,.69-1.13,3.28,3.28,0,0,1,1.09-.76,3.92,3.92,0,0,1,2.91,0,3.28,3.28,0,0,1,1.09.76,3.34,3.34,0,0,1,.69,1.13,3.91,3.91,0,0,1,.24,1.37,3.87,3.87,0,0,1-.24,1.37,3.28,3.28,0,0,1-1.78,1.9A3.55,3.55,0,0,1,57.66,308.74Zm0-1.3a1.86,1.86,0,0,0,.84-.18,1.64,1.64,0,0,0,.61-.49,1.89,1.89,0,0,0,.37-.72,2.71,2.71,0,0,0,.13-.86,2.65,2.65,0,0,0-.13-.85,2.05,2.05,0,0,0-.37-.72,1.74,1.74,0,0,0-.61-.49,1.86,1.86,0,0,0-.84-.18,1.83,1.83,0,0,0-.82.18,2,2,0,0,0-.62.49,2.23,2.23,0,0,0-.37.72,2.65,2.65,0,0,0-.13.85,2.71,2.71,0,0,0,.13.86,2,2,0,0,0,.37.72,1.82,1.82,0,0,0,1.44.67Z" fill="#fff"/><path d="M66.27,308.74a2.58,2.58,0,0,1-1.2-.28,3,3,0,0,1-1-.82v3.51H62.63v-9.33H64.1v.92a2.91,2.91,0,0,1,.94-.8,2.66,2.66,0,0,1,1.23-.29,2.92,2.92,0,0,1,1.2.24,2.7,2.7,0,0,1,1,.69,3.31,3.31,0,0,1,.62,1.11,5.22,5.22,0,0,1,0,3,3.31,3.31,0,0,1-.62,1.11,2.73,2.73,0,0,1-1,.7A2.92,2.92,0,0,1,66.27,308.74Zm-.43-1.3a1.73,1.73,0,0,0,1.4-.63,2.83,2.83,0,0,0,0-3.24,1.76,1.76,0,0,0-1.4-.62,2.1,2.1,0,0,0-1,.26,2,2,0,0,0-.74.64v2.67a1.53,1.53,0,0,0,.32.36,1.87,1.87,0,0,0,.42.3,1.92,1.92,0,0,0,.49.19A1.79,1.79,0,0,0,65.84,307.44Z" fill="#fff"/><path d="M80.89,308.58,76,301.9v6.68H74.39v-9.34h1.67l4.78,6.47v-6.47h1.63v9.34Z" fill="#fff"/><path d="M87.48,308.74a3.51,3.51,0,0,1-1.45-.28,3.21,3.21,0,0,1-1.09-.77,3.34,3.34,0,0,1-.69-1.13,3.87,3.87,0,0,1-.24-1.37,3.91,3.91,0,0,1,.24-1.37,3.34,3.34,0,0,1,.69-1.13,3.19,3.19,0,0,1,1.09-.76,3.51,3.51,0,0,1,1.45-.28,3.59,3.59,0,0,1,1.46.28,3.28,3.28,0,0,1,1.09.76,3.16,3.16,0,0,1,.68,1.13,3.91,3.91,0,0,1,.24,1.37,3.87,3.87,0,0,1-.24,1.37,3.16,3.16,0,0,1-.68,1.13,3.31,3.31,0,0,1-1.09.77A3.59,3.59,0,0,1,87.48,308.74Zm0-1.3a1.86,1.86,0,0,0,.84-.18,1.72,1.72,0,0,0,.61-.49,2,2,0,0,0,.37-.72,3,3,0,0,0,.13-.86,3,3,0,0,0-.13-.85,2.23,2.23,0,0,0-.37-.72,1.84,1.84,0,0,0-.61-.49,1.86,1.86,0,0,0-.84-.18,1.8,1.8,0,0,0-.82.18,1.87,1.87,0,0,0-.62.49,2.26,2.26,0,0,0-.38.72,3,3,0,0,0-.12.85,3,3,0,0,0,.12.86,2.06,2.06,0,0,0,.38.72,1.75,1.75,0,0,0,.62.49A1.8,1.8,0,0,0,87.48,307.44Z" fill="#fff"/><path d="M98.35,308.58l-1.58-5-1.57,5H93.67l-2.1-6.76h1.52l1.43,4.91,1.61-4.91h1.3l1.6,4.91,1.42-4.91H102l-2.1,6.76Z" fill="#fff"/></g></g></svg>