<svg xmlns="http://www.w3.org/2000/svg" xmlns:xlink="http://www.w3.org/1999/xlink" viewBox="0 0 160 600"><defs><clipPath id="clip-path"><rect x="19.57" y="329.5" width="102" height="25.83" fill="none"/></clipPath><clipPath id="clip-path-2"><rect x="19.57" y="329.5" width="102" height="25.83" fill="none"/></clipPath></defs><title>end-frame</title><g id="Layer_2" data-name="Layer 2"><g id="content"><rect width="160" height="600"/><path d="M1.49,599.52c-.06-4.93-.05-7,0-10.76.68-48.09,35.12-80.7,78.45-80.7s78.6,36.13,78.6,80.7c0,3.65-.09,6.83,0,10.76" fill="#e32d27"/><g id="white_logo" data-name="white logo"><g clip-path="url(#clip-path)"><g clip-path="url(#clip-path-2)"><path d="M31.1,333.59c15.37-4.7,23.12,7.07,23.12,7.07s-4.87-16.42-23.12-7.07" fill="#fff"/><path d="M60.8,334.19c0-.06,0-.49,0-.55a11.46,11.46,0,0,0-6.06,8.81s2.09-4.86,7-6.33a3,3,0,0,1-1-1.93" fill="#fff"/><path d="M41.21,341.05s0,2.32,0,3.5c-.59,0-3.14-.16-4.26-.2,0,.62,0,1.27,0,1.89,1.35,0,2.74.19,4.08.17,0,1.13,0,2.1,0,3.23-1.35,0-2.69-.11-4-.14l0,2.05c1.44,0,2.89.16,4.33.13,0,0,0,3.43,0,3.43-2.85,0-6.24-.22-9.45-.49L32,340.34c1.35.16,5.55.6,9.2.71" fill="#fff"/><path d="M42.42,341.09l-.05,3.72c1.35.07,2.56.08,2.56.08l0,10.34a31.85,31.85,0,0,0,5.16-.07L50,344.91s2.28-.1,2.63-.13c0-1.37,0-2.44,0-3.81a90.7,90.7,0,0,1-10.17.12" fill="#fff"/><path d="M111.35,338.81c0,1.48,0,2.85,0,4.33.87.05,1.86.22,2.74.3,0,3.61-.09,6.34-.1,9.95,2.43.29,4.16.57,4.82.69,0-3.61.14-6.45.15-10.06,0,0,2.57.4,2.61.44,0-1.49,0-3,0-4.45a79.26,79.26,0,0,0-10.22-1.2" fill="#fff"/><path d="M24.59,345.77l-.45,0c0-1,0-2,0-2.94l.43,0a1.49,1.49,0,0,1,1.49,1.57c0,1.21-.75,1.44-1.49,1.36m1.13-6.9-6.12-1.11,0,15c1.56.31,3,.57,4.52.74l0-4.33,1.65.18c2.65.25,5.33-.75,5.36-5.09,0-3.84-2.53-4.95-5.36-5.37" fill="#fff"/><path d="M76.74,352.79c.69-1.79,1.37-3.46,2.06-5.24.11,1.71.17,3.25.28,5,1.71-.19,3.08-.29,4.8-.39-.45-4.55-.83-9.43-1.27-14-1.47.12-2.94.26-4.41.4-.82,2.15-1.64,4.76-2.47,6.91-.79-2-1.59-4.33-2.38-6.31-1.49.21-4.14.67-4.41.68-.51,4.63-1.09,9.79-1.6,14.43,1.17-.21,4-.66,4.9-.78.13-1.73.26-3.58.39-5.31l2,5,2.13-.33" fill="#fff"/><path d="M103.88,344.94l-.45,0,0-2.89.44,0a1.43,1.43,0,0,1,1.49,1.52,1.24,1.24,0,0,1-1.51,1.37m4.25,3.08c1.3-.58,2.25-1.85,2.28-4.36,0-3.79-2.63-5.41-5.33-5.61-2-.17-4.1-.27-6.16-.33-.06,4.81-.09,9.22-.15,14,1.53,0,3.21.16,4.55.27,0-1.35,0-2.36.06-3.71.88,1.41,1.59,2.58,2.47,4,1.89.17,3.82.41,5.7.69-1.18-1.76-2.24-3.27-3.42-5" fill="#fff"/><path d="M90.22,347.09c.32-1.19.64-2.45,1-3.65.36,1.2.73,2.4,1.09,3.6a19.63,19.63,0,0,1-2,0m3.35-9.47c-1.83,0-3.32,0-4.87.1-1.26,4.66-2.73,9.65-4,14.34,1.4,0,2.81-.12,4.2-.12l.41-1.56,2.13-.05s1.87-.06,1.87-.06c.06.18.23.67.47,1.49,1.39,0,2.79,0,4.18,0-1.51-4.94-3-9.69-4.4-14.17" fill="#fff"/><path d="M54.23,353.91a12.6,12.6,0,0,0,5.66,1.43c3.2,0,6.55-1.92,6.62-5.5,0-2.56-1.57-3.77-3.84-4.28l-1.21-.27c-.41-.1-1.08-.18-1.07-.74s.71-.79,1.18-.8a8.63,8.63,0,0,1,3.26.69c.46-1.2.91-2.4,1.36-3.6a10.57,10.57,0,0,0-4.66-1.11c-3.22,0-6.45,1.95-6.52,5.52,0,2.35,1.69,3.64,3.78,4l1.08.2c.49.11,1.19.17,1.18.84s-.85.76-1.38.76A6.26,6.26,0,0,1,56,349.85c-.56,1.26-1.22,2.81-1.77,4.06" fill="#fff"/><path d="M65.81,329.5a3.61,3.61,0,1,0,3.55,3.65,3.61,3.61,0,0,0-3.55-3.65m1.3,1.33a4.32,4.32,0,0,0-3.86,2.26.13.13,0,0,0,0,.06,2.64,2.64,0,0,1,.08-1,2.46,2.46,0,0,1,3-1.75,2.4,2.4,0,0,1,.85.45l-.06,0" fill="#fff"/></g></g></g><path d="M21.27,21.34H34.61a8.17,8.17,0,0,1,4,.9,6,6,0,0,1,2.49,2.35,6.36,6.36,0,0,1,.84,3.21,6,6,0,0,1-1.26,3.88,5.26,5.26,0,0,1-3.11,1.94A5.29,5.29,0,0,1,41,35.71a6.54,6.54,0,0,1,1.4,4.14,6.62,6.62,0,0,1-1.94,4.9A7.34,7.34,0,0,1,35,46.69H21.27ZM33.43,31.53a3,3,0,0,0,2.17-.78,2.73,2.73,0,0,0,.8-2,2.63,2.63,0,0,0-.82-2,3,3,0,0,0-2.15-.8H26.67v5.59Zm.19,10.56a3.34,3.34,0,0,0,2.4-.82A3.08,3.08,0,0,0,36,37a3.28,3.28,0,0,0-2.4-.86H26.67v6Z" fill="#fff"/><path d="M47.67,45.91a5,5,0,0,1-1.32-3.75V21.34h4.83V40.87a2.21,2.21,0,0,0,.46,1.45,1.47,1.47,0,0,0,1.21.57,3.12,3.12,0,0,0,1-.15,1.47,1.47,0,0,0,.65-.38l1,3.65a5.87,5.87,0,0,1-4,1.17A5.29,5.29,0,0,1,47.67,45.91Z" fill="#fff"/><path d="M70.29,44.33a7.45,7.45,0,0,1-2.52,2.11,6.78,6.78,0,0,1-3.14.74A7.86,7.86,0,0,1,60.45,46a7.59,7.59,0,0,1-2.9-3.31,11.79,11.79,0,0,1-1-5.18,11.73,11.73,0,0,1,1-5.12,7.9,7.9,0,0,1,2.88-3.37,7.6,7.6,0,0,1,4.2-1.18,7.06,7.06,0,0,1,3.12.72,7.17,7.17,0,0,1,2.54,2.09V28.34h4.87V46.69H70.29Zm0-10a4.54,4.54,0,0,0-1.78-1.51,5.38,5.38,0,0,0-2.4-.59,4.25,4.25,0,0,0-3.34,1.47,5.65,5.65,0,0,0-1.29,3.87,5.65,5.65,0,0,0,1.29,3.85,4.23,4.23,0,0,0,3.34,1.49,5.38,5.38,0,0,0,2.4-.59,4.54,4.54,0,0,0,1.78-1.51Z" fill="#fff"/><path d="M80,32.54a9,9,0,0,1,3.46-3.42,10,10,0,0,1,5-1.24,9.57,9.57,0,0,1,4.4.93,7.58,7.58,0,0,1,2.85,2.38l-3.15,3a4.38,4.38,0,0,0-3.88-2,4.72,4.72,0,0,0-3.59,1.47,5.42,5.42,0,0,0-1.38,3.87,5.49,5.49,0,0,0,1.38,3.89,5.06,5.06,0,0,0,5.8,1,4.78,4.78,0,0,0,1.67-1.47l3.15,2.93a7.8,7.8,0,0,1-2.83,2.39,9.32,9.32,0,0,1-4.42,1,10.12,10.12,0,0,1-5-1.23A9,9,0,0,1,80,42.52a10.58,10.58,0,0,1,0-10Z" fill="#fff"/><path d="M105.94,39.62,103.73,42v4.71H98.91V21.34h4.82V36.51l7-8.17h5.93l-7.26,8.32,7.48,10h-6Z" fill="#fff"/><path d="M21.27,59.34H39.21V64H26.67v5.51H38.94v4.63H26.67V84.69h-5.4Z" fill="#fff"/><path d="M42.86,66.34h4.82v2.5a8.15,8.15,0,0,1,2.59-2.11,6.82,6.82,0,0,1,3.27-.85v4.71a6.23,6.23,0,0,0-1.33-.15,6.33,6.33,0,0,0-2.59.61,4.32,4.32,0,0,0-1.94,1.48V84.69H42.86Z" fill="#fff"/><path d="M56.9,62.78a2.88,2.88,0,1,1,4.08,0,2.75,2.75,0,0,1-2,.86A2.78,2.78,0,0,1,56.9,62.78Zm-.36,3.56h4.82V84.69H56.54Z" fill="#fff"/><path d="M78.77,82.33a7.39,7.39,0,0,1-2.53,2.11,6.74,6.74,0,0,1-3.13.74A7.83,7.83,0,0,1,68.93,84,7.61,7.61,0,0,1,66,80.73a13.15,13.15,0,0,1,0-10.3,8,8,0,0,1,2.89-3.37,7.58,7.58,0,0,1,4.2-1.18,7.05,7.05,0,0,1,3.11.72,7.2,7.2,0,0,1,2.55,2.09V59.34h4.86V84.69H78.77Zm0-10.06A4.57,4.57,0,0,0,77,70.76a5.31,5.31,0,0,0-2.39-.59,4.24,4.24,0,0,0-3.35,1.49A5.73,5.73,0,0,0,70,75.55a5.65,5.65,0,0,0,1.29,3.85,4.24,4.24,0,0,0,3.35,1.49A5.31,5.31,0,0,0,77,80.3a4.57,4.57,0,0,0,1.79-1.51Z" fill="#fff"/><path d="M101,82.33a7.49,7.49,0,0,1-2.53,2.11,6.78,6.78,0,0,1-3.14.74A7.88,7.88,0,0,1,91.19,84a7.59,7.59,0,0,1-2.9-3.31,13.15,13.15,0,0,1,0-10.3,8,8,0,0,1,2.88-3.37,7.6,7.6,0,0,1,4.2-1.18,7.06,7.06,0,0,1,3.12.72A7.2,7.2,0,0,1,101,68.69V66.34h4.86V84.69H101Zm0-10a4.57,4.57,0,0,0-1.79-1.51,5.34,5.34,0,0,0-2.39-.59,4.25,4.25,0,0,0-3.35,1.47,6.42,6.42,0,0,0,0,7.72,4.24,4.24,0,0,0,3.35,1.49,5.34,5.34,0,0,0,2.39-.59A4.57,4.57,0,0,0,101,78.79Z" fill="#fff"/><path d="M112.63,85.9a5.78,5.78,0,0,0,2.43,1.71,8.51,8.51,0,0,0,3.08.58A5.1,5.1,0,0,0,121.78,87a4.55,4.55,0,0,0,1.3-3.5v-1.9a8.65,8.65,0,0,1-2.72,2,8.52,8.52,0,0,1-3.74.8,6,6,0,0,1-4.45-1.52,5.84,5.84,0,0,1-1.48-4.26V66.34h4.82V76.67a3.29,3.29,0,0,0,.88,2.6,3.65,3.65,0,0,0,2.51.78,4.83,4.83,0,0,0,2.39-.61A5.7,5.7,0,0,0,123.08,78V66.34h4.82v16.9a8.3,8.3,0,0,1-2.64,6.56,10.36,10.36,0,0,1-7.12,2.34,11.21,11.21,0,0,1-7.68-2.74Z" fill="#fff"/><path d="M33.78,120.33a7.49,7.49,0,0,1-2.53,2.11,6.78,6.78,0,0,1-3.14.74A7.88,7.88,0,0,1,23.93,122a7.59,7.59,0,0,1-2.9-3.31,13.15,13.15,0,0,1,0-10.3,7.92,7.92,0,0,1,2.89-3.37,7.54,7.54,0,0,1,4.19-1.18,7.06,7.06,0,0,1,3.12.72,7.2,7.2,0,0,1,2.55,2.09V97.34h4.86v25.35H33.78Zm0-10.06A4.57,4.57,0,0,0,32,108.76a5.31,5.31,0,0,0-2.39-.59,4.24,4.24,0,0,0-3.35,1.49A5.73,5.73,0,0,0,25,113.55a5.65,5.65,0,0,0,1.29,3.85,4.24,4.24,0,0,0,3.35,1.49A5.31,5.31,0,0,0,32,118.3a4.57,4.57,0,0,0,1.79-1.51Z" fill="#fff"/><path d="M43.47,108.66a9.2,9.2,0,0,1,3.38-3.49,9.39,9.39,0,0,1,4.9-1.29,9,9,0,0,1,4.79,1.27,8.72,8.72,0,0,1,3.25,3.57A11.61,11.61,0,0,1,61,114v1.06H47.3a4.75,4.75,0,0,0,1.64,3.07,5.34,5.34,0,0,0,3.65,1.23,7.78,7.78,0,0,0,2.68-.5,6.32,6.32,0,0,0,2.22-1.33l2.13,3.12a9.21,9.21,0,0,1-3.35,1.88,13.46,13.46,0,0,1-4.22.66,10.45,10.45,0,0,1-5-1.2,8.81,8.81,0,0,1-3.52-3.38,10.54,10.54,0,0,1-.05-9.94Zm5.09.29a4.94,4.94,0,0,0-1.33,2.83h9A4.65,4.65,0,0,0,55,109a4.22,4.22,0,0,0-3.29-1.25A4.13,4.13,0,0,0,48.56,109Z" fill="#fff"/><path d="M77.06,120.33a7.39,7.39,0,0,1-2.53,2.11,6.74,6.74,0,0,1-3.13.74A7.83,7.83,0,0,1,67.22,122a7.61,7.61,0,0,1-2.91-3.31,13.15,13.15,0,0,1,0-10.3,8,8,0,0,1,2.89-3.37,7.6,7.6,0,0,1,4.2-1.18,7,7,0,0,1,3.11.72,7.2,7.2,0,0,1,2.55,2.09v-2.35h4.86v18.35H77.06Zm0-10a4.57,4.57,0,0,0-1.79-1.51,5.31,5.31,0,0,0-2.39-.59,4.27,4.27,0,0,0-3.35,1.47,6.42,6.42,0,0,0,0,7.72,4.25,4.25,0,0,0,3.35,1.49,5.31,5.31,0,0,0,2.39-.59,4.57,4.57,0,0,0,1.79-1.51Z" fill="#fff"/><path d="M88,121.91a5,5,0,0,1-1.31-3.75V97.34h4.83v19.53a2.26,2.26,0,0,0,.45,1.45,1.49,1.49,0,0,0,1.22.57,3.21,3.21,0,0,0,1-.15,1.37,1.37,0,0,0,.64-.38l1,3.65a5.9,5.9,0,0,1-4,1.17A5.33,5.33,0,0,1,88,121.91Z" fill="#fff"/><path d="M98.53,117a9.71,9.71,0,0,0,2.89,1.75,8.92,8.92,0,0,0,3.45.76,4.31,4.31,0,0,0,2.3-.5,1.55,1.55,0,0,0,.78-1.38,1.43,1.43,0,0,0-.91-1.34,11.8,11.8,0,0,0-2.77-.85,27.22,27.22,0,0,1-3.65-.91,6,6,0,0,1-2.51-1.65,4.51,4.51,0,0,1-1.06-3.18,5,5,0,0,1,.89-2.88,6,6,0,0,1,2.6-2.11,9.63,9.63,0,0,1,4-.78,11.55,11.55,0,0,1,7.41,2.51l-1.94,3.3a7,7,0,0,0-2.33-1.52,8.12,8.12,0,0,0-3.1-.61,4.21,4.21,0,0,0-2.11.46,1.39,1.39,0,0,0-.78,1.25,1.27,1.27,0,0,0,.86,1.2,12.67,12.67,0,0,0,2.64.78,25.48,25.48,0,0,1,3.68,1,6.37,6.37,0,0,1,2.59,1.76,4.77,4.77,0,0,1,1.1,3.31,5.27,5.27,0,0,1-.93,3,6.13,6.13,0,0,1-2.74,2.11,10.9,10.9,0,0,1-4.27.76,13.71,13.71,0,0,1-4.58-.76,10,10,0,0,1-3.63-2.09Z" fill="#fff"/><path d="M22.49,153.05A11.14,11.14,0,0,0,26,155.52a10.79,10.79,0,0,0,4.54.95,5.48,5.48,0,0,0,3.25-.84,2.46,2.46,0,0,0,1.15-2,2.13,2.13,0,0,0-1.25-2,17.37,17.37,0,0,0-3.88-1.28A39.61,39.61,0,0,1,25,149a8.08,8.08,0,0,1-3.25-2.23,6,6,0,0,1-1.39-4.17,6.75,6.75,0,0,1,1.18-3.88,8.06,8.06,0,0,1,3.36-2.77,12.06,12.06,0,0,1,5.08-1,14,14,0,0,1,9.88,3.53l-3,3.95a10,10,0,0,0-3.4-2.07,11.08,11.08,0,0,0-3.85-.7,4.65,4.65,0,0,0-2.76.7,2.27,2.27,0,0,0-1,1.9A1.84,1.84,0,0,0,27.05,144a22.81,22.81,0,0,0,3.88,1.21,33.72,33.72,0,0,1,4.8,1.39,8.44,8.44,0,0,1,3.31,2.3A6.05,6.05,0,0,1,40.43,153a7.43,7.43,0,0,1-2.61,5.91c-1.73,1.49-4.25,2.24-7.54,2.24q-6.72,0-10.75-4Z" fill="#fff"/><path d="M49.66,140.09H42.25v-4.75H62.47v4.75H55.09v20.6H49.66Z" fill="#fff"/><path d="M79.64,156.32H68.32l-1.6,4.37H60.79l9.81-25.35h6.76l9.77,25.35H81.24Zm-9.88-4.67h8.4L74,140Z" fill="#fff"/><path d="M98.83,151.61h-4v9.08h-5.4V135.34h11.86a9.34,9.34,0,0,1,4.52,1,7.24,7.24,0,0,1,3,2.91,8.6,8.6,0,0,1,1,4.21,7.69,7.69,0,0,1-1.61,5.06A7.14,7.14,0,0,1,104.3,151l5.7,9.65h-6.19ZM103.26,141a3.91,3.91,0,0,0-2.72-1H94.88v7h5.66a3.91,3.91,0,0,0,2.72-1,3.49,3.49,0,0,0,0-5.05Z" fill="#fff"/><path d="M119.39,140.09H112v-4.75H132.2v4.75h-7.38v20.6h-5.43Z" fill="#fff"/><path d="M26.67,181.66v17h-5.4V173.34h5.55l11.74,16.42V173.34H44v25.35H38.75Z" fill="#fff"/><path d="M49.47,179.3a12.29,12.29,0,0,1,4.73-4.68,14.55,14.55,0,0,1,13.61,0,12.29,12.29,0,0,1,4.73,4.68,14.2,14.2,0,0,1,0,13.51,12.29,12.29,0,0,1-4.73,4.68,14.55,14.55,0,0,1-13.61,0,12.29,12.29,0,0,1-4.73-4.68,14.2,14.2,0,0,1,0-13.51Zm18.28,2.49a7.22,7.22,0,0,0-2.72-3A7.54,7.54,0,0,0,61,177.71a7.38,7.38,0,0,0-4,1.09,7.18,7.18,0,0,0-2.7,3,10,10,0,0,0,0,8.53,7.18,7.18,0,0,0,2.7,3,7.47,7.47,0,0,0,4,1.09A7.62,7.62,0,0,0,65,193.31a7.22,7.22,0,0,0,2.72-3,10,10,0,0,0,0-8.53Z" fill="#fff"/><path d="M92.22,181.28l-4.41,17.41H82.07l-7.25-25.35h6l4.44,18.32,4.83-18.32h4.22l4.79,18.32,4.4-18.32h6.08l-7.22,25.35H96.67Z" fill="#fff"/></g></g></svg>