<svg xmlns="http://www.w3.org/2000/svg" xmlns:xlink="http://www.w3.org/1999/xlink" viewBox="0 0 300 250"><defs><style>.cls-1{fill:none;}.cls-2{clip-path:url(#clip-path);}.cls-3{fill:#fff;}.cls-4{fill:#e52823;}</style><clipPath id="clip-path"><rect class="cls-1" x="22.48" y="208.44" width="92.83" height="23.51"/></clipPath></defs><g id="Layer_2" data-name="Layer 2"><g id="Layer_1-2" data-name="Layer 1"><g id="Layer_1-3" data-name="Layer 1"><rect width="300" height="250"/></g><g id="white_logo" data-name="white logo"><g class="cls-2"><g class="cls-2"><path class="cls-3" d="M33,212.16c14-4.27,21,6.43,21,6.43s-4.44-14.94-21-6.43"/><path class="cls-3" d="M60,212.71a4.17,4.17,0,0,1,0-.5,10.42,10.42,0,0,0-5.52,8,11.09,11.09,0,0,1,6.38-5.77,2.61,2.61,0,0,1-.86-1.75"/><path class="cls-3" d="M42.17,219s0,2.11,0,3.17c-.53,0-2.85-.14-3.87-.18,0,.57,0,1.16,0,1.73,1.22,0,2.49.17,3.71.15,0,1,0,1.91,0,2.93-1.22,0-2.45-.09-3.67-.12l0,1.87c1.31,0,2.63.14,3.94.12,0,0,0,3.12,0,3.12-2.61,0-5.69-.21-8.61-.45l.21-13c1.23.15,5,.55,8.36.66"/><path class="cls-3" d="M43.28,219l-.05,3.4c1.23.06,2.33.06,2.33.06v9.42a29.47,29.47,0,0,0,4.69-.06l-.06-9.33s2.08-.1,2.4-.13c0-1.24,0-2.22,0-3.46a81.69,81.69,0,0,1-9.26.1"/><path class="cls-3" d="M106,216.91c0,1.35,0,2.59,0,3.94.79.05,1.7.21,2.49.28,0,3.28-.08,5.76-.08,9.05,2.21.26,3.77.52,4.38.63,0-3.28.13-5.87.13-9.16,0,0,2.34.37,2.39.4V218a73.64,73.64,0,0,0-9.3-1.09"/><path class="cls-3" d="M27.05,223.25l-.41,0c0-.89,0-1.78,0-2.68l.39.05A1.35,1.35,0,0,1,28.41,222c0,1.1-.69,1.31-1.36,1.24m1-6.28-5.57-1,0,13.63c1.42.28,2.73.52,4.12.67l0-3.93,1.5.16c2.41.22,4.85-.69,4.88-4.63,0-3.5-2.3-4.51-4.88-4.89"/><path class="cls-3" d="M74.51,229.63c.63-1.62,1.25-3.14,1.87-4.76.1,1.55.16,3,.26,4.51,1.56-.17,2.8-.26,4.37-.36-.41-4.14-.75-8.58-1.16-12.72-1.33.11-2.67.24-4,.37-.75,2-1.5,4.33-2.25,6.28-.72-1.81-1.44-3.93-2.17-5.74-1.35.19-3.76.61-4,.62-.46,4.22-1,8.91-1.45,13.13,1.06-.18,3.67-.6,4.45-.7.12-1.58.24-3.26.36-4.84l1.81,4.51c.33,0,1.53-.23,1.93-.3"/><path class="cls-3" d="M99.21,222.49l-.41,0,0-2.63.4,0a1.31,1.31,0,0,1,1.36,1.38,1.13,1.13,0,0,1-1.38,1.25m3.87,2.81c1.19-.54,2-1.69,2.07-4,0-3.45-2.39-4.92-4.85-5.11-1.87-.15-3.73-.25-5.6-.3-.06,4.38-.08,8.39-.14,12.77,1.39,0,2.93.14,4.14.24,0-1.23,0-2.14.06-3.38.79,1.29,1.45,2.35,2.24,3.66,1.72.15,3.48.37,5.19.63-1.07-1.61-2-3-3.11-4.54"/><path class="cls-3" d="M86.78,224.45c.29-1.09.58-2.24.87-3.32.33,1.09.67,2.18,1,3.27-1.91.07-1.91,0-1.87,0m3-8.62c-1.65,0-3,0-4.43.09-1.14,4.24-2.48,8.79-3.62,13.05,1.27,0,2.55-.11,3.82-.11.12-.45.25-1,.37-1.42l1.93-.05s1.71,0,1.71,0c.05.17.21.61.43,1.35,1.27,0,2.54,0,3.8,0-1.37-4.5-2.75-8.82-4-12.9"/><path class="cls-3" d="M54,230.65a11.49,11.49,0,0,0,5.15,1.3c2.92,0,6-1.74,6-5,0-2.33-1.43-3.43-3.49-3.89l-1.1-.25c-.38-.09-1-.16-1-.67s.64-.73,1.06-.73a7.77,7.77,0,0,1,3,.63l1.23-3.28a9.71,9.71,0,0,0-4.24-1c-2.93,0-5.87,1.77-5.94,5,0,2.14,1.54,3.31,3.45,3.67l1,.18c.45.09,1.09.14,1.08.76s-.77.69-1.25.69A5.72,5.72,0,0,1,55.63,227c-.5,1.14-1.1,2.55-1.61,3.69"/><path class="cls-3" d="M64.56,208.44a3.28,3.28,0,1,0,3.24,3.32,3.28,3.28,0,0,0-3.24-3.32m1.19,1.21a3.94,3.94,0,0,0-3.52,2.06s0,0,0,0a2.38,2.38,0,0,1,.08-.91A2.23,2.23,0,0,1,65,209.26a2,2,0,0,1,.78.41l0,0"/></g></g></g><path class="cls-4" d="M15.49,112.78V99.09h6.73a4.53,4.53,0,0,1,1.67.28,3.4,3.4,0,0,1,1.22.75,3.08,3.08,0,0,1,.75,1.1,3.64,3.64,0,0,1,.26,1.35,3.34,3.34,0,0,1-.2,1.17,3,3,0,0,1-.52.93,3,3,0,0,1-.76.67,2.91,2.91,0,0,1-.9.37,2.57,2.57,0,0,1,1,.38,3.21,3.21,0,0,1,.85.75,3.77,3.77,0,0,1,.56,1,3.42,3.42,0,0,1,.2,1.19,4.18,4.18,0,0,1-.25,1.48,3.29,3.29,0,0,1-2,2,4.81,4.81,0,0,1-1.72.28Zm6.26-8.07a1.94,1.94,0,0,0,1.41-.48,1.83,1.83,0,0,0,0-2.51,1.91,1.91,0,0,0-1.41-.49H17.89v3.48Zm.1,5.94a2.18,2.18,0,0,0,1.53-.5,1.82,1.82,0,0,0,.54-1.4,1.88,1.88,0,0,0-.52-1.34,2,2,0,0,0-1.55-.56h-4v3.8Z"/><path class="cls-4" d="M35.43,112.78v-1.31A5.28,5.28,0,0,1,34,112.54,4.3,4.3,0,0,1,32,113a3.23,3.23,0,0,1-2.41-.82,3.17,3.17,0,0,1-.8-2.32v-7H30.9v6.22a2,2,0,0,0,.54,1.59,2.3,2.3,0,0,0,1.47.44,2.92,2.92,0,0,0,1.49-.4,3.55,3.55,0,0,0,1-.9v-6.95h2.16v9.91Z"/><path class="cls-4" d="M44.28,116.8a6.34,6.34,0,0,1-2.22-.36,5.28,5.28,0,0,1-1.78-1.12l1-1.56a3,3,0,0,0,1.34,1,4.65,4.65,0,0,0,1.66.3,2.85,2.85,0,0,0,2-.71,2.7,2.7,0,0,0,.74-2v-1.15a5.34,5.34,0,0,1-1.43,1.07,4.16,4.16,0,0,1-2.06.49,2.83,2.83,0,0,1-3.2-3.14v-6.69h2.15v5.89a2,2,0,0,0,.55,1.59,2.28,2.28,0,0,0,1.47.44,2.79,2.79,0,0,0,1.48-.4,3.73,3.73,0,0,0,1-.89v-6.63h2.15v9.42a4.83,4.83,0,0,1-.37,2,3.77,3.77,0,0,1-1,1.41,4.5,4.5,0,0,1-1.57.85A6.21,6.21,0,0,1,44.28,116.8Z"/><path class="cls-4" d="M59.85,112.78V102.19l-2.23,2.34-1.4-1.46,3.94-4h2.09v13.69Z"/><path class="cls-4" d="M67.77,112a4,4,0,0,1-.52,2,4.58,4.58,0,0,1-1.38,1.52l-1-.8a2.74,2.74,0,0,0,.49-.37,4.16,4.16,0,0,0,.46-.48,3.06,3.06,0,0,0,.34-.54,1.67,1.67,0,0,0,.19-.54l-.14,0-.21,0a1.12,1.12,0,0,1-.86-.37,1.32,1.32,0,0,1-.35-.94,1.38,1.38,0,0,1,1.39-1.4,1.49,1.49,0,0,1,1.11.48A1.9,1.9,0,0,1,67.77,112Z"/><path class="cls-4" d="M79.47,116.8a7.13,7.13,0,0,1-2.26-.32,5.22,5.22,0,0,1-1.9-1.16l1-1.56a3.41,3.41,0,0,0,1.4,1,5.07,5.07,0,0,0,1.76.29,4.23,4.23,0,0,0,1.06-.14,2.5,2.5,0,0,0,.94-.46,2.39,2.39,0,0,0,.68-.85,3,3,0,0,0,.26-1.32v-1.13A4.59,4.59,0,0,1,81,112.35a3.64,3.64,0,0,1-1.8.45,4.44,4.44,0,0,1-1.75-.34,3.7,3.7,0,0,1-1.39-1,4.59,4.59,0,0,1-.92-1.59,6.62,6.62,0,0,1-.33-2.18,6.47,6.47,0,0,1,.33-2.15,4.64,4.64,0,0,1,.92-1.6,3.8,3.8,0,0,1,1.38-1,4.38,4.38,0,0,1,1.76-.34A3.94,3.94,0,0,1,81,103a4.09,4.09,0,0,1,1.42,1.21v-1.37h2.15v9.4a4.83,4.83,0,0,1-.45,2.21,3.79,3.79,0,0,1-1.18,1.4,4.66,4.66,0,0,1-1.64.72A8.74,8.74,0,0,1,79.47,116.8Zm.39-5.93a3,3,0,0,0,1.47-.39,3.21,3.21,0,0,0,1.08-.92v-3.72a3.21,3.21,0,0,0-1.08-.92,3,3,0,0,0-1.47-.39,2.59,2.59,0,0,0-2,.87,3.88,3.88,0,0,0,0,4.61A2.61,2.61,0,0,0,79.86,110.87Z"/><path class="cls-4" d="M92,113a5.83,5.83,0,0,1-2.08-.37,4.73,4.73,0,0,1-1.65-1.06A4.9,4.9,0,0,1,87.15,110a5.7,5.7,0,0,1-.39-2.14,5.49,5.49,0,0,1,.37-2,4.9,4.9,0,0,1,1-1.65A5.11,5.11,0,0,1,89.75,103a5,5,0,0,1,2-.41,4.84,4.84,0,0,1,2,.4,4.34,4.34,0,0,1,1.54,1.12,5,5,0,0,1,1,1.7,6.79,6.79,0,0,1,.34,2.16v.53H89a3.17,3.17,0,0,0,.3,1,2.88,2.88,0,0,0,.64.87,3,3,0,0,0,1,.6,3.52,3.52,0,0,0,1.25.21,4.17,4.17,0,0,0,1.52-.29,3.56,3.56,0,0,0,1.32-.82l1,1.42a5.1,5.1,0,0,1-1.81,1.09A6.7,6.7,0,0,1,92,113Zm2.63-6a3.06,3.06,0,0,0-.2-.89,2.78,2.78,0,0,0-.51-.84,2.9,2.9,0,0,0-.85-.63,3.31,3.31,0,0,0-2.45,0,2.56,2.56,0,0,0-.85.62,2.81,2.81,0,0,0-.52.84A3.07,3.07,0,0,0,89,107Z"/><path class="cls-4" d="M101.78,113a2.53,2.53,0,0,1-1.91-.66,2.63,2.63,0,0,1-.64-1.91v-5.73H97.59v-1.86h1.64v-2.71h2.16v2.71h2v1.86h-2v5.2a1.52,1.52,0,0,0,.23.85.83.83,0,0,0,.71.34,1.35,1.35,0,0,0,.57-.12,1.14,1.14,0,0,0,.38-.25l.51,1.64a2.23,2.23,0,0,1-.78.45A3.61,3.61,0,0,1,101.78,113Z"/><path class="cls-4" d="M115.12,113a5,5,0,0,1-2.14-.43,4.85,4.85,0,0,1-1.6-1.12,4.91,4.91,0,0,1-1-1.66,5.95,5.95,0,0,1,0-4,4.78,4.78,0,0,1,1-1.65A4.85,4.85,0,0,1,113,103a5.76,5.76,0,0,1,4.27,0,4.85,4.85,0,0,1,1.6,1.12,5,5,0,0,1,1,1.65,6.11,6.11,0,0,1,0,4,5.1,5.1,0,0,1-1,1.66,4.85,4.85,0,0,1-1.6,1.12A5,5,0,0,1,115.12,113Zm0-1.91a2.61,2.61,0,0,0,2.12-1,3.08,3.08,0,0,0,.54-1,4.16,4.16,0,0,0,.19-1.27,4,4,0,0,0-.19-1.25,3.27,3.27,0,0,0-.54-1,2.57,2.57,0,0,0-.89-.71,2.71,2.71,0,0,0-1.23-.27,2.67,2.67,0,0,0-1.22.27,2.7,2.7,0,0,0-.9.71,3.1,3.1,0,0,0-.55,1,4,4,0,0,0-.19,1.25,4.16,4.16,0,0,0,.19,1.27,2.93,2.93,0,0,0,.55,1,2.86,2.86,0,0,0,.9.72A2.67,2.67,0,0,0,115.12,111.12Z"/><path class="cls-4" d="M129.11,112.78v-6.2a2,2,0,0,0-.54-1.61,2.32,2.32,0,0,0-1.47-.44,2.83,2.83,0,0,0-1.49.41,4,4,0,0,0-1.06.9v6.94H122.4v-9.91h2.15v1.33a4.86,4.86,0,0,1,.61-.57,4.68,4.68,0,0,1,.81-.52,5,5,0,0,1,1-.36,4.89,4.89,0,0,1,1.11-.13,2.86,2.86,0,0,1,3.21,3.18v7Z"/><path class="cls-4" d="M138.65,113a5.87,5.87,0,0,1-2.08-.37,4.69,4.69,0,0,1-1.64-1.06,4.92,4.92,0,0,1-1.08-1.65,5.7,5.7,0,0,1-.39-2.14,5.49,5.49,0,0,1,.37-2,4.92,4.92,0,0,1,4.66-3.17,4.84,4.84,0,0,1,2,.4,4.53,4.53,0,0,1,1.54,1.12,5,5,0,0,1,1,1.7,6.52,6.52,0,0,1,.34,2.16v.53h-7.63a3.17,3.17,0,0,0,.3,1,2.7,2.7,0,0,0,.63.87,3.12,3.12,0,0,0,1,.6,3.45,3.45,0,0,0,1.25.21,4.21,4.21,0,0,0,1.52-.29,3.52,3.52,0,0,0,1.31-.82l1,1.42a5,5,0,0,1-1.8,1.09A6.8,6.8,0,0,1,138.65,113Zm2.63-6a2.77,2.77,0,0,0-.2-.89,2.43,2.43,0,0,0-.51-.84,2.77,2.77,0,0,0-.85-.63,3.28,3.28,0,0,0-2.44,0,2.46,2.46,0,0,0-.85.62,2.84,2.84,0,0,0-.53.84,2.77,2.77,0,0,0-.2.91Z"/><path class="cls-4" d="M155.62,113a7.09,7.09,0,0,1-3-.57,6,6,0,0,1-2.08-1.55l1.38-1.66a4.59,4.59,0,0,0,3.67,1.64,2.87,2.87,0,0,0,2.06-.7,2.25,2.25,0,0,0,.75-1.72,2.2,2.2,0,0,0-.74-1.76,2.9,2.9,0,0,0-2-.66,4.41,4.41,0,0,0-1.6.28,4.06,4.06,0,0,0-1.39.89l-1.71-.49V99.09h9v2.14h-6.56v3.92a4.61,4.61,0,0,1,1.31-.83,4.45,4.45,0,0,1,1.78-.34,5,5,0,0,1,1.67.29,4.13,4.13,0,0,1,1.4.87,4.09,4.09,0,0,1,1,1.38,4.92,4.92,0,0,1,0,3.79,4.15,4.15,0,0,1-1.07,1.45,4.77,4.77,0,0,1-1.65.94A6.54,6.54,0,0,1,155.62,113Z"/><path class="cls-4" d="M168,113a4.74,4.74,0,0,1-2.5-.63,5.26,5.26,0,0,1-1.69-1.63,7.35,7.35,0,0,1-1-2.27,10.36,10.36,0,0,1,0-5.11,7.35,7.35,0,0,1,1-2.27,5.13,5.13,0,0,1,1.69-1.62,4.83,4.83,0,0,1,2.5-.61,4.74,4.74,0,0,1,2.47.61,5.13,5.13,0,0,1,1.69,1.62,7.37,7.37,0,0,1,1,2.27,10.36,10.36,0,0,1,0,5.11,7.37,7.37,0,0,1-1,2.27,5.26,5.26,0,0,1-1.69,1.63A4.65,4.65,0,0,1,168,113Zm0-2.14a2.41,2.41,0,0,0,1.4-.41,3,3,0,0,0,.94-1.09,5.68,5.68,0,0,0,.51-1.57,10.25,10.25,0,0,0,.16-1.87,11.28,11.28,0,0,0-.15-1.88,5.08,5.08,0,0,0-.51-1.57,3,3,0,0,0-.94-1.08A2.37,2.37,0,0,0,168,101a2.4,2.4,0,0,0-1.42.4,3.07,3.07,0,0,0-.93,1.08,5.37,5.37,0,0,0-.53,1.57,11.07,11.07,0,0,0,0,3.75,5.37,5.37,0,0,0,.53,1.57,3.1,3.1,0,0,0,.93,1.09A2.41,2.41,0,0,0,168,110.89Z"/><path class="cls-4" d="M178.34,105.68a3.66,3.66,0,0,1-1.39-.26,3.16,3.16,0,0,1-1.07-.72,3.11,3.11,0,0,1-.7-1.07,3.47,3.47,0,0,1-.25-1.34,3.51,3.51,0,0,1,.25-1.34,3.19,3.19,0,0,1,.7-1.09,3.16,3.16,0,0,1,1.07-.72,4,4,0,0,1,2.78,0,2.93,2.93,0,0,1,1.08.72,3.32,3.32,0,0,1,.69,1.09,3.71,3.71,0,0,1,.25,1.34,3.67,3.67,0,0,1-.25,1.34,3.23,3.23,0,0,1-.69,1.07,2.93,2.93,0,0,1-1.08.72A3.7,3.7,0,0,1,178.34,105.68Zm0-1.38a1.7,1.7,0,0,0,1.31-.55,2.09,2.09,0,0,0,.52-1.47,2.14,2.14,0,0,0-.52-1.49,1.68,1.68,0,0,0-1.31-.57,1.66,1.66,0,0,0-1.29.57,2.1,2.1,0,0,0-.52,1.49,2,2,0,0,0,.52,1.47A1.67,1.67,0,0,0,178.34,104.3ZM177,112.78l8.75-13.69h1.39l-8.76,13.69Zm8.71.25a3.66,3.66,0,0,1-1.39-.26,3.1,3.1,0,0,1-1.08-.72,3.26,3.26,0,0,1-.7-1.07,3.61,3.61,0,0,1-.24-1.33,3.71,3.71,0,0,1,.24-1.34,3.2,3.2,0,0,1,.7-1.08,3.1,3.1,0,0,1,1.08-.72,3.82,3.82,0,0,1,2.77,0,3.1,3.1,0,0,1,1.08.72,3.2,3.2,0,0,1,.7,1.08,3.71,3.71,0,0,1,.24,1.34,3.61,3.61,0,0,1-.24,1.33,3.26,3.26,0,0,1-.7,1.07,3.1,3.1,0,0,1-1.08.72A3.65,3.65,0,0,1,185.71,113Zm0-1.38a1.7,1.7,0,0,0,1.31-.55,2.08,2.08,0,0,0,.51-1.46,2.14,2.14,0,0,0-.51-1.49,1.82,1.82,0,0,0-2.63,0,2.14,2.14,0,0,0-.51,1.49,2.08,2.08,0,0,0,.51,1.46A1.71,1.71,0,0,0,185.71,111.65Z"/><path class="cls-4" d="M200.87,113a5,5,0,0,1-2.13-.43,4.9,4.9,0,0,1-1.61-1.12,5.08,5.08,0,0,1-1-1.66,5.95,5.95,0,0,1,0-4,4.69,4.69,0,0,1,2.61-2.77,5.74,5.74,0,0,1,4.26,0,4.77,4.77,0,0,1,2.61,2.77,5.95,5.95,0,0,1,0,4,4.94,4.94,0,0,1-1,1.66,4.75,4.75,0,0,1-1.6,1.12A5,5,0,0,1,200.87,113Zm0-1.91a2.68,2.68,0,0,0,1.23-.27,2.62,2.62,0,0,0,.89-.72,3.09,3.09,0,0,0,.55-1,4.48,4.48,0,0,0,.18-1.27,4.34,4.34,0,0,0-.18-1.25,3.29,3.29,0,0,0-.55-1,2.48,2.48,0,0,0-.89-.71,2.68,2.68,0,0,0-1.23-.27,2.63,2.63,0,0,0-1.21.27,2.52,2.52,0,0,0-.9.71,3.32,3.32,0,0,0-.56,1,4.34,4.34,0,0,0-.18,1.25,4.48,4.48,0,0,0,.18,1.27,3.11,3.11,0,0,0,.56,1,2.66,2.66,0,0,0,.9.72A2.63,2.63,0,0,0,200.87,111.12Z"/><path class="cls-4" d="M208.69,112.78v-8h-1.64v-1.86h1.64v-.56a3.44,3.44,0,0,1,.88-2.54,3,3,0,0,1,2.24-.88,3.56,3.56,0,0,1,1.74.37l-.47,1.62a1.55,1.55,0,0,0-.86-.23,1.3,1.3,0,0,0-1,.41,1.86,1.86,0,0,0-.36,1.25v.56h2v1.86h-2v8Z"/><path class="cls-4" d="M215,112.78v-8h-1.64v-1.86H215v-.56a3.44,3.44,0,0,1,.88-2.54,3,3,0,0,1,2.24-.88,3.56,3.56,0,0,1,1.74.37l-.47,1.62a1.55,1.55,0,0,0-.86-.23,1.3,1.3,0,0,0-1,.41,1.86,1.86,0,0,0-.36,1.25v.56h2v1.86h-2v8Z"/><path class="cls-4" d="M233.11,112.78v-1.36a4.2,4.2,0,0,1-1.39,1.17,3.74,3.74,0,0,1-1.79.44,4.46,4.46,0,0,1-1.76-.35,3.91,3.91,0,0,1-1.39-1,4.93,4.93,0,0,1-.92-1.64,6.79,6.79,0,0,1-.32-2.2,6.61,6.61,0,0,1,.32-2.15,4.93,4.93,0,0,1,.92-1.64,4,4,0,0,1,1.38-1,4.28,4.28,0,0,1,1.77-.36,3.92,3.92,0,0,1,1.76.41,4.09,4.09,0,0,1,1.42,1.21v-1.37h2.15v9.91Zm-2.55-1.66a2.78,2.78,0,0,0,.75-.11,3,3,0,0,0,.72-.28,4.8,4.8,0,0,0,.62-.42,2.58,2.58,0,0,0,.46-.53v-3.92a3.59,3.59,0,0,0-.46-.51,3.42,3.42,0,0,0-.62-.43,3.5,3.5,0,0,0-.72-.29,2.76,2.76,0,0,0-.75-.1,2.61,2.61,0,0,0-1.17.25,2.75,2.75,0,0,0-.88.67,3,3,0,0,0-.56,1,4.25,4.25,0,0,0-.2,1.32,4.36,4.36,0,0,0,.2,1.33,3,3,0,0,0,.56,1,2.55,2.55,0,0,0,.88.69A2.61,2.61,0,0,0,230.56,111.12Z"/><path class="cls-4" d="M240.6,113a2.54,2.54,0,0,1-1.9-.66,2.63,2.63,0,0,1-.65-1.91V99.09h2.16v10.84a1.52,1.52,0,0,0,.23.85.83.83,0,0,0,.71.34,1.4,1.4,0,0,0,.58-.12,1.09,1.09,0,0,0,.39-.25l.51,1.64a2.23,2.23,0,0,1-.78.45A3.69,3.69,0,0,1,240.6,113Z"/><path class="cls-4" d="M246.47,113a2.54,2.54,0,0,1-1.9-.66,2.63,2.63,0,0,1-.65-1.91V99.09h2.16v10.84a1.52,1.52,0,0,0,.23.85.83.83,0,0,0,.71.34,1.4,1.4,0,0,0,.58-.12,1.19,1.19,0,0,0,.39-.25l.51,1.64a2.23,2.23,0,0,1-.78.45A3.69,3.69,0,0,1,246.47,113Z"/><path class="cls-4" d="M19.94,134.9a5.29,5.29,0,0,1-2.06-.39,4.85,4.85,0,0,1-1.61-1.08,5,5,0,0,1-1.06-1.66,5.86,5.86,0,0,1,0-4.15A4.93,4.93,0,0,1,16.27,126a4.73,4.73,0,0,1,1.61-1.09,5.29,5.29,0,0,1,2.06-.39,5.81,5.81,0,0,1,1.32.14,5,5,0,0,1,1,.39,4.16,4.16,0,0,1,.81.57,5.46,5.46,0,0,1,.62.66l-1.42,1.3A2.63,2.63,0,0,0,20,126.41a2.77,2.77,0,0,0-2.17.91,3.4,3.4,0,0,0-.82,2.37,4,4,0,0,0,.21,1.32,3,3,0,0,0,.62,1.05,2.9,2.9,0,0,0,.94.69A3,3,0,0,0,20,133a2.64,2.64,0,0,0,2.28-1.2l1.42,1.34a5.19,5.19,0,0,1-1.44,1.23A4.56,4.56,0,0,1,19.94,134.9Z"/><path class="cls-4" d="M32.62,134.66V133.3a4.19,4.19,0,0,1-1.38,1.17,3.74,3.74,0,0,1-1.8.43,4.24,4.24,0,0,1-1.75-.35,3.81,3.81,0,0,1-1.4-1,4.91,4.91,0,0,1-.91-1.64,6.83,6.83,0,0,1-.33-2.2,6.6,6.6,0,0,1,.33-2.15,5,5,0,0,1,.91-1.65,3.91,3.91,0,0,1,1.39-1,4.23,4.23,0,0,1,1.76-.36,3.85,3.85,0,0,1,3.18,1.62v-1.37h2.16v9.91ZM30.08,133a2.9,2.9,0,0,0,.75-.11,3.7,3.7,0,0,0,.72-.28,3.91,3.91,0,0,0,.61-.43,2,2,0,0,0,.46-.52v-3.92a2.41,2.41,0,0,0-.46-.51,2.92,2.92,0,0,0-.61-.43,3.19,3.19,0,0,0-.72-.29,2.87,2.87,0,0,0-.75-.1,2.72,2.72,0,0,0-1.17.24,2.67,2.67,0,0,0-.88.68,2.91,2.91,0,0,0-.57,1,4.68,4.68,0,0,0,0,2.64,3,3,0,0,0,.57,1.05,2.57,2.57,0,0,0,.88.69A2.72,2.72,0,0,0,30.08,133Z"/><path class="cls-4" d="M40.56,134.9a2.56,2.56,0,0,1-1.9-.65,2.63,2.63,0,0,1-.64-1.91v-5.73H36.38v-1.86H38V122h2.15v2.71h2v1.86h-2v5.19a1.46,1.46,0,0,0,.24.86.82.82,0,0,0,.71.34,1.31,1.31,0,0,0,.56-.12,1,1,0,0,0,.38-.25l.52,1.64a2.43,2.43,0,0,1-.78.45A3.65,3.65,0,0,1,40.56,134.9Z"/><path class="cls-4" d="M52,134.9a2.28,2.28,0,0,1-2.54-2.56V121h2.15V131.8a1.46,1.46,0,0,0,.24.86.82.82,0,0,0,.71.34,1.39,1.39,0,0,0,.57-.12,1,1,0,0,0,.39-.25l.51,1.64a2.27,2.27,0,0,1-.77.45A3.74,3.74,0,0,1,52,134.9Z"/><path class="cls-4" d="M56.36,123.54A1.33,1.33,0,0,1,55,122.2a1.28,1.28,0,0,1,.39-.94,1.34,1.34,0,0,1,1.89,0,1.28,1.28,0,0,1,.39.94,1.33,1.33,0,0,1-1.34,1.34Zm-1.08,11.12v-9.91h2.15v9.91Z"/><path class="cls-4" d="M63.22,134.9a2.57,2.57,0,0,1-1.91-.65,2.67,2.67,0,0,1-.64-1.91v-5.73H59v-1.86h1.64V122h2.16v2.71h2v1.86h-2v5.19a1.53,1.53,0,0,0,.23.86.83.83,0,0,0,.71.34,1.32,1.32,0,0,0,.57-.12,1.14,1.14,0,0,0,.38-.25l.51,1.64a2.23,2.23,0,0,1-.78.45A3.63,3.63,0,0,1,63.22,134.9Z"/><path class="cls-4" d="M69.76,134.9a2.56,2.56,0,0,1-1.9-.65,2.63,2.63,0,0,1-.64-1.91v-5.73H65.58v-1.86h1.64V122h2.15v2.71h2v1.86h-2v5.19a1.46,1.46,0,0,0,.24.86.82.82,0,0,0,.71.34,1.31,1.31,0,0,0,.56-.12,1,1,0,0,0,.38-.25l.52,1.64a2.43,2.43,0,0,1-.78.45A3.65,3.65,0,0,1,69.76,134.9Z"/><path class="cls-4" d="M77.91,134.9a5.62,5.62,0,0,1-2.08-.37,4.45,4.45,0,0,1-1.64-1.05,4.92,4.92,0,0,1-1.08-1.65,5.7,5.7,0,0,1-.39-2.14,5.49,5.49,0,0,1,.37-2,4.81,4.81,0,0,1,1-1.65,5,5,0,0,1,1.59-1.11,5.06,5.06,0,0,1,2-.41,4.84,4.84,0,0,1,2,.4A4.53,4.53,0,0,1,81.3,126a4.9,4.9,0,0,1,1,1.7,6.52,6.52,0,0,1,.34,2.16v.53H75a3.41,3.41,0,0,0,.29,1.05,2.9,2.9,0,0,0,1.59,1.46,3.33,3.33,0,0,0,1.26.22,4.34,4.34,0,0,0,1.51-.29A3.56,3.56,0,0,0,81,132l1,1.42a4.81,4.81,0,0,1-1.8,1.08A6.55,6.55,0,0,1,77.91,134.9Zm2.63-6a3,3,0,0,0-.2-.89,2.43,2.43,0,0,0-.51-.84,2.58,2.58,0,0,0-.85-.63,2.93,2.93,0,0,0-1.25-.25,2.78,2.78,0,0,0-1.19.24,2.5,2.5,0,0,0-.86.62,2.81,2.81,0,0,0-.52.84,2.71,2.71,0,0,0-.2.91Z"/><path class="cls-4" d="M84.74,134.66v-9.91H86.9v1.43a4.83,4.83,0,0,1,1.41-1.2,3.63,3.63,0,0,1,1.81-.48v2.13a3.23,3.23,0,0,0-.66-.06,3.12,3.12,0,0,0-.72.1A3.92,3.92,0,0,0,88,127a3.33,3.33,0,0,0-.65.43,2.36,2.36,0,0,0-.45.52v6.75Z"/><path class="cls-4" d="M91.25,134.88a1.36,1.36,0,0,1-1-.43,1.4,1.4,0,0,1-.42-1,1.36,1.36,0,0,1,.42-1,1.39,1.39,0,0,1,1-.42,1.45,1.45,0,0,1,1.44,1.42,1.41,1.41,0,0,1-.43,1A1.34,1.34,0,0,1,91.25,134.88Z"/><path class="cls-4" d="M300,219.56c-14.19-27.25-44.59-46.09-79.71-46.09-47.12,0-84.89,30.6-87.89,76.23H300Z"/><path class="cls-3" d="M14.77,18.47H26a7,7,0,0,1,3.34.75,5.18,5.18,0,0,1,2.1,2,5.33,5.33,0,0,1,.7,2.7,5,5,0,0,1-1.05,3.26,4.47,4.47,0,0,1-2.63,1.64,4.43,4.43,0,0,1,2.91,1.76,5.46,5.46,0,0,1,1.19,3.48,5.62,5.62,0,0,1-1.63,4.13,6.19,6.19,0,0,1-4.58,1.63H14.77ZM25,27.05a2.5,2.5,0,0,0,1.82-.66,2.28,2.28,0,0,0,.67-1.71A2.25,2.25,0,0,0,26.81,23a2.5,2.5,0,0,0-1.8-.67h-5.7v4.71Zm.16,8.89a2.82,2.82,0,0,0,2-.69,2.57,2.57,0,0,0,0-3.61,2.75,2.75,0,0,0-2-.72H19.31v5Z"/><path class="cls-3" d="M37,39.16A4.2,4.2,0,0,1,35.89,36V18.47H40V34.92a1.9,1.9,0,0,0,.38,1.21,1.26,1.26,0,0,0,1,.48,2.78,2.78,0,0,0,.83-.12,1.22,1.22,0,0,0,.54-.32l.87,3.07a5,5,0,0,1-3.36,1A4.51,4.51,0,0,1,37,39.16Z"/><path class="cls-3" d="M56,37.83a6.22,6.22,0,0,1-2.12,1.78,5.83,5.83,0,0,1-2.64.62,6.6,6.6,0,0,1-3.52-1,6.44,6.44,0,0,1-2.45-2.79,9.92,9.92,0,0,1-.88-4.36,9.84,9.84,0,0,1,.88-4.31A6.73,6.73,0,0,1,47.74,25a6.45,6.45,0,0,1,3.54-1A6,6,0,0,1,56,26.34v-2h4.1V39.81H56Zm0-8.44a3.8,3.8,0,0,0-1.5-1.27,4.47,4.47,0,0,0-2-.5,3.58,3.58,0,0,0-2.81,1.24,4.72,4.72,0,0,0-1.09,3.26,4.72,4.72,0,0,0,1.09,3.24,3.52,3.52,0,0,0,2.81,1.25,4.45,4.45,0,0,0,2-.49A3.8,3.8,0,0,0,56,34.85Z"/><path class="cls-3" d="M64.24,27.9A7.46,7.46,0,0,1,67.15,25,8.42,8.42,0,0,1,71.37,24a8.1,8.1,0,0,1,3.71.79,6.38,6.38,0,0,1,2.4,2l-2.65,2.49a3.72,3.72,0,0,0-3.27-1.66,4,4,0,0,0-3,1.24,4.54,4.54,0,0,0-1.17,3.26,4.58,4.58,0,0,0,1.17,3.27,4.26,4.26,0,0,0,4.88.82A4,4,0,0,0,74.83,35l2.65,2.46a6.51,6.51,0,0,1-2.38,2,8,8,0,0,1-3.73.8,8.52,8.52,0,0,1-4.22-1,7.55,7.55,0,0,1-2.91-2.89,8.85,8.85,0,0,1,0-8.4Z"/><path class="cls-3" d="M86.06,33.86l-1.86,2v4H80.14V18.47H84.2V31.24l5.86-6.88h5l-6.11,7,6.3,8.44H90.16Z"/><path class="cls-3" d="M105.55,18.47h15.1v3.9H110.09V27h10.34v3.91H110.09v8.89h-4.54Z"/><path class="cls-3" d="M123.72,24.36h4.07v2.11A6.87,6.87,0,0,1,130,24.69a5.8,5.8,0,0,1,2.76-.72v4a5.59,5.59,0,0,0-1.12-.13,5.41,5.41,0,0,0-2.18.52,3.62,3.62,0,0,0-1.63,1.25V39.81h-4.07Z"/><path class="cls-3" d="M135.55,21.37a2.41,2.41,0,1,1,1.71.72A2.34,2.34,0,0,1,135.55,21.37Zm-.31,3h4.07V39.81h-4.07Z"/><path class="cls-3" d="M154,37.83a6.22,6.22,0,0,1-2.12,1.78,5.89,5.89,0,0,1-2.64.62,6.57,6.57,0,0,1-3.52-1,6.38,6.38,0,0,1-2.45-2.79,9.92,9.92,0,0,1-.88-4.36,9.84,9.84,0,0,1,.88-4.31A6.6,6.6,0,0,1,145.66,25a6.42,6.42,0,0,1,3.54-1A6,6,0,0,1,154,26.34V18.47h4.1V39.81H154Zm0-8.47a3.72,3.72,0,0,0-1.5-1.27,4.47,4.47,0,0,0-2-.5,3.55,3.55,0,0,0-2.81,1.25,4.81,4.81,0,0,0-1.09,3.28,4.72,4.72,0,0,0,1.09,3.24,3.52,3.52,0,0,0,2.81,1.25,4.45,4.45,0,0,0,2-.49,3.8,3.8,0,0,0,1.5-1.27Z"/><path class="cls-3" d="M172.72,37.83a6.35,6.35,0,0,1-2.13,1.78,5.83,5.83,0,0,1-2.64.62,6.6,6.6,0,0,1-3.52-1A6.44,6.44,0,0,1,162,36.48a9.92,9.92,0,0,1-.88-4.36,9.84,9.84,0,0,1,.88-4.31A6.73,6.73,0,0,1,164.41,25,6.45,6.45,0,0,1,168,24a6,6,0,0,1,2.62.61,6.14,6.14,0,0,1,2.15,1.76v-2h4.09V39.81h-4.09Zm0-8.44a3.9,3.9,0,0,0-1.51-1.27,4.46,4.46,0,0,0-2-.5,3.58,3.58,0,0,0-2.82,1.24,4.72,4.72,0,0,0-1.09,3.26,4.72,4.72,0,0,0,1.09,3.24,3.53,3.53,0,0,0,2.82,1.25,4.44,4.44,0,0,0,2-.49,3.9,3.9,0,0,0,1.51-1.27Z"/><path class="cls-3" d="M182.48,40.84a4.86,4.86,0,0,0,2,1.44,7.22,7.22,0,0,0,2.6.48,4.29,4.29,0,0,0,3.07-1,3.86,3.86,0,0,0,1.09-2.94v-1.6A7.23,7.23,0,0,1,189,38.85a7.16,7.16,0,0,1-3.16.68,5,5,0,0,1-3.74-1.28,5,5,0,0,1-1.25-3.59V24.36h4.07v8.7a2.79,2.79,0,0,0,.73,2.19,3.08,3.08,0,0,0,2.12.66,4.11,4.11,0,0,0,2-.51,4.93,4.93,0,0,0,1.51-1.25V24.36h4.06V38.6a7,7,0,0,1-2.22,5.52,8.76,8.76,0,0,1-6,2,9.45,9.45,0,0,1-6.47-2.31Z"/><path class="cls-3" d="M218.19,37.83a6.35,6.35,0,0,1-2.13,1.78,5.83,5.83,0,0,1-2.64.62,6.6,6.6,0,0,1-3.52-1,6.44,6.44,0,0,1-2.45-2.79,9.92,9.92,0,0,1-.88-4.36,9.84,9.84,0,0,1,.88-4.31A6.73,6.73,0,0,1,209.88,25a6.47,6.47,0,0,1,3.54-1,6,6,0,0,1,2.62.61,6.06,6.06,0,0,1,2.15,1.76V18.47h4.09V39.81h-4.09Zm0-8.47a3.75,3.75,0,0,0-1.51-1.27,4.46,4.46,0,0,0-2-.5,3.57,3.57,0,0,0-2.82,1.25,4.86,4.86,0,0,0-1.09,3.28,4.77,4.77,0,0,0,1.09,3.24,3.54,3.54,0,0,0,2.82,1.25,4.44,4.44,0,0,0,2-.49,3.83,3.83,0,0,0,1.51-1.27Z"/><path class="cls-3" d="M226.35,28a7.64,7.64,0,0,1,2.85-2.93,7.84,7.84,0,0,1,4.12-1.1,7.58,7.58,0,0,1,4,1.08,7.22,7.22,0,0,1,2.73,3,9.77,9.77,0,0,1,1,4.44v.89H229.58A4,4,0,0,0,231,36,4.52,4.52,0,0,0,234,37a6.44,6.44,0,0,0,2.25-.42,5.28,5.28,0,0,0,1.88-1.12L240,38.09a7.71,7.71,0,0,1-2.82,1.58,11.32,11.32,0,0,1-3.55.56,8.8,8.8,0,0,1-4.22-1,7.32,7.32,0,0,1-3-2.85,8.32,8.32,0,0,1-1.08-4.28A8.2,8.2,0,0,1,226.35,28Zm4.28.25a4.22,4.22,0,0,0-1.12,2.38h7.62a3.92,3.92,0,0,0-1-2.37,3.53,3.53,0,0,0-2.77-1.05A3.47,3.47,0,0,0,230.63,28.25Z"/><path class="cls-3" d="M254.63,37.83a6.22,6.22,0,0,1-2.12,1.78,5.83,5.83,0,0,1-2.64.62,6.6,6.6,0,0,1-3.52-1,6.44,6.44,0,0,1-2.45-2.79,9.92,9.92,0,0,1-.88-4.36,9.84,9.84,0,0,1,.88-4.31A6.73,6.73,0,0,1,246.33,25a6.45,6.45,0,0,1,3.54-1,6,6,0,0,1,4.76,2.37v-2h4.1V39.81h-4.1Zm0-8.44a3.8,3.8,0,0,0-1.5-1.27,4.46,4.46,0,0,0-2-.5,3.58,3.58,0,0,0-2.82,1.24,4.72,4.72,0,0,0-1.09,3.26,4.72,4.72,0,0,0,1.09,3.24,3.53,3.53,0,0,0,2.82,1.25,4.44,4.44,0,0,0,2-.49,3.8,3.8,0,0,0,1.5-1.27Z"/><path class="cls-3" d="M263.87,39.16A4.21,4.21,0,0,1,262.76,36V18.47h4.07V34.92a1.9,1.9,0,0,0,.38,1.21,1.25,1.25,0,0,0,1,.48,2.84,2.84,0,0,0,.84-.12,1.35,1.35,0,0,0,.54-.32l.86,3.07a4.91,4.91,0,0,1-3.35,1A4.5,4.5,0,0,1,263.87,39.16Z"/><path class="cls-3" d="M272.71,35a7.93,7.93,0,0,0,2.44,1.47,7.48,7.48,0,0,0,2.91.64,3.59,3.59,0,0,0,1.93-.42,1.3,1.3,0,0,0,.66-1.16,1.23,1.23,0,0,0-.77-1.13,10.06,10.06,0,0,0-2.33-.71,22.18,22.18,0,0,1-3.08-.77,5.09,5.09,0,0,1-2.11-1.39,3.78,3.78,0,0,1-.89-2.67,4.25,4.25,0,0,1,.75-2.43,5.09,5.09,0,0,1,2.19-1.78A8.07,8.07,0,0,1,277.8,24,9.72,9.72,0,0,1,284,26.09l-1.63,2.78a5.75,5.75,0,0,0-2-1.28,6.75,6.75,0,0,0-2.61-.51,3.58,3.58,0,0,0-1.77.38,1.18,1.18,0,0,0-.66,1.06,1.08,1.08,0,0,0,.72,1,11.12,11.12,0,0,0,2.23.65,21.37,21.37,0,0,1,3.1.81,5.41,5.41,0,0,1,2.18,1.47,4,4,0,0,1,.92,2.79,4.42,4.42,0,0,1-.78,2.56,5.12,5.12,0,0,1-2.3,1.78,9.22,9.22,0,0,1-3.6.64,11.58,11.58,0,0,1-3.86-.64A8.61,8.61,0,0,1,271,37.83Z"/><path class="cls-3" d="M17.36,74.17a14.08,14.08,0,0,0,4.44,3.12,13.55,13.55,0,0,0,5.73,1.2,6.9,6.9,0,0,0,4.11-1.07,3.1,3.1,0,0,0,1.46-2.56,2.68,2.68,0,0,0-1.58-2.48,20.81,20.81,0,0,0-4.9-1.62A54.07,54.07,0,0,1,20.53,69a10.25,10.25,0,0,1-4.11-2.82,7.57,7.57,0,0,1-1.75-5.27A8.65,8.65,0,0,1,16.16,56a10,10,0,0,1,4.25-3.48,15.1,15.1,0,0,1,6.4-1.28q7.64,0,12.48,4.46l-3.79,5a12.62,12.62,0,0,0-4.29-2.62,14.15,14.15,0,0,0-4.88-.89,5.81,5.81,0,0,0-3.48.9,2.81,2.81,0,0,0-1.22,2.39,2.3,2.3,0,0,0,1.49,2.2A28.79,28.79,0,0,0,28,64.23,43.91,43.91,0,0,1,34.09,66a10.59,10.59,0,0,1,4.17,2.91A7.58,7.58,0,0,1,40,74.14a9.38,9.38,0,0,1-3.28,7.46q-3.3,2.84-9.53,2.84-8.5,0-13.59-5.09Z"/><path class="cls-3" d="M51.68,57.8H42.32v-6H67.85v6H58.54v26H51.68Z"/><path class="cls-3" d="M89.55,78.29H75.25l-2,5.52H65.74l12.39-32h8.54L99,83.81H91.57Zm-12.48-5.9H87.68L82.4,57.7Z"/><path class="cls-3" d="M113.79,72.34h-5V83.81H102v-32h15a11.86,11.86,0,0,1,5.71,1.32,9.06,9.06,0,0,1,3.74,3.67,10.79,10.79,0,0,1,1.3,5.33,9.63,9.63,0,0,1-2,6.38,9,9,0,0,1-5,3.12l7.2,12.19h-7.82Zm5.59-13.46A4.94,4.94,0,0,0,116,57.65H108.8v8.84H116a4.94,4.94,0,0,0,3.43-1.23,4.4,4.4,0,0,0,0-6.38Z"/><path class="cls-3" d="M139.76,57.8H130.4v-6h25.53v6h-9.31v26h-6.86Z"/><path class="cls-3" d="M179.41,62.31v21.5h-6.82v-32h7l14.83,20.73V51.8h6.82v32h-6.58Z"/><path class="cls-3" d="M208.2,59.32a15.58,15.58,0,0,1,6-5.91,18.31,18.31,0,0,1,17.18,0,15.51,15.51,0,0,1,6,5.91,17.94,17.94,0,0,1,0,17.07,15.51,15.51,0,0,1-6,5.91,18.31,18.31,0,0,1-17.18,0,15.58,15.58,0,0,1-6-5.91,17.94,17.94,0,0,1,0-17.07Zm23.09,3.15a9,9,0,0,0-3.43-3.78,9.6,9.6,0,0,0-5.11-1.37,9.48,9.48,0,0,0-5.09,1.37,9.12,9.12,0,0,0-3.41,3.78,12.68,12.68,0,0,0,0,10.77A9.12,9.12,0,0,0,217.66,77a9.48,9.48,0,0,0,5.09,1.37A9.6,9.6,0,0,0,227.86,77a9,9,0,0,0,3.43-3.78,12.68,12.68,0,0,0,0-10.77Z"/><path class="cls-3" d="M262.2,61.83l-5.56,22h-7.25l-9.17-32h7.63l5.62,23.13,6.09-23.13h5.33l6.05,23.13,5.57-23.13h7.68l-9.12,32h-7.25Z"/></g><g id="rec"><rect class="cls-1" width="300" height="250"/></g></g></svg>