<svg xmlns="http://www.w3.org/2000/svg" xmlns:xlink="http://www.w3.org/1999/xlink" viewBox="0 0 729 91"><defs><clipPath id="clip-path"><rect x="577.8" y="11.68" width="148.37" height="114.65" fill="none"/></clipPath></defs><g id="Layer_2" data-name="Layer 2"><g id="CONTENT"><rect x="0.5" y="0.5" width="728" height="90" stroke="#231f20" stroke-miterlimit="10" stroke-width="1"/><path d="M413.11,90.5c9.82-34.77,39.92-56.95,76.15-56.95,35.68,0,66,23.85,76.09,56.7" fill="#e52823"/><g clip-path="url(#clip-path)"><g clip-path="url(#clip-path)"><path d="M613.43,56.49c15.06-4.6,22.66,6.93,22.66,6.93s-4.78-16.09-22.66-6.93" fill="#fff"/><path d="M642.53,57.08c0-.06,0-.48,0-.54a11.23,11.23,0,0,0-5.93,8.64s2-4.77,6.86-6.21a2.89,2.89,0,0,1-.93-1.89" fill="#fff"/><path d="M623.33,63.81s0,2.27,0,3.42c-.57,0-3.07-.16-4.17-.2,0,.61,0,1.24,0,1.86,1.31,0,2.68.18,4,.17,0,1.1,0,2,0,3.15-1.32,0-2.63-.1-4-.13,0,.67,0,1.34,0,2,1.41,0,2.83.15,4.25.13,0,0,0,3.36,0,3.36-2.8,0-6.12-.22-9.26-.48l.22-14c1.32.15,5.43.59,9,.7" fill="#fff"/><path d="M624.52,63.84l0,3.65c1.32.07,2.51.07,2.51.07l0,10.14a33,33,0,0,0,5.06-.07l-.06-10s2.23-.11,2.58-.14c0-1.34,0-2.39,0-3.73a89.52,89.52,0,0,1-10,.12" fill="#fff"/><path d="M692.06,61.61v4.24c.85.05,1.82.22,2.68.29,0,3.54-.09,6.21-.09,9.75,2.38.29,4.06.56,4.72.68,0-3.54.14-6.32.14-9.86,0,0,2.52.39,2.57.43V62.78a77.7,77.7,0,0,0-10-1.17" fill="#fff"/><path d="M608.16,61.67l-6-1.09,0,14.68c1.53.3,2.94.55,4.43.72l0-4.24,1.62.18c2.6.24,5.22-.74,5.25-5,0-3.76-2.47-4.85-5.25-5.26m-1.11,6.76-.45-.05,0-2.87.42,0a1.46,1.46,0,0,1,1.46,1.54c0,1.19-.74,1.42-1.46,1.34" fill="#fff"/><path d="M658.16,75.3c.67-1.75,1.34-3.38,2-5.13.1,1.68.17,3.19.28,4.86,1.67-.18,3-.28,4.7-.39-.44-4.45-.81-9.24-1.25-13.69-1.44.12-2.88.25-4.31.39-.81,2.1-1.62,4.66-2.43,6.77-.78-2-1.55-4.24-2.33-6.18-1.46.2-4.05.66-4.32.66-.5,4.55-1.07,9.6-1.57,14.14,1.15-.2,3.95-.64,4.8-.76.13-1.69.26-3.5.39-5.2q1,2.43,1.94,4.85c.36,0,1.65-.25,2.09-.32" fill="#fff"/><path d="M688.91,70.63c1.28-.57,2.2-1.81,2.24-4.27.05-3.72-2.58-5.3-5.23-5.5-2-.16-4-.26-6-.32-.06,4.71-.09,9-.15,13.74,1.5,0,3.15.16,4.46.27,0-1.33,0-2.31.06-3.64.86,1.39,1.56,2.53,2.42,3.94,1.84.16,3.74.4,5.59.67-1.16-1.73-2.2-3.2-3.36-4.89m-4.16-3-.45,0c0-.94,0-1.89,0-2.83l.43,0a1.41,1.41,0,0,1,1.46,1.49,1.22,1.22,0,0,1-1.48,1.34" fill="#fff"/><path d="M674.64,60.44c-1.79,0-3.25,0-4.77.09-1.23,4.58-2.68,9.47-3.9,14.06,1.36,0,2.75-.12,4.11-.12.13-.48.27-1,.4-1.52l2.08-.06s1.84-.06,1.84-.06c.05.18.22.66.46,1.46,1.36,0,2.73,0,4.1,0-1.48-4.84-3-9.5-4.32-13.89m-3.28,9.28.94-3.57c.36,1.17.72,2.35,1.07,3.52a18.86,18.86,0,0,1-2,0" fill="#fff"/><path d="M700.44,75.26a.75.75,0,1,1-.74.75.75.75,0,0,1,.74-.75Zm0,.12a.64.64,0,1,0,.6.63.61.61,0,0,0-.6-.63Zm-.14,1.07h-.13v-.84l.23,0a.49.49,0,0,1,.26.06.22.22,0,0,1,.08.18.2.2,0,0,1-.16.2h0c.07,0,.12.08.14.2a1,1,0,0,0,0,.21h-.14a.77.77,0,0,1-.06-.22.15.15,0,0,0-.18-.14h-.09Zm0-.47h.1c.11,0,.2,0,.2-.14s-.05-.14-.2-.14h-.1Z" fill="#fff"/><path d="M636.09,76.4a12.37,12.37,0,0,0,5.55,1.4c3.13,0,6.42-1.88,6.49-5.39,0-2.5-1.54-3.69-3.77-4.19L643.18,68c-.4-.1-1.06-.18-1-.73s.7-.78,1.16-.78a8.4,8.4,0,0,1,3.2.68c.44-1.18.88-2.36,1.33-3.53a10.34,10.34,0,0,0-4.57-1.09c-3.16,0-6.33,1.91-6.39,5.4-.05,2.31,1.65,3.57,3.7,4l1.06.2c.48.1,1.17.15,1.15.82s-.83.74-1.35.74a6.21,6.21,0,0,1-3.6-1.19c-.54,1.23-1.18,2.74-1.73,4" fill="#fff"/><path d="M647.44,52.49a3.53,3.53,0,1,0,3.48,3.57,3.53,3.53,0,0,0-3.48-3.57m1.28,1.3A4.22,4.22,0,0,0,644.93,56a.13.13,0,0,0,0,.06,2.53,2.53,0,0,1,.08-1,2.42,2.42,0,0,1,2.94-1.72,2.31,2.31,0,0,1,.83.45l0,0" fill="#fff"/></g></g><path d="M12.14,16.22H22a6,6,0,0,1,2.92.66,4.6,4.6,0,0,1,1.84,1.73A4.7,4.7,0,0,1,27.34,21a4.46,4.46,0,0,1-.92,2.86,3.86,3.86,0,0,1-2.3,1.42,3.93,3.93,0,0,1,2.55,1.54,4.82,4.82,0,0,1,1,3.06,4.91,4.91,0,0,1-1.43,3.61,5.43,5.43,0,0,1-4,1.43H12.14Zm9,7.5a2.18,2.18,0,0,0,1.59-.57,2,2,0,0,0,.59-1.5,1.94,1.94,0,0,0-.6-1.45,2.13,2.13,0,0,0-1.58-.59h-5v4.11Zm.14,7.79a2.47,2.47,0,0,0,1.76-.6,2.26,2.26,0,0,0,0-3.17,2.4,2.4,0,0,0-1.76-.63H16.12v4.4Z" fill="#fff"/><path d="M31.58,34.32a3.69,3.69,0,0,1-1-2.76V16.22h3.55V30.61a1.69,1.69,0,0,0,.34,1.07,1.08,1.08,0,0,0,.9.42,2.09,2.09,0,0,0,.72-.12.91.91,0,0,0,.48-.28l.76,2.69a4.34,4.34,0,0,1-2.94.87A3.94,3.94,0,0,1,31.58,34.32Z" fill="#fff"/><path d="M48.26,33.16a5.55,5.55,0,0,1-1.86,1.56,5.09,5.09,0,0,1-2.31.54A5.77,5.77,0,0,1,41,34.42,5.7,5.7,0,0,1,38.86,32a8.79,8.79,0,0,1-.77-3.82,8.72,8.72,0,0,1,.77-3.77A5.91,5.91,0,0,1,41,21.91a5.64,5.64,0,0,1,3.1-.87,5.09,5.09,0,0,1,2.29.53,5.24,5.24,0,0,1,1.88,1.54V21.37h3.58V34.9H48.26Zm0-7.39a3.41,3.41,0,0,0-1.32-1.11,3.87,3.87,0,0,0-1.76-.43,3.15,3.15,0,0,0-2.47,1.08,4.17,4.17,0,0,0-1,2.85,4.2,4.2,0,0,0,1,2.84,3.13,3.13,0,0,0,2.47,1.1,3.89,3.89,0,0,0,1.76-.44,3.33,3.33,0,0,0,1.32-1.11Z" fill="#fff"/><path d="M55.43,24.47A6.61,6.61,0,0,1,58,22a7.43,7.43,0,0,1,3.7-.91,7.19,7.19,0,0,1,3.25.68A5.8,5.8,0,0,1,67,23.47l-2.33,2.19a3.22,3.22,0,0,0-2.85-1.46,3.49,3.49,0,0,0-2.65,1.08,4,4,0,0,0-1,2.86,4,4,0,0,0,1,2.86,3.71,3.71,0,0,0,4.27.72,3.35,3.35,0,0,0,1.23-1.08L67,32.8a5.88,5.88,0,0,1-2.09,1.76,6.86,6.86,0,0,1-3.26.7,7.43,7.43,0,0,1-3.7-.91,6.57,6.57,0,0,1-2.54-2.53,7.73,7.73,0,0,1,0-7.35Z" fill="#fff"/><path d="M74.52,29.69,72.9,31.43V34.9H69.34V16.22H72.9V27.39l5.12-6h4.37L77,27.51l5.52,7.39H78.11Z" fill="#fff"/><path d="M91.57,16.22h13.22v3.42H95.55V23.7h9v3.41h-9V34.9h-4Z" fill="#fff"/><path d="M107.48,21.37H111v1.85a5.92,5.92,0,0,1,1.91-1.55,5,5,0,0,1,2.41-.63v3.47a4.27,4.27,0,0,0-1-.11,4.69,4.69,0,0,0-1.91.45A3.21,3.21,0,0,0,111,25.94v9h-3.55Z" fill="#fff"/><path d="M117.82,18.76a2.13,2.13,0,0,1,3-3,2.15,2.15,0,0,1,0,3,2,2,0,0,1-1.51.63A2,2,0,0,1,117.82,18.76Zm-.26,2.61h3.55V34.9h-3.55Z" fill="#fff"/><path d="M133.94,33.16a5.75,5.75,0,0,1-1.86,1.56,5.11,5.11,0,0,1-2.32.54,5.82,5.82,0,0,1-3.08-.84A5.75,5.75,0,0,1,124.54,32a8.79,8.79,0,0,1-.77-3.82,8.72,8.72,0,0,1,.77-3.77,5.84,5.84,0,0,1,2.13-2.48,5.63,5.63,0,0,1,3.09-.87,5.1,5.1,0,0,1,2.3.53,5.33,5.33,0,0,1,1.88,1.54V16.22h3.58V34.9h-3.58Zm0-7.41a3.33,3.33,0,0,0-1.32-1.11,3.92,3.92,0,0,0-1.76-.44,3.13,3.13,0,0,0-2.47,1.1,4.22,4.22,0,0,0-.95,2.86,4.2,4.2,0,0,0,.95,2.84,3.13,3.13,0,0,0,2.47,1.1,3.92,3.92,0,0,0,1.76-.44,3.33,3.33,0,0,0,1.32-1.11Z" fill="#fff"/><path d="M150.35,33.16a5.68,5.68,0,0,1-1.87,1.56,5.09,5.09,0,0,1-2.31.54,5.79,5.79,0,0,1-3.08-.84A5.68,5.68,0,0,1,141,32a8.79,8.79,0,0,1-.77-3.82,8.72,8.72,0,0,1,.77-3.77,5.78,5.78,0,0,1,2.13-2.48,5.6,5.6,0,0,1,3.09-.87,5.1,5.1,0,0,1,2.3.53,5.33,5.33,0,0,1,1.88,1.54V21.37h3.58V34.9h-3.58Zm0-7.39A3.41,3.41,0,0,0,149,24.66a3.91,3.91,0,0,0-1.77-.43,3.14,3.14,0,0,0-2.46,1.08,4.17,4.17,0,0,0-1,2.85,4.2,4.2,0,0,0,1,2.84,3.13,3.13,0,0,0,2.46,1.1,3.93,3.93,0,0,0,1.77-.44,3.33,3.33,0,0,0,1.32-1.11Z" fill="#fff"/><path d="M158.89,35.79a4.23,4.23,0,0,0,1.79,1.26,6.26,6.26,0,0,0,2.27.42,3.79,3.79,0,0,0,2.68-.89,3.36,3.36,0,0,0,1-2.58V32.6a6.56,6.56,0,0,1-2,1.46,6.27,6.27,0,0,1-2.75.58,4.38,4.38,0,0,1-3.28-1.12,4.27,4.27,0,0,1-1.09-3.13v-9H161V29a2.47,2.47,0,0,0,.65,1.92,2.7,2.7,0,0,0,1.85.57,3.57,3.57,0,0,0,1.76-.45,4.33,4.33,0,0,0,1.32-1.09V21.37h3.55V33.83a6.14,6.14,0,0,1-1.94,4.83A7.64,7.64,0,0,1,163,40.39a8.3,8.3,0,0,1-5.66-2Z" fill="#fff"/><path d="M190.13,33.16a5.55,5.55,0,0,1-1.86,1.56,5.09,5.09,0,0,1-2.31.54,5.79,5.79,0,0,1-3.08-.84A5.68,5.68,0,0,1,180.74,32a8.79,8.79,0,0,1-.77-3.82,8.72,8.72,0,0,1,.77-3.77,5.78,5.78,0,0,1,2.13-2.48A5.58,5.58,0,0,1,186,21a5.14,5.14,0,0,1,2.3.53,5.21,5.21,0,0,1,1.87,1.54V16.22h3.59V34.9h-3.59Zm0-7.41a3.29,3.29,0,0,0-1.31-1.11,3.93,3.93,0,0,0-1.77-.44,3.11,3.11,0,0,0-2.46,1.1,4.17,4.17,0,0,0-1,2.86,4.15,4.15,0,0,0,1,2.84,3.11,3.11,0,0,0,2.46,1.1,3.93,3.93,0,0,0,1.77-.44,3.29,3.29,0,0,0,1.31-1.11Z" fill="#fff"/><path d="M197.27,24.56A7.09,7.09,0,0,1,206.91,22a6.44,6.44,0,0,1,2.39,2.64,8.47,8.47,0,0,1,.85,3.87v.79H200.1a3.43,3.43,0,0,0,1.21,2.26,3.93,3.93,0,0,0,2.68.9,5.8,5.8,0,0,0,2-.36,4.65,4.65,0,0,0,1.64-1l1.56,2.3a6.81,6.81,0,0,1-2.46,1.38,9.78,9.78,0,0,1-3.11.49,7.68,7.68,0,0,1-3.69-.88,6.36,6.36,0,0,1-2.59-2.5,7.78,7.78,0,0,1,0-7.32Zm3.76.21a3.66,3.66,0,0,0-1,2.09h6.66a3.44,3.44,0,0,0-.91-2.07,3.55,3.55,0,0,0-4.77,0Z" fill="#fff"/><path d="M222,33.16a5.68,5.68,0,0,1-1.87,1.56,5.09,5.09,0,0,1-2.31.54,5.79,5.79,0,0,1-3.08-.84A5.68,5.68,0,0,1,212.63,32a8.79,8.79,0,0,1-.77-3.82,8.72,8.72,0,0,1,.77-3.77,5.78,5.78,0,0,1,2.13-2.48,5.6,5.6,0,0,1,3.09-.87,5.1,5.1,0,0,1,2.3.53A5.33,5.33,0,0,1,222,23.11V21.37h3.58V34.9H222Zm0-7.39a3.41,3.41,0,0,0-1.32-1.11,3.9,3.9,0,0,0-1.76-.43,3.15,3.15,0,0,0-2.47,1.08,4.17,4.17,0,0,0-.95,2.85,4.2,4.2,0,0,0,.95,2.84A3.13,3.13,0,0,0,219,32.1a3.92,3.92,0,0,0,1.76-.44A3.33,3.33,0,0,0,222,30.55Z" fill="#fff"/><path d="M230.1,34.32a3.69,3.69,0,0,1-1-2.76V16.22h3.55V30.61a1.63,1.63,0,0,0,.34,1.07,1.08,1.08,0,0,0,.89.42,2.11,2.11,0,0,0,.73-.12.91.91,0,0,0,.48-.28l.76,2.69a4.35,4.35,0,0,1-2.95.87A3.91,3.91,0,0,1,230.1,34.32Z" fill="#fff"/><path d="M237.84,30.67A7.6,7.6,0,0,0,240,32a6.73,6.73,0,0,0,2.55.56,3.18,3.18,0,0,0,1.69-.37,1.15,1.15,0,0,0,.58-1,1.09,1.09,0,0,0-.67-1,9.09,9.09,0,0,0-2.05-.62,19.82,19.82,0,0,1-2.69-.67,4.41,4.41,0,0,1-1.84-1.22,3.3,3.3,0,0,1-.79-2.34,3.77,3.77,0,0,1,.66-2.13,4.48,4.48,0,0,1,1.92-1.55,7.15,7.15,0,0,1,3-.57,8.47,8.47,0,0,1,5.46,1.85l-1.43,2.43a5,5,0,0,0-1.72-1.12,5.88,5.88,0,0,0-2.29-.45,3,3,0,0,0-1.55.34,1,1,0,0,0-.57.92.94.94,0,0,0,.63.88,9.44,9.44,0,0,0,1.94.58,19.26,19.26,0,0,1,2.72.7,4.6,4.6,0,0,1,1.9,1.29,3.53,3.53,0,0,1,.81,2.45,3.84,3.84,0,0,1-.68,2.23,4.56,4.56,0,0,1-2,1.56,8.1,8.1,0,0,1-3.15.56A10.27,10.27,0,0,1,239,34.7a7.61,7.61,0,0,1-2.68-1.54Z" fill="#fff"/><path d="M14.41,66.45a12.28,12.28,0,0,0,3.88,2.73,11.76,11.76,0,0,0,5,1,5.94,5.94,0,0,0,3.59-.93,2.68,2.68,0,0,0,1.28-2.24,2.34,2.34,0,0,0-1.38-2.17,18.93,18.93,0,0,0-4.29-1.42A45.86,45.86,0,0,1,17.18,62a9,9,0,0,1-3.59-2.47,6.63,6.63,0,0,1-1.54-4.61,7.51,7.51,0,0,1,1.31-4.29,8.69,8.69,0,0,1,3.71-3.05,13.16,13.16,0,0,1,5.61-1.12A15.47,15.47,0,0,1,33.6,50.33l-3.32,4.36a11,11,0,0,0-3.76-2.28,12.23,12.23,0,0,0-4.26-.78,5.08,5.08,0,0,0-3,.78,2.46,2.46,0,0,0-1.08,2.09,2,2,0,0,0,1.31,1.93,24.15,24.15,0,0,0,4.28,1.33A37.79,37.79,0,0,1,29,59.3a9.23,9.23,0,0,1,3.66,2.55,6.64,6.64,0,0,1,1.53,4.58A8.21,8.21,0,0,1,31.35,73c-1.91,1.66-4.69,2.48-8.33,2.48q-7.44,0-11.89-4.45Z" fill="#fff"/><path d="M44.44,52.13H36.25V46.88H58.59v5.25H50.44V74.9h-6Z" fill="#fff"/><path d="M77.57,70.07H65.06L63.29,74.9H56.74l10.84-28h7.47l10.8,28H79.34ZM66.65,64.9h9.29L71.32,52.05Z" fill="#fff"/><path d="M98.78,64.86H94.42v10h-6v-28h13.11a10.33,10.33,0,0,1,5,1.16,8,8,0,0,1,3.28,3.21A9.46,9.46,0,0,1,111,55.91a8.44,8.44,0,0,1-1.78,5.59,7.81,7.81,0,0,1-4.35,2.73l6.3,10.67h-6.84Zm4.9-11.78a4.32,4.32,0,0,0-3-1.07H94.42v7.72h6.25a4.32,4.32,0,0,0,3-1.07,3.87,3.87,0,0,0,0-5.58Z" fill="#fff"/><path d="M121.51,52.13h-8.19V46.88h22.34v5.25h-8.15V74.9h-6Z" fill="#fff"/><path d="M156.2,56.08V74.9h-6v-28h6.14l13,18.15V46.88h6v28h-5.76Z" fill="#fff"/><path d="M181.4,53.47a13.49,13.49,0,0,1,5.23-5.18,16,16,0,0,1,15,0,13.49,13.49,0,0,1,5.23,5.18,15.69,15.69,0,0,1,0,14.93,13.53,13.53,0,0,1-5.23,5.17,16,16,0,0,1-15,0,13.53,13.53,0,0,1-5.23-5.17,15.69,15.69,0,0,1,0-14.93Zm20.2,2.75a8,8,0,0,0-3-3.31,8.41,8.41,0,0,0-4.48-1.2,8.26,8.26,0,0,0-4.45,1.2,8,8,0,0,0-3,3.31,11.11,11.11,0,0,0,0,9.43,8,8,0,0,0,3,3.3,8.26,8.26,0,0,0,4.45,1.2A8.41,8.41,0,0,0,198.6,69a8,8,0,0,0,3-3.3,11.11,11.11,0,0,0,0-9.43Z" fill="#fff"/><path d="M228.65,55.66,223.77,74.9h-6.34l-8-28h6.68L221,67.13l5.34-20.25H231l5.29,20.25,4.87-20.25h6.72l-8,28h-6.34Z" fill="#fff"/></g><g id="REC"><rect x="0.5" y="0.5" width="728" height="90" fill="none"/></g></g></svg>