<svg xmlns="http://www.w3.org/2000/svg" viewBox="0 0 728 90"><g id="Layer_2" data-name="Layer 2"><g id="REC"><rect width="728" height="90" fill="none"/></g><g id="SUBHD"><path d="M271.07,32.08a5.82,5.82,0,0,1-2.2-.41,5.25,5.25,0,0,1-1.72-1.15A5.12,5.12,0,0,1,266,28.77a6.31,6.31,0,0,1,0-4.42,5,5,0,0,1,1.13-1.74,5.25,5.25,0,0,1,1.72-1.15,6,6,0,0,1,4.4,0A5.14,5.14,0,0,1,275,22.61a5.28,5.28,0,0,1,1.13,1.74,6.16,6.16,0,0,1,0,4.42A5.43,5.43,0,0,1,275,30.52a5.14,5.14,0,0,1-1.72,1.15A5.78,5.78,0,0,1,271.07,32.08Zm0-1.66a3.47,3.47,0,0,0,1.46-.3,3.13,3.13,0,0,0,1.12-.81,3.36,3.36,0,0,0,.71-1.22,4.81,4.81,0,0,0,0-3.06,3.44,3.44,0,0,0-.71-1.22,3.39,3.39,0,0,0-1.12-.81,3.82,3.82,0,0,0-2.92,0,3.46,3.46,0,0,0-1.11.81,3.62,3.62,0,0,0-.72,1.22,5,5,0,0,0,0,3.06,3.52,3.52,0,0,0,.72,1.22,3.18,3.18,0,0,0,1.11.81A3.43,3.43,0,0,0,271.07,30.42Z" fill="#e52823"/><path d="M280.26,32.08a2,2,0,0,1-1.48-.51,2,2,0,0,1-.51-1.49V21.22H280v8.45a1.07,1.07,0,0,0,.19.66.61.61,0,0,0,.55.27,1.13,1.13,0,0,0,.45-.09.82.82,0,0,0,.3-.2l.4,1.28a1.85,1.85,0,0,1-.61.35A2.69,2.69,0,0,1,280.26,32.08Z" fill="#e52823"/><path d="M288.29,31.89V30.83a3.4,3.4,0,0,1-1.08.92,3,3,0,0,1-1.4.33,3.45,3.45,0,0,1-1.37-.27,3.05,3.05,0,0,1-1.09-.8,3.86,3.86,0,0,1-.71-1.28,5.3,5.3,0,0,1-.25-1.71,5.2,5.2,0,0,1,.25-1.68,3.86,3.86,0,0,1,.71-1.28,3.27,3.27,0,0,1,1.08-.81,3.31,3.31,0,0,1,1.38-.28,3,3,0,0,1,2.48,1.27v-4H290V31.89Zm-2-1.29a2.38,2.38,0,0,0,.58-.08,2.75,2.75,0,0,0,.56-.23,2.27,2.27,0,0,0,.48-.33,2.25,2.25,0,0,0,.36-.4V26.5a2.66,2.66,0,0,0-.36-.4,2.77,2.77,0,0,0-.48-.34,2.72,2.72,0,0,0-.56-.22,2.38,2.38,0,0,0-.58-.08,2.07,2.07,0,0,0-.92.19,2.19,2.19,0,0,0-.68.53,2.11,2.11,0,0,0-.44.81,3.4,3.4,0,0,0,0,2.06,2.23,2.23,0,0,0,.44.82,2,2,0,0,0,1.6.73Z" fill="#e52823"/><path d="M305.54,31.89V23.65l-3.27,8.24h-.8l-3.28-8.24v8.24h-1.87V21.22H299l2.91,7.33,2.9-7.33h2.64V31.89Z" fill="#e52823"/><path d="M313.14,32.08a4,4,0,0,1-1.67-.33,3.72,3.72,0,0,1-2-2.16,4.7,4.7,0,0,1,0-3.14,3.71,3.71,0,0,1,.79-1.29,3.56,3.56,0,0,1,1.24-.87,4.21,4.21,0,0,1,1.67-.32,4.16,4.16,0,0,1,1.66.32,3.6,3.6,0,0,1,1.25.87,3.84,3.84,0,0,1,.78,1.29,4.7,4.7,0,0,1,0,3.14,3.84,3.84,0,0,1-.78,1.29,3.74,3.74,0,0,1-1.25.87A4,4,0,0,1,313.14,32.08Zm0-1.48a2,2,0,0,0,1.65-.77,2.52,2.52,0,0,0,.43-.83,3.5,3.5,0,0,0,0-2,2.42,2.42,0,0,0-.43-.81,2,2,0,0,0-.69-.56,2.14,2.14,0,0,0-2.61.56,2.25,2.25,0,0,0-.43.81,3.28,3.28,0,0,0,0,2,2.34,2.34,0,0,0,.43.83,2.25,2.25,0,0,0,.7.56A2.11,2.11,0,0,0,313.14,30.6Z" fill="#e52823"/><path d="M321.15,32.08a2,2,0,0,1-1.48-.51,2,2,0,0,1-.5-1.49V25.62h-1.28V24.16h1.28V22.05h1.68v2.11h1.57v1.46h-1.57v4.05a1.14,1.14,0,0,0,.18.66.63.63,0,0,0,.55.27,1,1,0,0,0,.44-.09.82.82,0,0,0,.3-.2l.4,1.28a1.85,1.85,0,0,1-.61.35A2.63,2.63,0,0,1,321.15,32.08Z" fill="#e52823"/><path d="M329.15,31.89V27a1.54,1.54,0,0,0-.41-1.24,1.8,1.8,0,0,0-1.14-.33,2.24,2.24,0,0,0-1.18.32,2.94,2.94,0,0,0-.8.7v5.41h-1.68V21.22h1.68v4a2.91,2.91,0,0,1,.47-.45,4.14,4.14,0,0,1,.62-.4,3.51,3.51,0,0,1,.75-.27,3.6,3.6,0,0,1,.88-.11,2.53,2.53,0,0,1,1.87.63,2.48,2.48,0,0,1,.62,1.82v5.47Z" fill="#e52823"/><path d="M336.59,32.08a4.28,4.28,0,0,1-1.62-.29,3.56,3.56,0,0,1-1.28-.82,3.79,3.79,0,0,1-.84-1.29,4.52,4.52,0,0,1,0-3.24,3.86,3.86,0,0,1,2.05-2.15,3.91,3.91,0,0,1,1.58-.32,4,4,0,0,1,1.57.31,3.4,3.4,0,0,1,1.2.88,3.75,3.75,0,0,1,.76,1.32,5.1,5.1,0,0,1,.27,1.68v.42h-6a2.58,2.58,0,0,0,.24.82,2.31,2.31,0,0,0,.49.68,2.36,2.36,0,0,0,.75.46,2.66,2.66,0,0,0,1,.17,3.44,3.44,0,0,0,1.19-.23,2.81,2.81,0,0,0,1-.64l.77,1.11a4,4,0,0,1-1.41.84A5,5,0,0,1,336.59,32.08Zm2.05-4.7a2.32,2.32,0,0,0-.15-.7,2.08,2.08,0,0,0-.4-.65,2.11,2.11,0,0,0-.67-.49,2.18,2.18,0,0,0-1-.19,2.27,2.27,0,0,0-.93.18,1.82,1.82,0,0,0-.66.48,2.08,2.08,0,0,0-.41.66,2,2,0,0,0-.16.71Z" fill="#e52823"/><path d="M341.92,31.89V24.16h1.68v1.12a4,4,0,0,1,1.1-.93,2.81,2.81,0,0,1,1.41-.38v1.67a2,2,0,0,0-.51-.05,2,2,0,0,0-.57.08,2.32,2.32,0,0,0-.57.22,2.66,2.66,0,0,0-.51.34,1.62,1.62,0,0,0-.35.4v5.26Z" fill="#e52823"/><path d="M359.07,31.89V27.22h-5.55v4.67h-1.87V21.22h1.87v4.34h5.55V21.22h1.87V31.89Z" fill="#e52823"/><path d="M368.38,31.89v-1a3.85,3.85,0,0,1-1.11.84,3.33,3.33,0,0,1-1.61.37,2.53,2.53,0,0,1-1.87-.63,2.5,2.5,0,0,1-.62-1.81V24.16h1.68V29a1.53,1.53,0,0,0,.42,1.24,1.77,1.77,0,0,0,1.15.35,2.22,2.22,0,0,0,1.16-.32,2.76,2.76,0,0,0,.8-.69V24.16h1.68v7.73Z" fill="#e52823"/><path d="M372.24,31.89V21.22h1.68v4a3,3,0,0,1,1.11-.95A3.1,3.1,0,0,1,376.4,24a3.31,3.31,0,0,1,1.38.28,3,3,0,0,1,1.09.81,3.69,3.69,0,0,1,.71,1.28,5.2,5.2,0,0,1,.26,1.68,5.3,5.3,0,0,1-.26,1.71,3.71,3.71,0,0,1-.72,1.28,3.05,3.05,0,0,1-1.09.8,3.45,3.45,0,0,1-1.37.27,3,3,0,0,1-1.39-.33,3.33,3.33,0,0,1-1.09-.92v1.06Zm1.68-2.32a2.25,2.25,0,0,0,.84.73,2.39,2.39,0,0,0,1.16.3,2,2,0,0,0,1.59-.72A2.86,2.86,0,0,0,378.1,28a3.37,3.37,0,0,0-.16-1,2.11,2.11,0,0,0-.44-.81,2.19,2.19,0,0,0-.68-.53,2,2,0,0,0-.9-.19,2.39,2.39,0,0,0-1.16.3,2.36,2.36,0,0,0-.84.74Z" fill="#e52823"/><path d="M381.54,31.89V21.22h1.68v4a3,3,0,0,1,1.11-.95A3.1,3.1,0,0,1,385.7,24a3.31,3.31,0,0,1,1.38.28,3.2,3.2,0,0,1,1.09.81,3.86,3.86,0,0,1,.71,1.28,5.2,5.2,0,0,1,.26,1.68,5.3,5.3,0,0,1-.26,1.71,3.71,3.71,0,0,1-.72,1.28,3.09,3.09,0,0,1-1.1.8,3.4,3.4,0,0,1-1.36.27,3,3,0,0,1-1.4-.33,3.29,3.29,0,0,1-1.08-.92v1.06Zm1.68-2.32a2.25,2.25,0,0,0,.84.73,2.36,2.36,0,0,0,1.16.3,2,2,0,0,0,1.59-.72,2.85,2.85,0,0,0,.58-1.86,3.37,3.37,0,0,0-.15-1,2.25,2.25,0,0,0-.44-.81,2.12,2.12,0,0,0-.69-.53,2,2,0,0,0-.89-.19,2.49,2.49,0,0,0-2,1Z" fill="#e52823"/><path d="M396.27,31.89V30.83a3.4,3.4,0,0,1-1.08.92,3,3,0,0,1-1.4.33,3.45,3.45,0,0,1-1.37-.27,2.93,2.93,0,0,1-1.08-.8,3.71,3.71,0,0,1-.72-1.28,5.3,5.3,0,0,1-.25-1.71,5.2,5.2,0,0,1,.25-1.68,3.71,3.71,0,0,1,.72-1.28,3.07,3.07,0,0,1,1.08-.81,3.23,3.23,0,0,1,1.37-.28,3,3,0,0,1,2.48,1.27V24.16H398v7.73Zm-2-1.29a2.38,2.38,0,0,0,.58-.08,2.53,2.53,0,0,0,.56-.23,2,2,0,0,0,.48-.33,1.67,1.67,0,0,0,.36-.4V26.5a1.89,1.89,0,0,0-.36-.4,2.43,2.43,0,0,0-.48-.34,2.51,2.51,0,0,0-.56-.22,2.38,2.38,0,0,0-.58-.08,2,2,0,0,0-.91.19,2.12,2.12,0,0,0-.69.53,2.25,2.25,0,0,0-.44.81,3.61,3.61,0,0,0,0,2.06,2.39,2.39,0,0,0,.44.82,2,2,0,0,0,.69.53A2,2,0,0,0,394.29,30.6Z" fill="#e52823"/><path d="M400.13,31.89V24.16h1.68v1.12a3.83,3.83,0,0,1,1.1-.93,2.81,2.81,0,0,1,1.41-.38v1.67a2,2,0,0,0-.51-.05,2,2,0,0,0-.57.08,2.56,2.56,0,0,0-.58.22,2.93,2.93,0,0,0-.5.34,1.44,1.44,0,0,0-.35.4v5.26Z" fill="#e52823"/><path d="M411.12,31.89V30.83a3.4,3.4,0,0,1-1.08.92,3,3,0,0,1-1.4.33,3.45,3.45,0,0,1-1.37-.27,3.05,3.05,0,0,1-1.09-.8,3.86,3.86,0,0,1-.71-1.28,5.3,5.3,0,0,1-.25-1.71,5.2,5.2,0,0,1,.25-1.68,3.86,3.86,0,0,1,.71-1.28,3.27,3.27,0,0,1,1.08-.81,3.31,3.31,0,0,1,1.38-.28,3,3,0,0,1,2.48,1.27v-4h1.68V31.89Zm-2-1.29a2.38,2.38,0,0,0,.58-.08,2.75,2.75,0,0,0,.56-.23,2,2,0,0,0,.48-.33,2.25,2.25,0,0,0,.36-.4V26.5a2.66,2.66,0,0,0-.36-.4,2.43,2.43,0,0,0-.48-.34,2.72,2.72,0,0,0-.56-.22,2.38,2.38,0,0,0-.58-.08,2.07,2.07,0,0,0-.92.19,2.19,2.19,0,0,0-.68.53,2.11,2.11,0,0,0-.44.81,3.4,3.4,0,0,0,0,2.06,2.23,2.23,0,0,0,.44.82,2,2,0,0,0,1.6.73Z" fill="#e52823"/><path d="M418.17,22.23A2,2,0,0,1,418,23a2.42,2.42,0,0,1-.42.62,1.81,1.81,0,0,1-.63.43,2.08,2.08,0,0,1-.78.15,2,2,0,0,1-.77-.15,1.81,1.81,0,0,1-.63-.43,2,2,0,0,1-.42-2.17,1.93,1.93,0,0,1,1.05-1.05,2,2,0,0,1,.77-.15,2.08,2.08,0,0,1,.78.15,1.93,1.93,0,0,1,.63.42,2.31,2.31,0,0,1,.42.63A2,2,0,0,1,418.17,22.23Zm-.28,0a1.67,1.67,0,0,0-.13-.67,1.58,1.58,0,0,0-.37-.54,1.7,1.7,0,0,0-.54-.36,1.62,1.62,0,0,0-.66-.13,1.59,1.59,0,0,0-.66.13A1.82,1.82,0,0,0,415,21a1.58,1.58,0,0,0-.37.54,1.86,1.86,0,0,0-.13.67,1.79,1.79,0,0,0,.13.65,1.64,1.64,0,0,0,.37.53,1.68,1.68,0,0,0,.54.37,1.59,1.59,0,0,0,.66.13,1.62,1.62,0,0,0,.66-.13,1.58,1.58,0,0,0,.54-.37,1.64,1.64,0,0,0,.37-.53A1.61,1.61,0,0,0,417.89,22.23Zm-1.16,1.13-.58-.89h-.41v.89h-.3V21.1h.92a.8.8,0,0,1,.52.18.67.67,0,0,1,.22.51.59.59,0,0,1-.08.31.51.51,0,0,1-.17.21.67.67,0,0,1-.19.12l-.15,0,.6.9Zm0-1.57a.39.39,0,0,0-.13-.31.45.45,0,0,0-.28-.11h-.62v.82h.62a.45.45,0,0,0,.28-.11A.36.36,0,0,0,416.77,21.79Z" fill="#e52823"/><path d="M271.47,51.89V50.83a3.4,3.4,0,0,1-1.08.92,3,3,0,0,1-1.4.33,3.49,3.49,0,0,1-1.37-.27,2.93,2.93,0,0,1-1.08-.8,3.88,3.88,0,0,1-.72-1.28,5.3,5.3,0,0,1-.25-1.71,5.2,5.2,0,0,1,.25-1.68,3.88,3.88,0,0,1,.72-1.28,3.07,3.07,0,0,1,1.08-.81A3.23,3.23,0,0,1,269,44a3.11,3.11,0,0,1,1.38.32,3,3,0,0,1,1.1,1v-4h1.68V51.89Zm-2-1.29a2.32,2.32,0,0,0,.58-.08,2.53,2.53,0,0,0,.56-.23,2,2,0,0,0,.48-.33,1.5,1.5,0,0,0,.36-.4V46.5a1.89,1.89,0,0,0-.36-.4,2.43,2.43,0,0,0-.48-.34,2.51,2.51,0,0,0-.56-.22,2.32,2.32,0,0,0-.58-.08,2,2,0,0,0-.91.19,2.12,2.12,0,0,0-.69.53,2.25,2.25,0,0,0-.44.81,3.61,3.61,0,0,0,0,2.06,2.39,2.39,0,0,0,.44.82,1.88,1.88,0,0,0,.69.53A2,2,0,0,0,269.49,50.6Z" fill="#e52823"/><path d="M278.83,52.08a4,4,0,0,1-1.66-.33,3.74,3.74,0,0,1-1.25-.87,3.84,3.84,0,0,1-.78-1.29,4.54,4.54,0,0,1,0-3.14,3.84,3.84,0,0,1,.78-1.29,3.6,3.6,0,0,1,1.25-.87,4.16,4.16,0,0,1,1.66-.32,4.21,4.21,0,0,1,1.67.32,3.56,3.56,0,0,1,1.24.87,3.71,3.71,0,0,1,.79,1.29,4.7,4.7,0,0,1,0,3.14,3.72,3.72,0,0,1-2,2.16A4,4,0,0,1,278.83,52.08Zm0-1.48a2.06,2.06,0,0,0,1-.21,2.14,2.14,0,0,0,.7-.56,2.32,2.32,0,0,0,.42-.83,3.28,3.28,0,0,0,0-2,2.23,2.23,0,0,0-.42-.81,2,2,0,0,0-.7-.56,2.25,2.25,0,0,0-1.9,0,2.15,2.15,0,0,0-.71.56,2.42,2.42,0,0,0-.43.81,3.5,3.5,0,0,0,0,2,2.52,2.52,0,0,0,.43.83,2.29,2.29,0,0,0,.71.56A2.06,2.06,0,0,0,278.83,50.6Z" fill="#e52823"/><path d="M287.66,55a5.93,5.93,0,0,1-1.76-.25,4.24,4.24,0,0,1-1.48-.9l.78-1.22a2.7,2.7,0,0,0,1.09.77,3.9,3.9,0,0,0,1.37.22,3.31,3.31,0,0,0,.83-.1,1.92,1.92,0,0,0,.73-.36,1.86,1.86,0,0,0,.53-.67,2.23,2.23,0,0,0,.2-1v-.88a3.5,3.5,0,0,1-1.08,1,2.88,2.88,0,0,1-1.4.35,3.49,3.49,0,0,1-1.37-.27,3,3,0,0,1-1.08-.76,3.52,3.52,0,0,1-.72-1.24,5.24,5.24,0,0,1-.25-1.7,5.12,5.12,0,0,1,.25-1.68A3.57,3.57,0,0,1,285,45a2.86,2.86,0,0,1,1.08-.77,3.38,3.38,0,0,1,1.37-.27A3,3,0,0,1,290,45.24V44.16h1.68v7.33a3.86,3.86,0,0,1-.35,1.73,2.9,2.9,0,0,1-.92,1.09,3.78,3.78,0,0,1-1.28.56A6.87,6.87,0,0,1,287.66,55ZM288,50.4a2.37,2.37,0,0,0,1.14-.3,2.32,2.32,0,0,0,.84-.72v-2.9a2.53,2.53,0,0,0-.84-.72,2.37,2.37,0,0,0-1.14-.3,2,2,0,0,0-1.6.68,2.6,2.6,0,0,0-.59,1.8,2.58,2.58,0,0,0,.59,1.79A2,2,0,0,0,288,50.4Z" fill="#e52823"/><path d="M297.94,51.89V41.22h1.68v4a3,3,0,0,1,1.11-1A3.1,3.1,0,0,1,302.1,44a3.31,3.31,0,0,1,1.38.28,3.2,3.2,0,0,1,1.09.81,3.86,3.86,0,0,1,.71,1.28,5.2,5.2,0,0,1,.26,1.68,5.3,5.3,0,0,1-.26,1.71,3.71,3.71,0,0,1-.72,1.28,3,3,0,0,1-1.1.8,3.4,3.4,0,0,1-1.36.27,3,3,0,0,1-1.4-.33,3.29,3.29,0,0,1-1.08-.92v1.06Zm1.68-2.32a2.25,2.25,0,0,0,.84.73,2.36,2.36,0,0,0,1.16.3,1.94,1.94,0,0,0,1.59-.72,2.85,2.85,0,0,0,.58-1.86,3.37,3.37,0,0,0-.15-1,2.25,2.25,0,0,0-.44-.81,2.12,2.12,0,0,0-.69-.53,2,2,0,0,0-.89-.19,2.49,2.49,0,0,0-2,1Z" fill="#e52823"/><path d="M308.08,43.22a1,1,0,1,1,.74-.3A1,1,0,0,1,308.08,43.22Zm-.85,8.67V44.16h1.68v7.73Z" fill="#e52823"/><path d="M313.74,52.08a5.24,5.24,0,0,1-1.85-.31,4.18,4.18,0,0,1-1.46-.9l.77-1.2a3,3,0,0,0,.5.4,3.51,3.51,0,0,0,.64.34,4.34,4.34,0,0,0,.72.24,3.2,3.2,0,0,0,.75.09,1.93,1.93,0,0,0,1.15-.28.87.87,0,0,0,.38-.74.62.62,0,0,0-.34-.58,3.7,3.7,0,0,0-.86-.32L313,48.56a4.55,4.55,0,0,1-1.13-.38,2.43,2.43,0,0,1-.86-.69,1.84,1.84,0,0,1-.35-1.18,2.07,2.07,0,0,1,.79-1.65,2.76,2.76,0,0,1,1-.5,4,4,0,0,1,1.3-.19,4.66,4.66,0,0,1,1.74.3,4.41,4.41,0,0,1,1.25.77l-.7,1.19a2.76,2.76,0,0,0-.95-.66,3.24,3.24,0,0,0-1.34-.27,1.77,1.77,0,0,0-1,.27.81.81,0,0,0-.37.69.55.55,0,0,0,.34.51,3.66,3.66,0,0,0,.87.3l1.12.25a4.86,4.86,0,0,1,1.13.4,2.55,2.55,0,0,1,.87.72,2,2,0,0,1,.34,1.23,2.24,2.24,0,0,1-.21,1,2.15,2.15,0,0,1-.61.77,3.18,3.18,0,0,1-1,.5A4.83,4.83,0,0,1,313.74,52.08Z" fill="#e52823"/><path d="M322.16,52.08a4.2,4.2,0,0,1-1.61-.3,3.81,3.81,0,0,1-2.08-2.14,4.67,4.67,0,0,1,0-3.24,3.84,3.84,0,0,1,2.08-2.13,4.2,4.2,0,0,1,1.61-.3,4.58,4.58,0,0,1,1,.11,3.59,3.59,0,0,1,.82.31,2.94,2.94,0,0,1,.63.44,3.89,3.89,0,0,1,.48.52l-1.1,1a2.07,2.07,0,0,0-1.78-.9,2.2,2.2,0,0,0-1.7.71A2.7,2.7,0,0,0,319.9,48a3.09,3.09,0,0,0,.17,1,2.31,2.31,0,0,0,.48.82,2.06,2.06,0,0,0,.74.53,2.24,2.24,0,0,0,.95.2,2.07,2.07,0,0,0,1.78-.93l1.1,1a4,4,0,0,1-1.12,1A3.66,3.66,0,0,1,322.16,52.08Z" fill="#e52823"/><path d="M331.82,51.89v-1a3.85,3.85,0,0,1-1.11.84,3.33,3.33,0,0,1-1.61.37,2.53,2.53,0,0,1-1.87-.63,2.5,2.5,0,0,1-.62-1.81V44.16h1.68V49a1.53,1.53,0,0,0,.42,1.24,1.77,1.77,0,0,0,1.15.35,2.22,2.22,0,0,0,1.16-.32,2.76,2.76,0,0,0,.8-.69V44.16h1.68v7.73Z" fill="#e52823"/><path d="M336.53,43.22a1,1,0,0,1-.74-.3,1.06,1.06,0,0,1,0-1.48,1,1,0,0,1,.74-.3,1,1,0,0,1,0,2.08Zm-.85,8.67V44.16h1.68v7.73Z" fill="#e52823"/><path d="M341.87,52.08a2,2,0,0,1-1.49-.51,2.06,2.06,0,0,1-.49-1.49V45.62h-1.28V44.16h1.28V42.05h1.68v2.11h1.57v1.46h-1.57v4.05a1.14,1.14,0,0,0,.18.66.62.62,0,0,0,.55.27,1,1,0,0,0,.44-.09.82.82,0,0,0,.3-.2l.4,1.28a1.85,1.85,0,0,1-.61.35A2.63,2.63,0,0,1,341.87,52.08Z" fill="#e52823"/><path d="M347.3,52.08a5.26,5.26,0,0,1-1.86-.31,4.18,4.18,0,0,1-1.46-.9l.77-1.2a3.67,3.67,0,0,0,1.14.74,4.16,4.16,0,0,0,.73.24,3.12,3.12,0,0,0,.74.09,1.91,1.91,0,0,0,1.15-.28.88.88,0,0,0,.39-.74.63.63,0,0,0-.35-.58,3.7,3.7,0,0,0-.86-.32l-1.13-.26a4.55,4.55,0,0,1-1.13-.38,2.43,2.43,0,0,1-.86-.69,1.84,1.84,0,0,1-.35-1.18,2.07,2.07,0,0,1,.79-1.65,2.76,2.76,0,0,1,.95-.5,4,4,0,0,1,1.3-.19,4.66,4.66,0,0,1,1.74.3,4.47,4.47,0,0,1,1.26.77l-.71,1.19a2.76,2.76,0,0,0-.95-.66,3.24,3.24,0,0,0-1.34-.27,1.76,1.76,0,0,0-1,.27.8.8,0,0,0-.38.69.55.55,0,0,0,.34.51,3.66,3.66,0,0,0,.87.3l1.13.25a5,5,0,0,1,1.12.4,2.55,2.55,0,0,1,.87.72,2,2,0,0,1,.34,1.23,2.24,2.24,0,0,1-.21,1,2.15,2.15,0,0,1-.61.77,3.08,3.08,0,0,1-1,.5A4.81,4.81,0,0,1,347.3,52.08Z" fill="#e52823"/><path d="M354.27,51.28a3,3,0,0,1-.41,1.55A3.43,3.43,0,0,1,352.78,54L352,53.4a4.28,4.28,0,0,0,.38-.29,4.14,4.14,0,0,0,.35-.38,2.07,2.07,0,0,0,.27-.41,1.3,1.3,0,0,0,.15-.43l-.11,0-.16,0a.91.91,0,0,1-.68-.29,1,1,0,0,1-.27-.73,1.09,1.09,0,0,1,.31-.77,1,1,0,0,1,.78-.32,1.15,1.15,0,0,1,.86.37A1.46,1.46,0,0,1,354.27,51.28Z" fill="#e52823"/><path d="M364.22,52.08a4.15,4.15,0,0,1-2-.44,3.67,3.67,0,0,1-1.36-1.2,5.33,5.33,0,0,1-.78-1.76,9,9,0,0,1-.25-2.12,7.12,7.12,0,0,1,.31-2.15,5.11,5.11,0,0,1,.89-1.74,4.28,4.28,0,0,1,1.48-1.18,4.49,4.49,0,0,1,2-.43,4.55,4.55,0,0,1,1.75.32,3.93,3.93,0,0,1,1.3.86l-.86,1.41a3.48,3.48,0,0,0-.92-.68,3,3,0,0,0-1.27-.25,2.48,2.48,0,0,0-1.2.29,2.74,2.74,0,0,0-.89.77,3.33,3.33,0,0,0-.54,1.12,4.57,4.57,0,0,0-.19,1.34v.31a3.42,3.42,0,0,1,.49-.54,4.65,4.65,0,0,1,.66-.48,4.21,4.21,0,0,1,.81-.35,3.07,3.07,0,0,1,.9-.14,4.15,4.15,0,0,1,1.37.23,3.51,3.51,0,0,1,1.15.65,3.06,3.06,0,0,1,.78,1.08,3.72,3.72,0,0,1,.29,1.5,3.45,3.45,0,0,1-.28,1.39,3.52,3.52,0,0,1-.79,1.15,3.7,3.7,0,0,1-1.24.76A4.46,4.46,0,0,1,364.22,52.08Zm-.11-1.66a2.45,2.45,0,0,0,.93-.17,2,2,0,0,0,.67-.44,1.83,1.83,0,0,0,.41-.6,1.68,1.68,0,0,0,.13-.65,1.87,1.87,0,0,0-.17-.85,1.64,1.64,0,0,0-.48-.59,2.09,2.09,0,0,0-.7-.35,3.12,3.12,0,0,0-.82-.11,2.64,2.64,0,0,0-1.31.34,2.82,2.82,0,0,0-1,.91,3.53,3.53,0,0,0,.18.88,2.43,2.43,0,0,0,.43.81,2.48,2.48,0,0,0,.72.59A2.25,2.25,0,0,0,364.11,50.42Z" fill="#e52823"/><path d="M376,52.08a2,2,0,0,1-1.48-.51,2,2,0,0,1-.51-1.49V41.22h1.68v8.45a1.07,1.07,0,0,0,.19.66.61.61,0,0,0,.55.27,1.13,1.13,0,0,0,.45-.09.82.82,0,0,0,.3-.2l.4,1.28a1.85,1.85,0,0,1-.61.35A2.69,2.69,0,0,1,376,52.08Z" fill="#e52823"/><path d="M378.56,51.89V41.22h1.68v4a3,3,0,0,1,1.11-1,3.1,3.1,0,0,1,1.37-.32,3.31,3.31,0,0,1,1.38.28,3.11,3.11,0,0,1,1.09.81,3.69,3.69,0,0,1,.71,1.28,5.2,5.2,0,0,1,.26,1.68,5.3,5.3,0,0,1-.26,1.71,3.71,3.71,0,0,1-.72,1.28,3.05,3.05,0,0,1-1.09.8,3.45,3.45,0,0,1-1.37.27,3,3,0,0,1-1.39-.33,3.33,3.33,0,0,1-1.09-.92v1.06Zm1.68-2.32a2.25,2.25,0,0,0,.84.73,2.39,2.39,0,0,0,1.16.3,1.94,1.94,0,0,0,1.59-.72,2.86,2.86,0,0,0,.59-1.86,3.37,3.37,0,0,0-.16-1,2.11,2.11,0,0,0-.44-.81,2.19,2.19,0,0,0-.68-.53,2,2,0,0,0-.9-.19,2.39,2.39,0,0,0-1.16.3,2.36,2.36,0,0,0-.84.74Z" fill="#e52823"/><path d="M390.51,52.08a5.24,5.24,0,0,1-1.85-.31,4.09,4.09,0,0,1-1.46-.9l.77-1.2a3.39,3.39,0,0,0,.49.4,4.32,4.32,0,0,0,.64.34,4.79,4.79,0,0,0,.73.24,3.2,3.2,0,0,0,.75.09,1.93,1.93,0,0,0,1.15-.28.9.9,0,0,0,.38-.74.62.62,0,0,0-.34-.58,3.62,3.62,0,0,0-.87-.32c-.34-.09-.72-.17-1.13-.26a4.48,4.48,0,0,1-1.12-.38,2.47,2.47,0,0,1-.87-.69,1.84,1.84,0,0,1-.34-1.18,2.19,2.19,0,0,1,.2-.91,2.17,2.17,0,0,1,.58-.74,2.91,2.91,0,0,1,1-.5,4,4,0,0,1,1.3-.19,4.66,4.66,0,0,1,1.74.3,4.41,4.41,0,0,1,1.25.77l-.7,1.19a2.81,2.81,0,0,0-1-.66,3.16,3.16,0,0,0-1.33-.27,1.77,1.77,0,0,0-1.05.27.81.81,0,0,0-.37.69.55.55,0,0,0,.34.51,3.73,3.73,0,0,0,.86.3l1.13.25a5,5,0,0,1,1.13.4,2.51,2.51,0,0,1,.86.72,2,2,0,0,1,.35,1.23,2.24,2.24,0,0,1-.21,1,2.08,2.08,0,0,1-.62.77,3.12,3.12,0,0,1-1,.5A4.88,4.88,0,0,1,390.51,52.08Z" fill="#e52823"/><path d="M396.29,52.07a1.07,1.07,0,0,1-.8-.34,1.13,1.13,0,0,1-.32-.8,1.06,1.06,0,0,1,.32-.77,1.09,1.09,0,0,1,.8-.33,1.07,1.07,0,0,1,.79.33,1,1,0,0,1,.33.77,1.09,1.09,0,0,1-.33.8A1,1,0,0,1,396.29,52.07Z" fill="#e52823"/><path d="M269.25,72.05a5.87,5.87,0,0,1-2.17-.54,5.25,5.25,0,0,1-1.56-1.11L266.58,69a4.91,4.91,0,0,0,1.12.9,4.32,4.32,0,0,0,1.55.54V67.28c-.42-.11-.83-.23-1.23-.37a4.22,4.22,0,0,1-1.08-.55,2.69,2.69,0,0,1-.77-.87,2.59,2.59,0,0,1-.3-1.31,2.78,2.78,0,0,1,.24-1.14,3.06,3.06,0,0,1,.68-1,3.84,3.84,0,0,1,1.07-.68,4.57,4.57,0,0,1,1.39-.32V59.6h1.28v1.49a6.22,6.22,0,0,1,1.78.48,4.91,4.91,0,0,1,1.43,1l-1.05,1.39a3.79,3.79,0,0,0-1-.74,5.33,5.33,0,0,0-1.14-.4v2.77c.41.11.83.23,1.25.38a4.16,4.16,0,0,1,1.11.57,2.94,2.94,0,0,1,.8.91,2.63,2.63,0,0,1,.31,1.34,3.28,3.28,0,0,1-.21,1.17,3.06,3.06,0,0,1-.63,1,3.16,3.16,0,0,1-1.08.73,4.64,4.64,0,0,1-1.55.37v1.44h-1.28Zm-1.46-8a.85.85,0,0,0,.41.74,4,4,0,0,0,1.05.46V62.74a1.87,1.87,0,0,0-1.06.43A1.12,1.12,0,0,0,267.79,64.05Zm4.29,4.9a.94.94,0,0,0-.44-.84,4.1,4.1,0,0,0-1.11-.51v2.79a1.88,1.88,0,0,0,1.19-.56A1.33,1.33,0,0,0,272.08,69Z" fill="#e52823"/><path d="M277.7,71.89V63.64L276,65.46l-1.09-1.14,3.08-3.1h1.63V71.89Z" fill="#e52823"/><path d="M285.12,72.08a5.44,5.44,0,0,1-2.45-.5,4.58,4.58,0,0,1-1.58-1.22l1-1.24a3.5,3.5,0,0,0,1.3,1,4.2,4.2,0,0,0,1.65.34A2.64,2.64,0,0,0,286.7,70a1.41,1.41,0,0,0,.58-1.18,1.23,1.23,0,0,0-.61-1.16,3.48,3.48,0,0,0-1.76-.36h-.71l-.5,0V65.59h1.21a4,4,0,0,0,.88-.08,2.07,2.07,0,0,0,.7-.25,1.3,1.3,0,0,0,.46-.44,1.14,1.14,0,0,0,.17-.63,1.22,1.22,0,0,0-.17-.64,1.27,1.27,0,0,0-.46-.46,2.38,2.38,0,0,0-.69-.28,3.22,3.22,0,0,0-.84-.1,3.73,3.73,0,0,0-2.77,1.19l-1-1.17a5,5,0,0,1,1.59-1.21,5.33,5.33,0,0,1,2.32-.47,5.84,5.84,0,0,1,1.56.2,3.57,3.57,0,0,1,1.21.57A2.46,2.46,0,0,1,289,63.92a2.12,2.12,0,0,1-.21,1,2.35,2.35,0,0,1-.54.73,2.92,2.92,0,0,1-.74.5,3.34,3.34,0,0,1-.82.25,3.09,3.09,0,0,1,.82.23,2.83,2.83,0,0,1,.81.49,2.65,2.65,0,0,1,.61.79,2.34,2.34,0,0,1,.24,1.09,2.77,2.77,0,0,1-.28,1.26,2.7,2.7,0,0,1-.81,1,3.72,3.72,0,0,1-1.27.65A5.4,5.4,0,0,1,285.12,72.08Z" fill="#e52823"/><path d="M291.86,72.07a1.07,1.07,0,0,1-.8-.34,1.13,1.13,0,0,1-.32-.8,1.06,1.06,0,0,1,.32-.77,1.09,1.09,0,0,1,.8-.33,1.07,1.07,0,0,1,.79.33,1,1,0,0,1,.33.77,1.09,1.09,0,0,1-.33.8A1,1,0,0,1,291.86,72.07Z" fill="#e52823"/><path d="M298.08,72.07a4.44,4.44,0,0,1-1.77-.33,4.21,4.21,0,0,1-1.3-.86l.88-1.42a3.21,3.21,0,0,0,.92.7,2.94,2.94,0,0,0,1.27.24,2.55,2.55,0,0,0,1.26-.3,2.7,2.7,0,0,0,.88-.8,3.76,3.76,0,0,0,.51-1.13,5.07,5.07,0,0,0,.17-1.29v-.15a.77.77,0,0,0,0-.15,3.24,3.24,0,0,1-.47.54,5,5,0,0,1-.67.48,3.85,3.85,0,0,1-.8.34,3.52,3.52,0,0,1-.92.13,4.14,4.14,0,0,1-1.37-.22,3.23,3.23,0,0,1-1.14-.65,3,3,0,0,1-.77-1.08,3.51,3.51,0,0,1-.29-1.49,3.42,3.42,0,0,1,.28-1.39,3.38,3.38,0,0,1,.79-1.15,3.78,3.78,0,0,1,1.24-.77,4.67,4.67,0,0,1,1.62-.28,4.32,4.32,0,0,1,2,.44,3.88,3.88,0,0,1,1.37,1.2,5.52,5.52,0,0,1,.78,1.76,9,9,0,0,1,.24,2.11,7.52,7.52,0,0,1-.3,2.16,5.1,5.1,0,0,1-.9,1.75,4.15,4.15,0,0,1-1.47,1.18A4.66,4.66,0,0,1,298.08,72.07Zm.45-5.6a2.61,2.61,0,0,0,1.3-.35,3,3,0,0,0,1-.92,4,4,0,0,0-.19-.87,2.66,2.66,0,0,0-.42-.8,2.41,2.41,0,0,0-2.7-.65,2.09,2.09,0,0,0-.67.43,1.65,1.65,0,0,0-.41.6,1.71,1.71,0,0,0-.13.65,1.91,1.91,0,0,0,.17.86A1.64,1.64,0,0,0,297,66a2.05,2.05,0,0,0,.71.35A3.2,3.2,0,0,0,298.53,66.47Z" fill="#e52823"/><path d="M307.7,72.07a4.37,4.37,0,0,1-1.77-.33,4.26,4.26,0,0,1-1.31-.86l.88-1.42a3.35,3.35,0,0,0,.92.7,3,3,0,0,0,1.28.24,2.51,2.51,0,0,0,1.25-.3,2.6,2.6,0,0,0,.88-.8,3.53,3.53,0,0,0,.51-1.13,4.66,4.66,0,0,0,.17-1.29v-.15a.76.76,0,0,0,0-.15,2.91,2.91,0,0,1-.48.54,4.88,4.88,0,0,1-.66.48,3.94,3.94,0,0,1-.81.34,3.46,3.46,0,0,1-.92.13,4.18,4.18,0,0,1-1.37-.22,3.1,3.1,0,0,1-1.13-.65,2.89,2.89,0,0,1-.78-1.08,3.67,3.67,0,0,1-.29-1.49,3.59,3.59,0,0,1,.28-1.39,3.41,3.41,0,0,1,.8-1.15,3.78,3.78,0,0,1,1.24-.77A4.58,4.58,0,0,1,308,61a4.32,4.32,0,0,1,2,.44,4,4,0,0,1,1.37,1.2,5.29,5.29,0,0,1,.77,1.76,8.53,8.53,0,0,1,.25,2.11,7.52,7.52,0,0,1-.3,2.16,5.47,5.47,0,0,1-.9,1.75,4.24,4.24,0,0,1-1.47,1.18A4.69,4.69,0,0,1,307.7,72.07Zm.44-5.6a2.65,2.65,0,0,0,1.31-.35,3.13,3.13,0,0,0,1-.92,4.69,4.69,0,0,0-.19-.87,2.69,2.69,0,0,0-.43-.8,2.06,2.06,0,0,0-.71-.59,2.26,2.26,0,0,0-1-.23,2.21,2.21,0,0,0-.93.17,2,2,0,0,0-.67.43,1.53,1.53,0,0,0-.41.6,1.73,1.73,0,0,0-.14.65,1.91,1.91,0,0,0,.18.86,1.64,1.64,0,0,0,.48.59,2.09,2.09,0,0,0,.7.35A3.32,3.32,0,0,0,308.14,66.47Z" fill="#e52823"/></g></g></svg>