<svg xmlns="http://www.w3.org/2000/svg" viewBox="0 0 160 600"><g id="Layer_2" data-name="Layer 2"><g id="rec"><rect width="160" height="600" fill="none"/></g><g id="sub"><path d="M21.59,228l-3.37-4.69L14.86,228H12.34l4.48-6.15L12.61,216h2.52l3.09,4.39L21.3,216h2.54l-4.23,5.83,4.5,6.17Z" fill="#e52823"/><path d="M25.3,228V216h2.1v10.13h5.3V228Z" fill="#e52823"/><path d="M45.26,228v-1.18a3.74,3.74,0,0,1-1.22,1,3.28,3.28,0,0,1-1.57.38,3.75,3.75,0,0,1-1.54-.31,3.26,3.26,0,0,1-1.22-.9,4.17,4.17,0,0,1-.8-1.44,5.7,5.7,0,0,1-.29-1.92,5.6,5.6,0,0,1,.29-1.89,4.17,4.17,0,0,1,.8-1.44,3.37,3.37,0,0,1,1.21-.91,3.77,3.77,0,0,1,1.55-.32,3.43,3.43,0,0,1,1.55.36,3.5,3.5,0,0,1,1.24,1.07V216h1.89v12ZM43,226.57a2.48,2.48,0,0,0,.65-.09,2.53,2.53,0,0,0,.63-.26,2.58,2.58,0,0,0,.54-.37,1.92,1.92,0,0,0,.41-.45V222a2.15,2.15,0,0,0-.41-.45,2.62,2.62,0,0,0-.54-.38,2.51,2.51,0,0,0-.63-.25,2.48,2.48,0,0,0-.65-.09,2.22,2.22,0,0,0-1.8.81,2.58,2.58,0,0,0-.5.91,3.87,3.87,0,0,0-.17,1.16,3.92,3.92,0,0,0,.17,1.16,2.82,2.82,0,0,0,.5.92,2.26,2.26,0,0,0,.77.6A2.4,2.4,0,0,0,43,226.57Z" fill="#e52823"/><path d="M50.55,218.27a1.16,1.16,0,0,1-1.17-1.17,1.16,1.16,0,0,1,.34-.83,1.13,1.13,0,0,1,.83-.34,1.16,1.16,0,0,1,1.17,1.17,1.13,1.13,0,0,1-.34.83A1.16,1.16,0,0,1,50.55,218.27ZM49.6,228v-8.69h1.89V228Z" fill="#e52823"/><path d="M59.82,228v-5.43a1.75,1.75,0,0,0-.48-1.42,2,2,0,0,0-1.28-.38,2.46,2.46,0,0,0-1.31.36,3.31,3.31,0,0,0-.92.79V228H53.94v-8.69h1.89v1.17a3.2,3.2,0,0,1,.53-.5,3.58,3.58,0,0,1,.71-.45,4,4,0,0,1,1.83-.44,2.5,2.5,0,0,1,2.81,2.79V228Z" fill="#e52823"/><path d="M68.1,228.24a4.49,4.49,0,0,1-1.87-.37,4.25,4.25,0,0,1-2.29-2.44,5.12,5.12,0,0,1-.3-1.76,5.18,5.18,0,0,1,.3-1.77,4.4,4.4,0,0,1,.89-1.45,4.15,4.15,0,0,1,1.4-1,5,5,0,0,1,3.74,0,4.2,4.2,0,0,1,1.41,1,4.37,4.37,0,0,1,.88,1.45,5.19,5.19,0,0,1,.31,1.77,5.13,5.13,0,0,1-.31,1.76,4.28,4.28,0,0,1-.88,1.45,4.37,4.37,0,0,1-1.41,1A4.46,4.46,0,0,1,68.1,228.24Zm0-1.67a2.32,2.32,0,0,0,1.08-.24,2.17,2.17,0,0,0,.78-.63,2.73,2.73,0,0,0,.48-.93,3.66,3.66,0,0,0,.16-1.1,3.61,3.61,0,0,0-.16-1.1,2.88,2.88,0,0,0-.48-.92,2.41,2.41,0,0,0-.78-.63,2.45,2.45,0,0,0-1.08-.23,2.3,2.3,0,0,0-1.85.86,2.71,2.71,0,0,0-.49.92,3.61,3.61,0,0,0-.16,1.1,3.66,3.66,0,0,0,.16,1.1,2.58,2.58,0,0,0,.49.93,2.21,2.21,0,0,0,.79.63A2.3,2.3,0,0,0,68.1,226.57Z" fill="#e52823"/><path d="M85,228v-5.47a1.66,1.66,0,0,0-.47-1.39,2,2,0,0,0-1.27-.37,2.48,2.48,0,0,0-1.33.36,3.26,3.26,0,0,0-.91.79V228H79.15V216H81v4.48a3.76,3.76,0,0,1,.54-.5,3.5,3.5,0,0,1,.7-.45,3.66,3.66,0,0,1,.84-.32,3.93,3.93,0,0,1,1-.12,2.86,2.86,0,0,1,2.11.71,2.75,2.75,0,0,1,.7,2.05V228Z" fill="#e52823"/><path d="M95.48,228v-1.18a3.74,3.74,0,0,1-1.22,1,3.28,3.28,0,0,1-1.57.38,3.75,3.75,0,0,1-1.54-.31,3.26,3.26,0,0,1-1.22-.9,4,4,0,0,1-.8-1.44,5.7,5.7,0,0,1-.29-1.92,5.6,5.6,0,0,1,.29-1.89,4,4,0,0,1,.8-1.44,3.37,3.37,0,0,1,1.21-.91,3.77,3.77,0,0,1,1.55-.32,3.43,3.43,0,0,1,1.55.36,3.5,3.5,0,0,1,1.24,1.07v-1.21h1.89V228Zm-2.23-1.45a2.57,2.57,0,0,0,1.28-.35,2.94,2.94,0,0,0,.55-.37,2.12,2.12,0,0,0,.4-.45V222a2.39,2.39,0,0,0-.4-.45,3,3,0,0,0-.55-.38,2.7,2.7,0,0,0-1.28-.34,2.22,2.22,0,0,0-1.8.81,2.58,2.58,0,0,0-.5.91,3.87,3.87,0,0,0-.17,1.16,3.92,3.92,0,0,0,.17,1.16,2.82,2.82,0,0,0,.5.92,2.26,2.26,0,0,0,.77.6A2.4,2.4,0,0,0,93.25,226.57Z" fill="#e52823"/><path d="M110.49,228v-5.67a1.83,1.83,0,0,0-.33-1.13,1.3,1.3,0,0,0-1.11-.43,2.12,2.12,0,0,0-1.18.36,2.87,2.87,0,0,0-.83.79V228h-1.89v-5.67a1.83,1.83,0,0,0-.33-1.13,1.27,1.27,0,0,0-1.1-.43,2,2,0,0,0-1.17.37,3.18,3.18,0,0,0-.84.78V228H99.82v-8.69h1.89v1.17a2.64,2.64,0,0,1,.41-.44,3.7,3.7,0,0,1,.65-.45,4.14,4.14,0,0,1,.83-.35,3,3,0,0,1,1-.15,2.61,2.61,0,0,1,1.57.44,2.3,2.3,0,0,1,.81,1.15,3.07,3.07,0,0,1,.48-.58,3.27,3.27,0,0,1,.68-.51,3.94,3.94,0,0,1,.84-.36,3.41,3.41,0,0,1,.95-.14,2.5,2.5,0,0,1,1.84.65,2.66,2.66,0,0,1,.66,2V228Z" fill="#e52823"/><path d="M117.82,228.24a6.11,6.11,0,0,1-2.09-.35,4.6,4.6,0,0,1-1.64-1l.87-1.35a3.15,3.15,0,0,0,.55.45,4.93,4.93,0,0,0,.72.39,6,6,0,0,0,.82.27,4,4,0,0,0,.84.1,2.2,2.2,0,0,0,1.3-.32,1,1,0,0,0,.43-.83.69.69,0,0,0-.39-.65,3.52,3.52,0,0,0-1-.36c-.39-.1-.81-.19-1.27-.29a5.58,5.58,0,0,1-1.27-.43,2.75,2.75,0,0,1-1-.78,2,2,0,0,1-.39-1.33,2.38,2.38,0,0,1,.23-1,2.57,2.57,0,0,1,.65-.83,3.25,3.25,0,0,1,1.08-.57,4.63,4.63,0,0,1,1.46-.21,5.12,5.12,0,0,1,2,.35,4.71,4.71,0,0,1,1.41.86l-.79,1.33a3.31,3.31,0,0,0-1.08-.74,3.65,3.65,0,0,0-1.5-.3,2,2,0,0,0-1.18.3.94.94,0,0,0-.42.78.61.61,0,0,0,.39.57,3.9,3.9,0,0,0,1,.34l1.27.28a6.36,6.36,0,0,1,1.27.45,2.83,2.83,0,0,1,1,.81,2.26,2.26,0,0,1,.39,1.38,2.44,2.44,0,0,1-.24,1.08,2.23,2.23,0,0,1-.69.87,3.47,3.47,0,0,1-1.14.56A5.19,5.19,0,0,1,117.82,228.24Z" fill="#e52823"/><path d="M126,228.24a2.2,2.2,0,0,1-1.67-.58,2.31,2.31,0,0,1-.56-1.67v-5h-1.44v-1.64h1.44V217h1.89v2.38h1.77V221h-1.77v4.55a1.28,1.28,0,0,0,.21.75.7.7,0,0,0,.62.3,1.3,1.3,0,0,0,.49-.1.92.92,0,0,0,.34-.23l.45,1.44a2.06,2.06,0,0,1-.69.4A3,3,0,0,1,126,228.24Z" fill="#e52823"/><path d="M133.1,228.24a5.17,5.17,0,0,1-1.83-.32,4.16,4.16,0,0,1-1.44-.93,4.22,4.22,0,0,1-.94-1.45,4.9,4.9,0,0,1-.34-1.87,4.8,4.8,0,0,1,.32-1.78,4.21,4.21,0,0,1,.91-1.44,4.32,4.32,0,0,1,1.39-1,4.62,4.62,0,0,1,3.55,0,3.94,3.94,0,0,1,1.35,1,4.2,4.2,0,0,1,.85,1.49,5.76,5.76,0,0,1,.3,1.89v.47h-6.7a3,3,0,0,0,.27.92,2.55,2.55,0,0,0,.55.76,2.58,2.58,0,0,0,.84.52,2.92,2.92,0,0,0,1.1.19,3.76,3.76,0,0,0,1.33-.25,3.13,3.13,0,0,0,1.15-.72l.87,1.24a4.49,4.49,0,0,1-1.59,1A5.94,5.94,0,0,1,133.1,228.24Zm2.3-5.29a2.61,2.61,0,0,0-.17-.79,2.22,2.22,0,0,0-.45-.73,2.27,2.27,0,0,0-.74-.55,2.8,2.8,0,0,0-2.15,0,2.18,2.18,0,0,0-.74.54,2.48,2.48,0,0,0-.46.74,2.31,2.31,0,0,0-.18.8Z" fill="#e52823"/><path d="M139.09,228v-8.69H141v1.26a4.27,4.27,0,0,1,1.25-1.05,3,3,0,0,1,1.58-.43V221a2.54,2.54,0,0,0-1.22,0,3.86,3.86,0,0,0-.64.25,3.33,3.33,0,0,0-.57.38,2.31,2.31,0,0,0-.4.45V228Z" fill="#e52823"/><path d="M19.38,248v-5.47a1.69,1.69,0,0,0-.47-1.39,2,2,0,0,0-1.28-.37,2.47,2.47,0,0,0-1.32.36,3.12,3.12,0,0,0-.91.79V248H13.51V236H15.4v4.48a3.2,3.2,0,0,1,.53-.5,3.81,3.81,0,0,1,.7-.45,3.74,3.74,0,0,1,.85-.32,3.81,3.81,0,0,1,1-.12,2.84,2.84,0,0,1,2.1.71,2.76,2.76,0,0,1,.71,2.05V248Z" fill="#e52823"/><path d="M29.83,248v-1.18a3.71,3.71,0,0,1-1.21,1,3.35,3.35,0,0,1-1.58.38,3.78,3.78,0,0,1-1.54-.31,3.26,3.26,0,0,1-1.22-.9,4.17,4.17,0,0,1-.8-1.44,6,6,0,0,1-.29-1.92,5.86,5.86,0,0,1,.29-1.89,4.17,4.17,0,0,1,.8-1.44,3.4,3.4,0,0,1,1.22-.91,3.69,3.69,0,0,1,1.54-.32,3.37,3.37,0,0,1,2.79,1.43v-1.21h1.89V248Zm-2.23-1.45a2.5,2.5,0,0,0,.66-.09,2.89,2.89,0,0,0,.63-.26,2.58,2.58,0,0,0,.54-.37,1.88,1.88,0,0,0,.4-.45V242a2.09,2.09,0,0,0-.4-.45,2.62,2.62,0,0,0-.54-.38,2.85,2.85,0,0,0-.63-.25,2.5,2.5,0,0,0-.66-.09,2.38,2.38,0,0,0-1,.21,2.41,2.41,0,0,0-1.27,1.51,3.58,3.58,0,0,0-.17,1.16,3.62,3.62,0,0,0,.17,1.16,2.8,2.8,0,0,0,.49.92,2.31,2.31,0,0,0,1.8.82Z" fill="#e52823"/><path d="M34.17,248V236h1.89v4.52a3.53,3.53,0,0,1,1.25-1.07,3.45,3.45,0,0,1,1.54-.36,3.82,3.82,0,0,1,1.56.32,3.4,3.4,0,0,1,1.22.91,4.17,4.17,0,0,1,.8,1.44,5.6,5.6,0,0,1,.29,1.89,5.7,5.7,0,0,1-.29,1.92,4,4,0,0,1-.81,1.44,3.3,3.3,0,0,1-1.23.9,3.75,3.75,0,0,1-1.54.31,3.33,3.33,0,0,1-1.56-.38,3.78,3.78,0,0,1-1.23-1V248Zm1.89-2.61a2.49,2.49,0,0,0,.95.82,2.74,2.74,0,0,0,1.3.34,2.18,2.18,0,0,0,1.79-.81,3.21,3.21,0,0,0,.66-2.09,3.87,3.87,0,0,0-.17-1.16,2.58,2.58,0,0,0-.5-.91,2.22,2.22,0,0,0-1.78-.81,2.63,2.63,0,0,0-1.3.34,2.6,2.6,0,0,0-.95.83Z" fill="#e52823"/><path d="M45.58,238.27a1.17,1.17,0,0,1-.82-2,1.09,1.09,0,0,1,.82-.34,1.16,1.16,0,0,1,1.17,1.17,1.13,1.13,0,0,1-.34.83A1.16,1.16,0,0,1,45.58,238.27ZM44.63,248v-8.69h1.89V248Z" fill="#e52823"/><path d="M51.6,248.24a2.21,2.21,0,0,1-1.68-.58,2.31,2.31,0,0,1-.56-1.67v-5H47.92v-1.64h1.44V237h1.89v2.38H53V241H51.25v4.55a1.28,1.28,0,0,0,.21.75.71.71,0,0,0,.62.3,1.35,1.35,0,0,0,.5-.1.87.87,0,0,0,.33-.23l.45,1.44a2.11,2.11,0,0,1-.68.4A3.08,3.08,0,0,1,51.6,248.24Z" fill="#e52823"/><path d="M60.83,248v-1.18a3.74,3.74,0,0,1-1.22,1,3.28,3.28,0,0,1-1.57.38,3.75,3.75,0,0,1-1.54-.31,3.26,3.26,0,0,1-1.22-.9,4,4,0,0,1-.8-1.44,5.7,5.7,0,0,1-.29-1.92,5.6,5.6,0,0,1,.29-1.89,4,4,0,0,1,.8-1.44,3.37,3.37,0,0,1,1.21-.91,3.74,3.74,0,0,1,1.55-.32,3.43,3.43,0,0,1,1.55.36,3.5,3.5,0,0,1,1.24,1.07v-1.21h1.89V248Zm-2.23-1.45a2.48,2.48,0,0,0,.65-.09,2.53,2.53,0,0,0,.63-.26,2.58,2.58,0,0,0,.54-.37,1.92,1.92,0,0,0,.41-.45V242a2.15,2.15,0,0,0-.41-.45,2.62,2.62,0,0,0-.54-.38,2.51,2.51,0,0,0-.63-.25,2.48,2.48,0,0,0-.65-.09,2.22,2.22,0,0,0-1.8.81,2.58,2.58,0,0,0-.5.91,3.87,3.87,0,0,0-.17,1.16,3.92,3.92,0,0,0,.17,1.16,2.82,2.82,0,0,0,.5.92,2.26,2.26,0,0,0,.77.6A2.4,2.4,0,0,0,58.6,246.57Z" fill="#e52823"/><path d="M67.8,248.24a2.21,2.21,0,0,1-1.68-.58,2.31,2.31,0,0,1-.56-1.67v-5H64.12v-1.64h1.44V237h1.89v2.38h1.77V241H67.45v4.55a1.28,1.28,0,0,0,.21.75.71.71,0,0,0,.62.3,1.35,1.35,0,0,0,.5-.1.87.87,0,0,0,.33-.23l.45,1.44a2.11,2.11,0,0,1-.68.4A3.08,3.08,0,0,1,67.8,248.24Z" fill="#e52823"/><path d="M79.17,248.2a6.78,6.78,0,0,1-2.44-.6A6.15,6.15,0,0,1,75,246.35l1.18-1.64a5.79,5.79,0,0,0,1.27,1,4.67,4.67,0,0,0,1.74.6v-3.5c-.47-.12-.93-.25-1.38-.41a4.76,4.76,0,0,1-1.21-.62,3,3,0,0,1-.87-1,2.86,2.86,0,0,1-.34-1.47,3.17,3.17,0,0,1,.27-1.29,3.36,3.36,0,0,1,.77-1.07,3.91,3.91,0,0,1,1.19-.76,4.88,4.88,0,0,1,1.57-.37V234.2h1.44v1.67a7.08,7.08,0,0,1,2,.54,6,6,0,0,1,1.61,1.1L83,239.08a4.26,4.26,0,0,0-1.14-.83,6.18,6.18,0,0,0-1.29-.45v3.11a14.1,14.1,0,0,1,1.4.43,4.67,4.67,0,0,1,1.26.64,3.41,3.41,0,0,1,.9,1,3,3,0,0,1,.35,1.51,3.68,3.68,0,0,1-.24,1.32,3.13,3.13,0,0,1-.71,1.13,3.71,3.71,0,0,1-1.21.83,5.56,5.56,0,0,1-1.75.41v1.62H79.17Zm-1.64-9A1,1,0,0,0,78,240a4.18,4.18,0,0,0,1.18.52v-2.82a2.18,2.18,0,0,0-1.2.48A1.31,1.31,0,0,0,77.53,239.2Zm4.83,5.51a1.06,1.06,0,0,0-.5-.94,4.55,4.55,0,0,0-1.25-.57v3.13a2.09,2.09,0,0,0,1.34-.62A1.54,1.54,0,0,0,82.36,244.71Z" fill="#e52823"/><path d="M87.4,248l4.53-10.13H85.7V236h8.66v1.46L89.72,248Z" fill="#e52823"/><path d="M99.58,248.22a4.94,4.94,0,0,1-2-.37,4.52,4.52,0,0,1-1.46-1l1-1.6a3.64,3.64,0,0,0,1,.78,3.2,3.2,0,0,0,1.43.28A2.84,2.84,0,0,0,101,246a3.05,3.05,0,0,0,1-.9,4.08,4.08,0,0,0,.57-1.27,5.5,5.5,0,0,0,.19-1.45v-.17a1,1,0,0,0,0-.17,3.17,3.17,0,0,1-.53.6,4.23,4.23,0,0,1-.75.54,4.08,4.08,0,0,1-.9.39,4,4,0,0,1-1,.14,4.91,4.91,0,0,1-1.54-.24,3.78,3.78,0,0,1-1.28-.73,3.56,3.56,0,0,1-.87-1.22,4.16,4.16,0,0,1-.32-1.68,3.91,3.91,0,0,1,.31-1.56A3.77,3.77,0,0,1,96.7,237a4.15,4.15,0,0,1,1.4-.87,5,5,0,0,1,1.82-.31,4.8,4.8,0,0,1,2.26.49,4.19,4.19,0,0,1,1.54,1.35,6,6,0,0,1,.88,2,10.13,10.13,0,0,1,.27,2.37,8.25,8.25,0,0,1-.34,2.43,5.9,5.9,0,0,1-1,2,4.91,4.91,0,0,1-1.66,1.33A5.18,5.18,0,0,1,99.58,248.22Zm.51-6.3a2.93,2.93,0,0,0,1.46-.39,3.38,3.38,0,0,0,1.16-1,4.41,4.41,0,0,0-.21-1,3,3,0,0,0-.48-.9,2.62,2.62,0,0,0-.8-.67,2.52,2.52,0,0,0-1.19-.26,2.61,2.61,0,0,0-1,.19,2.55,2.55,0,0,0-.76.49,2.06,2.06,0,0,0-.46.67,2,2,0,0,0-.15.74,2.19,2.19,0,0,0,.2,1,1.86,1.86,0,0,0,.54.67,2.54,2.54,0,0,0,.79.39A3.61,3.61,0,0,0,100.09,241.92Z" fill="#e52823"/><path d="M107.38,248.22a1.16,1.16,0,0,1-.89-.38,1.22,1.22,0,0,1-.37-.9,1.26,1.26,0,0,1,1.26-1.24,1.2,1.2,0,0,1,.89.37,1.23,1.23,0,0,1,.37.87,1.26,1.26,0,0,1-.37.9A1.17,1.17,0,0,1,107.38,248.22Z" fill="#e52823"/><path d="M114.38,248.22a4.91,4.91,0,0,1-2-.37,4.68,4.68,0,0,1-1.47-1l1-1.6a3.69,3.69,0,0,0,1,.78,3.17,3.17,0,0,0,1.43.28,2.78,2.78,0,0,0,1.41-.34,3.05,3.05,0,0,0,1-.9,4.09,4.09,0,0,0,.58-1.27,6,6,0,0,0,.19-1.45v-.17a1,1,0,0,0,0-.17,3.17,3.17,0,0,1-.53.6,4.23,4.23,0,0,1-.75.54,4.38,4.38,0,0,1-.91.39,3.88,3.88,0,0,1-1,.14,4.87,4.87,0,0,1-1.54-.24,3.68,3.68,0,0,1-1.28-.73,3.31,3.31,0,0,1-.87-1.22,4,4,0,0,1-.33-1.68,3.92,3.92,0,0,1,.32-1.56,3.77,3.77,0,0,1,.89-1.29,4.1,4.1,0,0,1,1.39-.87,5.09,5.09,0,0,1,1.83-.31,4.8,4.8,0,0,1,2.26.49,4.27,4.27,0,0,1,1.54,1.35,5.94,5.94,0,0,1,.87,2,9.62,9.62,0,0,1,.28,2.37,8.25,8.25,0,0,1-.34,2.43,5.92,5.92,0,0,1-1,2,4.72,4.72,0,0,1-1.66,1.33A5.16,5.16,0,0,1,114.38,248.22Zm.5-6.3a2.94,2.94,0,0,0,1.47-.39,3.47,3.47,0,0,0,1.16-1,5.1,5.1,0,0,0-.22-1,2.77,2.77,0,0,0-.47-.9,2.62,2.62,0,0,0-.8-.67,2.55,2.55,0,0,0-1.19-.26,2.62,2.62,0,0,0-1,.19,2.5,2.5,0,0,0-.75.49,1.91,1.91,0,0,0-.46.67,2,2,0,0,0-.15.74,2.06,2.06,0,0,0,.2,1,1.86,1.86,0,0,0,.54.67,2.43,2.43,0,0,0,.79.39A3.59,3.59,0,0,0,114.88,241.92Z" fill="#e52823"/><path d="M125.2,248.22a4.91,4.91,0,0,1-2-.37,4.68,4.68,0,0,1-1.47-1l1-1.6a3.69,3.69,0,0,0,1,.78,3.14,3.14,0,0,0,1.43.28,2.78,2.78,0,0,0,1.41-.34,3.05,3.05,0,0,0,1-.9,4.09,4.09,0,0,0,.58-1.27,6,6,0,0,0,.19-1.45v-.17a1,1,0,0,0,0-.17,3.57,3.57,0,0,1-.53.6,5.11,5.11,0,0,1-.75.54,4.38,4.38,0,0,1-.91.39,3.9,3.9,0,0,1-1,.14,4.81,4.81,0,0,1-1.53-.24,3.6,3.6,0,0,1-1.28-.73,3.45,3.45,0,0,1-.88-1.22,4.16,4.16,0,0,1-.32-1.68,3.92,3.92,0,0,1,.32-1.56,3.64,3.64,0,0,1,.89-1.29,4.1,4.1,0,0,1,1.39-.87,5.09,5.09,0,0,1,1.83-.31,4.83,4.83,0,0,1,2.26.49,4.27,4.27,0,0,1,1.54,1.35,6.14,6.14,0,0,1,.87,2,9.62,9.62,0,0,1,.28,2.37,8.6,8.6,0,0,1-.34,2.43,5.92,5.92,0,0,1-1,2,4.82,4.82,0,0,1-1.66,1.33A5.16,5.16,0,0,1,125.2,248.22Zm.5-6.3a2.94,2.94,0,0,0,1.47-.39,3.47,3.47,0,0,0,1.16-1,5.1,5.1,0,0,0-.22-1,3,3,0,0,0-.47-.9,2.55,2.55,0,0,0-.81-.67,2.48,2.48,0,0,0-1.18-.26,2.62,2.62,0,0,0-1.05.19,2.38,2.38,0,0,0-.75.49,1.79,1.79,0,0,0-.46.67,2,2,0,0,0-.15.74,2.19,2.19,0,0,0,.19,1,1.86,1.86,0,0,0,.54.67,2.54,2.54,0,0,0,.79.39A3.67,3.67,0,0,0,125.7,241.92Z" fill="#e52823"/></g></g></svg>