<svg xmlns="http://www.w3.org/2000/svg" xmlns:xlink="http://www.w3.org/1999/xlink" viewBox="0 0 729 91"><defs><style>.cls-1{fill:none;}.cls-2{stroke:#231f20;stroke-miterlimit:10;stroke-width:1px;}.cls-3{clip-path:url(#clip-path);}.cls-4{fill:#fff;}.cls-5{fill:#e52823;}</style><clipPath id="clip-path"><rect class="cls-1" x="601.1" y="52.74" width="99.76" height="25.27"/></clipPath></defs><g id="Layer_2" data-name="Layer 2"><g id="CONTENT"><rect class="cls-2" x="0.5" y="0.5" width="728" height="90"/><g id="white_logo" data-name="white logo"><g class="cls-3"><g class="cls-3"><path class="cls-4" d="M612.39,56.74c15-4.59,22.61,6.91,22.61,6.91s-4.77-16.06-22.61-6.91"/><path class="cls-4" d="M641.43,57.33c0-.06,0-.48,0-.54a11.22,11.22,0,0,0-5.92,8.62s2-4.76,6.85-6.2a2.84,2.84,0,0,1-.93-1.88"/><path class="cls-4" d="M622.27,64s0,2.27,0,3.41c-.58,0-3.07-.15-4.17-.19,0,.61,0,1.24,0,1.85,1.31,0,2.68.19,4,.17,0,1.1,0,2,0,3.15-1.31,0-2.62-.1-3.93-.13v2c1.41,0,2.83.15,4.24.13,0,0,0,3.35,0,3.35-2.8,0-6.11-.22-9.25-.48l.22-14c1.32.16,5.42.59,9,.7"/><path class="cls-4" d="M623.46,64.07l-.05,3.65c1.31.06,2.5.07,2.5.07l0,10.12a32.86,32.86,0,0,0,5.05-.07l-.06-10s2.23-.1,2.57-.13c0-1.34,0-2.39,0-3.72a89.2,89.2,0,0,1-9.95.11"/><path class="cls-4" d="M690.86,61.85v4.23c.85,0,1.82.22,2.67.29,0,3.53-.08,6.2-.09,9.73,2.38.29,4.06.56,4.72.68,0-3.53.13-6.31.14-9.84,0,0,2.51.39,2.56.43V63a75.49,75.49,0,0,0-10-1.17"/><path class="cls-4" d="M606,68.66l-.44,0,0-2.87.42,0a1.46,1.46,0,0,1,1.46,1.54A1.19,1.19,0,0,1,606,68.66m1.11-6.76-6-1.08,0,14.65c1.54.3,2.94.56,4.43.72l0-4.23,1.62.18c2.59.24,5.2-.74,5.24-5,0-3.76-2.47-4.85-5.25-5.26"/><path class="cls-4" d="M657,75.51c.67-1.74,1.34-3.37,2-5.12.11,1.67.17,3.18.28,4.85,1.67-.18,3-.28,4.69-.38-.43-4.45-.81-9.23-1.24-13.67-1.44.12-2.87.25-4.31.39-.8,2.1-1.61,4.65-2.42,6.75-.77-1.94-1.55-4.22-2.33-6.17-1.45.21-4,.66-4.31.67l-1.56,14.11c1.14-.2,3.94-.64,4.78-.76.13-1.69.26-3.5.39-5.19.65,1.61,1.29,3.23,1.94,4.85l2.08-.33"/><path class="cls-4" d="M683.56,67.84l-.44,0c0-.94,0-1.89,0-2.83l.42,0A1.41,1.41,0,0,1,685,66.5a1.21,1.21,0,0,1-1.48,1.34m4.16,3c1.27-.57,2.2-1.81,2.23-4.26,0-3.71-2.57-5.29-5.22-5.49-2-.16-4-.26-6-.32-.07,4.71-.09,9-.16,13.72,1.5,0,3.15.16,4.46.26,0-1.32,0-2.3.05-3.63l2.42,3.93c1.84.17,3.73.4,5.58.67-1.16-1.72-2.2-3.19-3.35-4.88"/><path class="cls-4" d="M670.2,69.94c.31-1.17.63-2.4.94-3.56.36,1.17.71,2.34,1.07,3.51a18.86,18.86,0,0,1-2,0m3.27-9.26c-1.78,0-3.23,0-4.76.1-1.22,4.56-2.67,9.44-3.89,14,1.36,0,2.74-.11,4.1-.12.13-.48.27-1,.4-1.52l2.08,0s1.84-.06,1.84-.06c0,.18.22.66.45,1.46,1.37,0,2.73,0,4.09,0-1.47-4.83-3-9.48-4.31-13.86"/><path class="cls-4" d="M635,76.61a12.36,12.36,0,0,0,5.54,1.4c3.13,0,6.4-1.87,6.47-5.38,0-2.5-1.53-3.69-3.75-4.18l-1.18-.27c-.41-.09-1.06-.17-1.05-.72s.69-.78,1.15-.78a8.53,8.53,0,0,1,3.2.67c.44-1.17.88-2.34,1.33-3.52a10.57,10.57,0,0,0-4.56-1.09c-3.15,0-6.32,1.91-6.39,5.4,0,2.3,1.66,3.56,3.71,3.94l1,.19c.48.1,1.16.16,1.15.82s-.83.74-1.34.74a6.25,6.25,0,0,1-3.6-1.18c-.54,1.22-1.18,2.74-1.73,4"/><path class="cls-4" d="M646.33,52.74a3.53,3.53,0,1,0,3.47,3.57,3.53,3.53,0,0,0-3.47-3.57M647.6,54a4.24,4.24,0,0,0-3.78,2.21s0,0,0,.06a2.53,2.53,0,0,1,.09-1,2.4,2.4,0,0,1,2.93-1.71,2.29,2.29,0,0,1,.83.44l-.06,0"/></g></g></g><path class="cls-5" d="M413.11,90.5c9.82-34.77,39.92-56.95,76.15-56.95,35.68,0,66,23.85,76.09,56.7"/><path class="cls-5" d="M269.75,31.35V17.66h6.74a4.61,4.61,0,0,1,1.67.28,3.62,3.62,0,0,1,1.22.74,3.21,3.21,0,0,1,.75,1.11,3.56,3.56,0,0,1,.25,1.35,3.42,3.42,0,0,1-.19,1.17,3.49,3.49,0,0,1-.52.93,3.21,3.21,0,0,1-.76.67,3.11,3.11,0,0,1-.91.37,2.62,2.62,0,0,1,1,.38,3,3,0,0,1,.84.75,3.63,3.63,0,0,1,.57,1,3.78,3.78,0,0,1,.2,1.2,4,4,0,0,1-.26,1.48,3.39,3.39,0,0,1-.75,1.18,3.64,3.64,0,0,1-1.26.78,5,5,0,0,1-1.71.28ZM276,23.28a1.91,1.91,0,0,0,1.42-.49,1.66,1.66,0,0,0,.49-1.25,1.7,1.7,0,0,0-.49-1.25,1.92,1.92,0,0,0-1.42-.5h-3.85v3.49Zm.11,5.93a2.13,2.13,0,0,0,1.52-.5,1.78,1.78,0,0,0,.55-1.4,1.88,1.88,0,0,0-.53-1.33,2,2,0,0,0-1.54-.56h-4v3.79Z"/><path class="cls-5" d="M289.7,31.35V30a5.16,5.16,0,0,1-1.43,1.08,4.26,4.26,0,0,1-2.06.48,3.22,3.22,0,0,1-2.4-.81,3.18,3.18,0,0,1-.8-2.33v-7h2.16v6.22a2,2,0,0,0,.54,1.59,2.22,2.22,0,0,0,1.47.44,2.79,2.79,0,0,0,1.48-.4,3.43,3.43,0,0,0,1-.89v-7h2.15v9.92Z"/><path class="cls-5" d="M298.54,35.37a6.28,6.28,0,0,1-2.21-.36,5.42,5.42,0,0,1-1.79-1.12l1-1.56a3,3,0,0,0,1.33,1,5,5,0,0,0,1.66.29,2.87,2.87,0,0,0,2.06-.7,2.74,2.74,0,0,0,.74-2V29.7a5.31,5.31,0,0,1-1.43,1.08,4.29,4.29,0,0,1-2.06.48,3.22,3.22,0,0,1-2.4-.81,3.14,3.14,0,0,1-.8-2.33V21.43h2.15v5.89a2,2,0,0,0,.54,1.59,2.26,2.26,0,0,0,1.47.45,2.92,2.92,0,0,0,1.49-.4,3.74,3.74,0,0,0,1-.9V21.43h2.15v9.42a4.79,4.79,0,0,1-.37,2,3.82,3.82,0,0,1-1,1.42,4.33,4.33,0,0,1-1.57.85A6.46,6.46,0,0,1,298.54,35.37Z"/><path class="cls-5" d="M314.12,31.35V20.76l-2.24,2.34-1.39-1.46,3.94-4h2.09V31.35Z"/><path class="cls-5" d="M322,30.57a4,4,0,0,1-.52,2,4.6,4.6,0,0,1-1.39,1.52l-1-.81a2.55,2.55,0,0,0,.49-.36,5.23,5.23,0,0,0,.45-.49,3.46,3.46,0,0,0,.35-.53,1.5,1.5,0,0,0,.18-.54l-.14,0-.2,0a1.18,1.18,0,0,1-.87-.37,1.45,1.45,0,0,1,.06-1.93,1.32,1.32,0,0,1,1-.41,1.52,1.52,0,0,1,1.11.48A1.92,1.92,0,0,1,322,30.57Z"/><path class="cls-5" d="M333.74,35.37a7.43,7.43,0,0,1-2.26-.32,5.25,5.25,0,0,1-1.91-1.16l1-1.56a3.47,3.47,0,0,0,1.39,1,5.14,5.14,0,0,0,1.77.28,4.27,4.27,0,0,0,1.06-.13,2.58,2.58,0,0,0,.94-.46,2.51,2.51,0,0,0,.68-.85,3,3,0,0,0,.25-1.33V29.7a4.47,4.47,0,0,1-1.38,1.22,3.64,3.64,0,0,1-1.8.45,4.59,4.59,0,0,1-1.75-.34,4,4,0,0,1-1.4-1,4.57,4.57,0,0,1-.91-1.59,7.27,7.27,0,0,1,0-4.33,4.71,4.71,0,0,1,.91-1.6,3.7,3.7,0,0,1,1.39-1,4.38,4.38,0,0,1,1.76-.34,3.85,3.85,0,0,1,3.18,1.62V21.43h2.16v9.4a4.87,4.87,0,0,1-.45,2.22,3.85,3.85,0,0,1-1.18,1.39,4.37,4.37,0,0,1-1.65.72A8,8,0,0,1,333.74,35.37Zm.39-5.93a3,3,0,0,0,1.46-.39,3,3,0,0,0,1.08-.93V24.41a2.93,2.93,0,0,0-1.08-.92,3,3,0,0,0-1.46-.39,2.61,2.61,0,0,0-2.06.87,3.41,3.41,0,0,0-.75,2.31,3.41,3.41,0,0,0,.75,2.3A2.63,2.63,0,0,0,334.13,29.44Z"/><path class="cls-5" d="M346.21,31.59a5.65,5.65,0,0,1-2.08-.37,4.76,4.76,0,0,1-1.64-1,4.87,4.87,0,0,1-1.08-1.66,5.86,5.86,0,0,1,0-4.15,4.83,4.83,0,0,1,1-1.65A4.74,4.74,0,0,1,344,21.6a5,5,0,0,1,2-.41,4.84,4.84,0,0,1,2,.4,4.44,4.44,0,0,1,1.54,1.12,4.9,4.9,0,0,1,1,1.7,6.46,6.46,0,0,1,.34,2.15v.54h-7.63a3.19,3.19,0,0,0,.93,1.92,2.92,2.92,0,0,0,1,.59,3.28,3.28,0,0,0,1.25.22,4.44,4.44,0,0,0,1.52-.29,3.52,3.52,0,0,0,1.31-.82l1,1.42a5.08,5.08,0,0,1-1.81,1.08A6.55,6.55,0,0,1,346.21,31.59Zm2.63-6a2.9,2.9,0,0,0-.19-.89,2.78,2.78,0,0,0-.52-.85,2.6,2.6,0,0,0-.85-.62,3.16,3.16,0,0,0-2.44,0,2.57,2.57,0,0,0-.85.61,3,3,0,0,0-.53.85,2.71,2.71,0,0,0-.2.91Z"/><path class="cls-5" d="M356,31.59a2.54,2.54,0,0,1-1.9-.65A2.63,2.63,0,0,1,353.5,29V23.3h-1.64V21.43h1.64v-2.7h2.15v2.7h2V23.3h-2v5.19a1.46,1.46,0,0,0,.24.86.81.81,0,0,0,.71.33,1.3,1.3,0,0,0,.56-.11.94.94,0,0,0,.38-.26l.51,1.65a2.59,2.59,0,0,1-.78.45A3.55,3.55,0,0,1,356,31.59Z"/><path class="cls-5" d="M274.19,53.47a5.21,5.21,0,0,1-2.14-.42,4.88,4.88,0,0,1-1.6-1.13,4.78,4.78,0,0,1-1-1.65,5.95,5.95,0,0,1,0-4,4.78,4.78,0,0,1,1-1.65,4.58,4.58,0,0,1,1.6-1.12,5.76,5.76,0,0,1,4.27,0,4.58,4.58,0,0,1,1.6,1.12,5,5,0,0,1,1,1.65,5.95,5.95,0,0,1,0,4,5,5,0,0,1-1,1.65,4.88,4.88,0,0,1-1.6,1.13A5.19,5.19,0,0,1,274.19,53.47Zm0-1.91a2.85,2.85,0,0,0,1.23-.26,2.72,2.72,0,0,0,.89-.72,3.12,3.12,0,0,0,.54-1.06,4,4,0,0,0,.19-1.26,3.94,3.94,0,0,0-.19-1.25,3.08,3.08,0,0,0-.54-1,2.61,2.61,0,0,0-2.12-1,2.63,2.63,0,0,0-1.21.27,2.79,2.79,0,0,0-.91.72,3.09,3.09,0,0,0-.55,1,4.25,4.25,0,0,0-.19,1.25,4.37,4.37,0,0,0,.19,1.26,3.14,3.14,0,0,0,.55,1.06,2.79,2.79,0,0,0,.91.72A2.76,2.76,0,0,0,274.19,51.56Z"/><path class="cls-5" d="M288.18,53.22V47a2,2,0,0,0-.54-1.61,2.23,2.23,0,0,0-1.47-.45,2.75,2.75,0,0,0-1.49.42,3.94,3.94,0,0,0-1.05.9v6.93h-2.16V43.31h2.16v1.34a3.7,3.7,0,0,1,.6-.58,4.65,4.65,0,0,1,.81-.51,5,5,0,0,1,1-.36,4.47,4.47,0,0,1,1.12-.13,2.85,2.85,0,0,1,3.2,3.18v7Z"/><path class="cls-5" d="M297.72,53.47a5.65,5.65,0,0,1-2.08-.37,4.74,4.74,0,0,1-2.72-2.71,5.86,5.86,0,0,1,0-4.15,5,5,0,0,1,1-1.66,4.86,4.86,0,0,1,1.59-1.1,5.24,5.24,0,0,1,4,0,4.41,4.41,0,0,1,1.54,1.11,5,5,0,0,1,1,1.71,6.42,6.42,0,0,1,.34,2.15V49h-7.63a3.11,3.11,0,0,0,.3,1,2.85,2.85,0,0,0,.63.87,2.79,2.79,0,0,0,1,.6,3.48,3.48,0,0,0,1.25.22,4.44,4.44,0,0,0,1.52-.29,3.57,3.57,0,0,0,1.31-.82l1,1.41a5.1,5.1,0,0,1-1.81,1.09A6.55,6.55,0,0,1,297.72,53.47Zm2.63-6a3,3,0,0,0-.19-.9,2.86,2.86,0,0,0-.52-.84,2.6,2.6,0,0,0-.85-.62,3.16,3.16,0,0,0-2.44,0,2.44,2.44,0,0,0-.85.61,3.12,3.12,0,0,0-.53.84,2.82,2.82,0,0,0-.2.92Z"/><path class="cls-5" d="M314.69,53.47a7.25,7.25,0,0,1-3-.56,6.06,6.06,0,0,1-2.07-1.55L311,49.69a4.58,4.58,0,0,0,3.67,1.65,3,3,0,0,0,2.07-.7,2.42,2.42,0,0,0,0-3.49,2.93,2.93,0,0,0-2-.66,4.59,4.59,0,0,0-1.6.28,4.09,4.09,0,0,0-1.4.89l-1.7-.49V39.54h9v2.13h-6.56v3.92a4.74,4.74,0,0,1,1.31-.82,4.47,4.47,0,0,1,1.79-.35,4.73,4.73,0,0,1,1.66.3A4.09,4.09,0,0,1,319.57,47a5,5,0,0,1,0,3.78,4.34,4.34,0,0,1-1.08,1.46,4.92,4.92,0,0,1-1.65.93A6.5,6.5,0,0,1,314.69,53.47Z"/><path class="cls-5" d="M327.11,53.47a4.7,4.7,0,0,1-2.49-.63,5.19,5.19,0,0,1-1.7-1.63A7.54,7.54,0,0,1,322,49a10.62,10.62,0,0,1-.32-2.56,10.48,10.48,0,0,1,.32-2.55,7.49,7.49,0,0,1,1-2.27,5.16,5.16,0,0,1,1.7-1.62,4.79,4.79,0,0,1,2.49-.62,4.74,4.74,0,0,1,2.47.62,5.16,5.16,0,0,1,1.7,1.62,7.49,7.49,0,0,1,1,2.27,10.48,10.48,0,0,1,.32,2.55,10.62,10.62,0,0,1-.32,2.56,7.54,7.54,0,0,1-1,2.26,5.19,5.19,0,0,1-1.7,1.63A4.65,4.65,0,0,1,327.11,53.47Zm0-2.13a2.42,2.42,0,0,0,1.41-.41,3,3,0,0,0,.93-1.09,5.79,5.79,0,0,0,.51-1.57,10.79,10.79,0,0,0,0-3.76,5.17,5.17,0,0,0-.51-1.57,3,3,0,0,0-.93-1.07,2.72,2.72,0,0,0-2.84,0,3,3,0,0,0-.93,1.07,5.47,5.47,0,0,0-.52,1.57,10.48,10.48,0,0,0,0,3.76,5.47,5.47,0,0,0,.52,1.57,3.2,3.2,0,0,0,.93,1.09A2.43,2.43,0,0,0,327.11,51.34Z"/><path class="cls-5" d="M337.41,46.12a3.57,3.57,0,0,1-1.38-.25,3.1,3.1,0,0,1-1.08-.72,3.41,3.41,0,0,1-.7-1.08,3.62,3.62,0,0,1-.25-1.33,3.77,3.77,0,0,1,.25-1.35,3.3,3.3,0,0,1,.7-1.08,3.1,3.1,0,0,1,1.08-.72,3.57,3.57,0,0,1,1.38-.26,3.75,3.75,0,0,1,1.4.26,3,3,0,0,1,1.07.72,3.12,3.12,0,0,1,.69,1.08,3.56,3.56,0,0,1,.25,1.35,3.42,3.42,0,0,1-.25,1.33,3.22,3.22,0,0,1-.69,1.08,3,3,0,0,1-1.07.72A3.75,3.75,0,0,1,337.41,46.12Zm0-1.37a1.71,1.71,0,0,0,1.31-.56,2,2,0,0,0,.52-1.46,2.12,2.12,0,0,0-.52-1.5,1.67,1.67,0,0,0-1.31-.56,1.65,1.65,0,0,0-1.29.56,2.17,2.17,0,0,0-.52,1.5,2.08,2.08,0,0,0,.52,1.46A1.68,1.68,0,0,0,337.41,44.75Zm-1.33,8.47,8.74-13.68h1.39l-8.76,13.69Zm8.7.25a3.48,3.48,0,0,1-1.39-.26,3.13,3.13,0,0,1-1.07-.71,3.1,3.1,0,0,1-.7-1.08,3.42,3.42,0,0,1-.25-1.33,3.55,3.55,0,0,1,.25-1.34,3.1,3.1,0,0,1,.7-1.08,3.16,3.16,0,0,1,1.07-.72,3.66,3.66,0,0,1,1.39-.25,3.61,3.61,0,0,1,1.38.25,3.1,3.1,0,0,1,1.08.72,3.41,3.41,0,0,1,.7,1.08,3.75,3.75,0,0,1,.24,1.34,3.61,3.61,0,0,1-.24,1.33,3.41,3.41,0,0,1-.7,1.08,3.08,3.08,0,0,1-1.08.71A3.43,3.43,0,0,1,344.78,53.47Zm0-1.37a1.71,1.71,0,0,0,1.31-.56,2.06,2.06,0,0,0,.51-1.46,2.11,2.11,0,0,0-.51-1.48,1.79,1.79,0,0,0-2.62,0,2.07,2.07,0,0,0-.52,1.48,2,2,0,0,0,.52,1.46A1.69,1.69,0,0,0,344.78,52.1Z"/><path class="cls-5" d="M359.94,53.47a5.19,5.19,0,0,1-2.13-.42,4.88,4.88,0,0,1-1.6-1.13,4.8,4.8,0,0,1-1-1.65,5.95,5.95,0,0,1,0-4,4.8,4.8,0,0,1,1-1.65,4.58,4.58,0,0,1,1.6-1.12,5.76,5.76,0,0,1,4.27,0,4.58,4.58,0,0,1,1.6,1.12,4.93,4.93,0,0,1,1,1.65,5.95,5.95,0,0,1,0,4,4.93,4.93,0,0,1-1,1.65,4.88,4.88,0,0,1-1.6,1.13A5.21,5.21,0,0,1,359.94,53.47Zm0-1.91a2.79,2.79,0,0,0,1.23-.26,2.66,2.66,0,0,0,.9-.72,3.12,3.12,0,0,0,.54-1.06,4.37,4.37,0,0,0,.19-1.26,4.25,4.25,0,0,0-.19-1.25,3.08,3.08,0,0,0-.54-1,2.81,2.81,0,0,0-3.34-.72,2.86,2.86,0,0,0-.9.72,3.11,3.11,0,0,0-.56,1,4.24,4.24,0,0,0-.18,1.25,4.36,4.36,0,0,0,.18,1.26,3.16,3.16,0,0,0,.56,1.06,2.86,2.86,0,0,0,.9.72A2.79,2.79,0,0,0,359.94,51.56Z"/><path class="cls-5" d="M367.76,53.22v-8h-1.64V43.31h1.64v-.55a3.45,3.45,0,0,1,.88-2.55,3.08,3.08,0,0,1,2.24-.88,3.56,3.56,0,0,1,1.74.37l-.47,1.62a1.55,1.55,0,0,0-.86-.22,1.26,1.26,0,0,0-1,.41,1.9,1.9,0,0,0-.35,1.25v.55h2v1.87h-2v8Z"/><path class="cls-5" d="M374.1,53.22v-8h-1.64V43.31h1.64v-.55a3.49,3.49,0,0,1,.88-2.55,3.08,3.08,0,0,1,2.24-.88,3.63,3.63,0,0,1,1.75.37l-.48,1.62a1.55,1.55,0,0,0-.86-.22,1.23,1.23,0,0,0-1,.41,1.85,1.85,0,0,0-.36,1.25v.55h2v1.87h-2v8Z"/><path class="cls-5" d="M276.67,75.1V73.75a4.24,4.24,0,0,1-1.39,1.17,3.82,3.82,0,0,1-1.79.43,4.46,4.46,0,0,1-1.76-.35,3.69,3.69,0,0,1-1.39-1,4.74,4.74,0,0,1-.91-1.64,6.72,6.72,0,0,1-.33-2.19,6.62,6.62,0,0,1,.33-2.16,4.74,4.74,0,0,1,.91-1.64,4,4,0,0,1,1.38-1,4.31,4.31,0,0,1,1.77-.36,3.89,3.89,0,0,1,1.76.41,4.09,4.09,0,0,1,1.42,1.21V65.19h2.15V75.1Zm-2.54-1.66a2.74,2.74,0,0,0,.74-.1,3.29,3.29,0,0,0,.72-.29,3.38,3.38,0,0,0,.62-.42,2.49,2.49,0,0,0,.46-.52V68.19a3.12,3.12,0,0,0-.46-.52,4,4,0,0,0-.62-.43,2.84,2.84,0,0,0-.72-.28,2.76,2.76,0,0,0-.74-.11,2.64,2.64,0,0,0-2.06.93,3,3,0,0,0-.56,1,4.36,4.36,0,0,0-.2,1.33,4.3,4.3,0,0,0,.2,1.32,3.3,3.3,0,0,0,.56,1.05,2.64,2.64,0,0,0,2.06.93Z"/><path class="cls-5" d="M284.16,75.35a2.55,2.55,0,0,1-1.9-.66,2.61,2.61,0,0,1-.64-1.91V61.41h2.15V72.25a1.42,1.42,0,0,0,.24.85.78.78,0,0,0,.7.34,1.58,1.58,0,0,0,.58-.11,1,1,0,0,0,.39-.26l.51,1.64a2.23,2.23,0,0,1-.78.45A3.42,3.42,0,0,1,284.16,75.35Z"/><path class="cls-5" d="M290,75.35a2.54,2.54,0,0,1-1.9-.66,2.61,2.61,0,0,1-.65-1.91V61.41h2.16V72.25a1.49,1.49,0,0,0,.23.85.81.81,0,0,0,.71.34,1.58,1.58,0,0,0,.58-.11,1.2,1.2,0,0,0,.39-.26l.51,1.64a2.23,2.23,0,0,1-.78.45A3.46,3.46,0,0,1,290,75.35Z"/><path class="cls-5" d="M303.16,75.35A5.29,5.29,0,0,1,301.1,75a4.73,4.73,0,0,1-1.61-1.09,5,5,0,0,1-1.06-1.65,5.66,5.66,0,0,1-.38-2.08,5.58,5.58,0,0,1,.38-2.08,5,5,0,0,1,1.06-1.64,4.88,4.88,0,0,1,1.61-1.09,5.29,5.29,0,0,1,2.06-.39,5.41,5.41,0,0,1,1.33.15,4,4,0,0,1,1,.39,3.74,3.74,0,0,1,.81.56,4.83,4.83,0,0,1,.62.67L305.54,68a2.66,2.66,0,0,0-2.28-1.15,2.78,2.78,0,0,0-2.17.92,3.37,3.37,0,0,0-.82,2.37,4,4,0,0,0,.21,1.32,3.24,3.24,0,0,0,.62,1.05,2.86,2.86,0,0,0,2.16.93,2.66,2.66,0,0,0,2.28-1.19L307,73.58a4.88,4.88,0,0,1-1.44,1.23A4.56,4.56,0,0,1,303.16,75.35Z"/><path class="cls-5" d="M315.84,75.1V73.75a4.31,4.31,0,0,1-1.38,1.17,3.86,3.86,0,0,1-1.8.43,4.41,4.41,0,0,1-1.75-.35,3.72,3.72,0,0,1-1.4-1,4.91,4.91,0,0,1-.91-1.64,6.72,6.72,0,0,1-.33-2.19A6.62,6.62,0,0,1,308.6,68a4.91,4.91,0,0,1,.91-1.64,3.94,3.94,0,0,1,1.39-1,4.23,4.23,0,0,1,1.76-.36,4,4,0,0,1,1.77.41,4.06,4.06,0,0,1,1.41,1.21V65.19H318V75.1Zm-2.54-1.66a2.82,2.82,0,0,0,.75-.1,3.74,3.74,0,0,0,.72-.29,3.3,3.3,0,0,0,.61-.42,2.23,2.23,0,0,0,.46-.52V68.19a2.73,2.73,0,0,0-.46-.52,3.91,3.91,0,0,0-.61-.43,3.16,3.16,0,0,0-.72-.28,2.84,2.84,0,0,0-.75-.11,2.58,2.58,0,0,0-1.17.25,2.54,2.54,0,0,0-.88.68,2.86,2.86,0,0,0-.57,1,4.36,4.36,0,0,0-.19,1.33,4.3,4.3,0,0,0,.19,1.32,3.13,3.13,0,0,0,.57,1.05,2.54,2.54,0,0,0,.88.68A2.58,2.58,0,0,0,313.3,73.44Z"/><path class="cls-5" d="M323.78,75.35a2.52,2.52,0,0,1-1.9-.66,2.61,2.61,0,0,1-.64-1.91V67.06H319.6V65.19h1.64V62.48h2.15v2.71h2v1.87h-2v5.19a1.42,1.42,0,0,0,.24.85.8.8,0,0,0,.71.34,1.47,1.47,0,0,0,.56-.11,1.05,1.05,0,0,0,.38-.26l.52,1.64a2.43,2.43,0,0,1-.78.45A3.4,3.4,0,0,1,323.78,75.35Z"/><path class="cls-5" d="M335.17,75.35a2.53,2.53,0,0,1-1.89-.66,2.61,2.61,0,0,1-.65-1.91V61.41h2.15V72.25a1.42,1.42,0,0,0,.24.85.8.8,0,0,0,.71.34,1.56,1.56,0,0,0,.57-.11,1,1,0,0,0,.39-.26l.52,1.64a2.43,2.43,0,0,1-.78.45A3.48,3.48,0,0,1,335.17,75.35Z"/><path class="cls-5" d="M339.59,64a1.34,1.34,0,1,1,0-2.67,1.28,1.28,0,0,1,.94.39,1.34,1.34,0,0,1,0,1.89A1.28,1.28,0,0,1,339.59,64ZM338.5,75.1V65.19h2.15V75.1Z"/><path class="cls-5" d="M346.44,75.35a2.55,2.55,0,0,1-1.91-.66,2.65,2.65,0,0,1-.64-1.91V67.06h-1.64V65.19h1.64V62.48h2.16v2.71h2v1.87h-2v5.19a1.42,1.42,0,0,0,.24.85.78.78,0,0,0,.7.34,1.48,1.48,0,0,0,.57-.11,1.05,1.05,0,0,0,.38-.26l.51,1.64a2.23,2.23,0,0,1-.78.45A3.38,3.38,0,0,1,346.44,75.35Z"/><path class="cls-5" d="M353,75.35a2.53,2.53,0,0,1-1.91-.66,2.61,2.61,0,0,1-.64-1.91V67.06H348.8V65.19h1.64V62.48h2.16v2.71h2v1.87h-2v5.19a1.42,1.42,0,0,0,.23.85.8.8,0,0,0,.71.34,1.47,1.47,0,0,0,.56-.11,1.05,1.05,0,0,0,.38-.26l.52,1.64a2.32,2.32,0,0,1-.78.45A3.38,3.38,0,0,1,353,75.35Z"/><path class="cls-5" d="M361.13,75.35a5.83,5.83,0,0,1-2.08-.37,4.69,4.69,0,0,1-1.64-1.06,4.92,4.92,0,0,1-1.08-1.65,5.61,5.61,0,0,1-.39-2.13,5.5,5.5,0,0,1,.37-2,4.91,4.91,0,0,1,2.63-2.76,5.24,5.24,0,0,1,4,0,4.53,4.53,0,0,1,1.54,1.12,5,5,0,0,1,1,1.71,6.42,6.42,0,0,1,.34,2.15v.53H358.2a3.17,3.17,0,0,0,.3,1.05,2.7,2.7,0,0,0,.63.87,3,3,0,0,0,1,.6,3.45,3.45,0,0,0,1.25.21,4.42,4.42,0,0,0,1.52-.28,3.67,3.67,0,0,0,1.31-.83l1,1.42a5,5,0,0,1-1.8,1.09A6.8,6.8,0,0,1,361.13,75.35Zm2.63-6a2.77,2.77,0,0,0-.2-.89,2.43,2.43,0,0,0-.51-.84,2.6,2.6,0,0,0-.85-.62,2.79,2.79,0,0,0-1.25-.25,2.94,2.94,0,0,0-1.19.23,2.6,2.6,0,0,0-.85.62,2.84,2.84,0,0,0-.53.84,2.77,2.77,0,0,0-.2.91Z"/><path class="cls-5" d="M368,75.1V65.19h2.15v1.44a4.75,4.75,0,0,1,1.42-1.2,3.48,3.48,0,0,1,1.8-.49v2.14a3.23,3.23,0,0,0-.66-.06,2.66,2.66,0,0,0-.72.1,3.35,3.35,0,0,0-.74.29,2.93,2.93,0,0,0-.65.43,2.12,2.12,0,0,0-.45.51V75.1Z"/><path class="cls-5" d="M374.47,75.33a1.4,1.4,0,0,1-1-.43,1.43,1.43,0,0,1-.42-1,1.35,1.35,0,0,1,.42-1,1.42,1.42,0,0,1,2,0,1.35,1.35,0,0,1,.42,1,1.43,1.43,0,0,1-.42,1A1.4,1.4,0,0,1,374.47,75.33Z"/><path class="cls-4" d="M11.14,16.22H21a6,6,0,0,1,2.92.66,4.6,4.6,0,0,1,1.84,1.73A4.7,4.7,0,0,1,26.34,21a4.46,4.46,0,0,1-.92,2.86,3.86,3.86,0,0,1-2.3,1.42,3.93,3.93,0,0,1,2.55,1.54,4.82,4.82,0,0,1,1,3.06,4.91,4.91,0,0,1-1.43,3.61,5.43,5.43,0,0,1-4,1.43H11.14Zm9,7.5a2.18,2.18,0,0,0,1.59-.57,2,2,0,0,0,.59-1.5,1.94,1.94,0,0,0-.6-1.45,2.13,2.13,0,0,0-1.58-.59h-5v4.11Zm.14,7.79a2.47,2.47,0,0,0,1.76-.6,2.26,2.26,0,0,0,0-3.17,2.4,2.4,0,0,0-1.76-.63H15.12v4.4Z"/><path class="cls-4" d="M30.58,34.32a3.69,3.69,0,0,1-1-2.76V16.22h3.55V30.61a1.69,1.69,0,0,0,.34,1.07,1.08,1.08,0,0,0,.9.42,2.09,2.09,0,0,0,.72-.12.91.91,0,0,0,.48-.28l.76,2.69a4.34,4.34,0,0,1-2.94.87A3.94,3.94,0,0,1,30.58,34.32Z"/><path class="cls-4" d="M47.26,33.16a5.55,5.55,0,0,1-1.86,1.56,5.09,5.09,0,0,1-2.31.54A5.77,5.77,0,0,1,40,34.42,5.7,5.7,0,0,1,37.86,32a8.79,8.79,0,0,1-.77-3.82,8.72,8.72,0,0,1,.77-3.77A5.91,5.91,0,0,1,40,21.91a5.64,5.64,0,0,1,3.1-.87,5.09,5.09,0,0,1,2.29.53,5.24,5.24,0,0,1,1.88,1.54V21.37h3.58V34.9H47.26Zm0-7.39a3.41,3.41,0,0,0-1.32-1.11,3.87,3.87,0,0,0-1.76-.43,3.15,3.15,0,0,0-2.47,1.08,4.17,4.17,0,0,0-1,2.85,4.2,4.2,0,0,0,1,2.84,3.13,3.13,0,0,0,2.47,1.1,3.89,3.89,0,0,0,1.76-.44,3.33,3.33,0,0,0,1.32-1.11Z"/><path class="cls-4" d="M54.43,24.47A6.61,6.61,0,0,1,57,22a7.43,7.43,0,0,1,3.7-.91,7.19,7.19,0,0,1,3.25.68A5.8,5.8,0,0,1,66,23.47l-2.33,2.19a3.22,3.22,0,0,0-2.85-1.46,3.49,3.49,0,0,0-2.65,1.08,4,4,0,0,0-1,2.86,4,4,0,0,0,1,2.86,3.71,3.71,0,0,0,4.27.72,3.35,3.35,0,0,0,1.23-1.08L66,32.8a5.88,5.88,0,0,1-2.09,1.76,6.86,6.86,0,0,1-3.26.7,7.43,7.43,0,0,1-3.7-.91,6.57,6.57,0,0,1-2.54-2.53,7.73,7.73,0,0,1,0-7.35Z"/><path class="cls-4" d="M73.52,29.69,71.9,31.43V34.9H68.34V16.22H71.9V27.39l5.12-6h4.37L76,27.51l5.52,7.39H77.11Z"/><path class="cls-4" d="M90.57,16.22h13.22v3.42H94.55V23.7h9v3.41h-9V34.9h-4Z"/><path class="cls-4" d="M106.48,21.37H110v1.85a5.92,5.92,0,0,1,1.91-1.55,5,5,0,0,1,2.41-.63v3.47a4.27,4.27,0,0,0-1-.11,4.69,4.69,0,0,0-1.91.45A3.21,3.21,0,0,0,110,25.94v9h-3.55Z"/><path class="cls-4" d="M116.82,18.76a2.13,2.13,0,0,1,3-3,2.15,2.15,0,0,1,0,3,2,2,0,0,1-1.51.63A2,2,0,0,1,116.82,18.76Zm-.26,2.61h3.55V34.9h-3.55Z"/><path class="cls-4" d="M132.94,33.16a5.75,5.75,0,0,1-1.86,1.56,5.11,5.11,0,0,1-2.32.54,5.82,5.82,0,0,1-3.08-.84A5.75,5.75,0,0,1,123.54,32a8.79,8.79,0,0,1-.77-3.82,8.72,8.72,0,0,1,.77-3.77,5.84,5.84,0,0,1,2.13-2.48,5.63,5.63,0,0,1,3.09-.87,5.1,5.1,0,0,1,2.3.53,5.33,5.33,0,0,1,1.88,1.54V16.22h3.58V34.9h-3.58Zm0-7.41a3.33,3.33,0,0,0-1.32-1.11,3.92,3.92,0,0,0-1.76-.44,3.13,3.13,0,0,0-2.47,1.1,4.22,4.22,0,0,0-1,2.86,4.2,4.2,0,0,0,1,2.84,3.13,3.13,0,0,0,2.47,1.1,3.92,3.92,0,0,0,1.76-.44,3.33,3.33,0,0,0,1.32-1.11Z"/><path class="cls-4" d="M149.35,33.16a5.68,5.68,0,0,1-1.87,1.56,5.09,5.09,0,0,1-2.31.54,5.79,5.79,0,0,1-3.08-.84A5.68,5.68,0,0,1,140,32a8.79,8.79,0,0,1-.77-3.82,8.72,8.72,0,0,1,.77-3.77,5.78,5.78,0,0,1,2.13-2.48,5.6,5.6,0,0,1,3.09-.87,5.1,5.1,0,0,1,2.3.53,5.33,5.33,0,0,1,1.88,1.54V21.37h3.58V34.9h-3.58Zm0-7.39A3.41,3.41,0,0,0,148,24.66a3.91,3.91,0,0,0-1.77-.43,3.14,3.14,0,0,0-2.46,1.08,4.17,4.17,0,0,0-1,2.85,4.2,4.2,0,0,0,1,2.84,3.13,3.13,0,0,0,2.46,1.1,3.93,3.93,0,0,0,1.77-.44,3.33,3.33,0,0,0,1.32-1.11Z"/><path class="cls-4" d="M157.89,35.79a4.23,4.23,0,0,0,1.79,1.26,6.26,6.26,0,0,0,2.27.42,3.79,3.79,0,0,0,2.68-.89,3.36,3.36,0,0,0,1-2.58V32.6a6.56,6.56,0,0,1-2,1.46,6.27,6.27,0,0,1-2.75.58,4.38,4.38,0,0,1-3.28-1.12,4.27,4.27,0,0,1-1.09-3.13v-9H160V29a2.47,2.47,0,0,0,.65,1.92,2.7,2.7,0,0,0,1.85.57,3.57,3.57,0,0,0,1.76-.45,4.33,4.33,0,0,0,1.32-1.09V21.37h3.55V33.83a6.14,6.14,0,0,1-1.94,4.83A7.64,7.64,0,0,1,162,40.39a8.3,8.3,0,0,1-5.66-2Z"/><path class="cls-4" d="M189.13,33.16a5.55,5.55,0,0,1-1.86,1.56,5.09,5.09,0,0,1-2.31.54,5.79,5.79,0,0,1-3.08-.84A5.68,5.68,0,0,1,179.74,32a8.79,8.79,0,0,1-.77-3.82,8.72,8.72,0,0,1,.77-3.77,5.78,5.78,0,0,1,2.13-2.48A5.58,5.58,0,0,1,185,21a5.14,5.14,0,0,1,2.3.53,5.21,5.21,0,0,1,1.87,1.54V16.22h3.59V34.9h-3.59Zm0-7.41a3.29,3.29,0,0,0-1.31-1.11,3.93,3.93,0,0,0-1.77-.44,3.11,3.11,0,0,0-2.46,1.1,4.17,4.17,0,0,0-1,2.86,4.15,4.15,0,0,0,1,2.84,3.11,3.11,0,0,0,2.46,1.1,3.93,3.93,0,0,0,1.77-.44,3.29,3.29,0,0,0,1.31-1.11Z"/><path class="cls-4" d="M196.27,24.56A7.09,7.09,0,0,1,205.91,22a6.44,6.44,0,0,1,2.39,2.64,8.47,8.47,0,0,1,.85,3.87v.79H199.1a3.43,3.43,0,0,0,1.21,2.26,3.93,3.93,0,0,0,2.68.9,5.8,5.8,0,0,0,2-.36,4.65,4.65,0,0,0,1.64-1l1.56,2.3a6.81,6.81,0,0,1-2.46,1.38,9.78,9.78,0,0,1-3.11.49,7.68,7.68,0,0,1-3.69-.88,6.36,6.36,0,0,1-2.59-2.5,7.78,7.78,0,0,1,0-7.32Zm3.76.21a3.66,3.66,0,0,0-1,2.09h6.66a3.44,3.44,0,0,0-.91-2.07,3.55,3.55,0,0,0-4.77,0Z"/><path class="cls-4" d="M221,33.16a5.68,5.68,0,0,1-1.87,1.56,5.09,5.09,0,0,1-2.31.54,5.79,5.79,0,0,1-3.08-.84A5.68,5.68,0,0,1,211.63,32a8.79,8.79,0,0,1-.77-3.82,8.72,8.72,0,0,1,.77-3.77,5.78,5.78,0,0,1,2.13-2.48,5.6,5.6,0,0,1,3.09-.87,5.1,5.1,0,0,1,2.3.53A5.33,5.33,0,0,1,221,23.11V21.37h3.58V34.9H221Zm0-7.39a3.41,3.41,0,0,0-1.32-1.11,3.9,3.9,0,0,0-1.76-.43,3.15,3.15,0,0,0-2.47,1.08,4.17,4.17,0,0,0-.95,2.85,4.2,4.2,0,0,0,.95,2.84A3.13,3.13,0,0,0,218,32.1a3.92,3.92,0,0,0,1.76-.44A3.33,3.33,0,0,0,221,30.55Z"/><path class="cls-4" d="M229.1,34.32a3.69,3.69,0,0,1-1-2.76V16.22h3.55V30.61a1.63,1.63,0,0,0,.34,1.07,1.08,1.08,0,0,0,.89.42,2.11,2.11,0,0,0,.73-.12.91.91,0,0,0,.48-.28l.76,2.69a4.35,4.35,0,0,1-2.95.87A3.91,3.91,0,0,1,229.1,34.32Z"/><path class="cls-4" d="M236.84,30.67A7.6,7.6,0,0,0,239,32a6.73,6.73,0,0,0,2.55.56,3.18,3.18,0,0,0,1.69-.37,1.15,1.15,0,0,0,.58-1,1.09,1.09,0,0,0-.67-1,9.09,9.09,0,0,0-2.05-.62,19.82,19.82,0,0,1-2.69-.67,4.41,4.41,0,0,1-1.84-1.22,3.3,3.3,0,0,1-.79-2.34,3.77,3.77,0,0,1,.66-2.13,4.48,4.48,0,0,1,1.92-1.55,7.15,7.15,0,0,1,3-.57,8.47,8.47,0,0,1,5.46,1.85l-1.43,2.43a5,5,0,0,0-1.72-1.12,5.88,5.88,0,0,0-2.29-.45,3,3,0,0,0-1.55.34,1,1,0,0,0-.57.92.94.94,0,0,0,.63.88,9.44,9.44,0,0,0,1.94.58,19.26,19.26,0,0,1,2.72.7,4.6,4.6,0,0,1,1.9,1.29,3.53,3.53,0,0,1,.81,2.45,3.84,3.84,0,0,1-.68,2.23,4.56,4.56,0,0,1-2,1.56,8.1,8.1,0,0,1-3.15.56A10.27,10.27,0,0,1,238,34.7a7.61,7.61,0,0,1-2.68-1.54Z"/><path class="cls-4" d="M13.41,66.45a12.28,12.28,0,0,0,3.88,2.73,11.76,11.76,0,0,0,5,1,5.94,5.94,0,0,0,3.59-.93,2.68,2.68,0,0,0,1.28-2.24,2.34,2.34,0,0,0-1.38-2.17,18.93,18.93,0,0,0-4.29-1.42A45.86,45.86,0,0,1,16.18,62a9,9,0,0,1-3.59-2.47,6.63,6.63,0,0,1-1.54-4.61,7.51,7.51,0,0,1,1.31-4.29,8.69,8.69,0,0,1,3.71-3.05,13.16,13.16,0,0,1,5.61-1.12A15.47,15.47,0,0,1,32.6,50.33l-3.32,4.36a11,11,0,0,0-3.76-2.28,12.23,12.23,0,0,0-4.26-.78,5.08,5.08,0,0,0-3,.78,2.46,2.46,0,0,0-1.08,2.09,2,2,0,0,0,1.31,1.93,24.15,24.15,0,0,0,4.28,1.33A37.79,37.79,0,0,1,28,59.3a9.23,9.23,0,0,1,3.66,2.55,6.64,6.64,0,0,1,1.53,4.58A8.21,8.21,0,0,1,30.35,73c-1.91,1.66-4.69,2.48-8.33,2.48q-7.44,0-11.89-4.45Z"/><path class="cls-4" d="M43.44,52.13H35.25V46.88H57.59v5.25H49.44V74.9h-6Z"/><path class="cls-4" d="M76.57,70.07H64.06L62.29,74.9H55.74l10.84-28h7.47l10.8,28H78.34ZM65.65,64.9h9.29L70.32,52.05Z"/><path class="cls-4" d="M97.78,64.86H93.42v10h-6v-28h13.11a10.33,10.33,0,0,1,5,1.16,8,8,0,0,1,3.28,3.21A9.46,9.46,0,0,1,110,55.91a8.44,8.44,0,0,1-1.78,5.59,7.81,7.81,0,0,1-4.35,2.73l6.3,10.67h-6.84Zm4.9-11.78a4.32,4.32,0,0,0-3-1.07H93.42v7.72h6.25a4.32,4.32,0,0,0,3-1.07,3.87,3.87,0,0,0,0-5.58Z"/><path class="cls-4" d="M120.51,52.13h-8.19V46.88h22.34v5.25h-8.15V74.9h-6Z"/><path class="cls-4" d="M155.2,56.08V74.9h-6v-28h6.14l13,18.15V46.88h6v28h-5.76Z"/><path class="cls-4" d="M180.4,53.47a13.49,13.49,0,0,1,5.23-5.18,16,16,0,0,1,15,0,13.49,13.49,0,0,1,5.23,5.18,15.69,15.69,0,0,1,0,14.93,13.53,13.53,0,0,1-5.23,5.17,16,16,0,0,1-15,0,13.53,13.53,0,0,1-5.23-5.17,15.69,15.69,0,0,1,0-14.93Zm20.2,2.75a8,8,0,0,0-3-3.31,8.41,8.41,0,0,0-4.48-1.2,8.26,8.26,0,0,0-4.45,1.2,8,8,0,0,0-3,3.31,11.11,11.11,0,0,0,0,9.43,8,8,0,0,0,3,3.3,8.26,8.26,0,0,0,4.45,1.2A8.41,8.41,0,0,0,197.6,69a8,8,0,0,0,3-3.3,11.11,11.11,0,0,0,0-9.43Z"/><path class="cls-4" d="M227.65,55.66,222.77,74.9h-6.34l-8-28h6.68L220,67.13l5.34-20.25H230l5.29,20.25,4.87-20.25h6.72l-8,28h-6.34Z"/></g><g id="REC"><rect class="cls-1" x="0.5" y="0.5" width="728" height="90"/></g></g></svg>