<svg xmlns="http://www.w3.org/2000/svg" viewBox="0 0 160 600"><g id="Layer_2" data-name="Layer 2"><g id="rec"><rect width="160" height="600" fill="none"/></g><g id="sbhd"><path d="M22.93,226.5v-7.73l-3.06,7.73h-.75L16,218.77v7.73H14.29v-10h2.47l2.73,6.87,2.72-6.87h2.47v10Z" fill="#e52823"/><path d="M30.13,226.68a4.47,4.47,0,0,1-1.53-.27,3.46,3.46,0,0,1-1.2-.78,3.56,3.56,0,0,1-.78-1.2,4.13,4.13,0,0,1-.29-1.56,4.05,4.05,0,0,1,.27-1.48,3.51,3.51,0,0,1,.76-1.21,3.56,3.56,0,0,1,1.16-.81,3.86,3.86,0,0,1,3,0,3.28,3.28,0,0,1,1.12.82,3.57,3.57,0,0,1,.71,1.25,4.66,4.66,0,0,1,.25,1.57v.39H28a2.27,2.27,0,0,0,.22.77,2,2,0,0,0,.46.63,2.19,2.19,0,0,0,.7.44,2.65,2.65,0,0,0,.92.16,3.2,3.2,0,0,0,1.11-.21,2.61,2.61,0,0,0,1-.6l.72,1a3.68,3.68,0,0,1-1.32.8A5.1,5.1,0,0,1,30.13,226.68Zm1.92-4.41a2.09,2.09,0,0,0-.15-.66,1.93,1.93,0,0,0-1-1.07,2.38,2.38,0,0,0-1.79,0,2,2,0,0,0-.62.45,2,2,0,0,0-.38.62,2,2,0,0,0-.15.67Z" fill="#e52823"/><path d="M35.12,226.5v-7.25H36.7v1.05a3.67,3.67,0,0,1,1-.88,2.66,2.66,0,0,1,1.32-.35v1.56a2.28,2.28,0,0,0-.48,0,2,2,0,0,0-.53.08,2.52,2.52,0,0,0-.54.21,2,2,0,0,0-.47.32,1.6,1.6,0,0,0-.33.37v4.94Z" fill="#e52823"/><path d="M40.33,226.5v-7.25H41.9v1.05a3.71,3.71,0,0,1,1-.88,2.63,2.63,0,0,1,1.32-.35v1.56a2.36,2.36,0,0,0-.48,0,2.14,2.14,0,0,0-.54.08,3,3,0,0,0-.54.21,2.17,2.17,0,0,0-.47.32,1.6,1.6,0,0,0-.33.37v4.94Z" fill="#e52823"/><path d="M46.33,218.37a1,1,0,1,1,0-2,.91.91,0,0,1,.68.28,1,1,0,0,1,0,1.38A.92.92,0,0,1,46.33,218.37Zm-.8,8.13v-7.25h1.58v7.25Z" fill="#e52823"/><path d="M52.44,226.68a3.82,3.82,0,0,1-1.5-.29,3.45,3.45,0,0,1-1.18-.79,3.63,3.63,0,0,1-.77-1.21,4.27,4.27,0,0,1,0-3,3.58,3.58,0,0,1,.77-1.2,3.62,3.62,0,0,1,1.18-.8,4.22,4.22,0,0,1,2.47-.17,3.32,3.32,0,0,1,.77.28,3.24,3.24,0,0,1,.59.41,4.08,4.08,0,0,1,.45.49l-1,.95a1.92,1.92,0,0,0-1.66-.84,2,2,0,0,0-1.59.66,2.52,2.52,0,0,0-.6,1.74,2.69,2.69,0,0,0,.16,1,2.12,2.12,0,0,0,.45.77,2,2,0,0,0,.69.5,2.11,2.11,0,0,0,.89.18,1.93,1.93,0,0,0,1.66-.87l1,1a3.61,3.61,0,0,1-1,.9A3.49,3.49,0,0,1,52.44,226.68Z" fill="#e52823"/><path d="M61.41,226.5l-2.2-3-1,1v2H56.61v-10h1.58v6.26l3.19-3.5h1.95l-3,3.29,3.06,4Z" fill="#e52823"/><path d="M67.51,217.43a2,2,0,0,1-.14.73,2.16,2.16,0,0,1-.39.59,1.88,1.88,0,0,1-.6.39,1.8,1.8,0,0,1-1.44,0,1.84,1.84,0,0,1-.59-.39,2,2,0,0,1-.4-.59,1.95,1.95,0,0,1,0-1.45,1.76,1.76,0,0,1,.4-.59,1.87,1.87,0,0,1,.59-.4,1.92,1.92,0,0,1,1.44,0,1.8,1.8,0,0,1,1,1A2,2,0,0,1,67.51,217.43Zm-.26,0a1.59,1.59,0,0,0-.12-.62,1.52,1.52,0,0,0-.34-.51,2,2,0,0,0-.51-.34,1.63,1.63,0,0,0-.62-.12A1.56,1.56,0,0,0,65,216a2,2,0,0,0-.51.34,1.52,1.52,0,0,0-.34.51,1.59,1.59,0,0,0-.12.62,1.63,1.63,0,0,0,.12.62,1.58,1.58,0,0,0,.34.5,1.75,1.75,0,0,0,.51.34,1.56,1.56,0,0,0,.62.13,1.64,1.64,0,0,0,.62-.13,1.75,1.75,0,0,0,.51-.34,1.58,1.58,0,0,0,.34-.5A1.63,1.63,0,0,0,67.25,217.43Zm-1.08,1.07-.55-.84h-.38v.84H65v-2.12h.87a.71.71,0,0,1,.48.17.58.58,0,0,1,.21.47.56.56,0,0,1-.07.3.64.64,0,0,1-.16.2.5.5,0,0,1-.19.1l-.13,0,.57.85Zm0-1.48a.36.36,0,0,0-.12-.28.4.4,0,0,0-.26-.11h-.58v.77h.58a.4.4,0,0,0,.26-.11A.34.34,0,0,0,66.2,217Z" fill="#e52823"/><path d="M75.66,229.44A5.21,5.21,0,0,1,74,229.2a3.63,3.63,0,0,1-1.39-.85l.73-1.13a2.62,2.62,0,0,0,1,.72,3.71,3.71,0,0,0,1.29.21,3.47,3.47,0,0,0,.78-.1,2,2,0,0,0,.69-.34,1.78,1.78,0,0,0,.49-.62,2.15,2.15,0,0,0,.19-1v-.83a3.17,3.17,0,0,1-1,.89,2.69,2.69,0,0,1-1.32.33,3.21,3.21,0,0,1-1.28-.25,2.79,2.79,0,0,1-1-.72,3.37,3.37,0,0,1-.67-1.16,4.83,4.83,0,0,1-.24-1.59,4.75,4.75,0,0,1,.24-1.57,3.67,3.67,0,0,1,.67-1.18,2.88,2.88,0,0,1,1-.72,3.19,3.19,0,0,1,1.29-.25,2.84,2.84,0,0,1,1.29.3,3,3,0,0,1,1,.88v-1h1.57v6.87a3.54,3.54,0,0,1-.33,1.62,2.7,2.7,0,0,1-.86,1,3.26,3.26,0,0,1-1.2.53A6.69,6.69,0,0,1,75.66,229.44ZM76,225.1a2.08,2.08,0,0,0,1.07-.29,2.12,2.12,0,0,0,.79-.67v-2.71a2.23,2.23,0,0,0-.79-.68,2.17,2.17,0,0,0-1.07-.28,1.9,1.9,0,0,0-1.5.63,2.5,2.5,0,0,0-.56,1.69,2.45,2.45,0,0,0,.56,1.68A1.9,1.9,0,0,0,76,225.1Z" fill="#e52823"/><path d="M81.42,226.5v-7.25H83v1.05a3.67,3.67,0,0,1,1-.88,2.66,2.66,0,0,1,1.32-.35v1.56a2.28,2.28,0,0,0-.48,0,2.07,2.07,0,0,0-.53.08,3,3,0,0,0-.54.21,2.17,2.17,0,0,0-.47.32,1.6,1.6,0,0,0-.33.37v4.94Z" fill="#e52823"/><path d="M91.73,226.5v-1a3.07,3.07,0,0,1-1,.86,2.8,2.8,0,0,1-1.32.32,3.22,3.22,0,0,1-1.28-.26,2.87,2.87,0,0,1-1-.75,3.67,3.67,0,0,1-.67-1.2,5.39,5.39,0,0,1,0-3.18,3.67,3.67,0,0,1,.67-1.2,3,3,0,0,1,1-.76,3.2,3.2,0,0,1,1.29-.26,2.84,2.84,0,0,1,1.29.3,3,3,0,0,1,1,.88v-1H93.3v7.25Zm-1.86-1.22a2.13,2.13,0,0,0,.55-.07,3,3,0,0,0,.52-.21,2.55,2.55,0,0,0,.45-.31,1.72,1.72,0,0,0,.34-.38v-2.87a2.33,2.33,0,0,0-.34-.38,2.55,2.55,0,0,0-.45-.31,2.36,2.36,0,0,0-.52-.21,2.13,2.13,0,0,0-.55-.07,1.84,1.84,0,0,0-.86.18,1.92,1.92,0,0,0-.64.49,2.06,2.06,0,0,0-.41.76,3,3,0,0,0-.15,1,2.93,2.93,0,0,0,.15,1,2.19,2.19,0,0,0,.41.77,2,2,0,0,0,.64.5A2,2,0,0,0,89.87,225.28Z" fill="#e52823"/><path d="M96.14,218.37a1,1,0,1,1,.69-.29A.94.94,0,0,1,96.14,218.37Zm-.8,8.13v-7.25h1.58v7.25Z" fill="#e52823"/><path d="M103.86,226.5V222a1.47,1.47,0,0,0-.39-1.18,1.65,1.65,0,0,0-1.08-.32,2,2,0,0,0-1.08.3,2.89,2.89,0,0,0-.78.66v5.07H99v-7.25h1.57v1a2.62,2.62,0,0,1,.45-.42,3.15,3.15,0,0,1,.59-.38,3.34,3.34,0,0,1,.71-.26,3.12,3.12,0,0,1,.82-.1,2.33,2.33,0,0,1,1.75.6,2.39,2.39,0,0,1,.59,1.73v5.1Z" fill="#e52823"/><path d="M14.63,247.29v-5.87h-1.2v-1.37h1.2v-.4a2.49,2.49,0,0,1,.65-1.86,2.17,2.17,0,0,1,1.63-.65,2.67,2.67,0,0,1,1.28.27l-.35,1.18a1.14,1.14,0,0,0-.63-.16.92.92,0,0,0-.74.3,1.33,1.33,0,0,0-.26.92v.4h1.47v1.37H16.21v5.87Z" fill="#e52823"/><path d="M18.88,247.29v-7.24h1.57v1a3.71,3.71,0,0,1,1-.88,2.66,2.66,0,0,1,1.32-.35v1.56a2.28,2.28,0,0,0-.48-.05,2.14,2.14,0,0,0-.54.08,3,3,0,0,0-.54.21,2.55,2.55,0,0,0-.47.31,1.63,1.63,0,0,0-.33.38v4.93Z" fill="#e52823"/><path d="M27.44,247.48a4.37,4.37,0,0,1-1.52-.27,3.5,3.5,0,0,1-2-2,4.2,4.2,0,0,1-.28-1.56,4.27,4.27,0,0,1,.26-1.48,3.83,3.83,0,0,1,.76-1.21,3.79,3.79,0,0,1,1.16-.81,3.86,3.86,0,0,1,3,0,3.19,3.19,0,0,1,1.12.82,3.59,3.59,0,0,1,.72,1.25,4.92,4.92,0,0,1,.24,1.57v.39H25.29a3,3,0,0,0,.22.77,2.21,2.21,0,0,0,.47.63,2.09,2.09,0,0,0,.7.44,2.59,2.59,0,0,0,.91.16A3.2,3.2,0,0,0,28.7,246a2.75,2.75,0,0,0,1-.6l.72,1a3.83,3.83,0,0,1-1.32.8A5.1,5.1,0,0,1,27.44,247.48Zm1.92-4.42a2.3,2.3,0,0,0-.14-.65,2,2,0,0,0-.38-.61,1.83,1.83,0,0,0-.62-.46,2.11,2.11,0,0,0-.91-.18,2.14,2.14,0,0,0-.87.17,2.11,2.11,0,0,0-.63.45,2.2,2.2,0,0,0-.38.62,2,2,0,0,0-.15.66Z" fill="#e52823"/><path d="M35.79,247.48a4.41,4.41,0,0,1-1.52-.27,3.61,3.61,0,0,1-1.2-.78,3.74,3.74,0,0,1-.79-1.2,4.2,4.2,0,0,1-.28-1.56,4.05,4.05,0,0,1,.27-1.48A3.51,3.51,0,0,1,33,241a3.56,3.56,0,0,1,1.16-.81,3.63,3.63,0,0,1,1.48-.3,3.76,3.76,0,0,1,1.48.29,3.38,3.38,0,0,1,1.12.82,3.57,3.57,0,0,1,.71,1.25,4.66,4.66,0,0,1,.25,1.57v.39H33.65a2.34,2.34,0,0,0,.22.77A2.13,2.13,0,0,0,35,246a2.65,2.65,0,0,0,.92.16,3.24,3.24,0,0,0,1.11-.21,2.85,2.85,0,0,0,1-.6l.72,1a3.87,3.87,0,0,1-1.33.8A5,5,0,0,1,35.79,247.48Zm1.92-4.42a2,2,0,0,0-.14-.65,1.93,1.93,0,0,0-1-1.07,2.38,2.38,0,0,0-1.79,0,2,2,0,0,0-.62.45,2,2,0,0,0-.39.62,2.3,2.3,0,0,0-.14.66Z" fill="#e52823"/><path d="M49.76,247.29v-1a3.07,3.07,0,0,1-1,.86,2.79,2.79,0,0,1-1.31.32,3.27,3.27,0,0,1-1.29-.26,2.87,2.87,0,0,1-1-.75,3.48,3.48,0,0,1-.66-1.2,4.94,4.94,0,0,1-.24-1.6,4.86,4.86,0,0,1,.24-1.58,3.48,3.48,0,0,1,.66-1.2,3,3,0,0,1,1-.76,3.13,3.13,0,0,1,1.29-.26,2.84,2.84,0,0,1,1.29.3,3.07,3.07,0,0,1,1,.88v-3.76h1.57v10Zm-1.86-1.21a1.79,1.79,0,0,0,.55-.08,2,2,0,0,0,.52-.21,2.08,2.08,0,0,0,.45-.3,1.56,1.56,0,0,0,.34-.39v-2.86a2,2,0,0,0-.34-.38,2.55,2.55,0,0,0-.45-.31,2.36,2.36,0,0,0-.52-.21,2.13,2.13,0,0,0-.55-.07,2,2,0,0,0-.86.17,2,2,0,0,0-.64.5,2.06,2.06,0,0,0-.41.76,3.4,3.4,0,0,0,0,1.93,2.19,2.19,0,0,0,.41.77,2,2,0,0,0,.64.5A2,2,0,0,0,47.9,246.08Z" fill="#e52823"/><path d="M56.66,247.48a3.88,3.88,0,0,1-1.56-.31,3.55,3.55,0,0,1-1.17-.83,3.44,3.44,0,0,1-.73-1.21,4.11,4.11,0,0,1-.26-1.46,4.27,4.27,0,0,1,.26-1.48,3.49,3.49,0,0,1,.73-1.2,3.39,3.39,0,0,1,1.17-.82,4.21,4.21,0,0,1,3.12,0,3.39,3.39,0,0,1,1.17.82,3.49,3.49,0,0,1,.73,1.2,4.27,4.27,0,0,1,.26,1.48,4.11,4.11,0,0,1-.26,1.46,3.44,3.44,0,0,1-.73,1.21,3.55,3.55,0,0,1-1.17.83A3.88,3.88,0,0,1,56.66,247.48Zm0-1.4a1.94,1.94,0,0,0,1.55-.72,2.26,2.26,0,0,0,.4-.77,3.2,3.2,0,0,0,.13-.92,3.1,3.1,0,0,0-.13-.92,2.35,2.35,0,0,0-.4-.77,1.89,1.89,0,0,0-1.55-.71,1.93,1.93,0,0,0-1.54.71,2.38,2.38,0,0,0-.41.77,3.1,3.1,0,0,0-.13.92,3.2,3.2,0,0,0,.13.92,2.28,2.28,0,0,0,.41.77,2,2,0,0,0,1.54.72Z" fill="#e52823"/><path d="M64.94,250.23a5.22,5.22,0,0,1-1.65-.23,3.68,3.68,0,0,1-1.39-.85l.73-1.13a2.59,2.59,0,0,0,1,.71,3.49,3.49,0,0,0,1.29.21,3.31,3.31,0,0,0,.77-.09,1.86,1.86,0,0,0,.69-.34,1.8,1.8,0,0,0,.5-.62,2.3,2.3,0,0,0,.18-1v-.83a3.18,3.18,0,0,1-1,.89,2.63,2.63,0,0,1-1.31.33,3.18,3.18,0,0,1-1.28-.25,2.64,2.64,0,0,1-1-.72,3.22,3.22,0,0,1-.67-1.16,4.83,4.83,0,0,1-.24-1.59,4.75,4.75,0,0,1,.24-1.57,3.49,3.49,0,0,1,.67-1.18,2.68,2.68,0,0,1,1-.72,3.19,3.19,0,0,1,1.29-.25,2.84,2.84,0,0,1,1.29.3,3,3,0,0,1,1,.88v-1h1.58v6.87a3.54,3.54,0,0,1-.33,1.62,2.79,2.79,0,0,1-.86,1,3.4,3.4,0,0,1-1.2.52A6.1,6.1,0,0,1,64.94,250.23Zm.28-4.33a2.14,2.14,0,0,0,1.08-.29,2.08,2.08,0,0,0,.78-.67v-2.71a2.1,2.1,0,0,0-.78-.68,2.23,2.23,0,0,0-1.08-.28,1.9,1.9,0,0,0-1.5.63,2.54,2.54,0,0,0-.55,1.69,2.5,2.5,0,0,0,.55,1.68A1.9,1.9,0,0,0,65.22,245.9Z" fill="#e52823"/><path d="M75,247.29v-5.87h-1.2v-1.37H75v-.4a2.45,2.45,0,0,1,.65-1.86,2.15,2.15,0,0,1,1.63-.65,2.63,2.63,0,0,1,1.27.27l-.34,1.18a1.14,1.14,0,0,0-.63-.16.92.92,0,0,0-.74.3,1.33,1.33,0,0,0-.27.92v.4H78v1.37H76.53v5.87Z" fill="#e52823"/><path d="M82.49,247.48a3.88,3.88,0,0,1-1.56-.31,3.55,3.55,0,0,1-1.17-.83,3.46,3.46,0,0,1-.74-1.21,4.11,4.11,0,0,1-.25-1.46,4.26,4.26,0,0,1,.25-1.48,3.51,3.51,0,0,1,.74-1.2,3.39,3.39,0,0,1,1.17-.82,4.21,4.21,0,0,1,3.12,0,3.39,3.39,0,0,1,1.17.82,3.49,3.49,0,0,1,.73,1.2,4.27,4.27,0,0,1,.26,1.48,4.11,4.11,0,0,1-.26,1.46,3.44,3.44,0,0,1-.73,1.21,3.55,3.55,0,0,1-1.17.83A3.88,3.88,0,0,1,82.49,247.48Zm0-1.4a1.94,1.94,0,0,0,1.55-.72,2.26,2.26,0,0,0,.4-.77,3.21,3.21,0,0,0,.14-.92,3.1,3.1,0,0,0-.14-.92A2.35,2.35,0,0,0,84,242a2.09,2.09,0,0,0-2.44-.52,2.12,2.12,0,0,0-.66.52,2.35,2.35,0,0,0-.4.77,3.1,3.1,0,0,0-.13.92,3.2,3.2,0,0,0,.13.92,2.26,2.26,0,0,0,.4.77,2,2,0,0,0,.66.52A1.85,1.85,0,0,0,82.49,246.08Z" fill="#e52823"/><path d="M91.1,247.48a3.88,3.88,0,0,1-1.56-.31,3.55,3.55,0,0,1-1.17-.83,3.46,3.46,0,0,1-.74-1.21,4.11,4.11,0,0,1-.25-1.46,4.26,4.26,0,0,1,.25-1.48,3.51,3.51,0,0,1,.74-1.2,3.39,3.39,0,0,1,1.17-.82,4.21,4.21,0,0,1,3.12,0,3.39,3.39,0,0,1,1.17.82,3.49,3.49,0,0,1,.73,1.2,4.27,4.27,0,0,1,.26,1.48,4.11,4.11,0,0,1-.26,1.46,3.44,3.44,0,0,1-.73,1.21,3.55,3.55,0,0,1-1.17.83A3.88,3.88,0,0,1,91.1,247.48Zm0-1.4a1.94,1.94,0,0,0,1.55-.72,2.26,2.26,0,0,0,.4-.77,3.2,3.2,0,0,0,.13-.92,3.1,3.1,0,0,0-.13-.92,2.35,2.35,0,0,0-.4-.77,2.09,2.09,0,0,0-2.44-.52,2.12,2.12,0,0,0-.66.52,2.35,2.35,0,0,0-.4.77,3.1,3.1,0,0,0-.14.92,3.21,3.21,0,0,0,.14.92,2.26,2.26,0,0,0,.4.77,2,2,0,0,0,.66.52A1.85,1.85,0,0,0,91.1,246.08Z" fill="#e52823"/><path d="M101.52,247.29v-1a3,3,0,0,1-1,.86,2.73,2.73,0,0,1-1.31.32,3.18,3.18,0,0,1-1.28-.26,2.71,2.71,0,0,1-1-.75,3.49,3.49,0,0,1-.67-1.2,4.94,4.94,0,0,1-.24-1.6,4.86,4.86,0,0,1,.24-1.58,3.49,3.49,0,0,1,.67-1.2,2.9,2.9,0,0,1,1-.76,3.2,3.2,0,0,1,1.29-.26,2.84,2.84,0,0,1,1.29.3,3,3,0,0,1,1,.88v-3.76h1.58v10Zm-1.86-1.21a1.75,1.75,0,0,0,.55-.08,2,2,0,0,0,.53-.21,2.71,2.71,0,0,0,.45-.3,1.75,1.75,0,0,0,.33-.39v-2.86a2.3,2.3,0,0,0-.33-.38,3.58,3.58,0,0,0-.45-.31,2.44,2.44,0,0,0-.53-.21,2.08,2.08,0,0,0-.55-.07,1.93,1.93,0,0,0-.85.17,2,2,0,0,0-.65.5,2.22,2.22,0,0,0-.41.76,3.4,3.4,0,0,0,0,1.93,2.36,2.36,0,0,0,.41.77,2,2,0,0,0,.65.5A1.93,1.93,0,0,0,99.66,246.08Z" fill="#e52823"/><path d="M107.09,246.73a2.93,2.93,0,0,1-.38,1.45,3.39,3.39,0,0,1-1,1.11l-.72-.58.36-.27a3.7,3.7,0,0,0,.33-.36,2,2,0,0,0,.26-.39,1.25,1.25,0,0,0,.13-.4l-.1,0-.15,0a.83.83,0,0,1-.63-.27,1,1,0,0,1-.26-.69,1,1,0,0,1,.3-.72,1,1,0,0,1,.72-.3,1.11,1.11,0,0,1,.81.35A1.42,1.42,0,0,1,107.09,246.73Z" fill="#e52823"/><path d="M17.36,268.28a5.06,5.06,0,0,1-2.29-.48,4.24,4.24,0,0,1-1.49-1.14l1-1.16a3.24,3.24,0,0,0,1.22.89,3.71,3.71,0,0,0,1.54.33,2.49,2.49,0,0,0,1.54-.42,1.35,1.35,0,0,0,.55-1.11,1.17,1.17,0,0,0-.57-1.09,3.22,3.22,0,0,0-1.65-.34H16.5a4.11,4.11,0,0,0-.47,0v-1.6h1.14a4.18,4.18,0,0,0,.82-.07,2,2,0,0,0,.65-.24,1.34,1.34,0,0,0,.44-.41,1.13,1.13,0,0,0,.16-.59,1.23,1.23,0,0,0-.16-.61,1.39,1.39,0,0,0-.44-.43,2.32,2.32,0,0,0-.64-.26,3.35,3.35,0,0,0-.79-.09,3.48,3.48,0,0,0-2.59,1.11l-.9-1.09a4.54,4.54,0,0,1,1.49-1.14,5,5,0,0,1,2.17-.44,5.18,5.18,0,0,1,1.47.19,3.47,3.47,0,0,1,1.13.53,2.44,2.44,0,0,1,.73.84,2.29,2.29,0,0,1,.27,1.12,2.06,2.06,0,0,1-.2.91,2.44,2.44,0,0,1-.5.68,2.74,2.74,0,0,1-.7.46,2.9,2.9,0,0,1-.76.24,3,3,0,0,1,.76.21,2.9,2.9,0,0,1,.76.47,2.46,2.46,0,0,1,.58.73,2.23,2.23,0,0,1,.22,1,2.64,2.64,0,0,1-.26,1.17,2.71,2.71,0,0,1-.76.93,3.82,3.82,0,0,1-1.19.61A5.46,5.46,0,0,1,17.36,268.28Z" fill="#e52823"/><path d="M26.47,268.28a3.55,3.55,0,0,1-1.83-.46,3.88,3.88,0,0,1-1.23-1.19,5.64,5.64,0,0,1-.72-1.66,7.72,7.72,0,0,1,0-3.74,5.58,5.58,0,0,1,.72-1.65,3.78,3.78,0,0,1,1.23-1.19,3.55,3.55,0,0,1,1.83-.45,3.44,3.44,0,0,1,1.8.45,3.72,3.72,0,0,1,1.24,1.19,5.32,5.32,0,0,1,.71,1.65,7.41,7.41,0,0,1,0,3.74,5.38,5.38,0,0,1-.71,1.66,3.82,3.82,0,0,1-1.24,1.19A3.44,3.44,0,0,1,26.47,268.28Zm0-1.56a1.71,1.71,0,0,0,1-.3,2.15,2.15,0,0,0,.69-.8,4.09,4.09,0,0,0,.37-1.15,7.51,7.51,0,0,0,.12-1.37,8.54,8.54,0,0,0-.11-1.37,3.79,3.79,0,0,0-.38-1.15,2.18,2.18,0,0,0-.68-.79,1.79,1.79,0,0,0-1-.29,1.82,1.82,0,0,0-1,.29,2.18,2.18,0,0,0-.68.79,3.79,3.79,0,0,0-.38,1.15,7.88,7.88,0,0,0,0,2.74,3.79,3.79,0,0,0,.38,1.15,2.22,2.22,0,0,0,.68.8A1.75,1.75,0,0,0,26.47,266.72Z" fill="#e52823"/><path d="M37.84,268.28a1.86,1.86,0,0,1-1.39-.48,1.9,1.9,0,0,1-.47-1.4v-8.31h1.57V266a1.08,1.08,0,0,0,.17.62.59.59,0,0,0,.52.25,1.16,1.16,0,0,0,.42-.08.86.86,0,0,0,.29-.19l.37,1.2a1.71,1.71,0,0,1-.57.33A2.6,2.6,0,0,1,37.84,268.28Z" fill="#e52823"/><path d="M40.27,268.1v-10h1.57v3.76a3,3,0,0,1,1-.88,2.91,2.91,0,0,1,1.29-.3,3.2,3.2,0,0,1,1.29.26,2.85,2.85,0,0,1,1,.76,3.49,3.49,0,0,1,.67,1.2,5.39,5.39,0,0,1,0,3.18,3.49,3.49,0,0,1-.67,1.2,2.91,2.91,0,0,1-1,.75,3.22,3.22,0,0,1-1.28.26,2.79,2.79,0,0,1-1.31-.32,3,3,0,0,1-1-.86v1Zm1.57-2.18a2.05,2.05,0,0,0,.79.68,2.21,2.21,0,0,0,1.09.28,1.82,1.82,0,0,0,1.49-.67,2.7,2.7,0,0,0,.55-1.74,3,3,0,0,0-.15-1,2.06,2.06,0,0,0-.41-.76,1.9,1.9,0,0,0-1.48-.67,2.21,2.21,0,0,0-1.09.28,2.16,2.16,0,0,0-.79.69Z" fill="#e52823"/><path d="M51.47,268.28a4.89,4.89,0,0,1-1.74-.3,3.71,3.71,0,0,1-1.36-.84l.72-1.13a3,3,0,0,0,.46.38,4.23,4.23,0,0,0,.6.32,4.15,4.15,0,0,0,.68.22,2.86,2.86,0,0,0,.7.09,1.79,1.79,0,0,0,1.08-.27.8.8,0,0,0,.36-.69.59.59,0,0,0-.32-.54,3.44,3.44,0,0,0-.81-.3L50.78,265a4.57,4.57,0,0,1-1.06-.36,2.45,2.45,0,0,1-.81-.65,1.77,1.77,0,0,1-.32-1.11,1.92,1.92,0,0,1,.19-.85,2,2,0,0,1,.55-.69,2.69,2.69,0,0,1,.89-.48,4.08,4.08,0,0,1,1.22-.17,4.31,4.31,0,0,1,1.63.29,4,4,0,0,1,1.18.72l-.66,1.11a2.7,2.7,0,0,0-.9-.62,3,3,0,0,0-1.25-.25,1.63,1.63,0,0,0-1,.25.76.76,0,0,0-.35.65.51.51,0,0,0,.32.48,3.19,3.19,0,0,0,.81.27l1.06.24a4.36,4.36,0,0,1,1.05.38,2.21,2.21,0,0,1,.81.67,1.85,1.85,0,0,1,.33,1.15,2.12,2.12,0,0,1-.2.9,1.91,1.91,0,0,1-.58.72,2.76,2.76,0,0,1-.94.47A4.3,4.3,0,0,1,51.47,268.28Z" fill="#e52823"/><path d="M56.89,268.26a1,1,0,0,1-.75-.31,1.06,1.06,0,0,1-.31-.75,1,1,0,0,1,.31-.73,1.05,1.05,0,0,1,1.49,0,1,1,0,0,1,.31.73,1.06,1.06,0,0,1-.31.75A1,1,0,0,1,56.89,268.26Z" fill="#e52823"/><path d="M66.64,268.25a5.66,5.66,0,0,1-2-.51,5.07,5.07,0,0,1-1.46-1l1-1.36a4.37,4.37,0,0,0,1.06.84,3.79,3.79,0,0,0,1.45.51v-2.92a10.26,10.26,0,0,1-1.15-.35,4,4,0,0,1-1-.51,2.57,2.57,0,0,1-.73-.81,2.73,2.73,0,0,1,0-2.3,2.82,2.82,0,0,1,.63-.9,3.5,3.5,0,0,1,1-.64,4.41,4.41,0,0,1,1.31-.3v-1.38h1.19V258a5.54,5.54,0,0,1,1.68.45,4.77,4.77,0,0,1,1.34.92l-1,1.3a3.66,3.66,0,0,0-1-.69,4.76,4.76,0,0,0-1.08-.37v2.59c.4.1.79.22,1.17.35a4.16,4.16,0,0,1,1,.54,2.93,2.93,0,0,1,.75.85,2.55,2.55,0,0,1,.29,1.26,3.14,3.14,0,0,1-.19,1.1,2.69,2.69,0,0,1-.6.94,3,3,0,0,1-1,.69,4.89,4.89,0,0,1-1.46.35v1.35H66.64Zm-1.37-7.5a.8.8,0,0,0,.38.69,3.82,3.82,0,0,0,1,.43v-2.35a1.75,1.75,0,0,0-1,.4A1.06,1.06,0,0,0,65.27,260.75Zm4,4.59a.9.9,0,0,0-.41-.79,3.94,3.94,0,0,0-1-.47v2.61a1.76,1.76,0,0,0,1.12-.52A1.25,1.25,0,0,0,69.29,265.34Z" fill="#e52823"/><path d="M76.43,268.28a3.94,3.94,0,0,1-1.89-.42,3.55,3.55,0,0,1-1.28-1.12,4.93,4.93,0,0,1-.72-1.65,8,8,0,0,1-.24-2,7,7,0,0,1,.29-2,4.85,4.85,0,0,1,.84-1.63,3.92,3.92,0,0,1,1.38-1.1,4.64,4.64,0,0,1,3.55-.11,3.83,3.83,0,0,1,1.22.81l-.81,1.32a3.26,3.26,0,0,0-.86-.64,2.79,2.79,0,0,0-1.2-.23,2.29,2.29,0,0,0-1.12.27,2.5,2.5,0,0,0-.83.72,3,3,0,0,0-.51,1.05,4.36,4.36,0,0,0-.17,1.26v.29a3.43,3.43,0,0,1,.45-.51,4.41,4.41,0,0,1,.63-.45,4,4,0,0,1,.75-.33,3.06,3.06,0,0,1,.85-.12,3.86,3.86,0,0,1,1.28.21,3.29,3.29,0,0,1,1.08.61,3,3,0,0,1,.73,1,3.48,3.48,0,0,1,.27,1.41,3.24,3.24,0,0,1-1,2.37A3.39,3.39,0,0,1,78,268,4.07,4.07,0,0,1,76.43,268.28Zm-.1-1.56a2.33,2.33,0,0,0,.87-.16,2,2,0,0,0,.63-.41,2,2,0,0,0,.38-.57,1.61,1.61,0,0,0,.12-.6,1.86,1.86,0,0,0-.16-.81,1.52,1.52,0,0,0-.45-.55,1.88,1.88,0,0,0-.65-.32,2.83,2.83,0,0,0-.78-.11,2.74,2.74,0,0,0-2.18,1.17,3.12,3.12,0,0,0,.16.83,2.26,2.26,0,0,0,.4.75,2.32,2.32,0,0,0,.68.56A2.12,2.12,0,0,0,76.33,266.72Z" fill="#e52823"/><path d="M85.88,268.1v-2.27H81.11v-1.41l4.11-6.33h2.41v6.18H89v1.56H87.63v2.27Zm0-8.43-3,4.6h3Z" fill="#e52823"/><path d="M91.24,268.26a1,1,0,0,1-.75-.31,1.06,1.06,0,0,1-.31-.75,1,1,0,0,1,.31-.73,1,1,0,0,1,1.79.73,1.05,1.05,0,0,1-.3.75A1,1,0,0,1,91.24,268.26Z" fill="#e52823"/><path d="M97.07,268.26a4.1,4.1,0,0,1-1.66-.31,4,4,0,0,1-1.22-.8l.82-1.33a3,3,0,0,0,.87.65,2.74,2.74,0,0,0,1.19.23,2.37,2.37,0,0,0,1.18-.28,2.46,2.46,0,0,0,.82-.75,3.2,3.2,0,0,0,.48-1.06,4.52,4.52,0,0,0,.16-1.21v-.14c0-.05,0-.09,0-.14a2.9,2.9,0,0,1-.45.5,4.3,4.3,0,0,1-.62.45,3.47,3.47,0,0,1-.76.32,3,3,0,0,1-.86.12,4.13,4.13,0,0,1-1.28-.2,2.92,2.92,0,0,1-1.8-1.62,3.43,3.43,0,0,1-.27-1.4,3.23,3.23,0,0,1,.27-1.31,3.07,3.07,0,0,1,.74-1.07,3.35,3.35,0,0,1,1.16-.72,4.11,4.11,0,0,1,1.52-.26,4,4,0,0,1,1.89.41,3.55,3.55,0,0,1,1.28,1.12,5.15,5.15,0,0,1,.73,1.65,8.52,8.52,0,0,1,.23,2,7.3,7.3,0,0,1-.28,2,5,5,0,0,1-.85,1.64,3.81,3.81,0,0,1-1.38,1.1A4.12,4.12,0,0,1,97.07,268.26Zm.42-5.25a2.5,2.5,0,0,0,1.22-.32,3,3,0,0,0,1-.86,4,4,0,0,0-.18-.82,2.26,2.26,0,0,0-.4-.75,2,2,0,0,0-.67-.56,2.12,2.12,0,0,0-1-.21,2.3,2.3,0,0,0-.87.15,2,2,0,0,0-.63.41,1.53,1.53,0,0,0-.39.56,1.77,1.77,0,0,0-.13.62,1.81,1.81,0,0,0,.17.8,1.52,1.52,0,0,0,.45.55,1.86,1.86,0,0,0,.66.33A2.88,2.88,0,0,0,97.49,263Z" fill="#e52823"/><path d="M106.08,268.26a4,4,0,0,1-1.65-.31,3.91,3.91,0,0,1-1.23-.8l.83-1.33a3.1,3.1,0,0,0,.86.65,2.77,2.77,0,0,0,1.19.23,2.34,2.34,0,0,0,1.18-.28,2.49,2.49,0,0,0,.83-.75,3.66,3.66,0,0,0,.48-1.06,5,5,0,0,0,.15-1.21v-.14a.66.66,0,0,0,0-.14,2.82,2.82,0,0,1-.44.5,5.06,5.06,0,0,1-.63.45,3.6,3.6,0,0,1-.75.32,3.08,3.08,0,0,1-.86.12,4.25,4.25,0,0,1-1.29-.2,3.1,3.1,0,0,1-1.06-.61,2.89,2.89,0,0,1-.73-1,3.6,3.6,0,0,1,0-2.71,3.36,3.36,0,0,1,.74-1.07,3.3,3.3,0,0,1,1.17-.72,4.08,4.08,0,0,1,1.52-.26,3.92,3.92,0,0,1,1.88.41,3.47,3.47,0,0,1,1.28,1.12,4.75,4.75,0,0,1,.73,1.65,8,8,0,0,1,.23,2,7,7,0,0,1-.28,2,4.8,4.8,0,0,1-.84,1.64,3.81,3.81,0,0,1-1.38,1.1A4.16,4.16,0,0,1,106.08,268.26Zm.42-5.25a2.56,2.56,0,0,0,1.23-.32,3.18,3.18,0,0,0,1-.86,4.86,4.86,0,0,0-.19-.82,2.43,2.43,0,0,0-.39-.75,2.16,2.16,0,0,0-.67-.56,2.13,2.13,0,0,0-1-.21,2.33,2.33,0,0,0-.87.15,2,2,0,0,0-.63.41,1.51,1.51,0,0,0-.38.56,1.57,1.57,0,0,0-.13.62,1.69,1.69,0,0,0,.17.8,1.34,1.34,0,0,0,.45.55,1.74,1.74,0,0,0,.65.33A2.93,2.93,0,0,0,106.5,263Z" fill="#e52823"/></g></g></svg>