<svg xmlns="http://www.w3.org/2000/svg" viewBox="0 0 300 601"><title>CTA</title><g id="Layer_2" data-name="Layer 2"><g id="REC"><rect y="1" width="300" height="600" fill="none"/><rect width="300" height="600" fill="none"/></g><g id="CTA"><path id="bg" d="M168.49,259.22H33.83c-9,0-16.32-7-16.32-15.66v-1.63c0-8.65,7.31-15.66,16.32-15.66H168.49c9,0,16.32,7,16.32,15.66v1.63c0,8.65-7.31,15.66-16.32,15.66" fill="#e52823"/><path d="M61.3,250a7.8,7.8,0,0,1-3.17-.59,6.76,6.76,0,0,1-2.22-1.51l1.3-1.81A6.26,6.26,0,0,0,59,247.39a5.21,5.21,0,0,0,2.45.56,4.35,4.35,0,0,0,1.22-.16,2.57,2.57,0,0,0,.81-.42,1.55,1.55,0,0,0,.45-.58,1.59,1.59,0,0,0,.15-.67,1.21,1.21,0,0,0-.56-1.06,5.63,5.63,0,0,0-1.43-.62c-.57-.17-1.19-.34-1.85-.5a9.29,9.29,0,0,1-1.86-.65,4,4,0,0,1-1.42-1.14,3,3,0,0,1-.57-1.93,3.45,3.45,0,0,1,.35-1.54,3.7,3.7,0,0,1,1-1.23,4.61,4.61,0,0,1,1.52-.82,6.14,6.14,0,0,1,2-.3,7.41,7.41,0,0,1,2.78.49,6.23,6.23,0,0,1,2.15,1.37l-1.3,1.73a4.84,4.84,0,0,0-1.8-1.16,6,6,0,0,0-2.05-.37,2.57,2.57,0,0,0-1.61.46,1.4,1.4,0,0,0-.61,1.19,1.06,1.06,0,0,0,.57,1,5.59,5.59,0,0,0,1.42.57l1.86.49a9.28,9.28,0,0,1,1.85.69,4.36,4.36,0,0,1,1.43,1.19,3.25,3.25,0,0,1,.56,2,4.14,4.14,0,0,1-.3,1.57,3.37,3.37,0,0,1-.92,1.31,4.43,4.43,0,0,1-1.59.89A7.2,7.2,0,0,1,61.3,250Z" fill="#fff"/><path d="M75,249.77v-6a1.87,1.87,0,0,0-.51-1.53A2.21,2.21,0,0,0,73,241.8a2.63,2.63,0,0,0-1.45.4,3.52,3.52,0,0,0-1,.87v6.7H68.49V236.55h2.08v4.93a5,5,0,0,1,1.36-1,4.68,4.68,0,0,1,.93-.34,4.21,4.21,0,0,1,1.08-.13,3.17,3.17,0,0,1,2.32.77A3.06,3.06,0,0,1,77,243v6.78Z" fill="#fff"/><path d="M84.07,250A5.05,5.05,0,0,1,82,249.6a4.53,4.53,0,0,1-1.54-1.09,4.72,4.72,0,0,1-1-1.59,5.9,5.9,0,0,1,0-3.89,4.62,4.62,0,0,1,1-1.59A4.53,4.53,0,0,1,82,240.35a5.22,5.22,0,0,1,2.06-.39,5.15,5.15,0,0,1,2.06.39A4.61,4.61,0,0,1,88.65,243a5.73,5.73,0,0,1,0,3.89,4.69,4.69,0,0,1-1,1.59,4.57,4.57,0,0,1-1.55,1.09A5,5,0,0,1,84.07,250Zm0-1.84a2.64,2.64,0,0,0,1.19-.26,2.46,2.46,0,0,0,.86-.7,2.91,2.91,0,0,0,.53-1,4.19,4.19,0,0,0,0-2.43,3,3,0,0,0-.53-1,2.43,2.43,0,0,0-.86-.69,2.66,2.66,0,0,0-3.23.69,2.79,2.79,0,0,0-.53,1,4.19,4.19,0,0,0,0,2.43,2.76,2.76,0,0,0,.53,1,2.69,2.69,0,0,0,.87.7A2.64,2.64,0,0,0,84.07,248.17Z" fill="#fff"/><path d="M96.26,250a3.61,3.61,0,0,1-1.69-.41,4.32,4.32,0,0,1-1.38-1.16v5H91.11V240.2h2.08v1.3a3.89,3.89,0,0,1,1.33-1.12,3.67,3.67,0,0,1,1.74-.42,4.18,4.18,0,0,1,1.71.34,3.78,3.78,0,0,1,1.34,1,4.68,4.68,0,0,1,.88,1.57,7.4,7.4,0,0,1,0,4.24,4.64,4.64,0,0,1-.88,1.58,3.93,3.93,0,0,1-1.34,1A4.18,4.18,0,0,1,96.26,250Zm-.61-1.84a2.42,2.42,0,0,0,2-.9,4,4,0,0,0,0-4.59,2.47,2.47,0,0,0-2-.88,2.92,2.92,0,0,0-1.42.37,2.8,2.8,0,0,0-1,.9v3.79a2.66,2.66,0,0,0,.45.51,2.85,2.85,0,0,0,.59.42,3.44,3.44,0,0,0,.69.28A3.13,3.13,0,0,0,95.65,248.17Z" fill="#fff"/><path d="M117,249.77l-6.9-9.45v9.45h-2.32V236.55h2.38l6.76,9.16v-9.16h2.32v13.22Z" fill="#fff"/><path d="M126.31,250a5.05,5.05,0,0,1-2.06-.41,4.53,4.53,0,0,1-1.54-1.09,4.72,4.72,0,0,1-1-1.59,5.9,5.9,0,0,1,0-3.89,4.62,4.62,0,0,1,1-1.59,4.53,4.53,0,0,1,1.54-1.09,5.22,5.22,0,0,1,2.06-.39,5.15,5.15,0,0,1,2.06.39,4.61,4.61,0,0,1,2.52,2.68,5.73,5.73,0,0,1,0,3.89,4.69,4.69,0,0,1-1,1.59,4.57,4.57,0,0,1-1.55,1.09A5,5,0,0,1,126.31,250Zm0-1.84a2.64,2.64,0,0,0,1.19-.26,2.46,2.46,0,0,0,.86-.7,2.91,2.91,0,0,0,.53-1,4.19,4.19,0,0,0,0-2.43,3,3,0,0,0-.53-1,2.43,2.43,0,0,0-.86-.69,2.66,2.66,0,0,0-3.23.69,2.79,2.79,0,0,0-.53,1,4.19,4.19,0,0,0,0,2.43,2.76,2.76,0,0,0,.53,1,2.69,2.69,0,0,0,.87.7A2.64,2.64,0,0,0,126.31,248.17Z" fill="#fff"/><path d="M141.71,249.77l-2.24-7-2.22,7h-2.18l-3-9.57h2.16l2,7,2.28-7h1.85l2.26,7,2-7h2.18l-3,9.57Z" fill="#fff"/></g></g></svg>