<svg xmlns="http://www.w3.org/2000/svg" viewBox="0 0 300 601"><title>SUB</title><g id="Layer_2" data-name="Layer 2"><g id="REC"><rect y="1" width="300" height="600" fill="none"/><rect width="300" height="600" fill="none"/></g><g id="sbhd"><path d="M28.37,138.39a8.71,8.71,0,0,1-3.65-.69,7.21,7.21,0,0,1-2.52-1.89l1.67-2a5.6,5.6,0,0,0,4.48,2,3.53,3.53,0,0,0,2.51-.85,2.76,2.76,0,0,0,.91-2.1,2.73,2.73,0,0,0-.9-2.15,3.58,3.58,0,0,0-2.45-.8,5.4,5.4,0,0,0-2,.34,5,5,0,0,0-1.7,1.08l-2.07-.6v-9.3H33.62V124h-8v4.78a5.76,5.76,0,0,1,1.6-1,5.47,5.47,0,0,1,2.18-.43,5.56,5.56,0,0,1,2,.37,5,5,0,0,1,1.71,1,4.86,4.86,0,0,1,1.18,1.68,5.69,5.69,0,0,1,.44,2.28,5.53,5.53,0,0,1-.48,2.34A5.24,5.24,0,0,1,33,136.85,6,6,0,0,1,31,138,7.93,7.93,0,0,1,28.37,138.39Z" fill="#e52823"/><path d="M43.5,138.39a5.83,5.83,0,0,1-3-.76,6.32,6.32,0,0,1-2.06-2,9,9,0,0,1-1.19-2.76,12.64,12.64,0,0,1,0-6.23,9,9,0,0,1,1.19-2.76,6.19,6.19,0,0,1,2.06-2,6.48,6.48,0,0,1,6,0,6.19,6.19,0,0,1,2.06,2,9.26,9.26,0,0,1,1.19,2.76,12.64,12.64,0,0,1,0,6.23,9.26,9.26,0,0,1-1.19,2.76,6.32,6.32,0,0,1-2.06,2A5.8,5.8,0,0,1,43.5,138.39Zm0-2.6a3,3,0,0,0,1.71-.5A3.71,3.71,0,0,0,46.35,134a6.8,6.8,0,0,0,.62-1.91,13.49,13.49,0,0,0,0-4.57,6.28,6.28,0,0,0-.62-1.92,3.64,3.64,0,0,0-1.14-1.31,3.28,3.28,0,0,0-3.45,0,3.74,3.74,0,0,0-1.14,1.31,6.57,6.57,0,0,0-.63,1.92,13.15,13.15,0,0,0,0,4.57,6.5,6.5,0,0,0,.63,1.91,3.81,3.81,0,0,0,1.14,1.33A2.92,2.92,0,0,0,43.5,135.79Z" fill="#e52823"/><path d="M56.05,129.44a4.58,4.58,0,0,1-1.69-.31,3.74,3.74,0,0,1-1.31-.88,3.85,3.85,0,0,1-.85-1.31,4.34,4.34,0,0,1-.3-1.63,4.41,4.41,0,0,1,.3-1.63,3.93,3.93,0,0,1,.85-1.33,3.85,3.85,0,0,1,1.31-.87,4.39,4.39,0,0,1,1.69-.32,4.51,4.51,0,0,1,1.7.32,3.85,3.85,0,0,1,1.31.87,4.07,4.07,0,0,1,.84,1.33,4.41,4.41,0,0,1,.3,1.63,4.34,4.34,0,0,1-.3,1.63,4,4,0,0,1-.84,1.31,3.74,3.74,0,0,1-1.31.88A4.71,4.71,0,0,1,56.05,129.44Zm0-1.68a2.08,2.08,0,0,0,1.6-.67,2.58,2.58,0,0,0,.62-1.79,2.64,2.64,0,0,0-.62-1.82,2.07,2.07,0,0,0-1.6-.69,2,2,0,0,0-1.58.69,2.59,2.59,0,0,0-.62,1.82,2.53,2.53,0,0,0,.62,1.79A2.06,2.06,0,0,0,56.05,127.76Zm-1.63,10.33,10.65-16.68h1.7L56.1,138.09Zm10.6.3a4.39,4.39,0,0,1-1.69-.31,4.06,4.06,0,0,1-1.31-.87,4,4,0,0,1-.85-1.31,4.32,4.32,0,0,1-.3-1.62,4.46,4.46,0,0,1,.3-1.64,4,4,0,0,1,.85-1.32,4.06,4.06,0,0,1,1.31-.87,4.76,4.76,0,0,1,3.38,0,4,4,0,0,1,1.31.87,4,4,0,0,1,.85,1.32,4.46,4.46,0,0,1,.3,1.64,4.32,4.32,0,0,1-.3,1.62,3.86,3.86,0,0,1-2.16,2.18A4.39,4.39,0,0,1,65,138.39Zm0-1.68a2.08,2.08,0,0,0,1.6-.67,2.5,2.5,0,0,0,.63-1.78,2.57,2.57,0,0,0-.63-1.81,2.2,2.2,0,0,0-3.2,0,2.57,2.57,0,0,0-.62,1.81,2.49,2.49,0,0,0,.62,1.78A2.08,2.08,0,0,0,65,136.71Z" fill="#e52823"/><path d="M83.5,138.39a6.32,6.32,0,0,1-2.6-.51,5.89,5.89,0,0,1-3.18-3.39,7.36,7.36,0,0,1,0-4.9,5.83,5.83,0,0,1,3.18-3.38,6.48,6.48,0,0,1,2.6-.5,6.55,6.55,0,0,1,2.6.5,5.92,5.92,0,0,1,2,1.37,5.86,5.86,0,0,1,1.22,2,7.19,7.19,0,0,1,0,4.9,5.86,5.86,0,0,1-1.22,2,6,6,0,0,1-2,1.38A6.38,6.38,0,0,1,83.5,138.39Zm0-2.33a3.31,3.31,0,0,0,1.5-.32,3.2,3.2,0,0,0,1.08-.88,3.81,3.81,0,0,0,.67-1.28A5.31,5.31,0,0,0,87,132a5.19,5.19,0,0,0-.22-1.53,4,4,0,0,0-.67-1.27,3.2,3.2,0,0,0-1.08-.88,3.44,3.44,0,0,0-1.5-.32,3.19,3.19,0,0,0-2.58,1.2,3.77,3.77,0,0,0-.67,1.27A5.2,5.2,0,0,0,80,132a5.32,5.32,0,0,0,.23,1.54,3.64,3.64,0,0,0,.67,1.28,3.37,3.37,0,0,0,1.1.88A3.22,3.22,0,0,0,83.5,136.06Z" fill="#e52823"/><path d="M93,138.09v-9.8H91V126h2v-.67a4.19,4.19,0,0,1,1.08-3.1,3.66,3.66,0,0,1,2.72-1.08,4.43,4.43,0,0,1,2.13.45l-.58,2a1.91,1.91,0,0,0-1.05-.28,1.58,1.58,0,0,0-1.24.5,2.31,2.31,0,0,0-.43,1.53V126H98.1v2.28H95.65v9.8Z" fill="#e52823"/><path d="M100.75,138.09v-9.8h-2V126h2v-.67a4.19,4.19,0,0,1,1.07-3.1,3.68,3.68,0,0,1,2.72-1.08,4.43,4.43,0,0,1,2.13.45l-.57,2a2,2,0,0,0-1.06-.28,1.55,1.55,0,0,0-1.23.5,2.31,2.31,0,0,0-.44,1.53V126h2.45v2.28h-2.45v9.8Z" fill="#e52823"/><path d="M118.32,138.09V124h-5v-2.6h13V124h-5.05v14.08Z" fill="#e52823"/><path d="M131.54,138.39a6.38,6.38,0,0,1-2.6-.51,6,6,0,0,1-2-1.38,5.86,5.86,0,0,1-1.22-2,7.19,7.19,0,0,1,0-4.9,5.86,5.86,0,0,1,1.22-2,5.92,5.92,0,0,1,2-1.37,6.55,6.55,0,0,1,2.6-.5,6.48,6.48,0,0,1,2.6.5,5.83,5.83,0,0,1,3.18,3.38,7.36,7.36,0,0,1,0,4.9,5.89,5.89,0,0,1-3.18,3.39A6.32,6.32,0,0,1,131.54,138.39Zm0-2.33a3.25,3.25,0,0,0,1.5-.32,3.14,3.14,0,0,0,1.09-.88,3.79,3.79,0,0,0,.66-1.28A5.32,5.32,0,0,0,135,132a5.2,5.2,0,0,0-.23-1.53,3.93,3.93,0,0,0-.66-1.27,3.14,3.14,0,0,0-1.09-.88,3.38,3.38,0,0,0-1.5-.32,3.31,3.31,0,0,0-1.47.32,3.37,3.37,0,0,0-1.1.88,3.79,3.79,0,0,0-.68,1.27,5.19,5.19,0,0,0-.22,1.53,5.31,5.31,0,0,0,.22,1.54,3.65,3.65,0,0,0,.68,1.28,3.37,3.37,0,0,0,1.1.88A3.18,3.18,0,0,0,131.54,136.06Z" fill="#e52823"/><path d="M146.92,138.39a4.59,4.59,0,0,1-2.14-.51,5.26,5.26,0,0,1-1.74-1.47v6.28h-2.62V126H143v1.65a4.91,4.91,0,0,1,1.68-1.42,4.67,4.67,0,0,1,2.2-.53,5.39,5.39,0,0,1,2.15.43,4.66,4.66,0,0,1,1.69,1.24,5.93,5.93,0,0,1,1.11,2,8.25,8.25,0,0,1,.4,2.68,8.15,8.15,0,0,1-.4,2.67,5.88,5.88,0,0,1-1.11,2,4.93,4.93,0,0,1-1.69,1.25A5.23,5.23,0,0,1,146.92,138.39Zm-.78-2.33a3.05,3.05,0,0,0,2.5-1.12,4.41,4.41,0,0,0,.93-2.9,4.36,4.36,0,0,0-.93-2.89,3.08,3.08,0,0,0-2.5-1.11,3.69,3.69,0,0,0-1.78.46,3.55,3.55,0,0,0-1.32,1.14v4.77a2.89,2.89,0,0,0,.57.65,3.74,3.74,0,0,0,.75.53,3.68,3.68,0,0,0,.87.35A3.61,3.61,0,0,0,146.14,136.06Z" fill="#e52823"/><path d="M161.42,138.09V121.41h11.42V124h-8.5v4.25h8.33v2.6h-8.33v7.23Z" fill="#e52823"/><path d="M176.74,124.54a1.62,1.62,0,0,1-1.62-1.63,1.6,1.6,0,0,1,1.62-1.62,1.62,1.62,0,0,1,1.63,1.62,1.64,1.64,0,0,1-1.63,1.63Zm-1.32,13.55V126H178v12.08Z" fill="#e52823"/><path d="M189.62,138.09v-7.55a2.42,2.42,0,0,0-.66-2,2.77,2.77,0,0,0-1.79-.54,3.4,3.4,0,0,0-1.81.5,4.61,4.61,0,0,0-1.29,1.1v8.45h-2.63V126h2.63v1.63a5,5,0,0,1,.74-.7,6.34,6.34,0,0,1,1-.63,5.8,5.8,0,0,1,1.19-.43,5.45,5.45,0,0,1,1.36-.17,3.47,3.47,0,0,1,3.9,3.88v8.5Z" fill="#e52823"/><path d="M200.63,123a3.06,3.06,0,0,1-.24,1.2,3.29,3.29,0,0,1-.65,1,3.06,3.06,0,0,1-2.2.91,3,3,0,0,1-1.2-.24,3.21,3.21,0,0,1-1.65-1.65,3.15,3.15,0,0,1,0-2.41,3.09,3.09,0,0,1,.67-1,3.29,3.29,0,0,1,1-.65,3,3,0,0,1,1.2-.24,3.07,3.07,0,0,1,1.21.24,2.92,2.92,0,0,1,1.64,1.64A3.07,3.07,0,0,1,200.63,123Zm-.43,0a2.66,2.66,0,0,0-.21-1,2.67,2.67,0,0,0-3.49-1.4,2.73,2.73,0,0,0-1.41,1.4,2.84,2.84,0,0,0-.2,1,2.69,2.69,0,0,0,.2,1,2.44,2.44,0,0,0,.58.83,2.79,2.79,0,0,0,.83.57,2.58,2.58,0,0,0,1,.21,2.53,2.53,0,0,0,1-.21,2.76,2.76,0,0,0,.85-.57A2.41,2.41,0,0,0,200,124,2.52,2.52,0,0,0,200.2,123Zm-1.81,1.77-.92-1.39h-.63v1.39h-.48v-3.54h1.45a1.21,1.21,0,0,1,.8.29,1,1,0,0,1,.35.79,1.09,1.09,0,0,1-.11.5,1.24,1.24,0,0,1-.27.32.83.83,0,0,1-.31.18,1.07,1.07,0,0,1-.23,0l1,1.41Zm.06-2.46a.59.59,0,0,0-.21-.47.63.63,0,0,0-.43-.18h-1v1.28h1a.63.63,0,0,0,.43-.18A.54.54,0,0,0,198.45,122.3Z" fill="#e52823"/><path d="M22.55,164.89V148.21H34v2.6h-8.5v4.25H33.8v2.6H25.47v4.63H34v2.6Z" fill="#e52823"/><path d="M45.07,164.89v-7.55a2.41,2.41,0,0,0-.66-2,2.75,2.75,0,0,0-1.79-.54,3.4,3.4,0,0,0-1.81.5,4.91,4.91,0,0,0-1.29,1.1v8.45H36.9V152.81h2.62v1.63a5.59,5.59,0,0,1,.74-.7,6,6,0,0,1,1-.63,5.85,5.85,0,0,1,2.55-.6,3.93,3.93,0,0,1,2.92,1,4,4,0,0,1,1,2.88v8.5Z" fill="#e52823"/><path d="M56.6,165.19a6.43,6.43,0,0,1-2.52-.48,5.65,5.65,0,0,1-2-1.32,6.19,6.19,0,0,1-1.29-2,6.79,6.79,0,0,1-.46-2.54,6.7,6.7,0,0,1,.46-2.53,6.25,6.25,0,0,1,1.29-2,5.94,5.94,0,0,1,2-1.32,6.43,6.43,0,0,1,2.52-.48,6.61,6.61,0,0,1,1.61.18,5.58,5.58,0,0,1,1.27.47,4.58,4.58,0,0,1,1,.69,7.06,7.06,0,0,1,.75.81l-1.72,1.58a3.25,3.25,0,0,0-2.78-1.4A3.4,3.4,0,0,0,54.07,156a4.15,4.15,0,0,0-1,2.89,4.9,4.9,0,0,0,.26,1.61,4,4,0,0,0,.75,1.28,3.64,3.64,0,0,0,1.15.83,3.57,3.57,0,0,0,1.49.3,3.23,3.23,0,0,0,2.78-1.45L61.22,163a5.92,5.92,0,0,1-1.75,1.5A5.62,5.62,0,0,1,56.6,165.19Z" fill="#e52823"/><path d="M71.72,164.89v-7.6a2.38,2.38,0,0,0-.65-1.94,2.78,2.78,0,0,0-1.77-.51,3.45,3.45,0,0,0-1.84.5,4.45,4.45,0,0,0-1.26,1.1v8.45H63.57V148.21H66.2v6.23a5.47,5.47,0,0,1,.73-.7,6.34,6.34,0,0,1,1-.63,5.75,5.75,0,0,1,2.54-.6,4,4,0,0,1,2.92,1,3.86,3.86,0,0,1,1,2.85v8.55Z" fill="#e52823"/><path d="M86.25,164.89v-1.65a5.24,5.24,0,0,1-1.69,1.42,4.6,4.6,0,0,1-2.19.53,5.25,5.25,0,0,1-2.14-.43,4.64,4.64,0,0,1-1.7-1.25,6,6,0,0,1-1.11-2,9,9,0,0,1,0-5.3,6.13,6.13,0,0,1,1.11-2A4.84,4.84,0,0,1,80.22,153a5.23,5.23,0,0,1,2.15-.44,4.78,4.78,0,0,1,2.15.5,5,5,0,0,1,1.73,1.48v-1.68h2.62v12.08Zm-3.1-2a3.61,3.61,0,0,0,.91-.12,3.68,3.68,0,0,0,.87-.35,4.11,4.11,0,0,0,.75-.51,3.08,3.08,0,0,0,.57-.64v-4.78a3.61,3.61,0,0,0-.57-.62,3.74,3.74,0,0,0-.75-.53,4.17,4.17,0,0,0-.87-.35,3.61,3.61,0,0,0-.91-.12,3.27,3.27,0,0,0-1.43.3,3.19,3.19,0,0,0-1.07.82,3.61,3.61,0,0,0-.69,1.27,5.52,5.52,0,0,0,0,3.22,3.84,3.84,0,0,0,.69,1.28,3.22,3.22,0,0,0,1.07.83A3.27,3.27,0,0,0,83.15,162.86Z" fill="#e52823"/><path d="M100.45,164.89v-7.55a2.41,2.41,0,0,0-.67-2,2.72,2.72,0,0,0-1.78-.54,3.43,3.43,0,0,0-1.82.5,4.7,4.7,0,0,0-1.28,1.1v8.45H92.27V152.81H94.9v1.63a5.47,5.47,0,0,1,.73-.7,6,6,0,0,1,1-.63,5.6,5.6,0,0,1,1.19-.43,5.39,5.39,0,0,1,1.36-.17,3.47,3.47,0,0,1,3.9,3.88v8.5Z" fill="#e52823"/><path d="M110.12,165.19a3.13,3.13,0,0,1-2.33-.8,3.24,3.24,0,0,1-.77-2.33v-7h-2v-2.28h2v-3.3h2.63v3.3h2.45v2.28h-2.45v6.32a1.77,1.77,0,0,0,.28,1,1,1,0,0,0,.86.41,1.73,1.73,0,0,0,.69-.13,1.23,1.23,0,0,0,.46-.32l.63,2a2.77,2.77,0,0,1-.95.55A4.3,4.3,0,0,1,110.12,165.19Z" fill="#e52823"/><path d="M129.39,164.89v-1.65a5.1,5.1,0,0,1-1.68,1.42,4.6,4.6,0,0,1-2.19.53,5.25,5.25,0,0,1-2.14-.43,4.64,4.64,0,0,1-1.7-1.25,6,6,0,0,1-1.11-2,9,9,0,0,1,0-5.3,6.13,6.13,0,0,1,1.11-2,4.84,4.84,0,0,1,1.69-1.26,5.23,5.23,0,0,1,2.15-.44,4.78,4.78,0,0,1,2.15.5,4.85,4.85,0,0,1,1.72,1.48v-6.28H132v16.68Zm-3.1-2a3.7,3.7,0,0,0,1.79-.47,4.11,4.11,0,0,0,.75-.51,3,3,0,0,0,.56-.64v-4.78a3.53,3.53,0,0,0-.56-.62,3.74,3.74,0,0,0-.75-.53,4.17,4.17,0,0,0-.87-.35,3.69,3.69,0,0,0-.92-.12,3.21,3.21,0,0,0-2.5,1.12,3.59,3.59,0,0,0-.68,1.27,5.52,5.52,0,0,0,0,3.22,3.83,3.83,0,0,0,.68,1.28,3.17,3.17,0,0,0,2.5,1.13Z" fill="#e52823"/><path d="M141,165.19a7,7,0,0,1-2.54-.45,5.74,5.74,0,0,1-2-1.29,6,6,0,0,1-1.31-2,6.8,6.8,0,0,1-.48-2.6,6.72,6.72,0,0,1,.45-2.46,5.93,5.93,0,0,1,1.27-2,6.21,6.21,0,0,1,1.93-1.35,6.39,6.39,0,0,1,4.93,0,5.44,5.44,0,0,1,1.87,1.36,6,6,0,0,1,1.19,2.08,7.87,7.87,0,0,1,.41,2.62v.65h-9.3a3.78,3.78,0,0,0,.37,1.28,3.54,3.54,0,0,0,1.93,1.79,4.3,4.3,0,0,0,1.53.26,5.4,5.4,0,0,0,1.85-.35,4.35,4.35,0,0,0,1.6-1l1.2,1.72a6.07,6.07,0,0,1-2.2,1.33A8.05,8.05,0,0,1,141,165.19Zm3.2-7.35a3.77,3.77,0,0,0-.24-1.09,3.23,3.23,0,0,0-1.66-1.79,3.54,3.54,0,0,0-1.53-.3,3.47,3.47,0,0,0-1.45.29,3,3,0,0,0-1,.75,3.35,3.35,0,0,0-.64,1,3.43,3.43,0,0,0-.25,1.11Z" fill="#e52823"/><path d="M153.49,165.19a8.25,8.25,0,0,1-2.9-.49,6.23,6.23,0,0,1-2.27-1.41l1.2-1.88a5,5,0,0,0,.77.63,6.77,6.77,0,0,0,1,.54,7.58,7.58,0,0,0,1.14.37,5.18,5.18,0,0,0,1.16.14,3.06,3.06,0,0,0,1.8-.44,1.37,1.37,0,0,0,.6-1.16,1,1,0,0,0-.53-.9,5.38,5.38,0,0,0-1.35-.5c-.54-.13-1.13-.27-1.77-.4a7.16,7.16,0,0,1-1.76-.6,4,4,0,0,1-1.35-1.08,2.87,2.87,0,0,1-.54-1.85,3.33,3.33,0,0,1,1.23-2.57,4.39,4.39,0,0,1,1.49-.79,6.63,6.63,0,0,1,2-.29,7.1,7.1,0,0,1,2.72.48,6.76,6.76,0,0,1,2,1.2L157,156a4.62,4.62,0,0,0-1.49-1,5,5,0,0,0-2.09-.42,2.75,2.75,0,0,0-1.63.42,1.31,1.31,0,0,0-.59,1.08.86.86,0,0,0,.54.8,5.89,5.89,0,0,0,1.35.46l1.76.4a7.21,7.21,0,0,1,1.76.63A3.87,3.87,0,0,1,158,159.5a3.09,3.09,0,0,1,.54,1.91,3.43,3.43,0,0,1-.33,1.5,3.08,3.08,0,0,1-1,1.2,4.63,4.63,0,0,1-1.57.79A7.5,7.5,0,0,1,153.49,165.19Z" fill="#e52823"/><path d="M169.14,164.89l-3.67-5-1.7,1.75v3.25h-2.63V148.21h2.63v10.43l5.32-5.83h3.25l-5,5.48,5.1,6.6Z" fill="#e52823"/><path d="M178,165.19a3.13,3.13,0,0,1-2.33-.8,3.24,3.24,0,0,1-.77-2.33v-7h-2v-2.28h2v-3.3h2.62v3.3h2.45v2.28h-2.45v6.32a1.77,1.77,0,0,0,.29,1,1,1,0,0,0,.86.41,1.73,1.73,0,0,0,.69-.13,1.32,1.32,0,0,0,.46-.32l.63,2a2.77,2.77,0,0,1-.95.55A4.3,4.3,0,0,1,178,165.19Z" fill="#e52823"/><path d="M187.77,165.19a6.32,6.32,0,0,1-2.6-.51,5.89,5.89,0,0,1-3.18-3.39,7.36,7.36,0,0,1,0-4.9,5.89,5.89,0,0,1,1.23-2,5.72,5.72,0,0,1,1.95-1.37,7,7,0,0,1,5.2,0,5.78,5.78,0,0,1,3.17,3.38,7.19,7.19,0,0,1,0,4.9,5.86,5.86,0,0,1-1.22,2,6,6,0,0,1-1.95,1.38A6.35,6.35,0,0,1,187.77,165.19Zm0-2.33a3.16,3.16,0,0,0,2.59-1.2,3.79,3.79,0,0,0,.66-1.28,5.31,5.31,0,0,0,.22-1.54,5.19,5.19,0,0,0-.22-1.53,3.93,3.93,0,0,0-.66-1.27,3.33,3.33,0,0,0-1.09-.88,3.44,3.44,0,0,0-1.5-.32,3.19,3.19,0,0,0-2.58,1.2,3.77,3.77,0,0,0-.67,1.27,5.2,5.2,0,0,0-.23,1.53,5.32,5.32,0,0,0,.23,1.54,3.64,3.64,0,0,0,.67,1.28,3.37,3.37,0,0,0,1.1.88A3.25,3.25,0,0,0,187.77,162.86Z" fill="#e52823"/><path d="M203.14,165.19a4.55,4.55,0,0,1-2.13-.51,5.38,5.38,0,0,1-1.74-1.47v6.28h-2.63V152.81h2.63v1.65a5,5,0,0,1,1.67-1.42,4.67,4.67,0,0,1,2.2-.53,5.36,5.36,0,0,1,2.15.43,4.58,4.58,0,0,1,1.69,1.24,5.61,5.61,0,0,1,1.11,2,8.25,8.25,0,0,1,.4,2.68,8.15,8.15,0,0,1-.4,2.67,5.57,5.57,0,0,1-1.11,2,4.84,4.84,0,0,1-1.69,1.25A5.2,5.2,0,0,1,203.14,165.19Zm-.77-2.33a3.07,3.07,0,0,0,2.5-1.12,4.46,4.46,0,0,0,.92-2.9,4.41,4.41,0,0,0-.92-2.89,3.09,3.09,0,0,0-2.5-1.11,3.73,3.73,0,0,0-1.79.46,3.6,3.6,0,0,0-1.31,1.14v4.77a3.11,3.11,0,0,0,.56.65,4.41,4.41,0,0,0,.75.53,3.94,3.94,0,0,0,.88.35A3.56,3.56,0,0,0,202.37,162.86Z" fill="#e52823"/><path d="M31,191.69V190a5.24,5.24,0,0,1-1.69,1.42,4.54,4.54,0,0,1-2.18.53,5.25,5.25,0,0,1-2.14-.43,4.56,4.56,0,0,1-1.7-1.25,5.7,5.7,0,0,1-1.11-2,9,9,0,0,1,0-5.3,5.79,5.79,0,0,1,1.11-2A4.75,4.75,0,0,1,25,179.75a5.2,5.2,0,0,1,2.15-.44,4.82,4.82,0,0,1,2.15.5A4.93,4.93,0,0,1,31,181.29v-1.68H33.6v12.08Zm-3.1-2a3.56,3.56,0,0,0,.91-.12,3.94,3.94,0,0,0,.88-.35,4.94,4.94,0,0,0,.75-.51A3.34,3.34,0,0,0,31,188v-4.78a4,4,0,0,0-.56-.62,4.41,4.41,0,0,0-.75-.53,4.49,4.49,0,0,0-.88-.35,3.56,3.56,0,0,0-.91-.12,3.21,3.21,0,0,0-2.5,1.12,3.7,3.7,0,0,0-.69,1.27,5.75,5.75,0,0,0,0,3.22,3.84,3.84,0,0,0,.69,1.28,3.13,3.13,0,0,0,1.08.83A3.22,3.22,0,0,0,27.87,189.66Z" fill="#e52823"/><path d="M41.57,192a5.23,5.23,0,0,1-2.15-.44,4.93,4.93,0,0,1-1.69-1.25,5.88,5.88,0,0,1-1.11-2,8.15,8.15,0,0,1-.4-2.67,8.25,8.25,0,0,1,.4-2.68,5.93,5.93,0,0,1,1.11-2,4.78,4.78,0,0,1,1.69-1.24,5.39,5.39,0,0,1,2.15-.43,4.67,4.67,0,0,1,2.2.53,4.91,4.91,0,0,1,1.68,1.42v-1.65h2.62v16.68H45.45V190a5.26,5.26,0,0,1-1.74,1.47A4.59,4.59,0,0,1,41.57,192Zm.78-2.33a3.61,3.61,0,0,0,.91-.12,3.68,3.68,0,0,0,.87-.35,3.74,3.74,0,0,0,.75-.53,2.89,2.89,0,0,0,.57-.65v-4.77a3.55,3.55,0,0,0-1.32-1.14,3.69,3.69,0,0,0-1.78-.46,3.08,3.08,0,0,0-2.5,1.11,4.36,4.36,0,0,0-.93,2.89,4.41,4.41,0,0,0,.93,2.9A3.05,3.05,0,0,0,42.35,189.66Z" fill="#e52823"/><path d="M59.62,191.69v-1.6a6.29,6.29,0,0,1-1.74,1.31,5.2,5.2,0,0,1-2.51.59,3.92,3.92,0,0,1-2.92-1,3.87,3.87,0,0,1-1-2.84v-8.55H54.1v7.58a2.4,2.4,0,0,0,.66,1.94,2.81,2.81,0,0,0,1.79.53,3.5,3.5,0,0,0,1.81-.48,4.43,4.43,0,0,0,1.26-1.09v-8.48h2.63v12.08Z" fill="#e52823"/><path d="M74.15,191.69V190a5.24,5.24,0,0,1-1.69,1.42,4.6,4.6,0,0,1-2.19.53,5.25,5.25,0,0,1-2.14-.43,4.72,4.72,0,0,1-1.7-1.25,6,6,0,0,1-1.11-2,9,9,0,0,1,0-5.3,6.13,6.13,0,0,1,1.11-2,4.84,4.84,0,0,1,1.69-1.26,5.23,5.23,0,0,1,2.15-.44,4.78,4.78,0,0,1,2.15.5,5,5,0,0,1,1.73,1.48v-1.68h2.62v12.08Zm-3.1-2a3.61,3.61,0,0,0,.91-.12,3.68,3.68,0,0,0,.87-.35,4.11,4.11,0,0,0,.75-.51,3.08,3.08,0,0,0,.57-.64v-4.78a3.61,3.61,0,0,0-.57-.62,3.74,3.74,0,0,0-.75-.53,4.17,4.17,0,0,0-.87-.35,3.61,3.61,0,0,0-.91-.12,3.27,3.27,0,0,0-1.43.3,3.19,3.19,0,0,0-1.07.82,3.7,3.7,0,0,0-.69,1.27,5.52,5.52,0,0,0,0,3.22,3.84,3.84,0,0,0,.69,1.28,3.09,3.09,0,0,0,1.07.83A3.27,3.27,0,0,0,71.05,189.66Z" fill="#e52823"/><path d="M80.17,191.69V179.61H82.8v1.75a6,6,0,0,1,1.72-1.46,4.37,4.37,0,0,1,2.2-.59v2.6a3.84,3.84,0,0,0-.8-.07A3.58,3.58,0,0,0,85,182a5.57,5.57,0,0,0-.9.35,4,4,0,0,0-.78.53,2.58,2.58,0,0,0-.55.62v8.23Z" fill="#e52823"/><path d="M90.17,178.14a1.56,1.56,0,0,1-1.15-.48,1.64,1.64,0,0,1,0-2.3,1.64,1.64,0,0,1,2.3,0,1.56,1.56,0,0,1,.48,1.15,1.55,1.55,0,0,1-.48,1.15A1.56,1.56,0,0,1,90.17,178.14Zm-1.32,13.55V179.61h2.62v12.08Z" fill="#e52823"/><path d="M103,191.69v-1.6a6.29,6.29,0,0,1-1.74,1.31,5.2,5.2,0,0,1-2.51.59,3.92,3.92,0,0,1-2.92-1,3.87,3.87,0,0,1-1-2.84v-8.55H97.5v7.58a2.4,2.4,0,0,0,.66,1.94,2.81,2.81,0,0,0,1.79.53,3.5,3.5,0,0,0,1.81-.48,4.43,4.43,0,0,0,1.26-1.09v-8.48h2.63v12.08Z" fill="#e52823"/><path d="M123.87,191.69v-7.88a2.48,2.48,0,0,0-.46-1.57,1.83,1.83,0,0,0-1.54-.6,3,3,0,0,0-1.64.5,4,4,0,0,0-1.16,1.1v8.45h-2.62v-7.88a2.54,2.54,0,0,0-.45-1.57,1.79,1.79,0,0,0-1.53-.6,2.83,2.83,0,0,0-1.62.51,4.83,4.83,0,0,0-1.18,1.09v8.45h-2.62V179.61h2.62v1.63a4,4,0,0,1,.58-.61,4.47,4.47,0,0,1,.9-.63,7.1,7.1,0,0,1,1.15-.49,4.34,4.34,0,0,1,1.32-.2,3.57,3.57,0,0,1,2.18.62,3,3,0,0,1,1.12,1.58,5.07,5.07,0,0,1,.66-.8,5.35,5.35,0,0,1,1-.71,5.44,5.44,0,0,1,1.18-.5,4.77,4.77,0,0,1,1.31-.19,3.49,3.49,0,0,1,2.56.9,3.71,3.71,0,0,1,.92,2.75v8.73Z" fill="#e52823"/><path d="M133.15,190.74a4.86,4.86,0,0,1-.64,2.42,5.56,5.56,0,0,1-1.69,1.85l-1.2-1a3.91,3.91,0,0,0,.6-.45,5.12,5.12,0,0,0,.55-.59,3.85,3.85,0,0,0,.43-.65,2.14,2.14,0,0,0,.22-.66.71.71,0,0,1-.17.05,1.1,1.1,0,0,1-.25,0,1.38,1.38,0,0,1-1.05-.45,1.58,1.58,0,0,1-.43-1.15A1.66,1.66,0,0,1,130,189a1.63,1.63,0,0,1,1.21-.5,1.83,1.83,0,0,1,1.35.59A2.34,2.34,0,0,1,133.15,190.74Z" fill="#e52823"/><path d="M147.67,192a8.48,8.48,0,0,1-3.82-.79,6.85,6.85,0,0,1-2.48-1.91l1.6-1.93a5.39,5.39,0,0,0,2,1.49,6.27,6.27,0,0,0,2.57.54,4.1,4.1,0,0,0,2.56-.7,2.22,2.22,0,0,0,.92-1.85,2,2,0,0,0-1-1.81,5.42,5.42,0,0,0-2.75-.57l-1.12,0c-.39,0-.65,0-.78,0v-2.67h1.9a7.28,7.28,0,0,0,1.37-.12,3.43,3.43,0,0,0,1.09-.4,2.05,2.05,0,0,0,.72-.68,1.76,1.76,0,0,0,.27-1,1.86,1.86,0,0,0-.27-1,2.07,2.07,0,0,0-.72-.72,3.76,3.76,0,0,0-1.08-.44,5.47,5.47,0,0,0-1.31-.15,5.83,5.83,0,0,0-4.32,1.85l-1.5-1.82a7.43,7.43,0,0,1,2.48-1.89,8.23,8.23,0,0,1,3.62-.74,8.92,8.92,0,0,1,2.45.32A5.74,5.74,0,0,1,152,176a4,4,0,0,1,1.23,1.4,3.94,3.94,0,0,1,.44,1.87,3.32,3.32,0,0,1-.33,1.51,3.83,3.83,0,0,1-.84,1.14,4.6,4.6,0,0,1-1.16.77,5,5,0,0,1-1.27.4,5.17,5.17,0,0,1,1.27.35,4.4,4.4,0,0,1,1.26.78,4,4,0,0,1,1,1.22,3.71,3.71,0,0,1,.37,1.71,4.34,4.34,0,0,1-1.7,3.5,6.13,6.13,0,0,1-2,1A8.76,8.76,0,0,1,147.67,192Z" fill="#e52823"/><path d="M158.2,192a1.65,1.65,0,0,1-1.24-.52,1.74,1.74,0,0,1-.51-1.25A1.65,1.65,0,0,1,157,189a1.73,1.73,0,0,1,2.47,0,1.66,1.66,0,0,1,.52,1.21,1.75,1.75,0,0,1-.52,1.25A1.65,1.65,0,0,1,158.2,192Z" fill="#e52823"/><path d="M168.87,192a8.71,8.71,0,0,1-3.65-.69,7.21,7.21,0,0,1-2.52-1.89l1.67-2a5.6,5.6,0,0,0,4.48,2,3.53,3.53,0,0,0,2.51-.85,2.76,2.76,0,0,0,.91-2.1,2.73,2.73,0,0,0-.9-2.15,3.58,3.58,0,0,0-2.45-.8,5.4,5.4,0,0,0-1.95.34,5,5,0,0,0-1.7,1.08l-2.07-.6V175h10.92v2.6h-8v4.78a5.76,5.76,0,0,1,1.6-1,5.47,5.47,0,0,1,2.18-.43,5.56,5.56,0,0,1,2,.37,5,5,0,0,1,2.89,2.73,5.69,5.69,0,0,1,.44,2.28,5.53,5.53,0,0,1-.48,2.34,5.24,5.24,0,0,1-1.31,1.77,6,6,0,0,1-2,1.14A7.93,7.93,0,0,1,168.87,192Z" fill="#e52823"/><path d="M189.34,196.59a8.91,8.91,0,0,1-2.75-.39,6.44,6.44,0,0,1-2.32-1.41l1.23-1.9a4.09,4.09,0,0,0,1.7,1.2,6.2,6.2,0,0,0,2.14.35,5.56,5.56,0,0,0,1.29-.16,3,3,0,0,0,1.15-.57,2.93,2.93,0,0,0,.83-1,3.69,3.69,0,0,0,.31-1.62v-1.37a5.27,5.27,0,0,1-1.69,1.47,4.4,4.4,0,0,1-2.19.55,5.39,5.39,0,0,1-2.13-.41,4.54,4.54,0,0,1-1.7-1.2,5.5,5.5,0,0,1-1.12-1.94,9.1,9.1,0,0,1,0-5.27,5.64,5.64,0,0,1,1.12-1.95,4.66,4.66,0,0,1,1.68-1.21,5.39,5.39,0,0,1,2.15-.42,4.83,4.83,0,0,1,2.16.5,4.93,4.93,0,0,1,1.72,1.48v-1.68h2.62v11.45a6,6,0,0,1-.54,2.7,4.56,4.56,0,0,1-1.44,1.7,5.56,5.56,0,0,1-2,.88A9.88,9.88,0,0,1,189.34,196.59Zm.48-7.23a3.63,3.63,0,0,0,1.79-.47,3.77,3.77,0,0,0,1.31-1.13v-4.52a3.88,3.88,0,0,0-1.31-1.13,3.74,3.74,0,0,0-1.79-.47,3.14,3.14,0,0,0-2.5,1.06,4.12,4.12,0,0,0-.93,2.81,4.06,4.06,0,0,0,.93,2.8A3.17,3.17,0,0,0,189.82,189.36Z" fill="#e52823"/><path d="M207.45,191.69V190a5.24,5.24,0,0,1-1.69,1.42,4.6,4.6,0,0,1-2.19.53,5.25,5.25,0,0,1-2.14-.43,4.64,4.64,0,0,1-1.7-1.25,6,6,0,0,1-1.11-2,9,9,0,0,1,0-5.3,6.13,6.13,0,0,1,1.11-2,4.84,4.84,0,0,1,1.69-1.26,5.23,5.23,0,0,1,2.15-.44,4.78,4.78,0,0,1,2.15.5,5,5,0,0,1,1.73,1.48v-1.68h2.62v12.08Zm-3.11-2a3.7,3.7,0,0,0,1.79-.47,4.11,4.11,0,0,0,.75-.51,3.4,3.4,0,0,0,.57-.64v-4.78a4.06,4.06,0,0,0-.57-.62,3.74,3.74,0,0,0-.75-.53,4.17,4.17,0,0,0-.87-.35,3.69,3.69,0,0,0-.92-.12,3.21,3.21,0,0,0-2.5,1.12,3.68,3.68,0,0,0-.68,1.27,5.52,5.52,0,0,0,0,3.22,3.83,3.83,0,0,0,.68,1.28,3.13,3.13,0,0,0,1.08.83A3.25,3.25,0,0,0,204.34,189.66Z" fill="#e52823"/><path d="M216.57,192a3.1,3.1,0,0,1-2.31-.8,3.16,3.16,0,0,1-.79-2.33V175h2.62v13.2a1.77,1.77,0,0,0,.29,1,1,1,0,0,0,.87.41,1.73,1.73,0,0,0,.69-.13,1.22,1.22,0,0,0,.48-.32l.62,2a2.67,2.67,0,0,1-.95.55A4.34,4.34,0,0,1,216.57,192Z" fill="#e52823"/><path d="M222,192a1.65,1.65,0,0,1-1.24-.52,1.74,1.74,0,0,1-.51-1.25,1.65,1.65,0,0,1,.51-1.21,1.73,1.73,0,0,1,2.47,0,1.66,1.66,0,0,1,.52,1.21,1.75,1.75,0,0,1-.52,1.25A1.65,1.65,0,0,1,222,192Z" fill="#e52823"/></g></g></svg>